%TF.GenerationSoftware,KiCad,Pcbnew,(5.1.10)-1*%
%TF.CreationDate,2022-05-25T15:21:49+02:00*%
%TF.ProjectId,NGL_Proto_EURO,4e474c5f-5072-46f7-946f-5f4555524f2e,V1*%
%TF.SameCoordinates,Original*%
%TF.FileFunction,Legend,Top*%
%TF.FilePolarity,Positive*%
%FSLAX46Y46*%
G04 Gerber Fmt 4.6, Leading zero omitted, Abs format (unit mm)*
G04 Created by KiCad (PCBNEW (5.1.10)-1) date 2022-05-25 15:21:49*
%MOMM*%
%LPD*%
G01*
G04 APERTURE LIST*
%ADD10C,0.300000*%
%ADD11C,0.150000*%
%ADD12C,0.120000*%
%ADD13C,0.010000*%
%ADD14C,0.400000*%
%ADD15C,0.200000*%
%ADD16C,0.127000*%
%ADD17C,0.100000*%
G04 APERTURE END LIST*
D10*
X122821428Y-104107142D02*
X123964285Y-104107142D01*
X123392857Y-104678571D02*
X123392857Y-103535714D01*
X124464285Y-103178571D02*
X124964285Y-104678571D01*
X125464285Y-103178571D01*
X126464285Y-103892857D02*
X126678571Y-103964285D01*
X126750000Y-104035714D01*
X126821428Y-104178571D01*
X126821428Y-104392857D01*
X126750000Y-104535714D01*
X126678571Y-104607142D01*
X126535714Y-104678571D01*
X125964285Y-104678571D01*
X125964285Y-103178571D01*
X126464285Y-103178571D01*
X126607142Y-103250000D01*
X126678571Y-103321428D01*
X126750000Y-103464285D01*
X126750000Y-103607142D01*
X126678571Y-103750000D01*
X126607142Y-103821428D01*
X126464285Y-103892857D01*
X125964285Y-103892857D01*
X127392857Y-104250000D02*
X128107142Y-104250000D01*
X127250000Y-104678571D02*
X127750000Y-103178571D01*
X128250000Y-104678571D01*
X128535714Y-103178571D02*
X129392857Y-103178571D01*
X128964285Y-104678571D02*
X128964285Y-103178571D01*
X112321428Y-113107142D02*
X113464285Y-113107142D01*
X112892857Y-113678571D02*
X112892857Y-112535714D01*
X113964285Y-112178571D02*
X114464285Y-113678571D01*
X114964285Y-112178571D01*
X115964285Y-112892857D02*
X116178571Y-112964285D01*
X116250000Y-113035714D01*
X116321428Y-113178571D01*
X116321428Y-113392857D01*
X116250000Y-113535714D01*
X116178571Y-113607142D01*
X116035714Y-113678571D01*
X115464285Y-113678571D01*
X115464285Y-112178571D01*
X115964285Y-112178571D01*
X116107142Y-112250000D01*
X116178571Y-112321428D01*
X116250000Y-112464285D01*
X116250000Y-112607142D01*
X116178571Y-112750000D01*
X116107142Y-112821428D01*
X115964285Y-112892857D01*
X115464285Y-112892857D01*
X116892857Y-113250000D02*
X117607142Y-113250000D01*
X116750000Y-113678571D02*
X117250000Y-112178571D01*
X117750000Y-113678571D01*
X118035714Y-112178571D02*
X118892857Y-112178571D01*
X118464285Y-113678571D02*
X118464285Y-112178571D01*
D11*
X232722380Y-89190476D02*
X232722380Y-88523809D01*
X233722380Y-88952380D01*
X232722380Y-87952380D02*
X232722380Y-87857142D01*
X232770000Y-87761904D01*
X232817619Y-87714285D01*
X232912857Y-87666666D01*
X233103333Y-87619047D01*
X233341428Y-87619047D01*
X233531904Y-87666666D01*
X233627142Y-87714285D01*
X233674761Y-87761904D01*
X233722380Y-87857142D01*
X233722380Y-87952380D01*
X233674761Y-88047619D01*
X233627142Y-88095238D01*
X233531904Y-88142857D01*
X233341428Y-88190476D01*
X233103333Y-88190476D01*
X232912857Y-88142857D01*
X232817619Y-88095238D01*
X232770000Y-88047619D01*
X232722380Y-87952380D01*
X233674761Y-87142857D02*
X233722380Y-87142857D01*
X233817619Y-87190476D01*
X233865238Y-87238095D01*
X232722380Y-86523809D02*
X232722380Y-86428571D01*
X232770000Y-86333333D01*
X232817619Y-86285714D01*
X232912857Y-86238095D01*
X233103333Y-86190476D01*
X233341428Y-86190476D01*
X233531904Y-86238095D01*
X233627142Y-86285714D01*
X233674761Y-86333333D01*
X233722380Y-86428571D01*
X233722380Y-86523809D01*
X233674761Y-86619047D01*
X233627142Y-86666666D01*
X233531904Y-86714285D01*
X233341428Y-86761904D01*
X233103333Y-86761904D01*
X232912857Y-86714285D01*
X232817619Y-86666666D01*
X232770000Y-86619047D01*
X232722380Y-86523809D01*
X232722380Y-85571428D02*
X232722380Y-85476190D01*
X232770000Y-85380952D01*
X232817619Y-85333333D01*
X232912857Y-85285714D01*
X233103333Y-85238095D01*
X233341428Y-85238095D01*
X233531904Y-85285714D01*
X233627142Y-85333333D01*
X233674761Y-85380952D01*
X233722380Y-85476190D01*
X233722380Y-85571428D01*
X233674761Y-85666666D01*
X233627142Y-85714285D01*
X233531904Y-85761904D01*
X233341428Y-85809523D01*
X233103333Y-85809523D01*
X232912857Y-85761904D01*
X232817619Y-85714285D01*
X232770000Y-85666666D01*
X232722380Y-85571428D01*
X232722380Y-84619047D02*
X232722380Y-84523809D01*
X232770000Y-84428571D01*
X232817619Y-84380952D01*
X232912857Y-84333333D01*
X233103333Y-84285714D01*
X233341428Y-84285714D01*
X233531904Y-84333333D01*
X233627142Y-84380952D01*
X233674761Y-84428571D01*
X233722380Y-84523809D01*
X233722380Y-84619047D01*
X233674761Y-84714285D01*
X233627142Y-84761904D01*
X233531904Y-84809523D01*
X233341428Y-84857142D01*
X233103333Y-84857142D01*
X232912857Y-84809523D01*
X232817619Y-84761904D01*
X232770000Y-84714285D01*
X232722380Y-84619047D01*
X233722380Y-83095238D02*
X233055714Y-83095238D01*
X233150952Y-83095238D02*
X233103333Y-83047619D01*
X233055714Y-82952380D01*
X233055714Y-82809523D01*
X233103333Y-82714285D01*
X233198571Y-82666666D01*
X233722380Y-82666666D01*
X233198571Y-82666666D02*
X233103333Y-82619047D01*
X233055714Y-82523809D01*
X233055714Y-82380952D01*
X233103333Y-82285714D01*
X233198571Y-82238095D01*
X233722380Y-82238095D01*
X233722380Y-81761904D02*
X233055714Y-81761904D01*
X233150952Y-81761904D02*
X233103333Y-81714285D01*
X233055714Y-81619047D01*
X233055714Y-81476190D01*
X233103333Y-81380952D01*
X233198571Y-81333333D01*
X233722380Y-81333333D01*
X233198571Y-81333333D02*
X233103333Y-81285714D01*
X233055714Y-81190476D01*
X233055714Y-81047619D01*
X233103333Y-80952380D01*
X233198571Y-80904761D01*
X233722380Y-80904761D01*
D12*
X232000000Y-120000000D02*
X232000000Y-50000000D01*
X213000000Y-120000000D02*
X232586421Y-120000000D01*
X213000000Y-50000000D02*
X232586421Y-50000000D01*
X232000000Y-50000000D02*
X232586421Y-51126504D01*
X232000000Y-50000000D02*
X231413579Y-51126504D01*
X232000000Y-120000000D02*
X232586421Y-118873496D01*
X232000000Y-120000000D02*
X231413579Y-118873496D01*
D11*
X224917344Y-106857580D02*
X224926187Y-106238595D01*
X225302339Y-106577336D01*
X225304380Y-106434494D01*
X225353354Y-106339946D01*
X225401649Y-106293012D01*
X225497557Y-106246758D01*
X225735628Y-106250159D01*
X225830177Y-106299133D01*
X225877111Y-106347428D01*
X225923364Y-106443336D01*
X225919283Y-106729022D01*
X225870308Y-106823570D01*
X225822014Y-106870504D01*
X224939111Y-105333926D02*
X224932309Y-105810068D01*
X225407771Y-105864484D01*
X225360837Y-105816189D01*
X225314583Y-105720281D01*
X225317984Y-105482210D01*
X225366958Y-105387662D01*
X225415253Y-105340728D01*
X225511161Y-105294474D01*
X225749232Y-105297875D01*
X225843781Y-105346850D01*
X225890715Y-105395144D01*
X225936968Y-105491053D01*
X225933567Y-105729124D01*
X225884593Y-105823672D01*
X225836298Y-105870606D01*
X225898877Y-104823774D02*
X225946491Y-104824454D01*
X226041039Y-104873429D01*
X226087973Y-104921723D01*
X224955436Y-104191185D02*
X224956796Y-104095957D01*
X225005771Y-104001409D01*
X225054065Y-103954475D01*
X225149974Y-103908221D01*
X225341111Y-103863328D01*
X225579182Y-103866729D01*
X225768958Y-103917064D01*
X225863506Y-103966038D01*
X225910440Y-104014333D01*
X225956694Y-104110241D01*
X225955334Y-104205469D01*
X225906359Y-104300018D01*
X225858065Y-104346952D01*
X225762156Y-104393205D01*
X225571019Y-104438099D01*
X225332948Y-104434698D01*
X225143172Y-104384363D01*
X225048624Y-104335388D01*
X225001690Y-104287094D01*
X224955436Y-104191185D01*
X224969040Y-103238901D02*
X224970400Y-103143673D01*
X225019375Y-103049125D01*
X225067669Y-103002191D01*
X225163578Y-102955937D01*
X225354715Y-102911044D01*
X225592786Y-102914445D01*
X225782562Y-102964780D01*
X225877111Y-103013754D01*
X225924044Y-103062049D01*
X225970298Y-103157957D01*
X225968938Y-103253186D01*
X225919963Y-103347734D01*
X225871669Y-103394668D01*
X225775760Y-103440922D01*
X225584623Y-103485815D01*
X225346552Y-103482414D01*
X225156776Y-103432079D01*
X225062228Y-103383104D01*
X225015294Y-103334810D01*
X224969040Y-103238901D01*
X225319344Y-102053308D02*
X225985943Y-102062831D01*
X224935030Y-102285937D02*
X225645842Y-102534211D01*
X225654684Y-101915227D01*
X226004308Y-100777248D02*
X225337710Y-100767725D01*
X225432938Y-100769085D02*
X225386004Y-100720791D01*
X225339750Y-100624882D01*
X225341791Y-100482040D01*
X225390766Y-100387492D01*
X225486674Y-100341238D01*
X226010430Y-100348720D01*
X225486674Y-100341238D02*
X225392126Y-100292263D01*
X225345872Y-100196355D01*
X225347913Y-100053512D01*
X225396887Y-99958964D01*
X225492796Y-99912710D01*
X226016552Y-99920192D01*
X226023354Y-99444051D02*
X225356755Y-99434528D01*
X225451984Y-99435888D02*
X225405050Y-99387594D01*
X225358796Y-99291685D01*
X225360837Y-99148843D01*
X225409811Y-99054294D01*
X225505720Y-99008041D01*
X226029476Y-99015523D01*
X225505720Y-99008041D02*
X225411172Y-98959066D01*
X225364918Y-98863157D01*
X225366958Y-98720315D01*
X225415933Y-98625767D01*
X225511842Y-98579513D01*
X226035598Y-98586995D01*
D12*
X224004896Y-120157213D02*
X224504896Y-85157213D01*
X213000000Y-120000000D02*
X224591257Y-120165589D01*
X213500000Y-85000000D02*
X225091257Y-85165589D01*
X224504896Y-85157213D02*
X225075166Y-86291978D01*
X224504896Y-85157213D02*
X223902444Y-86275225D01*
X224004896Y-120157213D02*
X224607348Y-119039201D01*
X224004896Y-120157213D02*
X223434626Y-119022448D01*
D11*
X152452380Y-30682380D02*
X151880952Y-30682380D01*
X152166666Y-30682380D02*
X152166666Y-29682380D01*
X152071428Y-29825238D01*
X151976190Y-29920476D01*
X151880952Y-29968095D01*
X153404761Y-30682380D02*
X152833333Y-30682380D01*
X153119047Y-30682380D02*
X153119047Y-29682380D01*
X153023809Y-29825238D01*
X152928571Y-29920476D01*
X152833333Y-29968095D01*
X153738095Y-29682380D02*
X154357142Y-29682380D01*
X154023809Y-30063333D01*
X154166666Y-30063333D01*
X154261904Y-30110952D01*
X154309523Y-30158571D01*
X154357142Y-30253809D01*
X154357142Y-30491904D01*
X154309523Y-30587142D01*
X154261904Y-30634761D01*
X154166666Y-30682380D01*
X153880952Y-30682380D01*
X153785714Y-30634761D01*
X153738095Y-30587142D01*
X154833333Y-30634761D02*
X154833333Y-30682380D01*
X154785714Y-30777619D01*
X154738095Y-30825238D01*
X155452380Y-29682380D02*
X155547619Y-29682380D01*
X155642857Y-29730000D01*
X155690476Y-29777619D01*
X155738095Y-29872857D01*
X155785714Y-30063333D01*
X155785714Y-30301428D01*
X155738095Y-30491904D01*
X155690476Y-30587142D01*
X155642857Y-30634761D01*
X155547619Y-30682380D01*
X155452380Y-30682380D01*
X155357142Y-30634761D01*
X155309523Y-30587142D01*
X155261904Y-30491904D01*
X155214285Y-30301428D01*
X155214285Y-30063333D01*
X155261904Y-29872857D01*
X155309523Y-29777619D01*
X155357142Y-29730000D01*
X155452380Y-29682380D01*
X156404761Y-29682380D02*
X156500000Y-29682380D01*
X156595238Y-29730000D01*
X156642857Y-29777619D01*
X156690476Y-29872857D01*
X156738095Y-30063333D01*
X156738095Y-30301428D01*
X156690476Y-30491904D01*
X156642857Y-30587142D01*
X156595238Y-30634761D01*
X156500000Y-30682380D01*
X156404761Y-30682380D01*
X156309523Y-30634761D01*
X156261904Y-30587142D01*
X156214285Y-30491904D01*
X156166666Y-30301428D01*
X156166666Y-30063333D01*
X156214285Y-29872857D01*
X156261904Y-29777619D01*
X156309523Y-29730000D01*
X156404761Y-29682380D01*
X157357142Y-29682380D02*
X157452380Y-29682380D01*
X157547619Y-29730000D01*
X157595238Y-29777619D01*
X157642857Y-29872857D01*
X157690476Y-30063333D01*
X157690476Y-30301428D01*
X157642857Y-30491904D01*
X157595238Y-30587142D01*
X157547619Y-30634761D01*
X157452380Y-30682380D01*
X157357142Y-30682380D01*
X157261904Y-30634761D01*
X157214285Y-30587142D01*
X157166666Y-30491904D01*
X157119047Y-30301428D01*
X157119047Y-30063333D01*
X157166666Y-29872857D01*
X157214285Y-29777619D01*
X157261904Y-29730000D01*
X157357142Y-29682380D01*
X158880952Y-30682380D02*
X158880952Y-30015714D01*
X158880952Y-30110952D02*
X158928571Y-30063333D01*
X159023809Y-30015714D01*
X159166666Y-30015714D01*
X159261904Y-30063333D01*
X159309523Y-30158571D01*
X159309523Y-30682380D01*
X159309523Y-30158571D02*
X159357142Y-30063333D01*
X159452380Y-30015714D01*
X159595238Y-30015714D01*
X159690476Y-30063333D01*
X159738095Y-30158571D01*
X159738095Y-30682380D01*
X160214285Y-30682380D02*
X160214285Y-30015714D01*
X160214285Y-30110952D02*
X160261904Y-30063333D01*
X160357142Y-30015714D01*
X160500000Y-30015714D01*
X160595238Y-30063333D01*
X160642857Y-30158571D01*
X160642857Y-30682380D01*
X160642857Y-30158571D02*
X160690476Y-30063333D01*
X160785714Y-30015714D01*
X160928571Y-30015714D01*
X161023809Y-30063333D01*
X161071428Y-30158571D01*
X161071428Y-30682380D01*
D12*
X100000000Y-31500000D02*
X213000000Y-31500000D01*
X100000000Y-50000000D02*
X100000000Y-30913579D01*
X213000000Y-50000000D02*
X213000000Y-30913579D01*
X213000000Y-31500000D02*
X211873496Y-32086421D01*
X213000000Y-31500000D02*
X211873496Y-30913579D01*
X100000000Y-31500000D02*
X101126504Y-32086421D01*
X100000000Y-31500000D02*
X101126504Y-30913579D01*
D11*
X128833333Y-126722380D02*
X128642857Y-126722380D01*
X128547619Y-126770000D01*
X128500000Y-126817619D01*
X128404761Y-126960476D01*
X128357142Y-127150952D01*
X128357142Y-127531904D01*
X128404761Y-127627142D01*
X128452380Y-127674761D01*
X128547619Y-127722380D01*
X128738095Y-127722380D01*
X128833333Y-127674761D01*
X128880952Y-127627142D01*
X128928571Y-127531904D01*
X128928571Y-127293809D01*
X128880952Y-127198571D01*
X128833333Y-127150952D01*
X128738095Y-127103333D01*
X128547619Y-127103333D01*
X128452380Y-127150952D01*
X128404761Y-127198571D01*
X128357142Y-127293809D01*
X129833333Y-126722380D02*
X129357142Y-126722380D01*
X129309523Y-127198571D01*
X129357142Y-127150952D01*
X129452380Y-127103333D01*
X129690476Y-127103333D01*
X129785714Y-127150952D01*
X129833333Y-127198571D01*
X129880952Y-127293809D01*
X129880952Y-127531904D01*
X129833333Y-127627142D01*
X129785714Y-127674761D01*
X129690476Y-127722380D01*
X129452380Y-127722380D01*
X129357142Y-127674761D01*
X129309523Y-127627142D01*
X130357142Y-127674761D02*
X130357142Y-127722380D01*
X130309523Y-127817619D01*
X130261904Y-127865238D01*
X130976190Y-126722380D02*
X131071428Y-126722380D01*
X131166666Y-126770000D01*
X131214285Y-126817619D01*
X131261904Y-126912857D01*
X131309523Y-127103333D01*
X131309523Y-127341428D01*
X131261904Y-127531904D01*
X131214285Y-127627142D01*
X131166666Y-127674761D01*
X131071428Y-127722380D01*
X130976190Y-127722380D01*
X130880952Y-127674761D01*
X130833333Y-127627142D01*
X130785714Y-127531904D01*
X130738095Y-127341428D01*
X130738095Y-127103333D01*
X130785714Y-126912857D01*
X130833333Y-126817619D01*
X130880952Y-126770000D01*
X130976190Y-126722380D01*
X131928571Y-126722380D02*
X132023809Y-126722380D01*
X132119047Y-126770000D01*
X132166666Y-126817619D01*
X132214285Y-126912857D01*
X132261904Y-127103333D01*
X132261904Y-127341428D01*
X132214285Y-127531904D01*
X132166666Y-127627142D01*
X132119047Y-127674761D01*
X132023809Y-127722380D01*
X131928571Y-127722380D01*
X131833333Y-127674761D01*
X131785714Y-127627142D01*
X131738095Y-127531904D01*
X131690476Y-127341428D01*
X131690476Y-127103333D01*
X131738095Y-126912857D01*
X131785714Y-126817619D01*
X131833333Y-126770000D01*
X131928571Y-126722380D01*
X132880952Y-126722380D02*
X132976190Y-126722380D01*
X133071428Y-126770000D01*
X133119047Y-126817619D01*
X133166666Y-126912857D01*
X133214285Y-127103333D01*
X133214285Y-127341428D01*
X133166666Y-127531904D01*
X133119047Y-127627142D01*
X133071428Y-127674761D01*
X132976190Y-127722380D01*
X132880952Y-127722380D01*
X132785714Y-127674761D01*
X132738095Y-127627142D01*
X132690476Y-127531904D01*
X132642857Y-127341428D01*
X132642857Y-127103333D01*
X132690476Y-126912857D01*
X132738095Y-126817619D01*
X132785714Y-126770000D01*
X132880952Y-126722380D01*
X134404761Y-127722380D02*
X134404761Y-127055714D01*
X134404761Y-127150952D02*
X134452380Y-127103333D01*
X134547619Y-127055714D01*
X134690476Y-127055714D01*
X134785714Y-127103333D01*
X134833333Y-127198571D01*
X134833333Y-127722380D01*
X134833333Y-127198571D02*
X134880952Y-127103333D01*
X134976190Y-127055714D01*
X135119047Y-127055714D01*
X135214285Y-127103333D01*
X135261904Y-127198571D01*
X135261904Y-127722380D01*
X135738095Y-127722380D02*
X135738095Y-127055714D01*
X135738095Y-127150952D02*
X135785714Y-127103333D01*
X135880952Y-127055714D01*
X136023809Y-127055714D01*
X136119047Y-127103333D01*
X136166666Y-127198571D01*
X136166666Y-127722380D01*
X136166666Y-127198571D02*
X136214285Y-127103333D01*
X136309523Y-127055714D01*
X136452380Y-127055714D01*
X136547619Y-127103333D01*
X136595238Y-127198571D01*
X136595238Y-127722380D01*
D12*
X100000000Y-126000000D02*
X165000000Y-126000000D01*
X100000000Y-120000000D02*
X100000000Y-126586421D01*
X165000000Y-120000000D02*
X165000000Y-126586421D01*
X165000000Y-126000000D02*
X163873496Y-126586421D01*
X165000000Y-126000000D02*
X163873496Y-125413579D01*
X100000000Y-126000000D02*
X101126504Y-126586421D01*
X100000000Y-126000000D02*
X101126504Y-125413579D01*
D11*
X128833333Y-46182380D02*
X128642857Y-46182380D01*
X128547619Y-46230000D01*
X128500000Y-46277619D01*
X128404761Y-46420476D01*
X128357142Y-46610952D01*
X128357142Y-46991904D01*
X128404761Y-47087142D01*
X128452380Y-47134761D01*
X128547619Y-47182380D01*
X128738095Y-47182380D01*
X128833333Y-47134761D01*
X128880952Y-47087142D01*
X128928571Y-46991904D01*
X128928571Y-46753809D01*
X128880952Y-46658571D01*
X128833333Y-46610952D01*
X128738095Y-46563333D01*
X128547619Y-46563333D01*
X128452380Y-46610952D01*
X128404761Y-46658571D01*
X128357142Y-46753809D01*
X129833333Y-46182380D02*
X129357142Y-46182380D01*
X129309523Y-46658571D01*
X129357142Y-46610952D01*
X129452380Y-46563333D01*
X129690476Y-46563333D01*
X129785714Y-46610952D01*
X129833333Y-46658571D01*
X129880952Y-46753809D01*
X129880952Y-46991904D01*
X129833333Y-47087142D01*
X129785714Y-47134761D01*
X129690476Y-47182380D01*
X129452380Y-47182380D01*
X129357142Y-47134761D01*
X129309523Y-47087142D01*
X130357142Y-47134761D02*
X130357142Y-47182380D01*
X130309523Y-47277619D01*
X130261904Y-47325238D01*
X130976190Y-46182380D02*
X131071428Y-46182380D01*
X131166666Y-46230000D01*
X131214285Y-46277619D01*
X131261904Y-46372857D01*
X131309523Y-46563333D01*
X131309523Y-46801428D01*
X131261904Y-46991904D01*
X131214285Y-47087142D01*
X131166666Y-47134761D01*
X131071428Y-47182380D01*
X130976190Y-47182380D01*
X130880952Y-47134761D01*
X130833333Y-47087142D01*
X130785714Y-46991904D01*
X130738095Y-46801428D01*
X130738095Y-46563333D01*
X130785714Y-46372857D01*
X130833333Y-46277619D01*
X130880952Y-46230000D01*
X130976190Y-46182380D01*
X131928571Y-46182380D02*
X132023809Y-46182380D01*
X132119047Y-46230000D01*
X132166666Y-46277619D01*
X132214285Y-46372857D01*
X132261904Y-46563333D01*
X132261904Y-46801428D01*
X132214285Y-46991904D01*
X132166666Y-47087142D01*
X132119047Y-47134761D01*
X132023809Y-47182380D01*
X131928571Y-47182380D01*
X131833333Y-47134761D01*
X131785714Y-47087142D01*
X131738095Y-46991904D01*
X131690476Y-46801428D01*
X131690476Y-46563333D01*
X131738095Y-46372857D01*
X131785714Y-46277619D01*
X131833333Y-46230000D01*
X131928571Y-46182380D01*
X132880952Y-46182380D02*
X132976190Y-46182380D01*
X133071428Y-46230000D01*
X133119047Y-46277619D01*
X133166666Y-46372857D01*
X133214285Y-46563333D01*
X133214285Y-46801428D01*
X133166666Y-46991904D01*
X133119047Y-47087142D01*
X133071428Y-47134761D01*
X132976190Y-47182380D01*
X132880952Y-47182380D01*
X132785714Y-47134761D01*
X132738095Y-47087142D01*
X132690476Y-46991904D01*
X132642857Y-46801428D01*
X132642857Y-46563333D01*
X132690476Y-46372857D01*
X132738095Y-46277619D01*
X132785714Y-46230000D01*
X132880952Y-46182380D01*
X134404761Y-47182380D02*
X134404761Y-46515714D01*
X134404761Y-46610952D02*
X134452380Y-46563333D01*
X134547619Y-46515714D01*
X134690476Y-46515714D01*
X134785714Y-46563333D01*
X134833333Y-46658571D01*
X134833333Y-47182380D01*
X134833333Y-46658571D02*
X134880952Y-46563333D01*
X134976190Y-46515714D01*
X135119047Y-46515714D01*
X135214285Y-46563333D01*
X135261904Y-46658571D01*
X135261904Y-47182380D01*
X135738095Y-47182380D02*
X135738095Y-46515714D01*
X135738095Y-46610952D02*
X135785714Y-46563333D01*
X135880952Y-46515714D01*
X136023809Y-46515714D01*
X136119047Y-46563333D01*
X136166666Y-46658571D01*
X136166666Y-47182380D01*
X136166666Y-46658571D02*
X136214285Y-46563333D01*
X136309523Y-46515714D01*
X136452380Y-46515714D01*
X136547619Y-46563333D01*
X136595238Y-46658571D01*
X136595238Y-47182380D01*
D12*
X100000000Y-48000000D02*
X165000000Y-48000000D01*
X100000000Y-50000000D02*
X100000000Y-47413579D01*
X165000000Y-50000000D02*
X165000000Y-47413579D01*
X165000000Y-48000000D02*
X163873496Y-48586421D01*
X165000000Y-48000000D02*
X163873496Y-47413579D01*
X100000000Y-48000000D02*
X101126504Y-48586421D01*
X100000000Y-48000000D02*
X101126504Y-47413579D01*
D11*
X72682380Y-58357142D02*
X72730000Y-58404761D01*
X72777619Y-58500000D01*
X72777619Y-58738095D01*
X72730000Y-58833333D01*
X72682380Y-58880952D01*
X72587142Y-58928571D01*
X72491904Y-58928571D01*
X72349047Y-58880952D01*
X71777619Y-58309523D01*
X71777619Y-58928571D01*
X72777619Y-59833333D02*
X72777619Y-59357142D01*
X72301428Y-59309523D01*
X72349047Y-59357142D01*
X72396666Y-59452380D01*
X72396666Y-59690476D01*
X72349047Y-59785714D01*
X72301428Y-59833333D01*
X72206190Y-59880952D01*
X71968095Y-59880952D01*
X71872857Y-59833333D01*
X71825238Y-59785714D01*
X71777619Y-59690476D01*
X71777619Y-59452380D01*
X71825238Y-59357142D01*
X71872857Y-59309523D01*
X71825238Y-60357142D02*
X71777619Y-60357142D01*
X71682380Y-60309523D01*
X71634761Y-60261904D01*
X72777619Y-60976190D02*
X72777619Y-61071428D01*
X72730000Y-61166666D01*
X72682380Y-61214285D01*
X72587142Y-61261904D01*
X72396666Y-61309523D01*
X72158571Y-61309523D01*
X71968095Y-61261904D01*
X71872857Y-61214285D01*
X71825238Y-61166666D01*
X71777619Y-61071428D01*
X71777619Y-60976190D01*
X71825238Y-60880952D01*
X71872857Y-60833333D01*
X71968095Y-60785714D01*
X72158571Y-60738095D01*
X72396666Y-60738095D01*
X72587142Y-60785714D01*
X72682380Y-60833333D01*
X72730000Y-60880952D01*
X72777619Y-60976190D01*
X72777619Y-61928571D02*
X72777619Y-62023809D01*
X72730000Y-62119047D01*
X72682380Y-62166666D01*
X72587142Y-62214285D01*
X72396666Y-62261904D01*
X72158571Y-62261904D01*
X71968095Y-62214285D01*
X71872857Y-62166666D01*
X71825238Y-62119047D01*
X71777619Y-62023809D01*
X71777619Y-61928571D01*
X71825238Y-61833333D01*
X71872857Y-61785714D01*
X71968095Y-61738095D01*
X72158571Y-61690476D01*
X72396666Y-61690476D01*
X72587142Y-61738095D01*
X72682380Y-61785714D01*
X72730000Y-61833333D01*
X72777619Y-61928571D01*
X72777619Y-62880952D02*
X72777619Y-62976190D01*
X72730000Y-63071428D01*
X72682380Y-63119047D01*
X72587142Y-63166666D01*
X72396666Y-63214285D01*
X72158571Y-63214285D01*
X71968095Y-63166666D01*
X71872857Y-63119047D01*
X71825238Y-63071428D01*
X71777619Y-62976190D01*
X71777619Y-62880952D01*
X71825238Y-62785714D01*
X71872857Y-62738095D01*
X71968095Y-62690476D01*
X72158571Y-62642857D01*
X72396666Y-62642857D01*
X72587142Y-62690476D01*
X72682380Y-62738095D01*
X72730000Y-62785714D01*
X72777619Y-62880952D01*
X71777619Y-64404761D02*
X72444285Y-64404761D01*
X72349047Y-64404761D02*
X72396666Y-64452380D01*
X72444285Y-64547619D01*
X72444285Y-64690476D01*
X72396666Y-64785714D01*
X72301428Y-64833333D01*
X71777619Y-64833333D01*
X72301428Y-64833333D02*
X72396666Y-64880952D01*
X72444285Y-64976190D01*
X72444285Y-65119047D01*
X72396666Y-65214285D01*
X72301428Y-65261904D01*
X71777619Y-65261904D01*
X71777619Y-65738095D02*
X72444285Y-65738095D01*
X72349047Y-65738095D02*
X72396666Y-65785714D01*
X72444285Y-65880952D01*
X72444285Y-66023809D01*
X72396666Y-66119047D01*
X72301428Y-66166666D01*
X71777619Y-66166666D01*
X72301428Y-66166666D02*
X72396666Y-66214285D01*
X72444285Y-66309523D01*
X72444285Y-66452380D01*
X72396666Y-66547619D01*
X72301428Y-66595238D01*
X71777619Y-66595238D01*
D12*
X73500000Y-50000000D02*
X73500000Y-75000000D01*
X100000000Y-50000000D02*
X72913579Y-50000000D01*
X100000000Y-75000000D02*
X72913579Y-75000000D01*
X73500000Y-75000000D02*
X72913579Y-73873496D01*
X73500000Y-75000000D02*
X74086421Y-73873496D01*
X73500000Y-50000000D02*
X72913579Y-51126504D01*
X73500000Y-50000000D02*
X74086421Y-51126504D01*
D11*
X72277619Y-111642857D02*
X72230000Y-111595238D01*
X72182380Y-111500000D01*
X72182380Y-111261904D01*
X72230000Y-111166666D01*
X72277619Y-111119047D01*
X72372857Y-111071428D01*
X72468095Y-111071428D01*
X72610952Y-111119047D01*
X73182380Y-111690476D01*
X73182380Y-111071428D01*
X72182380Y-110166666D02*
X72182380Y-110642857D01*
X72658571Y-110690476D01*
X72610952Y-110642857D01*
X72563333Y-110547619D01*
X72563333Y-110309523D01*
X72610952Y-110214285D01*
X72658571Y-110166666D01*
X72753809Y-110119047D01*
X72991904Y-110119047D01*
X73087142Y-110166666D01*
X73134761Y-110214285D01*
X73182380Y-110309523D01*
X73182380Y-110547619D01*
X73134761Y-110642857D01*
X73087142Y-110690476D01*
X73134761Y-109642857D02*
X73182380Y-109642857D01*
X73277619Y-109690476D01*
X73325238Y-109738095D01*
X72182380Y-109023809D02*
X72182380Y-108928571D01*
X72230000Y-108833333D01*
X72277619Y-108785714D01*
X72372857Y-108738095D01*
X72563333Y-108690476D01*
X72801428Y-108690476D01*
X72991904Y-108738095D01*
X73087142Y-108785714D01*
X73134761Y-108833333D01*
X73182380Y-108928571D01*
X73182380Y-109023809D01*
X73134761Y-109119047D01*
X73087142Y-109166666D01*
X72991904Y-109214285D01*
X72801428Y-109261904D01*
X72563333Y-109261904D01*
X72372857Y-109214285D01*
X72277619Y-109166666D01*
X72230000Y-109119047D01*
X72182380Y-109023809D01*
X72182380Y-108071428D02*
X72182380Y-107976190D01*
X72230000Y-107880952D01*
X72277619Y-107833333D01*
X72372857Y-107785714D01*
X72563333Y-107738095D01*
X72801428Y-107738095D01*
X72991904Y-107785714D01*
X73087142Y-107833333D01*
X73134761Y-107880952D01*
X73182380Y-107976190D01*
X73182380Y-108071428D01*
X73134761Y-108166666D01*
X73087142Y-108214285D01*
X72991904Y-108261904D01*
X72801428Y-108309523D01*
X72563333Y-108309523D01*
X72372857Y-108261904D01*
X72277619Y-108214285D01*
X72230000Y-108166666D01*
X72182380Y-108071428D01*
X72182380Y-107119047D02*
X72182380Y-107023809D01*
X72230000Y-106928571D01*
X72277619Y-106880952D01*
X72372857Y-106833333D01*
X72563333Y-106785714D01*
X72801428Y-106785714D01*
X72991904Y-106833333D01*
X73087142Y-106880952D01*
X73134761Y-106928571D01*
X73182380Y-107023809D01*
X73182380Y-107119047D01*
X73134761Y-107214285D01*
X73087142Y-107261904D01*
X72991904Y-107309523D01*
X72801428Y-107357142D01*
X72563333Y-107357142D01*
X72372857Y-107309523D01*
X72277619Y-107261904D01*
X72230000Y-107214285D01*
X72182380Y-107119047D01*
X73182380Y-105595238D02*
X72515714Y-105595238D01*
X72610952Y-105595238D02*
X72563333Y-105547619D01*
X72515714Y-105452380D01*
X72515714Y-105309523D01*
X72563333Y-105214285D01*
X72658571Y-105166666D01*
X73182380Y-105166666D01*
X72658571Y-105166666D02*
X72563333Y-105119047D01*
X72515714Y-105023809D01*
X72515714Y-104880952D01*
X72563333Y-104785714D01*
X72658571Y-104738095D01*
X73182380Y-104738095D01*
X73182380Y-104261904D02*
X72515714Y-104261904D01*
X72610952Y-104261904D02*
X72563333Y-104214285D01*
X72515714Y-104119047D01*
X72515714Y-103976190D01*
X72563333Y-103880952D01*
X72658571Y-103833333D01*
X73182380Y-103833333D01*
X72658571Y-103833333D02*
X72563333Y-103785714D01*
X72515714Y-103690476D01*
X72515714Y-103547619D01*
X72563333Y-103452380D01*
X72658571Y-103404761D01*
X73182380Y-103404761D01*
D12*
X74000000Y-120000000D02*
X74000000Y-95000000D01*
X100000000Y-120000000D02*
X73413579Y-120000000D01*
X100000000Y-95000000D02*
X73413579Y-95000000D01*
X74000000Y-95000000D02*
X74586421Y-96126504D01*
X74000000Y-95000000D02*
X73413579Y-96126504D01*
X74000000Y-120000000D02*
X74586421Y-118873496D01*
X74000000Y-120000000D02*
X73413579Y-118873496D01*
D11*
X188452380Y-41682380D02*
X187880952Y-41682380D01*
X188166666Y-41682380D02*
X188166666Y-40682380D01*
X188071428Y-40825238D01*
X187976190Y-40920476D01*
X187880952Y-40968095D01*
X189023809Y-41110952D02*
X188928571Y-41063333D01*
X188880952Y-41015714D01*
X188833333Y-40920476D01*
X188833333Y-40872857D01*
X188880952Y-40777619D01*
X188928571Y-40730000D01*
X189023809Y-40682380D01*
X189214285Y-40682380D01*
X189309523Y-40730000D01*
X189357142Y-40777619D01*
X189404761Y-40872857D01*
X189404761Y-40920476D01*
X189357142Y-41015714D01*
X189309523Y-41063333D01*
X189214285Y-41110952D01*
X189023809Y-41110952D01*
X188928571Y-41158571D01*
X188880952Y-41206190D01*
X188833333Y-41301428D01*
X188833333Y-41491904D01*
X188880952Y-41587142D01*
X188928571Y-41634761D01*
X189023809Y-41682380D01*
X189214285Y-41682380D01*
X189309523Y-41634761D01*
X189357142Y-41587142D01*
X189404761Y-41491904D01*
X189404761Y-41301428D01*
X189357142Y-41206190D01*
X189309523Y-41158571D01*
X189214285Y-41110952D01*
X190309523Y-40682380D02*
X189833333Y-40682380D01*
X189785714Y-41158571D01*
X189833333Y-41110952D01*
X189928571Y-41063333D01*
X190166666Y-41063333D01*
X190261904Y-41110952D01*
X190309523Y-41158571D01*
X190357142Y-41253809D01*
X190357142Y-41491904D01*
X190309523Y-41587142D01*
X190261904Y-41634761D01*
X190166666Y-41682380D01*
X189928571Y-41682380D01*
X189833333Y-41634761D01*
X189785714Y-41587142D01*
X190833333Y-41634761D02*
X190833333Y-41682380D01*
X190785714Y-41777619D01*
X190738095Y-41825238D01*
X191452380Y-40682380D02*
X191547619Y-40682380D01*
X191642857Y-40730000D01*
X191690476Y-40777619D01*
X191738095Y-40872857D01*
X191785714Y-41063333D01*
X191785714Y-41301428D01*
X191738095Y-41491904D01*
X191690476Y-41587142D01*
X191642857Y-41634761D01*
X191547619Y-41682380D01*
X191452380Y-41682380D01*
X191357142Y-41634761D01*
X191309523Y-41587142D01*
X191261904Y-41491904D01*
X191214285Y-41301428D01*
X191214285Y-41063333D01*
X191261904Y-40872857D01*
X191309523Y-40777619D01*
X191357142Y-40730000D01*
X191452380Y-40682380D01*
X192404761Y-40682380D02*
X192500000Y-40682380D01*
X192595238Y-40730000D01*
X192642857Y-40777619D01*
X192690476Y-40872857D01*
X192738095Y-41063333D01*
X192738095Y-41301428D01*
X192690476Y-41491904D01*
X192642857Y-41587142D01*
X192595238Y-41634761D01*
X192500000Y-41682380D01*
X192404761Y-41682380D01*
X192309523Y-41634761D01*
X192261904Y-41587142D01*
X192214285Y-41491904D01*
X192166666Y-41301428D01*
X192166666Y-41063333D01*
X192214285Y-40872857D01*
X192261904Y-40777619D01*
X192309523Y-40730000D01*
X192404761Y-40682380D01*
X193357142Y-40682380D02*
X193452380Y-40682380D01*
X193547619Y-40730000D01*
X193595238Y-40777619D01*
X193642857Y-40872857D01*
X193690476Y-41063333D01*
X193690476Y-41301428D01*
X193642857Y-41491904D01*
X193595238Y-41587142D01*
X193547619Y-41634761D01*
X193452380Y-41682380D01*
X193357142Y-41682380D01*
X193261904Y-41634761D01*
X193214285Y-41587142D01*
X193166666Y-41491904D01*
X193119047Y-41301428D01*
X193119047Y-41063333D01*
X193166666Y-40872857D01*
X193214285Y-40777619D01*
X193261904Y-40730000D01*
X193357142Y-40682380D01*
X194880952Y-41682380D02*
X194880952Y-41015714D01*
X194880952Y-41110952D02*
X194928571Y-41063333D01*
X195023809Y-41015714D01*
X195166666Y-41015714D01*
X195261904Y-41063333D01*
X195309523Y-41158571D01*
X195309523Y-41682380D01*
X195309523Y-41158571D02*
X195357142Y-41063333D01*
X195452380Y-41015714D01*
X195595238Y-41015714D01*
X195690476Y-41063333D01*
X195738095Y-41158571D01*
X195738095Y-41682380D01*
X196214285Y-41682380D02*
X196214285Y-41015714D01*
X196214285Y-41110952D02*
X196261904Y-41063333D01*
X196357142Y-41015714D01*
X196500000Y-41015714D01*
X196595238Y-41063333D01*
X196642857Y-41158571D01*
X196642857Y-41682380D01*
X196642857Y-41158571D02*
X196690476Y-41063333D01*
X196785714Y-41015714D01*
X196928571Y-41015714D01*
X197023809Y-41063333D01*
X197071428Y-41158571D01*
X197071428Y-41682380D01*
D12*
X285000000Y-42500000D02*
X100000000Y-42500000D01*
X285000000Y-50000000D02*
X285000000Y-41913579D01*
X100000000Y-50000000D02*
X100000000Y-41913579D01*
X100000000Y-42500000D02*
X101126504Y-41913579D01*
X100000000Y-42500000D02*
X101126504Y-43086421D01*
X285000000Y-42500000D02*
X283873496Y-41913579D01*
X285000000Y-42500000D02*
X283873496Y-43086421D01*
D13*
%TO.C,G1*%
G36*
X185078894Y-109728347D02*
G01*
X185472484Y-109733372D01*
X186035101Y-109742379D01*
X186451010Y-109752812D01*
X186742835Y-109767169D01*
X186933197Y-109787948D01*
X187044719Y-109817648D01*
X187100023Y-109858765D01*
X187121731Y-109913799D01*
X187122067Y-109915521D01*
X187095295Y-110082565D01*
X187038497Y-110147058D01*
X186919859Y-110170658D01*
X186661714Y-110191186D01*
X186293881Y-110207274D01*
X185846177Y-110217555D01*
X185431867Y-110220703D01*
X184862914Y-110218272D01*
X184442351Y-110208844D01*
X184149323Y-110190909D01*
X183962977Y-110162958D01*
X183862458Y-110123483D01*
X183842906Y-110105731D01*
X183786183Y-109934018D01*
X183799953Y-109849937D01*
X183834503Y-109801350D01*
X183910372Y-109766192D01*
X184050152Y-109742887D01*
X184276437Y-109729861D01*
X184611820Y-109725539D01*
X185078894Y-109728347D01*
G37*
X185078894Y-109728347D02*
X185472484Y-109733372D01*
X186035101Y-109742379D01*
X186451010Y-109752812D01*
X186742835Y-109767169D01*
X186933197Y-109787948D01*
X187044719Y-109817648D01*
X187100023Y-109858765D01*
X187121731Y-109913799D01*
X187122067Y-109915521D01*
X187095295Y-110082565D01*
X187038497Y-110147058D01*
X186919859Y-110170658D01*
X186661714Y-110191186D01*
X186293881Y-110207274D01*
X185846177Y-110217555D01*
X185431867Y-110220703D01*
X184862914Y-110218272D01*
X184442351Y-110208844D01*
X184149323Y-110190909D01*
X183962977Y-110162958D01*
X183862458Y-110123483D01*
X183842906Y-110105731D01*
X183786183Y-109934018D01*
X183799953Y-109849937D01*
X183834503Y-109801350D01*
X183910372Y-109766192D01*
X184050152Y-109742887D01*
X184276437Y-109729861D01*
X184611820Y-109725539D01*
X185078894Y-109728347D01*
G36*
X176757485Y-107005845D02*
G01*
X176674519Y-107850486D01*
X176450895Y-108705090D01*
X176152504Y-109413149D01*
X175820826Y-109920611D01*
X175362464Y-110412940D01*
X174818564Y-110852467D01*
X174230269Y-111201526D01*
X174165251Y-111232486D01*
X173673361Y-111438675D01*
X173181765Y-111605352D01*
X172717214Y-111727503D01*
X172306454Y-111800116D01*
X171976235Y-111818178D01*
X171753305Y-111776676D01*
X171671168Y-111699887D01*
X171650864Y-111523871D01*
X171663934Y-111223496D01*
X171690327Y-110982034D01*
X172150000Y-110982034D01*
X172150000Y-111384217D01*
X172589298Y-111304372D01*
X172914041Y-111228522D01*
X173297008Y-111115427D01*
X173565510Y-111022433D01*
X174108807Y-110776487D01*
X174623824Y-110467815D01*
X175059127Y-110130071D01*
X175288051Y-109895355D01*
X175582053Y-109464888D01*
X175856807Y-108923041D01*
X176092674Y-108323301D01*
X176270012Y-107719158D01*
X176369180Y-107164101D01*
X176383334Y-106912552D01*
X176346257Y-106802242D01*
X176221445Y-106756668D01*
X175988522Y-106775729D01*
X175627113Y-106859326D01*
X175451731Y-106908029D01*
X174600790Y-107221362D01*
X173874571Y-107636996D01*
X173279660Y-108150323D01*
X172833626Y-108738334D01*
X172620552Y-109159815D01*
X172427749Y-109661835D01*
X172273342Y-110184910D01*
X172175456Y-110669554D01*
X172150000Y-110982034D01*
X171690327Y-110982034D01*
X171705912Y-110839455D01*
X171772333Y-110412441D01*
X171858734Y-109983147D01*
X171860249Y-109976505D01*
X172117922Y-109184613D01*
X172505965Y-108454115D01*
X173005030Y-107811166D01*
X173595766Y-107281923D01*
X174075964Y-106981259D01*
X174693485Y-106702065D01*
X175341928Y-106484413D01*
X175960164Y-106346767D01*
X176298667Y-106309853D01*
X176764334Y-106285000D01*
X176757485Y-107005845D01*
G37*
X176757485Y-107005845D02*
X176674519Y-107850486D01*
X176450895Y-108705090D01*
X176152504Y-109413149D01*
X175820826Y-109920611D01*
X175362464Y-110412940D01*
X174818564Y-110852467D01*
X174230269Y-111201526D01*
X174165251Y-111232486D01*
X173673361Y-111438675D01*
X173181765Y-111605352D01*
X172717214Y-111727503D01*
X172306454Y-111800116D01*
X171976235Y-111818178D01*
X171753305Y-111776676D01*
X171671168Y-111699887D01*
X171650864Y-111523871D01*
X171663934Y-111223496D01*
X171690327Y-110982034D01*
X172150000Y-110982034D01*
X172150000Y-111384217D01*
X172589298Y-111304372D01*
X172914041Y-111228522D01*
X173297008Y-111115427D01*
X173565510Y-111022433D01*
X174108807Y-110776487D01*
X174623824Y-110467815D01*
X175059127Y-110130071D01*
X175288051Y-109895355D01*
X175582053Y-109464888D01*
X175856807Y-108923041D01*
X176092674Y-108323301D01*
X176270012Y-107719158D01*
X176369180Y-107164101D01*
X176383334Y-106912552D01*
X176346257Y-106802242D01*
X176221445Y-106756668D01*
X175988522Y-106775729D01*
X175627113Y-106859326D01*
X175451731Y-106908029D01*
X174600790Y-107221362D01*
X173874571Y-107636996D01*
X173279660Y-108150323D01*
X172833626Y-108738334D01*
X172620552Y-109159815D01*
X172427749Y-109661835D01*
X172273342Y-110184910D01*
X172175456Y-110669554D01*
X172150000Y-110982034D01*
X171690327Y-110982034D01*
X171705912Y-110839455D01*
X171772333Y-110412441D01*
X171858734Y-109983147D01*
X171860249Y-109976505D01*
X172117922Y-109184613D01*
X172505965Y-108454115D01*
X173005030Y-107811166D01*
X173595766Y-107281923D01*
X174075964Y-106981259D01*
X174693485Y-106702065D01*
X175341928Y-106484413D01*
X175960164Y-106346767D01*
X176298667Y-106309853D01*
X176764334Y-106285000D01*
X176757485Y-107005845D01*
G36*
X167275844Y-107590084D02*
G01*
X167721796Y-107722167D01*
X168621315Y-108090065D01*
X169412056Y-108587289D01*
X170090785Y-109210745D01*
X170654268Y-109957341D01*
X171099271Y-110823986D01*
X171180441Y-111029098D01*
X171281097Y-111326670D01*
X171343097Y-111570740D01*
X171354002Y-111711597D01*
X171352442Y-111716540D01*
X171229173Y-111808208D01*
X170967602Y-111809591D01*
X170572440Y-111721079D01*
X170282585Y-111628253D01*
X169377749Y-111231009D01*
X168584536Y-110706898D01*
X167906140Y-110059117D01*
X167345759Y-109290867D01*
X166906586Y-108405347D01*
X166811657Y-108153499D01*
X166779855Y-108050080D01*
X167266364Y-108050080D01*
X167284364Y-108138424D01*
X167367675Y-108340507D01*
X167501036Y-108621130D01*
X167588102Y-108792186D01*
X168048546Y-109531894D01*
X168601971Y-110146404D01*
X169267770Y-110653080D01*
X170065334Y-111069290D01*
X170189331Y-111121625D01*
X170500176Y-111245809D01*
X170682817Y-111302846D01*
X170764279Y-111293243D01*
X170771586Y-111217509D01*
X170749101Y-111132167D01*
X170532510Y-110619578D01*
X170199167Y-110078540D01*
X169784918Y-109554009D01*
X169325608Y-109090938D01*
X168857082Y-108734281D01*
X168817975Y-108710309D01*
X168522561Y-108545915D01*
X168192478Y-108382309D01*
X167864741Y-108235239D01*
X167576364Y-108120456D01*
X167364359Y-108053709D01*
X167266364Y-108050080D01*
X166779855Y-108050080D01*
X166718734Y-107851317D01*
X166702738Y-107651446D01*
X166779621Y-107546323D01*
X166965339Y-107528390D01*
X167275844Y-107590084D01*
G37*
X167275844Y-107590084D02*
X167721796Y-107722167D01*
X168621315Y-108090065D01*
X169412056Y-108587289D01*
X170090785Y-109210745D01*
X170654268Y-109957341D01*
X171099271Y-110823986D01*
X171180441Y-111029098D01*
X171281097Y-111326670D01*
X171343097Y-111570740D01*
X171354002Y-111711597D01*
X171352442Y-111716540D01*
X171229173Y-111808208D01*
X170967602Y-111809591D01*
X170572440Y-111721079D01*
X170282585Y-111628253D01*
X169377749Y-111231009D01*
X168584536Y-110706898D01*
X167906140Y-110059117D01*
X167345759Y-109290867D01*
X166906586Y-108405347D01*
X166811657Y-108153499D01*
X166779855Y-108050080D01*
X167266364Y-108050080D01*
X167284364Y-108138424D01*
X167367675Y-108340507D01*
X167501036Y-108621130D01*
X167588102Y-108792186D01*
X168048546Y-109531894D01*
X168601971Y-110146404D01*
X169267770Y-110653080D01*
X170065334Y-111069290D01*
X170189331Y-111121625D01*
X170500176Y-111245809D01*
X170682817Y-111302846D01*
X170764279Y-111293243D01*
X170771586Y-111217509D01*
X170749101Y-111132167D01*
X170532510Y-110619578D01*
X170199167Y-110078540D01*
X169784918Y-109554009D01*
X169325608Y-109090938D01*
X168857082Y-108734281D01*
X168817975Y-108710309D01*
X168522561Y-108545915D01*
X168192478Y-108382309D01*
X167864741Y-108235239D01*
X167576364Y-108120456D01*
X167364359Y-108053709D01*
X167266364Y-108050080D01*
X166779855Y-108050080D01*
X166718734Y-107851317D01*
X166702738Y-107651446D01*
X166779621Y-107546323D01*
X166965339Y-107528390D01*
X167275844Y-107590084D01*
G36*
X177842609Y-112525433D02*
G01*
X178159457Y-112541461D01*
X178343206Y-112566804D01*
X178430032Y-112615372D01*
X178456107Y-112701081D01*
X178457667Y-112762000D01*
X178447032Y-112875702D01*
X178389850Y-112941652D01*
X178248208Y-112975905D01*
X177984189Y-112994521D01*
X177899492Y-112998398D01*
X177561102Y-113001339D01*
X177352488Y-112969444D01*
X177236594Y-112896881D01*
X177233853Y-112893643D01*
X177166879Y-112725188D01*
X177176970Y-112632344D01*
X177237525Y-112562799D01*
X177374894Y-112526915D01*
X177624239Y-112519043D01*
X177842609Y-112525433D01*
G37*
X177842609Y-112525433D02*
X178159457Y-112541461D01*
X178343206Y-112566804D01*
X178430032Y-112615372D01*
X178456107Y-112701081D01*
X178457667Y-112762000D01*
X178447032Y-112875702D01*
X178389850Y-112941652D01*
X178248208Y-112975905D01*
X177984189Y-112994521D01*
X177899492Y-112998398D01*
X177561102Y-113001339D01*
X177352488Y-112969444D01*
X177236594Y-112896881D01*
X177233853Y-112893643D01*
X177166879Y-112725188D01*
X177176970Y-112632344D01*
X177237525Y-112562799D01*
X177374894Y-112526915D01*
X177624239Y-112519043D01*
X177842609Y-112525433D01*
G36*
X188803140Y-109716736D02*
G01*
X189266114Y-109728877D01*
X190452315Y-109756333D01*
X190694619Y-110027756D01*
X190932164Y-110402436D01*
X191008839Y-110795297D01*
X190926422Y-111180135D01*
X190686686Y-111530748D01*
X190586465Y-111623567D01*
X190460653Y-111720208D01*
X190334280Y-111780700D01*
X190166747Y-111811943D01*
X189917454Y-111820836D01*
X189545801Y-111814281D01*
X189475614Y-111812353D01*
X189088389Y-111800110D01*
X188839744Y-111783896D01*
X188698986Y-111755278D01*
X188635421Y-111705825D01*
X188618355Y-111627104D01*
X188617667Y-111576667D01*
X188624662Y-111477564D01*
X188666931Y-111413323D01*
X188776400Y-111373682D01*
X188984995Y-111348380D01*
X189324642Y-111327155D01*
X189407933Y-111322667D01*
X189796571Y-111296205D01*
X190051566Y-111261489D01*
X190208605Y-111210413D01*
X190303378Y-111134875D01*
X190318100Y-111115984D01*
X190428531Y-110861362D01*
X190374191Y-110613944D01*
X190230182Y-110429818D01*
X190122554Y-110334587D01*
X190003669Y-110273883D01*
X189834347Y-110240013D01*
X189575412Y-110225284D01*
X189187683Y-110222002D01*
X189171849Y-110222000D01*
X188321334Y-110222000D01*
X188321334Y-111739952D01*
X188319141Y-112299652D01*
X188311279Y-112713937D01*
X188295825Y-113006686D01*
X188270853Y-113201776D01*
X188234440Y-113323084D01*
X188188286Y-113390952D01*
X188077588Y-113494816D01*
X188040119Y-113521425D01*
X187965036Y-113482777D01*
X187876834Y-113432551D01*
X187825411Y-113388051D01*
X187787357Y-113307650D01*
X187760702Y-113168320D01*
X187743479Y-112947033D01*
X187733717Y-112620760D01*
X187729449Y-112166473D01*
X187728667Y-111699459D01*
X187727584Y-111065650D01*
X187734549Y-110581384D01*
X187764880Y-110227029D01*
X187833893Y-109982951D01*
X187956908Y-109829515D01*
X188149242Y-109747090D01*
X188426214Y-109716041D01*
X188803140Y-109716736D01*
G37*
X188803140Y-109716736D02*
X189266114Y-109728877D01*
X190452315Y-109756333D01*
X190694619Y-110027756D01*
X190932164Y-110402436D01*
X191008839Y-110795297D01*
X190926422Y-111180135D01*
X190686686Y-111530748D01*
X190586465Y-111623567D01*
X190460653Y-111720208D01*
X190334280Y-111780700D01*
X190166747Y-111811943D01*
X189917454Y-111820836D01*
X189545801Y-111814281D01*
X189475614Y-111812353D01*
X189088389Y-111800110D01*
X188839744Y-111783896D01*
X188698986Y-111755278D01*
X188635421Y-111705825D01*
X188618355Y-111627104D01*
X188617667Y-111576667D01*
X188624662Y-111477564D01*
X188666931Y-111413323D01*
X188776400Y-111373682D01*
X188984995Y-111348380D01*
X189324642Y-111327155D01*
X189407933Y-111322667D01*
X189796571Y-111296205D01*
X190051566Y-111261489D01*
X190208605Y-111210413D01*
X190303378Y-111134875D01*
X190318100Y-111115984D01*
X190428531Y-110861362D01*
X190374191Y-110613944D01*
X190230182Y-110429818D01*
X190122554Y-110334587D01*
X190003669Y-110273883D01*
X189834347Y-110240013D01*
X189575412Y-110225284D01*
X189187683Y-110222002D01*
X189171849Y-110222000D01*
X188321334Y-110222000D01*
X188321334Y-111739952D01*
X188319141Y-112299652D01*
X188311279Y-112713937D01*
X188295825Y-113006686D01*
X188270853Y-113201776D01*
X188234440Y-113323084D01*
X188188286Y-113390952D01*
X188077588Y-113494816D01*
X188040119Y-113521425D01*
X187965036Y-113482777D01*
X187876834Y-113432551D01*
X187825411Y-113388051D01*
X187787357Y-113307650D01*
X187760702Y-113168320D01*
X187743479Y-112947033D01*
X187733717Y-112620760D01*
X187729449Y-112166473D01*
X187728667Y-111699459D01*
X187727584Y-111065650D01*
X187734549Y-110581384D01*
X187764880Y-110227029D01*
X187833893Y-109982951D01*
X187956908Y-109829515D01*
X188149242Y-109747090D01*
X188426214Y-109716041D01*
X188803140Y-109716736D01*
G36*
X185602342Y-110535135D02*
G01*
X185663251Y-110655638D01*
X185712078Y-110908990D01*
X185748214Y-111259097D01*
X185771052Y-111669864D01*
X185779983Y-112105197D01*
X185774401Y-112529000D01*
X185753696Y-112905180D01*
X185717262Y-113197641D01*
X185664491Y-113370290D01*
X185650394Y-113388844D01*
X185495148Y-113508200D01*
X185369339Y-113489743D01*
X185290267Y-113422400D01*
X185246942Y-113308078D01*
X185216089Y-113057914D01*
X185197013Y-112661735D01*
X185189017Y-112109363D01*
X185188667Y-111938076D01*
X185190568Y-111417237D01*
X185197834Y-111041403D01*
X185212809Y-110786274D01*
X185237836Y-110627548D01*
X185275261Y-110540925D01*
X185327175Y-110502201D01*
X185512435Y-110498538D01*
X185602342Y-110535135D01*
G37*
X185602342Y-110535135D02*
X185663251Y-110655638D01*
X185712078Y-110908990D01*
X185748214Y-111259097D01*
X185771052Y-111669864D01*
X185779983Y-112105197D01*
X185774401Y-112529000D01*
X185753696Y-112905180D01*
X185717262Y-113197641D01*
X185664491Y-113370290D01*
X185650394Y-113388844D01*
X185495148Y-113508200D01*
X185369339Y-113489743D01*
X185290267Y-113422400D01*
X185246942Y-113308078D01*
X185216089Y-113057914D01*
X185197013Y-112661735D01*
X185189017Y-112109363D01*
X185188667Y-111938076D01*
X185190568Y-111417237D01*
X185197834Y-111041403D01*
X185212809Y-110786274D01*
X185237836Y-110627548D01*
X185275261Y-110540925D01*
X185327175Y-110502201D01*
X185512435Y-110498538D01*
X185602342Y-110535135D01*
G36*
X181935734Y-109725083D02*
G01*
X182297988Y-109764564D01*
X182575360Y-109825403D01*
X182630220Y-109845491D01*
X183096000Y-110126479D01*
X183446752Y-110521797D01*
X183668550Y-111009935D01*
X183747466Y-111569385D01*
X183747474Y-111571102D01*
X183670818Y-112123426D01*
X183446593Y-112610011D01*
X183090430Y-113010290D01*
X182617957Y-113303695D01*
X182358133Y-113399432D01*
X182084278Y-113455033D01*
X181722715Y-113494170D01*
X181328178Y-113514869D01*
X180955402Y-113515159D01*
X180659121Y-113493066D01*
X180532000Y-113465243D01*
X180418432Y-113411587D01*
X180333325Y-113327837D01*
X180272641Y-113191353D01*
X180232343Y-112979494D01*
X180208391Y-112669621D01*
X180196748Y-112239093D01*
X180193376Y-111665270D01*
X180193334Y-111566532D01*
X180195372Y-110993751D01*
X180202689Y-110566939D01*
X180217092Y-110262766D01*
X180221727Y-110222000D01*
X180786000Y-110222000D01*
X180786000Y-111562555D01*
X180789826Y-112023725D01*
X180800390Y-112424886D01*
X180816319Y-112735656D01*
X180836242Y-112925655D01*
X180849500Y-112969002D01*
X180980079Y-113008871D01*
X181227870Y-113015634D01*
X181545156Y-112994564D01*
X181884222Y-112950934D01*
X182197352Y-112890018D01*
X182436831Y-112817089D01*
X182499800Y-112786623D01*
X182734212Y-112604588D01*
X182948730Y-112368639D01*
X182973296Y-112334089D01*
X183088885Y-112130625D01*
X183141440Y-111920750D01*
X183145555Y-111634153D01*
X183140023Y-111530731D01*
X183061024Y-111051618D01*
X182882698Y-110690795D01*
X182593120Y-110438906D01*
X182180366Y-110286599D01*
X181632511Y-110224518D01*
X181471705Y-110222000D01*
X180786000Y-110222000D01*
X180221727Y-110222000D01*
X180240385Y-110057902D01*
X180274372Y-109929020D01*
X180320860Y-109852788D01*
X180326381Y-109847047D01*
X180480837Y-109780167D01*
X180761147Y-109734502D01*
X181125166Y-109710080D01*
X181530743Y-109706931D01*
X181935734Y-109725083D01*
G37*
X181935734Y-109725083D02*
X182297988Y-109764564D01*
X182575360Y-109825403D01*
X182630220Y-109845491D01*
X183096000Y-110126479D01*
X183446752Y-110521797D01*
X183668550Y-111009935D01*
X183747466Y-111569385D01*
X183747474Y-111571102D01*
X183670818Y-112123426D01*
X183446593Y-112610011D01*
X183090430Y-113010290D01*
X182617957Y-113303695D01*
X182358133Y-113399432D01*
X182084278Y-113455033D01*
X181722715Y-113494170D01*
X181328178Y-113514869D01*
X180955402Y-113515159D01*
X180659121Y-113493066D01*
X180532000Y-113465243D01*
X180418432Y-113411587D01*
X180333325Y-113327837D01*
X180272641Y-113191353D01*
X180232343Y-112979494D01*
X180208391Y-112669621D01*
X180196748Y-112239093D01*
X180193376Y-111665270D01*
X180193334Y-111566532D01*
X180195372Y-110993751D01*
X180202689Y-110566939D01*
X180217092Y-110262766D01*
X180221727Y-110222000D01*
X180786000Y-110222000D01*
X180786000Y-111562555D01*
X180789826Y-112023725D01*
X180800390Y-112424886D01*
X180816319Y-112735656D01*
X180836242Y-112925655D01*
X180849500Y-112969002D01*
X180980079Y-113008871D01*
X181227870Y-113015634D01*
X181545156Y-112994564D01*
X181884222Y-112950934D01*
X182197352Y-112890018D01*
X182436831Y-112817089D01*
X182499800Y-112786623D01*
X182734212Y-112604588D01*
X182948730Y-112368639D01*
X182973296Y-112334089D01*
X183088885Y-112130625D01*
X183141440Y-111920750D01*
X183145555Y-111634153D01*
X183140023Y-111530731D01*
X183061024Y-111051618D01*
X182882698Y-110690795D01*
X182593120Y-110438906D01*
X182180366Y-110286599D01*
X181632511Y-110224518D01*
X181471705Y-110222000D01*
X180786000Y-110222000D01*
X180221727Y-110222000D01*
X180240385Y-110057902D01*
X180274372Y-109929020D01*
X180320860Y-109852788D01*
X180326381Y-109847047D01*
X180480837Y-109780167D01*
X180761147Y-109734502D01*
X181125166Y-109710080D01*
X181530743Y-109706931D01*
X181935734Y-109725083D01*
G36*
X178119613Y-109858256D02*
G01*
X178233997Y-110031500D01*
X178334276Y-110241979D01*
X178475158Y-110554371D01*
X178644448Y-110939852D01*
X178829949Y-111369597D01*
X179019466Y-111814783D01*
X179200802Y-112246584D01*
X179361761Y-112636176D01*
X179490146Y-112954735D01*
X179573763Y-113173437D01*
X179600667Y-113261498D01*
X179530496Y-113374720D01*
X179377297Y-113456532D01*
X179227045Y-113464902D01*
X179205725Y-113454592D01*
X179145711Y-113361329D01*
X179033482Y-113137294D01*
X178881064Y-112808391D01*
X178700481Y-112400522D01*
X178516129Y-111969064D01*
X178291086Y-111435611D01*
X178121558Y-111040218D01*
X177998559Y-110764376D01*
X177913102Y-110589578D01*
X177856201Y-110497316D01*
X177818870Y-110469081D01*
X177794625Y-110483055D01*
X177755017Y-110568972D01*
X177662031Y-110786223D01*
X177526342Y-111109393D01*
X177358627Y-111513066D01*
X177180792Y-111944477D01*
X176950015Y-112496084D01*
X176766566Y-112906031D01*
X176619623Y-113191695D01*
X176498366Y-113370454D01*
X176391976Y-113459685D01*
X176289632Y-113476765D01*
X176235167Y-113463170D01*
X176147654Y-113357851D01*
X176129334Y-113256932D01*
X176161808Y-113131929D01*
X176250984Y-112881866D01*
X176384489Y-112536287D01*
X176549951Y-112124734D01*
X176734995Y-111676753D01*
X176927251Y-111221887D01*
X177114346Y-110789681D01*
X177283906Y-110409677D01*
X177423560Y-110111421D01*
X177520935Y-109924456D01*
X177533279Y-109904500D01*
X177716492Y-109734092D01*
X177921351Y-109720383D01*
X178119613Y-109858256D01*
G37*
X178119613Y-109858256D02*
X178233997Y-110031500D01*
X178334276Y-110241979D01*
X178475158Y-110554371D01*
X178644448Y-110939852D01*
X178829949Y-111369597D01*
X179019466Y-111814783D01*
X179200802Y-112246584D01*
X179361761Y-112636176D01*
X179490146Y-112954735D01*
X179573763Y-113173437D01*
X179600667Y-113261498D01*
X179530496Y-113374720D01*
X179377297Y-113456532D01*
X179227045Y-113464902D01*
X179205725Y-113454592D01*
X179145711Y-113361329D01*
X179033482Y-113137294D01*
X178881064Y-112808391D01*
X178700481Y-112400522D01*
X178516129Y-111969064D01*
X178291086Y-111435611D01*
X178121558Y-111040218D01*
X177998559Y-110764376D01*
X177913102Y-110589578D01*
X177856201Y-110497316D01*
X177818870Y-110469081D01*
X177794625Y-110483055D01*
X177755017Y-110568972D01*
X177662031Y-110786223D01*
X177526342Y-111109393D01*
X177358627Y-111513066D01*
X177180792Y-111944477D01*
X176950015Y-112496084D01*
X176766566Y-112906031D01*
X176619623Y-113191695D01*
X176498366Y-113370454D01*
X176391976Y-113459685D01*
X176289632Y-113476765D01*
X176235167Y-113463170D01*
X176147654Y-113357851D01*
X176129334Y-113256932D01*
X176161808Y-113131929D01*
X176250984Y-112881866D01*
X176384489Y-112536287D01*
X176549951Y-112124734D01*
X176734995Y-111676753D01*
X176927251Y-111221887D01*
X177114346Y-110789681D01*
X177283906Y-110409677D01*
X177423560Y-110111421D01*
X177520935Y-109924456D01*
X177533279Y-109904500D01*
X177716492Y-109734092D01*
X177921351Y-109720383D01*
X178119613Y-109858256D01*
G36*
X172202349Y-112165184D02*
G01*
X172542100Y-112253872D01*
X172922885Y-112377568D01*
X173306454Y-112525817D01*
X173434714Y-112581765D01*
X174234228Y-113030684D01*
X174927527Y-113608842D01*
X175517953Y-114319608D01*
X176008852Y-115166350D01*
X176016925Y-115183125D01*
X176219594Y-115648879D01*
X176337075Y-116018332D01*
X176366328Y-116277523D01*
X176304312Y-116412490D01*
X176286545Y-116421313D01*
X176145294Y-116425991D01*
X175903062Y-116391795D01*
X175706000Y-116348737D01*
X174844390Y-116049790D01*
X174039904Y-115606383D01*
X173316683Y-115037846D01*
X172698863Y-114363505D01*
X172210584Y-113602691D01*
X172165361Y-113513630D01*
X171936514Y-113012485D01*
X171851387Y-112773988D01*
X172320453Y-112773988D01*
X172359985Y-112897028D01*
X172464338Y-113124857D01*
X172613804Y-113415536D01*
X172672927Y-113524000D01*
X173146048Y-114232782D01*
X173721462Y-114821874D01*
X174419826Y-115310612D01*
X174795034Y-115510480D01*
X175234875Y-115721257D01*
X175537424Y-115848121D01*
X175715484Y-115885557D01*
X175781855Y-115828047D01*
X175749340Y-115670074D01*
X175630740Y-115406123D01*
X175524398Y-115196167D01*
X175067439Y-114469813D01*
X174500671Y-113835918D01*
X173851546Y-113322066D01*
X173409425Y-113070815D01*
X172943371Y-112856297D01*
X172611877Y-112732346D01*
X172407695Y-112696986D01*
X172323576Y-112748242D01*
X172320453Y-112773988D01*
X171851387Y-112773988D01*
X171793110Y-112610717D01*
X171738435Y-112320685D01*
X171775771Y-112154742D01*
X171798948Y-112134654D01*
X171941882Y-112121960D01*
X172202349Y-112165184D01*
G37*
X172202349Y-112165184D02*
X172542100Y-112253872D01*
X172922885Y-112377568D01*
X173306454Y-112525817D01*
X173434714Y-112581765D01*
X174234228Y-113030684D01*
X174927527Y-113608842D01*
X175517953Y-114319608D01*
X176008852Y-115166350D01*
X176016925Y-115183125D01*
X176219594Y-115648879D01*
X176337075Y-116018332D01*
X176366328Y-116277523D01*
X176304312Y-116412490D01*
X176286545Y-116421313D01*
X176145294Y-116425991D01*
X175903062Y-116391795D01*
X175706000Y-116348737D01*
X174844390Y-116049790D01*
X174039904Y-115606383D01*
X173316683Y-115037846D01*
X172698863Y-114363505D01*
X172210584Y-113602691D01*
X172165361Y-113513630D01*
X171936514Y-113012485D01*
X171851387Y-112773988D01*
X172320453Y-112773988D01*
X172359985Y-112897028D01*
X172464338Y-113124857D01*
X172613804Y-113415536D01*
X172672927Y-113524000D01*
X173146048Y-114232782D01*
X173721462Y-114821874D01*
X174419826Y-115310612D01*
X174795034Y-115510480D01*
X175234875Y-115721257D01*
X175537424Y-115848121D01*
X175715484Y-115885557D01*
X175781855Y-115828047D01*
X175749340Y-115670074D01*
X175630740Y-115406123D01*
X175524398Y-115196167D01*
X175067439Y-114469813D01*
X174500671Y-113835918D01*
X173851546Y-113322066D01*
X173409425Y-113070815D01*
X172943371Y-112856297D01*
X172611877Y-112732346D01*
X172407695Y-112696986D01*
X172323576Y-112748242D01*
X172320453Y-112773988D01*
X171851387Y-112773988D01*
X171793110Y-112610717D01*
X171738435Y-112320685D01*
X171775771Y-112154742D01*
X171798948Y-112134654D01*
X171941882Y-112121960D01*
X172202349Y-112165184D01*
G36*
X171370880Y-112706327D02*
G01*
X171342584Y-113307645D01*
X171219691Y-113975257D01*
X171016626Y-114645889D01*
X170823988Y-115105306D01*
X170540023Y-115569058D01*
X170142493Y-116046768D01*
X169676695Y-116493768D01*
X169187928Y-116865392D01*
X168834072Y-117067516D01*
X168369864Y-117264780D01*
X167891633Y-117427400D01*
X167427536Y-117550227D01*
X167005728Y-117628113D01*
X166654365Y-117655909D01*
X166401603Y-117628466D01*
X166275599Y-117540634D01*
X166273576Y-117535748D01*
X166256395Y-117371044D01*
X166269622Y-117084665D01*
X166287508Y-116913279D01*
X166731334Y-116913279D01*
X166731334Y-117227471D01*
X167133500Y-117152944D01*
X167441330Y-117083204D01*
X167811208Y-116981935D01*
X168059791Y-116904650D01*
X168832495Y-116566651D01*
X169491150Y-116104065D01*
X170033489Y-115519501D01*
X170457244Y-114815569D01*
X170760146Y-113994879D01*
X170828753Y-113718953D01*
X170925338Y-113227719D01*
X170961491Y-112883843D01*
X170937212Y-112676499D01*
X170852502Y-112594862D01*
X170828721Y-112592667D01*
X170572905Y-112626064D01*
X170212794Y-112716056D01*
X169797408Y-112847337D01*
X169375766Y-113004607D01*
X169043196Y-113150087D01*
X168376038Y-113550484D01*
X167825259Y-114061988D01*
X167384414Y-114693028D01*
X167047056Y-115452034D01*
X166894897Y-115959558D01*
X166814272Y-116315896D01*
X166755852Y-116652461D01*
X166731461Y-116900317D01*
X166731334Y-116913279D01*
X166287508Y-116913279D01*
X166307639Y-116720392D01*
X166364832Y-116322007D01*
X166435583Y-115933293D01*
X166514276Y-115598030D01*
X166528635Y-115547469D01*
X166810361Y-114815764D01*
X167198610Y-114142448D01*
X167664749Y-113575491D01*
X167761316Y-113482309D01*
X168366393Y-113019872D01*
X169080921Y-112634664D01*
X169854566Y-112347851D01*
X170636996Y-112180598D01*
X170922334Y-112153027D01*
X171345667Y-112127000D01*
X171370880Y-112706327D01*
G37*
X171370880Y-112706327D02*
X171342584Y-113307645D01*
X171219691Y-113975257D01*
X171016626Y-114645889D01*
X170823988Y-115105306D01*
X170540023Y-115569058D01*
X170142493Y-116046768D01*
X169676695Y-116493768D01*
X169187928Y-116865392D01*
X168834072Y-117067516D01*
X168369864Y-117264780D01*
X167891633Y-117427400D01*
X167427536Y-117550227D01*
X167005728Y-117628113D01*
X166654365Y-117655909D01*
X166401603Y-117628466D01*
X166275599Y-117540634D01*
X166273576Y-117535748D01*
X166256395Y-117371044D01*
X166269622Y-117084665D01*
X166287508Y-116913279D01*
X166731334Y-116913279D01*
X166731334Y-117227471D01*
X167133500Y-117152944D01*
X167441330Y-117083204D01*
X167811208Y-116981935D01*
X168059791Y-116904650D01*
X168832495Y-116566651D01*
X169491150Y-116104065D01*
X170033489Y-115519501D01*
X170457244Y-114815569D01*
X170760146Y-113994879D01*
X170828753Y-113718953D01*
X170925338Y-113227719D01*
X170961491Y-112883843D01*
X170937212Y-112676499D01*
X170852502Y-112594862D01*
X170828721Y-112592667D01*
X170572905Y-112626064D01*
X170212794Y-112716056D01*
X169797408Y-112847337D01*
X169375766Y-113004607D01*
X169043196Y-113150087D01*
X168376038Y-113550484D01*
X167825259Y-114061988D01*
X167384414Y-114693028D01*
X167047056Y-115452034D01*
X166894897Y-115959558D01*
X166814272Y-116315896D01*
X166755852Y-116652461D01*
X166731461Y-116900317D01*
X166731334Y-116913279D01*
X166287508Y-116913279D01*
X166307639Y-116720392D01*
X166364832Y-116322007D01*
X166435583Y-115933293D01*
X166514276Y-115598030D01*
X166528635Y-115547469D01*
X166810361Y-114815764D01*
X167198610Y-114142448D01*
X167664749Y-113575491D01*
X167761316Y-113482309D01*
X168366393Y-113019872D01*
X169080921Y-112634664D01*
X169854566Y-112347851D01*
X170636996Y-112180598D01*
X170922334Y-112153027D01*
X171345667Y-112127000D01*
X171370880Y-112706327D01*
D14*
%TO.C,U2*%
X154950000Y-57600000D02*
G75*
G03*
X154950000Y-57600000I-200000J0D01*
G01*
D12*
X161120900Y-56871100D02*
X156879100Y-56871100D01*
X156879100Y-62128900D02*
X161120900Y-62128900D01*
%TO.C,U1*%
X139879100Y-85128900D02*
X144120900Y-85128900D01*
X144120900Y-79871100D02*
X139879100Y-79871100D01*
%TO.C,U8*%
X165379100Y-83628900D02*
X169620900Y-83628900D01*
X169620900Y-78371100D02*
X165379100Y-78371100D01*
D15*
%TO.C,U4*%
X205350000Y-75000000D02*
G75*
G03*
X205350000Y-75000000I-100000J0D01*
G01*
D16*
X187900000Y-76000000D02*
X187250000Y-76000000D01*
X187250000Y-76000000D02*
X187250000Y-78450000D01*
X187250000Y-91550000D02*
X187250000Y-94000000D01*
X187250000Y-94000000D02*
X187900000Y-94000000D01*
X206250000Y-76000000D02*
X212750000Y-76000000D01*
X212750000Y-76000000D02*
X212750000Y-94000000D01*
X212750000Y-94000000D02*
X206250000Y-94000000D01*
D12*
%TO.C,D3*%
X161500000Y-75235000D02*
X160840000Y-75235000D01*
X163170000Y-75235000D02*
X162500000Y-75235000D01*
X163160000Y-75235000D02*
X163160000Y-72500000D01*
X160840000Y-73825000D02*
X160840000Y-75235000D01*
%TO.C,D4*%
X180235000Y-64500000D02*
X180235000Y-65160000D01*
X180235000Y-62830000D02*
X180235000Y-63500000D01*
X180235000Y-62840000D02*
X177500000Y-62840000D01*
X178825000Y-65160000D02*
X180235000Y-65160000D01*
%TO.C,D6*%
X157500000Y-52765000D02*
X158160000Y-52765000D01*
X155830000Y-52765000D02*
X156500000Y-52765000D01*
X155840000Y-52765000D02*
X155840000Y-55500000D01*
X158160000Y-54175000D02*
X158160000Y-52765000D01*
%TO.C,D11*%
X153000000Y-54235000D02*
X152340000Y-54235000D01*
X154670000Y-54235000D02*
X154000000Y-54235000D01*
X154660000Y-54235000D02*
X154660000Y-51500000D01*
X152340000Y-52825000D02*
X152340000Y-54235000D01*
%TO.C,D2*%
X166000000Y-73765000D02*
X166660000Y-73765000D01*
X164330000Y-73765000D02*
X165000000Y-73765000D01*
X164340000Y-73765000D02*
X164340000Y-76500000D01*
X166660000Y-75175000D02*
X166660000Y-73765000D01*
%TO.C,D5*%
X179235000Y-87500000D02*
X179235000Y-88160000D01*
X179235000Y-85830000D02*
X179235000Y-86500000D01*
X179235000Y-85840000D02*
X176500000Y-85840000D01*
X177825000Y-88160000D02*
X179235000Y-88160000D01*
%TO.C,C19*%
X184241422Y-59790000D02*
X184758578Y-59790000D01*
X184241422Y-61210000D02*
X184758578Y-61210000D01*
%TO.C,R17*%
X184758578Y-63710000D02*
X184241422Y-63710000D01*
X184758578Y-62290000D02*
X184241422Y-62290000D01*
%TO.C,R18*%
X210710000Y-98741422D02*
X210710000Y-99258578D01*
X209290000Y-98741422D02*
X209290000Y-99258578D01*
%TO.C,R21*%
X181790000Y-87241422D02*
X181790000Y-87758578D01*
X183210000Y-87241422D02*
X183210000Y-87758578D01*
%TO.C,R19*%
X202290000Y-101241422D02*
X202290000Y-101758578D01*
X203710000Y-101241422D02*
X203710000Y-101758578D01*
%TO.C,R15*%
X197758578Y-59210000D02*
X197241422Y-59210000D01*
X197758578Y-57790000D02*
X197241422Y-57790000D01*
%TO.C,R14*%
X114227064Y-108765000D02*
X113772936Y-108765000D01*
X114227064Y-110235000D02*
X113772936Y-110235000D01*
%TO.C,C2*%
X138241422Y-87210000D02*
X138758578Y-87210000D01*
X138241422Y-85790000D02*
X138758578Y-85790000D01*
%TO.C,C3*%
X138179422Y-89710000D02*
X138696578Y-89710000D01*
X138179422Y-88290000D02*
X138696578Y-88290000D01*
%TO.C,C5*%
X145241422Y-74790000D02*
X145758578Y-74790000D01*
X145241422Y-76210000D02*
X145758578Y-76210000D01*
%TO.C,C6*%
X145241422Y-77290000D02*
X145758578Y-77290000D01*
X145241422Y-78710000D02*
X145758578Y-78710000D01*
%TO.C,C8*%
X175758578Y-60790000D02*
X175241422Y-60790000D01*
X175758578Y-62210000D02*
X175241422Y-62210000D01*
%TO.C,C9*%
X171241422Y-60790000D02*
X171758578Y-60790000D01*
X171241422Y-62210000D02*
X171758578Y-62210000D01*
%TO.C,C10*%
X162241422Y-53710000D02*
X162758578Y-53710000D01*
X162241422Y-52290000D02*
X162758578Y-52290000D01*
%TO.C,C11*%
X155241422Y-66710000D02*
X155758578Y-66710000D01*
X155241422Y-65290000D02*
X155758578Y-65290000D01*
%TO.C,C12*%
X162241422Y-56210000D02*
X162758578Y-56210000D01*
X162241422Y-54790000D02*
X162758578Y-54790000D01*
%TO.C,C13*%
X155241422Y-62790000D02*
X155758578Y-62790000D01*
X155241422Y-64210000D02*
X155758578Y-64210000D01*
%TO.C,C14*%
X133710000Y-116241422D02*
X133710000Y-116758578D01*
X132290000Y-116241422D02*
X132290000Y-116758578D01*
%TO.C,C15*%
X144710000Y-116758578D02*
X144710000Y-116241422D01*
X143290000Y-116758578D02*
X143290000Y-116241422D01*
%TO.C,C16*%
X158290000Y-114758578D02*
X158290000Y-114241422D01*
X159710000Y-114758578D02*
X159710000Y-114241422D01*
%TO.C,C17*%
X149758578Y-110790000D02*
X149241422Y-110790000D01*
X149758578Y-112210000D02*
X149241422Y-112210000D01*
%TO.C,D1*%
X111450000Y-104500000D02*
X115750000Y-104500000D01*
X111450000Y-102500000D02*
X111450000Y-104500000D01*
X115750000Y-102500000D02*
X111450000Y-102500000D01*
%TO.C,D7*%
X111450000Y-107500000D02*
X115750000Y-107500000D01*
X111450000Y-105500000D02*
X111450000Y-107500000D01*
X115750000Y-105500000D02*
X111450000Y-105500000D01*
%TO.C,R2*%
X138710000Y-70258578D02*
X138710000Y-69741422D01*
X137290000Y-70258578D02*
X137290000Y-69741422D01*
%TO.C,R3*%
X113741422Y-100710000D02*
X114258578Y-100710000D01*
X113741422Y-99290000D02*
X114258578Y-99290000D01*
%TO.C,R4*%
X135258578Y-81290000D02*
X134741422Y-81290000D01*
X135258578Y-82710000D02*
X134741422Y-82710000D01*
%TO.C,R6*%
X151210000Y-52741422D02*
X151210000Y-53258578D01*
X149790000Y-52741422D02*
X149790000Y-53258578D01*
%TO.C,R7*%
X149741422Y-59210000D02*
X150258578Y-59210000D01*
X149741422Y-57790000D02*
X150258578Y-57790000D01*
%TO.C,R8*%
X177179422Y-58710000D02*
X177696578Y-58710000D01*
X177179422Y-57290000D02*
X177696578Y-57290000D01*
%TO.C,R9*%
X173241422Y-57290000D02*
X173758578Y-57290000D01*
X173241422Y-58710000D02*
X173758578Y-58710000D01*
%TO.C,R10*%
X158210000Y-69758578D02*
X158210000Y-69241422D01*
X156790000Y-69758578D02*
X156790000Y-69241422D01*
%TO.C,R12*%
X148758578Y-85210000D02*
X148241422Y-85210000D01*
X148758578Y-83790000D02*
X148241422Y-83790000D01*
%TO.C,R13*%
X151610000Y-61741422D02*
X151610000Y-62258578D01*
X150190000Y-61741422D02*
X150190000Y-62258578D01*
%TO.C,R20*%
X190741422Y-54290000D02*
X191258578Y-54290000D01*
X190741422Y-55710000D02*
X191258578Y-55710000D01*
%TO.C,R22*%
X145710000Y-57758578D02*
X145710000Y-57241422D01*
X144290000Y-57758578D02*
X144290000Y-57241422D01*
%TO.C,R23*%
X167258578Y-63210000D02*
X166741422Y-63210000D01*
X167258578Y-61790000D02*
X166741422Y-61790000D01*
%TO.C,R24*%
X162241422Y-64210000D02*
X162758578Y-64210000D01*
X162241422Y-62790000D02*
X162758578Y-62790000D01*
%TO.C,R25*%
X165290000Y-59258578D02*
X165290000Y-58741422D01*
X166710000Y-59258578D02*
X166710000Y-58741422D01*
%TO.C,R10_POT1*%
X151826200Y-74956799D02*
G75*
G03*
X151826200Y-74956799I-76200J0D01*
G01*
X151989560Y-69120400D02*
X150472700Y-69120400D01*
X155019140Y-72879600D02*
X155527300Y-72879600D01*
X152519140Y-72879600D02*
X153480860Y-72879600D01*
X150472700Y-69120400D02*
X150472700Y-72879600D01*
X155527300Y-69120400D02*
X154010440Y-69120400D01*
X155527300Y-72879600D02*
X155527300Y-69120400D01*
X150472700Y-72879600D02*
X150980860Y-72879600D01*
%TO.C,R2_POT1*%
X130972700Y-73879600D02*
X131480860Y-73879600D01*
X136027300Y-73879600D02*
X136027300Y-70120400D01*
X136027300Y-70120400D02*
X134510440Y-70120400D01*
X130972700Y-70120400D02*
X130972700Y-73879600D01*
X133019140Y-73879600D02*
X133980860Y-73879600D01*
X135519140Y-73879600D02*
X136027300Y-73879600D01*
X132489560Y-70120400D02*
X130972700Y-70120400D01*
X132326200Y-75956799D02*
G75*
G03*
X132326200Y-75956799I-76200J0D01*
G01*
D15*
%TO.C,U6*%
X158045000Y-117995000D02*
G75*
G03*
X158045000Y-117995000I-100000J0D01*
G01*
D16*
X155500000Y-118020000D02*
X151500000Y-118020000D01*
X155500000Y-112980000D02*
X151500000Y-112980000D01*
D12*
%TO.C,SB1*%
X124200000Y-62500000D02*
X122800000Y-62500000D01*
X122100000Y-61800000D02*
X122100000Y-61200000D01*
X122800000Y-60500000D02*
X124200000Y-60500000D01*
X124900000Y-61200000D02*
X124900000Y-61800000D01*
X122800000Y-62500000D02*
G75*
G02*
X122100000Y-61800000I0J700000D01*
G01*
X122100000Y-61200000D02*
G75*
G02*
X122800000Y-60500000I700000J0D01*
G01*
X124200000Y-60500000D02*
G75*
G02*
X124900000Y-61200000I0J-700000D01*
G01*
X124900000Y-61800000D02*
G75*
G02*
X124200000Y-62500000I-700000J0D01*
G01*
%TO.C,TPP2*%
X133750000Y-106000000D02*
G75*
G03*
X133750000Y-106000000I-1750000J0D01*
G01*
%TO.C,TPP4*%
X141300000Y-103700000D02*
X141300000Y-99300000D01*
X145700000Y-103700000D02*
X141300000Y-103700000D01*
X145700000Y-99300000D02*
X145700000Y-103700000D01*
X141300000Y-99300000D02*
X145700000Y-99300000D01*
%TO.C,C18*%
X113241422Y-54210000D02*
X113758578Y-54210000D01*
X113241422Y-52790000D02*
X113758578Y-52790000D01*
%TO.C,C20*%
X177710000Y-82241422D02*
X177710000Y-82758578D01*
X176290000Y-82241422D02*
X176290000Y-82758578D01*
%TO.C,C21*%
X178790000Y-82241422D02*
X178790000Y-82758578D01*
X180210000Y-82241422D02*
X180210000Y-82758578D01*
%TO.C,POT1*%
X155532999Y-92750000D02*
G75*
G03*
X155532999Y-92750000I-76200J0D01*
G01*
X149620400Y-92510440D02*
X149620400Y-94027300D01*
X153379600Y-89480860D02*
X153379600Y-88972700D01*
X153379600Y-91980860D02*
X153379600Y-91019140D01*
X149620400Y-94027300D02*
X153379600Y-94027300D01*
X149620400Y-88972700D02*
X149620400Y-90489560D01*
X153379600Y-88972700D02*
X149620400Y-88972700D01*
X153379600Y-94027300D02*
X153379600Y-93519140D01*
%TO.C,R11*%
X113241422Y-57210000D02*
X113758578Y-57210000D01*
X113241422Y-55790000D02*
X113758578Y-55790000D01*
%TO.C,R16*%
X158241422Y-78290000D02*
X158758578Y-78290000D01*
X158241422Y-79710000D02*
X158758578Y-79710000D01*
%TO.C,R26*%
X158758578Y-81290000D02*
X158241422Y-81290000D01*
X158758578Y-82710000D02*
X158241422Y-82710000D01*
%TO.C,R27*%
X158710000Y-74258578D02*
X158710000Y-73741422D01*
X157290000Y-74258578D02*
X157290000Y-73741422D01*
%TO.C,R28*%
X153790000Y-77258578D02*
X153790000Y-76741422D01*
X155210000Y-77258578D02*
X155210000Y-76741422D01*
%TO.C,R29*%
X173741422Y-83710000D02*
X174258578Y-83710000D01*
X173741422Y-82290000D02*
X174258578Y-82290000D01*
%TO.C,R30*%
X170741422Y-84790000D02*
X171258578Y-84790000D01*
X170741422Y-86210000D02*
X171258578Y-86210000D01*
%TO.C,R31*%
X174710000Y-80258578D02*
X174710000Y-79741422D01*
X173290000Y-80258578D02*
X173290000Y-79741422D01*
%TO.C,R32*%
X176290000Y-78758578D02*
X176290000Y-78241422D01*
X177710000Y-78758578D02*
X177710000Y-78241422D01*
%TO.C,R33*%
X178790000Y-78758578D02*
X178790000Y-78241422D01*
X180210000Y-78758578D02*
X180210000Y-78241422D01*
%TO.C,SB2*%
X111300000Y-82000000D02*
X112700000Y-82000000D01*
X113400000Y-82700000D02*
X113400000Y-83300000D01*
X112700000Y-84000000D02*
X111300000Y-84000000D01*
X110600000Y-83300000D02*
X110600000Y-82700000D01*
X112700000Y-82000000D02*
G75*
G02*
X113400000Y-82700000I0J-700000D01*
G01*
X113400000Y-83300000D02*
G75*
G02*
X112700000Y-84000000I-700000J0D01*
G01*
X111300000Y-84000000D02*
G75*
G02*
X110600000Y-83300000I0J700000D01*
G01*
X110600000Y-82700000D02*
G75*
G02*
X111300000Y-82000000I700000J0D01*
G01*
D16*
%TO.C,U7*%
X152000000Y-105520000D02*
X156000000Y-105520000D01*
X152000000Y-100480000D02*
X156000000Y-100480000D01*
D15*
X149655000Y-100505000D02*
G75*
G03*
X149655000Y-100505000I-100000J0D01*
G01*
D12*
%TO.C,R1*%
X123758578Y-116210000D02*
X123241422Y-116210000D01*
X123758578Y-114790000D02*
X123241422Y-114790000D01*
%TO.C,R5*%
X123241422Y-118710000D02*
X123758578Y-118710000D01*
X123241422Y-117290000D02*
X123758578Y-117290000D01*
D15*
%TO.C,U9*%
X196545000Y-104495000D02*
G75*
G03*
X196545000Y-104495000I-100000J0D01*
G01*
D16*
X194000000Y-104520000D02*
X190000000Y-104520000D01*
X194000000Y-99480000D02*
X190000000Y-99480000D01*
D12*
%TO.C,C1*%
X198710000Y-102741422D02*
X198710000Y-103258578D01*
X197290000Y-102741422D02*
X197290000Y-103258578D01*
D17*
%TO.C,B1*%
X111000000Y-55500000D02*
G75*
G03*
X111000000Y-55500000I-5500000J0D01*
G01*
%TO.C,B2*%
X111000000Y-114500000D02*
G75*
G03*
X111000000Y-114500000I-5500000J0D01*
G01*
%TO.C,B3*%
X213000000Y-114500000D02*
G75*
G03*
X213000000Y-114500000I-5500000J0D01*
G01*
%TO.C,B4*%
X213000000Y-55500000D02*
G75*
G03*
X213000000Y-55500000I-5500000J0D01*
G01*
D12*
%TO.C,C4*%
X125265000Y-57761252D02*
X125265000Y-57238748D01*
X126735000Y-57761252D02*
X126735000Y-57238748D01*
%TO.C,C7*%
X115735000Y-59761252D02*
X115735000Y-59238748D01*
X114265000Y-59761252D02*
X114265000Y-59238748D01*
%TO.C,R34*%
X122227064Y-53735000D02*
X121772936Y-53735000D01*
X122227064Y-52265000D02*
X121772936Y-52265000D01*
%TO.C,R35*%
X126727064Y-52265000D02*
X126272936Y-52265000D01*
X126727064Y-53735000D02*
X126272936Y-53735000D01*
D16*
%TO.C,U3*%
X122355000Y-54705000D02*
X118355000Y-54705000D01*
X122355000Y-59745000D02*
X118355000Y-59745000D01*
D15*
X124900000Y-59720000D02*
G75*
G03*
X124900000Y-59720000I-100000J0D01*
G01*
D12*
%TO.C,C22*%
X160735000Y-103738748D02*
X160735000Y-104261252D01*
X159265000Y-103738748D02*
X159265000Y-104261252D01*
%TO.C,C23*%
X152211252Y-106265000D02*
X151688748Y-106265000D01*
X152211252Y-107735000D02*
X151688748Y-107735000D01*
%TO.C,TPP3*%
X135250000Y-64500000D02*
G75*
G03*
X135250000Y-64500000I-1750000J0D01*
G01*
%TO.C,C28*%
X179761252Y-60765000D02*
X179238748Y-60765000D01*
X179761252Y-62235000D02*
X179238748Y-62235000D01*
%TO.C,C29*%
X182765000Y-71711252D02*
X182765000Y-71188748D01*
X184235000Y-71711252D02*
X184235000Y-71188748D01*
%TO.C,R36*%
X181272936Y-58735000D02*
X181727064Y-58735000D01*
X181272936Y-57265000D02*
X181727064Y-57265000D01*
%TO.C,R37*%
X181265000Y-78727064D02*
X181265000Y-78272936D01*
X182735000Y-78727064D02*
X182735000Y-78272936D01*
%TO.C,TPP6*%
X160250000Y-91500000D02*
G75*
G03*
X160250000Y-91500000I-1750000J0D01*
G01*
%TO.C,TPP10*%
X146250000Y-91500000D02*
G75*
G03*
X146250000Y-91500000I-1750000J0D01*
G01*
%TO.C,R10P1*%
X162710000Y-69758578D02*
X162710000Y-69241422D01*
X161290000Y-69758578D02*
X161290000Y-69241422D01*
%TO.C,R2P1*%
X140790000Y-70258578D02*
X140790000Y-69741422D01*
X142210000Y-70258578D02*
X142210000Y-69741422D01*
%TO.C,R52S1*%
X169241422Y-57290000D02*
X169758578Y-57290000D01*
X169241422Y-58710000D02*
X169758578Y-58710000D01*
%TO.C,C24*%
X170741422Y-71790000D02*
X171258578Y-71790000D01*
X170741422Y-73210000D02*
X171258578Y-73210000D01*
%TO.C,C25*%
X163741422Y-87290000D02*
X164258578Y-87290000D01*
X163741422Y-88710000D02*
X164258578Y-88710000D01*
%TO.C,C26*%
X170741422Y-76710000D02*
X171258578Y-76710000D01*
X170741422Y-75290000D02*
X171258578Y-75290000D01*
%TO.C,C27*%
X163741422Y-86210000D02*
X164258578Y-86210000D01*
X163741422Y-84790000D02*
X164258578Y-84790000D01*
%TO.C,U2*%
D11*
X158238095Y-55452380D02*
X158238095Y-56261904D01*
X158285714Y-56357142D01*
X158333333Y-56404761D01*
X158428571Y-56452380D01*
X158619047Y-56452380D01*
X158714285Y-56404761D01*
X158761904Y-56357142D01*
X158809523Y-56261904D01*
X158809523Y-55452380D01*
X159238095Y-55547619D02*
X159285714Y-55500000D01*
X159380952Y-55452380D01*
X159619047Y-55452380D01*
X159714285Y-55500000D01*
X159761904Y-55547619D01*
X159809523Y-55642857D01*
X159809523Y-55738095D01*
X159761904Y-55880952D01*
X159190476Y-56452380D01*
X159809523Y-56452380D01*
X156282200Y-55346380D02*
X156282200Y-55584476D01*
X156044104Y-55489238D02*
X156282200Y-55584476D01*
X156520295Y-55489238D01*
X156139342Y-55774952D02*
X156282200Y-55584476D01*
X156425057Y-55774952D01*
X156282200Y-55346380D02*
X156282200Y-55584476D01*
X156044104Y-55489238D02*
X156282200Y-55584476D01*
X156520295Y-55489238D01*
X156139342Y-55774952D02*
X156282200Y-55584476D01*
X156425057Y-55774952D01*
X156282200Y-55346380D02*
X156282200Y-55584476D01*
X156044104Y-55489238D02*
X156282200Y-55584476D01*
X156520295Y-55489238D01*
X156139342Y-55774952D02*
X156282200Y-55584476D01*
X156425057Y-55774952D01*
%TO.C,U1*%
X140738095Y-78452380D02*
X140738095Y-79261904D01*
X140785714Y-79357142D01*
X140833333Y-79404761D01*
X140928571Y-79452380D01*
X141119047Y-79452380D01*
X141214285Y-79404761D01*
X141261904Y-79357142D01*
X141309523Y-79261904D01*
X141309523Y-78452380D01*
X142309523Y-79452380D02*
X141738095Y-79452380D01*
X142023809Y-79452380D02*
X142023809Y-78452380D01*
X141928571Y-78595238D01*
X141833333Y-78690476D01*
X141738095Y-78738095D01*
X137625000Y-80427380D02*
X137625000Y-80665476D01*
X137386904Y-80570238D02*
X137625000Y-80665476D01*
X137863095Y-80570238D01*
X137482142Y-80855952D02*
X137625000Y-80665476D01*
X137767857Y-80855952D01*
%TO.C,U8*%
X167238095Y-76952380D02*
X167238095Y-77761904D01*
X167285714Y-77857142D01*
X167333333Y-77904761D01*
X167428571Y-77952380D01*
X167619047Y-77952380D01*
X167714285Y-77904761D01*
X167761904Y-77857142D01*
X167809523Y-77761904D01*
X167809523Y-76952380D01*
X168428571Y-77380952D02*
X168333333Y-77333333D01*
X168285714Y-77285714D01*
X168238095Y-77190476D01*
X168238095Y-77142857D01*
X168285714Y-77047619D01*
X168333333Y-77000000D01*
X168428571Y-76952380D01*
X168619047Y-76952380D01*
X168714285Y-77000000D01*
X168761904Y-77047619D01*
X168809523Y-77142857D01*
X168809523Y-77190476D01*
X168761904Y-77285714D01*
X168714285Y-77333333D01*
X168619047Y-77380952D01*
X168428571Y-77380952D01*
X168333333Y-77428571D01*
X168285714Y-77476190D01*
X168238095Y-77571428D01*
X168238095Y-77761904D01*
X168285714Y-77857142D01*
X168333333Y-77904761D01*
X168428571Y-77952380D01*
X168619047Y-77952380D01*
X168714285Y-77904761D01*
X168761904Y-77857142D01*
X168809523Y-77761904D01*
X168809523Y-77571428D01*
X168761904Y-77476190D01*
X168714285Y-77428571D01*
X168619047Y-77380952D01*
X162875000Y-78802380D02*
X162875000Y-79040476D01*
X162636904Y-78945238D02*
X162875000Y-79040476D01*
X163113095Y-78945238D01*
X162732142Y-79230952D02*
X162875000Y-79040476D01*
X163017857Y-79230952D01*
%TO.C,U4*%
X184738095Y-75952380D02*
X184738095Y-76761904D01*
X184785714Y-76857142D01*
X184833333Y-76904761D01*
X184928571Y-76952380D01*
X185119047Y-76952380D01*
X185214285Y-76904761D01*
X185261904Y-76857142D01*
X185309523Y-76761904D01*
X185309523Y-75952380D01*
X186214285Y-76285714D02*
X186214285Y-76952380D01*
X185976190Y-75904761D02*
X185738095Y-76619047D01*
X186357142Y-76619047D01*
%TO.C,D3*%
X159761904Y-71952380D02*
X159761904Y-70952380D01*
X160000000Y-70952380D01*
X160142857Y-71000000D01*
X160238095Y-71095238D01*
X160285714Y-71190476D01*
X160333333Y-71380952D01*
X160333333Y-71523809D01*
X160285714Y-71714285D01*
X160238095Y-71809523D01*
X160142857Y-71904761D01*
X160000000Y-71952380D01*
X159761904Y-71952380D01*
X160666666Y-70952380D02*
X161285714Y-70952380D01*
X160952380Y-71333333D01*
X161095238Y-71333333D01*
X161190476Y-71380952D01*
X161238095Y-71428571D01*
X161285714Y-71523809D01*
X161285714Y-71761904D01*
X161238095Y-71857142D01*
X161190476Y-71904761D01*
X161095238Y-71952380D01*
X160809523Y-71952380D01*
X160714285Y-71904761D01*
X160666666Y-71857142D01*
D17*
X162916190Y-76140952D02*
X162416190Y-76140952D01*
X162916190Y-75855238D02*
X162630476Y-76069523D01*
X162416190Y-75855238D02*
X162701904Y-76140952D01*
%TO.C,D4*%
D11*
X178761904Y-66952380D02*
X178761904Y-65952380D01*
X179000000Y-65952380D01*
X179142857Y-66000000D01*
X179238095Y-66095238D01*
X179285714Y-66190476D01*
X179333333Y-66380952D01*
X179333333Y-66523809D01*
X179285714Y-66714285D01*
X179238095Y-66809523D01*
X179142857Y-66904761D01*
X179000000Y-66952380D01*
X178761904Y-66952380D01*
X180190476Y-66285714D02*
X180190476Y-66952380D01*
X179952380Y-65904761D02*
X179714285Y-66619047D01*
X180333333Y-66619047D01*
D17*
X180879047Y-63536190D02*
X180879047Y-63036190D01*
X181164761Y-63536190D02*
X180950476Y-63250476D01*
X181164761Y-63036190D02*
X180879047Y-63321904D01*
%TO.C,D6*%
D11*
X158861904Y-52152380D02*
X158861904Y-51152380D01*
X159100000Y-51152380D01*
X159242857Y-51200000D01*
X159338095Y-51295238D01*
X159385714Y-51390476D01*
X159433333Y-51580952D01*
X159433333Y-51723809D01*
X159385714Y-51914285D01*
X159338095Y-52009523D01*
X159242857Y-52104761D01*
X159100000Y-52152380D01*
X158861904Y-52152380D01*
X160290476Y-51152380D02*
X160100000Y-51152380D01*
X160004761Y-51200000D01*
X159957142Y-51247619D01*
X159861904Y-51390476D01*
X159814285Y-51580952D01*
X159814285Y-51961904D01*
X159861904Y-52057142D01*
X159909523Y-52104761D01*
X160004761Y-52152380D01*
X160195238Y-52152380D01*
X160290476Y-52104761D01*
X160338095Y-52057142D01*
X160385714Y-51961904D01*
X160385714Y-51723809D01*
X160338095Y-51628571D01*
X160290476Y-51580952D01*
X160195238Y-51533333D01*
X160004761Y-51533333D01*
X159909523Y-51580952D01*
X159861904Y-51628571D01*
X159814285Y-51723809D01*
D17*
X156536190Y-52120952D02*
X156036190Y-52120952D01*
X156536190Y-51835238D02*
X156250476Y-52049523D01*
X156036190Y-51835238D02*
X156321904Y-52120952D01*
%TO.C,D11*%
D11*
X151835714Y-57102380D02*
X151835714Y-56102380D01*
X152073809Y-56102380D01*
X152216666Y-56150000D01*
X152311904Y-56245238D01*
X152359523Y-56340476D01*
X152407142Y-56530952D01*
X152407142Y-56673809D01*
X152359523Y-56864285D01*
X152311904Y-56959523D01*
X152216666Y-57054761D01*
X152073809Y-57102380D01*
X151835714Y-57102380D01*
X153359523Y-57102380D02*
X152788095Y-57102380D01*
X153073809Y-57102380D02*
X153073809Y-56102380D01*
X152978571Y-56245238D01*
X152883333Y-56340476D01*
X152788095Y-56388095D01*
X154311904Y-57102380D02*
X153740476Y-57102380D01*
X154026190Y-57102380D02*
X154026190Y-56102380D01*
X153930952Y-56245238D01*
X153835714Y-56340476D01*
X153740476Y-56388095D01*
D17*
X154416190Y-55140952D02*
X153916190Y-55140952D01*
X154416190Y-54855238D02*
X154130476Y-55069523D01*
X153916190Y-54855238D02*
X154201904Y-55140952D01*
%TO.C,D2*%
D11*
X165261904Y-70452380D02*
X165261904Y-69452380D01*
X165500000Y-69452380D01*
X165642857Y-69500000D01*
X165738095Y-69595238D01*
X165785714Y-69690476D01*
X165833333Y-69880952D01*
X165833333Y-70023809D01*
X165785714Y-70214285D01*
X165738095Y-70309523D01*
X165642857Y-70404761D01*
X165500000Y-70452380D01*
X165261904Y-70452380D01*
X166214285Y-69547619D02*
X166261904Y-69500000D01*
X166357142Y-69452380D01*
X166595238Y-69452380D01*
X166690476Y-69500000D01*
X166738095Y-69547619D01*
X166785714Y-69642857D01*
X166785714Y-69738095D01*
X166738095Y-69880952D01*
X166166666Y-70452380D01*
X166785714Y-70452380D01*
D17*
X165036190Y-73120952D02*
X164536190Y-73120952D01*
X165036190Y-72835238D02*
X164750476Y-73049523D01*
X164536190Y-72835238D02*
X164821904Y-73120952D01*
%TO.C,D5*%
D11*
X177761904Y-90952380D02*
X177761904Y-89952380D01*
X178000000Y-89952380D01*
X178142857Y-90000000D01*
X178238095Y-90095238D01*
X178285714Y-90190476D01*
X178333333Y-90380952D01*
X178333333Y-90523809D01*
X178285714Y-90714285D01*
X178238095Y-90809523D01*
X178142857Y-90904761D01*
X178000000Y-90952380D01*
X177761904Y-90952380D01*
X179238095Y-89952380D02*
X178761904Y-89952380D01*
X178714285Y-90428571D01*
X178761904Y-90380952D01*
X178857142Y-90333333D01*
X179095238Y-90333333D01*
X179190476Y-90380952D01*
X179238095Y-90428571D01*
X179285714Y-90523809D01*
X179285714Y-90761904D01*
X179238095Y-90857142D01*
X179190476Y-90904761D01*
X179095238Y-90952380D01*
X178857142Y-90952380D01*
X178761904Y-90904761D01*
X178714285Y-90857142D01*
D17*
X179879047Y-86536190D02*
X179879047Y-86036190D01*
X180164761Y-86536190D02*
X179950476Y-86250476D01*
X180164761Y-86036190D02*
X179879047Y-86321904D01*
%TO.C,C19*%
D11*
X187357142Y-60857142D02*
X187309523Y-60904761D01*
X187166666Y-60952380D01*
X187071428Y-60952380D01*
X186928571Y-60904761D01*
X186833333Y-60809523D01*
X186785714Y-60714285D01*
X186738095Y-60523809D01*
X186738095Y-60380952D01*
X186785714Y-60190476D01*
X186833333Y-60095238D01*
X186928571Y-60000000D01*
X187071428Y-59952380D01*
X187166666Y-59952380D01*
X187309523Y-60000000D01*
X187357142Y-60047619D01*
X188309523Y-60952380D02*
X187738095Y-60952380D01*
X188023809Y-60952380D02*
X188023809Y-59952380D01*
X187928571Y-60095238D01*
X187833333Y-60190476D01*
X187738095Y-60238095D01*
X188785714Y-60952380D02*
X188976190Y-60952380D01*
X189071428Y-60904761D01*
X189119047Y-60857142D01*
X189214285Y-60714285D01*
X189261904Y-60523809D01*
X189261904Y-60142857D01*
X189214285Y-60047619D01*
X189166666Y-60000000D01*
X189071428Y-59952380D01*
X188880952Y-59952380D01*
X188785714Y-60000000D01*
X188738095Y-60047619D01*
X188690476Y-60142857D01*
X188690476Y-60380952D01*
X188738095Y-60476190D01*
X188785714Y-60523809D01*
X188880952Y-60571428D01*
X189071428Y-60571428D01*
X189166666Y-60523809D01*
X189214285Y-60476190D01*
X189261904Y-60380952D01*
%TO.C,R17*%
X187857142Y-63452380D02*
X187523809Y-62976190D01*
X187285714Y-63452380D02*
X187285714Y-62452380D01*
X187666666Y-62452380D01*
X187761904Y-62500000D01*
X187809523Y-62547619D01*
X187857142Y-62642857D01*
X187857142Y-62785714D01*
X187809523Y-62880952D01*
X187761904Y-62928571D01*
X187666666Y-62976190D01*
X187285714Y-62976190D01*
X188809523Y-63452380D02*
X188238095Y-63452380D01*
X188523809Y-63452380D02*
X188523809Y-62452380D01*
X188428571Y-62595238D01*
X188333333Y-62690476D01*
X188238095Y-62738095D01*
X189142857Y-62452380D02*
X189809523Y-62452380D01*
X189380952Y-63452380D01*
%TO.C,R18*%
X209307142Y-102402380D02*
X208973809Y-101926190D01*
X208735714Y-102402380D02*
X208735714Y-101402380D01*
X209116666Y-101402380D01*
X209211904Y-101450000D01*
X209259523Y-101497619D01*
X209307142Y-101592857D01*
X209307142Y-101735714D01*
X209259523Y-101830952D01*
X209211904Y-101878571D01*
X209116666Y-101926190D01*
X208735714Y-101926190D01*
X210259523Y-102402380D02*
X209688095Y-102402380D01*
X209973809Y-102402380D02*
X209973809Y-101402380D01*
X209878571Y-101545238D01*
X209783333Y-101640476D01*
X209688095Y-101688095D01*
X210830952Y-101830952D02*
X210735714Y-101783333D01*
X210688095Y-101735714D01*
X210640476Y-101640476D01*
X210640476Y-101592857D01*
X210688095Y-101497619D01*
X210735714Y-101450000D01*
X210830952Y-101402380D01*
X211021428Y-101402380D01*
X211116666Y-101450000D01*
X211164285Y-101497619D01*
X211211904Y-101592857D01*
X211211904Y-101640476D01*
X211164285Y-101735714D01*
X211116666Y-101783333D01*
X211021428Y-101830952D01*
X210830952Y-101830952D01*
X210735714Y-101878571D01*
X210688095Y-101926190D01*
X210640476Y-102021428D01*
X210640476Y-102211904D01*
X210688095Y-102307142D01*
X210735714Y-102354761D01*
X210830952Y-102402380D01*
X211021428Y-102402380D01*
X211116666Y-102354761D01*
X211164285Y-102307142D01*
X211211904Y-102211904D01*
X211211904Y-102021428D01*
X211164285Y-101926190D01*
X211116666Y-101878571D01*
X211021428Y-101830952D01*
%TO.C,R21*%
X184602380Y-88142857D02*
X184126190Y-88476190D01*
X184602380Y-88714285D02*
X183602380Y-88714285D01*
X183602380Y-88333333D01*
X183650000Y-88238095D01*
X183697619Y-88190476D01*
X183792857Y-88142857D01*
X183935714Y-88142857D01*
X184030952Y-88190476D01*
X184078571Y-88238095D01*
X184126190Y-88333333D01*
X184126190Y-88714285D01*
X183697619Y-87761904D02*
X183650000Y-87714285D01*
X183602380Y-87619047D01*
X183602380Y-87380952D01*
X183650000Y-87285714D01*
X183697619Y-87238095D01*
X183792857Y-87190476D01*
X183888095Y-87190476D01*
X184030952Y-87238095D01*
X184602380Y-87809523D01*
X184602380Y-87190476D01*
X184602380Y-86238095D02*
X184602380Y-86809523D01*
X184602380Y-86523809D02*
X183602380Y-86523809D01*
X183745238Y-86619047D01*
X183840476Y-86714285D01*
X183888095Y-86809523D01*
%TO.C,R19*%
X202357142Y-98952380D02*
X202023809Y-98476190D01*
X201785714Y-98952380D02*
X201785714Y-97952380D01*
X202166666Y-97952380D01*
X202261904Y-98000000D01*
X202309523Y-98047619D01*
X202357142Y-98142857D01*
X202357142Y-98285714D01*
X202309523Y-98380952D01*
X202261904Y-98428571D01*
X202166666Y-98476190D01*
X201785714Y-98476190D01*
X203309523Y-98952380D02*
X202738095Y-98952380D01*
X203023809Y-98952380D02*
X203023809Y-97952380D01*
X202928571Y-98095238D01*
X202833333Y-98190476D01*
X202738095Y-98238095D01*
X203785714Y-98952380D02*
X203976190Y-98952380D01*
X204071428Y-98904761D01*
X204119047Y-98857142D01*
X204214285Y-98714285D01*
X204261904Y-98523809D01*
X204261904Y-98142857D01*
X204214285Y-98047619D01*
X204166666Y-98000000D01*
X204071428Y-97952380D01*
X203880952Y-97952380D01*
X203785714Y-98000000D01*
X203738095Y-98047619D01*
X203690476Y-98142857D01*
X203690476Y-98380952D01*
X203738095Y-98476190D01*
X203785714Y-98523809D01*
X203880952Y-98571428D01*
X204071428Y-98571428D01*
X204166666Y-98523809D01*
X204214285Y-98476190D01*
X204261904Y-98380952D01*
%TO.C,R15*%
X197257142Y-60952380D02*
X196923809Y-60476190D01*
X196685714Y-60952380D02*
X196685714Y-59952380D01*
X197066666Y-59952380D01*
X197161904Y-60000000D01*
X197209523Y-60047619D01*
X197257142Y-60142857D01*
X197257142Y-60285714D01*
X197209523Y-60380952D01*
X197161904Y-60428571D01*
X197066666Y-60476190D01*
X196685714Y-60476190D01*
X198209523Y-60952380D02*
X197638095Y-60952380D01*
X197923809Y-60952380D02*
X197923809Y-59952380D01*
X197828571Y-60095238D01*
X197733333Y-60190476D01*
X197638095Y-60238095D01*
X199114285Y-59952380D02*
X198638095Y-59952380D01*
X198590476Y-60428571D01*
X198638095Y-60380952D01*
X198733333Y-60333333D01*
X198971428Y-60333333D01*
X199066666Y-60380952D01*
X199114285Y-60428571D01*
X199161904Y-60523809D01*
X199161904Y-60761904D01*
X199114285Y-60857142D01*
X199066666Y-60904761D01*
X198971428Y-60952380D01*
X198733333Y-60952380D01*
X198638095Y-60904761D01*
X198590476Y-60857142D01*
%TO.C,R14*%
X109857142Y-109952380D02*
X109523809Y-109476190D01*
X109285714Y-109952380D02*
X109285714Y-108952380D01*
X109666666Y-108952380D01*
X109761904Y-109000000D01*
X109809523Y-109047619D01*
X109857142Y-109142857D01*
X109857142Y-109285714D01*
X109809523Y-109380952D01*
X109761904Y-109428571D01*
X109666666Y-109476190D01*
X109285714Y-109476190D01*
X110809523Y-109952380D02*
X110238095Y-109952380D01*
X110523809Y-109952380D02*
X110523809Y-108952380D01*
X110428571Y-109095238D01*
X110333333Y-109190476D01*
X110238095Y-109238095D01*
X111666666Y-109285714D02*
X111666666Y-109952380D01*
X111428571Y-108904761D02*
X111190476Y-109619047D01*
X111809523Y-109619047D01*
%TO.C,C2*%
X134833333Y-86857142D02*
X134785714Y-86904761D01*
X134642857Y-86952380D01*
X134547619Y-86952380D01*
X134404761Y-86904761D01*
X134309523Y-86809523D01*
X134261904Y-86714285D01*
X134214285Y-86523809D01*
X134214285Y-86380952D01*
X134261904Y-86190476D01*
X134309523Y-86095238D01*
X134404761Y-86000000D01*
X134547619Y-85952380D01*
X134642857Y-85952380D01*
X134785714Y-86000000D01*
X134833333Y-86047619D01*
X135214285Y-86047619D02*
X135261904Y-86000000D01*
X135357142Y-85952380D01*
X135595238Y-85952380D01*
X135690476Y-86000000D01*
X135738095Y-86047619D01*
X135785714Y-86142857D01*
X135785714Y-86238095D01*
X135738095Y-86380952D01*
X135166666Y-86952380D01*
X135785714Y-86952380D01*
%TO.C,C3*%
X134771333Y-89357142D02*
X134723714Y-89404761D01*
X134580857Y-89452380D01*
X134485619Y-89452380D01*
X134342761Y-89404761D01*
X134247523Y-89309523D01*
X134199904Y-89214285D01*
X134152285Y-89023809D01*
X134152285Y-88880952D01*
X134199904Y-88690476D01*
X134247523Y-88595238D01*
X134342761Y-88500000D01*
X134485619Y-88452380D01*
X134580857Y-88452380D01*
X134723714Y-88500000D01*
X134771333Y-88547619D01*
X135104666Y-88452380D02*
X135723714Y-88452380D01*
X135390380Y-88833333D01*
X135533238Y-88833333D01*
X135628476Y-88880952D01*
X135676095Y-88928571D01*
X135723714Y-89023809D01*
X135723714Y-89261904D01*
X135676095Y-89357142D01*
X135628476Y-89404761D01*
X135533238Y-89452380D01*
X135247523Y-89452380D01*
X135152285Y-89404761D01*
X135104666Y-89357142D01*
%TO.C,C5*%
X148333333Y-75857142D02*
X148285714Y-75904761D01*
X148142857Y-75952380D01*
X148047619Y-75952380D01*
X147904761Y-75904761D01*
X147809523Y-75809523D01*
X147761904Y-75714285D01*
X147714285Y-75523809D01*
X147714285Y-75380952D01*
X147761904Y-75190476D01*
X147809523Y-75095238D01*
X147904761Y-75000000D01*
X148047619Y-74952380D01*
X148142857Y-74952380D01*
X148285714Y-75000000D01*
X148333333Y-75047619D01*
X149238095Y-74952380D02*
X148761904Y-74952380D01*
X148714285Y-75428571D01*
X148761904Y-75380952D01*
X148857142Y-75333333D01*
X149095238Y-75333333D01*
X149190476Y-75380952D01*
X149238095Y-75428571D01*
X149285714Y-75523809D01*
X149285714Y-75761904D01*
X149238095Y-75857142D01*
X149190476Y-75904761D01*
X149095238Y-75952380D01*
X148857142Y-75952380D01*
X148761904Y-75904761D01*
X148714285Y-75857142D01*
%TO.C,C6*%
X148333333Y-78357142D02*
X148285714Y-78404761D01*
X148142857Y-78452380D01*
X148047619Y-78452380D01*
X147904761Y-78404761D01*
X147809523Y-78309523D01*
X147761904Y-78214285D01*
X147714285Y-78023809D01*
X147714285Y-77880952D01*
X147761904Y-77690476D01*
X147809523Y-77595238D01*
X147904761Y-77500000D01*
X148047619Y-77452380D01*
X148142857Y-77452380D01*
X148285714Y-77500000D01*
X148333333Y-77547619D01*
X149190476Y-77452380D02*
X149000000Y-77452380D01*
X148904761Y-77500000D01*
X148857142Y-77547619D01*
X148761904Y-77690476D01*
X148714285Y-77880952D01*
X148714285Y-78261904D01*
X148761904Y-78357142D01*
X148809523Y-78404761D01*
X148904761Y-78452380D01*
X149095238Y-78452380D01*
X149190476Y-78404761D01*
X149238095Y-78357142D01*
X149285714Y-78261904D01*
X149285714Y-78023809D01*
X149238095Y-77928571D01*
X149190476Y-77880952D01*
X149095238Y-77833333D01*
X148904761Y-77833333D01*
X148809523Y-77880952D01*
X148761904Y-77928571D01*
X148714285Y-78023809D01*
%TO.C,C8*%
X174833333Y-64357142D02*
X174785714Y-64404761D01*
X174642857Y-64452380D01*
X174547619Y-64452380D01*
X174404761Y-64404761D01*
X174309523Y-64309523D01*
X174261904Y-64214285D01*
X174214285Y-64023809D01*
X174214285Y-63880952D01*
X174261904Y-63690476D01*
X174309523Y-63595238D01*
X174404761Y-63500000D01*
X174547619Y-63452380D01*
X174642857Y-63452380D01*
X174785714Y-63500000D01*
X174833333Y-63547619D01*
X175404761Y-63880952D02*
X175309523Y-63833333D01*
X175261904Y-63785714D01*
X175214285Y-63690476D01*
X175214285Y-63642857D01*
X175261904Y-63547619D01*
X175309523Y-63500000D01*
X175404761Y-63452380D01*
X175595238Y-63452380D01*
X175690476Y-63500000D01*
X175738095Y-63547619D01*
X175785714Y-63642857D01*
X175785714Y-63690476D01*
X175738095Y-63785714D01*
X175690476Y-63833333D01*
X175595238Y-63880952D01*
X175404761Y-63880952D01*
X175309523Y-63928571D01*
X175261904Y-63976190D01*
X175214285Y-64071428D01*
X175214285Y-64261904D01*
X175261904Y-64357142D01*
X175309523Y-64404761D01*
X175404761Y-64452380D01*
X175595238Y-64452380D01*
X175690476Y-64404761D01*
X175738095Y-64357142D01*
X175785714Y-64261904D01*
X175785714Y-64071428D01*
X175738095Y-63976190D01*
X175690476Y-63928571D01*
X175595238Y-63880952D01*
%TO.C,C9*%
X170833333Y-64357142D02*
X170785714Y-64404761D01*
X170642857Y-64452380D01*
X170547619Y-64452380D01*
X170404761Y-64404761D01*
X170309523Y-64309523D01*
X170261904Y-64214285D01*
X170214285Y-64023809D01*
X170214285Y-63880952D01*
X170261904Y-63690476D01*
X170309523Y-63595238D01*
X170404761Y-63500000D01*
X170547619Y-63452380D01*
X170642857Y-63452380D01*
X170785714Y-63500000D01*
X170833333Y-63547619D01*
X171309523Y-64452380D02*
X171500000Y-64452380D01*
X171595238Y-64404761D01*
X171642857Y-64357142D01*
X171738095Y-64214285D01*
X171785714Y-64023809D01*
X171785714Y-63642857D01*
X171738095Y-63547619D01*
X171690476Y-63500000D01*
X171595238Y-63452380D01*
X171404761Y-63452380D01*
X171309523Y-63500000D01*
X171261904Y-63547619D01*
X171214285Y-63642857D01*
X171214285Y-63880952D01*
X171261904Y-63976190D01*
X171309523Y-64023809D01*
X171404761Y-64071428D01*
X171595238Y-64071428D01*
X171690476Y-64023809D01*
X171738095Y-63976190D01*
X171785714Y-63880952D01*
%TO.C,C10*%
X166557142Y-52407142D02*
X166509523Y-52454761D01*
X166366666Y-52502380D01*
X166271428Y-52502380D01*
X166128571Y-52454761D01*
X166033333Y-52359523D01*
X165985714Y-52264285D01*
X165938095Y-52073809D01*
X165938095Y-51930952D01*
X165985714Y-51740476D01*
X166033333Y-51645238D01*
X166128571Y-51550000D01*
X166271428Y-51502380D01*
X166366666Y-51502380D01*
X166509523Y-51550000D01*
X166557142Y-51597619D01*
X167509523Y-52502380D02*
X166938095Y-52502380D01*
X167223809Y-52502380D02*
X167223809Y-51502380D01*
X167128571Y-51645238D01*
X167033333Y-51740476D01*
X166938095Y-51788095D01*
X168128571Y-51502380D02*
X168223809Y-51502380D01*
X168319047Y-51550000D01*
X168366666Y-51597619D01*
X168414285Y-51692857D01*
X168461904Y-51883333D01*
X168461904Y-52121428D01*
X168414285Y-52311904D01*
X168366666Y-52407142D01*
X168319047Y-52454761D01*
X168223809Y-52502380D01*
X168128571Y-52502380D01*
X168033333Y-52454761D01*
X167985714Y-52407142D01*
X167938095Y-52311904D01*
X167890476Y-52121428D01*
X167890476Y-51883333D01*
X167938095Y-51692857D01*
X167985714Y-51597619D01*
X168033333Y-51550000D01*
X168128571Y-51502380D01*
%TO.C,C11*%
X151357142Y-66357142D02*
X151309523Y-66404761D01*
X151166666Y-66452380D01*
X151071428Y-66452380D01*
X150928571Y-66404761D01*
X150833333Y-66309523D01*
X150785714Y-66214285D01*
X150738095Y-66023809D01*
X150738095Y-65880952D01*
X150785714Y-65690476D01*
X150833333Y-65595238D01*
X150928571Y-65500000D01*
X151071428Y-65452380D01*
X151166666Y-65452380D01*
X151309523Y-65500000D01*
X151357142Y-65547619D01*
X152309523Y-66452380D02*
X151738095Y-66452380D01*
X152023809Y-66452380D02*
X152023809Y-65452380D01*
X151928571Y-65595238D01*
X151833333Y-65690476D01*
X151738095Y-65738095D01*
X153261904Y-66452380D02*
X152690476Y-66452380D01*
X152976190Y-66452380D02*
X152976190Y-65452380D01*
X152880952Y-65595238D01*
X152785714Y-65690476D01*
X152690476Y-65738095D01*
%TO.C,C12*%
X164757142Y-55157142D02*
X164709523Y-55204761D01*
X164566666Y-55252380D01*
X164471428Y-55252380D01*
X164328571Y-55204761D01*
X164233333Y-55109523D01*
X164185714Y-55014285D01*
X164138095Y-54823809D01*
X164138095Y-54680952D01*
X164185714Y-54490476D01*
X164233333Y-54395238D01*
X164328571Y-54300000D01*
X164471428Y-54252380D01*
X164566666Y-54252380D01*
X164709523Y-54300000D01*
X164757142Y-54347619D01*
X165709523Y-55252380D02*
X165138095Y-55252380D01*
X165423809Y-55252380D02*
X165423809Y-54252380D01*
X165328571Y-54395238D01*
X165233333Y-54490476D01*
X165138095Y-54538095D01*
X166090476Y-54347619D02*
X166138095Y-54300000D01*
X166233333Y-54252380D01*
X166471428Y-54252380D01*
X166566666Y-54300000D01*
X166614285Y-54347619D01*
X166661904Y-54442857D01*
X166661904Y-54538095D01*
X166614285Y-54680952D01*
X166042857Y-55252380D01*
X166661904Y-55252380D01*
%TO.C,C13*%
X151357142Y-64357142D02*
X151309523Y-64404761D01*
X151166666Y-64452380D01*
X151071428Y-64452380D01*
X150928571Y-64404761D01*
X150833333Y-64309523D01*
X150785714Y-64214285D01*
X150738095Y-64023809D01*
X150738095Y-63880952D01*
X150785714Y-63690476D01*
X150833333Y-63595238D01*
X150928571Y-63500000D01*
X151071428Y-63452380D01*
X151166666Y-63452380D01*
X151309523Y-63500000D01*
X151357142Y-63547619D01*
X152309523Y-64452380D02*
X151738095Y-64452380D01*
X152023809Y-64452380D02*
X152023809Y-63452380D01*
X151928571Y-63595238D01*
X151833333Y-63690476D01*
X151738095Y-63738095D01*
X152642857Y-63452380D02*
X153261904Y-63452380D01*
X152928571Y-63833333D01*
X153071428Y-63833333D01*
X153166666Y-63880952D01*
X153214285Y-63928571D01*
X153261904Y-64023809D01*
X153261904Y-64261904D01*
X153214285Y-64357142D01*
X153166666Y-64404761D01*
X153071428Y-64452380D01*
X152785714Y-64452380D01*
X152690476Y-64404761D01*
X152642857Y-64357142D01*
%TO.C,C14*%
X132357142Y-114357142D02*
X132309523Y-114404761D01*
X132166666Y-114452380D01*
X132071428Y-114452380D01*
X131928571Y-114404761D01*
X131833333Y-114309523D01*
X131785714Y-114214285D01*
X131738095Y-114023809D01*
X131738095Y-113880952D01*
X131785714Y-113690476D01*
X131833333Y-113595238D01*
X131928571Y-113500000D01*
X132071428Y-113452380D01*
X132166666Y-113452380D01*
X132309523Y-113500000D01*
X132357142Y-113547619D01*
X133309523Y-114452380D02*
X132738095Y-114452380D01*
X133023809Y-114452380D02*
X133023809Y-113452380D01*
X132928571Y-113595238D01*
X132833333Y-113690476D01*
X132738095Y-113738095D01*
X134166666Y-113785714D02*
X134166666Y-114452380D01*
X133928571Y-113404761D02*
X133690476Y-114119047D01*
X134309523Y-114119047D01*
%TO.C,C15*%
X143357142Y-119357142D02*
X143309523Y-119404761D01*
X143166666Y-119452380D01*
X143071428Y-119452380D01*
X142928571Y-119404761D01*
X142833333Y-119309523D01*
X142785714Y-119214285D01*
X142738095Y-119023809D01*
X142738095Y-118880952D01*
X142785714Y-118690476D01*
X142833333Y-118595238D01*
X142928571Y-118500000D01*
X143071428Y-118452380D01*
X143166666Y-118452380D01*
X143309523Y-118500000D01*
X143357142Y-118547619D01*
X144309523Y-119452380D02*
X143738095Y-119452380D01*
X144023809Y-119452380D02*
X144023809Y-118452380D01*
X143928571Y-118595238D01*
X143833333Y-118690476D01*
X143738095Y-118738095D01*
X145214285Y-118452380D02*
X144738095Y-118452380D01*
X144690476Y-118928571D01*
X144738095Y-118880952D01*
X144833333Y-118833333D01*
X145071428Y-118833333D01*
X145166666Y-118880952D01*
X145214285Y-118928571D01*
X145261904Y-119023809D01*
X145261904Y-119261904D01*
X145214285Y-119357142D01*
X145166666Y-119404761D01*
X145071428Y-119452380D01*
X144833333Y-119452380D01*
X144738095Y-119404761D01*
X144690476Y-119357142D01*
%TO.C,C16*%
X158357142Y-111357142D02*
X158309523Y-111404761D01*
X158166666Y-111452380D01*
X158071428Y-111452380D01*
X157928571Y-111404761D01*
X157833333Y-111309523D01*
X157785714Y-111214285D01*
X157738095Y-111023809D01*
X157738095Y-110880952D01*
X157785714Y-110690476D01*
X157833333Y-110595238D01*
X157928571Y-110500000D01*
X158071428Y-110452380D01*
X158166666Y-110452380D01*
X158309523Y-110500000D01*
X158357142Y-110547619D01*
X159309523Y-111452380D02*
X158738095Y-111452380D01*
X159023809Y-111452380D02*
X159023809Y-110452380D01*
X158928571Y-110595238D01*
X158833333Y-110690476D01*
X158738095Y-110738095D01*
X160166666Y-110452380D02*
X159976190Y-110452380D01*
X159880952Y-110500000D01*
X159833333Y-110547619D01*
X159738095Y-110690476D01*
X159690476Y-110880952D01*
X159690476Y-111261904D01*
X159738095Y-111357142D01*
X159785714Y-111404761D01*
X159880952Y-111452380D01*
X160071428Y-111452380D01*
X160166666Y-111404761D01*
X160214285Y-111357142D01*
X160261904Y-111261904D01*
X160261904Y-111023809D01*
X160214285Y-110928571D01*
X160166666Y-110880952D01*
X160071428Y-110833333D01*
X159880952Y-110833333D01*
X159785714Y-110880952D01*
X159738095Y-110928571D01*
X159690476Y-111023809D01*
%TO.C,C17*%
X144857142Y-111857142D02*
X144809523Y-111904761D01*
X144666666Y-111952380D01*
X144571428Y-111952380D01*
X144428571Y-111904761D01*
X144333333Y-111809523D01*
X144285714Y-111714285D01*
X144238095Y-111523809D01*
X144238095Y-111380952D01*
X144285714Y-111190476D01*
X144333333Y-111095238D01*
X144428571Y-111000000D01*
X144571428Y-110952380D01*
X144666666Y-110952380D01*
X144809523Y-111000000D01*
X144857142Y-111047619D01*
X145809523Y-111952380D02*
X145238095Y-111952380D01*
X145523809Y-111952380D02*
X145523809Y-110952380D01*
X145428571Y-111095238D01*
X145333333Y-111190476D01*
X145238095Y-111238095D01*
X146142857Y-110952380D02*
X146809523Y-110952380D01*
X146380952Y-111952380D01*
%TO.C,D1*%
X117261904Y-103952380D02*
X117261904Y-102952380D01*
X117500000Y-102952380D01*
X117642857Y-103000000D01*
X117738095Y-103095238D01*
X117785714Y-103190476D01*
X117833333Y-103380952D01*
X117833333Y-103523809D01*
X117785714Y-103714285D01*
X117738095Y-103809523D01*
X117642857Y-103904761D01*
X117500000Y-103952380D01*
X117261904Y-103952380D01*
X118785714Y-103952380D02*
X118214285Y-103952380D01*
X118500000Y-103952380D02*
X118500000Y-102952380D01*
X118404761Y-103095238D01*
X118309523Y-103190476D01*
X118214285Y-103238095D01*
%TO.C,D7*%
X108761904Y-106952380D02*
X108761904Y-105952380D01*
X109000000Y-105952380D01*
X109142857Y-106000000D01*
X109238095Y-106095238D01*
X109285714Y-106190476D01*
X109333333Y-106380952D01*
X109333333Y-106523809D01*
X109285714Y-106714285D01*
X109238095Y-106809523D01*
X109142857Y-106904761D01*
X109000000Y-106952380D01*
X108761904Y-106952380D01*
X109666666Y-105952380D02*
X110333333Y-105952380D01*
X109904761Y-106952380D01*
%TO.C,R2*%
X137833333Y-73452380D02*
X137500000Y-72976190D01*
X137261904Y-73452380D02*
X137261904Y-72452380D01*
X137642857Y-72452380D01*
X137738095Y-72500000D01*
X137785714Y-72547619D01*
X137833333Y-72642857D01*
X137833333Y-72785714D01*
X137785714Y-72880952D01*
X137738095Y-72928571D01*
X137642857Y-72976190D01*
X137261904Y-72976190D01*
X138214285Y-72547619D02*
X138261904Y-72500000D01*
X138357142Y-72452380D01*
X138595238Y-72452380D01*
X138690476Y-72500000D01*
X138738095Y-72547619D01*
X138785714Y-72642857D01*
X138785714Y-72738095D01*
X138738095Y-72880952D01*
X138166666Y-73452380D01*
X138785714Y-73452380D01*
%TO.C,R3*%
X116833333Y-100452380D02*
X116500000Y-99976190D01*
X116261904Y-100452380D02*
X116261904Y-99452380D01*
X116642857Y-99452380D01*
X116738095Y-99500000D01*
X116785714Y-99547619D01*
X116833333Y-99642857D01*
X116833333Y-99785714D01*
X116785714Y-99880952D01*
X116738095Y-99928571D01*
X116642857Y-99976190D01*
X116261904Y-99976190D01*
X117166666Y-99452380D02*
X117785714Y-99452380D01*
X117452380Y-99833333D01*
X117595238Y-99833333D01*
X117690476Y-99880952D01*
X117738095Y-99928571D01*
X117785714Y-100023809D01*
X117785714Y-100261904D01*
X117738095Y-100357142D01*
X117690476Y-100404761D01*
X117595238Y-100452380D01*
X117309523Y-100452380D01*
X117214285Y-100404761D01*
X117166666Y-100357142D01*
%TO.C,R4*%
X134833333Y-84102380D02*
X134500000Y-83626190D01*
X134261904Y-84102380D02*
X134261904Y-83102380D01*
X134642857Y-83102380D01*
X134738095Y-83150000D01*
X134785714Y-83197619D01*
X134833333Y-83292857D01*
X134833333Y-83435714D01*
X134785714Y-83530952D01*
X134738095Y-83578571D01*
X134642857Y-83626190D01*
X134261904Y-83626190D01*
X135690476Y-83435714D02*
X135690476Y-84102380D01*
X135452380Y-83054761D02*
X135214285Y-83769047D01*
X135833333Y-83769047D01*
%TO.C,R6*%
X147333333Y-53452380D02*
X147000000Y-52976190D01*
X146761904Y-53452380D02*
X146761904Y-52452380D01*
X147142857Y-52452380D01*
X147238095Y-52500000D01*
X147285714Y-52547619D01*
X147333333Y-52642857D01*
X147333333Y-52785714D01*
X147285714Y-52880952D01*
X147238095Y-52928571D01*
X147142857Y-52976190D01*
X146761904Y-52976190D01*
X148190476Y-52452380D02*
X148000000Y-52452380D01*
X147904761Y-52500000D01*
X147857142Y-52547619D01*
X147761904Y-52690476D01*
X147714285Y-52880952D01*
X147714285Y-53261904D01*
X147761904Y-53357142D01*
X147809523Y-53404761D01*
X147904761Y-53452380D01*
X148095238Y-53452380D01*
X148190476Y-53404761D01*
X148238095Y-53357142D01*
X148285714Y-53261904D01*
X148285714Y-53023809D01*
X148238095Y-52928571D01*
X148190476Y-52880952D01*
X148095238Y-52833333D01*
X147904761Y-52833333D01*
X147809523Y-52880952D01*
X147761904Y-52928571D01*
X147714285Y-53023809D01*
%TO.C,R7*%
X146833333Y-58952380D02*
X146500000Y-58476190D01*
X146261904Y-58952380D02*
X146261904Y-57952380D01*
X146642857Y-57952380D01*
X146738095Y-58000000D01*
X146785714Y-58047619D01*
X146833333Y-58142857D01*
X146833333Y-58285714D01*
X146785714Y-58380952D01*
X146738095Y-58428571D01*
X146642857Y-58476190D01*
X146261904Y-58476190D01*
X147166666Y-57952380D02*
X147833333Y-57952380D01*
X147404761Y-58952380D01*
%TO.C,R8*%
X177271333Y-56802380D02*
X176938000Y-56326190D01*
X176699904Y-56802380D02*
X176699904Y-55802380D01*
X177080857Y-55802380D01*
X177176095Y-55850000D01*
X177223714Y-55897619D01*
X177271333Y-55992857D01*
X177271333Y-56135714D01*
X177223714Y-56230952D01*
X177176095Y-56278571D01*
X177080857Y-56326190D01*
X176699904Y-56326190D01*
X177842761Y-56230952D02*
X177747523Y-56183333D01*
X177699904Y-56135714D01*
X177652285Y-56040476D01*
X177652285Y-55992857D01*
X177699904Y-55897619D01*
X177747523Y-55850000D01*
X177842761Y-55802380D01*
X178033238Y-55802380D01*
X178128476Y-55850000D01*
X178176095Y-55897619D01*
X178223714Y-55992857D01*
X178223714Y-56040476D01*
X178176095Y-56135714D01*
X178128476Y-56183333D01*
X178033238Y-56230952D01*
X177842761Y-56230952D01*
X177747523Y-56278571D01*
X177699904Y-56326190D01*
X177652285Y-56421428D01*
X177652285Y-56611904D01*
X177699904Y-56707142D01*
X177747523Y-56754761D01*
X177842761Y-56802380D01*
X178033238Y-56802380D01*
X178128476Y-56754761D01*
X178176095Y-56707142D01*
X178223714Y-56611904D01*
X178223714Y-56421428D01*
X178176095Y-56326190D01*
X178128476Y-56278571D01*
X178033238Y-56230952D01*
%TO.C,R9*%
X173333333Y-56802380D02*
X173000000Y-56326190D01*
X172761904Y-56802380D02*
X172761904Y-55802380D01*
X173142857Y-55802380D01*
X173238095Y-55850000D01*
X173285714Y-55897619D01*
X173333333Y-55992857D01*
X173333333Y-56135714D01*
X173285714Y-56230952D01*
X173238095Y-56278571D01*
X173142857Y-56326190D01*
X172761904Y-56326190D01*
X173809523Y-56802380D02*
X174000000Y-56802380D01*
X174095238Y-56754761D01*
X174142857Y-56707142D01*
X174238095Y-56564285D01*
X174285714Y-56373809D01*
X174285714Y-55992857D01*
X174238095Y-55897619D01*
X174190476Y-55850000D01*
X174095238Y-55802380D01*
X173904761Y-55802380D01*
X173809523Y-55850000D01*
X173761904Y-55897619D01*
X173714285Y-55992857D01*
X173714285Y-56230952D01*
X173761904Y-56326190D01*
X173809523Y-56373809D01*
X173904761Y-56421428D01*
X174095238Y-56421428D01*
X174190476Y-56373809D01*
X174238095Y-56326190D01*
X174285714Y-56230952D01*
%TO.C,R10*%
X159207142Y-70002380D02*
X158873809Y-69526190D01*
X158635714Y-70002380D02*
X158635714Y-69002380D01*
X159016666Y-69002380D01*
X159111904Y-69050000D01*
X159159523Y-69097619D01*
X159207142Y-69192857D01*
X159207142Y-69335714D01*
X159159523Y-69430952D01*
X159111904Y-69478571D01*
X159016666Y-69526190D01*
X158635714Y-69526190D01*
X160159523Y-70002380D02*
X159588095Y-70002380D01*
X159873809Y-70002380D02*
X159873809Y-69002380D01*
X159778571Y-69145238D01*
X159683333Y-69240476D01*
X159588095Y-69288095D01*
X160778571Y-69002380D02*
X160873809Y-69002380D01*
X160969047Y-69050000D01*
X161016666Y-69097619D01*
X161064285Y-69192857D01*
X161111904Y-69383333D01*
X161111904Y-69621428D01*
X161064285Y-69811904D01*
X161016666Y-69907142D01*
X160969047Y-69954761D01*
X160873809Y-70002380D01*
X160778571Y-70002380D01*
X160683333Y-69954761D01*
X160635714Y-69907142D01*
X160588095Y-69811904D01*
X160540476Y-69621428D01*
X160540476Y-69383333D01*
X160588095Y-69192857D01*
X160635714Y-69097619D01*
X160683333Y-69050000D01*
X160778571Y-69002380D01*
%TO.C,R12*%
X147857142Y-86602380D02*
X147523809Y-86126190D01*
X147285714Y-86602380D02*
X147285714Y-85602380D01*
X147666666Y-85602380D01*
X147761904Y-85650000D01*
X147809523Y-85697619D01*
X147857142Y-85792857D01*
X147857142Y-85935714D01*
X147809523Y-86030952D01*
X147761904Y-86078571D01*
X147666666Y-86126190D01*
X147285714Y-86126190D01*
X148809523Y-86602380D02*
X148238095Y-86602380D01*
X148523809Y-86602380D02*
X148523809Y-85602380D01*
X148428571Y-85745238D01*
X148333333Y-85840476D01*
X148238095Y-85888095D01*
X149190476Y-85697619D02*
X149238095Y-85650000D01*
X149333333Y-85602380D01*
X149571428Y-85602380D01*
X149666666Y-85650000D01*
X149714285Y-85697619D01*
X149761904Y-85792857D01*
X149761904Y-85888095D01*
X149714285Y-86030952D01*
X149142857Y-86602380D01*
X149761904Y-86602380D01*
%TO.C,R13*%
X147357142Y-63452380D02*
X147023809Y-62976190D01*
X146785714Y-63452380D02*
X146785714Y-62452380D01*
X147166666Y-62452380D01*
X147261904Y-62500000D01*
X147309523Y-62547619D01*
X147357142Y-62642857D01*
X147357142Y-62785714D01*
X147309523Y-62880952D01*
X147261904Y-62928571D01*
X147166666Y-62976190D01*
X146785714Y-62976190D01*
X148309523Y-63452380D02*
X147738095Y-63452380D01*
X148023809Y-63452380D02*
X148023809Y-62452380D01*
X147928571Y-62595238D01*
X147833333Y-62690476D01*
X147738095Y-62738095D01*
X148642857Y-62452380D02*
X149261904Y-62452380D01*
X148928571Y-62833333D01*
X149071428Y-62833333D01*
X149166666Y-62880952D01*
X149214285Y-62928571D01*
X149261904Y-63023809D01*
X149261904Y-63261904D01*
X149214285Y-63357142D01*
X149166666Y-63404761D01*
X149071428Y-63452380D01*
X148785714Y-63452380D01*
X148690476Y-63404761D01*
X148642857Y-63357142D01*
%TO.C,R20*%
X190357142Y-57752380D02*
X190023809Y-57276190D01*
X189785714Y-57752380D02*
X189785714Y-56752380D01*
X190166666Y-56752380D01*
X190261904Y-56800000D01*
X190309523Y-56847619D01*
X190357142Y-56942857D01*
X190357142Y-57085714D01*
X190309523Y-57180952D01*
X190261904Y-57228571D01*
X190166666Y-57276190D01*
X189785714Y-57276190D01*
X190738095Y-56847619D02*
X190785714Y-56800000D01*
X190880952Y-56752380D01*
X191119047Y-56752380D01*
X191214285Y-56800000D01*
X191261904Y-56847619D01*
X191309523Y-56942857D01*
X191309523Y-57038095D01*
X191261904Y-57180952D01*
X190690476Y-57752380D01*
X191309523Y-57752380D01*
X191928571Y-56752380D02*
X192023809Y-56752380D01*
X192119047Y-56800000D01*
X192166666Y-56847619D01*
X192214285Y-56942857D01*
X192261904Y-57133333D01*
X192261904Y-57371428D01*
X192214285Y-57561904D01*
X192166666Y-57657142D01*
X192119047Y-57704761D01*
X192023809Y-57752380D01*
X191928571Y-57752380D01*
X191833333Y-57704761D01*
X191785714Y-57657142D01*
X191738095Y-57561904D01*
X191690476Y-57371428D01*
X191690476Y-57133333D01*
X191738095Y-56942857D01*
X191785714Y-56847619D01*
X191833333Y-56800000D01*
X191928571Y-56752380D01*
%TO.C,R22*%
X141357142Y-57952380D02*
X141023809Y-57476190D01*
X140785714Y-57952380D02*
X140785714Y-56952380D01*
X141166666Y-56952380D01*
X141261904Y-57000000D01*
X141309523Y-57047619D01*
X141357142Y-57142857D01*
X141357142Y-57285714D01*
X141309523Y-57380952D01*
X141261904Y-57428571D01*
X141166666Y-57476190D01*
X140785714Y-57476190D01*
X141738095Y-57047619D02*
X141785714Y-57000000D01*
X141880952Y-56952380D01*
X142119047Y-56952380D01*
X142214285Y-57000000D01*
X142261904Y-57047619D01*
X142309523Y-57142857D01*
X142309523Y-57238095D01*
X142261904Y-57380952D01*
X141690476Y-57952380D01*
X142309523Y-57952380D01*
X142690476Y-57047619D02*
X142738095Y-57000000D01*
X142833333Y-56952380D01*
X143071428Y-56952380D01*
X143166666Y-57000000D01*
X143214285Y-57047619D01*
X143261904Y-57142857D01*
X143261904Y-57238095D01*
X143214285Y-57380952D01*
X142642857Y-57952380D01*
X143261904Y-57952380D01*
%TO.C,R23*%
X166357142Y-64952380D02*
X166023809Y-64476190D01*
X165785714Y-64952380D02*
X165785714Y-63952380D01*
X166166666Y-63952380D01*
X166261904Y-64000000D01*
X166309523Y-64047619D01*
X166357142Y-64142857D01*
X166357142Y-64285714D01*
X166309523Y-64380952D01*
X166261904Y-64428571D01*
X166166666Y-64476190D01*
X165785714Y-64476190D01*
X166738095Y-64047619D02*
X166785714Y-64000000D01*
X166880952Y-63952380D01*
X167119047Y-63952380D01*
X167214285Y-64000000D01*
X167261904Y-64047619D01*
X167309523Y-64142857D01*
X167309523Y-64238095D01*
X167261904Y-64380952D01*
X166690476Y-64952380D01*
X167309523Y-64952380D01*
X167642857Y-63952380D02*
X168261904Y-63952380D01*
X167928571Y-64333333D01*
X168071428Y-64333333D01*
X168166666Y-64380952D01*
X168214285Y-64428571D01*
X168261904Y-64523809D01*
X168261904Y-64761904D01*
X168214285Y-64857142D01*
X168166666Y-64904761D01*
X168071428Y-64952380D01*
X167785714Y-64952380D01*
X167690476Y-64904761D01*
X167642857Y-64857142D01*
%TO.C,R24*%
X161857142Y-65952380D02*
X161523809Y-65476190D01*
X161285714Y-65952380D02*
X161285714Y-64952380D01*
X161666666Y-64952380D01*
X161761904Y-65000000D01*
X161809523Y-65047619D01*
X161857142Y-65142857D01*
X161857142Y-65285714D01*
X161809523Y-65380952D01*
X161761904Y-65428571D01*
X161666666Y-65476190D01*
X161285714Y-65476190D01*
X162238095Y-65047619D02*
X162285714Y-65000000D01*
X162380952Y-64952380D01*
X162619047Y-64952380D01*
X162714285Y-65000000D01*
X162761904Y-65047619D01*
X162809523Y-65142857D01*
X162809523Y-65238095D01*
X162761904Y-65380952D01*
X162190476Y-65952380D01*
X162809523Y-65952380D01*
X163666666Y-65285714D02*
X163666666Y-65952380D01*
X163428571Y-64904761D02*
X163190476Y-65619047D01*
X163809523Y-65619047D01*
%TO.C,R25*%
X167857142Y-60452380D02*
X167523809Y-59976190D01*
X167285714Y-60452380D02*
X167285714Y-59452380D01*
X167666666Y-59452380D01*
X167761904Y-59500000D01*
X167809523Y-59547619D01*
X167857142Y-59642857D01*
X167857142Y-59785714D01*
X167809523Y-59880952D01*
X167761904Y-59928571D01*
X167666666Y-59976190D01*
X167285714Y-59976190D01*
X168238095Y-59547619D02*
X168285714Y-59500000D01*
X168380952Y-59452380D01*
X168619047Y-59452380D01*
X168714285Y-59500000D01*
X168761904Y-59547619D01*
X168809523Y-59642857D01*
X168809523Y-59738095D01*
X168761904Y-59880952D01*
X168190476Y-60452380D01*
X168809523Y-60452380D01*
X169714285Y-59452380D02*
X169238095Y-59452380D01*
X169190476Y-59928571D01*
X169238095Y-59880952D01*
X169333333Y-59833333D01*
X169571428Y-59833333D01*
X169666666Y-59880952D01*
X169714285Y-59928571D01*
X169761904Y-60023809D01*
X169761904Y-60261904D01*
X169714285Y-60357142D01*
X169666666Y-60404761D01*
X169571428Y-60452380D01*
X169333333Y-60452380D01*
X169238095Y-60404761D01*
X169190476Y-60357142D01*
%TO.C,R10_POT1*%
X149452380Y-73404761D02*
X148976190Y-73738095D01*
X149452380Y-73976190D02*
X148452380Y-73976190D01*
X148452380Y-73595238D01*
X148500000Y-73500000D01*
X148547619Y-73452380D01*
X148642857Y-73404761D01*
X148785714Y-73404761D01*
X148880952Y-73452380D01*
X148928571Y-73500000D01*
X148976190Y-73595238D01*
X148976190Y-73976190D01*
X149452380Y-72452380D02*
X149452380Y-73023809D01*
X149452380Y-72738095D02*
X148452380Y-72738095D01*
X148595238Y-72833333D01*
X148690476Y-72928571D01*
X148738095Y-73023809D01*
X148452380Y-71833333D02*
X148452380Y-71738095D01*
X148500000Y-71642857D01*
X148547619Y-71595238D01*
X148642857Y-71547619D01*
X148833333Y-71500000D01*
X149071428Y-71500000D01*
X149261904Y-71547619D01*
X149357142Y-71595238D01*
X149404761Y-71642857D01*
X149452380Y-71738095D01*
X149452380Y-71833333D01*
X149404761Y-71928571D01*
X149357142Y-71976190D01*
X149261904Y-72023809D01*
X149071428Y-72071428D01*
X148833333Y-72071428D01*
X148642857Y-72023809D01*
X148547619Y-71976190D01*
X148500000Y-71928571D01*
X148452380Y-71833333D01*
X149547619Y-71309523D02*
X149547619Y-70547619D01*
X149452380Y-70309523D02*
X148452380Y-70309523D01*
X148452380Y-69928571D01*
X148500000Y-69833333D01*
X148547619Y-69785714D01*
X148642857Y-69738095D01*
X148785714Y-69738095D01*
X148880952Y-69785714D01*
X148928571Y-69833333D01*
X148976190Y-69928571D01*
X148976190Y-70309523D01*
X148452380Y-69119047D02*
X148452380Y-68928571D01*
X148500000Y-68833333D01*
X148595238Y-68738095D01*
X148785714Y-68690476D01*
X149119047Y-68690476D01*
X149309523Y-68738095D01*
X149404761Y-68833333D01*
X149452380Y-68928571D01*
X149452380Y-69119047D01*
X149404761Y-69214285D01*
X149309523Y-69309523D01*
X149119047Y-69357142D01*
X148785714Y-69357142D01*
X148595238Y-69309523D01*
X148500000Y-69214285D01*
X148452380Y-69119047D01*
X148452380Y-68404761D02*
X148452380Y-67833333D01*
X149452380Y-68119047D02*
X148452380Y-68119047D01*
X149452380Y-66976190D02*
X149452380Y-67547619D01*
X149452380Y-67261904D02*
X148452380Y-67261904D01*
X148595238Y-67357142D01*
X148690476Y-67452380D01*
X148738095Y-67547619D01*
%TO.C,R2_POT1*%
X131071428Y-67952380D02*
X130738095Y-67476190D01*
X130500000Y-67952380D02*
X130500000Y-66952380D01*
X130880952Y-66952380D01*
X130976190Y-67000000D01*
X131023809Y-67047619D01*
X131071428Y-67142857D01*
X131071428Y-67285714D01*
X131023809Y-67380952D01*
X130976190Y-67428571D01*
X130880952Y-67476190D01*
X130500000Y-67476190D01*
X131452380Y-67047619D02*
X131500000Y-67000000D01*
X131595238Y-66952380D01*
X131833333Y-66952380D01*
X131928571Y-67000000D01*
X131976190Y-67047619D01*
X132023809Y-67142857D01*
X132023809Y-67238095D01*
X131976190Y-67380952D01*
X131404761Y-67952380D01*
X132023809Y-67952380D01*
X132214285Y-68047619D02*
X132976190Y-68047619D01*
X133214285Y-67952380D02*
X133214285Y-66952380D01*
X133595238Y-66952380D01*
X133690476Y-67000000D01*
X133738095Y-67047619D01*
X133785714Y-67142857D01*
X133785714Y-67285714D01*
X133738095Y-67380952D01*
X133690476Y-67428571D01*
X133595238Y-67476190D01*
X133214285Y-67476190D01*
X134404761Y-66952380D02*
X134595238Y-66952380D01*
X134690476Y-67000000D01*
X134785714Y-67095238D01*
X134833333Y-67285714D01*
X134833333Y-67619047D01*
X134785714Y-67809523D01*
X134690476Y-67904761D01*
X134595238Y-67952380D01*
X134404761Y-67952380D01*
X134309523Y-67904761D01*
X134214285Y-67809523D01*
X134166666Y-67619047D01*
X134166666Y-67285714D01*
X134214285Y-67095238D01*
X134309523Y-67000000D01*
X134404761Y-66952380D01*
X135119047Y-66952380D02*
X135690476Y-66952380D01*
X135404761Y-67952380D02*
X135404761Y-66952380D01*
X136547619Y-67952380D02*
X135976190Y-67952380D01*
X136261904Y-67952380D02*
X136261904Y-66952380D01*
X136166666Y-67095238D01*
X136071428Y-67190476D01*
X135976190Y-67238095D01*
%TO.C,U5*%
X137249642Y-104814590D02*
X137249642Y-106143095D01*
X137327790Y-106299390D01*
X137405937Y-106377537D01*
X137562232Y-106455684D01*
X137874821Y-106455684D01*
X138031116Y-106377537D01*
X138109263Y-106299390D01*
X138187410Y-106143095D01*
X138187410Y-104814590D01*
X139750357Y-104814590D02*
X138968884Y-104814590D01*
X138890736Y-105596064D01*
X138968884Y-105517916D01*
X139125178Y-105439769D01*
X139515915Y-105439769D01*
X139672210Y-105517916D01*
X139750357Y-105596064D01*
X139828504Y-105752358D01*
X139828504Y-106143095D01*
X139750357Y-106299390D01*
X139672210Y-106377537D01*
X139515915Y-106455684D01*
X139125178Y-106455684D01*
X138968884Y-106377537D01*
X138890736Y-106299390D01*
%TO.C,U6*%
X153533095Y-118284380D02*
X153533095Y-119093904D01*
X153580714Y-119189142D01*
X153628333Y-119236761D01*
X153723571Y-119284380D01*
X153914047Y-119284380D01*
X154009285Y-119236761D01*
X154056904Y-119189142D01*
X154104523Y-119093904D01*
X154104523Y-118284380D01*
X155009285Y-118284380D02*
X154818809Y-118284380D01*
X154723571Y-118332000D01*
X154675952Y-118379619D01*
X154580714Y-118522476D01*
X154533095Y-118712952D01*
X154533095Y-119093904D01*
X154580714Y-119189142D01*
X154628333Y-119236761D01*
X154723571Y-119284380D01*
X154914047Y-119284380D01*
X155009285Y-119236761D01*
X155056904Y-119189142D01*
X155104523Y-119093904D01*
X155104523Y-118855809D01*
X155056904Y-118760571D01*
X155009285Y-118712952D01*
X154914047Y-118665333D01*
X154723571Y-118665333D01*
X154628333Y-118712952D01*
X154580714Y-118760571D01*
X154533095Y-118855809D01*
%TO.C,SB1*%
X126238095Y-61904761D02*
X126380952Y-61952380D01*
X126619047Y-61952380D01*
X126714285Y-61904761D01*
X126761904Y-61857142D01*
X126809523Y-61761904D01*
X126809523Y-61666666D01*
X126761904Y-61571428D01*
X126714285Y-61523809D01*
X126619047Y-61476190D01*
X126428571Y-61428571D01*
X126333333Y-61380952D01*
X126285714Y-61333333D01*
X126238095Y-61238095D01*
X126238095Y-61142857D01*
X126285714Y-61047619D01*
X126333333Y-61000000D01*
X126428571Y-60952380D01*
X126666666Y-60952380D01*
X126809523Y-61000000D01*
X127571428Y-61428571D02*
X127714285Y-61476190D01*
X127761904Y-61523809D01*
X127809523Y-61619047D01*
X127809523Y-61761904D01*
X127761904Y-61857142D01*
X127714285Y-61904761D01*
X127619047Y-61952380D01*
X127238095Y-61952380D01*
X127238095Y-60952380D01*
X127571428Y-60952380D01*
X127666666Y-61000000D01*
X127714285Y-61047619D01*
X127761904Y-61142857D01*
X127761904Y-61238095D01*
X127714285Y-61333333D01*
X127666666Y-61380952D01*
X127571428Y-61428571D01*
X127238095Y-61428571D01*
X128761904Y-61952380D02*
X128190476Y-61952380D01*
X128476190Y-61952380D02*
X128476190Y-60952380D01*
X128380952Y-61095238D01*
X128285714Y-61190476D01*
X128190476Y-61238095D01*
%TO.C,TPP2*%
X130238095Y-103054380D02*
X130809523Y-103054380D01*
X130523809Y-104054380D02*
X130523809Y-103054380D01*
X131142857Y-104054380D02*
X131142857Y-103054380D01*
X131523809Y-103054380D01*
X131619047Y-103102000D01*
X131666666Y-103149619D01*
X131714285Y-103244857D01*
X131714285Y-103387714D01*
X131666666Y-103482952D01*
X131619047Y-103530571D01*
X131523809Y-103578190D01*
X131142857Y-103578190D01*
X132142857Y-104054380D02*
X132142857Y-103054380D01*
X132523809Y-103054380D01*
X132619047Y-103102000D01*
X132666666Y-103149619D01*
X132714285Y-103244857D01*
X132714285Y-103387714D01*
X132666666Y-103482952D01*
X132619047Y-103530571D01*
X132523809Y-103578190D01*
X132142857Y-103578190D01*
X133095238Y-103149619D02*
X133142857Y-103102000D01*
X133238095Y-103054380D01*
X133476190Y-103054380D01*
X133571428Y-103102000D01*
X133619047Y-103149619D01*
X133666666Y-103244857D01*
X133666666Y-103340095D01*
X133619047Y-103482952D01*
X133047619Y-104054380D01*
X133666666Y-104054380D01*
%TO.C,TPP4*%
X141738095Y-98054380D02*
X142309523Y-98054380D01*
X142023809Y-99054380D02*
X142023809Y-98054380D01*
X142642857Y-99054380D02*
X142642857Y-98054380D01*
X143023809Y-98054380D01*
X143119047Y-98102000D01*
X143166666Y-98149619D01*
X143214285Y-98244857D01*
X143214285Y-98387714D01*
X143166666Y-98482952D01*
X143119047Y-98530571D01*
X143023809Y-98578190D01*
X142642857Y-98578190D01*
X143642857Y-99054380D02*
X143642857Y-98054380D01*
X144023809Y-98054380D01*
X144119047Y-98102000D01*
X144166666Y-98149619D01*
X144214285Y-98244857D01*
X144214285Y-98387714D01*
X144166666Y-98482952D01*
X144119047Y-98530571D01*
X144023809Y-98578190D01*
X143642857Y-98578190D01*
X145071428Y-98387714D02*
X145071428Y-99054380D01*
X144833333Y-98006761D02*
X144595238Y-98721047D01*
X145214285Y-98721047D01*
%TO.C,C18*%
X112857142Y-51857142D02*
X112809523Y-51904761D01*
X112666666Y-51952380D01*
X112571428Y-51952380D01*
X112428571Y-51904761D01*
X112333333Y-51809523D01*
X112285714Y-51714285D01*
X112238095Y-51523809D01*
X112238095Y-51380952D01*
X112285714Y-51190476D01*
X112333333Y-51095238D01*
X112428571Y-51000000D01*
X112571428Y-50952380D01*
X112666666Y-50952380D01*
X112809523Y-51000000D01*
X112857142Y-51047619D01*
X113809523Y-51952380D02*
X113238095Y-51952380D01*
X113523809Y-51952380D02*
X113523809Y-50952380D01*
X113428571Y-51095238D01*
X113333333Y-51190476D01*
X113238095Y-51238095D01*
X114380952Y-51380952D02*
X114285714Y-51333333D01*
X114238095Y-51285714D01*
X114190476Y-51190476D01*
X114190476Y-51142857D01*
X114238095Y-51047619D01*
X114285714Y-51000000D01*
X114380952Y-50952380D01*
X114571428Y-50952380D01*
X114666666Y-51000000D01*
X114714285Y-51047619D01*
X114761904Y-51142857D01*
X114761904Y-51190476D01*
X114714285Y-51285714D01*
X114666666Y-51333333D01*
X114571428Y-51380952D01*
X114380952Y-51380952D01*
X114285714Y-51428571D01*
X114238095Y-51476190D01*
X114190476Y-51571428D01*
X114190476Y-51761904D01*
X114238095Y-51857142D01*
X114285714Y-51904761D01*
X114380952Y-51952380D01*
X114571428Y-51952380D01*
X114666666Y-51904761D01*
X114714285Y-51857142D01*
X114761904Y-51761904D01*
X114761904Y-51571428D01*
X114714285Y-51476190D01*
X114666666Y-51428571D01*
X114571428Y-51380952D01*
%TO.C,C20*%
X176857142Y-85357142D02*
X176809523Y-85404761D01*
X176666666Y-85452380D01*
X176571428Y-85452380D01*
X176428571Y-85404761D01*
X176333333Y-85309523D01*
X176285714Y-85214285D01*
X176238095Y-85023809D01*
X176238095Y-84880952D01*
X176285714Y-84690476D01*
X176333333Y-84595238D01*
X176428571Y-84500000D01*
X176571428Y-84452380D01*
X176666666Y-84452380D01*
X176809523Y-84500000D01*
X176857142Y-84547619D01*
X177238095Y-84547619D02*
X177285714Y-84500000D01*
X177380952Y-84452380D01*
X177619047Y-84452380D01*
X177714285Y-84500000D01*
X177761904Y-84547619D01*
X177809523Y-84642857D01*
X177809523Y-84738095D01*
X177761904Y-84880952D01*
X177190476Y-85452380D01*
X177809523Y-85452380D01*
X178428571Y-84452380D02*
X178523809Y-84452380D01*
X178619047Y-84500000D01*
X178666666Y-84547619D01*
X178714285Y-84642857D01*
X178761904Y-84833333D01*
X178761904Y-85071428D01*
X178714285Y-85261904D01*
X178666666Y-85357142D01*
X178619047Y-85404761D01*
X178523809Y-85452380D01*
X178428571Y-85452380D01*
X178333333Y-85404761D01*
X178285714Y-85357142D01*
X178238095Y-85261904D01*
X178190476Y-85071428D01*
X178190476Y-84833333D01*
X178238095Y-84642857D01*
X178285714Y-84547619D01*
X178333333Y-84500000D01*
X178428571Y-84452380D01*
%TO.C,C21*%
X181857142Y-83142857D02*
X181904761Y-83190476D01*
X181952380Y-83333333D01*
X181952380Y-83428571D01*
X181904761Y-83571428D01*
X181809523Y-83666666D01*
X181714285Y-83714285D01*
X181523809Y-83761904D01*
X181380952Y-83761904D01*
X181190476Y-83714285D01*
X181095238Y-83666666D01*
X181000000Y-83571428D01*
X180952380Y-83428571D01*
X180952380Y-83333333D01*
X181000000Y-83190476D01*
X181047619Y-83142857D01*
X181047619Y-82761904D02*
X181000000Y-82714285D01*
X180952380Y-82619047D01*
X180952380Y-82380952D01*
X181000000Y-82285714D01*
X181047619Y-82238095D01*
X181142857Y-82190476D01*
X181238095Y-82190476D01*
X181380952Y-82238095D01*
X181952380Y-82809523D01*
X181952380Y-82190476D01*
X181952380Y-81238095D02*
X181952380Y-81809523D01*
X181952380Y-81523809D02*
X180952380Y-81523809D01*
X181095238Y-81619047D01*
X181190476Y-81714285D01*
X181238095Y-81809523D01*
%TO.C,POT1*%
X149857142Y-87952380D02*
X149857142Y-86952380D01*
X150238095Y-86952380D01*
X150333333Y-87000000D01*
X150380952Y-87047619D01*
X150428571Y-87142857D01*
X150428571Y-87285714D01*
X150380952Y-87380952D01*
X150333333Y-87428571D01*
X150238095Y-87476190D01*
X149857142Y-87476190D01*
X151047619Y-86952380D02*
X151238095Y-86952380D01*
X151333333Y-87000000D01*
X151428571Y-87095238D01*
X151476190Y-87285714D01*
X151476190Y-87619047D01*
X151428571Y-87809523D01*
X151333333Y-87904761D01*
X151238095Y-87952380D01*
X151047619Y-87952380D01*
X150952380Y-87904761D01*
X150857142Y-87809523D01*
X150809523Y-87619047D01*
X150809523Y-87285714D01*
X150857142Y-87095238D01*
X150952380Y-87000000D01*
X151047619Y-86952380D01*
X151761904Y-86952380D02*
X152333333Y-86952380D01*
X152047619Y-87952380D02*
X152047619Y-86952380D01*
X153190476Y-87952380D02*
X152619047Y-87952380D01*
X152904761Y-87952380D02*
X152904761Y-86952380D01*
X152809523Y-87095238D01*
X152714285Y-87190476D01*
X152619047Y-87238095D01*
%TO.C,R11*%
X111857142Y-59452380D02*
X111523809Y-58976190D01*
X111285714Y-59452380D02*
X111285714Y-58452380D01*
X111666666Y-58452380D01*
X111761904Y-58500000D01*
X111809523Y-58547619D01*
X111857142Y-58642857D01*
X111857142Y-58785714D01*
X111809523Y-58880952D01*
X111761904Y-58928571D01*
X111666666Y-58976190D01*
X111285714Y-58976190D01*
X112809523Y-59452380D02*
X112238095Y-59452380D01*
X112523809Y-59452380D02*
X112523809Y-58452380D01*
X112428571Y-58595238D01*
X112333333Y-58690476D01*
X112238095Y-58738095D01*
X113761904Y-59452380D02*
X113190476Y-59452380D01*
X113476190Y-59452380D02*
X113476190Y-58452380D01*
X113380952Y-58595238D01*
X113285714Y-58690476D01*
X113190476Y-58738095D01*
%TO.C,R16*%
X157857142Y-77802380D02*
X157523809Y-77326190D01*
X157285714Y-77802380D02*
X157285714Y-76802380D01*
X157666666Y-76802380D01*
X157761904Y-76850000D01*
X157809523Y-76897619D01*
X157857142Y-76992857D01*
X157857142Y-77135714D01*
X157809523Y-77230952D01*
X157761904Y-77278571D01*
X157666666Y-77326190D01*
X157285714Y-77326190D01*
X158809523Y-77802380D02*
X158238095Y-77802380D01*
X158523809Y-77802380D02*
X158523809Y-76802380D01*
X158428571Y-76945238D01*
X158333333Y-77040476D01*
X158238095Y-77088095D01*
X159666666Y-76802380D02*
X159476190Y-76802380D01*
X159380952Y-76850000D01*
X159333333Y-76897619D01*
X159238095Y-77040476D01*
X159190476Y-77230952D01*
X159190476Y-77611904D01*
X159238095Y-77707142D01*
X159285714Y-77754761D01*
X159380952Y-77802380D01*
X159571428Y-77802380D01*
X159666666Y-77754761D01*
X159714285Y-77707142D01*
X159761904Y-77611904D01*
X159761904Y-77373809D01*
X159714285Y-77278571D01*
X159666666Y-77230952D01*
X159571428Y-77183333D01*
X159380952Y-77183333D01*
X159285714Y-77230952D01*
X159238095Y-77278571D01*
X159190476Y-77373809D01*
%TO.C,R26*%
X157857142Y-84452380D02*
X157523809Y-83976190D01*
X157285714Y-84452380D02*
X157285714Y-83452380D01*
X157666666Y-83452380D01*
X157761904Y-83500000D01*
X157809523Y-83547619D01*
X157857142Y-83642857D01*
X157857142Y-83785714D01*
X157809523Y-83880952D01*
X157761904Y-83928571D01*
X157666666Y-83976190D01*
X157285714Y-83976190D01*
X158238095Y-83547619D02*
X158285714Y-83500000D01*
X158380952Y-83452380D01*
X158619047Y-83452380D01*
X158714285Y-83500000D01*
X158761904Y-83547619D01*
X158809523Y-83642857D01*
X158809523Y-83738095D01*
X158761904Y-83880952D01*
X158190476Y-84452380D01*
X158809523Y-84452380D01*
X159666666Y-83452380D02*
X159476190Y-83452380D01*
X159380952Y-83500000D01*
X159333333Y-83547619D01*
X159238095Y-83690476D01*
X159190476Y-83880952D01*
X159190476Y-84261904D01*
X159238095Y-84357142D01*
X159285714Y-84404761D01*
X159380952Y-84452380D01*
X159571428Y-84452380D01*
X159666666Y-84404761D01*
X159714285Y-84357142D01*
X159761904Y-84261904D01*
X159761904Y-84023809D01*
X159714285Y-83928571D01*
X159666666Y-83880952D01*
X159571428Y-83833333D01*
X159380952Y-83833333D01*
X159285714Y-83880952D01*
X159238095Y-83928571D01*
X159190476Y-84023809D01*
%TO.C,R27*%
X154857142Y-75452380D02*
X154523809Y-74976190D01*
X154285714Y-75452380D02*
X154285714Y-74452380D01*
X154666666Y-74452380D01*
X154761904Y-74500000D01*
X154809523Y-74547619D01*
X154857142Y-74642857D01*
X154857142Y-74785714D01*
X154809523Y-74880952D01*
X154761904Y-74928571D01*
X154666666Y-74976190D01*
X154285714Y-74976190D01*
X155238095Y-74547619D02*
X155285714Y-74500000D01*
X155380952Y-74452380D01*
X155619047Y-74452380D01*
X155714285Y-74500000D01*
X155761904Y-74547619D01*
X155809523Y-74642857D01*
X155809523Y-74738095D01*
X155761904Y-74880952D01*
X155190476Y-75452380D01*
X155809523Y-75452380D01*
X156142857Y-74452380D02*
X156809523Y-74452380D01*
X156380952Y-75452380D01*
%TO.C,R28*%
X153857142Y-79952380D02*
X153523809Y-79476190D01*
X153285714Y-79952380D02*
X153285714Y-78952380D01*
X153666666Y-78952380D01*
X153761904Y-79000000D01*
X153809523Y-79047619D01*
X153857142Y-79142857D01*
X153857142Y-79285714D01*
X153809523Y-79380952D01*
X153761904Y-79428571D01*
X153666666Y-79476190D01*
X153285714Y-79476190D01*
X154238095Y-79047619D02*
X154285714Y-79000000D01*
X154380952Y-78952380D01*
X154619047Y-78952380D01*
X154714285Y-79000000D01*
X154761904Y-79047619D01*
X154809523Y-79142857D01*
X154809523Y-79238095D01*
X154761904Y-79380952D01*
X154190476Y-79952380D01*
X154809523Y-79952380D01*
X155380952Y-79380952D02*
X155285714Y-79333333D01*
X155238095Y-79285714D01*
X155190476Y-79190476D01*
X155190476Y-79142857D01*
X155238095Y-79047619D01*
X155285714Y-79000000D01*
X155380952Y-78952380D01*
X155571428Y-78952380D01*
X155666666Y-79000000D01*
X155714285Y-79047619D01*
X155761904Y-79142857D01*
X155761904Y-79190476D01*
X155714285Y-79285714D01*
X155666666Y-79333333D01*
X155571428Y-79380952D01*
X155380952Y-79380952D01*
X155285714Y-79428571D01*
X155238095Y-79476190D01*
X155190476Y-79571428D01*
X155190476Y-79761904D01*
X155238095Y-79857142D01*
X155285714Y-79904761D01*
X155380952Y-79952380D01*
X155571428Y-79952380D01*
X155666666Y-79904761D01*
X155714285Y-79857142D01*
X155761904Y-79761904D01*
X155761904Y-79571428D01*
X155714285Y-79476190D01*
X155666666Y-79428571D01*
X155571428Y-79380952D01*
%TO.C,R29*%
X173357142Y-85452380D02*
X173023809Y-84976190D01*
X172785714Y-85452380D02*
X172785714Y-84452380D01*
X173166666Y-84452380D01*
X173261904Y-84500000D01*
X173309523Y-84547619D01*
X173357142Y-84642857D01*
X173357142Y-84785714D01*
X173309523Y-84880952D01*
X173261904Y-84928571D01*
X173166666Y-84976190D01*
X172785714Y-84976190D01*
X173738095Y-84547619D02*
X173785714Y-84500000D01*
X173880952Y-84452380D01*
X174119047Y-84452380D01*
X174214285Y-84500000D01*
X174261904Y-84547619D01*
X174309523Y-84642857D01*
X174309523Y-84738095D01*
X174261904Y-84880952D01*
X173690476Y-85452380D01*
X174309523Y-85452380D01*
X174785714Y-85452380D02*
X174976190Y-85452380D01*
X175071428Y-85404761D01*
X175119047Y-85357142D01*
X175214285Y-85214285D01*
X175261904Y-85023809D01*
X175261904Y-84642857D01*
X175214285Y-84547619D01*
X175166666Y-84500000D01*
X175071428Y-84452380D01*
X174880952Y-84452380D01*
X174785714Y-84500000D01*
X174738095Y-84547619D01*
X174690476Y-84642857D01*
X174690476Y-84880952D01*
X174738095Y-84976190D01*
X174785714Y-85023809D01*
X174880952Y-85071428D01*
X175071428Y-85071428D01*
X175166666Y-85023809D01*
X175214285Y-84976190D01*
X175261904Y-84880952D01*
%TO.C,R30*%
X170357142Y-88452380D02*
X170023809Y-87976190D01*
X169785714Y-88452380D02*
X169785714Y-87452380D01*
X170166666Y-87452380D01*
X170261904Y-87500000D01*
X170309523Y-87547619D01*
X170357142Y-87642857D01*
X170357142Y-87785714D01*
X170309523Y-87880952D01*
X170261904Y-87928571D01*
X170166666Y-87976190D01*
X169785714Y-87976190D01*
X170690476Y-87452380D02*
X171309523Y-87452380D01*
X170976190Y-87833333D01*
X171119047Y-87833333D01*
X171214285Y-87880952D01*
X171261904Y-87928571D01*
X171309523Y-88023809D01*
X171309523Y-88261904D01*
X171261904Y-88357142D01*
X171214285Y-88404761D01*
X171119047Y-88452380D01*
X170833333Y-88452380D01*
X170738095Y-88404761D01*
X170690476Y-88357142D01*
X171928571Y-87452380D02*
X172023809Y-87452380D01*
X172119047Y-87500000D01*
X172166666Y-87547619D01*
X172214285Y-87642857D01*
X172261904Y-87833333D01*
X172261904Y-88071428D01*
X172214285Y-88261904D01*
X172166666Y-88357142D01*
X172119047Y-88404761D01*
X172023809Y-88452380D01*
X171928571Y-88452380D01*
X171833333Y-88404761D01*
X171785714Y-88357142D01*
X171738095Y-88261904D01*
X171690476Y-88071428D01*
X171690476Y-87833333D01*
X171738095Y-87642857D01*
X171785714Y-87547619D01*
X171833333Y-87500000D01*
X171928571Y-87452380D01*
%TO.C,R31*%
X172357142Y-78452380D02*
X172023809Y-77976190D01*
X171785714Y-78452380D02*
X171785714Y-77452380D01*
X172166666Y-77452380D01*
X172261904Y-77500000D01*
X172309523Y-77547619D01*
X172357142Y-77642857D01*
X172357142Y-77785714D01*
X172309523Y-77880952D01*
X172261904Y-77928571D01*
X172166666Y-77976190D01*
X171785714Y-77976190D01*
X172690476Y-77452380D02*
X173309523Y-77452380D01*
X172976190Y-77833333D01*
X173119047Y-77833333D01*
X173214285Y-77880952D01*
X173261904Y-77928571D01*
X173309523Y-78023809D01*
X173309523Y-78261904D01*
X173261904Y-78357142D01*
X173214285Y-78404761D01*
X173119047Y-78452380D01*
X172833333Y-78452380D01*
X172738095Y-78404761D01*
X172690476Y-78357142D01*
X174261904Y-78452380D02*
X173690476Y-78452380D01*
X173976190Y-78452380D02*
X173976190Y-77452380D01*
X173880952Y-77595238D01*
X173785714Y-77690476D01*
X173690476Y-77738095D01*
%TO.C,R32*%
X177502380Y-75692857D02*
X177026190Y-76026190D01*
X177502380Y-76264285D02*
X176502380Y-76264285D01*
X176502380Y-75883333D01*
X176550000Y-75788095D01*
X176597619Y-75740476D01*
X176692857Y-75692857D01*
X176835714Y-75692857D01*
X176930952Y-75740476D01*
X176978571Y-75788095D01*
X177026190Y-75883333D01*
X177026190Y-76264285D01*
X176502380Y-75359523D02*
X176502380Y-74740476D01*
X176883333Y-75073809D01*
X176883333Y-74930952D01*
X176930952Y-74835714D01*
X176978571Y-74788095D01*
X177073809Y-74740476D01*
X177311904Y-74740476D01*
X177407142Y-74788095D01*
X177454761Y-74835714D01*
X177502380Y-74930952D01*
X177502380Y-75216666D01*
X177454761Y-75311904D01*
X177407142Y-75359523D01*
X176597619Y-74359523D02*
X176550000Y-74311904D01*
X176502380Y-74216666D01*
X176502380Y-73978571D01*
X176550000Y-73883333D01*
X176597619Y-73835714D01*
X176692857Y-73788095D01*
X176788095Y-73788095D01*
X176930952Y-73835714D01*
X177502380Y-74407142D01*
X177502380Y-73788095D01*
%TO.C,R33*%
X179952380Y-75642857D02*
X179476190Y-75976190D01*
X179952380Y-76214285D02*
X178952380Y-76214285D01*
X178952380Y-75833333D01*
X179000000Y-75738095D01*
X179047619Y-75690476D01*
X179142857Y-75642857D01*
X179285714Y-75642857D01*
X179380952Y-75690476D01*
X179428571Y-75738095D01*
X179476190Y-75833333D01*
X179476190Y-76214285D01*
X178952380Y-75309523D02*
X178952380Y-74690476D01*
X179333333Y-75023809D01*
X179333333Y-74880952D01*
X179380952Y-74785714D01*
X179428571Y-74738095D01*
X179523809Y-74690476D01*
X179761904Y-74690476D01*
X179857142Y-74738095D01*
X179904761Y-74785714D01*
X179952380Y-74880952D01*
X179952380Y-75166666D01*
X179904761Y-75261904D01*
X179857142Y-75309523D01*
X178952380Y-74357142D02*
X178952380Y-73738095D01*
X179333333Y-74071428D01*
X179333333Y-73928571D01*
X179380952Y-73833333D01*
X179428571Y-73785714D01*
X179523809Y-73738095D01*
X179761904Y-73738095D01*
X179857142Y-73785714D01*
X179904761Y-73833333D01*
X179952380Y-73928571D01*
X179952380Y-74214285D01*
X179904761Y-74309523D01*
X179857142Y-74357142D01*
%TO.C,SB2*%
X107838095Y-85204761D02*
X107980952Y-85252380D01*
X108219047Y-85252380D01*
X108314285Y-85204761D01*
X108361904Y-85157142D01*
X108409523Y-85061904D01*
X108409523Y-84966666D01*
X108361904Y-84871428D01*
X108314285Y-84823809D01*
X108219047Y-84776190D01*
X108028571Y-84728571D01*
X107933333Y-84680952D01*
X107885714Y-84633333D01*
X107838095Y-84538095D01*
X107838095Y-84442857D01*
X107885714Y-84347619D01*
X107933333Y-84300000D01*
X108028571Y-84252380D01*
X108266666Y-84252380D01*
X108409523Y-84300000D01*
X109171428Y-84728571D02*
X109314285Y-84776190D01*
X109361904Y-84823809D01*
X109409523Y-84919047D01*
X109409523Y-85061904D01*
X109361904Y-85157142D01*
X109314285Y-85204761D01*
X109219047Y-85252380D01*
X108838095Y-85252380D01*
X108838095Y-84252380D01*
X109171428Y-84252380D01*
X109266666Y-84300000D01*
X109314285Y-84347619D01*
X109361904Y-84442857D01*
X109361904Y-84538095D01*
X109314285Y-84633333D01*
X109266666Y-84680952D01*
X109171428Y-84728571D01*
X108838095Y-84728571D01*
X109790476Y-84347619D02*
X109838095Y-84300000D01*
X109933333Y-84252380D01*
X110171428Y-84252380D01*
X110266666Y-84300000D01*
X110314285Y-84347619D01*
X110361904Y-84442857D01*
X110361904Y-84538095D01*
X110314285Y-84680952D01*
X109742857Y-85252380D01*
X110361904Y-85252380D01*
%TO.C,U7*%
X153238095Y-99120380D02*
X153238095Y-99929904D01*
X153285714Y-100025142D01*
X153333333Y-100072761D01*
X153428571Y-100120380D01*
X153619047Y-100120380D01*
X153714285Y-100072761D01*
X153761904Y-100025142D01*
X153809523Y-99929904D01*
X153809523Y-99120380D01*
X154190476Y-99120380D02*
X154857142Y-99120380D01*
X154428571Y-100120380D01*
%TO.C,R1*%
X120333333Y-118452380D02*
X120000000Y-117976190D01*
X119761904Y-118452380D02*
X119761904Y-117452380D01*
X120142857Y-117452380D01*
X120238095Y-117500000D01*
X120285714Y-117547619D01*
X120333333Y-117642857D01*
X120333333Y-117785714D01*
X120285714Y-117880952D01*
X120238095Y-117928571D01*
X120142857Y-117976190D01*
X119761904Y-117976190D01*
X121285714Y-118452380D02*
X120714285Y-118452380D01*
X121000000Y-118452380D02*
X121000000Y-117452380D01*
X120904761Y-117595238D01*
X120809523Y-117690476D01*
X120714285Y-117738095D01*
%TO.C,R5*%
X120333333Y-115952380D02*
X120000000Y-115476190D01*
X119761904Y-115952380D02*
X119761904Y-114952380D01*
X120142857Y-114952380D01*
X120238095Y-115000000D01*
X120285714Y-115047619D01*
X120333333Y-115142857D01*
X120333333Y-115285714D01*
X120285714Y-115380952D01*
X120238095Y-115428571D01*
X120142857Y-115476190D01*
X119761904Y-115476190D01*
X121238095Y-114952380D02*
X120761904Y-114952380D01*
X120714285Y-115428571D01*
X120761904Y-115380952D01*
X120857142Y-115333333D01*
X121095238Y-115333333D01*
X121190476Y-115380952D01*
X121238095Y-115428571D01*
X121285714Y-115523809D01*
X121285714Y-115761904D01*
X121238095Y-115857142D01*
X121190476Y-115904761D01*
X121095238Y-115952380D01*
X120857142Y-115952380D01*
X120761904Y-115904761D01*
X120714285Y-115857142D01*
%TO.C,U9*%
X191238095Y-105452380D02*
X191238095Y-106261904D01*
X191285714Y-106357142D01*
X191333333Y-106404761D01*
X191428571Y-106452380D01*
X191619047Y-106452380D01*
X191714285Y-106404761D01*
X191761904Y-106357142D01*
X191809523Y-106261904D01*
X191809523Y-105452380D01*
X192333333Y-106452380D02*
X192523809Y-106452380D01*
X192619047Y-106404761D01*
X192666666Y-106357142D01*
X192761904Y-106214285D01*
X192809523Y-106023809D01*
X192809523Y-105642857D01*
X192761904Y-105547619D01*
X192714285Y-105500000D01*
X192619047Y-105452380D01*
X192428571Y-105452380D01*
X192333333Y-105500000D01*
X192285714Y-105547619D01*
X192238095Y-105642857D01*
X192238095Y-105880952D01*
X192285714Y-105976190D01*
X192333333Y-106023809D01*
X192428571Y-106071428D01*
X192619047Y-106071428D01*
X192714285Y-106023809D01*
X192761904Y-105976190D01*
X192809523Y-105880952D01*
%TO.C,C1*%
X197833333Y-106357142D02*
X197785714Y-106404761D01*
X197642857Y-106452380D01*
X197547619Y-106452380D01*
X197404761Y-106404761D01*
X197309523Y-106309523D01*
X197261904Y-106214285D01*
X197214285Y-106023809D01*
X197214285Y-105880952D01*
X197261904Y-105690476D01*
X197309523Y-105595238D01*
X197404761Y-105500000D01*
X197547619Y-105452380D01*
X197642857Y-105452380D01*
X197785714Y-105500000D01*
X197833333Y-105547619D01*
X198785714Y-106452380D02*
X198214285Y-106452380D01*
X198500000Y-106452380D02*
X198500000Y-105452380D01*
X198404761Y-105595238D01*
X198309523Y-105690476D01*
X198214285Y-105738095D01*
%TO.C,B1*%
X105095238Y-55928571D02*
X105238095Y-55976190D01*
X105285714Y-56023809D01*
X105333333Y-56119047D01*
X105333333Y-56261904D01*
X105285714Y-56357142D01*
X105238095Y-56404761D01*
X105142857Y-56452380D01*
X104761904Y-56452380D01*
X104761904Y-55452380D01*
X105095238Y-55452380D01*
X105190476Y-55500000D01*
X105238095Y-55547619D01*
X105285714Y-55642857D01*
X105285714Y-55738095D01*
X105238095Y-55833333D01*
X105190476Y-55880952D01*
X105095238Y-55928571D01*
X104761904Y-55928571D01*
X106285714Y-56452380D02*
X105714285Y-56452380D01*
X106000000Y-56452380D02*
X106000000Y-55452380D01*
X105904761Y-55595238D01*
X105809523Y-55690476D01*
X105714285Y-55738095D01*
%TO.C,B2*%
X105095238Y-114928571D02*
X105238095Y-114976190D01*
X105285714Y-115023809D01*
X105333333Y-115119047D01*
X105333333Y-115261904D01*
X105285714Y-115357142D01*
X105238095Y-115404761D01*
X105142857Y-115452380D01*
X104761904Y-115452380D01*
X104761904Y-114452380D01*
X105095238Y-114452380D01*
X105190476Y-114500000D01*
X105238095Y-114547619D01*
X105285714Y-114642857D01*
X105285714Y-114738095D01*
X105238095Y-114833333D01*
X105190476Y-114880952D01*
X105095238Y-114928571D01*
X104761904Y-114928571D01*
X105714285Y-114547619D02*
X105761904Y-114500000D01*
X105857142Y-114452380D01*
X106095238Y-114452380D01*
X106190476Y-114500000D01*
X106238095Y-114547619D01*
X106285714Y-114642857D01*
X106285714Y-114738095D01*
X106238095Y-114880952D01*
X105666666Y-115452380D01*
X106285714Y-115452380D01*
%TO.C,B3*%
X207095238Y-114928571D02*
X207238095Y-114976190D01*
X207285714Y-115023809D01*
X207333333Y-115119047D01*
X207333333Y-115261904D01*
X207285714Y-115357142D01*
X207238095Y-115404761D01*
X207142857Y-115452380D01*
X206761904Y-115452380D01*
X206761904Y-114452380D01*
X207095238Y-114452380D01*
X207190476Y-114500000D01*
X207238095Y-114547619D01*
X207285714Y-114642857D01*
X207285714Y-114738095D01*
X207238095Y-114833333D01*
X207190476Y-114880952D01*
X207095238Y-114928571D01*
X206761904Y-114928571D01*
X207666666Y-114452380D02*
X208285714Y-114452380D01*
X207952380Y-114833333D01*
X208095238Y-114833333D01*
X208190476Y-114880952D01*
X208238095Y-114928571D01*
X208285714Y-115023809D01*
X208285714Y-115261904D01*
X208238095Y-115357142D01*
X208190476Y-115404761D01*
X208095238Y-115452380D01*
X207809523Y-115452380D01*
X207714285Y-115404761D01*
X207666666Y-115357142D01*
%TO.C,B4*%
X207095238Y-55928571D02*
X207238095Y-55976190D01*
X207285714Y-56023809D01*
X207333333Y-56119047D01*
X207333333Y-56261904D01*
X207285714Y-56357142D01*
X207238095Y-56404761D01*
X207142857Y-56452380D01*
X206761904Y-56452380D01*
X206761904Y-55452380D01*
X207095238Y-55452380D01*
X207190476Y-55500000D01*
X207238095Y-55547619D01*
X207285714Y-55642857D01*
X207285714Y-55738095D01*
X207238095Y-55833333D01*
X207190476Y-55880952D01*
X207095238Y-55928571D01*
X206761904Y-55928571D01*
X208190476Y-55785714D02*
X208190476Y-56452380D01*
X207952380Y-55404761D02*
X207714285Y-56119047D01*
X208333333Y-56119047D01*
%TO.C,C4*%
X126333333Y-51357142D02*
X126285714Y-51404761D01*
X126142857Y-51452380D01*
X126047619Y-51452380D01*
X125904761Y-51404761D01*
X125809523Y-51309523D01*
X125761904Y-51214285D01*
X125714285Y-51023809D01*
X125714285Y-50880952D01*
X125761904Y-50690476D01*
X125809523Y-50595238D01*
X125904761Y-50500000D01*
X126047619Y-50452380D01*
X126142857Y-50452380D01*
X126285714Y-50500000D01*
X126333333Y-50547619D01*
X127190476Y-50785714D02*
X127190476Y-51452380D01*
X126952380Y-50404761D02*
X126714285Y-51119047D01*
X127333333Y-51119047D01*
%TO.C,C7*%
X114833333Y-62357142D02*
X114785714Y-62404761D01*
X114642857Y-62452380D01*
X114547619Y-62452380D01*
X114404761Y-62404761D01*
X114309523Y-62309523D01*
X114261904Y-62214285D01*
X114214285Y-62023809D01*
X114214285Y-61880952D01*
X114261904Y-61690476D01*
X114309523Y-61595238D01*
X114404761Y-61500000D01*
X114547619Y-61452380D01*
X114642857Y-61452380D01*
X114785714Y-61500000D01*
X114833333Y-61547619D01*
X115166666Y-61452380D02*
X115833333Y-61452380D01*
X115404761Y-62452380D01*
%TO.C,R34*%
X121357142Y-51452380D02*
X121023809Y-50976190D01*
X120785714Y-51452380D02*
X120785714Y-50452380D01*
X121166666Y-50452380D01*
X121261904Y-50500000D01*
X121309523Y-50547619D01*
X121357142Y-50642857D01*
X121357142Y-50785714D01*
X121309523Y-50880952D01*
X121261904Y-50928571D01*
X121166666Y-50976190D01*
X120785714Y-50976190D01*
X121690476Y-50452380D02*
X122309523Y-50452380D01*
X121976190Y-50833333D01*
X122119047Y-50833333D01*
X122214285Y-50880952D01*
X122261904Y-50928571D01*
X122309523Y-51023809D01*
X122309523Y-51261904D01*
X122261904Y-51357142D01*
X122214285Y-51404761D01*
X122119047Y-51452380D01*
X121833333Y-51452380D01*
X121738095Y-51404761D01*
X121690476Y-51357142D01*
X123166666Y-50785714D02*
X123166666Y-51452380D01*
X122928571Y-50404761D02*
X122690476Y-51119047D01*
X123309523Y-51119047D01*
%TO.C,R35*%
X128857142Y-58952380D02*
X128523809Y-58476190D01*
X128285714Y-58952380D02*
X128285714Y-57952380D01*
X128666666Y-57952380D01*
X128761904Y-58000000D01*
X128809523Y-58047619D01*
X128857142Y-58142857D01*
X128857142Y-58285714D01*
X128809523Y-58380952D01*
X128761904Y-58428571D01*
X128666666Y-58476190D01*
X128285714Y-58476190D01*
X129190476Y-57952380D02*
X129809523Y-57952380D01*
X129476190Y-58333333D01*
X129619047Y-58333333D01*
X129714285Y-58380952D01*
X129761904Y-58428571D01*
X129809523Y-58523809D01*
X129809523Y-58761904D01*
X129761904Y-58857142D01*
X129714285Y-58904761D01*
X129619047Y-58952380D01*
X129333333Y-58952380D01*
X129238095Y-58904761D01*
X129190476Y-58857142D01*
X130714285Y-57952380D02*
X130238095Y-57952380D01*
X130190476Y-58428571D01*
X130238095Y-58380952D01*
X130333333Y-58333333D01*
X130571428Y-58333333D01*
X130666666Y-58380952D01*
X130714285Y-58428571D01*
X130761904Y-58523809D01*
X130761904Y-58761904D01*
X130714285Y-58857142D01*
X130666666Y-58904761D01*
X130571428Y-58952380D01*
X130333333Y-58952380D01*
X130238095Y-58904761D01*
X130190476Y-58857142D01*
%TO.C,U3*%
X119238095Y-60452380D02*
X119238095Y-61261904D01*
X119285714Y-61357142D01*
X119333333Y-61404761D01*
X119428571Y-61452380D01*
X119619047Y-61452380D01*
X119714285Y-61404761D01*
X119761904Y-61357142D01*
X119809523Y-61261904D01*
X119809523Y-60452380D01*
X120190476Y-60452380D02*
X120809523Y-60452380D01*
X120476190Y-60833333D01*
X120619047Y-60833333D01*
X120714285Y-60880952D01*
X120761904Y-60928571D01*
X120809523Y-61023809D01*
X120809523Y-61261904D01*
X120761904Y-61357142D01*
X120714285Y-61404761D01*
X120619047Y-61452380D01*
X120333333Y-61452380D01*
X120238095Y-61404761D01*
X120190476Y-61357142D01*
%TO.C,C22*%
X162357142Y-104642857D02*
X162404761Y-104690476D01*
X162452380Y-104833333D01*
X162452380Y-104928571D01*
X162404761Y-105071428D01*
X162309523Y-105166666D01*
X162214285Y-105214285D01*
X162023809Y-105261904D01*
X161880952Y-105261904D01*
X161690476Y-105214285D01*
X161595238Y-105166666D01*
X161500000Y-105071428D01*
X161452380Y-104928571D01*
X161452380Y-104833333D01*
X161500000Y-104690476D01*
X161547619Y-104642857D01*
X161547619Y-104261904D02*
X161500000Y-104214285D01*
X161452380Y-104119047D01*
X161452380Y-103880952D01*
X161500000Y-103785714D01*
X161547619Y-103738095D01*
X161642857Y-103690476D01*
X161738095Y-103690476D01*
X161880952Y-103738095D01*
X162452380Y-104309523D01*
X162452380Y-103690476D01*
X161547619Y-103309523D02*
X161500000Y-103261904D01*
X161452380Y-103166666D01*
X161452380Y-102928571D01*
X161500000Y-102833333D01*
X161547619Y-102785714D01*
X161642857Y-102738095D01*
X161738095Y-102738095D01*
X161880952Y-102785714D01*
X162452380Y-103357142D01*
X162452380Y-102738095D01*
%TO.C,C23*%
X155357142Y-107357142D02*
X155309523Y-107404761D01*
X155166666Y-107452380D01*
X155071428Y-107452380D01*
X154928571Y-107404761D01*
X154833333Y-107309523D01*
X154785714Y-107214285D01*
X154738095Y-107023809D01*
X154738095Y-106880952D01*
X154785714Y-106690476D01*
X154833333Y-106595238D01*
X154928571Y-106500000D01*
X155071428Y-106452380D01*
X155166666Y-106452380D01*
X155309523Y-106500000D01*
X155357142Y-106547619D01*
X155738095Y-106547619D02*
X155785714Y-106500000D01*
X155880952Y-106452380D01*
X156119047Y-106452380D01*
X156214285Y-106500000D01*
X156261904Y-106547619D01*
X156309523Y-106642857D01*
X156309523Y-106738095D01*
X156261904Y-106880952D01*
X155690476Y-107452380D01*
X156309523Y-107452380D01*
X156642857Y-106452380D02*
X157261904Y-106452380D01*
X156928571Y-106833333D01*
X157071428Y-106833333D01*
X157166666Y-106880952D01*
X157214285Y-106928571D01*
X157261904Y-107023809D01*
X157261904Y-107261904D01*
X157214285Y-107357142D01*
X157166666Y-107404761D01*
X157071428Y-107452380D01*
X156785714Y-107452380D01*
X156690476Y-107404761D01*
X156642857Y-107357142D01*
%TO.C,TPP3*%
X131738095Y-60452380D02*
X132309523Y-60452380D01*
X132023809Y-61452380D02*
X132023809Y-60452380D01*
X132642857Y-61452380D02*
X132642857Y-60452380D01*
X133023809Y-60452380D01*
X133119047Y-60500000D01*
X133166666Y-60547619D01*
X133214285Y-60642857D01*
X133214285Y-60785714D01*
X133166666Y-60880952D01*
X133119047Y-60928571D01*
X133023809Y-60976190D01*
X132642857Y-60976190D01*
X133642857Y-61452380D02*
X133642857Y-60452380D01*
X134023809Y-60452380D01*
X134119047Y-60500000D01*
X134166666Y-60547619D01*
X134214285Y-60642857D01*
X134214285Y-60785714D01*
X134166666Y-60880952D01*
X134119047Y-60928571D01*
X134023809Y-60976190D01*
X133642857Y-60976190D01*
X134547619Y-60452380D02*
X135166666Y-60452380D01*
X134833333Y-60833333D01*
X134976190Y-60833333D01*
X135071428Y-60880952D01*
X135119047Y-60928571D01*
X135166666Y-61023809D01*
X135166666Y-61261904D01*
X135119047Y-61357142D01*
X135071428Y-61404761D01*
X134976190Y-61452380D01*
X134690476Y-61452380D01*
X134595238Y-61404761D01*
X134547619Y-61357142D01*
%TO.C,C28*%
X178857142Y-60357142D02*
X178809523Y-60404761D01*
X178666666Y-60452380D01*
X178571428Y-60452380D01*
X178428571Y-60404761D01*
X178333333Y-60309523D01*
X178285714Y-60214285D01*
X178238095Y-60023809D01*
X178238095Y-59880952D01*
X178285714Y-59690476D01*
X178333333Y-59595238D01*
X178428571Y-59500000D01*
X178571428Y-59452380D01*
X178666666Y-59452380D01*
X178809523Y-59500000D01*
X178857142Y-59547619D01*
X179238095Y-59547619D02*
X179285714Y-59500000D01*
X179380952Y-59452380D01*
X179619047Y-59452380D01*
X179714285Y-59500000D01*
X179761904Y-59547619D01*
X179809523Y-59642857D01*
X179809523Y-59738095D01*
X179761904Y-59880952D01*
X179190476Y-60452380D01*
X179809523Y-60452380D01*
X180380952Y-59880952D02*
X180285714Y-59833333D01*
X180238095Y-59785714D01*
X180190476Y-59690476D01*
X180190476Y-59642857D01*
X180238095Y-59547619D01*
X180285714Y-59500000D01*
X180380952Y-59452380D01*
X180571428Y-59452380D01*
X180666666Y-59500000D01*
X180714285Y-59547619D01*
X180761904Y-59642857D01*
X180761904Y-59690476D01*
X180714285Y-59785714D01*
X180666666Y-59833333D01*
X180571428Y-59880952D01*
X180380952Y-59880952D01*
X180285714Y-59928571D01*
X180238095Y-59976190D01*
X180190476Y-60071428D01*
X180190476Y-60261904D01*
X180238095Y-60357142D01*
X180285714Y-60404761D01*
X180380952Y-60452380D01*
X180571428Y-60452380D01*
X180666666Y-60404761D01*
X180714285Y-60357142D01*
X180761904Y-60261904D01*
X180761904Y-60071428D01*
X180714285Y-59976190D01*
X180666666Y-59928571D01*
X180571428Y-59880952D01*
%TO.C,C29*%
X186357142Y-72092857D02*
X186404761Y-72140476D01*
X186452380Y-72283333D01*
X186452380Y-72378571D01*
X186404761Y-72521428D01*
X186309523Y-72616666D01*
X186214285Y-72664285D01*
X186023809Y-72711904D01*
X185880952Y-72711904D01*
X185690476Y-72664285D01*
X185595238Y-72616666D01*
X185500000Y-72521428D01*
X185452380Y-72378571D01*
X185452380Y-72283333D01*
X185500000Y-72140476D01*
X185547619Y-72092857D01*
X185547619Y-71711904D02*
X185500000Y-71664285D01*
X185452380Y-71569047D01*
X185452380Y-71330952D01*
X185500000Y-71235714D01*
X185547619Y-71188095D01*
X185642857Y-71140476D01*
X185738095Y-71140476D01*
X185880952Y-71188095D01*
X186452380Y-71759523D01*
X186452380Y-71140476D01*
X186452380Y-70664285D02*
X186452380Y-70473809D01*
X186404761Y-70378571D01*
X186357142Y-70330952D01*
X186214285Y-70235714D01*
X186023809Y-70188095D01*
X185642857Y-70188095D01*
X185547619Y-70235714D01*
X185500000Y-70283333D01*
X185452380Y-70378571D01*
X185452380Y-70569047D01*
X185500000Y-70664285D01*
X185547619Y-70711904D01*
X185642857Y-70759523D01*
X185880952Y-70759523D01*
X185976190Y-70711904D01*
X186023809Y-70664285D01*
X186071428Y-70569047D01*
X186071428Y-70378571D01*
X186023809Y-70283333D01*
X185976190Y-70235714D01*
X185880952Y-70188095D01*
%TO.C,R36*%
X180857142Y-56802380D02*
X180523809Y-56326190D01*
X180285714Y-56802380D02*
X180285714Y-55802380D01*
X180666666Y-55802380D01*
X180761904Y-55850000D01*
X180809523Y-55897619D01*
X180857142Y-55992857D01*
X180857142Y-56135714D01*
X180809523Y-56230952D01*
X180761904Y-56278571D01*
X180666666Y-56326190D01*
X180285714Y-56326190D01*
X181190476Y-55802380D02*
X181809523Y-55802380D01*
X181476190Y-56183333D01*
X181619047Y-56183333D01*
X181714285Y-56230952D01*
X181761904Y-56278571D01*
X181809523Y-56373809D01*
X181809523Y-56611904D01*
X181761904Y-56707142D01*
X181714285Y-56754761D01*
X181619047Y-56802380D01*
X181333333Y-56802380D01*
X181238095Y-56754761D01*
X181190476Y-56707142D01*
X182666666Y-55802380D02*
X182476190Y-55802380D01*
X182380952Y-55850000D01*
X182333333Y-55897619D01*
X182238095Y-56040476D01*
X182190476Y-56230952D01*
X182190476Y-56611904D01*
X182238095Y-56707142D01*
X182285714Y-56754761D01*
X182380952Y-56802380D01*
X182571428Y-56802380D01*
X182666666Y-56754761D01*
X182714285Y-56707142D01*
X182761904Y-56611904D01*
X182761904Y-56373809D01*
X182714285Y-56278571D01*
X182666666Y-56230952D01*
X182571428Y-56183333D01*
X182380952Y-56183333D01*
X182285714Y-56230952D01*
X182238095Y-56278571D01*
X182190476Y-56373809D01*
%TO.C,R37*%
X184452380Y-79142857D02*
X183976190Y-79476190D01*
X184452380Y-79714285D02*
X183452380Y-79714285D01*
X183452380Y-79333333D01*
X183500000Y-79238095D01*
X183547619Y-79190476D01*
X183642857Y-79142857D01*
X183785714Y-79142857D01*
X183880952Y-79190476D01*
X183928571Y-79238095D01*
X183976190Y-79333333D01*
X183976190Y-79714285D01*
X183452380Y-78809523D02*
X183452380Y-78190476D01*
X183833333Y-78523809D01*
X183833333Y-78380952D01*
X183880952Y-78285714D01*
X183928571Y-78238095D01*
X184023809Y-78190476D01*
X184261904Y-78190476D01*
X184357142Y-78238095D01*
X184404761Y-78285714D01*
X184452380Y-78380952D01*
X184452380Y-78666666D01*
X184404761Y-78761904D01*
X184357142Y-78809523D01*
X183452380Y-77857142D02*
X183452380Y-77190476D01*
X184452380Y-77619047D01*
%TO.C,TPP6*%
X157738095Y-94452380D02*
X158309523Y-94452380D01*
X158023809Y-95452380D02*
X158023809Y-94452380D01*
X158642857Y-95452380D02*
X158642857Y-94452380D01*
X159023809Y-94452380D01*
X159119047Y-94500000D01*
X159166666Y-94547619D01*
X159214285Y-94642857D01*
X159214285Y-94785714D01*
X159166666Y-94880952D01*
X159119047Y-94928571D01*
X159023809Y-94976190D01*
X158642857Y-94976190D01*
X159642857Y-95452380D02*
X159642857Y-94452380D01*
X160023809Y-94452380D01*
X160119047Y-94500000D01*
X160166666Y-94547619D01*
X160214285Y-94642857D01*
X160214285Y-94785714D01*
X160166666Y-94880952D01*
X160119047Y-94928571D01*
X160023809Y-94976190D01*
X159642857Y-94976190D01*
X161071428Y-94452380D02*
X160880952Y-94452380D01*
X160785714Y-94500000D01*
X160738095Y-94547619D01*
X160642857Y-94690476D01*
X160595238Y-94880952D01*
X160595238Y-95261904D01*
X160642857Y-95357142D01*
X160690476Y-95404761D01*
X160785714Y-95452380D01*
X160976190Y-95452380D01*
X161071428Y-95404761D01*
X161119047Y-95357142D01*
X161166666Y-95261904D01*
X161166666Y-95023809D01*
X161119047Y-94928571D01*
X161071428Y-94880952D01*
X160976190Y-94833333D01*
X160785714Y-94833333D01*
X160690476Y-94880952D01*
X160642857Y-94928571D01*
X160595238Y-95023809D01*
%TO.C,TPP10*%
X137261904Y-90952380D02*
X137833333Y-90952380D01*
X137547619Y-91952380D02*
X137547619Y-90952380D01*
X138166666Y-91952380D02*
X138166666Y-90952380D01*
X138547619Y-90952380D01*
X138642857Y-91000000D01*
X138690476Y-91047619D01*
X138738095Y-91142857D01*
X138738095Y-91285714D01*
X138690476Y-91380952D01*
X138642857Y-91428571D01*
X138547619Y-91476190D01*
X138166666Y-91476190D01*
X139166666Y-91952380D02*
X139166666Y-90952380D01*
X139547619Y-90952380D01*
X139642857Y-91000000D01*
X139690476Y-91047619D01*
X139738095Y-91142857D01*
X139738095Y-91285714D01*
X139690476Y-91380952D01*
X139642857Y-91428571D01*
X139547619Y-91476190D01*
X139166666Y-91476190D01*
X140690476Y-91952380D02*
X140119047Y-91952380D01*
X140404761Y-91952380D02*
X140404761Y-90952380D01*
X140309523Y-91095238D01*
X140214285Y-91190476D01*
X140119047Y-91238095D01*
X141309523Y-90952380D02*
X141404761Y-90952380D01*
X141500000Y-91000000D01*
X141547619Y-91047619D01*
X141595238Y-91142857D01*
X141642857Y-91333333D01*
X141642857Y-91571428D01*
X141595238Y-91761904D01*
X141547619Y-91857142D01*
X141500000Y-91904761D01*
X141404761Y-91952380D01*
X141309523Y-91952380D01*
X141214285Y-91904761D01*
X141166666Y-91857142D01*
X141119047Y-91761904D01*
X141071428Y-91571428D01*
X141071428Y-91333333D01*
X141119047Y-91142857D01*
X141166666Y-91047619D01*
X141214285Y-91000000D01*
X141309523Y-90952380D01*
%TO.C,R10P1*%
X160380952Y-67452380D02*
X160047619Y-66976190D01*
X159809523Y-67452380D02*
X159809523Y-66452380D01*
X160190476Y-66452380D01*
X160285714Y-66500000D01*
X160333333Y-66547619D01*
X160380952Y-66642857D01*
X160380952Y-66785714D01*
X160333333Y-66880952D01*
X160285714Y-66928571D01*
X160190476Y-66976190D01*
X159809523Y-66976190D01*
X161333333Y-67452380D02*
X160761904Y-67452380D01*
X161047619Y-67452380D02*
X161047619Y-66452380D01*
X160952380Y-66595238D01*
X160857142Y-66690476D01*
X160761904Y-66738095D01*
X161952380Y-66452380D02*
X162047619Y-66452380D01*
X162142857Y-66500000D01*
X162190476Y-66547619D01*
X162238095Y-66642857D01*
X162285714Y-66833333D01*
X162285714Y-67071428D01*
X162238095Y-67261904D01*
X162190476Y-67357142D01*
X162142857Y-67404761D01*
X162047619Y-67452380D01*
X161952380Y-67452380D01*
X161857142Y-67404761D01*
X161809523Y-67357142D01*
X161761904Y-67261904D01*
X161714285Y-67071428D01*
X161714285Y-66833333D01*
X161761904Y-66642857D01*
X161809523Y-66547619D01*
X161857142Y-66500000D01*
X161952380Y-66452380D01*
X162714285Y-67452380D02*
X162714285Y-66452380D01*
X163095238Y-66452380D01*
X163190476Y-66500000D01*
X163238095Y-66547619D01*
X163285714Y-66642857D01*
X163285714Y-66785714D01*
X163238095Y-66880952D01*
X163190476Y-66928571D01*
X163095238Y-66976190D01*
X162714285Y-66976190D01*
X164238095Y-67452380D02*
X163666666Y-67452380D01*
X163952380Y-67452380D02*
X163952380Y-66452380D01*
X163857142Y-66595238D01*
X163761904Y-66690476D01*
X163666666Y-66738095D01*
%TO.C,R2P1*%
X140357142Y-67452380D02*
X140023809Y-66976190D01*
X139785714Y-67452380D02*
X139785714Y-66452380D01*
X140166666Y-66452380D01*
X140261904Y-66500000D01*
X140309523Y-66547619D01*
X140357142Y-66642857D01*
X140357142Y-66785714D01*
X140309523Y-66880952D01*
X140261904Y-66928571D01*
X140166666Y-66976190D01*
X139785714Y-66976190D01*
X140738095Y-66547619D02*
X140785714Y-66500000D01*
X140880952Y-66452380D01*
X141119047Y-66452380D01*
X141214285Y-66500000D01*
X141261904Y-66547619D01*
X141309523Y-66642857D01*
X141309523Y-66738095D01*
X141261904Y-66880952D01*
X140690476Y-67452380D01*
X141309523Y-67452380D01*
X141738095Y-67452380D02*
X141738095Y-66452380D01*
X142119047Y-66452380D01*
X142214285Y-66500000D01*
X142261904Y-66547619D01*
X142309523Y-66642857D01*
X142309523Y-66785714D01*
X142261904Y-66880952D01*
X142214285Y-66928571D01*
X142119047Y-66976190D01*
X141738095Y-66976190D01*
X143261904Y-67452380D02*
X142690476Y-67452380D01*
X142976190Y-67452380D02*
X142976190Y-66452380D01*
X142880952Y-66595238D01*
X142785714Y-66690476D01*
X142690476Y-66738095D01*
%TO.C,R52S1*%
X167904761Y-56802380D02*
X167571428Y-56326190D01*
X167333333Y-56802380D02*
X167333333Y-55802380D01*
X167714285Y-55802380D01*
X167809523Y-55850000D01*
X167857142Y-55897619D01*
X167904761Y-55992857D01*
X167904761Y-56135714D01*
X167857142Y-56230952D01*
X167809523Y-56278571D01*
X167714285Y-56326190D01*
X167333333Y-56326190D01*
X168809523Y-55802380D02*
X168333333Y-55802380D01*
X168285714Y-56278571D01*
X168333333Y-56230952D01*
X168428571Y-56183333D01*
X168666666Y-56183333D01*
X168761904Y-56230952D01*
X168809523Y-56278571D01*
X168857142Y-56373809D01*
X168857142Y-56611904D01*
X168809523Y-56707142D01*
X168761904Y-56754761D01*
X168666666Y-56802380D01*
X168428571Y-56802380D01*
X168333333Y-56754761D01*
X168285714Y-56707142D01*
X169238095Y-55897619D02*
X169285714Y-55850000D01*
X169380952Y-55802380D01*
X169619047Y-55802380D01*
X169714285Y-55850000D01*
X169761904Y-55897619D01*
X169809523Y-55992857D01*
X169809523Y-56088095D01*
X169761904Y-56230952D01*
X169190476Y-56802380D01*
X169809523Y-56802380D01*
X170190476Y-56754761D02*
X170333333Y-56802380D01*
X170571428Y-56802380D01*
X170666666Y-56754761D01*
X170714285Y-56707142D01*
X170761904Y-56611904D01*
X170761904Y-56516666D01*
X170714285Y-56421428D01*
X170666666Y-56373809D01*
X170571428Y-56326190D01*
X170380952Y-56278571D01*
X170285714Y-56230952D01*
X170238095Y-56183333D01*
X170190476Y-56088095D01*
X170190476Y-55992857D01*
X170238095Y-55897619D01*
X170285714Y-55850000D01*
X170380952Y-55802380D01*
X170619047Y-55802380D01*
X170761904Y-55850000D01*
X171714285Y-56802380D02*
X171142857Y-56802380D01*
X171428571Y-56802380D02*
X171428571Y-55802380D01*
X171333333Y-55945238D01*
X171238095Y-56040476D01*
X171142857Y-56088095D01*
%TO.C,C24*%
X170357142Y-71207142D02*
X170309523Y-71254761D01*
X170166666Y-71302380D01*
X170071428Y-71302380D01*
X169928571Y-71254761D01*
X169833333Y-71159523D01*
X169785714Y-71064285D01*
X169738095Y-70873809D01*
X169738095Y-70730952D01*
X169785714Y-70540476D01*
X169833333Y-70445238D01*
X169928571Y-70350000D01*
X170071428Y-70302380D01*
X170166666Y-70302380D01*
X170309523Y-70350000D01*
X170357142Y-70397619D01*
X170738095Y-70397619D02*
X170785714Y-70350000D01*
X170880952Y-70302380D01*
X171119047Y-70302380D01*
X171214285Y-70350000D01*
X171261904Y-70397619D01*
X171309523Y-70492857D01*
X171309523Y-70588095D01*
X171261904Y-70730952D01*
X170690476Y-71302380D01*
X171309523Y-71302380D01*
X172166666Y-70635714D02*
X172166666Y-71302380D01*
X171928571Y-70254761D02*
X171690476Y-70969047D01*
X172309523Y-70969047D01*
%TO.C,C25*%
X163357142Y-90357142D02*
X163309523Y-90404761D01*
X163166666Y-90452380D01*
X163071428Y-90452380D01*
X162928571Y-90404761D01*
X162833333Y-90309523D01*
X162785714Y-90214285D01*
X162738095Y-90023809D01*
X162738095Y-89880952D01*
X162785714Y-89690476D01*
X162833333Y-89595238D01*
X162928571Y-89500000D01*
X163071428Y-89452380D01*
X163166666Y-89452380D01*
X163309523Y-89500000D01*
X163357142Y-89547619D01*
X163738095Y-89547619D02*
X163785714Y-89500000D01*
X163880952Y-89452380D01*
X164119047Y-89452380D01*
X164214285Y-89500000D01*
X164261904Y-89547619D01*
X164309523Y-89642857D01*
X164309523Y-89738095D01*
X164261904Y-89880952D01*
X163690476Y-90452380D01*
X164309523Y-90452380D01*
X165214285Y-89452380D02*
X164738095Y-89452380D01*
X164690476Y-89928571D01*
X164738095Y-89880952D01*
X164833333Y-89833333D01*
X165071428Y-89833333D01*
X165166666Y-89880952D01*
X165214285Y-89928571D01*
X165261904Y-90023809D01*
X165261904Y-90261904D01*
X165214285Y-90357142D01*
X165166666Y-90404761D01*
X165071428Y-90452380D01*
X164833333Y-90452380D01*
X164738095Y-90404761D01*
X164690476Y-90357142D01*
%TO.C,C26*%
X170357142Y-74707142D02*
X170309523Y-74754761D01*
X170166666Y-74802380D01*
X170071428Y-74802380D01*
X169928571Y-74754761D01*
X169833333Y-74659523D01*
X169785714Y-74564285D01*
X169738095Y-74373809D01*
X169738095Y-74230952D01*
X169785714Y-74040476D01*
X169833333Y-73945238D01*
X169928571Y-73850000D01*
X170071428Y-73802380D01*
X170166666Y-73802380D01*
X170309523Y-73850000D01*
X170357142Y-73897619D01*
X170738095Y-73897619D02*
X170785714Y-73850000D01*
X170880952Y-73802380D01*
X171119047Y-73802380D01*
X171214285Y-73850000D01*
X171261904Y-73897619D01*
X171309523Y-73992857D01*
X171309523Y-74088095D01*
X171261904Y-74230952D01*
X170690476Y-74802380D01*
X171309523Y-74802380D01*
X172166666Y-73802380D02*
X171976190Y-73802380D01*
X171880952Y-73850000D01*
X171833333Y-73897619D01*
X171738095Y-74040476D01*
X171690476Y-74230952D01*
X171690476Y-74611904D01*
X171738095Y-74707142D01*
X171785714Y-74754761D01*
X171880952Y-74802380D01*
X172071428Y-74802380D01*
X172166666Y-74754761D01*
X172214285Y-74707142D01*
X172261904Y-74611904D01*
X172261904Y-74373809D01*
X172214285Y-74278571D01*
X172166666Y-74230952D01*
X172071428Y-74183333D01*
X171880952Y-74183333D01*
X171785714Y-74230952D01*
X171738095Y-74278571D01*
X171690476Y-74373809D01*
%TO.C,C27*%
X161357142Y-83857142D02*
X161309523Y-83904761D01*
X161166666Y-83952380D01*
X161071428Y-83952380D01*
X160928571Y-83904761D01*
X160833333Y-83809523D01*
X160785714Y-83714285D01*
X160738095Y-83523809D01*
X160738095Y-83380952D01*
X160785714Y-83190476D01*
X160833333Y-83095238D01*
X160928571Y-83000000D01*
X161071428Y-82952380D01*
X161166666Y-82952380D01*
X161309523Y-83000000D01*
X161357142Y-83047619D01*
X161738095Y-83047619D02*
X161785714Y-83000000D01*
X161880952Y-82952380D01*
X162119047Y-82952380D01*
X162214285Y-83000000D01*
X162261904Y-83047619D01*
X162309523Y-83142857D01*
X162309523Y-83238095D01*
X162261904Y-83380952D01*
X161690476Y-83952380D01*
X162309523Y-83952380D01*
X162642857Y-82952380D02*
X163309523Y-82952380D01*
X162880952Y-83952380D01*
%TD*%
M02*
