M48
; DRILL file {KiCad (5.1.10)-1} date 06/10/22 11:26:07
; FORMAT={-:-/ absolute / inch / decimal}
; #@! TF.CreationDate,2022-06-10T11:26:07+02:00
; #@! TF.GenerationSoftware,Kicad,Pcbnew,(5.1.10)-1
; #@! TF.FileFunction,Plated,1,2,PTH
FMAT,2
INCH
T1C0.0138
T2C0.0382
T3C0.0390
T4C0.0394
T5C0.0520
T6C0.0630
T7C0.0728
%
G90
G05
T1
X4.4488Y-2.3228
X4.6654Y-3.5236
X5.0591Y-2.2835
X5.2165Y-3.5335
X5.2165Y-4.6654
X5.2948Y-3.6816
X5.687Y-2.9173
X5.7692Y-4.6029
X5.7692Y-4.6275
X6.1417Y-2.6575
X6.1417Y-3.7598
X6.3583Y-2.0197
X6.3583Y-4.0551
X6.6909Y-2.7776
X8.0315Y-2.8937
X8.0315Y-2.9331
X8.0315Y-4.1339
X8.0315Y-4.4094
X8.0315Y-4.4488
T2
X4.4323Y-3.6402
X4.4323Y-3.7402
T3
X6.8504Y-2.6969
X6.8504Y-2.874
X6.8504Y-3.5433
X6.8504Y-3.7205
X7.1063Y-2.6969
X7.1063Y-2.874
X7.1063Y-3.5433
X7.1063Y-3.7205
T4
X4.0551Y-2.4803
X4.1142Y-4.1732
X4.7244Y-2.7346
X4.7244Y-2.8346
X4.7244Y-3.1299
X4.7244Y-3.2299
X4.8819Y-2.7346
X4.8819Y-2.8346
X4.8819Y-3.1283
X4.8819Y-3.2283
X5.0394Y-2.7362
X5.0394Y-2.8362
X5.0394Y-3.1299
X5.0394Y-3.2299
X5.215Y-3.0709
X5.315Y-3.0709
X5.689Y-3.7579
X5.748Y-2.7953
X5.8465Y-3.2087
X5.8661Y-3.7598
X5.9961Y-3.2106
X6.0961Y-3.2106
X6.2205Y-3.4449
X6.5295Y-3.7244
X6.5945Y-2.126
X6.8799Y-2.9862
X7.1063Y-2.126
X7.2402Y-3.2441
X7.3803Y-2.0472
X7.4606Y-3.8012
X7.4803Y-2.0472
X7.5591Y-2.6575
X7.5606Y-3.8012
X7.5803Y-2.0472
X7.6378Y-2.4606
X7.6591Y-2.6575
X7.6606Y-3.8012
X7.7378Y-2.4606
X7.7591Y-2.6575
X7.7606Y-3.8012
X7.8028Y-4.5063
X7.8028Y-4.6063
X7.8591Y-2.6575
X7.9591Y-2.6575
X8.0591Y-2.6575
X8.1693Y-3.7717
X8.1693Y-3.8717
X8.1693Y-3.9717
X8.1693Y-4.0717
X8.1693Y-4.1717
X8.1693Y-4.2717
X8.2677Y-2.5197
T5
X5.0744Y-4.2913
X7.9177Y-4.2913
T6
X4.148Y-2.8567
X4.1884Y-2.7593
X4.2636Y-2.879
X4.2858Y-2.7189
X4.2858Y-2.9945
X4.3833Y-2.7593
X4.3833Y-2.9541
X4.4236Y-2.8567
T7
X4.7835Y-3.9685
X4.7835Y-4.1535
X4.7835Y-4.3386
T0
M30
