%TF.GenerationSoftware,KiCad,Pcbnew,(5.1.10)-1*%
%TF.CreationDate,2022-05-25T15:21:49+02:00*%
%TF.ProjectId,NGL_Proto_EURO,4e474c5f-5072-46f7-946f-5f4555524f2e,V1*%
%TF.SameCoordinates,Original*%
%TF.FileFunction,Legend,Bot*%
%TF.FilePolarity,Positive*%
%FSLAX46Y46*%
G04 Gerber Fmt 4.6, Leading zero omitted, Abs format (unit mm)*
G04 Created by KiCad (PCBNEW (5.1.10)-1) date 2022-05-25 15:21:49*
%MOMM*%
%LPD*%
G01*
G04 APERTURE LIST*
%ADD10C,0.150000*%
%ADD11C,0.300000*%
%ADD12C,0.010000*%
%ADD13C,0.200000*%
%ADD14C,0.127000*%
%ADD15C,0.120000*%
%ADD16C,0.050000*%
G04 APERTURE END LIST*
D10*
X212900000Y-72453571D02*
X212792857Y-72489285D01*
X212614285Y-72489285D01*
X212542857Y-72453571D01*
X212507142Y-72417857D01*
X212471428Y-72346428D01*
X212471428Y-72275000D01*
X212507142Y-72203571D01*
X212542857Y-72167857D01*
X212614285Y-72132142D01*
X212757142Y-72096428D01*
X212828571Y-72060714D01*
X212864285Y-72025000D01*
X212900000Y-71953571D01*
X212900000Y-71882142D01*
X212864285Y-71810714D01*
X212828571Y-71775000D01*
X212757142Y-71739285D01*
X212578571Y-71739285D01*
X212471428Y-71775000D01*
X212007142Y-71739285D02*
X211864285Y-71739285D01*
X211792857Y-71775000D01*
X211721428Y-71846428D01*
X211685714Y-71989285D01*
X211685714Y-72239285D01*
X211721428Y-72382142D01*
X211792857Y-72453571D01*
X211864285Y-72489285D01*
X212007142Y-72489285D01*
X212078571Y-72453571D01*
X212150000Y-72382142D01*
X212185714Y-72239285D01*
X212185714Y-71989285D01*
X212150000Y-71846428D01*
X212078571Y-71775000D01*
X212007142Y-71739285D01*
X211364285Y-72489285D02*
X211364285Y-71739285D01*
X210935714Y-72489285D01*
X210935714Y-71739285D01*
X210578571Y-72489285D02*
X210578571Y-71739285D01*
X210400000Y-71739285D01*
X210292857Y-71775000D01*
X210221428Y-71846428D01*
X210185714Y-71917857D01*
X210150000Y-72060714D01*
X210150000Y-72167857D01*
X210185714Y-72310714D01*
X210221428Y-72382142D01*
X210292857Y-72453571D01*
X210400000Y-72489285D01*
X210578571Y-72489285D01*
X209828571Y-72096428D02*
X209578571Y-72096428D01*
X209471428Y-72489285D02*
X209828571Y-72489285D01*
X209828571Y-71739285D01*
X209471428Y-71739285D01*
X208578571Y-72489285D02*
X208578571Y-71739285D01*
X208400000Y-71739285D01*
X208292857Y-71775000D01*
X208221428Y-71846428D01*
X208185714Y-71917857D01*
X208150000Y-72060714D01*
X208150000Y-72167857D01*
X208185714Y-72310714D01*
X208221428Y-72382142D01*
X208292857Y-72453571D01*
X208400000Y-72489285D01*
X208578571Y-72489285D01*
X207828571Y-72489285D02*
X207828571Y-71739285D01*
X207471428Y-72489285D02*
X207471428Y-71739285D01*
X207042857Y-72489285D01*
X207042857Y-71739285D01*
X206578571Y-72060714D02*
X206650000Y-72025000D01*
X206685714Y-71989285D01*
X206721428Y-71917857D01*
X206721428Y-71882142D01*
X206685714Y-71810714D01*
X206650000Y-71775000D01*
X206578571Y-71739285D01*
X206435714Y-71739285D01*
X206364285Y-71775000D01*
X206328571Y-71810714D01*
X206292857Y-71882142D01*
X206292857Y-71917857D01*
X206328571Y-71989285D01*
X206364285Y-72025000D01*
X206435714Y-72060714D01*
X206578571Y-72060714D01*
X206650000Y-72096428D01*
X206685714Y-72132142D01*
X206721428Y-72203571D01*
X206721428Y-72346428D01*
X206685714Y-72417857D01*
X206650000Y-72453571D01*
X206578571Y-72489285D01*
X206435714Y-72489285D01*
X206364285Y-72453571D01*
X206328571Y-72417857D01*
X206292857Y-72346428D01*
X206292857Y-72203571D01*
X206328571Y-72132142D01*
X206364285Y-72096428D01*
X206435714Y-72060714D01*
X204971428Y-72417857D02*
X205007142Y-72453571D01*
X205114285Y-72489285D01*
X205185714Y-72489285D01*
X205292857Y-72453571D01*
X205364285Y-72382142D01*
X205400000Y-72310714D01*
X205435714Y-72167857D01*
X205435714Y-72060714D01*
X205400000Y-71917857D01*
X205364285Y-71846428D01*
X205292857Y-71775000D01*
X205185714Y-71739285D01*
X205114285Y-71739285D01*
X205007142Y-71775000D01*
X204971428Y-71810714D01*
X204507142Y-71739285D02*
X204364285Y-71739285D01*
X204292857Y-71775000D01*
X204221428Y-71846428D01*
X204185714Y-71989285D01*
X204185714Y-72239285D01*
X204221428Y-72382142D01*
X204292857Y-72453571D01*
X204364285Y-72489285D01*
X204507142Y-72489285D01*
X204578571Y-72453571D01*
X204650000Y-72382142D01*
X204685714Y-72239285D01*
X204685714Y-71989285D01*
X204650000Y-71846428D01*
X204578571Y-71775000D01*
X204507142Y-71739285D01*
X203864285Y-72489285D02*
X203864285Y-71739285D01*
X203435714Y-72489285D01*
X203435714Y-71739285D01*
X203078571Y-72489285D02*
X203078571Y-71739285D01*
X202900000Y-71739285D01*
X202792857Y-71775000D01*
X202721428Y-71846428D01*
X202685714Y-71917857D01*
X202650000Y-72060714D01*
X202650000Y-72167857D01*
X202685714Y-72310714D01*
X202721428Y-72382142D01*
X202792857Y-72453571D01*
X202900000Y-72489285D01*
X203078571Y-72489285D01*
X201900000Y-72417857D02*
X201935714Y-72453571D01*
X202042857Y-72489285D01*
X202114285Y-72489285D01*
X202221428Y-72453571D01*
X202292857Y-72382142D01*
X202328571Y-72310714D01*
X202364285Y-72167857D01*
X202364285Y-72060714D01*
X202328571Y-71917857D01*
X202292857Y-71846428D01*
X202221428Y-71775000D01*
X202114285Y-71739285D01*
X202042857Y-71739285D01*
X201935714Y-71775000D01*
X201900000Y-71810714D01*
X201578571Y-71739285D02*
X201578571Y-72346428D01*
X201542857Y-72417857D01*
X201507142Y-72453571D01*
X201435714Y-72489285D01*
X201292857Y-72489285D01*
X201221428Y-72453571D01*
X201185714Y-72417857D01*
X201150000Y-72346428D01*
X201150000Y-71739285D01*
X200364285Y-72417857D02*
X200400000Y-72453571D01*
X200507142Y-72489285D01*
X200578571Y-72489285D01*
X200685714Y-72453571D01*
X200757142Y-72382142D01*
X200792857Y-72310714D01*
X200828571Y-72167857D01*
X200828571Y-72060714D01*
X200792857Y-71917857D01*
X200757142Y-71846428D01*
X200685714Y-71775000D01*
X200578571Y-71739285D01*
X200507142Y-71739285D01*
X200400000Y-71775000D01*
X200364285Y-71810714D01*
X200150000Y-71739285D02*
X199721428Y-71739285D01*
X199935714Y-72489285D02*
X199935714Y-71739285D01*
X199471428Y-72489285D02*
X199471428Y-71739285D01*
X199221428Y-71739285D02*
X198971428Y-72489285D01*
X198721428Y-71739285D01*
X198471428Y-72489285D02*
X198471428Y-71739285D01*
X198114285Y-72489285D02*
X198114285Y-71739285D01*
X197864285Y-72275000D01*
X197614285Y-71739285D01*
X197614285Y-72489285D01*
X197257142Y-72096428D02*
X197007142Y-72096428D01*
X196900000Y-72489285D02*
X197257142Y-72489285D01*
X197257142Y-71739285D01*
X196900000Y-71739285D01*
X196685714Y-71739285D02*
X196257142Y-71739285D01*
X196471428Y-72489285D02*
X196471428Y-71739285D01*
X195578571Y-72489285D02*
X195828571Y-72132142D01*
X196007142Y-72489285D02*
X196007142Y-71739285D01*
X195721428Y-71739285D01*
X195650000Y-71775000D01*
X195614285Y-71810714D01*
X195578571Y-71882142D01*
X195578571Y-71989285D01*
X195614285Y-72060714D01*
X195650000Y-72096428D01*
X195721428Y-72132142D01*
X196007142Y-72132142D01*
X195257142Y-72096428D02*
X195007142Y-72096428D01*
X194900000Y-72489285D02*
X195257142Y-72489285D01*
X195257142Y-71739285D01*
X194900000Y-71739285D01*
X207614285Y-73478571D02*
X207042857Y-73478571D01*
X206685714Y-73478571D02*
X206114285Y-73478571D01*
X205757142Y-73478571D02*
X205185714Y-73478571D01*
X203864285Y-73764285D02*
X204292857Y-73764285D01*
X204078571Y-73764285D02*
X204078571Y-73014285D01*
X204150000Y-73121428D01*
X204221428Y-73192857D01*
X204292857Y-73228571D01*
X203542857Y-73478571D02*
X202971428Y-73478571D01*
X202614285Y-73478571D02*
X202042857Y-73478571D01*
X201685714Y-73478571D02*
X201114285Y-73478571D01*
X200757142Y-73478571D02*
X200185714Y-73478571D01*
X209703571Y-75039285D02*
X209703571Y-74289285D01*
X209453571Y-74825000D01*
X209203571Y-74289285D01*
X209203571Y-75039285D01*
X208560714Y-75003571D02*
X208632142Y-75039285D01*
X208775000Y-75039285D01*
X208846428Y-75003571D01*
X208882142Y-74932142D01*
X208882142Y-74646428D01*
X208846428Y-74575000D01*
X208775000Y-74539285D01*
X208632142Y-74539285D01*
X208560714Y-74575000D01*
X208525000Y-74646428D01*
X208525000Y-74717857D01*
X208882142Y-74789285D01*
X208239285Y-75003571D02*
X208167857Y-75039285D01*
X208025000Y-75039285D01*
X207953571Y-75003571D01*
X207917857Y-74932142D01*
X207917857Y-74896428D01*
X207953571Y-74825000D01*
X208025000Y-74789285D01*
X208132142Y-74789285D01*
X208203571Y-74753571D01*
X208239285Y-74682142D01*
X208239285Y-74646428D01*
X208203571Y-74575000D01*
X208132142Y-74539285D01*
X208025000Y-74539285D01*
X207953571Y-74575000D01*
X207275000Y-74539285D02*
X207275000Y-75039285D01*
X207596428Y-74539285D02*
X207596428Y-74932142D01*
X207560714Y-75003571D01*
X207489285Y-75039285D01*
X207382142Y-75039285D01*
X207310714Y-75003571D01*
X207275000Y-74967857D01*
X206917857Y-75039285D02*
X206917857Y-74539285D01*
X206917857Y-74682142D02*
X206882142Y-74610714D01*
X206846428Y-74575000D01*
X206775000Y-74539285D01*
X206703571Y-74539285D01*
X206167857Y-75003571D02*
X206239285Y-75039285D01*
X206382142Y-75039285D01*
X206453571Y-75003571D01*
X206489285Y-74932142D01*
X206489285Y-74646428D01*
X206453571Y-74575000D01*
X206382142Y-74539285D01*
X206239285Y-74539285D01*
X206167857Y-74575000D01*
X206132142Y-74646428D01*
X206132142Y-74717857D01*
X206489285Y-74789285D01*
X205275000Y-74360714D02*
X205239285Y-74325000D01*
X205167857Y-74289285D01*
X204989285Y-74289285D01*
X204917857Y-74325000D01*
X204882142Y-74360714D01*
X204846428Y-74432142D01*
X204846428Y-74503571D01*
X204882142Y-74610714D01*
X205310714Y-75039285D01*
X204846428Y-75039285D01*
X204060714Y-74539285D02*
X203775000Y-74539285D01*
X203953571Y-75039285D02*
X203953571Y-74396428D01*
X203917857Y-74325000D01*
X203846428Y-74289285D01*
X203775000Y-74289285D01*
X203525000Y-75039285D02*
X203525000Y-74539285D01*
X203525000Y-74289285D02*
X203560714Y-74325000D01*
X203525000Y-74360714D01*
X203489285Y-74325000D01*
X203525000Y-74289285D01*
X203525000Y-74360714D01*
X203060714Y-75039285D02*
X203132142Y-75003571D01*
X203167857Y-74932142D01*
X203167857Y-74289285D01*
X202810714Y-75003571D02*
X202739285Y-75039285D01*
X202596428Y-75039285D01*
X202525000Y-75003571D01*
X202489285Y-74932142D01*
X202489285Y-74896428D01*
X202525000Y-74825000D01*
X202596428Y-74789285D01*
X202703571Y-74789285D01*
X202775000Y-74753571D01*
X202810714Y-74682142D01*
X202810714Y-74646428D01*
X202775000Y-74575000D01*
X202703571Y-74539285D01*
X202596428Y-74539285D01*
X202525000Y-74575000D01*
X201275000Y-75039285D02*
X201275000Y-74289285D01*
X201275000Y-75003571D02*
X201346428Y-75039285D01*
X201489285Y-75039285D01*
X201560714Y-75003571D01*
X201596428Y-74967857D01*
X201632142Y-74896428D01*
X201632142Y-74682142D01*
X201596428Y-74610714D01*
X201560714Y-74575000D01*
X201489285Y-74539285D01*
X201346428Y-74539285D01*
X201275000Y-74575000D01*
X200917857Y-75039285D02*
X200917857Y-74539285D01*
X200917857Y-74289285D02*
X200953571Y-74325000D01*
X200917857Y-74360714D01*
X200882142Y-74325000D01*
X200917857Y-74289285D01*
X200917857Y-74360714D01*
X200560714Y-75039285D02*
X200560714Y-74539285D01*
X200560714Y-74682142D02*
X200525000Y-74610714D01*
X200489285Y-74575000D01*
X200417857Y-74539285D01*
X200346428Y-74539285D01*
X199810714Y-75003571D02*
X199882142Y-75039285D01*
X200025000Y-75039285D01*
X200096428Y-75003571D01*
X200132142Y-74932142D01*
X200132142Y-74646428D01*
X200096428Y-74575000D01*
X200025000Y-74539285D01*
X199882142Y-74539285D01*
X199810714Y-74575000D01*
X199775000Y-74646428D01*
X199775000Y-74717857D01*
X200132142Y-74789285D01*
X199132142Y-75003571D02*
X199203571Y-75039285D01*
X199346428Y-75039285D01*
X199417857Y-75003571D01*
X199453571Y-74967857D01*
X199489285Y-74896428D01*
X199489285Y-74682142D01*
X199453571Y-74610714D01*
X199417857Y-74575000D01*
X199346428Y-74539285D01*
X199203571Y-74539285D01*
X199132142Y-74575000D01*
X198917857Y-74539285D02*
X198632142Y-74539285D01*
X198810714Y-74289285D02*
X198810714Y-74932142D01*
X198775000Y-75003571D01*
X198703571Y-75039285D01*
X198632142Y-75039285D01*
X198096428Y-75003571D02*
X198167857Y-75039285D01*
X198310714Y-75039285D01*
X198382142Y-75003571D01*
X198417857Y-74932142D01*
X198417857Y-74646428D01*
X198382142Y-74575000D01*
X198310714Y-74539285D01*
X198167857Y-74539285D01*
X198096428Y-74575000D01*
X198060714Y-74646428D01*
X198060714Y-74717857D01*
X198417857Y-74789285D01*
X207864285Y-75564285D02*
X207864285Y-76100000D01*
X207900000Y-76207142D01*
X207971428Y-76278571D01*
X208078571Y-76314285D01*
X208150000Y-76314285D01*
X207507142Y-76314285D02*
X207507142Y-75564285D01*
X207221428Y-75564285D01*
X207150000Y-75600000D01*
X207114285Y-75635714D01*
X207078571Y-75707142D01*
X207078571Y-75814285D01*
X207114285Y-75885714D01*
X207150000Y-75921428D01*
X207221428Y-75957142D01*
X207507142Y-75957142D01*
X206364285Y-76314285D02*
X206792857Y-76314285D01*
X206578571Y-76314285D02*
X206578571Y-75564285D01*
X206650000Y-75671428D01*
X206721428Y-75742857D01*
X206792857Y-75778571D01*
X205900000Y-75564285D02*
X205828571Y-75564285D01*
X205757142Y-75600000D01*
X205721428Y-75635714D01*
X205685714Y-75707142D01*
X205650000Y-75850000D01*
X205650000Y-76028571D01*
X205685714Y-76171428D01*
X205721428Y-76242857D01*
X205757142Y-76278571D01*
X205828571Y-76314285D01*
X205900000Y-76314285D01*
X205971428Y-76278571D01*
X206007142Y-76242857D01*
X206042857Y-76171428D01*
X206078571Y-76028571D01*
X206078571Y-75850000D01*
X206042857Y-75707142D01*
X206007142Y-75635714D01*
X205971428Y-75600000D01*
X205900000Y-75564285D01*
X204542857Y-75564285D02*
X204542857Y-76100000D01*
X204578571Y-76207142D01*
X204650000Y-76278571D01*
X204757142Y-76314285D01*
X204828571Y-76314285D01*
X204185714Y-76314285D02*
X204185714Y-75564285D01*
X203900000Y-75564285D01*
X203828571Y-75600000D01*
X203792857Y-75635714D01*
X203757142Y-75707142D01*
X203757142Y-75814285D01*
X203792857Y-75885714D01*
X203828571Y-75921428D01*
X203900000Y-75957142D01*
X204185714Y-75957142D01*
X203328571Y-75885714D02*
X203400000Y-75850000D01*
X203435714Y-75814285D01*
X203471428Y-75742857D01*
X203471428Y-75707142D01*
X203435714Y-75635714D01*
X203400000Y-75600000D01*
X203328571Y-75564285D01*
X203185714Y-75564285D01*
X203114285Y-75600000D01*
X203078571Y-75635714D01*
X203042857Y-75707142D01*
X203042857Y-75742857D01*
X203078571Y-75814285D01*
X203114285Y-75850000D01*
X203185714Y-75885714D01*
X203328571Y-75885714D01*
X203400000Y-75921428D01*
X203435714Y-75957142D01*
X203471428Y-76028571D01*
X203471428Y-76171428D01*
X203435714Y-76242857D01*
X203400000Y-76278571D01*
X203328571Y-76314285D01*
X203185714Y-76314285D01*
X203114285Y-76278571D01*
X203078571Y-76242857D01*
X203042857Y-76171428D01*
X203042857Y-76028571D01*
X203078571Y-75957142D01*
X203114285Y-75921428D01*
X203185714Y-75885714D01*
X202007142Y-75564285D02*
X201864285Y-75564285D01*
X201792857Y-75600000D01*
X201721428Y-75671428D01*
X201685714Y-75814285D01*
X201685714Y-76064285D01*
X201721428Y-76207142D01*
X201792857Y-76278571D01*
X201864285Y-76314285D01*
X202007142Y-76314285D01*
X202078571Y-76278571D01*
X202150000Y-76207142D01*
X202185714Y-76064285D01*
X202185714Y-75814285D01*
X202150000Y-75671428D01*
X202078571Y-75600000D01*
X202007142Y-75564285D01*
X201364285Y-75814285D02*
X201364285Y-76564285D01*
X201364285Y-75850000D02*
X201292857Y-75814285D01*
X201150000Y-75814285D01*
X201078571Y-75850000D01*
X201042857Y-75885714D01*
X201007142Y-75957142D01*
X201007142Y-76171428D01*
X201042857Y-76242857D01*
X201078571Y-76278571D01*
X201150000Y-76314285D01*
X201292857Y-76314285D01*
X201364285Y-76278571D01*
X200400000Y-76278571D02*
X200471428Y-76314285D01*
X200614285Y-76314285D01*
X200685714Y-76278571D01*
X200721428Y-76207142D01*
X200721428Y-75921428D01*
X200685714Y-75850000D01*
X200614285Y-75814285D01*
X200471428Y-75814285D01*
X200400000Y-75850000D01*
X200364285Y-75921428D01*
X200364285Y-75992857D01*
X200721428Y-76064285D01*
X200042857Y-75814285D02*
X200042857Y-76314285D01*
X200042857Y-75885714D02*
X200007142Y-75850000D01*
X199935714Y-75814285D01*
X199828571Y-75814285D01*
X199757142Y-75850000D01*
X199721428Y-75921428D01*
X199721428Y-76314285D01*
X210596428Y-76839285D02*
X210596428Y-77375000D01*
X210632142Y-77482142D01*
X210703571Y-77553571D01*
X210810714Y-77589285D01*
X210882142Y-77589285D01*
X210239285Y-77589285D02*
X210239285Y-76839285D01*
X209953571Y-76839285D01*
X209882142Y-76875000D01*
X209846428Y-76910714D01*
X209810714Y-76982142D01*
X209810714Y-77089285D01*
X209846428Y-77160714D01*
X209882142Y-77196428D01*
X209953571Y-77232142D01*
X210239285Y-77232142D01*
X209096428Y-77589285D02*
X209525000Y-77589285D01*
X209310714Y-77589285D02*
X209310714Y-76839285D01*
X209382142Y-76946428D01*
X209453571Y-77017857D01*
X209525000Y-77053571D01*
X207989285Y-76839285D02*
X207989285Y-77375000D01*
X208025000Y-77482142D01*
X208096428Y-77553571D01*
X208203571Y-77589285D01*
X208275000Y-77589285D01*
X207632142Y-77589285D02*
X207632142Y-76839285D01*
X207346428Y-76839285D01*
X207275000Y-76875000D01*
X207239285Y-76910714D01*
X207203571Y-76982142D01*
X207203571Y-77089285D01*
X207239285Y-77160714D01*
X207275000Y-77196428D01*
X207346428Y-77232142D01*
X207632142Y-77232142D01*
X206846428Y-77589285D02*
X206703571Y-77589285D01*
X206632142Y-77553571D01*
X206596428Y-77517857D01*
X206525000Y-77410714D01*
X206489285Y-77267857D01*
X206489285Y-76982142D01*
X206525000Y-76910714D01*
X206560714Y-76875000D01*
X206632142Y-76839285D01*
X206775000Y-76839285D01*
X206846428Y-76875000D01*
X206882142Y-76910714D01*
X206917857Y-76982142D01*
X206917857Y-77160714D01*
X206882142Y-77232142D01*
X206846428Y-77267857D01*
X206775000Y-77303571D01*
X206632142Y-77303571D01*
X206560714Y-77267857D01*
X206525000Y-77232142D01*
X206489285Y-77160714D01*
X205382142Y-76839285D02*
X205382142Y-77375000D01*
X205417857Y-77482142D01*
X205489285Y-77553571D01*
X205596428Y-77589285D01*
X205667857Y-77589285D01*
X205025000Y-77589285D02*
X205025000Y-76839285D01*
X204739285Y-76839285D01*
X204667857Y-76875000D01*
X204632142Y-76910714D01*
X204596428Y-76982142D01*
X204596428Y-77089285D01*
X204632142Y-77160714D01*
X204667857Y-77196428D01*
X204739285Y-77232142D01*
X205025000Y-77232142D01*
X204310714Y-76910714D02*
X204275000Y-76875000D01*
X204203571Y-76839285D01*
X204025000Y-76839285D01*
X203953571Y-76875000D01*
X203917857Y-76910714D01*
X203882142Y-76982142D01*
X203882142Y-77053571D01*
X203917857Y-77160714D01*
X204346428Y-77589285D01*
X203882142Y-77589285D01*
X202775000Y-76839285D02*
X202775000Y-77375000D01*
X202810714Y-77482142D01*
X202882142Y-77553571D01*
X202989285Y-77589285D01*
X203060714Y-77589285D01*
X202417857Y-77589285D02*
X202417857Y-76839285D01*
X202132142Y-76839285D01*
X202060714Y-76875000D01*
X202025000Y-76910714D01*
X201989285Y-76982142D01*
X201989285Y-77089285D01*
X202025000Y-77160714D01*
X202060714Y-77196428D01*
X202132142Y-77232142D01*
X202417857Y-77232142D01*
X201346428Y-77089285D02*
X201346428Y-77589285D01*
X201525000Y-76803571D02*
X201703571Y-77339285D01*
X201239285Y-77339285D01*
X199953571Y-77517857D02*
X199989285Y-77553571D01*
X200096428Y-77589285D01*
X200167857Y-77589285D01*
X200275000Y-77553571D01*
X200346428Y-77482142D01*
X200382142Y-77410714D01*
X200417857Y-77267857D01*
X200417857Y-77160714D01*
X200382142Y-77017857D01*
X200346428Y-76946428D01*
X200275000Y-76875000D01*
X200167857Y-76839285D01*
X200096428Y-76839285D01*
X199989285Y-76875000D01*
X199953571Y-76910714D01*
X199525000Y-77589285D02*
X199596428Y-77553571D01*
X199632142Y-77482142D01*
X199632142Y-76839285D01*
X199132142Y-77589285D02*
X199203571Y-77553571D01*
X199239285Y-77517857D01*
X199275000Y-77446428D01*
X199275000Y-77232142D01*
X199239285Y-77160714D01*
X199203571Y-77125000D01*
X199132142Y-77089285D01*
X199025000Y-77089285D01*
X198953571Y-77125000D01*
X198917857Y-77160714D01*
X198882142Y-77232142D01*
X198882142Y-77446428D01*
X198917857Y-77517857D01*
X198953571Y-77553571D01*
X199025000Y-77589285D01*
X199132142Y-77589285D01*
X198596428Y-77553571D02*
X198525000Y-77589285D01*
X198382142Y-77589285D01*
X198310714Y-77553571D01*
X198275000Y-77482142D01*
X198275000Y-77446428D01*
X198310714Y-77375000D01*
X198382142Y-77339285D01*
X198489285Y-77339285D01*
X198560714Y-77303571D01*
X198596428Y-77232142D01*
X198596428Y-77196428D01*
X198560714Y-77125000D01*
X198489285Y-77089285D01*
X198382142Y-77089285D01*
X198310714Y-77125000D01*
X197667857Y-77553571D02*
X197739285Y-77589285D01*
X197882142Y-77589285D01*
X197953571Y-77553571D01*
X197989285Y-77482142D01*
X197989285Y-77196428D01*
X197953571Y-77125000D01*
X197882142Y-77089285D01*
X197739285Y-77089285D01*
X197667857Y-77125000D01*
X197632142Y-77196428D01*
X197632142Y-77267857D01*
X197989285Y-77339285D01*
X196989285Y-77589285D02*
X196989285Y-76839285D01*
X196989285Y-77553571D02*
X197060714Y-77589285D01*
X197203571Y-77589285D01*
X197275000Y-77553571D01*
X197310714Y-77517857D01*
X197346428Y-77446428D01*
X197346428Y-77232142D01*
X197310714Y-77160714D01*
X197275000Y-77125000D01*
X197203571Y-77089285D01*
X197060714Y-77089285D01*
X196989285Y-77125000D01*
X207900000Y-78578571D02*
X207328571Y-78578571D01*
X206971428Y-78578571D02*
X206400000Y-78578571D01*
X206042857Y-78578571D02*
X205471428Y-78578571D01*
X204578571Y-78185714D02*
X204542857Y-78150000D01*
X204471428Y-78114285D01*
X204292857Y-78114285D01*
X204221428Y-78150000D01*
X204185714Y-78185714D01*
X204150000Y-78257142D01*
X204150000Y-78328571D01*
X204185714Y-78435714D01*
X204614285Y-78864285D01*
X204150000Y-78864285D01*
X203257142Y-78578571D02*
X202685714Y-78578571D01*
X202328571Y-78578571D02*
X201757142Y-78578571D01*
X201400000Y-78578571D02*
X200828571Y-78578571D01*
X200471428Y-78578571D02*
X199900000Y-78578571D01*
X209417857Y-80139285D02*
X209417857Y-79389285D01*
X209167857Y-79925000D01*
X208917857Y-79389285D01*
X208917857Y-80139285D01*
X208275000Y-80103571D02*
X208346428Y-80139285D01*
X208489285Y-80139285D01*
X208560714Y-80103571D01*
X208596428Y-80032142D01*
X208596428Y-79746428D01*
X208560714Y-79675000D01*
X208489285Y-79639285D01*
X208346428Y-79639285D01*
X208275000Y-79675000D01*
X208239285Y-79746428D01*
X208239285Y-79817857D01*
X208596428Y-79889285D01*
X207953571Y-80103571D02*
X207882142Y-80139285D01*
X207739285Y-80139285D01*
X207667857Y-80103571D01*
X207632142Y-80032142D01*
X207632142Y-79996428D01*
X207667857Y-79925000D01*
X207739285Y-79889285D01*
X207846428Y-79889285D01*
X207917857Y-79853571D01*
X207953571Y-79782142D01*
X207953571Y-79746428D01*
X207917857Y-79675000D01*
X207846428Y-79639285D01*
X207739285Y-79639285D01*
X207667857Y-79675000D01*
X206989285Y-79639285D02*
X206989285Y-80139285D01*
X207310714Y-79639285D02*
X207310714Y-80032142D01*
X207275000Y-80103571D01*
X207203571Y-80139285D01*
X207096428Y-80139285D01*
X207025000Y-80103571D01*
X206989285Y-80067857D01*
X206632142Y-80139285D02*
X206632142Y-79639285D01*
X206632142Y-79782142D02*
X206596428Y-79710714D01*
X206560714Y-79675000D01*
X206489285Y-79639285D01*
X206417857Y-79639285D01*
X205882142Y-80103571D02*
X205953571Y-80139285D01*
X206096428Y-80139285D01*
X206167857Y-80103571D01*
X206203571Y-80032142D01*
X206203571Y-79746428D01*
X206167857Y-79675000D01*
X206096428Y-79639285D01*
X205953571Y-79639285D01*
X205882142Y-79675000D01*
X205846428Y-79746428D01*
X205846428Y-79817857D01*
X206203571Y-79889285D01*
X204632142Y-79639285D02*
X204632142Y-80139285D01*
X204810714Y-79353571D02*
X204989285Y-79889285D01*
X204525000Y-79889285D01*
X204346428Y-79639285D02*
X204060714Y-79639285D01*
X204239285Y-80139285D02*
X204239285Y-79496428D01*
X204203571Y-79425000D01*
X204132142Y-79389285D01*
X204060714Y-79389285D01*
X203810714Y-80139285D02*
X203810714Y-79639285D01*
X203810714Y-79389285D02*
X203846428Y-79425000D01*
X203810714Y-79460714D01*
X203775000Y-79425000D01*
X203810714Y-79389285D01*
X203810714Y-79460714D01*
X203346428Y-80139285D02*
X203417857Y-80103571D01*
X203453571Y-80032142D01*
X203453571Y-79389285D01*
X203096428Y-80103571D02*
X203025000Y-80139285D01*
X202882142Y-80139285D01*
X202810714Y-80103571D01*
X202775000Y-80032142D01*
X202775000Y-79996428D01*
X202810714Y-79925000D01*
X202882142Y-79889285D01*
X202989285Y-79889285D01*
X203060714Y-79853571D01*
X203096428Y-79782142D01*
X203096428Y-79746428D01*
X203060714Y-79675000D01*
X202989285Y-79639285D01*
X202882142Y-79639285D01*
X202810714Y-79675000D01*
X201560714Y-80139285D02*
X201560714Y-79389285D01*
X201560714Y-80103571D02*
X201632142Y-80139285D01*
X201775000Y-80139285D01*
X201846428Y-80103571D01*
X201882142Y-80067857D01*
X201917857Y-79996428D01*
X201917857Y-79782142D01*
X201882142Y-79710714D01*
X201846428Y-79675000D01*
X201775000Y-79639285D01*
X201632142Y-79639285D01*
X201560714Y-79675000D01*
X201203571Y-80139285D02*
X201203571Y-79639285D01*
X201203571Y-79389285D02*
X201239285Y-79425000D01*
X201203571Y-79460714D01*
X201167857Y-79425000D01*
X201203571Y-79389285D01*
X201203571Y-79460714D01*
X200846428Y-80139285D02*
X200846428Y-79639285D01*
X200846428Y-79782142D02*
X200810714Y-79710714D01*
X200775000Y-79675000D01*
X200703571Y-79639285D01*
X200632142Y-79639285D01*
X200096428Y-80103571D02*
X200167857Y-80139285D01*
X200310714Y-80139285D01*
X200382142Y-80103571D01*
X200417857Y-80032142D01*
X200417857Y-79746428D01*
X200382142Y-79675000D01*
X200310714Y-79639285D01*
X200167857Y-79639285D01*
X200096428Y-79675000D01*
X200060714Y-79746428D01*
X200060714Y-79817857D01*
X200417857Y-79889285D01*
X199417857Y-80103571D02*
X199489285Y-80139285D01*
X199632142Y-80139285D01*
X199703571Y-80103571D01*
X199739285Y-80067857D01*
X199775000Y-79996428D01*
X199775000Y-79782142D01*
X199739285Y-79710714D01*
X199703571Y-79675000D01*
X199632142Y-79639285D01*
X199489285Y-79639285D01*
X199417857Y-79675000D01*
X199203571Y-79639285D02*
X198917857Y-79639285D01*
X199096428Y-79389285D02*
X199096428Y-80032142D01*
X199060714Y-80103571D01*
X198989285Y-80139285D01*
X198917857Y-80139285D01*
X198382142Y-80103571D02*
X198453571Y-80139285D01*
X198596428Y-80139285D01*
X198667857Y-80103571D01*
X198703571Y-80032142D01*
X198703571Y-79746428D01*
X198667857Y-79675000D01*
X198596428Y-79639285D01*
X198453571Y-79639285D01*
X198382142Y-79675000D01*
X198346428Y-79746428D01*
X198346428Y-79817857D01*
X198703571Y-79889285D01*
X210471428Y-80664285D02*
X210471428Y-81200000D01*
X210507142Y-81307142D01*
X210578571Y-81378571D01*
X210685714Y-81414285D01*
X210757142Y-81414285D01*
X210114285Y-81414285D02*
X210114285Y-80664285D01*
X209828571Y-80664285D01*
X209757142Y-80700000D01*
X209721428Y-80735714D01*
X209685714Y-80807142D01*
X209685714Y-80914285D01*
X209721428Y-80985714D01*
X209757142Y-81021428D01*
X209828571Y-81057142D01*
X210114285Y-81057142D01*
X208971428Y-81414285D02*
X209400000Y-81414285D01*
X209185714Y-81414285D02*
X209185714Y-80664285D01*
X209257142Y-80771428D01*
X209328571Y-80842857D01*
X209400000Y-80878571D01*
X208507142Y-80664285D02*
X208435714Y-80664285D01*
X208364285Y-80700000D01*
X208328571Y-80735714D01*
X208292857Y-80807142D01*
X208257142Y-80950000D01*
X208257142Y-81128571D01*
X208292857Y-81271428D01*
X208328571Y-81342857D01*
X208364285Y-81378571D01*
X208435714Y-81414285D01*
X208507142Y-81414285D01*
X208578571Y-81378571D01*
X208614285Y-81342857D01*
X208650000Y-81271428D01*
X208685714Y-81128571D01*
X208685714Y-80950000D01*
X208650000Y-80807142D01*
X208614285Y-80735714D01*
X208578571Y-80700000D01*
X208507142Y-80664285D01*
X207150000Y-80664285D02*
X207150000Y-81200000D01*
X207185714Y-81307142D01*
X207257142Y-81378571D01*
X207364285Y-81414285D01*
X207435714Y-81414285D01*
X206792857Y-81414285D02*
X206792857Y-80664285D01*
X206507142Y-80664285D01*
X206435714Y-80700000D01*
X206400000Y-80735714D01*
X206364285Y-80807142D01*
X206364285Y-80914285D01*
X206400000Y-80985714D01*
X206435714Y-81021428D01*
X206507142Y-81057142D01*
X206792857Y-81057142D01*
X206078571Y-80735714D02*
X206042857Y-80700000D01*
X205971428Y-80664285D01*
X205792857Y-80664285D01*
X205721428Y-80700000D01*
X205685714Y-80735714D01*
X205650000Y-80807142D01*
X205650000Y-80878571D01*
X205685714Y-80985714D01*
X206114285Y-81414285D01*
X205650000Y-81414285D01*
X204542857Y-80664285D02*
X204542857Y-81200000D01*
X204578571Y-81307142D01*
X204650000Y-81378571D01*
X204757142Y-81414285D01*
X204828571Y-81414285D01*
X204185714Y-81414285D02*
X204185714Y-80664285D01*
X203900000Y-80664285D01*
X203828571Y-80700000D01*
X203792857Y-80735714D01*
X203757142Y-80807142D01*
X203757142Y-80914285D01*
X203792857Y-80985714D01*
X203828571Y-81021428D01*
X203900000Y-81057142D01*
X204185714Y-81057142D01*
X203042857Y-81414285D02*
X203471428Y-81414285D01*
X203257142Y-81414285D02*
X203257142Y-80664285D01*
X203328571Y-80771428D01*
X203400000Y-80842857D01*
X203471428Y-80878571D01*
X201935714Y-80664285D02*
X201935714Y-81200000D01*
X201971428Y-81307142D01*
X202042857Y-81378571D01*
X202150000Y-81414285D01*
X202221428Y-81414285D01*
X201578571Y-81414285D02*
X201578571Y-80664285D01*
X201292857Y-80664285D01*
X201221428Y-80700000D01*
X201185714Y-80735714D01*
X201150000Y-80807142D01*
X201150000Y-80914285D01*
X201185714Y-80985714D01*
X201221428Y-81021428D01*
X201292857Y-81057142D01*
X201578571Y-81057142D01*
X200721428Y-80985714D02*
X200792857Y-80950000D01*
X200828571Y-80914285D01*
X200864285Y-80842857D01*
X200864285Y-80807142D01*
X200828571Y-80735714D01*
X200792857Y-80700000D01*
X200721428Y-80664285D01*
X200578571Y-80664285D01*
X200507142Y-80700000D01*
X200471428Y-80735714D01*
X200435714Y-80807142D01*
X200435714Y-80842857D01*
X200471428Y-80914285D01*
X200507142Y-80950000D01*
X200578571Y-80985714D01*
X200721428Y-80985714D01*
X200792857Y-81021428D01*
X200828571Y-81057142D01*
X200864285Y-81128571D01*
X200864285Y-81271428D01*
X200828571Y-81342857D01*
X200792857Y-81378571D01*
X200721428Y-81414285D01*
X200578571Y-81414285D01*
X200507142Y-81378571D01*
X200471428Y-81342857D01*
X200435714Y-81271428D01*
X200435714Y-81128571D01*
X200471428Y-81057142D01*
X200507142Y-81021428D01*
X200578571Y-80985714D01*
X199400000Y-80664285D02*
X199257142Y-80664285D01*
X199185714Y-80700000D01*
X199114285Y-80771428D01*
X199078571Y-80914285D01*
X199078571Y-81164285D01*
X199114285Y-81307142D01*
X199185714Y-81378571D01*
X199257142Y-81414285D01*
X199400000Y-81414285D01*
X199471428Y-81378571D01*
X199542857Y-81307142D01*
X199578571Y-81164285D01*
X199578571Y-80914285D01*
X199542857Y-80771428D01*
X199471428Y-80700000D01*
X199400000Y-80664285D01*
X198757142Y-80914285D02*
X198757142Y-81664285D01*
X198757142Y-80950000D02*
X198685714Y-80914285D01*
X198542857Y-80914285D01*
X198471428Y-80950000D01*
X198435714Y-80985714D01*
X198400000Y-81057142D01*
X198400000Y-81271428D01*
X198435714Y-81342857D01*
X198471428Y-81378571D01*
X198542857Y-81414285D01*
X198685714Y-81414285D01*
X198757142Y-81378571D01*
X197792857Y-81378571D02*
X197864285Y-81414285D01*
X198007142Y-81414285D01*
X198078571Y-81378571D01*
X198114285Y-81307142D01*
X198114285Y-81021428D01*
X198078571Y-80950000D01*
X198007142Y-80914285D01*
X197864285Y-80914285D01*
X197792857Y-80950000D01*
X197757142Y-81021428D01*
X197757142Y-81092857D01*
X198114285Y-81164285D01*
X197435714Y-80914285D02*
X197435714Y-81414285D01*
X197435714Y-80985714D02*
X197400000Y-80950000D01*
X197328571Y-80914285D01*
X197221428Y-80914285D01*
X197150000Y-80950000D01*
X197114285Y-81021428D01*
X197114285Y-81414285D01*
X207989285Y-81939285D02*
X207989285Y-82475000D01*
X208025000Y-82582142D01*
X208096428Y-82653571D01*
X208203571Y-82689285D01*
X208275000Y-82689285D01*
X207632142Y-82689285D02*
X207632142Y-81939285D01*
X207346428Y-81939285D01*
X207275000Y-81975000D01*
X207239285Y-82010714D01*
X207203571Y-82082142D01*
X207203571Y-82189285D01*
X207239285Y-82260714D01*
X207275000Y-82296428D01*
X207346428Y-82332142D01*
X207632142Y-82332142D01*
X206560714Y-82189285D02*
X206560714Y-82689285D01*
X206739285Y-81903571D02*
X206917857Y-82439285D01*
X206453571Y-82439285D01*
X205382142Y-81939285D02*
X205382142Y-82475000D01*
X205417857Y-82582142D01*
X205489285Y-82653571D01*
X205596428Y-82689285D01*
X205667857Y-82689285D01*
X205025000Y-82689285D02*
X205025000Y-81939285D01*
X204739285Y-81939285D01*
X204667857Y-81975000D01*
X204632142Y-82010714D01*
X204596428Y-82082142D01*
X204596428Y-82189285D01*
X204632142Y-82260714D01*
X204667857Y-82296428D01*
X204739285Y-82332142D01*
X205025000Y-82332142D01*
X204239285Y-82689285D02*
X204096428Y-82689285D01*
X204025000Y-82653571D01*
X203989285Y-82617857D01*
X203917857Y-82510714D01*
X203882142Y-82367857D01*
X203882142Y-82082142D01*
X203917857Y-82010714D01*
X203953571Y-81975000D01*
X204025000Y-81939285D01*
X204167857Y-81939285D01*
X204239285Y-81975000D01*
X204275000Y-82010714D01*
X204310714Y-82082142D01*
X204310714Y-82260714D01*
X204275000Y-82332142D01*
X204239285Y-82367857D01*
X204167857Y-82403571D01*
X204025000Y-82403571D01*
X203953571Y-82367857D01*
X203917857Y-82332142D01*
X203882142Y-82260714D01*
X202560714Y-82617857D02*
X202596428Y-82653571D01*
X202703571Y-82689285D01*
X202775000Y-82689285D01*
X202882142Y-82653571D01*
X202953571Y-82582142D01*
X202989285Y-82510714D01*
X203025000Y-82367857D01*
X203025000Y-82260714D01*
X202989285Y-82117857D01*
X202953571Y-82046428D01*
X202882142Y-81975000D01*
X202775000Y-81939285D01*
X202703571Y-81939285D01*
X202596428Y-81975000D01*
X202560714Y-82010714D01*
X202132142Y-82689285D02*
X202203571Y-82653571D01*
X202239285Y-82582142D01*
X202239285Y-81939285D01*
X201739285Y-82689285D02*
X201810714Y-82653571D01*
X201846428Y-82617857D01*
X201882142Y-82546428D01*
X201882142Y-82332142D01*
X201846428Y-82260714D01*
X201810714Y-82225000D01*
X201739285Y-82189285D01*
X201632142Y-82189285D01*
X201560714Y-82225000D01*
X201525000Y-82260714D01*
X201489285Y-82332142D01*
X201489285Y-82546428D01*
X201525000Y-82617857D01*
X201560714Y-82653571D01*
X201632142Y-82689285D01*
X201739285Y-82689285D01*
X201203571Y-82653571D02*
X201132142Y-82689285D01*
X200989285Y-82689285D01*
X200917857Y-82653571D01*
X200882142Y-82582142D01*
X200882142Y-82546428D01*
X200917857Y-82475000D01*
X200989285Y-82439285D01*
X201096428Y-82439285D01*
X201167857Y-82403571D01*
X201203571Y-82332142D01*
X201203571Y-82296428D01*
X201167857Y-82225000D01*
X201096428Y-82189285D01*
X200989285Y-82189285D01*
X200917857Y-82225000D01*
X200275000Y-82653571D02*
X200346428Y-82689285D01*
X200489285Y-82689285D01*
X200560714Y-82653571D01*
X200596428Y-82582142D01*
X200596428Y-82296428D01*
X200560714Y-82225000D01*
X200489285Y-82189285D01*
X200346428Y-82189285D01*
X200275000Y-82225000D01*
X200239285Y-82296428D01*
X200239285Y-82367857D01*
X200596428Y-82439285D01*
X199596428Y-82689285D02*
X199596428Y-81939285D01*
X199596428Y-82653571D02*
X199667857Y-82689285D01*
X199810714Y-82689285D01*
X199882142Y-82653571D01*
X199917857Y-82617857D01*
X199953571Y-82546428D01*
X199953571Y-82332142D01*
X199917857Y-82260714D01*
X199882142Y-82225000D01*
X199810714Y-82189285D01*
X199667857Y-82189285D01*
X199596428Y-82225000D01*
X208650000Y-83678571D02*
X208078571Y-83678571D01*
X207721428Y-83678571D02*
X207150000Y-83678571D01*
X206792857Y-83678571D02*
X206221428Y-83678571D01*
X205864285Y-83678571D02*
X205292857Y-83678571D01*
X204435714Y-83214285D02*
X203971428Y-83214285D01*
X204221428Y-83500000D01*
X204114285Y-83500000D01*
X204042857Y-83535714D01*
X204007142Y-83571428D01*
X203971428Y-83642857D01*
X203971428Y-83821428D01*
X204007142Y-83892857D01*
X204042857Y-83928571D01*
X204114285Y-83964285D01*
X204328571Y-83964285D01*
X204400000Y-83928571D01*
X204435714Y-83892857D01*
X203078571Y-83678571D02*
X202507142Y-83678571D01*
X202150000Y-83678571D02*
X201578571Y-83678571D01*
X201221428Y-83678571D02*
X200650000Y-83678571D01*
X200292857Y-83678571D02*
X199721428Y-83678571D01*
X210935714Y-85239285D02*
X210935714Y-84489285D01*
X210685714Y-85025000D01*
X210435714Y-84489285D01*
X210435714Y-85239285D01*
X209792857Y-85203571D02*
X209864285Y-85239285D01*
X210007142Y-85239285D01*
X210078571Y-85203571D01*
X210114285Y-85132142D01*
X210114285Y-84846428D01*
X210078571Y-84775000D01*
X210007142Y-84739285D01*
X209864285Y-84739285D01*
X209792857Y-84775000D01*
X209757142Y-84846428D01*
X209757142Y-84917857D01*
X210114285Y-84989285D01*
X209471428Y-85203571D02*
X209400000Y-85239285D01*
X209257142Y-85239285D01*
X209185714Y-85203571D01*
X209150000Y-85132142D01*
X209150000Y-85096428D01*
X209185714Y-85025000D01*
X209257142Y-84989285D01*
X209364285Y-84989285D01*
X209435714Y-84953571D01*
X209471428Y-84882142D01*
X209471428Y-84846428D01*
X209435714Y-84775000D01*
X209364285Y-84739285D01*
X209257142Y-84739285D01*
X209185714Y-84775000D01*
X208507142Y-84739285D02*
X208507142Y-85239285D01*
X208828571Y-84739285D02*
X208828571Y-85132142D01*
X208792857Y-85203571D01*
X208721428Y-85239285D01*
X208614285Y-85239285D01*
X208542857Y-85203571D01*
X208507142Y-85167857D01*
X208150000Y-85239285D02*
X208150000Y-84739285D01*
X208150000Y-84882142D02*
X208114285Y-84810714D01*
X208078571Y-84775000D01*
X208007142Y-84739285D01*
X207935714Y-84739285D01*
X207400000Y-85203571D02*
X207471428Y-85239285D01*
X207614285Y-85239285D01*
X207685714Y-85203571D01*
X207721428Y-85132142D01*
X207721428Y-84846428D01*
X207685714Y-84775000D01*
X207614285Y-84739285D01*
X207471428Y-84739285D01*
X207400000Y-84775000D01*
X207364285Y-84846428D01*
X207364285Y-84917857D01*
X207721428Y-84989285D01*
X206150000Y-84739285D02*
X206150000Y-85239285D01*
X206328571Y-84453571D02*
X206507142Y-84989285D01*
X206042857Y-84989285D01*
X205864285Y-84739285D02*
X205578571Y-84739285D01*
X205757142Y-85239285D02*
X205757142Y-84596428D01*
X205721428Y-84525000D01*
X205650000Y-84489285D01*
X205578571Y-84489285D01*
X205328571Y-85239285D02*
X205328571Y-84739285D01*
X205328571Y-84489285D02*
X205364285Y-84525000D01*
X205328571Y-84560714D01*
X205292857Y-84525000D01*
X205328571Y-84489285D01*
X205328571Y-84560714D01*
X204864285Y-85239285D02*
X204935714Y-85203571D01*
X204971428Y-85132142D01*
X204971428Y-84489285D01*
X204614285Y-85203571D02*
X204542857Y-85239285D01*
X204400000Y-85239285D01*
X204328571Y-85203571D01*
X204292857Y-85132142D01*
X204292857Y-85096428D01*
X204328571Y-85025000D01*
X204400000Y-84989285D01*
X204507142Y-84989285D01*
X204578571Y-84953571D01*
X204614285Y-84882142D01*
X204614285Y-84846428D01*
X204578571Y-84775000D01*
X204507142Y-84739285D01*
X204400000Y-84739285D01*
X204328571Y-84775000D01*
X203078571Y-85239285D02*
X203078571Y-84846428D01*
X203114285Y-84775000D01*
X203185714Y-84739285D01*
X203328571Y-84739285D01*
X203400000Y-84775000D01*
X203078571Y-85203571D02*
X203150000Y-85239285D01*
X203328571Y-85239285D01*
X203400000Y-85203571D01*
X203435714Y-85132142D01*
X203435714Y-85060714D01*
X203400000Y-84989285D01*
X203328571Y-84953571D01*
X203150000Y-84953571D01*
X203078571Y-84917857D01*
X202721428Y-85239285D02*
X202721428Y-84739285D01*
X202721428Y-84810714D02*
X202685714Y-84775000D01*
X202614285Y-84739285D01*
X202507142Y-84739285D01*
X202435714Y-84775000D01*
X202400000Y-84846428D01*
X202400000Y-85239285D01*
X202400000Y-84846428D02*
X202364285Y-84775000D01*
X202292857Y-84739285D01*
X202185714Y-84739285D01*
X202114285Y-84775000D01*
X202078571Y-84846428D01*
X202078571Y-85239285D01*
X201721428Y-84739285D02*
X201721428Y-85489285D01*
X201721428Y-84775000D02*
X201650000Y-84739285D01*
X201507142Y-84739285D01*
X201435714Y-84775000D01*
X201400000Y-84810714D01*
X201364285Y-84882142D01*
X201364285Y-85096428D01*
X201400000Y-85167857D01*
X201435714Y-85203571D01*
X201507142Y-85239285D01*
X201650000Y-85239285D01*
X201721428Y-85203571D01*
X200935714Y-85239285D02*
X201007142Y-85203571D01*
X201042857Y-85132142D01*
X201042857Y-84489285D01*
X200650000Y-85239285D02*
X200650000Y-84739285D01*
X200650000Y-84489285D02*
X200685714Y-84525000D01*
X200650000Y-84560714D01*
X200614285Y-84525000D01*
X200650000Y-84489285D01*
X200650000Y-84560714D01*
X199721428Y-85239285D02*
X199721428Y-84739285D01*
X199721428Y-84489285D02*
X199757142Y-84525000D01*
X199721428Y-84560714D01*
X199685714Y-84525000D01*
X199721428Y-84489285D01*
X199721428Y-84560714D01*
X199364285Y-84739285D02*
X199364285Y-85239285D01*
X199364285Y-84810714D02*
X199328571Y-84775000D01*
X199257142Y-84739285D01*
X199150000Y-84739285D01*
X199078571Y-84775000D01*
X199042857Y-84846428D01*
X199042857Y-85239285D01*
X198721428Y-85203571D02*
X198650000Y-85239285D01*
X198507142Y-85239285D01*
X198435714Y-85203571D01*
X198400000Y-85132142D01*
X198400000Y-85096428D01*
X198435714Y-85025000D01*
X198507142Y-84989285D01*
X198614285Y-84989285D01*
X198685714Y-84953571D01*
X198721428Y-84882142D01*
X198721428Y-84846428D01*
X198685714Y-84775000D01*
X198614285Y-84739285D01*
X198507142Y-84739285D01*
X198435714Y-84775000D01*
X198185714Y-84739285D02*
X197900000Y-84739285D01*
X198078571Y-84489285D02*
X198078571Y-85132142D01*
X198042857Y-85203571D01*
X197971428Y-85239285D01*
X197900000Y-85239285D01*
X197650000Y-85239285D02*
X197650000Y-84739285D01*
X197650000Y-84882142D02*
X197614285Y-84810714D01*
X197578571Y-84775000D01*
X197507142Y-84739285D01*
X197435714Y-84739285D01*
X196864285Y-84739285D02*
X196864285Y-85239285D01*
X197185714Y-84739285D02*
X197185714Y-85132142D01*
X197150000Y-85203571D01*
X197078571Y-85239285D01*
X196971428Y-85239285D01*
X196900000Y-85203571D01*
X196864285Y-85167857D01*
X210114285Y-85764285D02*
X210114285Y-86300000D01*
X210150000Y-86407142D01*
X210221428Y-86478571D01*
X210328571Y-86514285D01*
X210400000Y-86514285D01*
X209757142Y-86514285D02*
X209757142Y-85764285D01*
X209471428Y-85764285D01*
X209400000Y-85800000D01*
X209364285Y-85835714D01*
X209328571Y-85907142D01*
X209328571Y-86014285D01*
X209364285Y-86085714D01*
X209400000Y-86121428D01*
X209471428Y-86157142D01*
X209757142Y-86157142D01*
X209042857Y-85835714D02*
X209007142Y-85800000D01*
X208935714Y-85764285D01*
X208757142Y-85764285D01*
X208685714Y-85800000D01*
X208650000Y-85835714D01*
X208614285Y-85907142D01*
X208614285Y-85978571D01*
X208650000Y-86085714D01*
X209078571Y-86514285D01*
X208614285Y-86514285D01*
X207507142Y-85764285D02*
X207507142Y-86300000D01*
X207542857Y-86407142D01*
X207614285Y-86478571D01*
X207721428Y-86514285D01*
X207792857Y-86514285D01*
X207150000Y-86514285D02*
X207150000Y-85764285D01*
X206864285Y-85764285D01*
X206792857Y-85800000D01*
X206757142Y-85835714D01*
X206721428Y-85907142D01*
X206721428Y-86014285D01*
X206757142Y-86085714D01*
X206792857Y-86121428D01*
X206864285Y-86157142D01*
X207150000Y-86157142D01*
X206078571Y-86014285D02*
X206078571Y-86514285D01*
X206257142Y-85728571D02*
X206435714Y-86264285D01*
X205971428Y-86264285D01*
X204900000Y-85764285D02*
X204900000Y-86300000D01*
X204935714Y-86407142D01*
X205007142Y-86478571D01*
X205114285Y-86514285D01*
X205185714Y-86514285D01*
X204542857Y-86514285D02*
X204542857Y-85764285D01*
X204257142Y-85764285D01*
X204185714Y-85800000D01*
X204150000Y-85835714D01*
X204114285Y-85907142D01*
X204114285Y-86014285D01*
X204150000Y-86085714D01*
X204185714Y-86121428D01*
X204257142Y-86157142D01*
X204542857Y-86157142D01*
X203400000Y-86514285D02*
X203828571Y-86514285D01*
X203614285Y-86514285D02*
X203614285Y-85764285D01*
X203685714Y-85871428D01*
X203757142Y-85942857D01*
X203828571Y-85978571D01*
X202292857Y-85764285D02*
X202292857Y-86300000D01*
X202328571Y-86407142D01*
X202400000Y-86478571D01*
X202507142Y-86514285D01*
X202578571Y-86514285D01*
X201935714Y-86514285D02*
X201935714Y-85764285D01*
X201650000Y-85764285D01*
X201578571Y-85800000D01*
X201542857Y-85835714D01*
X201507142Y-85907142D01*
X201507142Y-86014285D01*
X201542857Y-86085714D01*
X201578571Y-86121428D01*
X201650000Y-86157142D01*
X201935714Y-86157142D01*
X201150000Y-86514285D02*
X201007142Y-86514285D01*
X200935714Y-86478571D01*
X200900000Y-86442857D01*
X200828571Y-86335714D01*
X200792857Y-86192857D01*
X200792857Y-85907142D01*
X200828571Y-85835714D01*
X200864285Y-85800000D01*
X200935714Y-85764285D01*
X201078571Y-85764285D01*
X201150000Y-85800000D01*
X201185714Y-85835714D01*
X201221428Y-85907142D01*
X201221428Y-86085714D01*
X201185714Y-86157142D01*
X201150000Y-86192857D01*
X201078571Y-86228571D01*
X200935714Y-86228571D01*
X200864285Y-86192857D01*
X200828571Y-86157142D01*
X200792857Y-86085714D01*
X199757142Y-85764285D02*
X199614285Y-85764285D01*
X199542857Y-85800000D01*
X199471428Y-85871428D01*
X199435714Y-86014285D01*
X199435714Y-86264285D01*
X199471428Y-86407142D01*
X199542857Y-86478571D01*
X199614285Y-86514285D01*
X199757142Y-86514285D01*
X199828571Y-86478571D01*
X199900000Y-86407142D01*
X199935714Y-86264285D01*
X199935714Y-86014285D01*
X199900000Y-85871428D01*
X199828571Y-85800000D01*
X199757142Y-85764285D01*
X199114285Y-86014285D02*
X199114285Y-86764285D01*
X199114285Y-86050000D02*
X199042857Y-86014285D01*
X198900000Y-86014285D01*
X198828571Y-86050000D01*
X198792857Y-86085714D01*
X198757142Y-86157142D01*
X198757142Y-86371428D01*
X198792857Y-86442857D01*
X198828571Y-86478571D01*
X198900000Y-86514285D01*
X199042857Y-86514285D01*
X199114285Y-86478571D01*
X198150000Y-86478571D02*
X198221428Y-86514285D01*
X198364285Y-86514285D01*
X198435714Y-86478571D01*
X198471428Y-86407142D01*
X198471428Y-86121428D01*
X198435714Y-86050000D01*
X198364285Y-86014285D01*
X198221428Y-86014285D01*
X198150000Y-86050000D01*
X198114285Y-86121428D01*
X198114285Y-86192857D01*
X198471428Y-86264285D01*
X197792857Y-86014285D02*
X197792857Y-86514285D01*
X197792857Y-86085714D02*
X197757142Y-86050000D01*
X197685714Y-86014285D01*
X197578571Y-86014285D01*
X197507142Y-86050000D01*
X197471428Y-86121428D01*
X197471428Y-86514285D01*
X208632142Y-87039285D02*
X208632142Y-87575000D01*
X208667857Y-87682142D01*
X208739285Y-87753571D01*
X208846428Y-87789285D01*
X208917857Y-87789285D01*
X208275000Y-87789285D02*
X208275000Y-87039285D01*
X207989285Y-87039285D01*
X207917857Y-87075000D01*
X207882142Y-87110714D01*
X207846428Y-87182142D01*
X207846428Y-87289285D01*
X207882142Y-87360714D01*
X207917857Y-87396428D01*
X207989285Y-87432142D01*
X208275000Y-87432142D01*
X207132142Y-87789285D02*
X207560714Y-87789285D01*
X207346428Y-87789285D02*
X207346428Y-87039285D01*
X207417857Y-87146428D01*
X207489285Y-87217857D01*
X207560714Y-87253571D01*
X206667857Y-87039285D02*
X206596428Y-87039285D01*
X206525000Y-87075000D01*
X206489285Y-87110714D01*
X206453571Y-87182142D01*
X206417857Y-87325000D01*
X206417857Y-87503571D01*
X206453571Y-87646428D01*
X206489285Y-87717857D01*
X206525000Y-87753571D01*
X206596428Y-87789285D01*
X206667857Y-87789285D01*
X206739285Y-87753571D01*
X206775000Y-87717857D01*
X206810714Y-87646428D01*
X206846428Y-87503571D01*
X206846428Y-87325000D01*
X206810714Y-87182142D01*
X206775000Y-87110714D01*
X206739285Y-87075000D01*
X206667857Y-87039285D01*
X205310714Y-87039285D02*
X205310714Y-87575000D01*
X205346428Y-87682142D01*
X205417857Y-87753571D01*
X205525000Y-87789285D01*
X205596428Y-87789285D01*
X204953571Y-87789285D02*
X204953571Y-87039285D01*
X204667857Y-87039285D01*
X204596428Y-87075000D01*
X204560714Y-87110714D01*
X204525000Y-87182142D01*
X204525000Y-87289285D01*
X204560714Y-87360714D01*
X204596428Y-87396428D01*
X204667857Y-87432142D01*
X204953571Y-87432142D01*
X204096428Y-87360714D02*
X204167857Y-87325000D01*
X204203571Y-87289285D01*
X204239285Y-87217857D01*
X204239285Y-87182142D01*
X204203571Y-87110714D01*
X204167857Y-87075000D01*
X204096428Y-87039285D01*
X203953571Y-87039285D01*
X203882142Y-87075000D01*
X203846428Y-87110714D01*
X203810714Y-87182142D01*
X203810714Y-87217857D01*
X203846428Y-87289285D01*
X203882142Y-87325000D01*
X203953571Y-87360714D01*
X204096428Y-87360714D01*
X204167857Y-87396428D01*
X204203571Y-87432142D01*
X204239285Y-87503571D01*
X204239285Y-87646428D01*
X204203571Y-87717857D01*
X204167857Y-87753571D01*
X204096428Y-87789285D01*
X203953571Y-87789285D01*
X203882142Y-87753571D01*
X203846428Y-87717857D01*
X203810714Y-87646428D01*
X203810714Y-87503571D01*
X203846428Y-87432142D01*
X203882142Y-87396428D01*
X203953571Y-87360714D01*
X202489285Y-87717857D02*
X202525000Y-87753571D01*
X202632142Y-87789285D01*
X202703571Y-87789285D01*
X202810714Y-87753571D01*
X202882142Y-87682142D01*
X202917857Y-87610714D01*
X202953571Y-87467857D01*
X202953571Y-87360714D01*
X202917857Y-87217857D01*
X202882142Y-87146428D01*
X202810714Y-87075000D01*
X202703571Y-87039285D01*
X202632142Y-87039285D01*
X202525000Y-87075000D01*
X202489285Y-87110714D01*
X202060714Y-87789285D02*
X202132142Y-87753571D01*
X202167857Y-87682142D01*
X202167857Y-87039285D01*
X201667857Y-87789285D02*
X201739285Y-87753571D01*
X201775000Y-87717857D01*
X201810714Y-87646428D01*
X201810714Y-87432142D01*
X201775000Y-87360714D01*
X201739285Y-87325000D01*
X201667857Y-87289285D01*
X201560714Y-87289285D01*
X201489285Y-87325000D01*
X201453571Y-87360714D01*
X201417857Y-87432142D01*
X201417857Y-87646428D01*
X201453571Y-87717857D01*
X201489285Y-87753571D01*
X201560714Y-87789285D01*
X201667857Y-87789285D01*
X201132142Y-87753571D02*
X201060714Y-87789285D01*
X200917857Y-87789285D01*
X200846428Y-87753571D01*
X200810714Y-87682142D01*
X200810714Y-87646428D01*
X200846428Y-87575000D01*
X200917857Y-87539285D01*
X201025000Y-87539285D01*
X201096428Y-87503571D01*
X201132142Y-87432142D01*
X201132142Y-87396428D01*
X201096428Y-87325000D01*
X201025000Y-87289285D01*
X200917857Y-87289285D01*
X200846428Y-87325000D01*
X200203571Y-87753571D02*
X200275000Y-87789285D01*
X200417857Y-87789285D01*
X200489285Y-87753571D01*
X200525000Y-87682142D01*
X200525000Y-87396428D01*
X200489285Y-87325000D01*
X200417857Y-87289285D01*
X200275000Y-87289285D01*
X200203571Y-87325000D01*
X200167857Y-87396428D01*
X200167857Y-87467857D01*
X200525000Y-87539285D01*
X199525000Y-87789285D02*
X199525000Y-87039285D01*
X199525000Y-87753571D02*
X199596428Y-87789285D01*
X199739285Y-87789285D01*
X199810714Y-87753571D01*
X199846428Y-87717857D01*
X199882142Y-87646428D01*
X199882142Y-87432142D01*
X199846428Y-87360714D01*
X199810714Y-87325000D01*
X199739285Y-87289285D01*
X199596428Y-87289285D01*
X199525000Y-87325000D01*
X213007142Y-88778571D02*
X212435714Y-88778571D01*
X212078571Y-88778571D02*
X211507142Y-88778571D01*
X211150000Y-88778571D02*
X210578571Y-88778571D01*
X210221428Y-88778571D02*
X209650000Y-88778571D01*
X209292857Y-88778571D02*
X208721428Y-88778571D01*
X208364285Y-88778571D02*
X207792857Y-88778571D01*
X207435714Y-88778571D02*
X206864285Y-88778571D01*
X206507142Y-88778571D02*
X205935714Y-88778571D01*
X205578571Y-88778571D02*
X205007142Y-88778571D01*
X204650000Y-88778571D02*
X204078571Y-88778571D01*
X203721428Y-88778571D02*
X203150000Y-88778571D01*
X202792857Y-88778571D02*
X202221428Y-88778571D01*
X201864285Y-88778571D02*
X201292857Y-88778571D01*
X200935714Y-88778571D02*
X200364285Y-88778571D01*
X200007142Y-88778571D02*
X199435714Y-88778571D01*
X199078571Y-88778571D02*
X198507142Y-88778571D01*
X198150000Y-88778571D02*
X197578571Y-88778571D01*
X197221428Y-88778571D02*
X196650000Y-88778571D01*
X196292857Y-88778571D02*
X195721428Y-88778571D01*
X195364285Y-88778571D02*
X194792857Y-88778571D01*
X209471428Y-90303571D02*
X209364285Y-90339285D01*
X209185714Y-90339285D01*
X209114285Y-90303571D01*
X209078571Y-90267857D01*
X209042857Y-90196428D01*
X209042857Y-90125000D01*
X209078571Y-90053571D01*
X209114285Y-90017857D01*
X209185714Y-89982142D01*
X209328571Y-89946428D01*
X209400000Y-89910714D01*
X209435714Y-89875000D01*
X209471428Y-89803571D01*
X209471428Y-89732142D01*
X209435714Y-89660714D01*
X209400000Y-89625000D01*
X209328571Y-89589285D01*
X209150000Y-89589285D01*
X209042857Y-89625000D01*
X208614285Y-90339285D02*
X208685714Y-90303571D01*
X208721428Y-90267857D01*
X208757142Y-90196428D01*
X208757142Y-89982142D01*
X208721428Y-89910714D01*
X208685714Y-89875000D01*
X208614285Y-89839285D01*
X208507142Y-89839285D01*
X208435714Y-89875000D01*
X208400000Y-89910714D01*
X208364285Y-89982142D01*
X208364285Y-90196428D01*
X208400000Y-90267857D01*
X208435714Y-90303571D01*
X208507142Y-90339285D01*
X208614285Y-90339285D01*
X208042857Y-89839285D02*
X208042857Y-90339285D01*
X208042857Y-89910714D02*
X208007142Y-89875000D01*
X207935714Y-89839285D01*
X207828571Y-89839285D01*
X207757142Y-89875000D01*
X207721428Y-89946428D01*
X207721428Y-90339285D01*
X207042857Y-90339285D02*
X207042857Y-89589285D01*
X207042857Y-90303571D02*
X207114285Y-90339285D01*
X207257142Y-90339285D01*
X207328571Y-90303571D01*
X207364285Y-90267857D01*
X207400000Y-90196428D01*
X207400000Y-89982142D01*
X207364285Y-89910714D01*
X207328571Y-89875000D01*
X207257142Y-89839285D01*
X207114285Y-89839285D01*
X207042857Y-89875000D01*
X206400000Y-90303571D02*
X206471428Y-90339285D01*
X206614285Y-90339285D01*
X206685714Y-90303571D01*
X206721428Y-90232142D01*
X206721428Y-89946428D01*
X206685714Y-89875000D01*
X206614285Y-89839285D01*
X206471428Y-89839285D01*
X206400000Y-89875000D01*
X206364285Y-89946428D01*
X206364285Y-90017857D01*
X206721428Y-90089285D01*
X205221428Y-89946428D02*
X205114285Y-89982142D01*
X205078571Y-90017857D01*
X205042857Y-90089285D01*
X205042857Y-90196428D01*
X205078571Y-90267857D01*
X205114285Y-90303571D01*
X205185714Y-90339285D01*
X205471428Y-90339285D01*
X205471428Y-89589285D01*
X205221428Y-89589285D01*
X205150000Y-89625000D01*
X205114285Y-89660714D01*
X205078571Y-89732142D01*
X205078571Y-89803571D01*
X205114285Y-89875000D01*
X205150000Y-89910714D01*
X205221428Y-89946428D01*
X205471428Y-89946428D01*
X204721428Y-90339285D02*
X204721428Y-89589285D01*
X204292857Y-90339285D01*
X204292857Y-89589285D01*
X203507142Y-90267857D02*
X203542857Y-90303571D01*
X203650000Y-90339285D01*
X203721428Y-90339285D01*
X203828571Y-90303571D01*
X203900000Y-90232142D01*
X203935714Y-90160714D01*
X203971428Y-90017857D01*
X203971428Y-89910714D01*
X203935714Y-89767857D01*
X203900000Y-89696428D01*
X203828571Y-89625000D01*
X203721428Y-89589285D01*
X203650000Y-89589285D01*
X203542857Y-89625000D01*
X203507142Y-89660714D01*
X202292857Y-89839285D02*
X202292857Y-90339285D01*
X202614285Y-89839285D02*
X202614285Y-90232142D01*
X202578571Y-90303571D01*
X202507142Y-90339285D01*
X202400000Y-90339285D01*
X202328571Y-90303571D01*
X202292857Y-90267857D01*
X201828571Y-90339285D02*
X201900000Y-90303571D01*
X201935714Y-90232142D01*
X201935714Y-89589285D01*
X201650000Y-89839285D02*
X201364285Y-89839285D01*
X201542857Y-89589285D02*
X201542857Y-90232142D01*
X201507142Y-90303571D01*
X201435714Y-90339285D01*
X201364285Y-90339285D01*
X201114285Y-90339285D02*
X201114285Y-89839285D01*
X201114285Y-89982142D02*
X201078571Y-89910714D01*
X201042857Y-89875000D01*
X200971428Y-89839285D01*
X200900000Y-89839285D01*
X200328571Y-90339285D02*
X200328571Y-89946428D01*
X200364285Y-89875000D01*
X200435714Y-89839285D01*
X200578571Y-89839285D01*
X200650000Y-89875000D01*
X200328571Y-90303571D02*
X200400000Y-90339285D01*
X200578571Y-90339285D01*
X200650000Y-90303571D01*
X200685714Y-90232142D01*
X200685714Y-90160714D01*
X200650000Y-90089285D01*
X200578571Y-90053571D01*
X200400000Y-90053571D01*
X200328571Y-90017857D01*
X200007142Y-90303571D02*
X199935714Y-90339285D01*
X199792857Y-90339285D01*
X199721428Y-90303571D01*
X199685714Y-90232142D01*
X199685714Y-90196428D01*
X199721428Y-90125000D01*
X199792857Y-90089285D01*
X199900000Y-90089285D01*
X199971428Y-90053571D01*
X200007142Y-89982142D01*
X200007142Y-89946428D01*
X199971428Y-89875000D01*
X199900000Y-89839285D01*
X199792857Y-89839285D01*
X199721428Y-89875000D01*
X199257142Y-90339285D02*
X199328571Y-90303571D01*
X199364285Y-90267857D01*
X199400000Y-90196428D01*
X199400000Y-89982142D01*
X199364285Y-89910714D01*
X199328571Y-89875000D01*
X199257142Y-89839285D01*
X199150000Y-89839285D01*
X199078571Y-89875000D01*
X199042857Y-89910714D01*
X199007142Y-89982142D01*
X199007142Y-90196428D01*
X199042857Y-90267857D01*
X199078571Y-90303571D01*
X199150000Y-90339285D01*
X199257142Y-90339285D01*
X198685714Y-89839285D02*
X198685714Y-90339285D01*
X198685714Y-89910714D02*
X198650000Y-89875000D01*
X198578571Y-89839285D01*
X198471428Y-89839285D01*
X198400000Y-89875000D01*
X198364285Y-89946428D01*
X198364285Y-90339285D01*
X211775000Y-90864285D02*
X211775000Y-91400000D01*
X211810714Y-91507142D01*
X211882142Y-91578571D01*
X211989285Y-91614285D01*
X212060714Y-91614285D01*
X211417857Y-91614285D02*
X211417857Y-90864285D01*
X211132142Y-90864285D01*
X211060714Y-90900000D01*
X211025000Y-90935714D01*
X210989285Y-91007142D01*
X210989285Y-91114285D01*
X211025000Y-91185714D01*
X211060714Y-91221428D01*
X211132142Y-91257142D01*
X211417857Y-91257142D01*
X210275000Y-91614285D02*
X210703571Y-91614285D01*
X210489285Y-91614285D02*
X210489285Y-90864285D01*
X210560714Y-90971428D01*
X210632142Y-91042857D01*
X210703571Y-91078571D01*
X209810714Y-90864285D02*
X209739285Y-90864285D01*
X209667857Y-90900000D01*
X209632142Y-90935714D01*
X209596428Y-91007142D01*
X209560714Y-91150000D01*
X209560714Y-91328571D01*
X209596428Y-91471428D01*
X209632142Y-91542857D01*
X209667857Y-91578571D01*
X209739285Y-91614285D01*
X209810714Y-91614285D01*
X209882142Y-91578571D01*
X209917857Y-91542857D01*
X209953571Y-91471428D01*
X209989285Y-91328571D01*
X209989285Y-91150000D01*
X209953571Y-91007142D01*
X209917857Y-90935714D01*
X209882142Y-90900000D01*
X209810714Y-90864285D01*
X208453571Y-90864285D02*
X208453571Y-91400000D01*
X208489285Y-91507142D01*
X208560714Y-91578571D01*
X208667857Y-91614285D01*
X208739285Y-91614285D01*
X208096428Y-91614285D02*
X208096428Y-90864285D01*
X207810714Y-90864285D01*
X207739285Y-90900000D01*
X207703571Y-90935714D01*
X207667857Y-91007142D01*
X207667857Y-91114285D01*
X207703571Y-91185714D01*
X207739285Y-91221428D01*
X207810714Y-91257142D01*
X208096428Y-91257142D01*
X207025000Y-91114285D02*
X207025000Y-91614285D01*
X207203571Y-90828571D02*
X207382142Y-91364285D01*
X206917857Y-91364285D01*
X205846428Y-90864285D02*
X205846428Y-91400000D01*
X205882142Y-91507142D01*
X205953571Y-91578571D01*
X206060714Y-91614285D01*
X206132142Y-91614285D01*
X205489285Y-91614285D02*
X205489285Y-90864285D01*
X205203571Y-90864285D01*
X205132142Y-90900000D01*
X205096428Y-90935714D01*
X205060714Y-91007142D01*
X205060714Y-91114285D01*
X205096428Y-91185714D01*
X205132142Y-91221428D01*
X205203571Y-91257142D01*
X205489285Y-91257142D01*
X204775000Y-90935714D02*
X204739285Y-90900000D01*
X204667857Y-90864285D01*
X204489285Y-90864285D01*
X204417857Y-90900000D01*
X204382142Y-90935714D01*
X204346428Y-91007142D01*
X204346428Y-91078571D01*
X204382142Y-91185714D01*
X204810714Y-91614285D01*
X204346428Y-91614285D01*
X203239285Y-90864285D02*
X203239285Y-91400000D01*
X203275000Y-91507142D01*
X203346428Y-91578571D01*
X203453571Y-91614285D01*
X203525000Y-91614285D01*
X202882142Y-91614285D02*
X202882142Y-90864285D01*
X202596428Y-90864285D01*
X202525000Y-90900000D01*
X202489285Y-90935714D01*
X202453571Y-91007142D01*
X202453571Y-91114285D01*
X202489285Y-91185714D01*
X202525000Y-91221428D01*
X202596428Y-91257142D01*
X202882142Y-91257142D01*
X201739285Y-91614285D02*
X202167857Y-91614285D01*
X201953571Y-91614285D02*
X201953571Y-90864285D01*
X202025000Y-90971428D01*
X202096428Y-91042857D01*
X202167857Y-91078571D01*
X200632142Y-90864285D02*
X200632142Y-91400000D01*
X200667857Y-91507142D01*
X200739285Y-91578571D01*
X200846428Y-91614285D01*
X200917857Y-91614285D01*
X200275000Y-91614285D02*
X200275000Y-90864285D01*
X199989285Y-90864285D01*
X199917857Y-90900000D01*
X199882142Y-90935714D01*
X199846428Y-91007142D01*
X199846428Y-91114285D01*
X199882142Y-91185714D01*
X199917857Y-91221428D01*
X199989285Y-91257142D01*
X200275000Y-91257142D01*
X199489285Y-91614285D02*
X199346428Y-91614285D01*
X199275000Y-91578571D01*
X199239285Y-91542857D01*
X199167857Y-91435714D01*
X199132142Y-91292857D01*
X199132142Y-91007142D01*
X199167857Y-90935714D01*
X199203571Y-90900000D01*
X199275000Y-90864285D01*
X199417857Y-90864285D01*
X199489285Y-90900000D01*
X199525000Y-90935714D01*
X199560714Y-91007142D01*
X199560714Y-91185714D01*
X199525000Y-91257142D01*
X199489285Y-91292857D01*
X199417857Y-91328571D01*
X199275000Y-91328571D01*
X199203571Y-91292857D01*
X199167857Y-91257142D01*
X199132142Y-91185714D01*
X198096428Y-90864285D02*
X197953571Y-90864285D01*
X197882142Y-90900000D01*
X197810714Y-90971428D01*
X197775000Y-91114285D01*
X197775000Y-91364285D01*
X197810714Y-91507142D01*
X197882142Y-91578571D01*
X197953571Y-91614285D01*
X198096428Y-91614285D01*
X198167857Y-91578571D01*
X198239285Y-91507142D01*
X198275000Y-91364285D01*
X198275000Y-91114285D01*
X198239285Y-90971428D01*
X198167857Y-90900000D01*
X198096428Y-90864285D01*
X197453571Y-91114285D02*
X197453571Y-91864285D01*
X197453571Y-91150000D02*
X197382142Y-91114285D01*
X197239285Y-91114285D01*
X197167857Y-91150000D01*
X197132142Y-91185714D01*
X197096428Y-91257142D01*
X197096428Y-91471428D01*
X197132142Y-91542857D01*
X197167857Y-91578571D01*
X197239285Y-91614285D01*
X197382142Y-91614285D01*
X197453571Y-91578571D01*
X196489285Y-91578571D02*
X196560714Y-91614285D01*
X196703571Y-91614285D01*
X196775000Y-91578571D01*
X196810714Y-91507142D01*
X196810714Y-91221428D01*
X196775000Y-91150000D01*
X196703571Y-91114285D01*
X196560714Y-91114285D01*
X196489285Y-91150000D01*
X196453571Y-91221428D01*
X196453571Y-91292857D01*
X196810714Y-91364285D01*
X196132142Y-91114285D02*
X196132142Y-91614285D01*
X196132142Y-91185714D02*
X196096428Y-91150000D01*
X196025000Y-91114285D01*
X195917857Y-91114285D01*
X195846428Y-91150000D01*
X195810714Y-91221428D01*
X195810714Y-91614285D01*
X207542857Y-92139285D02*
X207542857Y-92675000D01*
X207578571Y-92782142D01*
X207650000Y-92853571D01*
X207757142Y-92889285D01*
X207828571Y-92889285D01*
X207185714Y-92889285D02*
X207185714Y-92139285D01*
X206900000Y-92139285D01*
X206828571Y-92175000D01*
X206792857Y-92210714D01*
X206757142Y-92282142D01*
X206757142Y-92389285D01*
X206792857Y-92460714D01*
X206828571Y-92496428D01*
X206900000Y-92532142D01*
X207185714Y-92532142D01*
X206328571Y-92460714D02*
X206400000Y-92425000D01*
X206435714Y-92389285D01*
X206471428Y-92317857D01*
X206471428Y-92282142D01*
X206435714Y-92210714D01*
X206400000Y-92175000D01*
X206328571Y-92139285D01*
X206185714Y-92139285D01*
X206114285Y-92175000D01*
X206078571Y-92210714D01*
X206042857Y-92282142D01*
X206042857Y-92317857D01*
X206078571Y-92389285D01*
X206114285Y-92425000D01*
X206185714Y-92460714D01*
X206328571Y-92460714D01*
X206400000Y-92496428D01*
X206435714Y-92532142D01*
X206471428Y-92603571D01*
X206471428Y-92746428D01*
X206435714Y-92817857D01*
X206400000Y-92853571D01*
X206328571Y-92889285D01*
X206185714Y-92889285D01*
X206114285Y-92853571D01*
X206078571Y-92817857D01*
X206042857Y-92746428D01*
X206042857Y-92603571D01*
X206078571Y-92532142D01*
X206114285Y-92496428D01*
X206185714Y-92460714D01*
X204721428Y-92817857D02*
X204757142Y-92853571D01*
X204864285Y-92889285D01*
X204935714Y-92889285D01*
X205042857Y-92853571D01*
X205114285Y-92782142D01*
X205150000Y-92710714D01*
X205185714Y-92567857D01*
X205185714Y-92460714D01*
X205150000Y-92317857D01*
X205114285Y-92246428D01*
X205042857Y-92175000D01*
X204935714Y-92139285D01*
X204864285Y-92139285D01*
X204757142Y-92175000D01*
X204721428Y-92210714D01*
X204292857Y-92889285D02*
X204364285Y-92853571D01*
X204400000Y-92782142D01*
X204400000Y-92139285D01*
X203900000Y-92889285D02*
X203971428Y-92853571D01*
X204007142Y-92817857D01*
X204042857Y-92746428D01*
X204042857Y-92532142D01*
X204007142Y-92460714D01*
X203971428Y-92425000D01*
X203900000Y-92389285D01*
X203792857Y-92389285D01*
X203721428Y-92425000D01*
X203685714Y-92460714D01*
X203650000Y-92532142D01*
X203650000Y-92746428D01*
X203685714Y-92817857D01*
X203721428Y-92853571D01*
X203792857Y-92889285D01*
X203900000Y-92889285D01*
X203364285Y-92853571D02*
X203292857Y-92889285D01*
X203150000Y-92889285D01*
X203078571Y-92853571D01*
X203042857Y-92782142D01*
X203042857Y-92746428D01*
X203078571Y-92675000D01*
X203150000Y-92639285D01*
X203257142Y-92639285D01*
X203328571Y-92603571D01*
X203364285Y-92532142D01*
X203364285Y-92496428D01*
X203328571Y-92425000D01*
X203257142Y-92389285D01*
X203150000Y-92389285D01*
X203078571Y-92425000D01*
X202435714Y-92853571D02*
X202507142Y-92889285D01*
X202650000Y-92889285D01*
X202721428Y-92853571D01*
X202757142Y-92782142D01*
X202757142Y-92496428D01*
X202721428Y-92425000D01*
X202650000Y-92389285D01*
X202507142Y-92389285D01*
X202435714Y-92425000D01*
X202400000Y-92496428D01*
X202400000Y-92567857D01*
X202757142Y-92639285D01*
X201757142Y-92889285D02*
X201757142Y-92139285D01*
X201757142Y-92853571D02*
X201828571Y-92889285D01*
X201971428Y-92889285D01*
X202042857Y-92853571D01*
X202078571Y-92817857D01*
X202114285Y-92746428D01*
X202114285Y-92532142D01*
X202078571Y-92460714D01*
X202042857Y-92425000D01*
X201971428Y-92389285D01*
X201828571Y-92389285D01*
X201757142Y-92425000D01*
D11*
X119178571Y-116607142D02*
X118035714Y-116607142D01*
X118607142Y-117178571D02*
X118607142Y-116035714D01*
X117535714Y-115678571D02*
X117035714Y-117178571D01*
X116535714Y-115678571D01*
X115535714Y-116392857D02*
X115321428Y-116464285D01*
X115250000Y-116535714D01*
X115178571Y-116678571D01*
X115178571Y-116892857D01*
X115250000Y-117035714D01*
X115321428Y-117107142D01*
X115464285Y-117178571D01*
X116035714Y-117178571D01*
X116035714Y-115678571D01*
X115535714Y-115678571D01*
X115392857Y-115750000D01*
X115321428Y-115821428D01*
X115250000Y-115964285D01*
X115250000Y-116107142D01*
X115321428Y-116250000D01*
X115392857Y-116321428D01*
X115535714Y-116392857D01*
X116035714Y-116392857D01*
X114607142Y-116750000D02*
X113892857Y-116750000D01*
X114750000Y-117178571D02*
X114250000Y-115678571D01*
X113750000Y-117178571D01*
X113464285Y-115678571D02*
X112607142Y-115678571D01*
X113035714Y-117178571D02*
X113035714Y-115678571D01*
X190321428Y-94000000D02*
X188821428Y-93500000D01*
X190321428Y-93000000D01*
X188964285Y-91642857D02*
X188892857Y-91714285D01*
X188821428Y-91928571D01*
X188821428Y-92071428D01*
X188892857Y-92285714D01*
X189035714Y-92428571D01*
X189178571Y-92500000D01*
X189464285Y-92571428D01*
X189678571Y-92571428D01*
X189964285Y-92500000D01*
X190107142Y-92428571D01*
X190250000Y-92285714D01*
X190321428Y-92071428D01*
X190321428Y-91928571D01*
X190250000Y-91714285D01*
X190178571Y-91642857D01*
X188964285Y-90142857D02*
X188892857Y-90214285D01*
X188821428Y-90428571D01*
X188821428Y-90571428D01*
X188892857Y-90785714D01*
X189035714Y-90928571D01*
X189178571Y-91000000D01*
X189464285Y-91071428D01*
X189678571Y-91071428D01*
X189964285Y-91000000D01*
X190107142Y-90928571D01*
X190250000Y-90785714D01*
X190321428Y-90571428D01*
X190321428Y-90428571D01*
X190250000Y-90214285D01*
X190178571Y-90142857D01*
X193892857Y-93821428D02*
X193821428Y-93607142D01*
X193821428Y-93250000D01*
X193892857Y-93107142D01*
X193964285Y-93035714D01*
X194107142Y-92964285D01*
X194250000Y-92964285D01*
X194392857Y-93035714D01*
X194464285Y-93107142D01*
X194535714Y-93250000D01*
X194607142Y-93535714D01*
X194678571Y-93678571D01*
X194750000Y-93750000D01*
X194892857Y-93821428D01*
X195035714Y-93821428D01*
X195178571Y-93750000D01*
X195250000Y-93678571D01*
X195321428Y-93535714D01*
X195321428Y-93178571D01*
X195250000Y-92964285D01*
X193821428Y-92321428D02*
X195321428Y-92321428D01*
X195321428Y-91964285D01*
X195250000Y-91750000D01*
X195107142Y-91607142D01*
X194964285Y-91535714D01*
X194678571Y-91464285D01*
X194464285Y-91464285D01*
X194178571Y-91535714D01*
X194035714Y-91607142D01*
X193892857Y-91750000D01*
X193821428Y-91964285D01*
X193821428Y-92321428D01*
X194250000Y-90892857D02*
X194250000Y-90178571D01*
X193821428Y-91035714D02*
X195321428Y-90535714D01*
X193821428Y-90035714D01*
X198100000Y-101992857D02*
X198171428Y-102135714D01*
X198171428Y-102350000D01*
X198100000Y-102564285D01*
X197957142Y-102707142D01*
X197814285Y-102778571D01*
X197528571Y-102850000D01*
X197314285Y-102850000D01*
X197028571Y-102778571D01*
X196885714Y-102707142D01*
X196742857Y-102564285D01*
X196671428Y-102350000D01*
X196671428Y-102207142D01*
X196742857Y-101992857D01*
X196814285Y-101921428D01*
X197314285Y-101921428D01*
X197314285Y-102207142D01*
X196671428Y-101278571D02*
X198171428Y-101278571D01*
X196671428Y-100421428D01*
X198171428Y-100421428D01*
X196671428Y-99707142D02*
X198171428Y-99707142D01*
X198171428Y-99350000D01*
X198100000Y-99135714D01*
X197957142Y-98992857D01*
X197814285Y-98921428D01*
X197528571Y-98850000D01*
X197314285Y-98850000D01*
X197028571Y-98921428D01*
X196885714Y-98992857D01*
X196742857Y-99135714D01*
X196671428Y-99350000D01*
X196671428Y-99707142D01*
X191392857Y-93785714D02*
X191321428Y-93571428D01*
X191321428Y-93214285D01*
X191392857Y-93071428D01*
X191464285Y-93000000D01*
X191607142Y-92928571D01*
X191750000Y-92928571D01*
X191892857Y-93000000D01*
X191964285Y-93071428D01*
X192035714Y-93214285D01*
X192107142Y-93500000D01*
X192178571Y-93642857D01*
X192250000Y-93714285D01*
X192392857Y-93785714D01*
X192535714Y-93785714D01*
X192678571Y-93714285D01*
X192750000Y-93642857D01*
X192821428Y-93500000D01*
X192821428Y-93142857D01*
X192750000Y-92928571D01*
X191464285Y-91428571D02*
X191392857Y-91500000D01*
X191321428Y-91714285D01*
X191321428Y-91857142D01*
X191392857Y-92071428D01*
X191535714Y-92214285D01*
X191678571Y-92285714D01*
X191964285Y-92357142D01*
X192178571Y-92357142D01*
X192464285Y-92285714D01*
X192607142Y-92214285D01*
X192750000Y-92071428D01*
X192821428Y-91857142D01*
X192821428Y-91714285D01*
X192750000Y-91500000D01*
X192678571Y-91428571D01*
X191321428Y-90071428D02*
X191321428Y-90785714D01*
X192821428Y-90785714D01*
X212000000Y-98678571D02*
X211500000Y-100178571D01*
X211000000Y-98678571D01*
X209642857Y-100035714D02*
X209714285Y-100107142D01*
X209928571Y-100178571D01*
X210071428Y-100178571D01*
X210285714Y-100107142D01*
X210428571Y-99964285D01*
X210500000Y-99821428D01*
X210571428Y-99535714D01*
X210571428Y-99321428D01*
X210500000Y-99035714D01*
X210428571Y-98892857D01*
X210285714Y-98750000D01*
X210071428Y-98678571D01*
X209928571Y-98678571D01*
X209714285Y-98750000D01*
X209642857Y-98821428D01*
X208142857Y-100035714D02*
X208214285Y-100107142D01*
X208428571Y-100178571D01*
X208571428Y-100178571D01*
X208785714Y-100107142D01*
X208928571Y-99964285D01*
X209000000Y-99821428D01*
X209071428Y-99535714D01*
X209071428Y-99321428D01*
X209000000Y-99035714D01*
X208928571Y-98892857D01*
X208785714Y-98750000D01*
X208571428Y-98678571D01*
X208428571Y-98678571D01*
X208214285Y-98750000D01*
X208142857Y-98821428D01*
X211642857Y-106250000D02*
X211785714Y-106178571D01*
X212000000Y-106178571D01*
X212214285Y-106250000D01*
X212357142Y-106392857D01*
X212428571Y-106535714D01*
X212500000Y-106821428D01*
X212500000Y-107035714D01*
X212428571Y-107321428D01*
X212357142Y-107464285D01*
X212214285Y-107607142D01*
X212000000Y-107678571D01*
X211857142Y-107678571D01*
X211642857Y-107607142D01*
X211571428Y-107535714D01*
X211571428Y-107035714D01*
X211857142Y-107035714D01*
X210928571Y-107678571D02*
X210928571Y-106178571D01*
X210071428Y-107678571D01*
X210071428Y-106178571D01*
X209357142Y-107678571D02*
X209357142Y-106178571D01*
X209000000Y-106178571D01*
X208785714Y-106250000D01*
X208642857Y-106392857D01*
X208571428Y-106535714D01*
X208500000Y-106821428D01*
X208500000Y-107035714D01*
X208571428Y-107321428D01*
X208642857Y-107464285D01*
X208785714Y-107607142D01*
X209000000Y-107678571D01*
X209357142Y-107678571D01*
X211142857Y-103678571D02*
X210285714Y-103678571D01*
X210714285Y-105178571D02*
X210714285Y-103678571D01*
X209928571Y-103678571D02*
X208928571Y-105178571D01*
X208928571Y-103678571D02*
X209928571Y-105178571D01*
X210250000Y-102678571D02*
X210750000Y-101964285D01*
X211107142Y-102678571D02*
X211107142Y-101178571D01*
X210535714Y-101178571D01*
X210392857Y-101250000D01*
X210321428Y-101321428D01*
X210250000Y-101464285D01*
X210250000Y-101678571D01*
X210321428Y-101821428D01*
X210392857Y-101892857D01*
X210535714Y-101964285D01*
X211107142Y-101964285D01*
X209750000Y-101178571D02*
X208750000Y-102678571D01*
X208750000Y-101178571D02*
X209750000Y-102678571D01*
X187821428Y-58500000D02*
X186321428Y-58000000D01*
X187821428Y-57500000D01*
X186464285Y-56142857D02*
X186392857Y-56214285D01*
X186321428Y-56428571D01*
X186321428Y-56571428D01*
X186392857Y-56785714D01*
X186535714Y-56928571D01*
X186678571Y-57000000D01*
X186964285Y-57071428D01*
X187178571Y-57071428D01*
X187464285Y-57000000D01*
X187607142Y-56928571D01*
X187750000Y-56785714D01*
X187821428Y-56571428D01*
X187821428Y-56428571D01*
X187750000Y-56214285D01*
X187678571Y-56142857D01*
X186464285Y-54642857D02*
X186392857Y-54714285D01*
X186321428Y-54928571D01*
X186321428Y-55071428D01*
X186392857Y-55285714D01*
X186535714Y-55428571D01*
X186678571Y-55500000D01*
X186964285Y-55571428D01*
X187178571Y-55571428D01*
X187464285Y-55500000D01*
X187607142Y-55428571D01*
X187750000Y-55285714D01*
X187821428Y-55071428D01*
X187821428Y-54928571D01*
X187750000Y-54714285D01*
X187678571Y-54642857D01*
X193250000Y-57642857D02*
X193321428Y-57785714D01*
X193321428Y-58000000D01*
X193250000Y-58214285D01*
X193107142Y-58357142D01*
X192964285Y-58428571D01*
X192678571Y-58500000D01*
X192464285Y-58500000D01*
X192178571Y-58428571D01*
X192035714Y-58357142D01*
X191892857Y-58214285D01*
X191821428Y-58000000D01*
X191821428Y-57857142D01*
X191892857Y-57642857D01*
X191964285Y-57571428D01*
X192464285Y-57571428D01*
X192464285Y-57857142D01*
X191821428Y-56928571D02*
X193321428Y-56928571D01*
X191821428Y-56071428D01*
X193321428Y-56071428D01*
X191821428Y-55357142D02*
X193321428Y-55357142D01*
X193321428Y-55000000D01*
X193250000Y-54785714D01*
X193107142Y-54642857D01*
X192964285Y-54571428D01*
X192678571Y-54500000D01*
X192464285Y-54500000D01*
X192178571Y-54571428D01*
X192035714Y-54642857D01*
X191892857Y-54785714D01*
X191821428Y-55000000D01*
X191821428Y-55357142D01*
X188821428Y-58392857D02*
X190321428Y-58392857D01*
X188821428Y-57535714D01*
X190321428Y-57535714D01*
X189607142Y-56821428D02*
X189607142Y-56321428D01*
X188821428Y-56107142D02*
X188821428Y-56821428D01*
X190321428Y-56821428D01*
X190321428Y-56107142D01*
X190321428Y-55178571D02*
X190321428Y-54892857D01*
X190250000Y-54750000D01*
X190107142Y-54607142D01*
X189821428Y-54535714D01*
X189321428Y-54535714D01*
X189035714Y-54607142D01*
X188892857Y-54750000D01*
X188821428Y-54892857D01*
X188821428Y-55178571D01*
X188892857Y-55321428D01*
X189035714Y-55464285D01*
X189321428Y-55535714D01*
X189821428Y-55535714D01*
X190107142Y-55464285D01*
X190250000Y-55321428D01*
X190321428Y-55178571D01*
X205621428Y-65650000D02*
X204121428Y-65150000D01*
X205621428Y-64650000D01*
X204264285Y-63292857D02*
X204192857Y-63364285D01*
X204121428Y-63578571D01*
X204121428Y-63721428D01*
X204192857Y-63935714D01*
X204335714Y-64078571D01*
X204478571Y-64150000D01*
X204764285Y-64221428D01*
X204978571Y-64221428D01*
X205264285Y-64150000D01*
X205407142Y-64078571D01*
X205550000Y-63935714D01*
X205621428Y-63721428D01*
X205621428Y-63578571D01*
X205550000Y-63364285D01*
X205478571Y-63292857D01*
X204264285Y-61792857D02*
X204192857Y-61864285D01*
X204121428Y-62078571D01*
X204121428Y-62221428D01*
X204192857Y-62435714D01*
X204335714Y-62578571D01*
X204478571Y-62650000D01*
X204764285Y-62721428D01*
X204978571Y-62721428D01*
X205264285Y-62650000D01*
X205407142Y-62578571D01*
X205550000Y-62435714D01*
X205621428Y-62221428D01*
X205621428Y-62078571D01*
X205550000Y-61864285D01*
X205478571Y-61792857D01*
X202900000Y-64992857D02*
X202971428Y-65135714D01*
X202971428Y-65350000D01*
X202900000Y-65564285D01*
X202757142Y-65707142D01*
X202614285Y-65778571D01*
X202328571Y-65850000D01*
X202114285Y-65850000D01*
X201828571Y-65778571D01*
X201685714Y-65707142D01*
X201542857Y-65564285D01*
X201471428Y-65350000D01*
X201471428Y-65207142D01*
X201542857Y-64992857D01*
X201614285Y-64921428D01*
X202114285Y-64921428D01*
X202114285Y-65207142D01*
X201471428Y-64278571D02*
X202971428Y-64278571D01*
X201471428Y-63421428D01*
X202971428Y-63421428D01*
X201471428Y-62707142D02*
X202971428Y-62707142D01*
X202971428Y-62350000D01*
X202900000Y-62135714D01*
X202757142Y-61992857D01*
X202614285Y-61921428D01*
X202328571Y-61850000D01*
X202114285Y-61850000D01*
X201828571Y-61921428D01*
X201685714Y-61992857D01*
X201542857Y-62135714D01*
X201471428Y-62350000D01*
X201471428Y-62707142D01*
X199064285Y-64792857D02*
X198992857Y-64864285D01*
X198921428Y-65078571D01*
X198921428Y-65221428D01*
X198992857Y-65435714D01*
X199135714Y-65578571D01*
X199278571Y-65650000D01*
X199564285Y-65721428D01*
X199778571Y-65721428D01*
X200064285Y-65650000D01*
X200207142Y-65578571D01*
X200350000Y-65435714D01*
X200421428Y-65221428D01*
X200421428Y-65078571D01*
X200350000Y-64864285D01*
X200278571Y-64792857D01*
X198921428Y-63435714D02*
X198921428Y-64150000D01*
X200421428Y-64150000D01*
X198921428Y-62935714D02*
X200421428Y-62935714D01*
X198921428Y-62078571D02*
X199778571Y-62721428D01*
X200421428Y-62078571D02*
X199564285Y-62935714D01*
X196371428Y-60557142D02*
X197871428Y-60557142D01*
X196800000Y-60057142D01*
X197871428Y-59557142D01*
X196371428Y-59557142D01*
X196371428Y-58842857D02*
X197871428Y-58842857D01*
X196442857Y-58200000D02*
X196371428Y-57985714D01*
X196371428Y-57628571D01*
X196442857Y-57485714D01*
X196514285Y-57414285D01*
X196657142Y-57342857D01*
X196800000Y-57342857D01*
X196942857Y-57414285D01*
X197014285Y-57485714D01*
X197085714Y-57628571D01*
X197157142Y-57914285D01*
X197228571Y-58057142D01*
X197300000Y-58128571D01*
X197442857Y-58200000D01*
X197585714Y-58200000D01*
X197728571Y-58128571D01*
X197800000Y-58057142D01*
X197871428Y-57914285D01*
X197871428Y-57557142D01*
X197800000Y-57342857D01*
X197871428Y-56414285D02*
X197871428Y-56128571D01*
X197800000Y-55985714D01*
X197657142Y-55842857D01*
X197371428Y-55771428D01*
X196871428Y-55771428D01*
X196585714Y-55842857D01*
X196442857Y-55985714D01*
X196371428Y-56128571D01*
X196371428Y-56414285D01*
X196442857Y-56557142D01*
X196585714Y-56700000D01*
X196871428Y-56771428D01*
X197371428Y-56771428D01*
X197657142Y-56700000D01*
X197800000Y-56557142D01*
X197871428Y-56414285D01*
X192871428Y-74507142D02*
X194371428Y-74507142D01*
X193300000Y-74007142D01*
X194371428Y-73507142D01*
X192871428Y-73507142D01*
X194371428Y-72507142D02*
X194371428Y-72221428D01*
X194300000Y-72078571D01*
X194157142Y-71935714D01*
X193871428Y-71864285D01*
X193371428Y-71864285D01*
X193085714Y-71935714D01*
X192942857Y-72078571D01*
X192871428Y-72221428D01*
X192871428Y-72507142D01*
X192942857Y-72650000D01*
X193085714Y-72792857D01*
X193371428Y-72864285D01*
X193871428Y-72864285D01*
X194157142Y-72792857D01*
X194300000Y-72650000D01*
X194371428Y-72507142D01*
X192942857Y-71292857D02*
X192871428Y-71078571D01*
X192871428Y-70721428D01*
X192942857Y-70578571D01*
X193014285Y-70507142D01*
X193157142Y-70435714D01*
X193300000Y-70435714D01*
X193442857Y-70507142D01*
X193514285Y-70578571D01*
X193585714Y-70721428D01*
X193657142Y-71007142D01*
X193728571Y-71150000D01*
X193800000Y-71221428D01*
X193942857Y-71292857D01*
X194085714Y-71292857D01*
X194228571Y-71221428D01*
X194300000Y-71150000D01*
X194371428Y-71007142D01*
X194371428Y-70650000D01*
X194300000Y-70435714D01*
X192871428Y-69792857D02*
X194371428Y-69792857D01*
X188064285Y-67950000D02*
X187992857Y-68021428D01*
X187921428Y-68235714D01*
X187921428Y-68378571D01*
X187992857Y-68592857D01*
X188135714Y-68735714D01*
X188278571Y-68807142D01*
X188564285Y-68878571D01*
X188778571Y-68878571D01*
X189064285Y-68807142D01*
X189207142Y-68735714D01*
X189350000Y-68592857D01*
X189421428Y-68378571D01*
X189421428Y-68235714D01*
X189350000Y-68021428D01*
X189278571Y-67950000D01*
X187992857Y-67378571D02*
X187921428Y-67164285D01*
X187921428Y-66807142D01*
X187992857Y-66664285D01*
X188064285Y-66592857D01*
X188207142Y-66521428D01*
X188350000Y-66521428D01*
X188492857Y-66592857D01*
X188564285Y-66664285D01*
X188635714Y-66807142D01*
X188707142Y-67092857D01*
X188778571Y-67235714D01*
X188850000Y-67307142D01*
X188992857Y-67378571D01*
X189135714Y-67378571D01*
X189278571Y-67307142D01*
X189350000Y-67235714D01*
X189421428Y-67092857D01*
X189421428Y-66735714D01*
X189350000Y-66521428D01*
X179178571Y-65678571D02*
X179678571Y-64964285D01*
X180035714Y-65678571D02*
X180035714Y-64178571D01*
X179464285Y-64178571D01*
X179321428Y-64250000D01*
X179250000Y-64321428D01*
X179178571Y-64464285D01*
X179178571Y-64678571D01*
X179250000Y-64821428D01*
X179321428Y-64892857D01*
X179464285Y-64964285D01*
X180035714Y-64964285D01*
X178535714Y-64892857D02*
X178035714Y-64892857D01*
X177821428Y-65678571D02*
X178535714Y-65678571D01*
X178535714Y-64178571D01*
X177821428Y-64178571D01*
X177250000Y-65607142D02*
X177035714Y-65678571D01*
X176678571Y-65678571D01*
X176535714Y-65607142D01*
X176464285Y-65535714D01*
X176392857Y-65392857D01*
X176392857Y-65250000D01*
X176464285Y-65107142D01*
X176535714Y-65035714D01*
X176678571Y-64964285D01*
X176964285Y-64892857D01*
X177107142Y-64821428D01*
X177178571Y-64750000D01*
X177250000Y-64607142D01*
X177250000Y-64464285D01*
X177178571Y-64321428D01*
X177107142Y-64250000D01*
X176964285Y-64178571D01*
X176607142Y-64178571D01*
X176392857Y-64250000D01*
X175750000Y-64892857D02*
X175250000Y-64892857D01*
X175035714Y-65678571D02*
X175750000Y-65678571D01*
X175750000Y-64178571D01*
X175035714Y-64178571D01*
X174607142Y-64178571D02*
X173750000Y-64178571D01*
X174178571Y-65678571D02*
X174178571Y-64178571D01*
X179535714Y-96892857D02*
X180035714Y-96892857D01*
X180035714Y-97678571D02*
X180035714Y-96178571D01*
X179321428Y-96178571D01*
X178035714Y-97678571D02*
X178750000Y-97678571D01*
X178750000Y-96178571D01*
X177607142Y-97250000D02*
X176892857Y-97250000D01*
X177750000Y-97678571D02*
X177250000Y-96178571D01*
X176750000Y-97678571D01*
X176321428Y-97607142D02*
X176107142Y-97678571D01*
X175750000Y-97678571D01*
X175607142Y-97607142D01*
X175535714Y-97535714D01*
X175464285Y-97392857D01*
X175464285Y-97250000D01*
X175535714Y-97107142D01*
X175607142Y-97035714D01*
X175750000Y-96964285D01*
X176035714Y-96892857D01*
X176178571Y-96821428D01*
X176250000Y-96750000D01*
X176321428Y-96607142D01*
X176321428Y-96464285D01*
X176250000Y-96321428D01*
X176178571Y-96250000D01*
X176035714Y-96178571D01*
X175678571Y-96178571D01*
X175464285Y-96250000D01*
X174821428Y-97678571D02*
X174821428Y-96178571D01*
X174821428Y-96892857D02*
X173964285Y-96892857D01*
X173964285Y-97678571D02*
X173964285Y-96178571D01*
X124785714Y-96178571D02*
X124500000Y-96178571D01*
X124357142Y-96250000D01*
X124214285Y-96392857D01*
X124142857Y-96678571D01*
X124142857Y-97178571D01*
X124214285Y-97464285D01*
X124357142Y-97607142D01*
X124500000Y-97678571D01*
X124785714Y-97678571D01*
X124928571Y-97607142D01*
X125071428Y-97464285D01*
X125142857Y-97178571D01*
X125142857Y-96678571D01*
X125071428Y-96392857D01*
X124928571Y-96250000D01*
X124785714Y-96178571D01*
X123500000Y-97678571D02*
X123500000Y-96178571D01*
X122642857Y-97678571D01*
X122642857Y-96178571D01*
X120857142Y-96107142D02*
X122142857Y-98035714D01*
X120071428Y-96178571D02*
X119785714Y-96178571D01*
X119642857Y-96250000D01*
X119500000Y-96392857D01*
X119428571Y-96678571D01*
X119428571Y-97178571D01*
X119500000Y-97464285D01*
X119642857Y-97607142D01*
X119785714Y-97678571D01*
X120071428Y-97678571D01*
X120214285Y-97607142D01*
X120357142Y-97464285D01*
X120428571Y-97178571D01*
X120428571Y-96678571D01*
X120357142Y-96392857D01*
X120214285Y-96250000D01*
X120071428Y-96178571D01*
X118285714Y-96892857D02*
X118785714Y-96892857D01*
X118785714Y-97678571D02*
X118785714Y-96178571D01*
X118071428Y-96178571D01*
X117000000Y-96892857D02*
X117500000Y-96892857D01*
X117500000Y-97678571D02*
X117500000Y-96178571D01*
X116785714Y-96178571D01*
D12*
%TO.C,G2*%
G36*
X158800285Y-57155690D02*
G01*
X158384545Y-57281290D01*
X158013017Y-57510570D01*
X157669273Y-57858010D01*
X157336882Y-58338089D01*
X156999417Y-58965290D01*
X156867650Y-59242579D01*
X156643603Y-59724785D01*
X156375641Y-60297623D01*
X156092921Y-60898969D01*
X155824603Y-61466703D01*
X155745816Y-61632664D01*
X155542739Y-62061166D01*
X155367731Y-62432921D01*
X155232656Y-62722527D01*
X155149374Y-62904584D01*
X155128000Y-62955608D01*
X155093891Y-63036409D01*
X155000686Y-63240514D01*
X154862069Y-63538330D01*
X154691724Y-63900267D01*
X154666738Y-63953072D01*
X154471361Y-64376908D01*
X154287317Y-64796045D01*
X154136197Y-65160127D01*
X154044384Y-65404427D01*
X153948920Y-65669621D01*
X153867244Y-65866027D01*
X153826399Y-65938490D01*
X153815887Y-65867629D01*
X153806874Y-65642935D01*
X153799482Y-65279899D01*
X153793833Y-64794016D01*
X153790046Y-64200778D01*
X153788245Y-63515680D01*
X153788549Y-62754214D01*
X153791080Y-61931874D01*
X153792586Y-61618994D01*
X153815667Y-57242605D01*
X152693833Y-57242636D01*
X151572000Y-57242666D01*
X151571933Y-59041833D01*
X151571867Y-60841000D01*
X151330222Y-60330214D01*
X150860605Y-59532689D01*
X150254953Y-58828308D01*
X149525102Y-58227712D01*
X148682892Y-57741540D01*
X148236776Y-57549852D01*
X147550333Y-57285000D01*
X142491500Y-57260682D01*
X137432667Y-57236365D01*
X137431662Y-60181682D01*
X137430029Y-61046159D01*
X137424389Y-61760505D01*
X137412658Y-62343914D01*
X137392755Y-62815578D01*
X137362597Y-63194690D01*
X137320102Y-63500442D01*
X137263187Y-63752027D01*
X137189770Y-63968636D01*
X137097769Y-64169463D01*
X136985101Y-64373700D01*
X136974948Y-64391076D01*
X136603241Y-64872031D01*
X136099656Y-65295294D01*
X135497692Y-65639558D01*
X134830850Y-65883517D01*
X134515234Y-65955508D01*
X134210928Y-65995242D01*
X133802029Y-66026427D01*
X133353223Y-66044839D01*
X133099117Y-66048000D01*
X132183333Y-66048000D01*
X132183333Y-67158961D01*
X132183334Y-68269922D01*
X133474500Y-68226818D01*
X134088200Y-68199090D01*
X134573009Y-68158917D01*
X134969192Y-68101554D01*
X135317018Y-68022255D01*
X135393488Y-68000684D01*
X136379477Y-67639221D01*
X137241665Y-67167920D01*
X137976170Y-66591058D01*
X138579112Y-65912914D01*
X139046608Y-65137764D01*
X139374779Y-64269887D01*
X139546476Y-63423333D01*
X139573176Y-63130651D01*
X139596559Y-62709709D01*
X139615086Y-62201568D01*
X139627220Y-61647293D01*
X139631386Y-61155990D01*
X139634000Y-59523647D01*
X143422833Y-59547323D01*
X147211667Y-59571000D01*
X147719667Y-59820229D01*
X148289171Y-60184840D01*
X148794373Y-60673117D01*
X149191101Y-61240596D01*
X149258069Y-61368865D01*
X149365627Y-61602579D01*
X149435238Y-61809195D01*
X149475015Y-62036813D01*
X149493074Y-62333530D01*
X149497529Y-62747444D01*
X149497540Y-62788333D01*
X149493121Y-63219751D01*
X149475539Y-63525932D01*
X149438102Y-63750850D01*
X149374116Y-63938478D01*
X149299184Y-64091525D01*
X148882638Y-64708785D01*
X148355783Y-65202485D01*
X147716224Y-65573812D01*
X146961565Y-65823951D01*
X146089411Y-65954088D01*
X145493797Y-65975041D01*
X144722736Y-65937938D01*
X144068130Y-65832601D01*
X143544494Y-65662337D01*
X143190000Y-65450451D01*
X142978333Y-65276519D01*
X143353698Y-65333659D01*
X144198240Y-65392352D01*
X144965726Y-65300992D01*
X145654040Y-65061376D01*
X146261066Y-64675296D01*
X146784691Y-64144549D01*
X147116091Y-63635000D01*
X142089333Y-63635000D01*
X142047000Y-63677333D01*
X142004667Y-63635000D01*
X142047000Y-63592666D01*
X142089333Y-63635000D01*
X147116091Y-63635000D01*
X147222800Y-63470928D01*
X147573276Y-62656228D01*
X147834007Y-61702244D01*
X147874771Y-61497166D01*
X147989880Y-60883333D01*
X145611107Y-60884338D01*
X144767382Y-60887850D01*
X144071826Y-60900614D01*
X143503341Y-60927140D01*
X143040830Y-60971940D01*
X142663194Y-61039525D01*
X142349335Y-61134406D01*
X142078156Y-61261095D01*
X141828559Y-61424103D01*
X141579445Y-61627941D01*
X141409656Y-61782718D01*
X140990018Y-62288204D01*
X140678997Y-62908699D01*
X140483152Y-63624091D01*
X140409042Y-64414266D01*
X140419012Y-64820333D01*
X140542932Y-65551727D01*
X140814852Y-66210831D01*
X141226958Y-66791660D01*
X141771439Y-67288229D01*
X142440480Y-67694555D01*
X143226270Y-68004652D01*
X144120997Y-68212537D01*
X144968000Y-68304796D01*
X146089639Y-68302376D01*
X147147688Y-68164809D01*
X148130601Y-67897206D01*
X149026830Y-67504678D01*
X149824828Y-66992338D01*
X150513049Y-66365296D01*
X151079945Y-65628662D01*
X151105552Y-65587997D01*
X151282140Y-65293827D01*
X151419189Y-65045061D01*
X151494275Y-64883160D01*
X151501670Y-64855560D01*
X151510928Y-64888042D01*
X151526020Y-65062334D01*
X151544977Y-65351090D01*
X151565831Y-65726966D01*
X151569244Y-65794000D01*
X151609909Y-66364450D01*
X151675603Y-66802654D01*
X151779787Y-67145302D01*
X151935921Y-67429086D01*
X152157466Y-67690696D01*
X152322824Y-67848163D01*
X152666542Y-68086660D01*
X153089943Y-68278200D01*
X153519340Y-68393887D01*
X153767534Y-68414706D01*
X153972974Y-68381667D01*
X154251604Y-68302053D01*
X154402246Y-68247831D01*
X154740929Y-68085953D01*
X155035430Y-67871261D01*
X155306337Y-67579537D01*
X155574235Y-67186561D01*
X155859711Y-66668115D01*
X156020281Y-66344333D01*
X156422119Y-65509108D01*
X156819877Y-64675631D01*
X157205695Y-63860851D01*
X157571712Y-63081719D01*
X157910069Y-62355186D01*
X158212904Y-61698202D01*
X158472358Y-61127717D01*
X158680571Y-60660683D01*
X158829681Y-60314048D01*
X158906029Y-60121333D01*
X159102962Y-59571000D01*
X159105148Y-63910166D01*
X159107333Y-68249333D01*
X161399928Y-68249333D01*
X161375464Y-63444500D01*
X161370130Y-62421492D01*
X161365010Y-61553907D01*
X161359542Y-60827836D01*
X161353165Y-60229372D01*
X161345318Y-59744606D01*
X161335440Y-59359629D01*
X161322970Y-59060533D01*
X161307345Y-58833409D01*
X161288006Y-58664348D01*
X161264391Y-58539444D01*
X161235939Y-58444786D01*
X161202088Y-58366467D01*
X161167919Y-58301000D01*
X160806708Y-57788514D01*
X160357553Y-57416600D01*
X159830408Y-57191478D01*
X159276667Y-57119288D01*
X158800285Y-57155690D01*
G37*
X158800285Y-57155690D02*
X158384545Y-57281290D01*
X158013017Y-57510570D01*
X157669273Y-57858010D01*
X157336882Y-58338089D01*
X156999417Y-58965290D01*
X156867650Y-59242579D01*
X156643603Y-59724785D01*
X156375641Y-60297623D01*
X156092921Y-60898969D01*
X155824603Y-61466703D01*
X155745816Y-61632664D01*
X155542739Y-62061166D01*
X155367731Y-62432921D01*
X155232656Y-62722527D01*
X155149374Y-62904584D01*
X155128000Y-62955608D01*
X155093891Y-63036409D01*
X155000686Y-63240514D01*
X154862069Y-63538330D01*
X154691724Y-63900267D01*
X154666738Y-63953072D01*
X154471361Y-64376908D01*
X154287317Y-64796045D01*
X154136197Y-65160127D01*
X154044384Y-65404427D01*
X153948920Y-65669621D01*
X153867244Y-65866027D01*
X153826399Y-65938490D01*
X153815887Y-65867629D01*
X153806874Y-65642935D01*
X153799482Y-65279899D01*
X153793833Y-64794016D01*
X153790046Y-64200778D01*
X153788245Y-63515680D01*
X153788549Y-62754214D01*
X153791080Y-61931874D01*
X153792586Y-61618994D01*
X153815667Y-57242605D01*
X152693833Y-57242636D01*
X151572000Y-57242666D01*
X151571933Y-59041833D01*
X151571867Y-60841000D01*
X151330222Y-60330214D01*
X150860605Y-59532689D01*
X150254953Y-58828308D01*
X149525102Y-58227712D01*
X148682892Y-57741540D01*
X148236776Y-57549852D01*
X147550333Y-57285000D01*
X142491500Y-57260682D01*
X137432667Y-57236365D01*
X137431662Y-60181682D01*
X137430029Y-61046159D01*
X137424389Y-61760505D01*
X137412658Y-62343914D01*
X137392755Y-62815578D01*
X137362597Y-63194690D01*
X137320102Y-63500442D01*
X137263187Y-63752027D01*
X137189770Y-63968636D01*
X137097769Y-64169463D01*
X136985101Y-64373700D01*
X136974948Y-64391076D01*
X136603241Y-64872031D01*
X136099656Y-65295294D01*
X135497692Y-65639558D01*
X134830850Y-65883517D01*
X134515234Y-65955508D01*
X134210928Y-65995242D01*
X133802029Y-66026427D01*
X133353223Y-66044839D01*
X133099117Y-66048000D01*
X132183333Y-66048000D01*
X132183333Y-67158961D01*
X132183334Y-68269922D01*
X133474500Y-68226818D01*
X134088200Y-68199090D01*
X134573009Y-68158917D01*
X134969192Y-68101554D01*
X135317018Y-68022255D01*
X135393488Y-68000684D01*
X136379477Y-67639221D01*
X137241665Y-67167920D01*
X137976170Y-66591058D01*
X138579112Y-65912914D01*
X139046608Y-65137764D01*
X139374779Y-64269887D01*
X139546476Y-63423333D01*
X139573176Y-63130651D01*
X139596559Y-62709709D01*
X139615086Y-62201568D01*
X139627220Y-61647293D01*
X139631386Y-61155990D01*
X139634000Y-59523647D01*
X143422833Y-59547323D01*
X147211667Y-59571000D01*
X147719667Y-59820229D01*
X148289171Y-60184840D01*
X148794373Y-60673117D01*
X149191101Y-61240596D01*
X149258069Y-61368865D01*
X149365627Y-61602579D01*
X149435238Y-61809195D01*
X149475015Y-62036813D01*
X149493074Y-62333530D01*
X149497529Y-62747444D01*
X149497540Y-62788333D01*
X149493121Y-63219751D01*
X149475539Y-63525932D01*
X149438102Y-63750850D01*
X149374116Y-63938478D01*
X149299184Y-64091525D01*
X148882638Y-64708785D01*
X148355783Y-65202485D01*
X147716224Y-65573812D01*
X146961565Y-65823951D01*
X146089411Y-65954088D01*
X145493797Y-65975041D01*
X144722736Y-65937938D01*
X144068130Y-65832601D01*
X143544494Y-65662337D01*
X143190000Y-65450451D01*
X142978333Y-65276519D01*
X143353698Y-65333659D01*
X144198240Y-65392352D01*
X144965726Y-65300992D01*
X145654040Y-65061376D01*
X146261066Y-64675296D01*
X146784691Y-64144549D01*
X147116091Y-63635000D01*
X142089333Y-63635000D01*
X142047000Y-63677333D01*
X142004667Y-63635000D01*
X142047000Y-63592666D01*
X142089333Y-63635000D01*
X147116091Y-63635000D01*
X147222800Y-63470928D01*
X147573276Y-62656228D01*
X147834007Y-61702244D01*
X147874771Y-61497166D01*
X147989880Y-60883333D01*
X145611107Y-60884338D01*
X144767382Y-60887850D01*
X144071826Y-60900614D01*
X143503341Y-60927140D01*
X143040830Y-60971940D01*
X142663194Y-61039525D01*
X142349335Y-61134406D01*
X142078156Y-61261095D01*
X141828559Y-61424103D01*
X141579445Y-61627941D01*
X141409656Y-61782718D01*
X140990018Y-62288204D01*
X140678997Y-62908699D01*
X140483152Y-63624091D01*
X140409042Y-64414266D01*
X140419012Y-64820333D01*
X140542932Y-65551727D01*
X140814852Y-66210831D01*
X141226958Y-66791660D01*
X141771439Y-67288229D01*
X142440480Y-67694555D01*
X143226270Y-68004652D01*
X144120997Y-68212537D01*
X144968000Y-68304796D01*
X146089639Y-68302376D01*
X147147688Y-68164809D01*
X148130601Y-67897206D01*
X149026830Y-67504678D01*
X149824828Y-66992338D01*
X150513049Y-66365296D01*
X151079945Y-65628662D01*
X151105552Y-65587997D01*
X151282140Y-65293827D01*
X151419189Y-65045061D01*
X151494275Y-64883160D01*
X151501670Y-64855560D01*
X151510928Y-64888042D01*
X151526020Y-65062334D01*
X151544977Y-65351090D01*
X151565831Y-65726966D01*
X151569244Y-65794000D01*
X151609909Y-66364450D01*
X151675603Y-66802654D01*
X151779787Y-67145302D01*
X151935921Y-67429086D01*
X152157466Y-67690696D01*
X152322824Y-67848163D01*
X152666542Y-68086660D01*
X153089943Y-68278200D01*
X153519340Y-68393887D01*
X153767534Y-68414706D01*
X153972974Y-68381667D01*
X154251604Y-68302053D01*
X154402246Y-68247831D01*
X154740929Y-68085953D01*
X155035430Y-67871261D01*
X155306337Y-67579537D01*
X155574235Y-67186561D01*
X155859711Y-66668115D01*
X156020281Y-66344333D01*
X156422119Y-65509108D01*
X156819877Y-64675631D01*
X157205695Y-63860851D01*
X157571712Y-63081719D01*
X157910069Y-62355186D01*
X158212904Y-61698202D01*
X158472358Y-61127717D01*
X158680571Y-60660683D01*
X158829681Y-60314048D01*
X158906029Y-60121333D01*
X159102962Y-59571000D01*
X159105148Y-63910166D01*
X159107333Y-68249333D01*
X161399928Y-68249333D01*
X161375464Y-63444500D01*
X161370130Y-62421492D01*
X161365010Y-61553907D01*
X161359542Y-60827836D01*
X161353165Y-60229372D01*
X161345318Y-59744606D01*
X161335440Y-59359629D01*
X161322970Y-59060533D01*
X161307345Y-58833409D01*
X161288006Y-58664348D01*
X161264391Y-58539444D01*
X161235939Y-58444786D01*
X161202088Y-58366467D01*
X161167919Y-58301000D01*
X160806708Y-57788514D01*
X160357553Y-57416600D01*
X159830408Y-57191478D01*
X159276667Y-57119288D01*
X158800285Y-57155690D01*
G36*
X129238909Y-59803833D02*
G01*
X129263911Y-67275666D01*
X129499318Y-68037666D01*
X129927553Y-69162974D01*
X130480865Y-70174404D01*
X131157266Y-71070009D01*
X131954770Y-71847845D01*
X132871390Y-72505964D01*
X133905139Y-73042420D01*
X135019667Y-73445216D01*
X135107655Y-73470322D01*
X135198156Y-73492913D01*
X135300175Y-73513134D01*
X135422718Y-73531133D01*
X135574792Y-73547053D01*
X135765402Y-73561044D01*
X136003554Y-73573249D01*
X136298254Y-73583816D01*
X136658509Y-73592892D01*
X137093324Y-73600621D01*
X137611706Y-73607151D01*
X138222660Y-73612627D01*
X138935192Y-73617196D01*
X139758309Y-73621004D01*
X140701016Y-73624197D01*
X141772319Y-73626923D01*
X142981225Y-73629325D01*
X144336739Y-73631552D01*
X145847868Y-73633749D01*
X146703667Y-73634936D01*
X148067642Y-73636299D01*
X149389391Y-73636613D01*
X150658534Y-73635928D01*
X151864692Y-73634289D01*
X152997485Y-73631746D01*
X154046533Y-73628344D01*
X155001457Y-73624132D01*
X155851877Y-73619156D01*
X156587414Y-73613465D01*
X157197687Y-73607106D01*
X157672318Y-73600127D01*
X158000926Y-73592573D01*
X158173132Y-73584494D01*
X158190321Y-73582434D01*
X159320890Y-73306589D01*
X160374078Y-72880334D01*
X161348159Y-72304524D01*
X162241409Y-71580014D01*
X162258944Y-71563535D01*
X163027184Y-70742459D01*
X163646412Y-69860397D01*
X164133305Y-68890625D01*
X164416881Y-68105110D01*
X164647973Y-67360333D01*
X164676258Y-63349303D01*
X164678485Y-63000000D01*
X164186147Y-63000000D01*
X164185721Y-63940522D01*
X164184046Y-64728555D01*
X164180526Y-65380942D01*
X164174564Y-65914525D01*
X164165566Y-66346148D01*
X164152933Y-66692652D01*
X164136072Y-66970882D01*
X164114385Y-67197680D01*
X164087276Y-67389889D01*
X164054150Y-67564351D01*
X164019176Y-67718125D01*
X163685834Y-68757499D01*
X163208869Y-69716093D01*
X162598871Y-70583075D01*
X161866429Y-71347610D01*
X161022131Y-71998865D01*
X160076568Y-72526007D01*
X159040328Y-72918203D01*
X158895667Y-72959776D01*
X158218333Y-73147394D01*
X147014107Y-73153697D01*
X145409396Y-73154558D01*
X143964993Y-73155159D01*
X142671870Y-73155372D01*
X141521002Y-73155068D01*
X140503363Y-73154120D01*
X139609925Y-73152401D01*
X138831665Y-73149782D01*
X138159554Y-73146136D01*
X137584566Y-73141335D01*
X137097677Y-73135251D01*
X136689859Y-73127757D01*
X136352086Y-73118725D01*
X136075332Y-73108026D01*
X135850571Y-73095535D01*
X135668776Y-73081121D01*
X135520922Y-73064659D01*
X135397982Y-73046019D01*
X135290931Y-73025075D01*
X135190741Y-73001699D01*
X135126252Y-72985454D01*
X134075364Y-72633064D01*
X133110379Y-72139766D01*
X132241999Y-71516261D01*
X131480930Y-70773247D01*
X130837876Y-69921421D01*
X130323540Y-68971482D01*
X129948627Y-67934130D01*
X129903482Y-67765415D01*
X129872696Y-67640227D01*
X129845772Y-67513836D01*
X129822447Y-67374551D01*
X129802457Y-67210678D01*
X129785538Y-67010525D01*
X129771427Y-66762398D01*
X129759859Y-66454605D01*
X129750572Y-66075453D01*
X129743301Y-65613249D01*
X129737783Y-65056301D01*
X129733755Y-64392915D01*
X129730951Y-63611400D01*
X129729110Y-62700061D01*
X129727967Y-61647206D01*
X129727258Y-60441142D01*
X129727048Y-59941560D01*
X129724223Y-52797666D01*
X143886611Y-52797666D01*
X145707660Y-52797747D01*
X147367213Y-52798044D01*
X148873111Y-52798634D01*
X150233192Y-52799597D01*
X151455294Y-52801012D01*
X152547256Y-52802958D01*
X153516917Y-52805514D01*
X154372115Y-52808759D01*
X155120690Y-52812772D01*
X155770480Y-52817631D01*
X156329323Y-52823416D01*
X156805058Y-52830206D01*
X157205525Y-52838080D01*
X157538561Y-52847116D01*
X157812005Y-52857394D01*
X158033697Y-52868992D01*
X158211474Y-52881990D01*
X158353175Y-52896467D01*
X158466640Y-52912501D01*
X158559707Y-52930171D01*
X158627181Y-52946164D01*
X159709411Y-53304662D01*
X160698608Y-53795782D01*
X161585420Y-54410271D01*
X162360495Y-55138873D01*
X163014480Y-55972334D01*
X163538025Y-56901401D01*
X163921778Y-57916819D01*
X164019176Y-58281874D01*
X164058150Y-58454701D01*
X164090578Y-58630305D01*
X164117054Y-58825528D01*
X164138175Y-59057215D01*
X164154537Y-59342206D01*
X164166735Y-59697347D01*
X164175367Y-60139478D01*
X164181027Y-60685444D01*
X164184313Y-61352086D01*
X164185819Y-62156249D01*
X164186147Y-63000000D01*
X164678485Y-63000000D01*
X164682348Y-62394143D01*
X164685717Y-61591402D01*
X164685960Y-60924183D01*
X164682668Y-60375585D01*
X164675432Y-59928712D01*
X164663845Y-59566665D01*
X164647500Y-59272545D01*
X164625987Y-59029453D01*
X164598900Y-58820493D01*
X164565831Y-58628764D01*
X164561804Y-58607969D01*
X164262434Y-57499857D01*
X163818368Y-56469932D01*
X163240081Y-55528856D01*
X162538050Y-54687289D01*
X161722748Y-53955891D01*
X160804652Y-53345323D01*
X159794238Y-52866246D01*
X158701979Y-52529320D01*
X158557000Y-52497045D01*
X158455047Y-52476305D01*
X158347444Y-52457407D01*
X158226257Y-52440264D01*
X158083553Y-52424790D01*
X157911399Y-52410899D01*
X157701862Y-52398503D01*
X157447008Y-52387518D01*
X157138905Y-52377857D01*
X156769618Y-52369432D01*
X156331215Y-52362159D01*
X155815763Y-52355951D01*
X155215327Y-52350722D01*
X154521976Y-52346384D01*
X153727775Y-52342853D01*
X152824792Y-52340042D01*
X151805093Y-52337863D01*
X150660745Y-52336232D01*
X149383815Y-52335062D01*
X147966369Y-52334267D01*
X146400474Y-52333759D01*
X144678198Y-52333454D01*
X143504453Y-52333326D01*
X129213906Y-52332000D01*
X129238909Y-59803833D01*
G37*
X129238909Y-59803833D02*
X129263911Y-67275666D01*
X129499318Y-68037666D01*
X129927553Y-69162974D01*
X130480865Y-70174404D01*
X131157266Y-71070009D01*
X131954770Y-71847845D01*
X132871390Y-72505964D01*
X133905139Y-73042420D01*
X135019667Y-73445216D01*
X135107655Y-73470322D01*
X135198156Y-73492913D01*
X135300175Y-73513134D01*
X135422718Y-73531133D01*
X135574792Y-73547053D01*
X135765402Y-73561044D01*
X136003554Y-73573249D01*
X136298254Y-73583816D01*
X136658509Y-73592892D01*
X137093324Y-73600621D01*
X137611706Y-73607151D01*
X138222660Y-73612627D01*
X138935192Y-73617196D01*
X139758309Y-73621004D01*
X140701016Y-73624197D01*
X141772319Y-73626923D01*
X142981225Y-73629325D01*
X144336739Y-73631552D01*
X145847868Y-73633749D01*
X146703667Y-73634936D01*
X148067642Y-73636299D01*
X149389391Y-73636613D01*
X150658534Y-73635928D01*
X151864692Y-73634289D01*
X152997485Y-73631746D01*
X154046533Y-73628344D01*
X155001457Y-73624132D01*
X155851877Y-73619156D01*
X156587414Y-73613465D01*
X157197687Y-73607106D01*
X157672318Y-73600127D01*
X158000926Y-73592573D01*
X158173132Y-73584494D01*
X158190321Y-73582434D01*
X159320890Y-73306589D01*
X160374078Y-72880334D01*
X161348159Y-72304524D01*
X162241409Y-71580014D01*
X162258944Y-71563535D01*
X163027184Y-70742459D01*
X163646412Y-69860397D01*
X164133305Y-68890625D01*
X164416881Y-68105110D01*
X164647973Y-67360333D01*
X164676258Y-63349303D01*
X164678485Y-63000000D01*
X164186147Y-63000000D01*
X164185721Y-63940522D01*
X164184046Y-64728555D01*
X164180526Y-65380942D01*
X164174564Y-65914525D01*
X164165566Y-66346148D01*
X164152933Y-66692652D01*
X164136072Y-66970882D01*
X164114385Y-67197680D01*
X164087276Y-67389889D01*
X164054150Y-67564351D01*
X164019176Y-67718125D01*
X163685834Y-68757499D01*
X163208869Y-69716093D01*
X162598871Y-70583075D01*
X161866429Y-71347610D01*
X161022131Y-71998865D01*
X160076568Y-72526007D01*
X159040328Y-72918203D01*
X158895667Y-72959776D01*
X158218333Y-73147394D01*
X147014107Y-73153697D01*
X145409396Y-73154558D01*
X143964993Y-73155159D01*
X142671870Y-73155372D01*
X141521002Y-73155068D01*
X140503363Y-73154120D01*
X139609925Y-73152401D01*
X138831665Y-73149782D01*
X138159554Y-73146136D01*
X137584566Y-73141335D01*
X137097677Y-73135251D01*
X136689859Y-73127757D01*
X136352086Y-73118725D01*
X136075332Y-73108026D01*
X135850571Y-73095535D01*
X135668776Y-73081121D01*
X135520922Y-73064659D01*
X135397982Y-73046019D01*
X135290931Y-73025075D01*
X135190741Y-73001699D01*
X135126252Y-72985454D01*
X134075364Y-72633064D01*
X133110379Y-72139766D01*
X132241999Y-71516261D01*
X131480930Y-70773247D01*
X130837876Y-69921421D01*
X130323540Y-68971482D01*
X129948627Y-67934130D01*
X129903482Y-67765415D01*
X129872696Y-67640227D01*
X129845772Y-67513836D01*
X129822447Y-67374551D01*
X129802457Y-67210678D01*
X129785538Y-67010525D01*
X129771427Y-66762398D01*
X129759859Y-66454605D01*
X129750572Y-66075453D01*
X129743301Y-65613249D01*
X129737783Y-65056301D01*
X129733755Y-64392915D01*
X129730951Y-63611400D01*
X129729110Y-62700061D01*
X129727967Y-61647206D01*
X129727258Y-60441142D01*
X129727048Y-59941560D01*
X129724223Y-52797666D01*
X143886611Y-52797666D01*
X145707660Y-52797747D01*
X147367213Y-52798044D01*
X148873111Y-52798634D01*
X150233192Y-52799597D01*
X151455294Y-52801012D01*
X152547256Y-52802958D01*
X153516917Y-52805514D01*
X154372115Y-52808759D01*
X155120690Y-52812772D01*
X155770480Y-52817631D01*
X156329323Y-52823416D01*
X156805058Y-52830206D01*
X157205525Y-52838080D01*
X157538561Y-52847116D01*
X157812005Y-52857394D01*
X158033697Y-52868992D01*
X158211474Y-52881990D01*
X158353175Y-52896467D01*
X158466640Y-52912501D01*
X158559707Y-52930171D01*
X158627181Y-52946164D01*
X159709411Y-53304662D01*
X160698608Y-53795782D01*
X161585420Y-54410271D01*
X162360495Y-55138873D01*
X163014480Y-55972334D01*
X163538025Y-56901401D01*
X163921778Y-57916819D01*
X164019176Y-58281874D01*
X164058150Y-58454701D01*
X164090578Y-58630305D01*
X164117054Y-58825528D01*
X164138175Y-59057215D01*
X164154537Y-59342206D01*
X164166735Y-59697347D01*
X164175367Y-60139478D01*
X164181027Y-60685444D01*
X164184313Y-61352086D01*
X164185819Y-62156249D01*
X164186147Y-63000000D01*
X164678485Y-63000000D01*
X164682348Y-62394143D01*
X164685717Y-61591402D01*
X164685960Y-60924183D01*
X164682668Y-60375585D01*
X164675432Y-59928712D01*
X164663845Y-59566665D01*
X164647500Y-59272545D01*
X164625987Y-59029453D01*
X164598900Y-58820493D01*
X164565831Y-58628764D01*
X164561804Y-58607969D01*
X164262434Y-57499857D01*
X163818368Y-56469932D01*
X163240081Y-55528856D01*
X162538050Y-54687289D01*
X161722748Y-53955891D01*
X160804652Y-53345323D01*
X159794238Y-52866246D01*
X158701979Y-52529320D01*
X158557000Y-52497045D01*
X158455047Y-52476305D01*
X158347444Y-52457407D01*
X158226257Y-52440264D01*
X158083553Y-52424790D01*
X157911399Y-52410899D01*
X157701862Y-52398503D01*
X157447008Y-52387518D01*
X157138905Y-52377857D01*
X156769618Y-52369432D01*
X156331215Y-52362159D01*
X155815763Y-52355951D01*
X155215327Y-52350722D01*
X154521976Y-52346384D01*
X153727775Y-52342853D01*
X152824792Y-52340042D01*
X151805093Y-52337863D01*
X150660745Y-52336232D01*
X149383815Y-52335062D01*
X147966369Y-52334267D01*
X146400474Y-52333759D01*
X144678198Y-52333454D01*
X143504453Y-52333326D01*
X129213906Y-52332000D01*
X129238909Y-59803833D01*
D13*
%TO.C,J3*%
X115350000Y-95000000D02*
G75*
G03*
X115350000Y-95000000I-100000J0D01*
G01*
D14*
X114480000Y-87620000D02*
X100130000Y-87620000D01*
X114480000Y-102380000D02*
X114480000Y-87620000D01*
X100130000Y-102380000D02*
X114480000Y-102380000D01*
X100130000Y-87620000D02*
X100130000Y-102380000D01*
D15*
%TO.C,SW3*%
X180374200Y-69582039D02*
X180374200Y-71925298D01*
X174637640Y-67625799D02*
X179442292Y-67625799D01*
X174125800Y-71925298D02*
X174125800Y-69574701D01*
X179862360Y-73874199D02*
X174637640Y-73874199D01*
%TO.C,SW4*%
X180374200Y-91082039D02*
X180374200Y-93425298D01*
X174637640Y-89125799D02*
X179442292Y-89125799D01*
X174125800Y-93425298D02*
X174125800Y-91074701D01*
X179862360Y-95374199D02*
X174637640Y-95374199D01*
D14*
%TO.C,BT1*%
X204500000Y-107300000D02*
X206000000Y-107300000D01*
X126475000Y-98675000D02*
X203525000Y-98675000D01*
X126475000Y-119325000D02*
X126475000Y-98675000D01*
X203525000Y-119325000D02*
X126475000Y-119325000D01*
X203525000Y-98675000D02*
X203525000Y-119325000D01*
X124750000Y-108050000D02*
X124750000Y-106550000D01*
X125500000Y-107300000D02*
X124000000Y-107300000D01*
D16*
%TO.C,S1*%
X117423606Y-109900000D02*
G75*
G03*
X117423606Y-109900000I-223606J0D01*
G01*
X117423606Y-109900000D02*
G75*
G03*
X117423606Y-109900000I-223606J0D01*
G01*
X117341419Y-109900000D02*
G75*
G03*
X117341419Y-109900000I-141419J0D01*
G01*
X117423606Y-109900000D02*
G75*
G03*
X117423606Y-109900000I-223606J0D01*
G01*
X117482841Y-109900000D02*
G75*
G03*
X117482841Y-109900000I-282841J0D01*
G01*
X117560553Y-109900000D02*
G75*
G03*
X117560553Y-109900000I-360553J0D01*
G01*
D13*
X118200000Y-99150000D02*
X118200000Y-111850000D01*
X124800000Y-99150000D02*
X118200000Y-99150000D01*
X124800000Y-111850000D02*
X124800000Y-99150000D01*
X118200000Y-111850000D02*
X124800000Y-111850000D01*
D15*
%TO.C,J5*%
X198450000Y-95220000D02*
X198450000Y-97880000D01*
X190770000Y-95220000D02*
X198450000Y-95220000D01*
X190770000Y-97880000D02*
X198450000Y-97880000D01*
X190770000Y-95220000D02*
X190770000Y-97880000D01*
X189500000Y-95220000D02*
X188170000Y-95220000D01*
X188170000Y-95220000D02*
X188170000Y-96550000D01*
%TO.C,J2*%
X205170000Y-108410000D02*
X206500000Y-108410000D01*
X205170000Y-107080000D02*
X205170000Y-108410000D01*
X205170000Y-105810000D02*
X207830000Y-105810000D01*
X207830000Y-105810000D02*
X207830000Y-98130000D01*
X205170000Y-105810000D02*
X205170000Y-98130000D01*
X205170000Y-98130000D02*
X207830000Y-98130000D01*
%TO.C,D10*%
X193710000Y-61420000D02*
X193710000Y-61264000D01*
X193710000Y-63736000D02*
X193710000Y-63580000D01*
X196942335Y-63578608D02*
G75*
G02*
X193710000Y-63735516I-1672335J1078608D01*
G01*
X196942335Y-61421392D02*
G75*
G03*
X193710000Y-61264484I-1672335J-1078608D01*
G01*
X196311130Y-63579837D02*
G75*
G02*
X194229039Y-63580000I-1041130J1079837D01*
G01*
X196311130Y-61420163D02*
G75*
G03*
X194229039Y-61420000I-1041130J-1079837D01*
G01*
%TO.C,J4*%
X190670000Y-66170000D02*
X190670000Y-67500000D01*
X192000000Y-66170000D02*
X190670000Y-66170000D01*
X193270000Y-66170000D02*
X193270000Y-68830000D01*
X193270000Y-68830000D02*
X206030000Y-68830000D01*
X193270000Y-66170000D02*
X206030000Y-66170000D01*
X206030000Y-66170000D02*
X206030000Y-68830000D01*
%TO.C,J6*%
X186130000Y-50670000D02*
X186130000Y-52000000D01*
X187460000Y-50670000D02*
X186130000Y-50670000D01*
X188730000Y-50670000D02*
X188730000Y-53330000D01*
X188730000Y-53330000D02*
X193870000Y-53330000D01*
X188730000Y-50670000D02*
X193870000Y-50670000D01*
X193870000Y-50670000D02*
X193870000Y-53330000D01*
%TO.C,JP1*%
X122670000Y-78130000D02*
X125330000Y-78130000D01*
X122670000Y-80730000D02*
X122670000Y-78130000D01*
X125330000Y-80730000D02*
X125330000Y-78130000D01*
X122670000Y-80730000D02*
X125330000Y-80730000D01*
X122670000Y-82000000D02*
X122670000Y-83330000D01*
X122670000Y-83330000D02*
X124000000Y-83330000D01*
%TO.C,JP2*%
X122670000Y-73330000D02*
X124000000Y-73330000D01*
X122670000Y-72000000D02*
X122670000Y-73330000D01*
X122670000Y-70730000D02*
X125330000Y-70730000D01*
X125330000Y-70730000D02*
X125330000Y-68130000D01*
X122670000Y-70730000D02*
X122670000Y-68130000D01*
X122670000Y-68130000D02*
X125330000Y-68130000D01*
%TO.C,JP3*%
X150970000Y-80220000D02*
X150970000Y-81550000D01*
X152300000Y-80220000D02*
X150970000Y-80220000D01*
X153570000Y-80220000D02*
X153570000Y-82880000D01*
X153570000Y-82880000D02*
X156170000Y-82880000D01*
X153570000Y-80220000D02*
X156170000Y-80220000D01*
X156170000Y-80220000D02*
X156170000Y-82880000D01*
%TO.C,JP4*%
X129330000Y-68170000D02*
X128000000Y-68170000D01*
X129330000Y-69500000D02*
X129330000Y-68170000D01*
X129330000Y-70770000D02*
X126670000Y-70770000D01*
X126670000Y-70770000D02*
X126670000Y-73370000D01*
X129330000Y-70770000D02*
X129330000Y-73370000D01*
X129330000Y-73370000D02*
X126670000Y-73370000D01*
%TO.C,JP8*%
X121330000Y-83370000D02*
X118670000Y-83370000D01*
X121330000Y-80770000D02*
X121330000Y-83370000D01*
X118670000Y-80770000D02*
X118670000Y-83370000D01*
X121330000Y-80770000D02*
X118670000Y-80770000D01*
X121330000Y-79500000D02*
X121330000Y-78170000D01*
X121330000Y-78170000D02*
X120000000Y-78170000D01*
%TO.C,JP9*%
X129330000Y-78170000D02*
X128000000Y-78170000D01*
X129330000Y-79500000D02*
X129330000Y-78170000D01*
X129330000Y-80770000D02*
X126670000Y-80770000D01*
X126670000Y-80770000D02*
X126670000Y-83370000D01*
X129330000Y-80770000D02*
X129330000Y-83370000D01*
X129330000Y-83370000D02*
X126670000Y-83370000D01*
%TO.C,JP10*%
X118670000Y-68130000D02*
X121330000Y-68130000D01*
X118670000Y-70730000D02*
X118670000Y-68130000D01*
X121330000Y-70730000D02*
X121330000Y-68130000D01*
X118670000Y-70730000D02*
X121330000Y-70730000D01*
X118670000Y-72000000D02*
X118670000Y-73330000D01*
X118670000Y-73330000D02*
X120000000Y-73330000D01*
%TO.C,JP11*%
X131130000Y-79330000D02*
X131130000Y-76670000D01*
X133730000Y-79330000D02*
X131130000Y-79330000D01*
X133730000Y-76670000D02*
X131130000Y-76670000D01*
X133730000Y-79330000D02*
X133730000Y-76670000D01*
X135000000Y-79330000D02*
X136330000Y-79330000D01*
X136330000Y-79330000D02*
X136330000Y-78000000D01*
%TO.C,TP2*%
X179170000Y-55330000D02*
X180500000Y-55330000D01*
X179170000Y-54000000D02*
X179170000Y-55330000D01*
X179170000Y-52730000D02*
X181830000Y-52730000D01*
X181830000Y-52730000D02*
X181830000Y-52670000D01*
X179170000Y-52730000D02*
X179170000Y-52670000D01*
X179170000Y-52670000D02*
X181830000Y-52670000D01*
%TO.C,TP7*%
X143170000Y-96780000D02*
X144500000Y-96780000D01*
X143170000Y-95450000D02*
X143170000Y-96780000D01*
X143170000Y-94180000D02*
X145830000Y-94180000D01*
X145830000Y-94180000D02*
X145830000Y-94120000D01*
X143170000Y-94180000D02*
X143170000Y-94120000D01*
X143170000Y-94120000D02*
X145830000Y-94120000D01*
%TO.C,TP8*%
X147670000Y-94170000D02*
X150330000Y-94170000D01*
X147670000Y-94230000D02*
X147670000Y-94170000D01*
X150330000Y-94230000D02*
X150330000Y-94170000D01*
X147670000Y-94230000D02*
X150330000Y-94230000D01*
X147670000Y-95500000D02*
X147670000Y-96830000D01*
X147670000Y-96830000D02*
X149000000Y-96830000D01*
%TO.C,TP4*%
X182570000Y-83730000D02*
X183900000Y-83730000D01*
X182570000Y-82400000D02*
X182570000Y-83730000D01*
X182570000Y-81130000D02*
X185230000Y-81130000D01*
X185230000Y-81130000D02*
X185230000Y-81070000D01*
X182570000Y-81130000D02*
X182570000Y-81070000D01*
X182570000Y-81070000D02*
X185230000Y-81070000D01*
%TO.C,TP1*%
X147330000Y-72330000D02*
X144670000Y-72330000D01*
X147330000Y-72270000D02*
X147330000Y-72330000D01*
X144670000Y-72270000D02*
X144670000Y-72330000D01*
X147330000Y-72270000D02*
X144670000Y-72270000D01*
X147330000Y-71000000D02*
X147330000Y-69670000D01*
X147330000Y-69670000D02*
X146000000Y-69670000D01*
%TO.C,TP3*%
X147170000Y-82830000D02*
X148500000Y-82830000D01*
X147170000Y-81500000D02*
X147170000Y-82830000D01*
X147170000Y-80230000D02*
X149830000Y-80230000D01*
X149830000Y-80230000D02*
X149830000Y-80170000D01*
X147170000Y-80230000D02*
X147170000Y-80170000D01*
X147170000Y-80170000D02*
X149830000Y-80170000D01*
%TO.C,TP5*%
X166170000Y-52670000D02*
X168830000Y-52670000D01*
X166170000Y-52730000D02*
X166170000Y-52670000D01*
X168830000Y-52730000D02*
X168830000Y-52670000D01*
X166170000Y-52730000D02*
X168830000Y-52730000D01*
X166170000Y-54000000D02*
X166170000Y-55330000D01*
X166170000Y-55330000D02*
X167500000Y-55330000D01*
%TO.C,TP11*%
X156670000Y-86170000D02*
X159330000Y-86170000D01*
X156670000Y-86230000D02*
X156670000Y-86170000D01*
X159330000Y-86230000D02*
X159330000Y-86170000D01*
X156670000Y-86230000D02*
X159330000Y-86230000D01*
X156670000Y-87500000D02*
X156670000Y-88830000D01*
X156670000Y-88830000D02*
X158000000Y-88830000D01*
%TO.C,TP12*%
X173420000Y-77180000D02*
X174750000Y-77180000D01*
X173420000Y-75850000D02*
X173420000Y-77180000D01*
X173420000Y-74580000D02*
X176080000Y-74580000D01*
X176080000Y-74580000D02*
X176080000Y-74520000D01*
X173420000Y-74580000D02*
X173420000Y-74520000D01*
X173420000Y-74520000D02*
X176080000Y-74520000D01*
%TO.C,J1*%
X117360001Y-72560000D02*
G75*
G03*
X117360001Y-72560000I-8500001J0D01*
G01*
%TO.C,J3*%
D10*
X117833333Y-90452380D02*
X117833333Y-91166666D01*
X117880952Y-91309523D01*
X117976190Y-91404761D01*
X118119047Y-91452380D01*
X118214285Y-91452380D01*
X117452380Y-90452380D02*
X116833333Y-90452380D01*
X117166666Y-90833333D01*
X117023809Y-90833333D01*
X116928571Y-90880952D01*
X116880952Y-90928571D01*
X116833333Y-91023809D01*
X116833333Y-91261904D01*
X116880952Y-91357142D01*
X116928571Y-91404761D01*
X117023809Y-91452380D01*
X117309523Y-91452380D01*
X117404761Y-91404761D01*
X117452380Y-91357142D01*
%TO.C,SW3*%
X171833333Y-71154760D02*
X171690476Y-71202379D01*
X171452380Y-71202379D01*
X171357142Y-71154760D01*
X171309523Y-71107141D01*
X171261904Y-71011903D01*
X171261904Y-70916665D01*
X171309523Y-70821427D01*
X171357142Y-70773808D01*
X171452380Y-70726189D01*
X171642857Y-70678570D01*
X171738095Y-70630951D01*
X171785714Y-70583332D01*
X171833333Y-70488094D01*
X171833333Y-70392856D01*
X171785714Y-70297618D01*
X171738095Y-70249999D01*
X171642857Y-70202379D01*
X171404761Y-70202379D01*
X171261904Y-70249999D01*
X170928571Y-70202379D02*
X170690476Y-71202379D01*
X170500000Y-70488094D01*
X170309523Y-71202379D01*
X170071428Y-70202379D01*
X169785714Y-70202379D02*
X169166666Y-70202379D01*
X169500000Y-70583332D01*
X169357142Y-70583332D01*
X169261904Y-70630951D01*
X169214285Y-70678570D01*
X169166666Y-70773808D01*
X169166666Y-71011903D01*
X169214285Y-71107141D01*
X169261904Y-71154760D01*
X169357142Y-71202379D01*
X169642857Y-71202379D01*
X169738095Y-71154760D01*
X169785714Y-71107141D01*
X180500000Y-66441079D02*
X180500000Y-66679175D01*
X180738095Y-66583937D02*
X180500000Y-66679175D01*
X180261904Y-66583937D01*
X180642857Y-66869651D02*
X180500000Y-66679175D01*
X180357142Y-66869651D01*
%TO.C,SW4*%
X172333333Y-92904761D02*
X172190476Y-92952380D01*
X171952380Y-92952380D01*
X171857142Y-92904761D01*
X171809523Y-92857142D01*
X171761904Y-92761904D01*
X171761904Y-92666666D01*
X171809523Y-92571428D01*
X171857142Y-92523809D01*
X171952380Y-92476190D01*
X172142857Y-92428571D01*
X172238095Y-92380952D01*
X172285714Y-92333333D01*
X172333333Y-92238095D01*
X172333333Y-92142857D01*
X172285714Y-92047619D01*
X172238095Y-92000000D01*
X172142857Y-91952380D01*
X171904761Y-91952380D01*
X171761904Y-92000000D01*
X171428571Y-91952380D02*
X171190476Y-92952380D01*
X171000000Y-92238095D01*
X170809523Y-92952380D01*
X170571428Y-91952380D01*
X169761904Y-92285714D02*
X169761904Y-92952380D01*
X170000000Y-91904761D02*
X170238095Y-92619047D01*
X169619047Y-92619047D01*
X180500000Y-87941079D02*
X180500000Y-88179175D01*
X180738095Y-88083937D02*
X180500000Y-88179175D01*
X180261904Y-88083937D01*
X180642857Y-88369651D02*
X180500000Y-88179175D01*
X180357142Y-88369651D01*
%TO.C,BT1*%
X202285714Y-97428571D02*
X202142857Y-97476190D01*
X202095238Y-97523809D01*
X202047619Y-97619047D01*
X202047619Y-97761904D01*
X202095238Y-97857142D01*
X202142857Y-97904761D01*
X202238095Y-97952380D01*
X202619047Y-97952380D01*
X202619047Y-96952380D01*
X202285714Y-96952380D01*
X202190476Y-97000000D01*
X202142857Y-97047619D01*
X202095238Y-97142857D01*
X202095238Y-97238095D01*
X202142857Y-97333333D01*
X202190476Y-97380952D01*
X202285714Y-97428571D01*
X202619047Y-97428571D01*
X201761904Y-96952380D02*
X201190476Y-96952380D01*
X201476190Y-97952380D02*
X201476190Y-96952380D01*
X200333333Y-97952380D02*
X200904761Y-97952380D01*
X200619047Y-97952380D02*
X200619047Y-96952380D01*
X200714285Y-97095238D01*
X200809523Y-97190476D01*
X200904761Y-97238095D01*
%TO.C,S1*%
X122037938Y-113905539D02*
X121894806Y-113953249D01*
X121656254Y-113953249D01*
X121560833Y-113905539D01*
X121513122Y-113857828D01*
X121465412Y-113762407D01*
X121465412Y-113666986D01*
X121513122Y-113571565D01*
X121560833Y-113523855D01*
X121656254Y-113476144D01*
X121847096Y-113428434D01*
X121942517Y-113380723D01*
X121990227Y-113333013D01*
X122037938Y-113237592D01*
X122037938Y-113142171D01*
X121990227Y-113046750D01*
X121942517Y-112999039D01*
X121847096Y-112951328D01*
X121608543Y-112951328D01*
X121465412Y-112999039D01*
X120511201Y-113953249D02*
X121083727Y-113953249D01*
X120797464Y-113953249D02*
X120797464Y-112951328D01*
X120892885Y-113094460D01*
X120988306Y-113189881D01*
X121083727Y-113237592D01*
%TO.C,J5*%
X186703333Y-96002380D02*
X186703333Y-96716666D01*
X186750952Y-96859523D01*
X186846190Y-96954761D01*
X186989047Y-97002380D01*
X187084285Y-97002380D01*
X185750952Y-96002380D02*
X186227142Y-96002380D01*
X186274761Y-96478571D01*
X186227142Y-96430952D01*
X186131904Y-96383333D01*
X185893809Y-96383333D01*
X185798571Y-96430952D01*
X185750952Y-96478571D01*
X185703333Y-96573809D01*
X185703333Y-96811904D01*
X185750952Y-96907142D01*
X185798571Y-96954761D01*
X185893809Y-97002380D01*
X186131904Y-97002380D01*
X186227142Y-96954761D01*
X186274761Y-96907142D01*
%TO.C,J2*%
X207047619Y-110913333D02*
X206333333Y-110913333D01*
X206190476Y-110960952D01*
X206095238Y-111056190D01*
X206047619Y-111199047D01*
X206047619Y-111294285D01*
X206952380Y-110484761D02*
X207000000Y-110437142D01*
X207047619Y-110341904D01*
X207047619Y-110103809D01*
X207000000Y-110008571D01*
X206952380Y-109960952D01*
X206857142Y-109913333D01*
X206761904Y-109913333D01*
X206619047Y-109960952D01*
X206047619Y-110532380D01*
X206047619Y-109913333D01*
%TO.C,D10*%
X191314285Y-63252380D02*
X191314285Y-62252380D01*
X191076190Y-62252380D01*
X190933333Y-62300000D01*
X190838095Y-62395238D01*
X190790476Y-62490476D01*
X190742857Y-62680952D01*
X190742857Y-62823809D01*
X190790476Y-63014285D01*
X190838095Y-63109523D01*
X190933333Y-63204761D01*
X191076190Y-63252380D01*
X191314285Y-63252380D01*
X189790476Y-63252380D02*
X190361904Y-63252380D01*
X190076190Y-63252380D02*
X190076190Y-62252380D01*
X190171428Y-62395238D01*
X190266666Y-62490476D01*
X190361904Y-62538095D01*
X189171428Y-62252380D02*
X189076190Y-62252380D01*
X188980952Y-62300000D01*
X188933333Y-62347619D01*
X188885714Y-62442857D01*
X188838095Y-62633333D01*
X188838095Y-62871428D01*
X188885714Y-63061904D01*
X188933333Y-63157142D01*
X188980952Y-63204761D01*
X189076190Y-63252380D01*
X189171428Y-63252380D01*
X189266666Y-63204761D01*
X189314285Y-63157142D01*
X189361904Y-63061904D01*
X189409523Y-62871428D01*
X189409523Y-62633333D01*
X189361904Y-62442857D01*
X189314285Y-62347619D01*
X189266666Y-62300000D01*
X189171428Y-62252380D01*
%TO.C,J4*%
X186683333Y-65302380D02*
X186683333Y-66016666D01*
X186730952Y-66159523D01*
X186826190Y-66254761D01*
X186969047Y-66302380D01*
X187064285Y-66302380D01*
X185778571Y-65635714D02*
X185778571Y-66302380D01*
X186016666Y-65254761D02*
X186254761Y-65969047D01*
X185635714Y-65969047D01*
%TO.C,J6*%
X184793333Y-51452380D02*
X184793333Y-52166666D01*
X184840952Y-52309523D01*
X184936190Y-52404761D01*
X185079047Y-52452380D01*
X185174285Y-52452380D01*
X183888571Y-51452380D02*
X184079047Y-51452380D01*
X184174285Y-51500000D01*
X184221904Y-51547619D01*
X184317142Y-51690476D01*
X184364761Y-51880952D01*
X184364761Y-52261904D01*
X184317142Y-52357142D01*
X184269523Y-52404761D01*
X184174285Y-52452380D01*
X183983809Y-52452380D01*
X183888571Y-52404761D01*
X183840952Y-52357142D01*
X183793333Y-52261904D01*
X183793333Y-52023809D01*
X183840952Y-51928571D01*
X183888571Y-51880952D01*
X183983809Y-51833333D01*
X184174285Y-51833333D01*
X184269523Y-51880952D01*
X184317142Y-51928571D01*
X184364761Y-52023809D01*
%TO.C,JP1*%
X124833333Y-84452380D02*
X124833333Y-85166666D01*
X124880952Y-85309523D01*
X124976190Y-85404761D01*
X125119047Y-85452380D01*
X125214285Y-85452380D01*
X124357142Y-85452380D02*
X124357142Y-84452380D01*
X123976190Y-84452380D01*
X123880952Y-84500000D01*
X123833333Y-84547619D01*
X123785714Y-84642857D01*
X123785714Y-84785714D01*
X123833333Y-84880952D01*
X123880952Y-84928571D01*
X123976190Y-84976190D01*
X124357142Y-84976190D01*
X122833333Y-85452380D02*
X123404761Y-85452380D01*
X123119047Y-85452380D02*
X123119047Y-84452380D01*
X123214285Y-84595238D01*
X123309523Y-84690476D01*
X123404761Y-84738095D01*
%TO.C,JP2*%
X124833333Y-73952380D02*
X124833333Y-74666666D01*
X124880952Y-74809523D01*
X124976190Y-74904761D01*
X125119047Y-74952380D01*
X125214285Y-74952380D01*
X124357142Y-74952380D02*
X124357142Y-73952380D01*
X123976190Y-73952380D01*
X123880952Y-74000000D01*
X123833333Y-74047619D01*
X123785714Y-74142857D01*
X123785714Y-74285714D01*
X123833333Y-74380952D01*
X123880952Y-74428571D01*
X123976190Y-74476190D01*
X124357142Y-74476190D01*
X123404761Y-74047619D02*
X123357142Y-74000000D01*
X123261904Y-73952380D01*
X123023809Y-73952380D01*
X122928571Y-74000000D01*
X122880952Y-74047619D01*
X122833333Y-74142857D01*
X122833333Y-74238095D01*
X122880952Y-74380952D01*
X123452380Y-74952380D01*
X122833333Y-74952380D01*
%TO.C,JP3*%
X154133333Y-78502380D02*
X154133333Y-79216666D01*
X154180952Y-79359523D01*
X154276190Y-79454761D01*
X154419047Y-79502380D01*
X154514285Y-79502380D01*
X153657142Y-79502380D02*
X153657142Y-78502380D01*
X153276190Y-78502380D01*
X153180952Y-78550000D01*
X153133333Y-78597619D01*
X153085714Y-78692857D01*
X153085714Y-78835714D01*
X153133333Y-78930952D01*
X153180952Y-78978571D01*
X153276190Y-79026190D01*
X153657142Y-79026190D01*
X152752380Y-78502380D02*
X152133333Y-78502380D01*
X152466666Y-78883333D01*
X152323809Y-78883333D01*
X152228571Y-78930952D01*
X152180952Y-78978571D01*
X152133333Y-79073809D01*
X152133333Y-79311904D01*
X152180952Y-79407142D01*
X152228571Y-79454761D01*
X152323809Y-79502380D01*
X152609523Y-79502380D01*
X152704761Y-79454761D01*
X152752380Y-79407142D01*
%TO.C,JP4*%
X128833333Y-66452380D02*
X128833333Y-67166666D01*
X128880952Y-67309523D01*
X128976190Y-67404761D01*
X129119047Y-67452380D01*
X129214285Y-67452380D01*
X128357142Y-67452380D02*
X128357142Y-66452380D01*
X127976190Y-66452380D01*
X127880952Y-66500000D01*
X127833333Y-66547619D01*
X127785714Y-66642857D01*
X127785714Y-66785714D01*
X127833333Y-66880952D01*
X127880952Y-66928571D01*
X127976190Y-66976190D01*
X128357142Y-66976190D01*
X126928571Y-66785714D02*
X126928571Y-67452380D01*
X127166666Y-66404761D02*
X127404761Y-67119047D01*
X126785714Y-67119047D01*
%TO.C,JP8*%
X120833333Y-76622380D02*
X120833333Y-77336666D01*
X120880952Y-77479523D01*
X120976190Y-77574761D01*
X121119047Y-77622380D01*
X121214285Y-77622380D01*
X120357142Y-77622380D02*
X120357142Y-76622380D01*
X119976190Y-76622380D01*
X119880952Y-76670000D01*
X119833333Y-76717619D01*
X119785714Y-76812857D01*
X119785714Y-76955714D01*
X119833333Y-77050952D01*
X119880952Y-77098571D01*
X119976190Y-77146190D01*
X120357142Y-77146190D01*
X119214285Y-77050952D02*
X119309523Y-77003333D01*
X119357142Y-76955714D01*
X119404761Y-76860476D01*
X119404761Y-76812857D01*
X119357142Y-76717619D01*
X119309523Y-76670000D01*
X119214285Y-76622380D01*
X119023809Y-76622380D01*
X118928571Y-76670000D01*
X118880952Y-76717619D01*
X118833333Y-76812857D01*
X118833333Y-76860476D01*
X118880952Y-76955714D01*
X118928571Y-77003333D01*
X119023809Y-77050952D01*
X119214285Y-77050952D01*
X119309523Y-77098571D01*
X119357142Y-77146190D01*
X119404761Y-77241428D01*
X119404761Y-77431904D01*
X119357142Y-77527142D01*
X119309523Y-77574761D01*
X119214285Y-77622380D01*
X119023809Y-77622380D01*
X118928571Y-77574761D01*
X118880952Y-77527142D01*
X118833333Y-77431904D01*
X118833333Y-77241428D01*
X118880952Y-77146190D01*
X118928571Y-77098571D01*
X119023809Y-77050952D01*
%TO.C,JP9*%
X128833333Y-76452380D02*
X128833333Y-77166666D01*
X128880952Y-77309523D01*
X128976190Y-77404761D01*
X129119047Y-77452380D01*
X129214285Y-77452380D01*
X128357142Y-77452380D02*
X128357142Y-76452380D01*
X127976190Y-76452380D01*
X127880952Y-76500000D01*
X127833333Y-76547619D01*
X127785714Y-76642857D01*
X127785714Y-76785714D01*
X127833333Y-76880952D01*
X127880952Y-76928571D01*
X127976190Y-76976190D01*
X128357142Y-76976190D01*
X127309523Y-77452380D02*
X127119047Y-77452380D01*
X127023809Y-77404761D01*
X126976190Y-77357142D01*
X126880952Y-77214285D01*
X126833333Y-77023809D01*
X126833333Y-76642857D01*
X126880952Y-76547619D01*
X126928571Y-76500000D01*
X127023809Y-76452380D01*
X127214285Y-76452380D01*
X127309523Y-76500000D01*
X127357142Y-76547619D01*
X127404761Y-76642857D01*
X127404761Y-76880952D01*
X127357142Y-76976190D01*
X127309523Y-77023809D01*
X127214285Y-77071428D01*
X127023809Y-77071428D01*
X126928571Y-77023809D01*
X126880952Y-76976190D01*
X126833333Y-76880952D01*
%TO.C,JP10*%
X121309523Y-66452380D02*
X121309523Y-67166666D01*
X121357142Y-67309523D01*
X121452380Y-67404761D01*
X121595238Y-67452380D01*
X121690476Y-67452380D01*
X120833333Y-67452380D02*
X120833333Y-66452380D01*
X120452380Y-66452380D01*
X120357142Y-66500000D01*
X120309523Y-66547619D01*
X120261904Y-66642857D01*
X120261904Y-66785714D01*
X120309523Y-66880952D01*
X120357142Y-66928571D01*
X120452380Y-66976190D01*
X120833333Y-66976190D01*
X119309523Y-67452380D02*
X119880952Y-67452380D01*
X119595238Y-67452380D02*
X119595238Y-66452380D01*
X119690476Y-66595238D01*
X119785714Y-66690476D01*
X119880952Y-66738095D01*
X118690476Y-66452380D02*
X118595238Y-66452380D01*
X118500000Y-66500000D01*
X118452380Y-66547619D01*
X118404761Y-66642857D01*
X118357142Y-66833333D01*
X118357142Y-67071428D01*
X118404761Y-67261904D01*
X118452380Y-67357142D01*
X118500000Y-67404761D01*
X118595238Y-67452380D01*
X118690476Y-67452380D01*
X118785714Y-67404761D01*
X118833333Y-67357142D01*
X118880952Y-67261904D01*
X118928571Y-67071428D01*
X118928571Y-66833333D01*
X118880952Y-66642857D01*
X118833333Y-66547619D01*
X118785714Y-66500000D01*
X118690476Y-66452380D01*
%TO.C,JP11*%
X135809523Y-74452380D02*
X135809523Y-75166666D01*
X135857142Y-75309523D01*
X135952380Y-75404761D01*
X136095238Y-75452380D01*
X136190476Y-75452380D01*
X135333333Y-75452380D02*
X135333333Y-74452380D01*
X134952380Y-74452380D01*
X134857142Y-74500000D01*
X134809523Y-74547619D01*
X134761904Y-74642857D01*
X134761904Y-74785714D01*
X134809523Y-74880952D01*
X134857142Y-74928571D01*
X134952380Y-74976190D01*
X135333333Y-74976190D01*
X133809523Y-75452380D02*
X134380952Y-75452380D01*
X134095238Y-75452380D02*
X134095238Y-74452380D01*
X134190476Y-74595238D01*
X134285714Y-74690476D01*
X134380952Y-74738095D01*
X132857142Y-75452380D02*
X133428571Y-75452380D01*
X133142857Y-75452380D02*
X133142857Y-74452380D01*
X133238095Y-74595238D01*
X133333333Y-74690476D01*
X133428571Y-74738095D01*
%TO.C,TP2*%
X181261904Y-50452380D02*
X180690476Y-50452380D01*
X180976190Y-51452380D02*
X180976190Y-50452380D01*
X180357142Y-51452380D02*
X180357142Y-50452380D01*
X179976190Y-50452380D01*
X179880952Y-50500000D01*
X179833333Y-50547619D01*
X179785714Y-50642857D01*
X179785714Y-50785714D01*
X179833333Y-50880952D01*
X179880952Y-50928571D01*
X179976190Y-50976190D01*
X180357142Y-50976190D01*
X179404761Y-50547619D02*
X179357142Y-50500000D01*
X179261904Y-50452380D01*
X179023809Y-50452380D01*
X178928571Y-50500000D01*
X178880952Y-50547619D01*
X178833333Y-50642857D01*
X178833333Y-50738095D01*
X178880952Y-50880952D01*
X179452380Y-51452380D01*
X178833333Y-51452380D01*
%TO.C,TP7*%
X145761904Y-92452380D02*
X145190476Y-92452380D01*
X145476190Y-93452380D02*
X145476190Y-92452380D01*
X144857142Y-93452380D02*
X144857142Y-92452380D01*
X144476190Y-92452380D01*
X144380952Y-92500000D01*
X144333333Y-92547619D01*
X144285714Y-92642857D01*
X144285714Y-92785714D01*
X144333333Y-92880952D01*
X144380952Y-92928571D01*
X144476190Y-92976190D01*
X144857142Y-92976190D01*
X143952380Y-92452380D02*
X143285714Y-92452380D01*
X143714285Y-93452380D01*
%TO.C,TP8*%
X150261904Y-92452380D02*
X149690476Y-92452380D01*
X149976190Y-93452380D02*
X149976190Y-92452380D01*
X149357142Y-93452380D02*
X149357142Y-92452380D01*
X148976190Y-92452380D01*
X148880952Y-92500000D01*
X148833333Y-92547619D01*
X148785714Y-92642857D01*
X148785714Y-92785714D01*
X148833333Y-92880952D01*
X148880952Y-92928571D01*
X148976190Y-92976190D01*
X149357142Y-92976190D01*
X148214285Y-92880952D02*
X148309523Y-92833333D01*
X148357142Y-92785714D01*
X148404761Y-92690476D01*
X148404761Y-92642857D01*
X148357142Y-92547619D01*
X148309523Y-92500000D01*
X148214285Y-92452380D01*
X148023809Y-92452380D01*
X147928571Y-92500000D01*
X147880952Y-92547619D01*
X147833333Y-92642857D01*
X147833333Y-92690476D01*
X147880952Y-92785714D01*
X147928571Y-92833333D01*
X148023809Y-92880952D01*
X148214285Y-92880952D01*
X148309523Y-92928571D01*
X148357142Y-92976190D01*
X148404761Y-93071428D01*
X148404761Y-93261904D01*
X148357142Y-93357142D01*
X148309523Y-93404761D01*
X148214285Y-93452380D01*
X148023809Y-93452380D01*
X147928571Y-93404761D01*
X147880952Y-93357142D01*
X147833333Y-93261904D01*
X147833333Y-93071428D01*
X147880952Y-92976190D01*
X147928571Y-92928571D01*
X148023809Y-92880952D01*
%TO.C,TP4*%
X185161904Y-84852380D02*
X184590476Y-84852380D01*
X184876190Y-85852380D02*
X184876190Y-84852380D01*
X184257142Y-85852380D02*
X184257142Y-84852380D01*
X183876190Y-84852380D01*
X183780952Y-84900000D01*
X183733333Y-84947619D01*
X183685714Y-85042857D01*
X183685714Y-85185714D01*
X183733333Y-85280952D01*
X183780952Y-85328571D01*
X183876190Y-85376190D01*
X184257142Y-85376190D01*
X182828571Y-85185714D02*
X182828571Y-85852380D01*
X183066666Y-84804761D02*
X183304761Y-85519047D01*
X182685714Y-85519047D01*
%TO.C,TP1*%
X147261904Y-74452380D02*
X146690476Y-74452380D01*
X146976190Y-75452380D02*
X146976190Y-74452380D01*
X146357142Y-75452380D02*
X146357142Y-74452380D01*
X145976190Y-74452380D01*
X145880952Y-74500000D01*
X145833333Y-74547619D01*
X145785714Y-74642857D01*
X145785714Y-74785714D01*
X145833333Y-74880952D01*
X145880952Y-74928571D01*
X145976190Y-74976190D01*
X146357142Y-74976190D01*
X144833333Y-75452380D02*
X145404761Y-75452380D01*
X145119047Y-75452380D02*
X145119047Y-74452380D01*
X145214285Y-74595238D01*
X145309523Y-74690476D01*
X145404761Y-74738095D01*
%TO.C,TP3*%
X149761904Y-78452380D02*
X149190476Y-78452380D01*
X149476190Y-79452380D02*
X149476190Y-78452380D01*
X148857142Y-79452380D02*
X148857142Y-78452380D01*
X148476190Y-78452380D01*
X148380952Y-78500000D01*
X148333333Y-78547619D01*
X148285714Y-78642857D01*
X148285714Y-78785714D01*
X148333333Y-78880952D01*
X148380952Y-78928571D01*
X148476190Y-78976190D01*
X148857142Y-78976190D01*
X147952380Y-78452380D02*
X147333333Y-78452380D01*
X147666666Y-78833333D01*
X147523809Y-78833333D01*
X147428571Y-78880952D01*
X147380952Y-78928571D01*
X147333333Y-79023809D01*
X147333333Y-79261904D01*
X147380952Y-79357142D01*
X147428571Y-79404761D01*
X147523809Y-79452380D01*
X147809523Y-79452380D01*
X147904761Y-79404761D01*
X147952380Y-79357142D01*
%TO.C,TP5*%
X168761904Y-50452380D02*
X168190476Y-50452380D01*
X168476190Y-51452380D02*
X168476190Y-50452380D01*
X167857142Y-51452380D02*
X167857142Y-50452380D01*
X167476190Y-50452380D01*
X167380952Y-50500000D01*
X167333333Y-50547619D01*
X167285714Y-50642857D01*
X167285714Y-50785714D01*
X167333333Y-50880952D01*
X167380952Y-50928571D01*
X167476190Y-50976190D01*
X167857142Y-50976190D01*
X166380952Y-50452380D02*
X166857142Y-50452380D01*
X166904761Y-50928571D01*
X166857142Y-50880952D01*
X166761904Y-50833333D01*
X166523809Y-50833333D01*
X166428571Y-50880952D01*
X166380952Y-50928571D01*
X166333333Y-51023809D01*
X166333333Y-51261904D01*
X166380952Y-51357142D01*
X166428571Y-51404761D01*
X166523809Y-51452380D01*
X166761904Y-51452380D01*
X166857142Y-51404761D01*
X166904761Y-51357142D01*
%TO.C,TP11*%
X159738095Y-84452380D02*
X159166666Y-84452380D01*
X159452380Y-85452380D02*
X159452380Y-84452380D01*
X158833333Y-85452380D02*
X158833333Y-84452380D01*
X158452380Y-84452380D01*
X158357142Y-84500000D01*
X158309523Y-84547619D01*
X158261904Y-84642857D01*
X158261904Y-84785714D01*
X158309523Y-84880952D01*
X158357142Y-84928571D01*
X158452380Y-84976190D01*
X158833333Y-84976190D01*
X157309523Y-85452380D02*
X157880952Y-85452380D01*
X157595238Y-85452380D02*
X157595238Y-84452380D01*
X157690476Y-84595238D01*
X157785714Y-84690476D01*
X157880952Y-84738095D01*
X156357142Y-85452380D02*
X156928571Y-85452380D01*
X156642857Y-85452380D02*
X156642857Y-84452380D01*
X156738095Y-84595238D01*
X156833333Y-84690476D01*
X156928571Y-84738095D01*
%TO.C,TP12*%
X176488095Y-78302380D02*
X175916666Y-78302380D01*
X176202380Y-79302380D02*
X176202380Y-78302380D01*
X175583333Y-79302380D02*
X175583333Y-78302380D01*
X175202380Y-78302380D01*
X175107142Y-78350000D01*
X175059523Y-78397619D01*
X175011904Y-78492857D01*
X175011904Y-78635714D01*
X175059523Y-78730952D01*
X175107142Y-78778571D01*
X175202380Y-78826190D01*
X175583333Y-78826190D01*
X174059523Y-79302380D02*
X174630952Y-79302380D01*
X174345238Y-79302380D02*
X174345238Y-78302380D01*
X174440476Y-78445238D01*
X174535714Y-78540476D01*
X174630952Y-78588095D01*
X173678571Y-78397619D02*
X173630952Y-78350000D01*
X173535714Y-78302380D01*
X173297619Y-78302380D01*
X173202380Y-78350000D01*
X173154761Y-78397619D01*
X173107142Y-78492857D01*
X173107142Y-78588095D01*
X173154761Y-78730952D01*
X173726190Y-79302380D01*
X173107142Y-79302380D01*
%TO.C,J1*%
X103118966Y-78772438D02*
X102613890Y-79277514D01*
X102546546Y-79412201D01*
X102546546Y-79546888D01*
X102613890Y-79681575D01*
X102681233Y-79748918D01*
X101704752Y-78772438D02*
X102108813Y-79176499D01*
X101906783Y-78974468D02*
X102613890Y-78267361D01*
X102580218Y-78435720D01*
X102580218Y-78570407D01*
X102613890Y-78671422D01*
%TD*%
M02*
