%TF.GenerationSoftware,KiCad,Pcbnew,(5.1.10)-1*%
%TF.CreationDate,2022-06-10T11:25:59+02:00*%
%TF.ProjectId,NGL_Proto_ST,4e474c5f-5072-46f7-946f-5f53542e6b69,V1*%
%TF.SameCoordinates,Original*%
%TF.FileFunction,Copper,L2,Bot*%
%TF.FilePolarity,Positive*%
%FSLAX46Y46*%
G04 Gerber Fmt 4.6, Leading zero omitted, Abs format (unit mm)*
G04 Created by KiCad (PCBNEW (5.1.10)-1) date 2022-06-10 11:25:59*
%MOMM*%
%LPD*%
G01*
G04 APERTURE LIST*
%TA.AperFunction,ComponentPad*%
%ADD10C,1.498600*%
%TD*%
%TA.AperFunction,ComponentPad*%
%ADD11R,1.498600X1.498600*%
%TD*%
%TA.AperFunction,ComponentPad*%
%ADD12C,1.478000*%
%TD*%
%TA.AperFunction,ComponentPad*%
%ADD13R,1.478000X1.478000*%
%TD*%
%TA.AperFunction,ComponentPad*%
%ADD14C,1.980000*%
%TD*%
%TA.AperFunction,ComponentPad*%
%ADD15C,2.450000*%
%TD*%
%TA.AperFunction,ComponentPad*%
%ADD16R,2.450000X2.450000*%
%TD*%
%TA.AperFunction,ComponentPad*%
%ADD17O,1.700000X1.700000*%
%TD*%
%TA.AperFunction,ComponentPad*%
%ADD18R,1.700000X1.700000*%
%TD*%
%TA.AperFunction,ComponentPad*%
%ADD19R,1.800000X1.800000*%
%TD*%
%TA.AperFunction,ComponentPad*%
%ADD20C,1.800000*%
%TD*%
%TA.AperFunction,ComponentPad*%
%ADD21C,2.000000*%
%TD*%
%TA.AperFunction,ViaPad*%
%ADD22C,0.600000*%
%TD*%
%TA.AperFunction,Conductor*%
%ADD23C,0.500000*%
%TD*%
%TA.AperFunction,Conductor*%
%ADD24C,0.150000*%
%TD*%
%TA.AperFunction,Conductor*%
%ADD25C,0.100000*%
%TD*%
G04 APERTURE END LIST*
D10*
%TO.P,SW4,3*%
%TO.N,N/C*%
X173999999Y-89999999D03*
%TO.P,SW4,4*%
X173999999Y-94500000D03*
%TO.P,SW4,2*%
%TO.N,-BATT*%
X180500001Y-94500000D03*
D11*
%TO.P,SW4,1*%
%TO.N,BOOT*%
X180500001Y-89999999D03*
%TD*%
D10*
%TO.P,SW3,3*%
%TO.N,N/C*%
X173999999Y-68499999D03*
%TO.P,SW3,4*%
X173999999Y-73000000D03*
%TO.P,SW3,2*%
%TO.N,EN*%
X180500001Y-73000000D03*
D11*
%TO.P,SW3,1*%
%TO.N,-BATT*%
X180500001Y-68499999D03*
%TD*%
D12*
%TO.P,J3,G*%
%TO.N,-BATT*%
X112580000Y-92460000D03*
D13*
%TO.P,J3,S*%
%TO.N,IN_COAX*%
X112580000Y-95000000D03*
%TD*%
D14*
%TO.P,BT1,N*%
%TO.N,-BATT*%
X201110000Y-109000000D03*
%TO.P,BT1,P*%
%TO.N,+BATT*%
X128890000Y-109000000D03*
%TD*%
D15*
%TO.P,S1,3*%
%TO.N,Net-(S1-Pad3)*%
X121500000Y-100800000D03*
%TO.P,S1,2*%
%TO.N,INH*%
X121500000Y-105500000D03*
D16*
%TO.P,S1,1*%
%TO.N,OUT_BAT*%
X121500000Y-110200000D03*
%TD*%
D17*
%TO.P,J5,4*%
%TO.N,-BATT*%
X197120000Y-96550000D03*
%TO.P,J5,3*%
%TO.N,SDA*%
X194580000Y-96550000D03*
%TO.P,J5,2*%
%TO.N,SCL*%
X192040000Y-96550000D03*
D18*
%TO.P,J5,1*%
%TO.N,+3V3*%
X189500000Y-96550000D03*
%TD*%
D19*
%TO.P,D10,1*%
%TO.N,-BATT*%
X194000000Y-62500000D03*
D20*
%TO.P,D10,2*%
%TO.N,Net-(D10-Pad2)*%
X196540000Y-62500000D03*
%TD*%
D18*
%TO.P,J4,1*%
%TO.N,CS_R2*%
X192000000Y-67500000D03*
D17*
%TO.P,J4,2*%
%TO.N,MOSI*%
X194540000Y-67500000D03*
%TO.P,J4,3*%
%TO.N,MISO*%
X197080000Y-67500000D03*
%TO.P,J4,4*%
%TO.N,CLK*%
X199620000Y-67500000D03*
%TO.P,J4,5*%
%TO.N,-BATT*%
X202160000Y-67500000D03*
%TO.P,J4,6*%
%TO.N,+3V3*%
X204700000Y-67500000D03*
%TD*%
D18*
%TO.P,J6,1*%
%TO.N,+3V3*%
X187460000Y-52000000D03*
D17*
%TO.P,J6,2*%
%TO.N,NEO*%
X190000000Y-52000000D03*
%TO.P,J6,3*%
%TO.N,-BATT*%
X192540000Y-52000000D03*
%TD*%
%TO.P,JP1,2*%
%TO.N,DIFF+*%
X124000000Y-79460000D03*
D18*
%TO.P,JP1,1*%
%TO.N,CURRENT_3*%
X124000000Y-82000000D03*
%TD*%
%TO.P,JP2,1*%
%TO.N,CURRENT_4*%
X124000000Y-72000000D03*
D17*
%TO.P,JP2,2*%
%TO.N,DIFF-*%
X124000000Y-69460000D03*
%TD*%
D18*
%TO.P,JP3,1*%
%TO.N,Net-(JP3-Pad1)*%
X152300000Y-81550000D03*
D17*
%TO.P,JP3,2*%
%TO.N,Net-(JP3-Pad2)*%
X154840000Y-81550000D03*
%TD*%
D18*
%TO.P,JP4,1*%
%TO.N,DIFF-*%
X128000000Y-69500000D03*
D17*
%TO.P,JP4,2*%
%TO.N,/R2*%
X128000000Y-72040000D03*
%TD*%
%TO.P,JP8,2*%
%TO.N,CURRENT_3*%
X120000000Y-82040000D03*
D18*
%TO.P,JP8,1*%
%TO.N,Net-(JP8-Pad1)*%
X120000000Y-79500000D03*
%TD*%
%TO.P,JP9,1*%
%TO.N,DIFF+*%
X128000000Y-79500000D03*
D17*
%TO.P,JP9,2*%
%TO.N,Net-(JP8-Pad1)*%
X128000000Y-82040000D03*
%TD*%
%TO.P,JP10,2*%
%TO.N,/R2*%
X120000000Y-69460000D03*
D18*
%TO.P,JP10,1*%
%TO.N,CURRENT_4*%
X120000000Y-72000000D03*
%TD*%
D17*
%TO.P,JP11,2*%
%TO.N,Net-(JP11-Pad2)*%
X132460000Y-78000000D03*
D18*
%TO.P,JP11,1*%
%TO.N,Net-(JP11-Pad1)*%
X135000000Y-78000000D03*
%TD*%
%TO.P,TP2,1*%
%TO.N,OUT_SENS*%
X180500000Y-54000000D03*
%TD*%
%TO.P,TP7,1*%
%TO.N,+3V3*%
X144500000Y-95450000D03*
%TD*%
%TO.P,TP8,1*%
%TO.N,-3V3*%
%TA.AperFunction,ComponentPad*%
G36*
G01*
X148150000Y-95925000D02*
X148150000Y-95075000D01*
G75*
G02*
X148575000Y-94650000I425000J0D01*
G01*
X149425000Y-94650000D01*
G75*
G02*
X149850000Y-95075000I0J-425000D01*
G01*
X149850000Y-95925000D01*
G75*
G02*
X149425000Y-96350000I-425000J0D01*
G01*
X148575000Y-96350000D01*
G75*
G02*
X148150000Y-95925000I0J425000D01*
G01*
G37*
%TD.AperFunction*%
%TD*%
%TO.P,TP4,1*%
%TO.N,OUT_DIFF*%
X183900000Y-82400000D03*
%TD*%
%TO.P,TP1,1*%
%TO.N,/R2*%
X146000000Y-71000000D03*
%TD*%
%TO.P,TP3,1*%
%TO.N,R10_OUT*%
X148500000Y-81500000D03*
%TD*%
%TO.P,TP5,1*%
%TO.N,Net-(R52S1-Pad2)*%
X167500000Y-54000000D03*
%TD*%
%TO.P,TP11,1*%
%TO.N,/Ampli Diff/620*%
X158000000Y-87500000D03*
%TD*%
%TO.P,TP12,1*%
%TO.N,Net-(R31-Pad2)*%
X174750000Y-75850000D03*
%TD*%
D21*
%TO.P,J1,3*%
%TO.N,CURRENT_3*%
X111334874Y-75034874D03*
%TO.P,J1,7*%
%TO.N,Net-(J1-Pad7)*%
X108860000Y-76060000D03*
%TO.P,J1,8*%
%TO.N,+3V3*%
X108294315Y-73125685D03*
%TO.P,J1,6*%
%TO.N,N/C*%
X105360000Y-72560000D03*
%TO.P,J1,1*%
%TO.N,OUT_NTC*%
X106385126Y-70085126D03*
%TO.P,J1,4*%
%TO.N,CURRENT_4*%
X108860000Y-69060000D03*
%TO.P,J1,2*%
%TO.N,DIFF-*%
X111334874Y-70085126D03*
%TO.P,J1,5*%
%TO.N,DIFF+*%
X112360000Y-72560000D03*
%TD*%
D18*
%TO.P,M1,1*%
%TO.N,+3V3*%
X198190000Y-114460000D03*
D17*
%TO.P,M1,2*%
%TO.N,Net-(M1-Pad2)*%
X198190000Y-117000000D03*
%TD*%
D18*
%TO.P,TP9,1*%
%TO.N,-BATT*%
X165850000Y-94600000D03*
%TD*%
%TO.P,TP13,1*%
%TO.N,-BATT*%
X103000000Y-63000000D03*
%TD*%
%TO.P,TP14,1*%
%TO.N,-BATT*%
X210000000Y-64000000D03*
%TD*%
%TO.P,TP10,1*%
%TO.N,-BATT*%
X104500000Y-106000000D03*
%TD*%
%TO.P,J2,1*%
%TO.N,-BATT*%
X207500000Y-108500000D03*
D17*
%TO.P,J2,2*%
%TO.N,BOOT*%
X207500000Y-105960000D03*
%TO.P,J2,3*%
%TO.N,UART_TX*%
X207500000Y-103420000D03*
%TO.P,J2,4*%
%TO.N,UART_RX*%
X207500000Y-100880000D03*
%TO.P,J2,5*%
%TO.N,EN*%
X207500000Y-98340000D03*
%TO.P,J2,6*%
%TO.N,+3V3*%
X207500000Y-95800000D03*
%TD*%
D22*
%TO.N,+3V3*%
X204000000Y-113000000D03*
X204000000Y-73500000D03*
X204000000Y-105000000D03*
X161500000Y-103000000D03*
X132500000Y-118500000D03*
X132500000Y-89750000D03*
X161500000Y-51300000D03*
X169950000Y-70550000D03*
X144450000Y-74100000D03*
X146537500Y-117537500D03*
X113000000Y-59000000D03*
X118500000Y-89500000D03*
X146537500Y-116912500D03*
X204000000Y-112000000D03*
X204000000Y-74500000D03*
%TO.N,-3V3*%
X128500000Y-58000000D03*
X134487500Y-93512500D03*
X156000000Y-67500000D03*
X156000000Y-95500000D03*
%TD*%
D23*
%TO.N,+3V3*%
X204000000Y-105000000D02*
X204000000Y-74500000D01*
X204000000Y-113000000D02*
X204000000Y-112000000D01*
X161500000Y-103000000D02*
X161537500Y-103037500D01*
X132500000Y-118500000D02*
X132500000Y-89750000D01*
X161500000Y-103000000D02*
X161500000Y-51300000D01*
X144450000Y-74100000D02*
X144450000Y-114450000D01*
X146537500Y-116537500D02*
X146537500Y-116912500D01*
X144450000Y-114450000D02*
X146537500Y-116537500D01*
X113000000Y-59000000D02*
X112500000Y-59500000D01*
X112500000Y-59500000D02*
X112500000Y-69000000D01*
X118500000Y-75000000D02*
X118500000Y-89500000D01*
X112500000Y-69000000D02*
X118500000Y-75000000D01*
X146537500Y-116912500D02*
X146537500Y-117537500D01*
X146537500Y-116912500D02*
X150787500Y-116912500D01*
X161500000Y-106200000D02*
X161500000Y-103000000D01*
X150787500Y-116912500D02*
X161500000Y-106200000D01*
X150787500Y-116912500D02*
X155587500Y-116912500D01*
X169950000Y-102550000D02*
X169950000Y-70550000D01*
X155587500Y-116912500D02*
X169950000Y-102550000D01*
X204000000Y-112000000D02*
X204000000Y-105000000D01*
X204000000Y-74500000D02*
X204000000Y-73500000D01*
%TO.N,-3V3*%
X128500000Y-58000000D02*
X128500000Y-66000000D01*
X128500000Y-66000000D02*
X130500000Y-68000000D01*
X130500000Y-68000000D02*
X130500000Y-86000000D01*
X134487500Y-89987500D02*
X134487500Y-93512500D01*
X130500000Y-86000000D02*
X134487500Y-89987500D01*
X156000000Y-67500000D02*
X156500000Y-68000000D01*
X156500000Y-68000000D02*
X156500000Y-85000000D01*
X156500000Y-85000000D02*
X156000000Y-85500000D01*
X156000000Y-85500000D02*
X156000000Y-95500000D01*
%TD*%
D24*
%TO.N,-BATT*%
X208840978Y-50326049D02*
X209655371Y-50548842D01*
X210417440Y-50912330D01*
X211103098Y-51405025D01*
X211690670Y-52011352D01*
X212161584Y-52712146D01*
X212500960Y-53485265D01*
X212698522Y-54308170D01*
X212750001Y-55009186D01*
X212750001Y-74499550D01*
X212739819Y-75925000D01*
X206500000Y-75925000D01*
X206485368Y-75926441D01*
X206471299Y-75930709D01*
X206458332Y-75937640D01*
X206446967Y-75946967D01*
X206437640Y-75958332D01*
X206430709Y-75971299D01*
X206426441Y-75985368D01*
X206425000Y-76000000D01*
X206425000Y-94000000D01*
X206426441Y-94014632D01*
X206430709Y-94028701D01*
X206437640Y-94041668D01*
X206446967Y-94053033D01*
X206458332Y-94062360D01*
X206471299Y-94069291D01*
X206485368Y-94073559D01*
X206500000Y-94075000D01*
X212610176Y-94075000D01*
X212448854Y-116660203D01*
X212087670Y-117417440D01*
X211594975Y-118103098D01*
X210988645Y-118690673D01*
X210287849Y-119161587D01*
X209514740Y-119500958D01*
X208691831Y-119698522D01*
X207990828Y-119750000D01*
X173125082Y-119750000D01*
X103320727Y-119439758D01*
X102582560Y-119087670D01*
X101896902Y-118594975D01*
X101309327Y-117988645D01*
X100838413Y-117287849D01*
X100593597Y-116730142D01*
X127470000Y-116730142D01*
X127470000Y-117009858D01*
X127524570Y-117284199D01*
X127631612Y-117542622D01*
X127787014Y-117775197D01*
X127984803Y-117972986D01*
X128217378Y-118128388D01*
X128475801Y-118235430D01*
X128750142Y-118290000D01*
X129029858Y-118290000D01*
X129304199Y-118235430D01*
X129562622Y-118128388D01*
X129795197Y-117972986D01*
X129992986Y-117775197D01*
X130148388Y-117542622D01*
X130255430Y-117284199D01*
X130310000Y-117009858D01*
X130310000Y-116730142D01*
X130255430Y-116455801D01*
X130148388Y-116197378D01*
X129992986Y-115964803D01*
X129795197Y-115767014D01*
X129562622Y-115611612D01*
X129304199Y-115504570D01*
X129029858Y-115450000D01*
X128750142Y-115450000D01*
X128475801Y-115504570D01*
X128217378Y-115611612D01*
X127984803Y-115767014D01*
X127787014Y-115964803D01*
X127631612Y-116197378D01*
X127524570Y-116455801D01*
X127470000Y-116730142D01*
X100593597Y-116730142D01*
X100499042Y-116514740D01*
X100301478Y-115691831D01*
X100250000Y-114990828D01*
X100250000Y-108975000D01*
X120048912Y-108975000D01*
X120048912Y-111425000D01*
X120053256Y-111469108D01*
X120066122Y-111511520D01*
X120087015Y-111550608D01*
X120115132Y-111584868D01*
X120149392Y-111612985D01*
X120188480Y-111633878D01*
X120230892Y-111646744D01*
X120275000Y-111651088D01*
X122725000Y-111651088D01*
X122769108Y-111646744D01*
X122811520Y-111633878D01*
X122850608Y-111612985D01*
X122884868Y-111584868D01*
X122912985Y-111550608D01*
X122933878Y-111511520D01*
X122946744Y-111469108D01*
X122951088Y-111425000D01*
X122951088Y-108975000D01*
X122946744Y-108930892D01*
X122933878Y-108888480D01*
X122929524Y-108880333D01*
X127675000Y-108880333D01*
X127675000Y-109119667D01*
X127721692Y-109354402D01*
X127813281Y-109575518D01*
X127946248Y-109774517D01*
X128115483Y-109943752D01*
X128314482Y-110076719D01*
X128535598Y-110168308D01*
X128770333Y-110215000D01*
X129009667Y-110215000D01*
X129244402Y-110168308D01*
X129465518Y-110076719D01*
X129664517Y-109943752D01*
X129833752Y-109774517D01*
X129966719Y-109575518D01*
X130058308Y-109354402D01*
X130105000Y-109119667D01*
X130105000Y-108880333D01*
X130058308Y-108645598D01*
X129966719Y-108424482D01*
X129833752Y-108225483D01*
X129664517Y-108056248D01*
X129465518Y-107923281D01*
X129244402Y-107831692D01*
X129009667Y-107785000D01*
X128770333Y-107785000D01*
X128535598Y-107831692D01*
X128314482Y-107923281D01*
X128115483Y-108056248D01*
X127946248Y-108225483D01*
X127813281Y-108424482D01*
X127721692Y-108645598D01*
X127675000Y-108880333D01*
X122929524Y-108880333D01*
X122912985Y-108849392D01*
X122884868Y-108815132D01*
X122850608Y-108787015D01*
X122811520Y-108766122D01*
X122769108Y-108753256D01*
X122725000Y-108748912D01*
X120275000Y-108748912D01*
X120230892Y-108753256D01*
X120188480Y-108766122D01*
X120149392Y-108787015D01*
X120115132Y-108815132D01*
X120087015Y-108849392D01*
X120066122Y-108888480D01*
X120053256Y-108930892D01*
X120048912Y-108975000D01*
X100250000Y-108975000D01*
X100250000Y-106850000D01*
X103373669Y-106850000D01*
X103378979Y-106903910D01*
X103394703Y-106955747D01*
X103420239Y-107003521D01*
X103454604Y-107045396D01*
X103496479Y-107079761D01*
X103544253Y-107105297D01*
X103596090Y-107121021D01*
X103650000Y-107126331D01*
X104406250Y-107125000D01*
X104475000Y-107056250D01*
X104475000Y-106025000D01*
X104525000Y-106025000D01*
X104525000Y-107056250D01*
X104593750Y-107125000D01*
X105350000Y-107126331D01*
X105403910Y-107121021D01*
X105455747Y-107105297D01*
X105503521Y-107079761D01*
X105545396Y-107045396D01*
X105579761Y-107003521D01*
X105605297Y-106955747D01*
X105621021Y-106903910D01*
X105626331Y-106850000D01*
X105625000Y-106093750D01*
X105556250Y-106025000D01*
X104525000Y-106025000D01*
X104475000Y-106025000D01*
X103443750Y-106025000D01*
X103375000Y-106093750D01*
X103373669Y-106850000D01*
X100250000Y-106850000D01*
X100250000Y-105150000D01*
X103373669Y-105150000D01*
X103375000Y-105906250D01*
X103443750Y-105975000D01*
X104475000Y-105975000D01*
X104475000Y-104943750D01*
X104525000Y-104943750D01*
X104525000Y-105975000D01*
X105556250Y-105975000D01*
X105625000Y-105906250D01*
X105625966Y-105357187D01*
X120050000Y-105357187D01*
X120050000Y-105642813D01*
X120105723Y-105922949D01*
X120215027Y-106186833D01*
X120373711Y-106424321D01*
X120575679Y-106626289D01*
X120813167Y-106784973D01*
X121077051Y-106894277D01*
X121357187Y-106950000D01*
X121642813Y-106950000D01*
X121922949Y-106894277D01*
X122186833Y-106784973D01*
X122424321Y-106626289D01*
X122626289Y-106424321D01*
X122784973Y-106186833D01*
X122894277Y-105922949D01*
X122950000Y-105642813D01*
X122950000Y-105357187D01*
X122894277Y-105077051D01*
X122784973Y-104813167D01*
X122626289Y-104575679D01*
X122424321Y-104373711D01*
X122186833Y-104215027D01*
X121922949Y-104105723D01*
X121642813Y-104050000D01*
X121357187Y-104050000D01*
X121077051Y-104105723D01*
X120813167Y-104215027D01*
X120575679Y-104373711D01*
X120373711Y-104575679D01*
X120215027Y-104813167D01*
X120105723Y-105077051D01*
X120050000Y-105357187D01*
X105625966Y-105357187D01*
X105626331Y-105150000D01*
X105621021Y-105096090D01*
X105605297Y-105044253D01*
X105579761Y-104996479D01*
X105545396Y-104954604D01*
X105503521Y-104920239D01*
X105455747Y-104894703D01*
X105403910Y-104878979D01*
X105350000Y-104873669D01*
X104593750Y-104875000D01*
X104525000Y-104943750D01*
X104475000Y-104943750D01*
X104406250Y-104875000D01*
X103650000Y-104873669D01*
X103596090Y-104878979D01*
X103544253Y-104894703D01*
X103496479Y-104920239D01*
X103454604Y-104954604D01*
X103420239Y-104996479D01*
X103394703Y-105044253D01*
X103378979Y-105096090D01*
X103373669Y-105150000D01*
X100250000Y-105150000D01*
X100250000Y-99954916D01*
X106230000Y-99954916D01*
X106230000Y-100205084D01*
X106278805Y-100450445D01*
X106374541Y-100681571D01*
X106513527Y-100889578D01*
X106690422Y-101066473D01*
X106898429Y-101205459D01*
X107129555Y-101301195D01*
X107374916Y-101350000D01*
X107625084Y-101350000D01*
X107870445Y-101301195D01*
X108101571Y-101205459D01*
X108309578Y-101066473D01*
X108486473Y-100889578D01*
X108625459Y-100681571D01*
X108635559Y-100657187D01*
X120050000Y-100657187D01*
X120050000Y-100942813D01*
X120105723Y-101222949D01*
X120215027Y-101486833D01*
X120373711Y-101724321D01*
X120575679Y-101926289D01*
X120813167Y-102084973D01*
X121077051Y-102194277D01*
X121357187Y-102250000D01*
X121642813Y-102250000D01*
X121922949Y-102194277D01*
X122186833Y-102084973D01*
X122424321Y-101926289D01*
X122626289Y-101724321D01*
X122784973Y-101486833D01*
X122894277Y-101222949D01*
X122950000Y-100942813D01*
X122950000Y-100657187D01*
X122894277Y-100377051D01*
X122784973Y-100113167D01*
X122626289Y-99875679D01*
X122424321Y-99673711D01*
X122186833Y-99515027D01*
X121922949Y-99405723D01*
X121642813Y-99350000D01*
X121357187Y-99350000D01*
X121077051Y-99405723D01*
X120813167Y-99515027D01*
X120575679Y-99673711D01*
X120373711Y-99875679D01*
X120215027Y-100113167D01*
X120105723Y-100377051D01*
X120050000Y-100657187D01*
X108635559Y-100657187D01*
X108721195Y-100450445D01*
X108770000Y-100205084D01*
X108770000Y-99954916D01*
X108721195Y-99709555D01*
X108625459Y-99478429D01*
X108486473Y-99270422D01*
X108309578Y-99093527D01*
X108101571Y-98954541D01*
X107870445Y-98858805D01*
X107625084Y-98810000D01*
X107374916Y-98810000D01*
X107129555Y-98858805D01*
X106898429Y-98954541D01*
X106690422Y-99093527D01*
X106513527Y-99270422D01*
X106374541Y-99478429D01*
X106278805Y-99709555D01*
X106230000Y-99954916D01*
X100250000Y-99954916D01*
X100250000Y-94261000D01*
X111614912Y-94261000D01*
X111614912Y-95739000D01*
X111619256Y-95783108D01*
X111632122Y-95825520D01*
X111653015Y-95864608D01*
X111681132Y-95898868D01*
X111715392Y-95926985D01*
X111754480Y-95947878D01*
X111796892Y-95960744D01*
X111841000Y-95965088D01*
X113319000Y-95965088D01*
X113363108Y-95960744D01*
X113405520Y-95947878D01*
X113444608Y-95926985D01*
X113478868Y-95898868D01*
X113506985Y-95864608D01*
X113527878Y-95825520D01*
X113540744Y-95783108D01*
X113545088Y-95739000D01*
X113545088Y-94261000D01*
X113540744Y-94216892D01*
X113527878Y-94174480D01*
X113506985Y-94135392D01*
X113478868Y-94101132D01*
X113444608Y-94073015D01*
X113405520Y-94052122D01*
X113363108Y-94039256D01*
X113319000Y-94034912D01*
X111841000Y-94034912D01*
X111796892Y-94039256D01*
X111754480Y-94052122D01*
X111715392Y-94073015D01*
X111681132Y-94101132D01*
X111653015Y-94135392D01*
X111632122Y-94174480D01*
X111619256Y-94216892D01*
X111614912Y-94261000D01*
X100250000Y-94261000D01*
X100250000Y-93149307D01*
X111926049Y-93149307D01*
X112001508Y-93298758D01*
X112176258Y-93395499D01*
X112366522Y-93456290D01*
X112564991Y-93478794D01*
X112764036Y-93462146D01*
X112956009Y-93406986D01*
X113133532Y-93315434D01*
X113158492Y-93298758D01*
X113233951Y-93149307D01*
X112580000Y-92495355D01*
X111926049Y-93149307D01*
X100250000Y-93149307D01*
X100250000Y-92444991D01*
X111561206Y-92444991D01*
X111577854Y-92644036D01*
X111633014Y-92836009D01*
X111724566Y-93013532D01*
X111741242Y-93038492D01*
X111890693Y-93113951D01*
X112544645Y-92460000D01*
X112615355Y-92460000D01*
X113269307Y-93113951D01*
X113418758Y-93038492D01*
X113515499Y-92863742D01*
X113576290Y-92673478D01*
X113598794Y-92475009D01*
X113582146Y-92275964D01*
X113526986Y-92083991D01*
X113435434Y-91906468D01*
X113418758Y-91881508D01*
X113269307Y-91806049D01*
X112615355Y-92460000D01*
X112544645Y-92460000D01*
X111890693Y-91806049D01*
X111741242Y-91881508D01*
X111644501Y-92056258D01*
X111583710Y-92246522D01*
X111561206Y-92444991D01*
X100250000Y-92444991D01*
X100250000Y-91770693D01*
X111926049Y-91770693D01*
X112580000Y-92424645D01*
X113233951Y-91770693D01*
X113158492Y-91621242D01*
X112983742Y-91524501D01*
X112793478Y-91463710D01*
X112595009Y-91441206D01*
X112395964Y-91457854D01*
X112203991Y-91513014D01*
X112026468Y-91604566D01*
X112001508Y-91621242D01*
X111926049Y-91770693D01*
X100250000Y-91770693D01*
X100250000Y-89794916D01*
X106230000Y-89794916D01*
X106230000Y-90045084D01*
X106278805Y-90290445D01*
X106374541Y-90521571D01*
X106513527Y-90729578D01*
X106690422Y-90906473D01*
X106898429Y-91045459D01*
X107129555Y-91141195D01*
X107374916Y-91190000D01*
X107625084Y-91190000D01*
X107870445Y-91141195D01*
X108101571Y-91045459D01*
X108309578Y-90906473D01*
X108486473Y-90729578D01*
X108625459Y-90521571D01*
X108721195Y-90290445D01*
X108770000Y-90045084D01*
X108770000Y-89794916D01*
X108721195Y-89549555D01*
X108625459Y-89318429D01*
X108486473Y-89110422D01*
X108309578Y-88933527D01*
X108101571Y-88794541D01*
X107870445Y-88698805D01*
X107625084Y-88650000D01*
X107374916Y-88650000D01*
X107129555Y-88698805D01*
X106898429Y-88794541D01*
X106690422Y-88933527D01*
X106513527Y-89110422D01*
X106374541Y-89318429D01*
X106278805Y-89549555D01*
X106230000Y-89794916D01*
X100250000Y-89794916D01*
X100250000Y-75939348D01*
X107635000Y-75939348D01*
X107635000Y-76180652D01*
X107682076Y-76417319D01*
X107774419Y-76640255D01*
X107908481Y-76840892D01*
X108079108Y-77011519D01*
X108279745Y-77145581D01*
X108502681Y-77237924D01*
X108739348Y-77285000D01*
X108980652Y-77285000D01*
X109217319Y-77237924D01*
X109440255Y-77145581D01*
X109640892Y-77011519D01*
X109811519Y-76840892D01*
X109945581Y-76640255D01*
X110037924Y-76417319D01*
X110085000Y-76180652D01*
X110085000Y-75939348D01*
X110037924Y-75702681D01*
X109945581Y-75479745D01*
X109811519Y-75279108D01*
X109640892Y-75108481D01*
X109440255Y-74974419D01*
X109294927Y-74914222D01*
X110109874Y-74914222D01*
X110109874Y-75155526D01*
X110156950Y-75392193D01*
X110249293Y-75615129D01*
X110383355Y-75815766D01*
X110553982Y-75986393D01*
X110754619Y-76120455D01*
X110977555Y-76212798D01*
X111214222Y-76259874D01*
X111455526Y-76259874D01*
X111692193Y-76212798D01*
X111915129Y-76120455D01*
X112115766Y-75986393D01*
X112286393Y-75815766D01*
X112420455Y-75615129D01*
X112512798Y-75392193D01*
X112559874Y-75155526D01*
X112559874Y-74914222D01*
X112512798Y-74677555D01*
X112420455Y-74454619D01*
X112286393Y-74253982D01*
X112115766Y-74083355D01*
X111915129Y-73949293D01*
X111692193Y-73856950D01*
X111455526Y-73809874D01*
X111214222Y-73809874D01*
X110977555Y-73856950D01*
X110754619Y-73949293D01*
X110553982Y-74083355D01*
X110383355Y-74253982D01*
X110249293Y-74454619D01*
X110156950Y-74677555D01*
X110109874Y-74914222D01*
X109294927Y-74914222D01*
X109217319Y-74882076D01*
X108980652Y-74835000D01*
X108739348Y-74835000D01*
X108502681Y-74882076D01*
X108279745Y-74974419D01*
X108079108Y-75108481D01*
X107908481Y-75279108D01*
X107774419Y-75479745D01*
X107682076Y-75702681D01*
X107635000Y-75939348D01*
X100250000Y-75939348D01*
X100250000Y-72439348D01*
X104135000Y-72439348D01*
X104135000Y-72680652D01*
X104182076Y-72917319D01*
X104274419Y-73140255D01*
X104408481Y-73340892D01*
X104579108Y-73511519D01*
X104779745Y-73645581D01*
X105002681Y-73737924D01*
X105239348Y-73785000D01*
X105480652Y-73785000D01*
X105717319Y-73737924D01*
X105940255Y-73645581D01*
X106140892Y-73511519D01*
X106311519Y-73340892D01*
X106445581Y-73140255D01*
X106501591Y-73005033D01*
X107069315Y-73005033D01*
X107069315Y-73246337D01*
X107116391Y-73483004D01*
X107208734Y-73705940D01*
X107342796Y-73906577D01*
X107513423Y-74077204D01*
X107714060Y-74211266D01*
X107936996Y-74303609D01*
X108173663Y-74350685D01*
X108414967Y-74350685D01*
X108651634Y-74303609D01*
X108874570Y-74211266D01*
X109075207Y-74077204D01*
X109245834Y-73906577D01*
X109379896Y-73705940D01*
X109472239Y-73483004D01*
X109519315Y-73246337D01*
X109519315Y-73005033D01*
X109472239Y-72768366D01*
X109379896Y-72545430D01*
X109309014Y-72439348D01*
X111135000Y-72439348D01*
X111135000Y-72680652D01*
X111182076Y-72917319D01*
X111274419Y-73140255D01*
X111408481Y-73340892D01*
X111579108Y-73511519D01*
X111779745Y-73645581D01*
X112002681Y-73737924D01*
X112239348Y-73785000D01*
X112480652Y-73785000D01*
X112717319Y-73737924D01*
X112940255Y-73645581D01*
X113140892Y-73511519D01*
X113311519Y-73340892D01*
X113445581Y-73140255D01*
X113537924Y-72917319D01*
X113585000Y-72680652D01*
X113585000Y-72439348D01*
X113537924Y-72202681D01*
X113445581Y-71979745D01*
X113311519Y-71779108D01*
X113140892Y-71608481D01*
X112940255Y-71474419D01*
X112717319Y-71382076D01*
X112480652Y-71335000D01*
X112239348Y-71335000D01*
X112002681Y-71382076D01*
X111779745Y-71474419D01*
X111579108Y-71608481D01*
X111408481Y-71779108D01*
X111274419Y-71979745D01*
X111182076Y-72202681D01*
X111135000Y-72439348D01*
X109309014Y-72439348D01*
X109245834Y-72344793D01*
X109075207Y-72174166D01*
X108874570Y-72040104D01*
X108651634Y-71947761D01*
X108414967Y-71900685D01*
X108173663Y-71900685D01*
X107936996Y-71947761D01*
X107714060Y-72040104D01*
X107513423Y-72174166D01*
X107342796Y-72344793D01*
X107208734Y-72545430D01*
X107116391Y-72768366D01*
X107069315Y-73005033D01*
X106501591Y-73005033D01*
X106537924Y-72917319D01*
X106585000Y-72680652D01*
X106585000Y-72439348D01*
X106537924Y-72202681D01*
X106445581Y-71979745D01*
X106311519Y-71779108D01*
X106140892Y-71608481D01*
X105940255Y-71474419D01*
X105717319Y-71382076D01*
X105480652Y-71335000D01*
X105239348Y-71335000D01*
X105002681Y-71382076D01*
X104779745Y-71474419D01*
X104579108Y-71608481D01*
X104408481Y-71779108D01*
X104274419Y-71979745D01*
X104182076Y-72202681D01*
X104135000Y-72439348D01*
X100250000Y-72439348D01*
X100250000Y-69964474D01*
X105160126Y-69964474D01*
X105160126Y-70205778D01*
X105207202Y-70442445D01*
X105299545Y-70665381D01*
X105433607Y-70866018D01*
X105604234Y-71036645D01*
X105804871Y-71170707D01*
X106027807Y-71263050D01*
X106264474Y-71310126D01*
X106505778Y-71310126D01*
X106742445Y-71263050D01*
X106965381Y-71170707D01*
X107166018Y-71036645D01*
X107336645Y-70866018D01*
X107470707Y-70665381D01*
X107563050Y-70442445D01*
X107610126Y-70205778D01*
X107610126Y-69964474D01*
X107563050Y-69727807D01*
X107470707Y-69504871D01*
X107336645Y-69304234D01*
X107166018Y-69133607D01*
X106965381Y-68999545D01*
X106820053Y-68939348D01*
X107635000Y-68939348D01*
X107635000Y-69180652D01*
X107682076Y-69417319D01*
X107774419Y-69640255D01*
X107908481Y-69840892D01*
X108079108Y-70011519D01*
X108279745Y-70145581D01*
X108502681Y-70237924D01*
X108739348Y-70285000D01*
X108980652Y-70285000D01*
X109217319Y-70237924D01*
X109440255Y-70145581D01*
X109640892Y-70011519D01*
X109687937Y-69964474D01*
X110109874Y-69964474D01*
X110109874Y-70205778D01*
X110156950Y-70442445D01*
X110249293Y-70665381D01*
X110383355Y-70866018D01*
X110553982Y-71036645D01*
X110754619Y-71170707D01*
X110977555Y-71263050D01*
X111214222Y-71310126D01*
X111455526Y-71310126D01*
X111692193Y-71263050D01*
X111915129Y-71170707D01*
X112115766Y-71036645D01*
X112286393Y-70866018D01*
X112420455Y-70665381D01*
X112512798Y-70442445D01*
X112559874Y-70205778D01*
X112559874Y-69964474D01*
X112512798Y-69727807D01*
X112482209Y-69653959D01*
X118025000Y-75196751D01*
X118025001Y-89274858D01*
X117995176Y-89346863D01*
X117975000Y-89448292D01*
X117975000Y-89551708D01*
X117995176Y-89653137D01*
X118034751Y-89748681D01*
X118092206Y-89834668D01*
X118165332Y-89907794D01*
X118251319Y-89965249D01*
X118346863Y-90004824D01*
X118448292Y-90025000D01*
X118551708Y-90025000D01*
X118653137Y-90004824D01*
X118748681Y-89965249D01*
X118834668Y-89907794D01*
X118907794Y-89834668D01*
X118965249Y-89748681D01*
X118986120Y-89698292D01*
X131975000Y-89698292D01*
X131975000Y-89801708D01*
X131995176Y-89903137D01*
X132025001Y-89975142D01*
X132025000Y-118274860D01*
X131995176Y-118346863D01*
X131975000Y-118448292D01*
X131975000Y-118551708D01*
X131995176Y-118653137D01*
X132034751Y-118748681D01*
X132092206Y-118834668D01*
X132165332Y-118907794D01*
X132251319Y-118965249D01*
X132346863Y-119004824D01*
X132448292Y-119025000D01*
X132551708Y-119025000D01*
X132653137Y-119004824D01*
X132748681Y-118965249D01*
X132834668Y-118907794D01*
X132907794Y-118834668D01*
X132965249Y-118748681D01*
X133004824Y-118653137D01*
X133025000Y-118551708D01*
X133025000Y-118448292D01*
X133004824Y-118346863D01*
X132975000Y-118274860D01*
X132975000Y-100933017D01*
X135270000Y-100933017D01*
X135270000Y-101326983D01*
X135346859Y-101713378D01*
X135497623Y-102077355D01*
X135716499Y-102404926D01*
X135995074Y-102683501D01*
X136322645Y-102902377D01*
X136686622Y-103053141D01*
X137073017Y-103130000D01*
X137466983Y-103130000D01*
X137853378Y-103053141D01*
X138217355Y-102902377D01*
X138544926Y-102683501D01*
X138823501Y-102404926D01*
X139042377Y-102077355D01*
X139193141Y-101713378D01*
X139270000Y-101326983D01*
X139270000Y-100933017D01*
X139193141Y-100546622D01*
X139042377Y-100182645D01*
X138823501Y-99855074D01*
X138544926Y-99576499D01*
X138217355Y-99357623D01*
X137853378Y-99206859D01*
X137466983Y-99130000D01*
X137073017Y-99130000D01*
X136686622Y-99206859D01*
X136322645Y-99357623D01*
X135995074Y-99576499D01*
X135716499Y-99855074D01*
X135497623Y-100182645D01*
X135346859Y-100546622D01*
X135270000Y-100933017D01*
X132975000Y-100933017D01*
X132975000Y-94600000D01*
X143423912Y-94600000D01*
X143423912Y-96300000D01*
X143428256Y-96344108D01*
X143441122Y-96386520D01*
X143462015Y-96425608D01*
X143490132Y-96459868D01*
X143524392Y-96487985D01*
X143563480Y-96508878D01*
X143605892Y-96521744D01*
X143650000Y-96526088D01*
X143975001Y-96526088D01*
X143975001Y-114426658D01*
X143972702Y-114450000D01*
X143981873Y-114543116D01*
X144009035Y-114632654D01*
X144053142Y-114715173D01*
X144112500Y-114787501D01*
X144130629Y-114802379D01*
X146048766Y-116720518D01*
X146032676Y-116759363D01*
X146012500Y-116860792D01*
X146012500Y-116964208D01*
X146032676Y-117065637D01*
X146062500Y-117137641D01*
X146062501Y-117312359D01*
X146032676Y-117384363D01*
X146012500Y-117485792D01*
X146012500Y-117589208D01*
X146032676Y-117690637D01*
X146072251Y-117786181D01*
X146129706Y-117872168D01*
X146202832Y-117945294D01*
X146288819Y-118002749D01*
X146384363Y-118042324D01*
X146485792Y-118062500D01*
X146589208Y-118062500D01*
X146690637Y-118042324D01*
X146786181Y-118002749D01*
X146872168Y-117945294D01*
X146945294Y-117872168D01*
X147002749Y-117786181D01*
X147042324Y-117690637D01*
X147062500Y-117589208D01*
X147062500Y-117485792D01*
X147042948Y-117387500D01*
X150764168Y-117387500D01*
X150787500Y-117389798D01*
X150810832Y-117387500D01*
X155564168Y-117387500D01*
X155587500Y-117389798D01*
X155610832Y-117387500D01*
X155680616Y-117380627D01*
X155770154Y-117353466D01*
X155852673Y-117309359D01*
X155925001Y-117250001D01*
X155939884Y-117231866D01*
X156498733Y-116673017D01*
X190470000Y-116673017D01*
X190470000Y-117066983D01*
X190546859Y-117453378D01*
X190697623Y-117817355D01*
X190916499Y-118144926D01*
X191195074Y-118423501D01*
X191522645Y-118642377D01*
X191886622Y-118793141D01*
X192273017Y-118870000D01*
X192666983Y-118870000D01*
X193053378Y-118793141D01*
X193417355Y-118642377D01*
X193744926Y-118423501D01*
X194023501Y-118144926D01*
X194242377Y-117817355D01*
X194393141Y-117453378D01*
X194470000Y-117066983D01*
X194470000Y-116894122D01*
X197115000Y-116894122D01*
X197115000Y-117105878D01*
X197156312Y-117313566D01*
X197237348Y-117509203D01*
X197354993Y-117685272D01*
X197504728Y-117835007D01*
X197680797Y-117952652D01*
X197876434Y-118033688D01*
X198084122Y-118075000D01*
X198295878Y-118075000D01*
X198503566Y-118033688D01*
X198699203Y-117952652D01*
X198875272Y-117835007D01*
X199025007Y-117685272D01*
X199142652Y-117509203D01*
X199223688Y-117313566D01*
X199265000Y-117105878D01*
X199265000Y-116894122D01*
X199223688Y-116686434D01*
X199142652Y-116490797D01*
X199025007Y-116314728D01*
X198875272Y-116164993D01*
X198699203Y-116047348D01*
X198503566Y-115966312D01*
X198295878Y-115925000D01*
X198084122Y-115925000D01*
X197876434Y-115966312D01*
X197680797Y-116047348D01*
X197504728Y-116164993D01*
X197354993Y-116314728D01*
X197237348Y-116490797D01*
X197156312Y-116686434D01*
X197115000Y-116894122D01*
X194470000Y-116894122D01*
X194470000Y-116673017D01*
X194393141Y-116286622D01*
X194242377Y-115922645D01*
X194023501Y-115595074D01*
X193744926Y-115316499D01*
X193417355Y-115097623D01*
X193053378Y-114946859D01*
X192666983Y-114870000D01*
X192273017Y-114870000D01*
X191886622Y-114946859D01*
X191522645Y-115097623D01*
X191195074Y-115316499D01*
X190916499Y-115595074D01*
X190697623Y-115922645D01*
X190546859Y-116286622D01*
X190470000Y-116673017D01*
X156498733Y-116673017D01*
X159561750Y-113610000D01*
X197113912Y-113610000D01*
X197113912Y-115310000D01*
X197118256Y-115354108D01*
X197131122Y-115396520D01*
X197152015Y-115435608D01*
X197180132Y-115469868D01*
X197214392Y-115497985D01*
X197253480Y-115518878D01*
X197295892Y-115531744D01*
X197340000Y-115536088D01*
X199040000Y-115536088D01*
X199084108Y-115531744D01*
X199126520Y-115518878D01*
X199165608Y-115497985D01*
X199199868Y-115469868D01*
X199227985Y-115435608D01*
X199248878Y-115396520D01*
X199261744Y-115354108D01*
X199266088Y-115310000D01*
X199266088Y-113610000D01*
X199261744Y-113565892D01*
X199248878Y-113523480D01*
X199227985Y-113484392D01*
X199199868Y-113450132D01*
X199165608Y-113422015D01*
X199126520Y-113401122D01*
X199084108Y-113388256D01*
X199040000Y-113383912D01*
X197340000Y-113383912D01*
X197295892Y-113388256D01*
X197253480Y-113401122D01*
X197214392Y-113422015D01*
X197180132Y-113450132D01*
X197152015Y-113484392D01*
X197131122Y-113523480D01*
X197118256Y-113565892D01*
X197113912Y-113610000D01*
X159561750Y-113610000D01*
X163304051Y-109867699D01*
X200277657Y-109867699D01*
X200383224Y-110042855D01*
X200600640Y-110164603D01*
X200837630Y-110241597D01*
X201085087Y-110270876D01*
X201333502Y-110251317D01*
X201573327Y-110183670D01*
X201795347Y-110070535D01*
X201836776Y-110042855D01*
X201942343Y-109867699D01*
X201110000Y-109035355D01*
X200277657Y-109867699D01*
X163304051Y-109867699D01*
X164196663Y-108975087D01*
X199839124Y-108975087D01*
X199858683Y-109223502D01*
X199926330Y-109463327D01*
X200039465Y-109685347D01*
X200067145Y-109726776D01*
X200242301Y-109832343D01*
X201074645Y-109000000D01*
X201145355Y-109000000D01*
X201977699Y-109832343D01*
X202152855Y-109726776D01*
X202274603Y-109509360D01*
X202351597Y-109272370D01*
X202380876Y-109024913D01*
X202361317Y-108776498D01*
X202293670Y-108536673D01*
X202180535Y-108314653D01*
X202152855Y-108273224D01*
X201977699Y-108167657D01*
X201145355Y-109000000D01*
X201074645Y-109000000D01*
X200242301Y-108167657D01*
X200067145Y-108273224D01*
X199945397Y-108490640D01*
X199868403Y-108727630D01*
X199839124Y-108975087D01*
X164196663Y-108975087D01*
X165039449Y-108132301D01*
X200277657Y-108132301D01*
X201110000Y-108964645D01*
X201942343Y-108132301D01*
X201836776Y-107957145D01*
X201619360Y-107835397D01*
X201382370Y-107758403D01*
X201134913Y-107729124D01*
X200886498Y-107748683D01*
X200646673Y-107816330D01*
X200424653Y-107929465D01*
X200383224Y-107957145D01*
X200277657Y-108132301D01*
X165039449Y-108132301D01*
X170269372Y-102902379D01*
X170287501Y-102887501D01*
X170346859Y-102815173D01*
X170390966Y-102732654D01*
X170418127Y-102643116D01*
X170425000Y-102573332D01*
X170425000Y-102573331D01*
X170427298Y-102550001D01*
X170425000Y-102526669D01*
X170425000Y-95700000D01*
X188423912Y-95700000D01*
X188423912Y-97400000D01*
X188428256Y-97444108D01*
X188441122Y-97486520D01*
X188462015Y-97525608D01*
X188490132Y-97559868D01*
X188524392Y-97587985D01*
X188563480Y-97608878D01*
X188605892Y-97621744D01*
X188650000Y-97626088D01*
X190350000Y-97626088D01*
X190394108Y-97621744D01*
X190436520Y-97608878D01*
X190475608Y-97587985D01*
X190509868Y-97559868D01*
X190537985Y-97525608D01*
X190558878Y-97486520D01*
X190571744Y-97444108D01*
X190576088Y-97400000D01*
X190576088Y-96444122D01*
X190965000Y-96444122D01*
X190965000Y-96655878D01*
X191006312Y-96863566D01*
X191087348Y-97059203D01*
X191204993Y-97235272D01*
X191354728Y-97385007D01*
X191530797Y-97502652D01*
X191726434Y-97583688D01*
X191934122Y-97625000D01*
X192145878Y-97625000D01*
X192353566Y-97583688D01*
X192549203Y-97502652D01*
X192725272Y-97385007D01*
X192875007Y-97235272D01*
X192992652Y-97059203D01*
X193073688Y-96863566D01*
X193115000Y-96655878D01*
X193115000Y-96444122D01*
X193505000Y-96444122D01*
X193505000Y-96655878D01*
X193546312Y-96863566D01*
X193627348Y-97059203D01*
X193744993Y-97235272D01*
X193894728Y-97385007D01*
X194070797Y-97502652D01*
X194266434Y-97583688D01*
X194474122Y-97625000D01*
X194685878Y-97625000D01*
X194893566Y-97583688D01*
X195089203Y-97502652D01*
X195265272Y-97385007D01*
X195415007Y-97235272D01*
X195532652Y-97059203D01*
X195613688Y-96863566D01*
X195636150Y-96750638D01*
X196013035Y-96750638D01*
X196073448Y-96962741D01*
X196174079Y-97158982D01*
X196311061Y-97331821D01*
X196479130Y-97474615D01*
X196671828Y-97581876D01*
X196881749Y-97649483D01*
X196919363Y-97656964D01*
X197095000Y-97605954D01*
X197095000Y-96575000D01*
X197145000Y-96575000D01*
X197145000Y-97605954D01*
X197320637Y-97656964D01*
X197358251Y-97649483D01*
X197568172Y-97581876D01*
X197760870Y-97474615D01*
X197928939Y-97331821D01*
X198065921Y-97158982D01*
X198166552Y-96962741D01*
X198226965Y-96750638D01*
X198175973Y-96575000D01*
X197145000Y-96575000D01*
X197095000Y-96575000D01*
X196064027Y-96575000D01*
X196013035Y-96750638D01*
X195636150Y-96750638D01*
X195655000Y-96655878D01*
X195655000Y-96444122D01*
X195636151Y-96349362D01*
X196013035Y-96349362D01*
X196064027Y-96525000D01*
X197095000Y-96525000D01*
X197095000Y-95494046D01*
X197145000Y-95494046D01*
X197145000Y-96525000D01*
X198175973Y-96525000D01*
X198226965Y-96349362D01*
X198166552Y-96137259D01*
X198065921Y-95941018D01*
X197928939Y-95768179D01*
X197760870Y-95625385D01*
X197568172Y-95518124D01*
X197358251Y-95450517D01*
X197320637Y-95443036D01*
X197145000Y-95494046D01*
X197095000Y-95494046D01*
X196919363Y-95443036D01*
X196881749Y-95450517D01*
X196671828Y-95518124D01*
X196479130Y-95625385D01*
X196311061Y-95768179D01*
X196174079Y-95941018D01*
X196073448Y-96137259D01*
X196013035Y-96349362D01*
X195636151Y-96349362D01*
X195613688Y-96236434D01*
X195532652Y-96040797D01*
X195415007Y-95864728D01*
X195265272Y-95714993D01*
X195089203Y-95597348D01*
X194893566Y-95516312D01*
X194685878Y-95475000D01*
X194474122Y-95475000D01*
X194266434Y-95516312D01*
X194070797Y-95597348D01*
X193894728Y-95714993D01*
X193744993Y-95864728D01*
X193627348Y-96040797D01*
X193546312Y-96236434D01*
X193505000Y-96444122D01*
X193115000Y-96444122D01*
X193073688Y-96236434D01*
X192992652Y-96040797D01*
X192875007Y-95864728D01*
X192725272Y-95714993D01*
X192549203Y-95597348D01*
X192353566Y-95516312D01*
X192145878Y-95475000D01*
X191934122Y-95475000D01*
X191726434Y-95516312D01*
X191530797Y-95597348D01*
X191354728Y-95714993D01*
X191204993Y-95864728D01*
X191087348Y-96040797D01*
X191006312Y-96236434D01*
X190965000Y-96444122D01*
X190576088Y-96444122D01*
X190576088Y-95700000D01*
X190571744Y-95655892D01*
X190558878Y-95613480D01*
X190537985Y-95574392D01*
X190509868Y-95540132D01*
X190475608Y-95512015D01*
X190436520Y-95491122D01*
X190394108Y-95478256D01*
X190350000Y-95473912D01*
X188650000Y-95473912D01*
X188605892Y-95478256D01*
X188563480Y-95491122D01*
X188524392Y-95512015D01*
X188490132Y-95540132D01*
X188462015Y-95574392D01*
X188441122Y-95613480D01*
X188428256Y-95655892D01*
X188423912Y-95700000D01*
X170425000Y-95700000D01*
X170425000Y-94404040D01*
X173025699Y-94404040D01*
X173025699Y-94595960D01*
X173063141Y-94784193D01*
X173136586Y-94961504D01*
X173243211Y-95121080D01*
X173378919Y-95256788D01*
X173538495Y-95363413D01*
X173715806Y-95436858D01*
X173904039Y-95474300D01*
X174095959Y-95474300D01*
X174284192Y-95436858D01*
X174461503Y-95363413D01*
X174621079Y-95256788D01*
X174681239Y-95196628D01*
X179838728Y-95196628D01*
X179915424Y-95347134D01*
X180091924Y-95444903D01*
X180284106Y-95506358D01*
X180484585Y-95529139D01*
X180685657Y-95512373D01*
X180879594Y-95456701D01*
X181058943Y-95364263D01*
X181084578Y-95347134D01*
X181161274Y-95196628D01*
X180500001Y-94535355D01*
X179838728Y-95196628D01*
X174681239Y-95196628D01*
X174756787Y-95121080D01*
X174863412Y-94961504D01*
X174936857Y-94784193D01*
X174974299Y-94595960D01*
X174974299Y-94484584D01*
X179470862Y-94484584D01*
X179487628Y-94685656D01*
X179543300Y-94879593D01*
X179635738Y-95058942D01*
X179652867Y-95084577D01*
X179803373Y-95161273D01*
X180464646Y-94500000D01*
X180535356Y-94500000D01*
X181196629Y-95161273D01*
X181347135Y-95084577D01*
X181444904Y-94908077D01*
X181506359Y-94715895D01*
X181529140Y-94515416D01*
X181512374Y-94314344D01*
X181456702Y-94120407D01*
X181364264Y-93941058D01*
X181347135Y-93915423D01*
X181196629Y-93838727D01*
X180535356Y-94500000D01*
X180464646Y-94500000D01*
X179803373Y-93838727D01*
X179652867Y-93915423D01*
X179555098Y-94091923D01*
X179493643Y-94284105D01*
X179470862Y-94484584D01*
X174974299Y-94484584D01*
X174974299Y-94404040D01*
X174936857Y-94215807D01*
X174863412Y-94038496D01*
X174756787Y-93878920D01*
X174681239Y-93803372D01*
X179838728Y-93803372D01*
X180500001Y-94464645D01*
X181161274Y-93803372D01*
X181084578Y-93652866D01*
X180908078Y-93555097D01*
X180715896Y-93493642D01*
X180515417Y-93470861D01*
X180314345Y-93487627D01*
X180120408Y-93543299D01*
X179941059Y-93635737D01*
X179915424Y-93652866D01*
X179838728Y-93803372D01*
X174681239Y-93803372D01*
X174621079Y-93743212D01*
X174461503Y-93636587D01*
X174284192Y-93563142D01*
X174095959Y-93525700D01*
X173904039Y-93525700D01*
X173715806Y-93563142D01*
X173538495Y-93636587D01*
X173378919Y-93743212D01*
X173243211Y-93878920D01*
X173136586Y-94038496D01*
X173063141Y-94215807D01*
X173025699Y-94404040D01*
X170425000Y-94404040D01*
X170425000Y-89904039D01*
X173025699Y-89904039D01*
X173025699Y-90095959D01*
X173063141Y-90284192D01*
X173136586Y-90461503D01*
X173243211Y-90621079D01*
X173378919Y-90756787D01*
X173538495Y-90863412D01*
X173715806Y-90936857D01*
X173904039Y-90974299D01*
X174095959Y-90974299D01*
X174284192Y-90936857D01*
X174461503Y-90863412D01*
X174621079Y-90756787D01*
X174756787Y-90621079D01*
X174863412Y-90461503D01*
X174936857Y-90284192D01*
X174974299Y-90095959D01*
X174974299Y-89904039D01*
X174936857Y-89715806D01*
X174863412Y-89538495D01*
X174756787Y-89378919D01*
X174628567Y-89250699D01*
X179524613Y-89250699D01*
X179524613Y-90749299D01*
X179528957Y-90793407D01*
X179541823Y-90835819D01*
X179562716Y-90874907D01*
X179590833Y-90909167D01*
X179625093Y-90937284D01*
X179664181Y-90958177D01*
X179706593Y-90971043D01*
X179750701Y-90975387D01*
X181249301Y-90975387D01*
X181293409Y-90971043D01*
X181335821Y-90958177D01*
X181374909Y-90937284D01*
X181409169Y-90909167D01*
X181437286Y-90874907D01*
X181458179Y-90835819D01*
X181471045Y-90793407D01*
X181475389Y-90749299D01*
X181475389Y-89250699D01*
X181471045Y-89206591D01*
X181458179Y-89164179D01*
X181437286Y-89125091D01*
X181409169Y-89090831D01*
X181374909Y-89062714D01*
X181335821Y-89041821D01*
X181293409Y-89028955D01*
X181249301Y-89024611D01*
X179750701Y-89024611D01*
X179706593Y-89028955D01*
X179664181Y-89041821D01*
X179625093Y-89062714D01*
X179590833Y-89090831D01*
X179562716Y-89125091D01*
X179541823Y-89164179D01*
X179528957Y-89206591D01*
X179524613Y-89250699D01*
X174628567Y-89250699D01*
X174621079Y-89243211D01*
X174461503Y-89136586D01*
X174284192Y-89063141D01*
X174095959Y-89025699D01*
X173904039Y-89025699D01*
X173715806Y-89063141D01*
X173538495Y-89136586D01*
X173378919Y-89243211D01*
X173243211Y-89378919D01*
X173136586Y-89538495D01*
X173063141Y-89715806D01*
X173025699Y-89904039D01*
X170425000Y-89904039D01*
X170425000Y-81550000D01*
X182823912Y-81550000D01*
X182823912Y-83250000D01*
X182828256Y-83294108D01*
X182841122Y-83336520D01*
X182862015Y-83375608D01*
X182890132Y-83409868D01*
X182924392Y-83437985D01*
X182963480Y-83458878D01*
X183005892Y-83471744D01*
X183050000Y-83476088D01*
X184750000Y-83476088D01*
X184794108Y-83471744D01*
X184836520Y-83458878D01*
X184875608Y-83437985D01*
X184909868Y-83409868D01*
X184937985Y-83375608D01*
X184958878Y-83336520D01*
X184971744Y-83294108D01*
X184976088Y-83250000D01*
X184976088Y-81550000D01*
X184971744Y-81505892D01*
X184958878Y-81463480D01*
X184937985Y-81424392D01*
X184909868Y-81390132D01*
X184875608Y-81362015D01*
X184836520Y-81341122D01*
X184794108Y-81328256D01*
X184750000Y-81323912D01*
X183050000Y-81323912D01*
X183005892Y-81328256D01*
X182963480Y-81341122D01*
X182924392Y-81362015D01*
X182890132Y-81390132D01*
X182862015Y-81424392D01*
X182841122Y-81463480D01*
X182828256Y-81505892D01*
X182823912Y-81550000D01*
X170425000Y-81550000D01*
X170425000Y-75000000D01*
X173673912Y-75000000D01*
X173673912Y-76700000D01*
X173678256Y-76744108D01*
X173691122Y-76786520D01*
X173712015Y-76825608D01*
X173740132Y-76859868D01*
X173774392Y-76887985D01*
X173813480Y-76908878D01*
X173855892Y-76921744D01*
X173900000Y-76926088D01*
X175600000Y-76926088D01*
X175644108Y-76921744D01*
X175686520Y-76908878D01*
X175725608Y-76887985D01*
X175759868Y-76859868D01*
X175787985Y-76825608D01*
X175808878Y-76786520D01*
X175821744Y-76744108D01*
X175826088Y-76700000D01*
X175826088Y-75000000D01*
X175821744Y-74955892D01*
X175808878Y-74913480D01*
X175787985Y-74874392D01*
X175759868Y-74840132D01*
X175725608Y-74812015D01*
X175686520Y-74791122D01*
X175644108Y-74778256D01*
X175600000Y-74773912D01*
X173900000Y-74773912D01*
X173855892Y-74778256D01*
X173813480Y-74791122D01*
X173774392Y-74812015D01*
X173740132Y-74840132D01*
X173712015Y-74874392D01*
X173691122Y-74913480D01*
X173678256Y-74955892D01*
X173673912Y-75000000D01*
X170425000Y-75000000D01*
X170425000Y-72904040D01*
X173025699Y-72904040D01*
X173025699Y-73095960D01*
X173063141Y-73284193D01*
X173136586Y-73461504D01*
X173243211Y-73621080D01*
X173378919Y-73756788D01*
X173538495Y-73863413D01*
X173715806Y-73936858D01*
X173904039Y-73974300D01*
X174095959Y-73974300D01*
X174284192Y-73936858D01*
X174461503Y-73863413D01*
X174621079Y-73756788D01*
X174756787Y-73621080D01*
X174863412Y-73461504D01*
X174936857Y-73284193D01*
X174974299Y-73095960D01*
X174974299Y-72904040D01*
X179525701Y-72904040D01*
X179525701Y-73095960D01*
X179563143Y-73284193D01*
X179636588Y-73461504D01*
X179743213Y-73621080D01*
X179878921Y-73756788D01*
X180038497Y-73863413D01*
X180215808Y-73936858D01*
X180404041Y-73974300D01*
X180595961Y-73974300D01*
X180784194Y-73936858D01*
X180961505Y-73863413D01*
X181121081Y-73756788D01*
X181256789Y-73621080D01*
X181363414Y-73461504D01*
X181368886Y-73448292D01*
X203475000Y-73448292D01*
X203475000Y-73551708D01*
X203495176Y-73653137D01*
X203525001Y-73725141D01*
X203525000Y-74274860D01*
X203495176Y-74346863D01*
X203475000Y-74448292D01*
X203475000Y-74551708D01*
X203495176Y-74653137D01*
X203525001Y-74725142D01*
X203525000Y-104774860D01*
X203495176Y-104846863D01*
X203475000Y-104948292D01*
X203475000Y-105051708D01*
X203495176Y-105153137D01*
X203525001Y-105225142D01*
X203525000Y-111774860D01*
X203495176Y-111846863D01*
X203475000Y-111948292D01*
X203475000Y-112051708D01*
X203495176Y-112153137D01*
X203525001Y-112225141D01*
X203525000Y-112774860D01*
X203495176Y-112846863D01*
X203475000Y-112948292D01*
X203475000Y-113051708D01*
X203495176Y-113153137D01*
X203534751Y-113248681D01*
X203592206Y-113334668D01*
X203665332Y-113407794D01*
X203751319Y-113465249D01*
X203846863Y-113504824D01*
X203948292Y-113525000D01*
X204051708Y-113525000D01*
X204153137Y-113504824D01*
X204248681Y-113465249D01*
X204334668Y-113407794D01*
X204407794Y-113334668D01*
X204465249Y-113248681D01*
X204504824Y-113153137D01*
X204525000Y-113051708D01*
X204525000Y-112948292D01*
X204504824Y-112846863D01*
X204475000Y-112774860D01*
X204475000Y-112225140D01*
X204504824Y-112153137D01*
X204525000Y-112051708D01*
X204525000Y-111948292D01*
X204504824Y-111846863D01*
X204475000Y-111774860D01*
X204475000Y-109350000D01*
X206373669Y-109350000D01*
X206378979Y-109403910D01*
X206394703Y-109455747D01*
X206420239Y-109503521D01*
X206454604Y-109545396D01*
X206496479Y-109579761D01*
X206544253Y-109605297D01*
X206596090Y-109621021D01*
X206650000Y-109626331D01*
X207406250Y-109625000D01*
X207475000Y-109556250D01*
X207475000Y-108525000D01*
X207525000Y-108525000D01*
X207525000Y-109556250D01*
X207593750Y-109625000D01*
X208350000Y-109626331D01*
X208403910Y-109621021D01*
X208455747Y-109605297D01*
X208503521Y-109579761D01*
X208545396Y-109545396D01*
X208579761Y-109503521D01*
X208605297Y-109455747D01*
X208621021Y-109403910D01*
X208626331Y-109350000D01*
X208625000Y-108593750D01*
X208556250Y-108525000D01*
X207525000Y-108525000D01*
X207475000Y-108525000D01*
X206443750Y-108525000D01*
X206375000Y-108593750D01*
X206373669Y-109350000D01*
X204475000Y-109350000D01*
X204475000Y-107650000D01*
X206373669Y-107650000D01*
X206375000Y-108406250D01*
X206443750Y-108475000D01*
X207475000Y-108475000D01*
X207475000Y-107443750D01*
X207525000Y-107443750D01*
X207525000Y-108475000D01*
X208556250Y-108475000D01*
X208625000Y-108406250D01*
X208626331Y-107650000D01*
X208621021Y-107596090D01*
X208605297Y-107544253D01*
X208579761Y-107496479D01*
X208545396Y-107454604D01*
X208503521Y-107420239D01*
X208455747Y-107394703D01*
X208403910Y-107378979D01*
X208350000Y-107373669D01*
X207593750Y-107375000D01*
X207525000Y-107443750D01*
X207475000Y-107443750D01*
X207406250Y-107375000D01*
X206650000Y-107373669D01*
X206596090Y-107378979D01*
X206544253Y-107394703D01*
X206496479Y-107420239D01*
X206454604Y-107454604D01*
X206420239Y-107496479D01*
X206394703Y-107544253D01*
X206378979Y-107596090D01*
X206373669Y-107650000D01*
X204475000Y-107650000D01*
X204475000Y-105854122D01*
X206425000Y-105854122D01*
X206425000Y-106065878D01*
X206466312Y-106273566D01*
X206547348Y-106469203D01*
X206664993Y-106645272D01*
X206814728Y-106795007D01*
X206990797Y-106912652D01*
X207186434Y-106993688D01*
X207394122Y-107035000D01*
X207605878Y-107035000D01*
X207813566Y-106993688D01*
X208009203Y-106912652D01*
X208185272Y-106795007D01*
X208335007Y-106645272D01*
X208452652Y-106469203D01*
X208533688Y-106273566D01*
X208575000Y-106065878D01*
X208575000Y-105854122D01*
X208533688Y-105646434D01*
X208452652Y-105450797D01*
X208335007Y-105274728D01*
X208185272Y-105124993D01*
X208009203Y-105007348D01*
X207813566Y-104926312D01*
X207605878Y-104885000D01*
X207394122Y-104885000D01*
X207186434Y-104926312D01*
X206990797Y-105007348D01*
X206814728Y-105124993D01*
X206664993Y-105274728D01*
X206547348Y-105450797D01*
X206466312Y-105646434D01*
X206425000Y-105854122D01*
X204475000Y-105854122D01*
X204475000Y-105225140D01*
X204504824Y-105153137D01*
X204525000Y-105051708D01*
X204525000Y-104948292D01*
X204504824Y-104846863D01*
X204475000Y-104774860D01*
X204475000Y-103314122D01*
X206425000Y-103314122D01*
X206425000Y-103525878D01*
X206466312Y-103733566D01*
X206547348Y-103929203D01*
X206664993Y-104105272D01*
X206814728Y-104255007D01*
X206990797Y-104372652D01*
X207186434Y-104453688D01*
X207394122Y-104495000D01*
X207605878Y-104495000D01*
X207813566Y-104453688D01*
X208009203Y-104372652D01*
X208185272Y-104255007D01*
X208335007Y-104105272D01*
X208452652Y-103929203D01*
X208533688Y-103733566D01*
X208575000Y-103525878D01*
X208575000Y-103314122D01*
X208533688Y-103106434D01*
X208452652Y-102910797D01*
X208335007Y-102734728D01*
X208185272Y-102584993D01*
X208009203Y-102467348D01*
X207813566Y-102386312D01*
X207605878Y-102345000D01*
X207394122Y-102345000D01*
X207186434Y-102386312D01*
X206990797Y-102467348D01*
X206814728Y-102584993D01*
X206664993Y-102734728D01*
X206547348Y-102910797D01*
X206466312Y-103106434D01*
X206425000Y-103314122D01*
X204475000Y-103314122D01*
X204475000Y-100774122D01*
X206425000Y-100774122D01*
X206425000Y-100985878D01*
X206466312Y-101193566D01*
X206547348Y-101389203D01*
X206664993Y-101565272D01*
X206814728Y-101715007D01*
X206990797Y-101832652D01*
X207186434Y-101913688D01*
X207394122Y-101955000D01*
X207605878Y-101955000D01*
X207813566Y-101913688D01*
X208009203Y-101832652D01*
X208185272Y-101715007D01*
X208335007Y-101565272D01*
X208452652Y-101389203D01*
X208533688Y-101193566D01*
X208575000Y-100985878D01*
X208575000Y-100774122D01*
X208533688Y-100566434D01*
X208452652Y-100370797D01*
X208335007Y-100194728D01*
X208185272Y-100044993D01*
X208009203Y-99927348D01*
X207813566Y-99846312D01*
X207605878Y-99805000D01*
X207394122Y-99805000D01*
X207186434Y-99846312D01*
X206990797Y-99927348D01*
X206814728Y-100044993D01*
X206664993Y-100194728D01*
X206547348Y-100370797D01*
X206466312Y-100566434D01*
X206425000Y-100774122D01*
X204475000Y-100774122D01*
X204475000Y-98234122D01*
X206425000Y-98234122D01*
X206425000Y-98445878D01*
X206466312Y-98653566D01*
X206547348Y-98849203D01*
X206664993Y-99025272D01*
X206814728Y-99175007D01*
X206990797Y-99292652D01*
X207186434Y-99373688D01*
X207394122Y-99415000D01*
X207605878Y-99415000D01*
X207813566Y-99373688D01*
X208009203Y-99292652D01*
X208185272Y-99175007D01*
X208335007Y-99025272D01*
X208452652Y-98849203D01*
X208533688Y-98653566D01*
X208575000Y-98445878D01*
X208575000Y-98234122D01*
X208533688Y-98026434D01*
X208452652Y-97830797D01*
X208335007Y-97654728D01*
X208185272Y-97504993D01*
X208009203Y-97387348D01*
X207813566Y-97306312D01*
X207605878Y-97265000D01*
X207394122Y-97265000D01*
X207186434Y-97306312D01*
X206990797Y-97387348D01*
X206814728Y-97504993D01*
X206664993Y-97654728D01*
X206547348Y-97830797D01*
X206466312Y-98026434D01*
X206425000Y-98234122D01*
X204475000Y-98234122D01*
X204475000Y-95694122D01*
X206425000Y-95694122D01*
X206425000Y-95905878D01*
X206466312Y-96113566D01*
X206547348Y-96309203D01*
X206664993Y-96485272D01*
X206814728Y-96635007D01*
X206990797Y-96752652D01*
X207186434Y-96833688D01*
X207394122Y-96875000D01*
X207605878Y-96875000D01*
X207813566Y-96833688D01*
X208009203Y-96752652D01*
X208185272Y-96635007D01*
X208335007Y-96485272D01*
X208452652Y-96309203D01*
X208533688Y-96113566D01*
X208575000Y-95905878D01*
X208575000Y-95694122D01*
X208533688Y-95486434D01*
X208452652Y-95290797D01*
X208335007Y-95114728D01*
X208185272Y-94964993D01*
X208009203Y-94847348D01*
X207813566Y-94766312D01*
X207605878Y-94725000D01*
X207394122Y-94725000D01*
X207186434Y-94766312D01*
X206990797Y-94847348D01*
X206814728Y-94964993D01*
X206664993Y-95114728D01*
X206547348Y-95290797D01*
X206466312Y-95486434D01*
X206425000Y-95694122D01*
X204475000Y-95694122D01*
X204475000Y-74725140D01*
X204504824Y-74653137D01*
X204525000Y-74551708D01*
X204525000Y-74448292D01*
X204504824Y-74346863D01*
X204475000Y-74274860D01*
X204475000Y-73725140D01*
X204504824Y-73653137D01*
X204525000Y-73551708D01*
X204525000Y-73448292D01*
X204504824Y-73346863D01*
X204465249Y-73251319D01*
X204407794Y-73165332D01*
X204334668Y-73092206D01*
X204248681Y-73034751D01*
X204153137Y-72995176D01*
X204051708Y-72975000D01*
X203948292Y-72975000D01*
X203846863Y-72995176D01*
X203751319Y-73034751D01*
X203665332Y-73092206D01*
X203592206Y-73165332D01*
X203534751Y-73251319D01*
X203495176Y-73346863D01*
X203475000Y-73448292D01*
X181368886Y-73448292D01*
X181436859Y-73284193D01*
X181474301Y-73095960D01*
X181474301Y-72904040D01*
X181436859Y-72715807D01*
X181363414Y-72538496D01*
X181256789Y-72378920D01*
X181121081Y-72243212D01*
X180961505Y-72136587D01*
X180784194Y-72063142D01*
X180595961Y-72025700D01*
X180404041Y-72025700D01*
X180215808Y-72063142D01*
X180038497Y-72136587D01*
X179878921Y-72243212D01*
X179743213Y-72378920D01*
X179636588Y-72538496D01*
X179563143Y-72715807D01*
X179525701Y-72904040D01*
X174974299Y-72904040D01*
X174936857Y-72715807D01*
X174863412Y-72538496D01*
X174756787Y-72378920D01*
X174621079Y-72243212D01*
X174461503Y-72136587D01*
X174284192Y-72063142D01*
X174095959Y-72025700D01*
X173904039Y-72025700D01*
X173715806Y-72063142D01*
X173538495Y-72136587D01*
X173378919Y-72243212D01*
X173243211Y-72378920D01*
X173136586Y-72538496D01*
X173063141Y-72715807D01*
X173025699Y-72904040D01*
X170425000Y-72904040D01*
X170425000Y-70775140D01*
X170454824Y-70703137D01*
X170475000Y-70601708D01*
X170475000Y-70498292D01*
X170454824Y-70396863D01*
X170415249Y-70301319D01*
X170357794Y-70215332D01*
X170284668Y-70142206D01*
X170198681Y-70084751D01*
X170103137Y-70045176D01*
X170001708Y-70025000D01*
X169898292Y-70025000D01*
X169796863Y-70045176D01*
X169701319Y-70084751D01*
X169615332Y-70142206D01*
X169542206Y-70215332D01*
X169484751Y-70301319D01*
X169445176Y-70396863D01*
X169425000Y-70498292D01*
X169425000Y-70601708D01*
X169445176Y-70703137D01*
X169475001Y-70775142D01*
X169475000Y-102353249D01*
X155390750Y-116437500D01*
X151934250Y-116437500D01*
X161819377Y-106552375D01*
X161837501Y-106537501D01*
X161896859Y-106465173D01*
X161925602Y-106411398D01*
X161940966Y-106382655D01*
X161968127Y-106293116D01*
X161977298Y-106200000D01*
X161975000Y-106176668D01*
X161975000Y-103226637D01*
X161978465Y-103220154D01*
X161982296Y-103207525D01*
X162004824Y-103153137D01*
X162025000Y-103051708D01*
X162025000Y-102948292D01*
X162004824Y-102846863D01*
X161975000Y-102774860D01*
X161975000Y-95450000D01*
X164723669Y-95450000D01*
X164728979Y-95503910D01*
X164744703Y-95555747D01*
X164770239Y-95603521D01*
X164804604Y-95645396D01*
X164846479Y-95679761D01*
X164894253Y-95705297D01*
X164946090Y-95721021D01*
X165000000Y-95726331D01*
X165756250Y-95725000D01*
X165825000Y-95656250D01*
X165825000Y-94625000D01*
X165875000Y-94625000D01*
X165875000Y-95656250D01*
X165943750Y-95725000D01*
X166700000Y-95726331D01*
X166753910Y-95721021D01*
X166805747Y-95705297D01*
X166853521Y-95679761D01*
X166895396Y-95645396D01*
X166929761Y-95603521D01*
X166955297Y-95555747D01*
X166971021Y-95503910D01*
X166976331Y-95450000D01*
X166975000Y-94693750D01*
X166906250Y-94625000D01*
X165875000Y-94625000D01*
X165825000Y-94625000D01*
X164793750Y-94625000D01*
X164725000Y-94693750D01*
X164723669Y-95450000D01*
X161975000Y-95450000D01*
X161975000Y-93750000D01*
X164723669Y-93750000D01*
X164725000Y-94506250D01*
X164793750Y-94575000D01*
X165825000Y-94575000D01*
X165825000Y-93543750D01*
X165875000Y-93543750D01*
X165875000Y-94575000D01*
X166906250Y-94575000D01*
X166975000Y-94506250D01*
X166976331Y-93750000D01*
X166971021Y-93696090D01*
X166955297Y-93644253D01*
X166929761Y-93596479D01*
X166895396Y-93554604D01*
X166853521Y-93520239D01*
X166805747Y-93494703D01*
X166753910Y-93478979D01*
X166700000Y-93473669D01*
X165943750Y-93475000D01*
X165875000Y-93543750D01*
X165825000Y-93543750D01*
X165756250Y-93475000D01*
X165000000Y-93473669D01*
X164946090Y-93478979D01*
X164894253Y-93494703D01*
X164846479Y-93520239D01*
X164804604Y-93554604D01*
X164770239Y-93596479D01*
X164744703Y-93644253D01*
X164728979Y-93696090D01*
X164723669Y-93750000D01*
X161975000Y-93750000D01*
X161975000Y-68404039D01*
X173025699Y-68404039D01*
X173025699Y-68595959D01*
X173063141Y-68784192D01*
X173136586Y-68961503D01*
X173243211Y-69121079D01*
X173378919Y-69256787D01*
X173538495Y-69363412D01*
X173715806Y-69436857D01*
X173904039Y-69474299D01*
X174095959Y-69474299D01*
X174284192Y-69436857D01*
X174461503Y-69363412D01*
X174621079Y-69256787D01*
X174628567Y-69249299D01*
X179474370Y-69249299D01*
X179479680Y-69303209D01*
X179495404Y-69355046D01*
X179520940Y-69402820D01*
X179555305Y-69444695D01*
X179597180Y-69479060D01*
X179644954Y-69504596D01*
X179696791Y-69520320D01*
X179750701Y-69525630D01*
X180406251Y-69524299D01*
X180475001Y-69455549D01*
X180475001Y-68524999D01*
X180525001Y-68524999D01*
X180525001Y-69455549D01*
X180593751Y-69524299D01*
X181249301Y-69525630D01*
X181303211Y-69520320D01*
X181355048Y-69504596D01*
X181402822Y-69479060D01*
X181444697Y-69444695D01*
X181479062Y-69402820D01*
X181504598Y-69355046D01*
X181520322Y-69303209D01*
X181525632Y-69249299D01*
X181524301Y-68593749D01*
X181455551Y-68524999D01*
X180525001Y-68524999D01*
X180475001Y-68524999D01*
X179544451Y-68524999D01*
X179475701Y-68593749D01*
X179474370Y-69249299D01*
X174628567Y-69249299D01*
X174756787Y-69121079D01*
X174863412Y-68961503D01*
X174936857Y-68784192D01*
X174974299Y-68595959D01*
X174974299Y-68404039D01*
X174936857Y-68215806D01*
X174863412Y-68038495D01*
X174756787Y-67878919D01*
X174628567Y-67750699D01*
X179474370Y-67750699D01*
X179475701Y-68406249D01*
X179544451Y-68474999D01*
X180475001Y-68474999D01*
X180475001Y-67544449D01*
X180525001Y-67544449D01*
X180525001Y-68474999D01*
X181455551Y-68474999D01*
X181524301Y-68406249D01*
X181525632Y-67750699D01*
X181520322Y-67696789D01*
X181504598Y-67644952D01*
X181479062Y-67597178D01*
X181444697Y-67555303D01*
X181402822Y-67520938D01*
X181355048Y-67495402D01*
X181303211Y-67479678D01*
X181249301Y-67474368D01*
X180593751Y-67475699D01*
X180525001Y-67544449D01*
X180475001Y-67544449D01*
X180406251Y-67475699D01*
X179750701Y-67474368D01*
X179696791Y-67479678D01*
X179644954Y-67495402D01*
X179597180Y-67520938D01*
X179555305Y-67555303D01*
X179520940Y-67597178D01*
X179495404Y-67644952D01*
X179479680Y-67696789D01*
X179474370Y-67750699D01*
X174628567Y-67750699D01*
X174621079Y-67743211D01*
X174461503Y-67636586D01*
X174284192Y-67563141D01*
X174095959Y-67525699D01*
X173904039Y-67525699D01*
X173715806Y-67563141D01*
X173538495Y-67636586D01*
X173378919Y-67743211D01*
X173243211Y-67878919D01*
X173136586Y-68038495D01*
X173063141Y-68215806D01*
X173025699Y-68404039D01*
X161975000Y-68404039D01*
X161975000Y-66650000D01*
X190923912Y-66650000D01*
X190923912Y-68350000D01*
X190928256Y-68394108D01*
X190941122Y-68436520D01*
X190962015Y-68475608D01*
X190990132Y-68509868D01*
X191024392Y-68537985D01*
X191063480Y-68558878D01*
X191105892Y-68571744D01*
X191150000Y-68576088D01*
X192850000Y-68576088D01*
X192894108Y-68571744D01*
X192936520Y-68558878D01*
X192975608Y-68537985D01*
X193009868Y-68509868D01*
X193037985Y-68475608D01*
X193058878Y-68436520D01*
X193071744Y-68394108D01*
X193076088Y-68350000D01*
X193076088Y-67394122D01*
X193465000Y-67394122D01*
X193465000Y-67605878D01*
X193506312Y-67813566D01*
X193587348Y-68009203D01*
X193704993Y-68185272D01*
X193854728Y-68335007D01*
X194030797Y-68452652D01*
X194226434Y-68533688D01*
X194434122Y-68575000D01*
X194645878Y-68575000D01*
X194853566Y-68533688D01*
X195049203Y-68452652D01*
X195225272Y-68335007D01*
X195375007Y-68185272D01*
X195492652Y-68009203D01*
X195573688Y-67813566D01*
X195615000Y-67605878D01*
X195615000Y-67394122D01*
X196005000Y-67394122D01*
X196005000Y-67605878D01*
X196046312Y-67813566D01*
X196127348Y-68009203D01*
X196244993Y-68185272D01*
X196394728Y-68335007D01*
X196570797Y-68452652D01*
X196766434Y-68533688D01*
X196974122Y-68575000D01*
X197185878Y-68575000D01*
X197393566Y-68533688D01*
X197589203Y-68452652D01*
X197765272Y-68335007D01*
X197915007Y-68185272D01*
X198032652Y-68009203D01*
X198113688Y-67813566D01*
X198155000Y-67605878D01*
X198155000Y-67394122D01*
X198545000Y-67394122D01*
X198545000Y-67605878D01*
X198586312Y-67813566D01*
X198667348Y-68009203D01*
X198784993Y-68185272D01*
X198934728Y-68335007D01*
X199110797Y-68452652D01*
X199306434Y-68533688D01*
X199514122Y-68575000D01*
X199725878Y-68575000D01*
X199933566Y-68533688D01*
X200129203Y-68452652D01*
X200305272Y-68335007D01*
X200455007Y-68185272D01*
X200572652Y-68009203D01*
X200653688Y-67813566D01*
X200676150Y-67700638D01*
X201053035Y-67700638D01*
X201113448Y-67912741D01*
X201214079Y-68108982D01*
X201351061Y-68281821D01*
X201519130Y-68424615D01*
X201711828Y-68531876D01*
X201921749Y-68599483D01*
X201959363Y-68606964D01*
X202135000Y-68555954D01*
X202135000Y-67525000D01*
X202185000Y-67525000D01*
X202185000Y-68555954D01*
X202360637Y-68606964D01*
X202398251Y-68599483D01*
X202608172Y-68531876D01*
X202800870Y-68424615D01*
X202968939Y-68281821D01*
X203105921Y-68108982D01*
X203206552Y-67912741D01*
X203266965Y-67700638D01*
X203215973Y-67525000D01*
X202185000Y-67525000D01*
X202135000Y-67525000D01*
X201104027Y-67525000D01*
X201053035Y-67700638D01*
X200676150Y-67700638D01*
X200695000Y-67605878D01*
X200695000Y-67394122D01*
X200676151Y-67299362D01*
X201053035Y-67299362D01*
X201104027Y-67475000D01*
X202135000Y-67475000D01*
X202135000Y-66444046D01*
X202185000Y-66444046D01*
X202185000Y-67475000D01*
X203215973Y-67475000D01*
X203239453Y-67394122D01*
X203625000Y-67394122D01*
X203625000Y-67605878D01*
X203666312Y-67813566D01*
X203747348Y-68009203D01*
X203864993Y-68185272D01*
X204014728Y-68335007D01*
X204190797Y-68452652D01*
X204386434Y-68533688D01*
X204594122Y-68575000D01*
X204805878Y-68575000D01*
X205013566Y-68533688D01*
X205209203Y-68452652D01*
X205385272Y-68335007D01*
X205535007Y-68185272D01*
X205652652Y-68009203D01*
X205733688Y-67813566D01*
X205775000Y-67605878D01*
X205775000Y-67394122D01*
X205733688Y-67186434D01*
X205652652Y-66990797D01*
X205535007Y-66814728D01*
X205385272Y-66664993D01*
X205209203Y-66547348D01*
X205013566Y-66466312D01*
X204805878Y-66425000D01*
X204594122Y-66425000D01*
X204386434Y-66466312D01*
X204190797Y-66547348D01*
X204014728Y-66664993D01*
X203864993Y-66814728D01*
X203747348Y-66990797D01*
X203666312Y-67186434D01*
X203625000Y-67394122D01*
X203239453Y-67394122D01*
X203266965Y-67299362D01*
X203206552Y-67087259D01*
X203105921Y-66891018D01*
X202968939Y-66718179D01*
X202800870Y-66575385D01*
X202608172Y-66468124D01*
X202398251Y-66400517D01*
X202360637Y-66393036D01*
X202185000Y-66444046D01*
X202135000Y-66444046D01*
X201959363Y-66393036D01*
X201921749Y-66400517D01*
X201711828Y-66468124D01*
X201519130Y-66575385D01*
X201351061Y-66718179D01*
X201214079Y-66891018D01*
X201113448Y-67087259D01*
X201053035Y-67299362D01*
X200676151Y-67299362D01*
X200653688Y-67186434D01*
X200572652Y-66990797D01*
X200455007Y-66814728D01*
X200305272Y-66664993D01*
X200129203Y-66547348D01*
X199933566Y-66466312D01*
X199725878Y-66425000D01*
X199514122Y-66425000D01*
X199306434Y-66466312D01*
X199110797Y-66547348D01*
X198934728Y-66664993D01*
X198784993Y-66814728D01*
X198667348Y-66990797D01*
X198586312Y-67186434D01*
X198545000Y-67394122D01*
X198155000Y-67394122D01*
X198113688Y-67186434D01*
X198032652Y-66990797D01*
X197915007Y-66814728D01*
X197765272Y-66664993D01*
X197589203Y-66547348D01*
X197393566Y-66466312D01*
X197185878Y-66425000D01*
X196974122Y-66425000D01*
X196766434Y-66466312D01*
X196570797Y-66547348D01*
X196394728Y-66664993D01*
X196244993Y-66814728D01*
X196127348Y-66990797D01*
X196046312Y-67186434D01*
X196005000Y-67394122D01*
X195615000Y-67394122D01*
X195573688Y-67186434D01*
X195492652Y-66990797D01*
X195375007Y-66814728D01*
X195225272Y-66664993D01*
X195049203Y-66547348D01*
X194853566Y-66466312D01*
X194645878Y-66425000D01*
X194434122Y-66425000D01*
X194226434Y-66466312D01*
X194030797Y-66547348D01*
X193854728Y-66664993D01*
X193704993Y-66814728D01*
X193587348Y-66990797D01*
X193506312Y-67186434D01*
X193465000Y-67394122D01*
X193076088Y-67394122D01*
X193076088Y-66650000D01*
X193071744Y-66605892D01*
X193058878Y-66563480D01*
X193037985Y-66524392D01*
X193009868Y-66490132D01*
X192975608Y-66462015D01*
X192936520Y-66441122D01*
X192894108Y-66428256D01*
X192850000Y-66423912D01*
X191150000Y-66423912D01*
X191105892Y-66428256D01*
X191063480Y-66441122D01*
X191024392Y-66462015D01*
X190990132Y-66490132D01*
X190962015Y-66524392D01*
X190941122Y-66563480D01*
X190928256Y-66605892D01*
X190923912Y-66650000D01*
X161975000Y-66650000D01*
X161975000Y-64850000D01*
X208873669Y-64850000D01*
X208878979Y-64903910D01*
X208894703Y-64955747D01*
X208920239Y-65003521D01*
X208954604Y-65045396D01*
X208996479Y-65079761D01*
X209044253Y-65105297D01*
X209096090Y-65121021D01*
X209150000Y-65126331D01*
X209906250Y-65125000D01*
X209975000Y-65056250D01*
X209975000Y-64025000D01*
X210025000Y-64025000D01*
X210025000Y-65056250D01*
X210093750Y-65125000D01*
X210850000Y-65126331D01*
X210903910Y-65121021D01*
X210955747Y-65105297D01*
X211003521Y-65079761D01*
X211045396Y-65045396D01*
X211079761Y-65003521D01*
X211105297Y-64955747D01*
X211121021Y-64903910D01*
X211126331Y-64850000D01*
X211125000Y-64093750D01*
X211056250Y-64025000D01*
X210025000Y-64025000D01*
X209975000Y-64025000D01*
X208943750Y-64025000D01*
X208875000Y-64093750D01*
X208873669Y-64850000D01*
X161975000Y-64850000D01*
X161975000Y-63400000D01*
X192823669Y-63400000D01*
X192828979Y-63453910D01*
X192844703Y-63505747D01*
X192870239Y-63553521D01*
X192904604Y-63595396D01*
X192946479Y-63629761D01*
X192994253Y-63655297D01*
X193046090Y-63671021D01*
X193100000Y-63676331D01*
X193906250Y-63675000D01*
X193975000Y-63606250D01*
X193975000Y-62525000D01*
X194025000Y-62525000D01*
X194025000Y-63606250D01*
X194093750Y-63675000D01*
X194900000Y-63676331D01*
X194953910Y-63671021D01*
X195005747Y-63655297D01*
X195053521Y-63629761D01*
X195095396Y-63595396D01*
X195129761Y-63553521D01*
X195155297Y-63505747D01*
X195171021Y-63453910D01*
X195176331Y-63400000D01*
X195175000Y-62593750D01*
X195106250Y-62525000D01*
X194025000Y-62525000D01*
X193975000Y-62525000D01*
X192893750Y-62525000D01*
X192825000Y-62593750D01*
X192823669Y-63400000D01*
X161975000Y-63400000D01*
X161975000Y-61600000D01*
X192823669Y-61600000D01*
X192825000Y-62406250D01*
X192893750Y-62475000D01*
X193975000Y-62475000D01*
X193975000Y-61393750D01*
X194025000Y-61393750D01*
X194025000Y-62475000D01*
X195106250Y-62475000D01*
X195175000Y-62406250D01*
X195175028Y-62389197D01*
X195415000Y-62389197D01*
X195415000Y-62610803D01*
X195458233Y-62828150D01*
X195543038Y-63032887D01*
X195666156Y-63217145D01*
X195822855Y-63373844D01*
X196007113Y-63496962D01*
X196211850Y-63581767D01*
X196429197Y-63625000D01*
X196650803Y-63625000D01*
X196868150Y-63581767D01*
X197072887Y-63496962D01*
X197257145Y-63373844D01*
X197413844Y-63217145D01*
X197458709Y-63150000D01*
X208873669Y-63150000D01*
X208875000Y-63906250D01*
X208943750Y-63975000D01*
X209975000Y-63975000D01*
X209975000Y-62943750D01*
X210025000Y-62943750D01*
X210025000Y-63975000D01*
X211056250Y-63975000D01*
X211125000Y-63906250D01*
X211126331Y-63150000D01*
X211121021Y-63096090D01*
X211105297Y-63044253D01*
X211079761Y-62996479D01*
X211045396Y-62954604D01*
X211003521Y-62920239D01*
X210955747Y-62894703D01*
X210903910Y-62878979D01*
X210850000Y-62873669D01*
X210093750Y-62875000D01*
X210025000Y-62943750D01*
X209975000Y-62943750D01*
X209906250Y-62875000D01*
X209150000Y-62873669D01*
X209096090Y-62878979D01*
X209044253Y-62894703D01*
X208996479Y-62920239D01*
X208954604Y-62954604D01*
X208920239Y-62996479D01*
X208894703Y-63044253D01*
X208878979Y-63096090D01*
X208873669Y-63150000D01*
X197458709Y-63150000D01*
X197536962Y-63032887D01*
X197621767Y-62828150D01*
X197665000Y-62610803D01*
X197665000Y-62389197D01*
X197621767Y-62171850D01*
X197536962Y-61967113D01*
X197413844Y-61782855D01*
X197257145Y-61626156D01*
X197072887Y-61503038D01*
X196868150Y-61418233D01*
X196650803Y-61375000D01*
X196429197Y-61375000D01*
X196211850Y-61418233D01*
X196007113Y-61503038D01*
X195822855Y-61626156D01*
X195666156Y-61782855D01*
X195543038Y-61967113D01*
X195458233Y-62171850D01*
X195415000Y-62389197D01*
X195175028Y-62389197D01*
X195176331Y-61600000D01*
X195171021Y-61546090D01*
X195155297Y-61494253D01*
X195129761Y-61446479D01*
X195095396Y-61404604D01*
X195053521Y-61370239D01*
X195005747Y-61344703D01*
X194953910Y-61328979D01*
X194900000Y-61323669D01*
X194093750Y-61325000D01*
X194025000Y-61393750D01*
X193975000Y-61393750D01*
X193906250Y-61325000D01*
X193100000Y-61323669D01*
X193046090Y-61328979D01*
X192994253Y-61344703D01*
X192946479Y-61370239D01*
X192904604Y-61404604D01*
X192870239Y-61446479D01*
X192844703Y-61494253D01*
X192828979Y-61546090D01*
X192823669Y-61600000D01*
X161975000Y-61600000D01*
X161975000Y-53150000D01*
X166423912Y-53150000D01*
X166423912Y-54850000D01*
X166428256Y-54894108D01*
X166441122Y-54936520D01*
X166462015Y-54975608D01*
X166490132Y-55009868D01*
X166524392Y-55037985D01*
X166563480Y-55058878D01*
X166605892Y-55071744D01*
X166650000Y-55076088D01*
X168350000Y-55076088D01*
X168394108Y-55071744D01*
X168436520Y-55058878D01*
X168475608Y-55037985D01*
X168509868Y-55009868D01*
X168537985Y-54975608D01*
X168558878Y-54936520D01*
X168571744Y-54894108D01*
X168576088Y-54850000D01*
X168576088Y-53150000D01*
X179423912Y-53150000D01*
X179423912Y-54850000D01*
X179428256Y-54894108D01*
X179441122Y-54936520D01*
X179462015Y-54975608D01*
X179490132Y-55009868D01*
X179524392Y-55037985D01*
X179563480Y-55058878D01*
X179605892Y-55071744D01*
X179650000Y-55076088D01*
X181350000Y-55076088D01*
X181394108Y-55071744D01*
X181436520Y-55058878D01*
X181475608Y-55037985D01*
X181509868Y-55009868D01*
X181537985Y-54975608D01*
X181558878Y-54936520D01*
X181571744Y-54894108D01*
X181576088Y-54850000D01*
X181576088Y-53150000D01*
X181571744Y-53105892D01*
X181558878Y-53063480D01*
X181537985Y-53024392D01*
X181509868Y-52990132D01*
X181475608Y-52962015D01*
X181436520Y-52941122D01*
X181394108Y-52928256D01*
X181350000Y-52923912D01*
X179650000Y-52923912D01*
X179605892Y-52928256D01*
X179563480Y-52941122D01*
X179524392Y-52962015D01*
X179490132Y-52990132D01*
X179462015Y-53024392D01*
X179441122Y-53063480D01*
X179428256Y-53105892D01*
X179423912Y-53150000D01*
X168576088Y-53150000D01*
X168571744Y-53105892D01*
X168558878Y-53063480D01*
X168537985Y-53024392D01*
X168509868Y-52990132D01*
X168475608Y-52962015D01*
X168436520Y-52941122D01*
X168394108Y-52928256D01*
X168350000Y-52923912D01*
X166650000Y-52923912D01*
X166605892Y-52928256D01*
X166563480Y-52941122D01*
X166524392Y-52962015D01*
X166490132Y-52990132D01*
X166462015Y-53024392D01*
X166441122Y-53063480D01*
X166428256Y-53105892D01*
X166423912Y-53150000D01*
X161975000Y-53150000D01*
X161975000Y-51525140D01*
X162004824Y-51453137D01*
X162025000Y-51351708D01*
X162025000Y-51248292D01*
X162005449Y-51150000D01*
X186383912Y-51150000D01*
X186383912Y-52850000D01*
X186388256Y-52894108D01*
X186401122Y-52936520D01*
X186422015Y-52975608D01*
X186450132Y-53009868D01*
X186484392Y-53037985D01*
X186523480Y-53058878D01*
X186565892Y-53071744D01*
X186610000Y-53076088D01*
X188310000Y-53076088D01*
X188354108Y-53071744D01*
X188396520Y-53058878D01*
X188435608Y-53037985D01*
X188469868Y-53009868D01*
X188497985Y-52975608D01*
X188518878Y-52936520D01*
X188531744Y-52894108D01*
X188536088Y-52850000D01*
X188536088Y-51894122D01*
X188925000Y-51894122D01*
X188925000Y-52105878D01*
X188966312Y-52313566D01*
X189047348Y-52509203D01*
X189164993Y-52685272D01*
X189314728Y-52835007D01*
X189490797Y-52952652D01*
X189686434Y-53033688D01*
X189894122Y-53075000D01*
X190105878Y-53075000D01*
X190313566Y-53033688D01*
X190509203Y-52952652D01*
X190685272Y-52835007D01*
X190835007Y-52685272D01*
X190952652Y-52509203D01*
X191033688Y-52313566D01*
X191056150Y-52200638D01*
X191433035Y-52200638D01*
X191493448Y-52412741D01*
X191594079Y-52608982D01*
X191731061Y-52781821D01*
X191899130Y-52924615D01*
X192091828Y-53031876D01*
X192301749Y-53099483D01*
X192339363Y-53106964D01*
X192515000Y-53055954D01*
X192515000Y-52025000D01*
X192565000Y-52025000D01*
X192565000Y-53055954D01*
X192740637Y-53106964D01*
X192778251Y-53099483D01*
X192988172Y-53031876D01*
X193180870Y-52924615D01*
X193348939Y-52781821D01*
X193485921Y-52608982D01*
X193586552Y-52412741D01*
X193646965Y-52200638D01*
X193595973Y-52025000D01*
X192565000Y-52025000D01*
X192515000Y-52025000D01*
X191484027Y-52025000D01*
X191433035Y-52200638D01*
X191056150Y-52200638D01*
X191075000Y-52105878D01*
X191075000Y-51894122D01*
X191056151Y-51799362D01*
X191433035Y-51799362D01*
X191484027Y-51975000D01*
X192515000Y-51975000D01*
X192515000Y-50944046D01*
X192565000Y-50944046D01*
X192565000Y-51975000D01*
X193595973Y-51975000D01*
X193646965Y-51799362D01*
X193586552Y-51587259D01*
X193485921Y-51391018D01*
X193348939Y-51218179D01*
X193180870Y-51075385D01*
X192988172Y-50968124D01*
X192778251Y-50900517D01*
X192740637Y-50893036D01*
X192565000Y-50944046D01*
X192515000Y-50944046D01*
X192339363Y-50893036D01*
X192301749Y-50900517D01*
X192091828Y-50968124D01*
X191899130Y-51075385D01*
X191731061Y-51218179D01*
X191594079Y-51391018D01*
X191493448Y-51587259D01*
X191433035Y-51799362D01*
X191056151Y-51799362D01*
X191033688Y-51686434D01*
X190952652Y-51490797D01*
X190835007Y-51314728D01*
X190685272Y-51164993D01*
X190509203Y-51047348D01*
X190313566Y-50966312D01*
X190105878Y-50925000D01*
X189894122Y-50925000D01*
X189686434Y-50966312D01*
X189490797Y-51047348D01*
X189314728Y-51164993D01*
X189164993Y-51314728D01*
X189047348Y-51490797D01*
X188966312Y-51686434D01*
X188925000Y-51894122D01*
X188536088Y-51894122D01*
X188536088Y-51150000D01*
X188531744Y-51105892D01*
X188518878Y-51063480D01*
X188497985Y-51024392D01*
X188469868Y-50990132D01*
X188435608Y-50962015D01*
X188396520Y-50941122D01*
X188354108Y-50928256D01*
X188310000Y-50923912D01*
X186610000Y-50923912D01*
X186565892Y-50928256D01*
X186523480Y-50941122D01*
X186484392Y-50962015D01*
X186450132Y-50990132D01*
X186422015Y-51024392D01*
X186401122Y-51063480D01*
X186388256Y-51105892D01*
X186383912Y-51150000D01*
X162005449Y-51150000D01*
X162004824Y-51146863D01*
X161965249Y-51051319D01*
X161907794Y-50965332D01*
X161834668Y-50892206D01*
X161748681Y-50834751D01*
X161653137Y-50795176D01*
X161551708Y-50775000D01*
X161448292Y-50775000D01*
X161346863Y-50795176D01*
X161251319Y-50834751D01*
X161165332Y-50892206D01*
X161092206Y-50965332D01*
X161034751Y-51051319D01*
X160995176Y-51146863D01*
X160975000Y-51248292D01*
X160975000Y-51351708D01*
X160995176Y-51453137D01*
X161025001Y-51525142D01*
X161025000Y-102774860D01*
X160995176Y-102846863D01*
X160975000Y-102948292D01*
X160975000Y-103051708D01*
X160995176Y-103153137D01*
X161025001Y-103225142D01*
X161025000Y-106003248D01*
X150590750Y-116437500D01*
X147003539Y-116437500D01*
X146978466Y-116354845D01*
X146963102Y-116326102D01*
X146934359Y-116272327D01*
X146875001Y-116199999D01*
X146856877Y-116185125D01*
X144925000Y-114253250D01*
X144925000Y-96526088D01*
X145350000Y-96526088D01*
X145394108Y-96521744D01*
X145436520Y-96508878D01*
X145475608Y-96487985D01*
X145509868Y-96459868D01*
X145537985Y-96425608D01*
X145558878Y-96386520D01*
X145571744Y-96344108D01*
X145576088Y-96300000D01*
X145576088Y-95075000D01*
X147923912Y-95075000D01*
X147923912Y-95925000D01*
X147936422Y-96052021D01*
X147973473Y-96174161D01*
X148033640Y-96286725D01*
X148114611Y-96385389D01*
X148213275Y-96466360D01*
X148325839Y-96526527D01*
X148447979Y-96563578D01*
X148575000Y-96576088D01*
X149425000Y-96576088D01*
X149552021Y-96563578D01*
X149674161Y-96526527D01*
X149786725Y-96466360D01*
X149885389Y-96385389D01*
X149966360Y-96286725D01*
X150026527Y-96174161D01*
X150063578Y-96052021D01*
X150076088Y-95925000D01*
X150076088Y-95075000D01*
X150063578Y-94947979D01*
X150026527Y-94825839D01*
X149966360Y-94713275D01*
X149885389Y-94614611D01*
X149786725Y-94533640D01*
X149674161Y-94473473D01*
X149552021Y-94436422D01*
X149425000Y-94423912D01*
X148575000Y-94423912D01*
X148447979Y-94436422D01*
X148325839Y-94473473D01*
X148213275Y-94533640D01*
X148114611Y-94614611D01*
X148033640Y-94713275D01*
X147973473Y-94825839D01*
X147936422Y-94947979D01*
X147923912Y-95075000D01*
X145576088Y-95075000D01*
X145576088Y-94600000D01*
X145571744Y-94555892D01*
X145558878Y-94513480D01*
X145537985Y-94474392D01*
X145509868Y-94440132D01*
X145475608Y-94412015D01*
X145436520Y-94391122D01*
X145394108Y-94378256D01*
X145350000Y-94373912D01*
X144925000Y-94373912D01*
X144925000Y-80650000D01*
X147423912Y-80650000D01*
X147423912Y-82350000D01*
X147428256Y-82394108D01*
X147441122Y-82436520D01*
X147462015Y-82475608D01*
X147490132Y-82509868D01*
X147524392Y-82537985D01*
X147563480Y-82558878D01*
X147605892Y-82571744D01*
X147650000Y-82576088D01*
X149350000Y-82576088D01*
X149394108Y-82571744D01*
X149436520Y-82558878D01*
X149475608Y-82537985D01*
X149509868Y-82509868D01*
X149537985Y-82475608D01*
X149558878Y-82436520D01*
X149571744Y-82394108D01*
X149576088Y-82350000D01*
X149576088Y-80700000D01*
X151223912Y-80700000D01*
X151223912Y-82400000D01*
X151228256Y-82444108D01*
X151241122Y-82486520D01*
X151262015Y-82525608D01*
X151290132Y-82559868D01*
X151324392Y-82587985D01*
X151363480Y-82608878D01*
X151405892Y-82621744D01*
X151450000Y-82626088D01*
X153150000Y-82626088D01*
X153194108Y-82621744D01*
X153236520Y-82608878D01*
X153275608Y-82587985D01*
X153309868Y-82559868D01*
X153337985Y-82525608D01*
X153358878Y-82486520D01*
X153371744Y-82444108D01*
X153376088Y-82400000D01*
X153376088Y-81444122D01*
X153765000Y-81444122D01*
X153765000Y-81655878D01*
X153806312Y-81863566D01*
X153887348Y-82059203D01*
X154004993Y-82235272D01*
X154154728Y-82385007D01*
X154330797Y-82502652D01*
X154526434Y-82583688D01*
X154734122Y-82625000D01*
X154945878Y-82625000D01*
X155153566Y-82583688D01*
X155349203Y-82502652D01*
X155525272Y-82385007D01*
X155675007Y-82235272D01*
X155792652Y-82059203D01*
X155873688Y-81863566D01*
X155915000Y-81655878D01*
X155915000Y-81444122D01*
X155873688Y-81236434D01*
X155792652Y-81040797D01*
X155675007Y-80864728D01*
X155525272Y-80714993D01*
X155349203Y-80597348D01*
X155153566Y-80516312D01*
X154945878Y-80475000D01*
X154734122Y-80475000D01*
X154526434Y-80516312D01*
X154330797Y-80597348D01*
X154154728Y-80714993D01*
X154004993Y-80864728D01*
X153887348Y-81040797D01*
X153806312Y-81236434D01*
X153765000Y-81444122D01*
X153376088Y-81444122D01*
X153376088Y-80700000D01*
X153371744Y-80655892D01*
X153358878Y-80613480D01*
X153337985Y-80574392D01*
X153309868Y-80540132D01*
X153275608Y-80512015D01*
X153236520Y-80491122D01*
X153194108Y-80478256D01*
X153150000Y-80473912D01*
X151450000Y-80473912D01*
X151405892Y-80478256D01*
X151363480Y-80491122D01*
X151324392Y-80512015D01*
X151290132Y-80540132D01*
X151262015Y-80574392D01*
X151241122Y-80613480D01*
X151228256Y-80655892D01*
X151223912Y-80700000D01*
X149576088Y-80700000D01*
X149576088Y-80650000D01*
X149571744Y-80605892D01*
X149558878Y-80563480D01*
X149537985Y-80524392D01*
X149509868Y-80490132D01*
X149475608Y-80462015D01*
X149436520Y-80441122D01*
X149394108Y-80428256D01*
X149350000Y-80423912D01*
X147650000Y-80423912D01*
X147605892Y-80428256D01*
X147563480Y-80441122D01*
X147524392Y-80462015D01*
X147490132Y-80490132D01*
X147462015Y-80524392D01*
X147441122Y-80563480D01*
X147428256Y-80605892D01*
X147423912Y-80650000D01*
X144925000Y-80650000D01*
X144925000Y-74325140D01*
X144954824Y-74253137D01*
X144975000Y-74151708D01*
X144975000Y-74048292D01*
X144954824Y-73946863D01*
X144915249Y-73851319D01*
X144857794Y-73765332D01*
X144784668Y-73692206D01*
X144698681Y-73634751D01*
X144603137Y-73595176D01*
X144501708Y-73575000D01*
X144398292Y-73575000D01*
X144296863Y-73595176D01*
X144201319Y-73634751D01*
X144115332Y-73692206D01*
X144042206Y-73765332D01*
X143984751Y-73851319D01*
X143945176Y-73946863D01*
X143925000Y-74048292D01*
X143925000Y-74151708D01*
X143945176Y-74253137D01*
X143975000Y-74325140D01*
X143975001Y-94373912D01*
X143650000Y-94373912D01*
X143605892Y-94378256D01*
X143563480Y-94391122D01*
X143524392Y-94412015D01*
X143490132Y-94440132D01*
X143462015Y-94474392D01*
X143441122Y-94513480D01*
X143428256Y-94555892D01*
X143423912Y-94600000D01*
X132975000Y-94600000D01*
X132975000Y-89975140D01*
X133004824Y-89903137D01*
X133025000Y-89801708D01*
X133025000Y-89698292D01*
X133004824Y-89596863D01*
X132965249Y-89501319D01*
X132907794Y-89415332D01*
X132834668Y-89342206D01*
X132748681Y-89284751D01*
X132653137Y-89245176D01*
X132551708Y-89225000D01*
X132448292Y-89225000D01*
X132346863Y-89245176D01*
X132251319Y-89284751D01*
X132165332Y-89342206D01*
X132092206Y-89415332D01*
X132034751Y-89501319D01*
X131995176Y-89596863D01*
X131975000Y-89698292D01*
X118986120Y-89698292D01*
X119004824Y-89653137D01*
X119025000Y-89551708D01*
X119025000Y-89448292D01*
X119004824Y-89346863D01*
X118975000Y-89274860D01*
X118975000Y-82374541D01*
X119047348Y-82549203D01*
X119164993Y-82725272D01*
X119314728Y-82875007D01*
X119490797Y-82992652D01*
X119686434Y-83073688D01*
X119894122Y-83115000D01*
X120105878Y-83115000D01*
X120313566Y-83073688D01*
X120509203Y-82992652D01*
X120685272Y-82875007D01*
X120835007Y-82725272D01*
X120952652Y-82549203D01*
X121033688Y-82353566D01*
X121075000Y-82145878D01*
X121075000Y-81934122D01*
X121033688Y-81726434D01*
X120952652Y-81530797D01*
X120835007Y-81354728D01*
X120685272Y-81204993D01*
X120602969Y-81150000D01*
X122923912Y-81150000D01*
X122923912Y-82850000D01*
X122928256Y-82894108D01*
X122941122Y-82936520D01*
X122962015Y-82975608D01*
X122990132Y-83009868D01*
X123024392Y-83037985D01*
X123063480Y-83058878D01*
X123105892Y-83071744D01*
X123150000Y-83076088D01*
X124850000Y-83076088D01*
X124894108Y-83071744D01*
X124936520Y-83058878D01*
X124975608Y-83037985D01*
X125009868Y-83009868D01*
X125037985Y-82975608D01*
X125058878Y-82936520D01*
X125071744Y-82894108D01*
X125076088Y-82850000D01*
X125076088Y-81934122D01*
X126925000Y-81934122D01*
X126925000Y-82145878D01*
X126966312Y-82353566D01*
X127047348Y-82549203D01*
X127164993Y-82725272D01*
X127314728Y-82875007D01*
X127490797Y-82992652D01*
X127686434Y-83073688D01*
X127894122Y-83115000D01*
X128105878Y-83115000D01*
X128313566Y-83073688D01*
X128509203Y-82992652D01*
X128685272Y-82875007D01*
X128835007Y-82725272D01*
X128952652Y-82549203D01*
X129033688Y-82353566D01*
X129075000Y-82145878D01*
X129075000Y-81934122D01*
X129033688Y-81726434D01*
X128952652Y-81530797D01*
X128835007Y-81354728D01*
X128685272Y-81204993D01*
X128509203Y-81087348D01*
X128313566Y-81006312D01*
X128105878Y-80965000D01*
X127894122Y-80965000D01*
X127686434Y-81006312D01*
X127490797Y-81087348D01*
X127314728Y-81204993D01*
X127164993Y-81354728D01*
X127047348Y-81530797D01*
X126966312Y-81726434D01*
X126925000Y-81934122D01*
X125076088Y-81934122D01*
X125076088Y-81150000D01*
X125071744Y-81105892D01*
X125058878Y-81063480D01*
X125037985Y-81024392D01*
X125009868Y-80990132D01*
X124975608Y-80962015D01*
X124936520Y-80941122D01*
X124894108Y-80928256D01*
X124850000Y-80923912D01*
X123150000Y-80923912D01*
X123105892Y-80928256D01*
X123063480Y-80941122D01*
X123024392Y-80962015D01*
X122990132Y-80990132D01*
X122962015Y-81024392D01*
X122941122Y-81063480D01*
X122928256Y-81105892D01*
X122923912Y-81150000D01*
X120602969Y-81150000D01*
X120509203Y-81087348D01*
X120313566Y-81006312D01*
X120105878Y-80965000D01*
X119894122Y-80965000D01*
X119686434Y-81006312D01*
X119490797Y-81087348D01*
X119314728Y-81204993D01*
X119164993Y-81354728D01*
X119047348Y-81530797D01*
X118975000Y-81705459D01*
X118975000Y-80491430D01*
X118990132Y-80509868D01*
X119024392Y-80537985D01*
X119063480Y-80558878D01*
X119105892Y-80571744D01*
X119150000Y-80576088D01*
X120850000Y-80576088D01*
X120894108Y-80571744D01*
X120936520Y-80558878D01*
X120975608Y-80537985D01*
X121009868Y-80509868D01*
X121037985Y-80475608D01*
X121058878Y-80436520D01*
X121071744Y-80394108D01*
X121076088Y-80350000D01*
X121076088Y-79354122D01*
X122925000Y-79354122D01*
X122925000Y-79565878D01*
X122966312Y-79773566D01*
X123047348Y-79969203D01*
X123164993Y-80145272D01*
X123314728Y-80295007D01*
X123490797Y-80412652D01*
X123686434Y-80493688D01*
X123894122Y-80535000D01*
X124105878Y-80535000D01*
X124313566Y-80493688D01*
X124509203Y-80412652D01*
X124685272Y-80295007D01*
X124835007Y-80145272D01*
X124952652Y-79969203D01*
X125033688Y-79773566D01*
X125075000Y-79565878D01*
X125075000Y-79354122D01*
X125033688Y-79146434D01*
X124952652Y-78950797D01*
X124835007Y-78774728D01*
X124710279Y-78650000D01*
X126923912Y-78650000D01*
X126923912Y-80350000D01*
X126928256Y-80394108D01*
X126941122Y-80436520D01*
X126962015Y-80475608D01*
X126990132Y-80509868D01*
X127024392Y-80537985D01*
X127063480Y-80558878D01*
X127105892Y-80571744D01*
X127150000Y-80576088D01*
X128850000Y-80576088D01*
X128894108Y-80571744D01*
X128936520Y-80558878D01*
X128975608Y-80537985D01*
X129009868Y-80509868D01*
X129037985Y-80475608D01*
X129058878Y-80436520D01*
X129071744Y-80394108D01*
X129076088Y-80350000D01*
X129076088Y-78650000D01*
X129071744Y-78605892D01*
X129058878Y-78563480D01*
X129037985Y-78524392D01*
X129009868Y-78490132D01*
X128975608Y-78462015D01*
X128936520Y-78441122D01*
X128894108Y-78428256D01*
X128850000Y-78423912D01*
X127150000Y-78423912D01*
X127105892Y-78428256D01*
X127063480Y-78441122D01*
X127024392Y-78462015D01*
X126990132Y-78490132D01*
X126962015Y-78524392D01*
X126941122Y-78563480D01*
X126928256Y-78605892D01*
X126923912Y-78650000D01*
X124710279Y-78650000D01*
X124685272Y-78624993D01*
X124509203Y-78507348D01*
X124313566Y-78426312D01*
X124105878Y-78385000D01*
X123894122Y-78385000D01*
X123686434Y-78426312D01*
X123490797Y-78507348D01*
X123314728Y-78624993D01*
X123164993Y-78774728D01*
X123047348Y-78950797D01*
X122966312Y-79146434D01*
X122925000Y-79354122D01*
X121076088Y-79354122D01*
X121076088Y-78650000D01*
X121071744Y-78605892D01*
X121058878Y-78563480D01*
X121037985Y-78524392D01*
X121009868Y-78490132D01*
X120975608Y-78462015D01*
X120936520Y-78441122D01*
X120894108Y-78428256D01*
X120850000Y-78423912D01*
X119150000Y-78423912D01*
X119105892Y-78428256D01*
X119063480Y-78441122D01*
X119024392Y-78462015D01*
X118990132Y-78490132D01*
X118975000Y-78508570D01*
X118975000Y-75023331D01*
X118977298Y-74999999D01*
X118968127Y-74906883D01*
X118947878Y-74840132D01*
X118940966Y-74817346D01*
X118896859Y-74734827D01*
X118837501Y-74662499D01*
X118819372Y-74647621D01*
X115321751Y-71150000D01*
X118923912Y-71150000D01*
X118923912Y-72850000D01*
X118928256Y-72894108D01*
X118941122Y-72936520D01*
X118962015Y-72975608D01*
X118990132Y-73009868D01*
X119024392Y-73037985D01*
X119063480Y-73058878D01*
X119105892Y-73071744D01*
X119150000Y-73076088D01*
X120850000Y-73076088D01*
X120894108Y-73071744D01*
X120936520Y-73058878D01*
X120975608Y-73037985D01*
X121009868Y-73009868D01*
X121037985Y-72975608D01*
X121058878Y-72936520D01*
X121071744Y-72894108D01*
X121076088Y-72850000D01*
X121076088Y-71150000D01*
X122923912Y-71150000D01*
X122923912Y-72850000D01*
X122928256Y-72894108D01*
X122941122Y-72936520D01*
X122962015Y-72975608D01*
X122990132Y-73009868D01*
X123024392Y-73037985D01*
X123063480Y-73058878D01*
X123105892Y-73071744D01*
X123150000Y-73076088D01*
X124850000Y-73076088D01*
X124894108Y-73071744D01*
X124936520Y-73058878D01*
X124975608Y-73037985D01*
X125009868Y-73009868D01*
X125037985Y-72975608D01*
X125058878Y-72936520D01*
X125071744Y-72894108D01*
X125076088Y-72850000D01*
X125076088Y-71934122D01*
X126925000Y-71934122D01*
X126925000Y-72145878D01*
X126966312Y-72353566D01*
X127047348Y-72549203D01*
X127164993Y-72725272D01*
X127314728Y-72875007D01*
X127490797Y-72992652D01*
X127686434Y-73073688D01*
X127894122Y-73115000D01*
X128105878Y-73115000D01*
X128313566Y-73073688D01*
X128509203Y-72992652D01*
X128685272Y-72875007D01*
X128835007Y-72725272D01*
X128952652Y-72549203D01*
X129033688Y-72353566D01*
X129075000Y-72145878D01*
X129075000Y-71934122D01*
X129033688Y-71726434D01*
X128952652Y-71530797D01*
X128835007Y-71354728D01*
X128685272Y-71204993D01*
X128509203Y-71087348D01*
X128313566Y-71006312D01*
X128105878Y-70965000D01*
X127894122Y-70965000D01*
X127686434Y-71006312D01*
X127490797Y-71087348D01*
X127314728Y-71204993D01*
X127164993Y-71354728D01*
X127047348Y-71530797D01*
X126966312Y-71726434D01*
X126925000Y-71934122D01*
X125076088Y-71934122D01*
X125076088Y-71150000D01*
X125071744Y-71105892D01*
X125058878Y-71063480D01*
X125037985Y-71024392D01*
X125009868Y-70990132D01*
X124975608Y-70962015D01*
X124936520Y-70941122D01*
X124894108Y-70928256D01*
X124850000Y-70923912D01*
X123150000Y-70923912D01*
X123105892Y-70928256D01*
X123063480Y-70941122D01*
X123024392Y-70962015D01*
X122990132Y-70990132D01*
X122962015Y-71024392D01*
X122941122Y-71063480D01*
X122928256Y-71105892D01*
X122923912Y-71150000D01*
X121076088Y-71150000D01*
X121071744Y-71105892D01*
X121058878Y-71063480D01*
X121037985Y-71024392D01*
X121009868Y-70990132D01*
X120975608Y-70962015D01*
X120936520Y-70941122D01*
X120894108Y-70928256D01*
X120850000Y-70923912D01*
X119150000Y-70923912D01*
X119105892Y-70928256D01*
X119063480Y-70941122D01*
X119024392Y-70962015D01*
X118990132Y-70990132D01*
X118962015Y-71024392D01*
X118941122Y-71063480D01*
X118928256Y-71105892D01*
X118923912Y-71150000D01*
X115321751Y-71150000D01*
X113525873Y-69354122D01*
X118925000Y-69354122D01*
X118925000Y-69565878D01*
X118966312Y-69773566D01*
X119047348Y-69969203D01*
X119164993Y-70145272D01*
X119314728Y-70295007D01*
X119490797Y-70412652D01*
X119686434Y-70493688D01*
X119894122Y-70535000D01*
X120105878Y-70535000D01*
X120313566Y-70493688D01*
X120509203Y-70412652D01*
X120685272Y-70295007D01*
X120835007Y-70145272D01*
X120952652Y-69969203D01*
X121033688Y-69773566D01*
X121075000Y-69565878D01*
X121075000Y-69354122D01*
X122925000Y-69354122D01*
X122925000Y-69565878D01*
X122966312Y-69773566D01*
X123047348Y-69969203D01*
X123164993Y-70145272D01*
X123314728Y-70295007D01*
X123490797Y-70412652D01*
X123686434Y-70493688D01*
X123894122Y-70535000D01*
X124105878Y-70535000D01*
X124313566Y-70493688D01*
X124509203Y-70412652D01*
X124685272Y-70295007D01*
X124835007Y-70145272D01*
X124952652Y-69969203D01*
X125033688Y-69773566D01*
X125075000Y-69565878D01*
X125075000Y-69354122D01*
X125033688Y-69146434D01*
X124952652Y-68950797D01*
X124835007Y-68774728D01*
X124710279Y-68650000D01*
X126923912Y-68650000D01*
X126923912Y-70350000D01*
X126928256Y-70394108D01*
X126941122Y-70436520D01*
X126962015Y-70475608D01*
X126990132Y-70509868D01*
X127024392Y-70537985D01*
X127063480Y-70558878D01*
X127105892Y-70571744D01*
X127150000Y-70576088D01*
X128850000Y-70576088D01*
X128894108Y-70571744D01*
X128936520Y-70558878D01*
X128975608Y-70537985D01*
X129009868Y-70509868D01*
X129037985Y-70475608D01*
X129058878Y-70436520D01*
X129071744Y-70394108D01*
X129076088Y-70350000D01*
X129076088Y-68650000D01*
X129071744Y-68605892D01*
X129058878Y-68563480D01*
X129037985Y-68524392D01*
X129009868Y-68490132D01*
X128975608Y-68462015D01*
X128936520Y-68441122D01*
X128894108Y-68428256D01*
X128850000Y-68423912D01*
X127150000Y-68423912D01*
X127105892Y-68428256D01*
X127063480Y-68441122D01*
X127024392Y-68462015D01*
X126990132Y-68490132D01*
X126962015Y-68524392D01*
X126941122Y-68563480D01*
X126928256Y-68605892D01*
X126923912Y-68650000D01*
X124710279Y-68650000D01*
X124685272Y-68624993D01*
X124509203Y-68507348D01*
X124313566Y-68426312D01*
X124105878Y-68385000D01*
X123894122Y-68385000D01*
X123686434Y-68426312D01*
X123490797Y-68507348D01*
X123314728Y-68624993D01*
X123164993Y-68774728D01*
X123047348Y-68950797D01*
X122966312Y-69146434D01*
X122925000Y-69354122D01*
X121075000Y-69354122D01*
X121033688Y-69146434D01*
X120952652Y-68950797D01*
X120835007Y-68774728D01*
X120685272Y-68624993D01*
X120509203Y-68507348D01*
X120313566Y-68426312D01*
X120105878Y-68385000D01*
X119894122Y-68385000D01*
X119686434Y-68426312D01*
X119490797Y-68507348D01*
X119314728Y-68624993D01*
X119164993Y-68774728D01*
X119047348Y-68950797D01*
X118966312Y-69146434D01*
X118925000Y-69354122D01*
X113525873Y-69354122D01*
X112975000Y-68803250D01*
X112975000Y-59696751D01*
X113176678Y-59495073D01*
X113248681Y-59465249D01*
X113334668Y-59407794D01*
X113407794Y-59334668D01*
X113465249Y-59248681D01*
X113504824Y-59153137D01*
X113525000Y-59051708D01*
X113525000Y-58948292D01*
X113504824Y-58846863D01*
X113465249Y-58751319D01*
X113407794Y-58665332D01*
X113334668Y-58592206D01*
X113248681Y-58534751D01*
X113153137Y-58495176D01*
X113051708Y-58475000D01*
X112948292Y-58475000D01*
X112846863Y-58495176D01*
X112751319Y-58534751D01*
X112665332Y-58592206D01*
X112592206Y-58665332D01*
X112534751Y-58751319D01*
X112504927Y-58823322D01*
X112180633Y-59147617D01*
X112162499Y-59162499D01*
X112103141Y-59234827D01*
X112059034Y-59317347D01*
X112053780Y-59334668D01*
X112031873Y-59406884D01*
X112022702Y-59500000D01*
X112025000Y-59523332D01*
X112025001Y-68976658D01*
X112022702Y-69000000D01*
X112030232Y-69076455D01*
X111915129Y-68999545D01*
X111692193Y-68907202D01*
X111455526Y-68860126D01*
X111214222Y-68860126D01*
X110977555Y-68907202D01*
X110754619Y-68999545D01*
X110553982Y-69133607D01*
X110383355Y-69304234D01*
X110249293Y-69504871D01*
X110156950Y-69727807D01*
X110109874Y-69964474D01*
X109687937Y-69964474D01*
X109811519Y-69840892D01*
X109945581Y-69640255D01*
X110037924Y-69417319D01*
X110085000Y-69180652D01*
X110085000Y-68939348D01*
X110037924Y-68702681D01*
X109945581Y-68479745D01*
X109811519Y-68279108D01*
X109640892Y-68108481D01*
X109440255Y-67974419D01*
X109217319Y-67882076D01*
X108980652Y-67835000D01*
X108739348Y-67835000D01*
X108502681Y-67882076D01*
X108279745Y-67974419D01*
X108079108Y-68108481D01*
X107908481Y-68279108D01*
X107774419Y-68479745D01*
X107682076Y-68702681D01*
X107635000Y-68939348D01*
X106820053Y-68939348D01*
X106742445Y-68907202D01*
X106505778Y-68860126D01*
X106264474Y-68860126D01*
X106027807Y-68907202D01*
X105804871Y-68999545D01*
X105604234Y-69133607D01*
X105433607Y-69304234D01*
X105299545Y-69504871D01*
X105207202Y-69727807D01*
X105160126Y-69964474D01*
X100250000Y-69964474D01*
X100250000Y-63850000D01*
X101873669Y-63850000D01*
X101878979Y-63903910D01*
X101894703Y-63955747D01*
X101920239Y-64003521D01*
X101954604Y-64045396D01*
X101996479Y-64079761D01*
X102044253Y-64105297D01*
X102096090Y-64121021D01*
X102150000Y-64126331D01*
X102906250Y-64125000D01*
X102975000Y-64056250D01*
X102975000Y-63025000D01*
X103025000Y-63025000D01*
X103025000Y-64056250D01*
X103093750Y-64125000D01*
X103850000Y-64126331D01*
X103903910Y-64121021D01*
X103955747Y-64105297D01*
X104003521Y-64079761D01*
X104045396Y-64045396D01*
X104079761Y-64003521D01*
X104105297Y-63955747D01*
X104121021Y-63903910D01*
X104126331Y-63850000D01*
X104125000Y-63093750D01*
X104056250Y-63025000D01*
X103025000Y-63025000D01*
X102975000Y-63025000D01*
X101943750Y-63025000D01*
X101875000Y-63093750D01*
X101873669Y-63850000D01*
X100250000Y-63850000D01*
X100250000Y-62150000D01*
X101873669Y-62150000D01*
X101875000Y-62906250D01*
X101943750Y-62975000D01*
X102975000Y-62975000D01*
X102975000Y-61943750D01*
X103025000Y-61943750D01*
X103025000Y-62975000D01*
X104056250Y-62975000D01*
X104125000Y-62906250D01*
X104126331Y-62150000D01*
X104121021Y-62096090D01*
X104105297Y-62044253D01*
X104079761Y-61996479D01*
X104045396Y-61954604D01*
X104003521Y-61920239D01*
X103955747Y-61894703D01*
X103903910Y-61878979D01*
X103850000Y-61873669D01*
X103093750Y-61875000D01*
X103025000Y-61943750D01*
X102975000Y-61943750D01*
X102906250Y-61875000D01*
X102150000Y-61873669D01*
X102096090Y-61878979D01*
X102044253Y-61894703D01*
X101996479Y-61920239D01*
X101954604Y-61954604D01*
X101920239Y-61996479D01*
X101894703Y-62044253D01*
X101878979Y-62096090D01*
X101873669Y-62150000D01*
X100250000Y-62150000D01*
X100250000Y-57948292D01*
X127975000Y-57948292D01*
X127975000Y-58051708D01*
X127995176Y-58153137D01*
X128025000Y-58225140D01*
X128025001Y-65976658D01*
X128022702Y-66000000D01*
X128031873Y-66093116D01*
X128059035Y-66182654D01*
X128103142Y-66265173D01*
X128162500Y-66337501D01*
X128180629Y-66352379D01*
X130025000Y-68196751D01*
X130025001Y-85976658D01*
X130022702Y-86000000D01*
X130031873Y-86093116D01*
X130059035Y-86182654D01*
X130103142Y-86265173D01*
X130162500Y-86337501D01*
X130180629Y-86352379D01*
X134012500Y-90184252D01*
X134012501Y-93287358D01*
X133982676Y-93359363D01*
X133962500Y-93460792D01*
X133962500Y-93564208D01*
X133982676Y-93665637D01*
X134022251Y-93761181D01*
X134079706Y-93847168D01*
X134152832Y-93920294D01*
X134238819Y-93977749D01*
X134334363Y-94017324D01*
X134435792Y-94037500D01*
X134539208Y-94037500D01*
X134640637Y-94017324D01*
X134736181Y-93977749D01*
X134822168Y-93920294D01*
X134895294Y-93847168D01*
X134952749Y-93761181D01*
X134992324Y-93665637D01*
X135012500Y-93564208D01*
X135012500Y-93460792D01*
X134992324Y-93359363D01*
X134962500Y-93287360D01*
X134962500Y-90010832D01*
X134964798Y-89987500D01*
X134955627Y-89894384D01*
X134928466Y-89804846D01*
X134884359Y-89722327D01*
X134839874Y-89668122D01*
X134825001Y-89649999D01*
X134806877Y-89635125D01*
X130975000Y-85803250D01*
X130975000Y-77894122D01*
X131385000Y-77894122D01*
X131385000Y-78105878D01*
X131426312Y-78313566D01*
X131507348Y-78509203D01*
X131624993Y-78685272D01*
X131774728Y-78835007D01*
X131950797Y-78952652D01*
X132146434Y-79033688D01*
X132354122Y-79075000D01*
X132565878Y-79075000D01*
X132773566Y-79033688D01*
X132969203Y-78952652D01*
X133145272Y-78835007D01*
X133295007Y-78685272D01*
X133412652Y-78509203D01*
X133493688Y-78313566D01*
X133535000Y-78105878D01*
X133535000Y-77894122D01*
X133493688Y-77686434D01*
X133412652Y-77490797D01*
X133295007Y-77314728D01*
X133145272Y-77164993D01*
X133122834Y-77150000D01*
X133923912Y-77150000D01*
X133923912Y-78850000D01*
X133928256Y-78894108D01*
X133941122Y-78936520D01*
X133962015Y-78975608D01*
X133990132Y-79009868D01*
X134024392Y-79037985D01*
X134063480Y-79058878D01*
X134105892Y-79071744D01*
X134150000Y-79076088D01*
X135850000Y-79076088D01*
X135894108Y-79071744D01*
X135936520Y-79058878D01*
X135975608Y-79037985D01*
X136009868Y-79009868D01*
X136037985Y-78975608D01*
X136058878Y-78936520D01*
X136071744Y-78894108D01*
X136076088Y-78850000D01*
X136076088Y-77150000D01*
X136071744Y-77105892D01*
X136058878Y-77063480D01*
X136037985Y-77024392D01*
X136009868Y-76990132D01*
X135975608Y-76962015D01*
X135936520Y-76941122D01*
X135894108Y-76928256D01*
X135850000Y-76923912D01*
X134150000Y-76923912D01*
X134105892Y-76928256D01*
X134063480Y-76941122D01*
X134024392Y-76962015D01*
X133990132Y-76990132D01*
X133962015Y-77024392D01*
X133941122Y-77063480D01*
X133928256Y-77105892D01*
X133923912Y-77150000D01*
X133122834Y-77150000D01*
X132969203Y-77047348D01*
X132773566Y-76966312D01*
X132565878Y-76925000D01*
X132354122Y-76925000D01*
X132146434Y-76966312D01*
X131950797Y-77047348D01*
X131774728Y-77164993D01*
X131624993Y-77314728D01*
X131507348Y-77490797D01*
X131426312Y-77686434D01*
X131385000Y-77894122D01*
X130975000Y-77894122D01*
X130975000Y-70150000D01*
X144923912Y-70150000D01*
X144923912Y-71850000D01*
X144928256Y-71894108D01*
X144941122Y-71936520D01*
X144962015Y-71975608D01*
X144990132Y-72009868D01*
X145024392Y-72037985D01*
X145063480Y-72058878D01*
X145105892Y-72071744D01*
X145150000Y-72076088D01*
X146850000Y-72076088D01*
X146894108Y-72071744D01*
X146936520Y-72058878D01*
X146975608Y-72037985D01*
X147009868Y-72009868D01*
X147037985Y-71975608D01*
X147058878Y-71936520D01*
X147071744Y-71894108D01*
X147076088Y-71850000D01*
X147076088Y-70150000D01*
X147071744Y-70105892D01*
X147058878Y-70063480D01*
X147037985Y-70024392D01*
X147009868Y-69990132D01*
X146975608Y-69962015D01*
X146936520Y-69941122D01*
X146894108Y-69928256D01*
X146850000Y-69923912D01*
X145150000Y-69923912D01*
X145105892Y-69928256D01*
X145063480Y-69941122D01*
X145024392Y-69962015D01*
X144990132Y-69990132D01*
X144962015Y-70024392D01*
X144941122Y-70063480D01*
X144928256Y-70105892D01*
X144923912Y-70150000D01*
X130975000Y-70150000D01*
X130975000Y-68023331D01*
X130977298Y-67999999D01*
X130968127Y-67906883D01*
X130946321Y-67835000D01*
X130940966Y-67817346D01*
X130896859Y-67734827D01*
X130837501Y-67662499D01*
X130819372Y-67647621D01*
X130620043Y-67448292D01*
X155475000Y-67448292D01*
X155475000Y-67551708D01*
X155495176Y-67653137D01*
X155534751Y-67748681D01*
X155592206Y-67834668D01*
X155665332Y-67907794D01*
X155751319Y-67965249D01*
X155823323Y-67995073D01*
X156025000Y-68196751D01*
X156025001Y-84803248D01*
X155680633Y-85147617D01*
X155662499Y-85162499D01*
X155603141Y-85234827D01*
X155559034Y-85317347D01*
X155540112Y-85379723D01*
X155531873Y-85406884D01*
X155522702Y-85500000D01*
X155525000Y-85523332D01*
X155525001Y-95274858D01*
X155495176Y-95346863D01*
X155475000Y-95448292D01*
X155475000Y-95551708D01*
X155495176Y-95653137D01*
X155534751Y-95748681D01*
X155592206Y-95834668D01*
X155665332Y-95907794D01*
X155751319Y-95965249D01*
X155846863Y-96004824D01*
X155948292Y-96025000D01*
X156051708Y-96025000D01*
X156153137Y-96004824D01*
X156248681Y-95965249D01*
X156334668Y-95907794D01*
X156407794Y-95834668D01*
X156465249Y-95748681D01*
X156504824Y-95653137D01*
X156525000Y-95551708D01*
X156525000Y-95448292D01*
X156504824Y-95346863D01*
X156475000Y-95274860D01*
X156475000Y-86650000D01*
X156923912Y-86650000D01*
X156923912Y-88350000D01*
X156928256Y-88394108D01*
X156941122Y-88436520D01*
X156962015Y-88475608D01*
X156990132Y-88509868D01*
X157024392Y-88537985D01*
X157063480Y-88558878D01*
X157105892Y-88571744D01*
X157150000Y-88576088D01*
X158850000Y-88576088D01*
X158894108Y-88571744D01*
X158936520Y-88558878D01*
X158975608Y-88537985D01*
X159009868Y-88509868D01*
X159037985Y-88475608D01*
X159058878Y-88436520D01*
X159071744Y-88394108D01*
X159076088Y-88350000D01*
X159076088Y-86650000D01*
X159071744Y-86605892D01*
X159058878Y-86563480D01*
X159037985Y-86524392D01*
X159009868Y-86490132D01*
X158975608Y-86462015D01*
X158936520Y-86441122D01*
X158894108Y-86428256D01*
X158850000Y-86423912D01*
X157150000Y-86423912D01*
X157105892Y-86428256D01*
X157063480Y-86441122D01*
X157024392Y-86462015D01*
X156990132Y-86490132D01*
X156962015Y-86524392D01*
X156941122Y-86563480D01*
X156928256Y-86605892D01*
X156923912Y-86650000D01*
X156475000Y-86650000D01*
X156475000Y-85696751D01*
X156819376Y-85352375D01*
X156837501Y-85337501D01*
X156896859Y-85265173D01*
X156925602Y-85211398D01*
X156940966Y-85182655D01*
X156968127Y-85093116D01*
X156977298Y-85000000D01*
X156975000Y-84976668D01*
X156975000Y-68023332D01*
X156977298Y-68000000D01*
X156968127Y-67906884D01*
X156940966Y-67817345D01*
X156925602Y-67788602D01*
X156896859Y-67734827D01*
X156837501Y-67662499D01*
X156819376Y-67647625D01*
X156495073Y-67323323D01*
X156465249Y-67251319D01*
X156407794Y-67165332D01*
X156334668Y-67092206D01*
X156248681Y-67034751D01*
X156153137Y-66995176D01*
X156051708Y-66975000D01*
X155948292Y-66975000D01*
X155846863Y-66995176D01*
X155751319Y-67034751D01*
X155665332Y-67092206D01*
X155592206Y-67165332D01*
X155534751Y-67251319D01*
X155495176Y-67346863D01*
X155475000Y-67448292D01*
X130620043Y-67448292D01*
X128975000Y-65803250D01*
X128975000Y-58225140D01*
X129004824Y-58153137D01*
X129025000Y-58051708D01*
X129025000Y-57948292D01*
X129004824Y-57846863D01*
X128965249Y-57751319D01*
X128907794Y-57665332D01*
X128834668Y-57592206D01*
X128748681Y-57534751D01*
X128653137Y-57495176D01*
X128551708Y-57475000D01*
X128448292Y-57475000D01*
X128346863Y-57495176D01*
X128251319Y-57534751D01*
X128165332Y-57592206D01*
X128092206Y-57665332D01*
X128034751Y-57751319D01*
X127995176Y-57846863D01*
X127975000Y-57948292D01*
X100250000Y-57948292D01*
X100250000Y-55011131D01*
X100326049Y-54159022D01*
X100548842Y-53344629D01*
X100912330Y-52582560D01*
X101405025Y-51896902D01*
X102011352Y-51309330D01*
X102712146Y-50838416D01*
X103485265Y-50499040D01*
X104308170Y-50301478D01*
X105009173Y-50250000D01*
X207988869Y-50250000D01*
X208840978Y-50326049D01*
%TA.AperFunction,Conductor*%
D25*
G36*
X208840978Y-50326049D02*
G01*
X209655371Y-50548842D01*
X210417440Y-50912330D01*
X211103098Y-51405025D01*
X211690670Y-52011352D01*
X212161584Y-52712146D01*
X212500960Y-53485265D01*
X212698522Y-54308170D01*
X212750001Y-55009186D01*
X212750001Y-74499550D01*
X212739819Y-75925000D01*
X206500000Y-75925000D01*
X206485368Y-75926441D01*
X206471299Y-75930709D01*
X206458332Y-75937640D01*
X206446967Y-75946967D01*
X206437640Y-75958332D01*
X206430709Y-75971299D01*
X206426441Y-75985368D01*
X206425000Y-76000000D01*
X206425000Y-94000000D01*
X206426441Y-94014632D01*
X206430709Y-94028701D01*
X206437640Y-94041668D01*
X206446967Y-94053033D01*
X206458332Y-94062360D01*
X206471299Y-94069291D01*
X206485368Y-94073559D01*
X206500000Y-94075000D01*
X212610176Y-94075000D01*
X212448854Y-116660203D01*
X212087670Y-117417440D01*
X211594975Y-118103098D01*
X210988645Y-118690673D01*
X210287849Y-119161587D01*
X209514740Y-119500958D01*
X208691831Y-119698522D01*
X207990828Y-119750000D01*
X173125082Y-119750000D01*
X103320727Y-119439758D01*
X102582560Y-119087670D01*
X101896902Y-118594975D01*
X101309327Y-117988645D01*
X100838413Y-117287849D01*
X100593597Y-116730142D01*
X127470000Y-116730142D01*
X127470000Y-117009858D01*
X127524570Y-117284199D01*
X127631612Y-117542622D01*
X127787014Y-117775197D01*
X127984803Y-117972986D01*
X128217378Y-118128388D01*
X128475801Y-118235430D01*
X128750142Y-118290000D01*
X129029858Y-118290000D01*
X129304199Y-118235430D01*
X129562622Y-118128388D01*
X129795197Y-117972986D01*
X129992986Y-117775197D01*
X130148388Y-117542622D01*
X130255430Y-117284199D01*
X130310000Y-117009858D01*
X130310000Y-116730142D01*
X130255430Y-116455801D01*
X130148388Y-116197378D01*
X129992986Y-115964803D01*
X129795197Y-115767014D01*
X129562622Y-115611612D01*
X129304199Y-115504570D01*
X129029858Y-115450000D01*
X128750142Y-115450000D01*
X128475801Y-115504570D01*
X128217378Y-115611612D01*
X127984803Y-115767014D01*
X127787014Y-115964803D01*
X127631612Y-116197378D01*
X127524570Y-116455801D01*
X127470000Y-116730142D01*
X100593597Y-116730142D01*
X100499042Y-116514740D01*
X100301478Y-115691831D01*
X100250000Y-114990828D01*
X100250000Y-108975000D01*
X120048912Y-108975000D01*
X120048912Y-111425000D01*
X120053256Y-111469108D01*
X120066122Y-111511520D01*
X120087015Y-111550608D01*
X120115132Y-111584868D01*
X120149392Y-111612985D01*
X120188480Y-111633878D01*
X120230892Y-111646744D01*
X120275000Y-111651088D01*
X122725000Y-111651088D01*
X122769108Y-111646744D01*
X122811520Y-111633878D01*
X122850608Y-111612985D01*
X122884868Y-111584868D01*
X122912985Y-111550608D01*
X122933878Y-111511520D01*
X122946744Y-111469108D01*
X122951088Y-111425000D01*
X122951088Y-108975000D01*
X122946744Y-108930892D01*
X122933878Y-108888480D01*
X122929524Y-108880333D01*
X127675000Y-108880333D01*
X127675000Y-109119667D01*
X127721692Y-109354402D01*
X127813281Y-109575518D01*
X127946248Y-109774517D01*
X128115483Y-109943752D01*
X128314482Y-110076719D01*
X128535598Y-110168308D01*
X128770333Y-110215000D01*
X129009667Y-110215000D01*
X129244402Y-110168308D01*
X129465518Y-110076719D01*
X129664517Y-109943752D01*
X129833752Y-109774517D01*
X129966719Y-109575518D01*
X130058308Y-109354402D01*
X130105000Y-109119667D01*
X130105000Y-108880333D01*
X130058308Y-108645598D01*
X129966719Y-108424482D01*
X129833752Y-108225483D01*
X129664517Y-108056248D01*
X129465518Y-107923281D01*
X129244402Y-107831692D01*
X129009667Y-107785000D01*
X128770333Y-107785000D01*
X128535598Y-107831692D01*
X128314482Y-107923281D01*
X128115483Y-108056248D01*
X127946248Y-108225483D01*
X127813281Y-108424482D01*
X127721692Y-108645598D01*
X127675000Y-108880333D01*
X122929524Y-108880333D01*
X122912985Y-108849392D01*
X122884868Y-108815132D01*
X122850608Y-108787015D01*
X122811520Y-108766122D01*
X122769108Y-108753256D01*
X122725000Y-108748912D01*
X120275000Y-108748912D01*
X120230892Y-108753256D01*
X120188480Y-108766122D01*
X120149392Y-108787015D01*
X120115132Y-108815132D01*
X120087015Y-108849392D01*
X120066122Y-108888480D01*
X120053256Y-108930892D01*
X120048912Y-108975000D01*
X100250000Y-108975000D01*
X100250000Y-106850000D01*
X103373669Y-106850000D01*
X103378979Y-106903910D01*
X103394703Y-106955747D01*
X103420239Y-107003521D01*
X103454604Y-107045396D01*
X103496479Y-107079761D01*
X103544253Y-107105297D01*
X103596090Y-107121021D01*
X103650000Y-107126331D01*
X104406250Y-107125000D01*
X104475000Y-107056250D01*
X104475000Y-106025000D01*
X104525000Y-106025000D01*
X104525000Y-107056250D01*
X104593750Y-107125000D01*
X105350000Y-107126331D01*
X105403910Y-107121021D01*
X105455747Y-107105297D01*
X105503521Y-107079761D01*
X105545396Y-107045396D01*
X105579761Y-107003521D01*
X105605297Y-106955747D01*
X105621021Y-106903910D01*
X105626331Y-106850000D01*
X105625000Y-106093750D01*
X105556250Y-106025000D01*
X104525000Y-106025000D01*
X104475000Y-106025000D01*
X103443750Y-106025000D01*
X103375000Y-106093750D01*
X103373669Y-106850000D01*
X100250000Y-106850000D01*
X100250000Y-105150000D01*
X103373669Y-105150000D01*
X103375000Y-105906250D01*
X103443750Y-105975000D01*
X104475000Y-105975000D01*
X104475000Y-104943750D01*
X104525000Y-104943750D01*
X104525000Y-105975000D01*
X105556250Y-105975000D01*
X105625000Y-105906250D01*
X105625966Y-105357187D01*
X120050000Y-105357187D01*
X120050000Y-105642813D01*
X120105723Y-105922949D01*
X120215027Y-106186833D01*
X120373711Y-106424321D01*
X120575679Y-106626289D01*
X120813167Y-106784973D01*
X121077051Y-106894277D01*
X121357187Y-106950000D01*
X121642813Y-106950000D01*
X121922949Y-106894277D01*
X122186833Y-106784973D01*
X122424321Y-106626289D01*
X122626289Y-106424321D01*
X122784973Y-106186833D01*
X122894277Y-105922949D01*
X122950000Y-105642813D01*
X122950000Y-105357187D01*
X122894277Y-105077051D01*
X122784973Y-104813167D01*
X122626289Y-104575679D01*
X122424321Y-104373711D01*
X122186833Y-104215027D01*
X121922949Y-104105723D01*
X121642813Y-104050000D01*
X121357187Y-104050000D01*
X121077051Y-104105723D01*
X120813167Y-104215027D01*
X120575679Y-104373711D01*
X120373711Y-104575679D01*
X120215027Y-104813167D01*
X120105723Y-105077051D01*
X120050000Y-105357187D01*
X105625966Y-105357187D01*
X105626331Y-105150000D01*
X105621021Y-105096090D01*
X105605297Y-105044253D01*
X105579761Y-104996479D01*
X105545396Y-104954604D01*
X105503521Y-104920239D01*
X105455747Y-104894703D01*
X105403910Y-104878979D01*
X105350000Y-104873669D01*
X104593750Y-104875000D01*
X104525000Y-104943750D01*
X104475000Y-104943750D01*
X104406250Y-104875000D01*
X103650000Y-104873669D01*
X103596090Y-104878979D01*
X103544253Y-104894703D01*
X103496479Y-104920239D01*
X103454604Y-104954604D01*
X103420239Y-104996479D01*
X103394703Y-105044253D01*
X103378979Y-105096090D01*
X103373669Y-105150000D01*
X100250000Y-105150000D01*
X100250000Y-99954916D01*
X106230000Y-99954916D01*
X106230000Y-100205084D01*
X106278805Y-100450445D01*
X106374541Y-100681571D01*
X106513527Y-100889578D01*
X106690422Y-101066473D01*
X106898429Y-101205459D01*
X107129555Y-101301195D01*
X107374916Y-101350000D01*
X107625084Y-101350000D01*
X107870445Y-101301195D01*
X108101571Y-101205459D01*
X108309578Y-101066473D01*
X108486473Y-100889578D01*
X108625459Y-100681571D01*
X108635559Y-100657187D01*
X120050000Y-100657187D01*
X120050000Y-100942813D01*
X120105723Y-101222949D01*
X120215027Y-101486833D01*
X120373711Y-101724321D01*
X120575679Y-101926289D01*
X120813167Y-102084973D01*
X121077051Y-102194277D01*
X121357187Y-102250000D01*
X121642813Y-102250000D01*
X121922949Y-102194277D01*
X122186833Y-102084973D01*
X122424321Y-101926289D01*
X122626289Y-101724321D01*
X122784973Y-101486833D01*
X122894277Y-101222949D01*
X122950000Y-100942813D01*
X122950000Y-100657187D01*
X122894277Y-100377051D01*
X122784973Y-100113167D01*
X122626289Y-99875679D01*
X122424321Y-99673711D01*
X122186833Y-99515027D01*
X121922949Y-99405723D01*
X121642813Y-99350000D01*
X121357187Y-99350000D01*
X121077051Y-99405723D01*
X120813167Y-99515027D01*
X120575679Y-99673711D01*
X120373711Y-99875679D01*
X120215027Y-100113167D01*
X120105723Y-100377051D01*
X120050000Y-100657187D01*
X108635559Y-100657187D01*
X108721195Y-100450445D01*
X108770000Y-100205084D01*
X108770000Y-99954916D01*
X108721195Y-99709555D01*
X108625459Y-99478429D01*
X108486473Y-99270422D01*
X108309578Y-99093527D01*
X108101571Y-98954541D01*
X107870445Y-98858805D01*
X107625084Y-98810000D01*
X107374916Y-98810000D01*
X107129555Y-98858805D01*
X106898429Y-98954541D01*
X106690422Y-99093527D01*
X106513527Y-99270422D01*
X106374541Y-99478429D01*
X106278805Y-99709555D01*
X106230000Y-99954916D01*
X100250000Y-99954916D01*
X100250000Y-94261000D01*
X111614912Y-94261000D01*
X111614912Y-95739000D01*
X111619256Y-95783108D01*
X111632122Y-95825520D01*
X111653015Y-95864608D01*
X111681132Y-95898868D01*
X111715392Y-95926985D01*
X111754480Y-95947878D01*
X111796892Y-95960744D01*
X111841000Y-95965088D01*
X113319000Y-95965088D01*
X113363108Y-95960744D01*
X113405520Y-95947878D01*
X113444608Y-95926985D01*
X113478868Y-95898868D01*
X113506985Y-95864608D01*
X113527878Y-95825520D01*
X113540744Y-95783108D01*
X113545088Y-95739000D01*
X113545088Y-94261000D01*
X113540744Y-94216892D01*
X113527878Y-94174480D01*
X113506985Y-94135392D01*
X113478868Y-94101132D01*
X113444608Y-94073015D01*
X113405520Y-94052122D01*
X113363108Y-94039256D01*
X113319000Y-94034912D01*
X111841000Y-94034912D01*
X111796892Y-94039256D01*
X111754480Y-94052122D01*
X111715392Y-94073015D01*
X111681132Y-94101132D01*
X111653015Y-94135392D01*
X111632122Y-94174480D01*
X111619256Y-94216892D01*
X111614912Y-94261000D01*
X100250000Y-94261000D01*
X100250000Y-93149307D01*
X111926049Y-93149307D01*
X112001508Y-93298758D01*
X112176258Y-93395499D01*
X112366522Y-93456290D01*
X112564991Y-93478794D01*
X112764036Y-93462146D01*
X112956009Y-93406986D01*
X113133532Y-93315434D01*
X113158492Y-93298758D01*
X113233951Y-93149307D01*
X112580000Y-92495355D01*
X111926049Y-93149307D01*
X100250000Y-93149307D01*
X100250000Y-92444991D01*
X111561206Y-92444991D01*
X111577854Y-92644036D01*
X111633014Y-92836009D01*
X111724566Y-93013532D01*
X111741242Y-93038492D01*
X111890693Y-93113951D01*
X112544645Y-92460000D01*
X112615355Y-92460000D01*
X113269307Y-93113951D01*
X113418758Y-93038492D01*
X113515499Y-92863742D01*
X113576290Y-92673478D01*
X113598794Y-92475009D01*
X113582146Y-92275964D01*
X113526986Y-92083991D01*
X113435434Y-91906468D01*
X113418758Y-91881508D01*
X113269307Y-91806049D01*
X112615355Y-92460000D01*
X112544645Y-92460000D01*
X111890693Y-91806049D01*
X111741242Y-91881508D01*
X111644501Y-92056258D01*
X111583710Y-92246522D01*
X111561206Y-92444991D01*
X100250000Y-92444991D01*
X100250000Y-91770693D01*
X111926049Y-91770693D01*
X112580000Y-92424645D01*
X113233951Y-91770693D01*
X113158492Y-91621242D01*
X112983742Y-91524501D01*
X112793478Y-91463710D01*
X112595009Y-91441206D01*
X112395964Y-91457854D01*
X112203991Y-91513014D01*
X112026468Y-91604566D01*
X112001508Y-91621242D01*
X111926049Y-91770693D01*
X100250000Y-91770693D01*
X100250000Y-89794916D01*
X106230000Y-89794916D01*
X106230000Y-90045084D01*
X106278805Y-90290445D01*
X106374541Y-90521571D01*
X106513527Y-90729578D01*
X106690422Y-90906473D01*
X106898429Y-91045459D01*
X107129555Y-91141195D01*
X107374916Y-91190000D01*
X107625084Y-91190000D01*
X107870445Y-91141195D01*
X108101571Y-91045459D01*
X108309578Y-90906473D01*
X108486473Y-90729578D01*
X108625459Y-90521571D01*
X108721195Y-90290445D01*
X108770000Y-90045084D01*
X108770000Y-89794916D01*
X108721195Y-89549555D01*
X108625459Y-89318429D01*
X108486473Y-89110422D01*
X108309578Y-88933527D01*
X108101571Y-88794541D01*
X107870445Y-88698805D01*
X107625084Y-88650000D01*
X107374916Y-88650000D01*
X107129555Y-88698805D01*
X106898429Y-88794541D01*
X106690422Y-88933527D01*
X106513527Y-89110422D01*
X106374541Y-89318429D01*
X106278805Y-89549555D01*
X106230000Y-89794916D01*
X100250000Y-89794916D01*
X100250000Y-75939348D01*
X107635000Y-75939348D01*
X107635000Y-76180652D01*
X107682076Y-76417319D01*
X107774419Y-76640255D01*
X107908481Y-76840892D01*
X108079108Y-77011519D01*
X108279745Y-77145581D01*
X108502681Y-77237924D01*
X108739348Y-77285000D01*
X108980652Y-77285000D01*
X109217319Y-77237924D01*
X109440255Y-77145581D01*
X109640892Y-77011519D01*
X109811519Y-76840892D01*
X109945581Y-76640255D01*
X110037924Y-76417319D01*
X110085000Y-76180652D01*
X110085000Y-75939348D01*
X110037924Y-75702681D01*
X109945581Y-75479745D01*
X109811519Y-75279108D01*
X109640892Y-75108481D01*
X109440255Y-74974419D01*
X109294927Y-74914222D01*
X110109874Y-74914222D01*
X110109874Y-75155526D01*
X110156950Y-75392193D01*
X110249293Y-75615129D01*
X110383355Y-75815766D01*
X110553982Y-75986393D01*
X110754619Y-76120455D01*
X110977555Y-76212798D01*
X111214222Y-76259874D01*
X111455526Y-76259874D01*
X111692193Y-76212798D01*
X111915129Y-76120455D01*
X112115766Y-75986393D01*
X112286393Y-75815766D01*
X112420455Y-75615129D01*
X112512798Y-75392193D01*
X112559874Y-75155526D01*
X112559874Y-74914222D01*
X112512798Y-74677555D01*
X112420455Y-74454619D01*
X112286393Y-74253982D01*
X112115766Y-74083355D01*
X111915129Y-73949293D01*
X111692193Y-73856950D01*
X111455526Y-73809874D01*
X111214222Y-73809874D01*
X110977555Y-73856950D01*
X110754619Y-73949293D01*
X110553982Y-74083355D01*
X110383355Y-74253982D01*
X110249293Y-74454619D01*
X110156950Y-74677555D01*
X110109874Y-74914222D01*
X109294927Y-74914222D01*
X109217319Y-74882076D01*
X108980652Y-74835000D01*
X108739348Y-74835000D01*
X108502681Y-74882076D01*
X108279745Y-74974419D01*
X108079108Y-75108481D01*
X107908481Y-75279108D01*
X107774419Y-75479745D01*
X107682076Y-75702681D01*
X107635000Y-75939348D01*
X100250000Y-75939348D01*
X100250000Y-72439348D01*
X104135000Y-72439348D01*
X104135000Y-72680652D01*
X104182076Y-72917319D01*
X104274419Y-73140255D01*
X104408481Y-73340892D01*
X104579108Y-73511519D01*
X104779745Y-73645581D01*
X105002681Y-73737924D01*
X105239348Y-73785000D01*
X105480652Y-73785000D01*
X105717319Y-73737924D01*
X105940255Y-73645581D01*
X106140892Y-73511519D01*
X106311519Y-73340892D01*
X106445581Y-73140255D01*
X106501591Y-73005033D01*
X107069315Y-73005033D01*
X107069315Y-73246337D01*
X107116391Y-73483004D01*
X107208734Y-73705940D01*
X107342796Y-73906577D01*
X107513423Y-74077204D01*
X107714060Y-74211266D01*
X107936996Y-74303609D01*
X108173663Y-74350685D01*
X108414967Y-74350685D01*
X108651634Y-74303609D01*
X108874570Y-74211266D01*
X109075207Y-74077204D01*
X109245834Y-73906577D01*
X109379896Y-73705940D01*
X109472239Y-73483004D01*
X109519315Y-73246337D01*
X109519315Y-73005033D01*
X109472239Y-72768366D01*
X109379896Y-72545430D01*
X109309014Y-72439348D01*
X111135000Y-72439348D01*
X111135000Y-72680652D01*
X111182076Y-72917319D01*
X111274419Y-73140255D01*
X111408481Y-73340892D01*
X111579108Y-73511519D01*
X111779745Y-73645581D01*
X112002681Y-73737924D01*
X112239348Y-73785000D01*
X112480652Y-73785000D01*
X112717319Y-73737924D01*
X112940255Y-73645581D01*
X113140892Y-73511519D01*
X113311519Y-73340892D01*
X113445581Y-73140255D01*
X113537924Y-72917319D01*
X113585000Y-72680652D01*
X113585000Y-72439348D01*
X113537924Y-72202681D01*
X113445581Y-71979745D01*
X113311519Y-71779108D01*
X113140892Y-71608481D01*
X112940255Y-71474419D01*
X112717319Y-71382076D01*
X112480652Y-71335000D01*
X112239348Y-71335000D01*
X112002681Y-71382076D01*
X111779745Y-71474419D01*
X111579108Y-71608481D01*
X111408481Y-71779108D01*
X111274419Y-71979745D01*
X111182076Y-72202681D01*
X111135000Y-72439348D01*
X109309014Y-72439348D01*
X109245834Y-72344793D01*
X109075207Y-72174166D01*
X108874570Y-72040104D01*
X108651634Y-71947761D01*
X108414967Y-71900685D01*
X108173663Y-71900685D01*
X107936996Y-71947761D01*
X107714060Y-72040104D01*
X107513423Y-72174166D01*
X107342796Y-72344793D01*
X107208734Y-72545430D01*
X107116391Y-72768366D01*
X107069315Y-73005033D01*
X106501591Y-73005033D01*
X106537924Y-72917319D01*
X106585000Y-72680652D01*
X106585000Y-72439348D01*
X106537924Y-72202681D01*
X106445581Y-71979745D01*
X106311519Y-71779108D01*
X106140892Y-71608481D01*
X105940255Y-71474419D01*
X105717319Y-71382076D01*
X105480652Y-71335000D01*
X105239348Y-71335000D01*
X105002681Y-71382076D01*
X104779745Y-71474419D01*
X104579108Y-71608481D01*
X104408481Y-71779108D01*
X104274419Y-71979745D01*
X104182076Y-72202681D01*
X104135000Y-72439348D01*
X100250000Y-72439348D01*
X100250000Y-69964474D01*
X105160126Y-69964474D01*
X105160126Y-70205778D01*
X105207202Y-70442445D01*
X105299545Y-70665381D01*
X105433607Y-70866018D01*
X105604234Y-71036645D01*
X105804871Y-71170707D01*
X106027807Y-71263050D01*
X106264474Y-71310126D01*
X106505778Y-71310126D01*
X106742445Y-71263050D01*
X106965381Y-71170707D01*
X107166018Y-71036645D01*
X107336645Y-70866018D01*
X107470707Y-70665381D01*
X107563050Y-70442445D01*
X107610126Y-70205778D01*
X107610126Y-69964474D01*
X107563050Y-69727807D01*
X107470707Y-69504871D01*
X107336645Y-69304234D01*
X107166018Y-69133607D01*
X106965381Y-68999545D01*
X106820053Y-68939348D01*
X107635000Y-68939348D01*
X107635000Y-69180652D01*
X107682076Y-69417319D01*
X107774419Y-69640255D01*
X107908481Y-69840892D01*
X108079108Y-70011519D01*
X108279745Y-70145581D01*
X108502681Y-70237924D01*
X108739348Y-70285000D01*
X108980652Y-70285000D01*
X109217319Y-70237924D01*
X109440255Y-70145581D01*
X109640892Y-70011519D01*
X109687937Y-69964474D01*
X110109874Y-69964474D01*
X110109874Y-70205778D01*
X110156950Y-70442445D01*
X110249293Y-70665381D01*
X110383355Y-70866018D01*
X110553982Y-71036645D01*
X110754619Y-71170707D01*
X110977555Y-71263050D01*
X111214222Y-71310126D01*
X111455526Y-71310126D01*
X111692193Y-71263050D01*
X111915129Y-71170707D01*
X112115766Y-71036645D01*
X112286393Y-70866018D01*
X112420455Y-70665381D01*
X112512798Y-70442445D01*
X112559874Y-70205778D01*
X112559874Y-69964474D01*
X112512798Y-69727807D01*
X112482209Y-69653959D01*
X118025000Y-75196751D01*
X118025001Y-89274858D01*
X117995176Y-89346863D01*
X117975000Y-89448292D01*
X117975000Y-89551708D01*
X117995176Y-89653137D01*
X118034751Y-89748681D01*
X118092206Y-89834668D01*
X118165332Y-89907794D01*
X118251319Y-89965249D01*
X118346863Y-90004824D01*
X118448292Y-90025000D01*
X118551708Y-90025000D01*
X118653137Y-90004824D01*
X118748681Y-89965249D01*
X118834668Y-89907794D01*
X118907794Y-89834668D01*
X118965249Y-89748681D01*
X118986120Y-89698292D01*
X131975000Y-89698292D01*
X131975000Y-89801708D01*
X131995176Y-89903137D01*
X132025001Y-89975142D01*
X132025000Y-118274860D01*
X131995176Y-118346863D01*
X131975000Y-118448292D01*
X131975000Y-118551708D01*
X131995176Y-118653137D01*
X132034751Y-118748681D01*
X132092206Y-118834668D01*
X132165332Y-118907794D01*
X132251319Y-118965249D01*
X132346863Y-119004824D01*
X132448292Y-119025000D01*
X132551708Y-119025000D01*
X132653137Y-119004824D01*
X132748681Y-118965249D01*
X132834668Y-118907794D01*
X132907794Y-118834668D01*
X132965249Y-118748681D01*
X133004824Y-118653137D01*
X133025000Y-118551708D01*
X133025000Y-118448292D01*
X133004824Y-118346863D01*
X132975000Y-118274860D01*
X132975000Y-100933017D01*
X135270000Y-100933017D01*
X135270000Y-101326983D01*
X135346859Y-101713378D01*
X135497623Y-102077355D01*
X135716499Y-102404926D01*
X135995074Y-102683501D01*
X136322645Y-102902377D01*
X136686622Y-103053141D01*
X137073017Y-103130000D01*
X137466983Y-103130000D01*
X137853378Y-103053141D01*
X138217355Y-102902377D01*
X138544926Y-102683501D01*
X138823501Y-102404926D01*
X139042377Y-102077355D01*
X139193141Y-101713378D01*
X139270000Y-101326983D01*
X139270000Y-100933017D01*
X139193141Y-100546622D01*
X139042377Y-100182645D01*
X138823501Y-99855074D01*
X138544926Y-99576499D01*
X138217355Y-99357623D01*
X137853378Y-99206859D01*
X137466983Y-99130000D01*
X137073017Y-99130000D01*
X136686622Y-99206859D01*
X136322645Y-99357623D01*
X135995074Y-99576499D01*
X135716499Y-99855074D01*
X135497623Y-100182645D01*
X135346859Y-100546622D01*
X135270000Y-100933017D01*
X132975000Y-100933017D01*
X132975000Y-94600000D01*
X143423912Y-94600000D01*
X143423912Y-96300000D01*
X143428256Y-96344108D01*
X143441122Y-96386520D01*
X143462015Y-96425608D01*
X143490132Y-96459868D01*
X143524392Y-96487985D01*
X143563480Y-96508878D01*
X143605892Y-96521744D01*
X143650000Y-96526088D01*
X143975001Y-96526088D01*
X143975001Y-114426658D01*
X143972702Y-114450000D01*
X143981873Y-114543116D01*
X144009035Y-114632654D01*
X144053142Y-114715173D01*
X144112500Y-114787501D01*
X144130629Y-114802379D01*
X146048766Y-116720518D01*
X146032676Y-116759363D01*
X146012500Y-116860792D01*
X146012500Y-116964208D01*
X146032676Y-117065637D01*
X146062500Y-117137641D01*
X146062501Y-117312359D01*
X146032676Y-117384363D01*
X146012500Y-117485792D01*
X146012500Y-117589208D01*
X146032676Y-117690637D01*
X146072251Y-117786181D01*
X146129706Y-117872168D01*
X146202832Y-117945294D01*
X146288819Y-118002749D01*
X146384363Y-118042324D01*
X146485792Y-118062500D01*
X146589208Y-118062500D01*
X146690637Y-118042324D01*
X146786181Y-118002749D01*
X146872168Y-117945294D01*
X146945294Y-117872168D01*
X147002749Y-117786181D01*
X147042324Y-117690637D01*
X147062500Y-117589208D01*
X147062500Y-117485792D01*
X147042948Y-117387500D01*
X150764168Y-117387500D01*
X150787500Y-117389798D01*
X150810832Y-117387500D01*
X155564168Y-117387500D01*
X155587500Y-117389798D01*
X155610832Y-117387500D01*
X155680616Y-117380627D01*
X155770154Y-117353466D01*
X155852673Y-117309359D01*
X155925001Y-117250001D01*
X155939884Y-117231866D01*
X156498733Y-116673017D01*
X190470000Y-116673017D01*
X190470000Y-117066983D01*
X190546859Y-117453378D01*
X190697623Y-117817355D01*
X190916499Y-118144926D01*
X191195074Y-118423501D01*
X191522645Y-118642377D01*
X191886622Y-118793141D01*
X192273017Y-118870000D01*
X192666983Y-118870000D01*
X193053378Y-118793141D01*
X193417355Y-118642377D01*
X193744926Y-118423501D01*
X194023501Y-118144926D01*
X194242377Y-117817355D01*
X194393141Y-117453378D01*
X194470000Y-117066983D01*
X194470000Y-116894122D01*
X197115000Y-116894122D01*
X197115000Y-117105878D01*
X197156312Y-117313566D01*
X197237348Y-117509203D01*
X197354993Y-117685272D01*
X197504728Y-117835007D01*
X197680797Y-117952652D01*
X197876434Y-118033688D01*
X198084122Y-118075000D01*
X198295878Y-118075000D01*
X198503566Y-118033688D01*
X198699203Y-117952652D01*
X198875272Y-117835007D01*
X199025007Y-117685272D01*
X199142652Y-117509203D01*
X199223688Y-117313566D01*
X199265000Y-117105878D01*
X199265000Y-116894122D01*
X199223688Y-116686434D01*
X199142652Y-116490797D01*
X199025007Y-116314728D01*
X198875272Y-116164993D01*
X198699203Y-116047348D01*
X198503566Y-115966312D01*
X198295878Y-115925000D01*
X198084122Y-115925000D01*
X197876434Y-115966312D01*
X197680797Y-116047348D01*
X197504728Y-116164993D01*
X197354993Y-116314728D01*
X197237348Y-116490797D01*
X197156312Y-116686434D01*
X197115000Y-116894122D01*
X194470000Y-116894122D01*
X194470000Y-116673017D01*
X194393141Y-116286622D01*
X194242377Y-115922645D01*
X194023501Y-115595074D01*
X193744926Y-115316499D01*
X193417355Y-115097623D01*
X193053378Y-114946859D01*
X192666983Y-114870000D01*
X192273017Y-114870000D01*
X191886622Y-114946859D01*
X191522645Y-115097623D01*
X191195074Y-115316499D01*
X190916499Y-115595074D01*
X190697623Y-115922645D01*
X190546859Y-116286622D01*
X190470000Y-116673017D01*
X156498733Y-116673017D01*
X159561750Y-113610000D01*
X197113912Y-113610000D01*
X197113912Y-115310000D01*
X197118256Y-115354108D01*
X197131122Y-115396520D01*
X197152015Y-115435608D01*
X197180132Y-115469868D01*
X197214392Y-115497985D01*
X197253480Y-115518878D01*
X197295892Y-115531744D01*
X197340000Y-115536088D01*
X199040000Y-115536088D01*
X199084108Y-115531744D01*
X199126520Y-115518878D01*
X199165608Y-115497985D01*
X199199868Y-115469868D01*
X199227985Y-115435608D01*
X199248878Y-115396520D01*
X199261744Y-115354108D01*
X199266088Y-115310000D01*
X199266088Y-113610000D01*
X199261744Y-113565892D01*
X199248878Y-113523480D01*
X199227985Y-113484392D01*
X199199868Y-113450132D01*
X199165608Y-113422015D01*
X199126520Y-113401122D01*
X199084108Y-113388256D01*
X199040000Y-113383912D01*
X197340000Y-113383912D01*
X197295892Y-113388256D01*
X197253480Y-113401122D01*
X197214392Y-113422015D01*
X197180132Y-113450132D01*
X197152015Y-113484392D01*
X197131122Y-113523480D01*
X197118256Y-113565892D01*
X197113912Y-113610000D01*
X159561750Y-113610000D01*
X163304051Y-109867699D01*
X200277657Y-109867699D01*
X200383224Y-110042855D01*
X200600640Y-110164603D01*
X200837630Y-110241597D01*
X201085087Y-110270876D01*
X201333502Y-110251317D01*
X201573327Y-110183670D01*
X201795347Y-110070535D01*
X201836776Y-110042855D01*
X201942343Y-109867699D01*
X201110000Y-109035355D01*
X200277657Y-109867699D01*
X163304051Y-109867699D01*
X164196663Y-108975087D01*
X199839124Y-108975087D01*
X199858683Y-109223502D01*
X199926330Y-109463327D01*
X200039465Y-109685347D01*
X200067145Y-109726776D01*
X200242301Y-109832343D01*
X201074645Y-109000000D01*
X201145355Y-109000000D01*
X201977699Y-109832343D01*
X202152855Y-109726776D01*
X202274603Y-109509360D01*
X202351597Y-109272370D01*
X202380876Y-109024913D01*
X202361317Y-108776498D01*
X202293670Y-108536673D01*
X202180535Y-108314653D01*
X202152855Y-108273224D01*
X201977699Y-108167657D01*
X201145355Y-109000000D01*
X201074645Y-109000000D01*
X200242301Y-108167657D01*
X200067145Y-108273224D01*
X199945397Y-108490640D01*
X199868403Y-108727630D01*
X199839124Y-108975087D01*
X164196663Y-108975087D01*
X165039449Y-108132301D01*
X200277657Y-108132301D01*
X201110000Y-108964645D01*
X201942343Y-108132301D01*
X201836776Y-107957145D01*
X201619360Y-107835397D01*
X201382370Y-107758403D01*
X201134913Y-107729124D01*
X200886498Y-107748683D01*
X200646673Y-107816330D01*
X200424653Y-107929465D01*
X200383224Y-107957145D01*
X200277657Y-108132301D01*
X165039449Y-108132301D01*
X170269372Y-102902379D01*
X170287501Y-102887501D01*
X170346859Y-102815173D01*
X170390966Y-102732654D01*
X170418127Y-102643116D01*
X170425000Y-102573332D01*
X170425000Y-102573331D01*
X170427298Y-102550001D01*
X170425000Y-102526669D01*
X170425000Y-95700000D01*
X188423912Y-95700000D01*
X188423912Y-97400000D01*
X188428256Y-97444108D01*
X188441122Y-97486520D01*
X188462015Y-97525608D01*
X188490132Y-97559868D01*
X188524392Y-97587985D01*
X188563480Y-97608878D01*
X188605892Y-97621744D01*
X188650000Y-97626088D01*
X190350000Y-97626088D01*
X190394108Y-97621744D01*
X190436520Y-97608878D01*
X190475608Y-97587985D01*
X190509868Y-97559868D01*
X190537985Y-97525608D01*
X190558878Y-97486520D01*
X190571744Y-97444108D01*
X190576088Y-97400000D01*
X190576088Y-96444122D01*
X190965000Y-96444122D01*
X190965000Y-96655878D01*
X191006312Y-96863566D01*
X191087348Y-97059203D01*
X191204993Y-97235272D01*
X191354728Y-97385007D01*
X191530797Y-97502652D01*
X191726434Y-97583688D01*
X191934122Y-97625000D01*
X192145878Y-97625000D01*
X192353566Y-97583688D01*
X192549203Y-97502652D01*
X192725272Y-97385007D01*
X192875007Y-97235272D01*
X192992652Y-97059203D01*
X193073688Y-96863566D01*
X193115000Y-96655878D01*
X193115000Y-96444122D01*
X193505000Y-96444122D01*
X193505000Y-96655878D01*
X193546312Y-96863566D01*
X193627348Y-97059203D01*
X193744993Y-97235272D01*
X193894728Y-97385007D01*
X194070797Y-97502652D01*
X194266434Y-97583688D01*
X194474122Y-97625000D01*
X194685878Y-97625000D01*
X194893566Y-97583688D01*
X195089203Y-97502652D01*
X195265272Y-97385007D01*
X195415007Y-97235272D01*
X195532652Y-97059203D01*
X195613688Y-96863566D01*
X195636150Y-96750638D01*
X196013035Y-96750638D01*
X196073448Y-96962741D01*
X196174079Y-97158982D01*
X196311061Y-97331821D01*
X196479130Y-97474615D01*
X196671828Y-97581876D01*
X196881749Y-97649483D01*
X196919363Y-97656964D01*
X197095000Y-97605954D01*
X197095000Y-96575000D01*
X197145000Y-96575000D01*
X197145000Y-97605954D01*
X197320637Y-97656964D01*
X197358251Y-97649483D01*
X197568172Y-97581876D01*
X197760870Y-97474615D01*
X197928939Y-97331821D01*
X198065921Y-97158982D01*
X198166552Y-96962741D01*
X198226965Y-96750638D01*
X198175973Y-96575000D01*
X197145000Y-96575000D01*
X197095000Y-96575000D01*
X196064027Y-96575000D01*
X196013035Y-96750638D01*
X195636150Y-96750638D01*
X195655000Y-96655878D01*
X195655000Y-96444122D01*
X195636151Y-96349362D01*
X196013035Y-96349362D01*
X196064027Y-96525000D01*
X197095000Y-96525000D01*
X197095000Y-95494046D01*
X197145000Y-95494046D01*
X197145000Y-96525000D01*
X198175973Y-96525000D01*
X198226965Y-96349362D01*
X198166552Y-96137259D01*
X198065921Y-95941018D01*
X197928939Y-95768179D01*
X197760870Y-95625385D01*
X197568172Y-95518124D01*
X197358251Y-95450517D01*
X197320637Y-95443036D01*
X197145000Y-95494046D01*
X197095000Y-95494046D01*
X196919363Y-95443036D01*
X196881749Y-95450517D01*
X196671828Y-95518124D01*
X196479130Y-95625385D01*
X196311061Y-95768179D01*
X196174079Y-95941018D01*
X196073448Y-96137259D01*
X196013035Y-96349362D01*
X195636151Y-96349362D01*
X195613688Y-96236434D01*
X195532652Y-96040797D01*
X195415007Y-95864728D01*
X195265272Y-95714993D01*
X195089203Y-95597348D01*
X194893566Y-95516312D01*
X194685878Y-95475000D01*
X194474122Y-95475000D01*
X194266434Y-95516312D01*
X194070797Y-95597348D01*
X193894728Y-95714993D01*
X193744993Y-95864728D01*
X193627348Y-96040797D01*
X193546312Y-96236434D01*
X193505000Y-96444122D01*
X193115000Y-96444122D01*
X193073688Y-96236434D01*
X192992652Y-96040797D01*
X192875007Y-95864728D01*
X192725272Y-95714993D01*
X192549203Y-95597348D01*
X192353566Y-95516312D01*
X192145878Y-95475000D01*
X191934122Y-95475000D01*
X191726434Y-95516312D01*
X191530797Y-95597348D01*
X191354728Y-95714993D01*
X191204993Y-95864728D01*
X191087348Y-96040797D01*
X191006312Y-96236434D01*
X190965000Y-96444122D01*
X190576088Y-96444122D01*
X190576088Y-95700000D01*
X190571744Y-95655892D01*
X190558878Y-95613480D01*
X190537985Y-95574392D01*
X190509868Y-95540132D01*
X190475608Y-95512015D01*
X190436520Y-95491122D01*
X190394108Y-95478256D01*
X190350000Y-95473912D01*
X188650000Y-95473912D01*
X188605892Y-95478256D01*
X188563480Y-95491122D01*
X188524392Y-95512015D01*
X188490132Y-95540132D01*
X188462015Y-95574392D01*
X188441122Y-95613480D01*
X188428256Y-95655892D01*
X188423912Y-95700000D01*
X170425000Y-95700000D01*
X170425000Y-94404040D01*
X173025699Y-94404040D01*
X173025699Y-94595960D01*
X173063141Y-94784193D01*
X173136586Y-94961504D01*
X173243211Y-95121080D01*
X173378919Y-95256788D01*
X173538495Y-95363413D01*
X173715806Y-95436858D01*
X173904039Y-95474300D01*
X174095959Y-95474300D01*
X174284192Y-95436858D01*
X174461503Y-95363413D01*
X174621079Y-95256788D01*
X174681239Y-95196628D01*
X179838728Y-95196628D01*
X179915424Y-95347134D01*
X180091924Y-95444903D01*
X180284106Y-95506358D01*
X180484585Y-95529139D01*
X180685657Y-95512373D01*
X180879594Y-95456701D01*
X181058943Y-95364263D01*
X181084578Y-95347134D01*
X181161274Y-95196628D01*
X180500001Y-94535355D01*
X179838728Y-95196628D01*
X174681239Y-95196628D01*
X174756787Y-95121080D01*
X174863412Y-94961504D01*
X174936857Y-94784193D01*
X174974299Y-94595960D01*
X174974299Y-94484584D01*
X179470862Y-94484584D01*
X179487628Y-94685656D01*
X179543300Y-94879593D01*
X179635738Y-95058942D01*
X179652867Y-95084577D01*
X179803373Y-95161273D01*
X180464646Y-94500000D01*
X180535356Y-94500000D01*
X181196629Y-95161273D01*
X181347135Y-95084577D01*
X181444904Y-94908077D01*
X181506359Y-94715895D01*
X181529140Y-94515416D01*
X181512374Y-94314344D01*
X181456702Y-94120407D01*
X181364264Y-93941058D01*
X181347135Y-93915423D01*
X181196629Y-93838727D01*
X180535356Y-94500000D01*
X180464646Y-94500000D01*
X179803373Y-93838727D01*
X179652867Y-93915423D01*
X179555098Y-94091923D01*
X179493643Y-94284105D01*
X179470862Y-94484584D01*
X174974299Y-94484584D01*
X174974299Y-94404040D01*
X174936857Y-94215807D01*
X174863412Y-94038496D01*
X174756787Y-93878920D01*
X174681239Y-93803372D01*
X179838728Y-93803372D01*
X180500001Y-94464645D01*
X181161274Y-93803372D01*
X181084578Y-93652866D01*
X180908078Y-93555097D01*
X180715896Y-93493642D01*
X180515417Y-93470861D01*
X180314345Y-93487627D01*
X180120408Y-93543299D01*
X179941059Y-93635737D01*
X179915424Y-93652866D01*
X179838728Y-93803372D01*
X174681239Y-93803372D01*
X174621079Y-93743212D01*
X174461503Y-93636587D01*
X174284192Y-93563142D01*
X174095959Y-93525700D01*
X173904039Y-93525700D01*
X173715806Y-93563142D01*
X173538495Y-93636587D01*
X173378919Y-93743212D01*
X173243211Y-93878920D01*
X173136586Y-94038496D01*
X173063141Y-94215807D01*
X173025699Y-94404040D01*
X170425000Y-94404040D01*
X170425000Y-89904039D01*
X173025699Y-89904039D01*
X173025699Y-90095959D01*
X173063141Y-90284192D01*
X173136586Y-90461503D01*
X173243211Y-90621079D01*
X173378919Y-90756787D01*
X173538495Y-90863412D01*
X173715806Y-90936857D01*
X173904039Y-90974299D01*
X174095959Y-90974299D01*
X174284192Y-90936857D01*
X174461503Y-90863412D01*
X174621079Y-90756787D01*
X174756787Y-90621079D01*
X174863412Y-90461503D01*
X174936857Y-90284192D01*
X174974299Y-90095959D01*
X174974299Y-89904039D01*
X174936857Y-89715806D01*
X174863412Y-89538495D01*
X174756787Y-89378919D01*
X174628567Y-89250699D01*
X179524613Y-89250699D01*
X179524613Y-90749299D01*
X179528957Y-90793407D01*
X179541823Y-90835819D01*
X179562716Y-90874907D01*
X179590833Y-90909167D01*
X179625093Y-90937284D01*
X179664181Y-90958177D01*
X179706593Y-90971043D01*
X179750701Y-90975387D01*
X181249301Y-90975387D01*
X181293409Y-90971043D01*
X181335821Y-90958177D01*
X181374909Y-90937284D01*
X181409169Y-90909167D01*
X181437286Y-90874907D01*
X181458179Y-90835819D01*
X181471045Y-90793407D01*
X181475389Y-90749299D01*
X181475389Y-89250699D01*
X181471045Y-89206591D01*
X181458179Y-89164179D01*
X181437286Y-89125091D01*
X181409169Y-89090831D01*
X181374909Y-89062714D01*
X181335821Y-89041821D01*
X181293409Y-89028955D01*
X181249301Y-89024611D01*
X179750701Y-89024611D01*
X179706593Y-89028955D01*
X179664181Y-89041821D01*
X179625093Y-89062714D01*
X179590833Y-89090831D01*
X179562716Y-89125091D01*
X179541823Y-89164179D01*
X179528957Y-89206591D01*
X179524613Y-89250699D01*
X174628567Y-89250699D01*
X174621079Y-89243211D01*
X174461503Y-89136586D01*
X174284192Y-89063141D01*
X174095959Y-89025699D01*
X173904039Y-89025699D01*
X173715806Y-89063141D01*
X173538495Y-89136586D01*
X173378919Y-89243211D01*
X173243211Y-89378919D01*
X173136586Y-89538495D01*
X173063141Y-89715806D01*
X173025699Y-89904039D01*
X170425000Y-89904039D01*
X170425000Y-81550000D01*
X182823912Y-81550000D01*
X182823912Y-83250000D01*
X182828256Y-83294108D01*
X182841122Y-83336520D01*
X182862015Y-83375608D01*
X182890132Y-83409868D01*
X182924392Y-83437985D01*
X182963480Y-83458878D01*
X183005892Y-83471744D01*
X183050000Y-83476088D01*
X184750000Y-83476088D01*
X184794108Y-83471744D01*
X184836520Y-83458878D01*
X184875608Y-83437985D01*
X184909868Y-83409868D01*
X184937985Y-83375608D01*
X184958878Y-83336520D01*
X184971744Y-83294108D01*
X184976088Y-83250000D01*
X184976088Y-81550000D01*
X184971744Y-81505892D01*
X184958878Y-81463480D01*
X184937985Y-81424392D01*
X184909868Y-81390132D01*
X184875608Y-81362015D01*
X184836520Y-81341122D01*
X184794108Y-81328256D01*
X184750000Y-81323912D01*
X183050000Y-81323912D01*
X183005892Y-81328256D01*
X182963480Y-81341122D01*
X182924392Y-81362015D01*
X182890132Y-81390132D01*
X182862015Y-81424392D01*
X182841122Y-81463480D01*
X182828256Y-81505892D01*
X182823912Y-81550000D01*
X170425000Y-81550000D01*
X170425000Y-75000000D01*
X173673912Y-75000000D01*
X173673912Y-76700000D01*
X173678256Y-76744108D01*
X173691122Y-76786520D01*
X173712015Y-76825608D01*
X173740132Y-76859868D01*
X173774392Y-76887985D01*
X173813480Y-76908878D01*
X173855892Y-76921744D01*
X173900000Y-76926088D01*
X175600000Y-76926088D01*
X175644108Y-76921744D01*
X175686520Y-76908878D01*
X175725608Y-76887985D01*
X175759868Y-76859868D01*
X175787985Y-76825608D01*
X175808878Y-76786520D01*
X175821744Y-76744108D01*
X175826088Y-76700000D01*
X175826088Y-75000000D01*
X175821744Y-74955892D01*
X175808878Y-74913480D01*
X175787985Y-74874392D01*
X175759868Y-74840132D01*
X175725608Y-74812015D01*
X175686520Y-74791122D01*
X175644108Y-74778256D01*
X175600000Y-74773912D01*
X173900000Y-74773912D01*
X173855892Y-74778256D01*
X173813480Y-74791122D01*
X173774392Y-74812015D01*
X173740132Y-74840132D01*
X173712015Y-74874392D01*
X173691122Y-74913480D01*
X173678256Y-74955892D01*
X173673912Y-75000000D01*
X170425000Y-75000000D01*
X170425000Y-72904040D01*
X173025699Y-72904040D01*
X173025699Y-73095960D01*
X173063141Y-73284193D01*
X173136586Y-73461504D01*
X173243211Y-73621080D01*
X173378919Y-73756788D01*
X173538495Y-73863413D01*
X173715806Y-73936858D01*
X173904039Y-73974300D01*
X174095959Y-73974300D01*
X174284192Y-73936858D01*
X174461503Y-73863413D01*
X174621079Y-73756788D01*
X174756787Y-73621080D01*
X174863412Y-73461504D01*
X174936857Y-73284193D01*
X174974299Y-73095960D01*
X174974299Y-72904040D01*
X179525701Y-72904040D01*
X179525701Y-73095960D01*
X179563143Y-73284193D01*
X179636588Y-73461504D01*
X179743213Y-73621080D01*
X179878921Y-73756788D01*
X180038497Y-73863413D01*
X180215808Y-73936858D01*
X180404041Y-73974300D01*
X180595961Y-73974300D01*
X180784194Y-73936858D01*
X180961505Y-73863413D01*
X181121081Y-73756788D01*
X181256789Y-73621080D01*
X181363414Y-73461504D01*
X181368886Y-73448292D01*
X203475000Y-73448292D01*
X203475000Y-73551708D01*
X203495176Y-73653137D01*
X203525001Y-73725141D01*
X203525000Y-74274860D01*
X203495176Y-74346863D01*
X203475000Y-74448292D01*
X203475000Y-74551708D01*
X203495176Y-74653137D01*
X203525001Y-74725142D01*
X203525000Y-104774860D01*
X203495176Y-104846863D01*
X203475000Y-104948292D01*
X203475000Y-105051708D01*
X203495176Y-105153137D01*
X203525001Y-105225142D01*
X203525000Y-111774860D01*
X203495176Y-111846863D01*
X203475000Y-111948292D01*
X203475000Y-112051708D01*
X203495176Y-112153137D01*
X203525001Y-112225141D01*
X203525000Y-112774860D01*
X203495176Y-112846863D01*
X203475000Y-112948292D01*
X203475000Y-113051708D01*
X203495176Y-113153137D01*
X203534751Y-113248681D01*
X203592206Y-113334668D01*
X203665332Y-113407794D01*
X203751319Y-113465249D01*
X203846863Y-113504824D01*
X203948292Y-113525000D01*
X204051708Y-113525000D01*
X204153137Y-113504824D01*
X204248681Y-113465249D01*
X204334668Y-113407794D01*
X204407794Y-113334668D01*
X204465249Y-113248681D01*
X204504824Y-113153137D01*
X204525000Y-113051708D01*
X204525000Y-112948292D01*
X204504824Y-112846863D01*
X204475000Y-112774860D01*
X204475000Y-112225140D01*
X204504824Y-112153137D01*
X204525000Y-112051708D01*
X204525000Y-111948292D01*
X204504824Y-111846863D01*
X204475000Y-111774860D01*
X204475000Y-109350000D01*
X206373669Y-109350000D01*
X206378979Y-109403910D01*
X206394703Y-109455747D01*
X206420239Y-109503521D01*
X206454604Y-109545396D01*
X206496479Y-109579761D01*
X206544253Y-109605297D01*
X206596090Y-109621021D01*
X206650000Y-109626331D01*
X207406250Y-109625000D01*
X207475000Y-109556250D01*
X207475000Y-108525000D01*
X207525000Y-108525000D01*
X207525000Y-109556250D01*
X207593750Y-109625000D01*
X208350000Y-109626331D01*
X208403910Y-109621021D01*
X208455747Y-109605297D01*
X208503521Y-109579761D01*
X208545396Y-109545396D01*
X208579761Y-109503521D01*
X208605297Y-109455747D01*
X208621021Y-109403910D01*
X208626331Y-109350000D01*
X208625000Y-108593750D01*
X208556250Y-108525000D01*
X207525000Y-108525000D01*
X207475000Y-108525000D01*
X206443750Y-108525000D01*
X206375000Y-108593750D01*
X206373669Y-109350000D01*
X204475000Y-109350000D01*
X204475000Y-107650000D01*
X206373669Y-107650000D01*
X206375000Y-108406250D01*
X206443750Y-108475000D01*
X207475000Y-108475000D01*
X207475000Y-107443750D01*
X207525000Y-107443750D01*
X207525000Y-108475000D01*
X208556250Y-108475000D01*
X208625000Y-108406250D01*
X208626331Y-107650000D01*
X208621021Y-107596090D01*
X208605297Y-107544253D01*
X208579761Y-107496479D01*
X208545396Y-107454604D01*
X208503521Y-107420239D01*
X208455747Y-107394703D01*
X208403910Y-107378979D01*
X208350000Y-107373669D01*
X207593750Y-107375000D01*
X207525000Y-107443750D01*
X207475000Y-107443750D01*
X207406250Y-107375000D01*
X206650000Y-107373669D01*
X206596090Y-107378979D01*
X206544253Y-107394703D01*
X206496479Y-107420239D01*
X206454604Y-107454604D01*
X206420239Y-107496479D01*
X206394703Y-107544253D01*
X206378979Y-107596090D01*
X206373669Y-107650000D01*
X204475000Y-107650000D01*
X204475000Y-105854122D01*
X206425000Y-105854122D01*
X206425000Y-106065878D01*
X206466312Y-106273566D01*
X206547348Y-106469203D01*
X206664993Y-106645272D01*
X206814728Y-106795007D01*
X206990797Y-106912652D01*
X207186434Y-106993688D01*
X207394122Y-107035000D01*
X207605878Y-107035000D01*
X207813566Y-106993688D01*
X208009203Y-106912652D01*
X208185272Y-106795007D01*
X208335007Y-106645272D01*
X208452652Y-106469203D01*
X208533688Y-106273566D01*
X208575000Y-106065878D01*
X208575000Y-105854122D01*
X208533688Y-105646434D01*
X208452652Y-105450797D01*
X208335007Y-105274728D01*
X208185272Y-105124993D01*
X208009203Y-105007348D01*
X207813566Y-104926312D01*
X207605878Y-104885000D01*
X207394122Y-104885000D01*
X207186434Y-104926312D01*
X206990797Y-105007348D01*
X206814728Y-105124993D01*
X206664993Y-105274728D01*
X206547348Y-105450797D01*
X206466312Y-105646434D01*
X206425000Y-105854122D01*
X204475000Y-105854122D01*
X204475000Y-105225140D01*
X204504824Y-105153137D01*
X204525000Y-105051708D01*
X204525000Y-104948292D01*
X204504824Y-104846863D01*
X204475000Y-104774860D01*
X204475000Y-103314122D01*
X206425000Y-103314122D01*
X206425000Y-103525878D01*
X206466312Y-103733566D01*
X206547348Y-103929203D01*
X206664993Y-104105272D01*
X206814728Y-104255007D01*
X206990797Y-104372652D01*
X207186434Y-104453688D01*
X207394122Y-104495000D01*
X207605878Y-104495000D01*
X207813566Y-104453688D01*
X208009203Y-104372652D01*
X208185272Y-104255007D01*
X208335007Y-104105272D01*
X208452652Y-103929203D01*
X208533688Y-103733566D01*
X208575000Y-103525878D01*
X208575000Y-103314122D01*
X208533688Y-103106434D01*
X208452652Y-102910797D01*
X208335007Y-102734728D01*
X208185272Y-102584993D01*
X208009203Y-102467348D01*
X207813566Y-102386312D01*
X207605878Y-102345000D01*
X207394122Y-102345000D01*
X207186434Y-102386312D01*
X206990797Y-102467348D01*
X206814728Y-102584993D01*
X206664993Y-102734728D01*
X206547348Y-102910797D01*
X206466312Y-103106434D01*
X206425000Y-103314122D01*
X204475000Y-103314122D01*
X204475000Y-100774122D01*
X206425000Y-100774122D01*
X206425000Y-100985878D01*
X206466312Y-101193566D01*
X206547348Y-101389203D01*
X206664993Y-101565272D01*
X206814728Y-101715007D01*
X206990797Y-101832652D01*
X207186434Y-101913688D01*
X207394122Y-101955000D01*
X207605878Y-101955000D01*
X207813566Y-101913688D01*
X208009203Y-101832652D01*
X208185272Y-101715007D01*
X208335007Y-101565272D01*
X208452652Y-101389203D01*
X208533688Y-101193566D01*
X208575000Y-100985878D01*
X208575000Y-100774122D01*
X208533688Y-100566434D01*
X208452652Y-100370797D01*
X208335007Y-100194728D01*
X208185272Y-100044993D01*
X208009203Y-99927348D01*
X207813566Y-99846312D01*
X207605878Y-99805000D01*
X207394122Y-99805000D01*
X207186434Y-99846312D01*
X206990797Y-99927348D01*
X206814728Y-100044993D01*
X206664993Y-100194728D01*
X206547348Y-100370797D01*
X206466312Y-100566434D01*
X206425000Y-100774122D01*
X204475000Y-100774122D01*
X204475000Y-98234122D01*
X206425000Y-98234122D01*
X206425000Y-98445878D01*
X206466312Y-98653566D01*
X206547348Y-98849203D01*
X206664993Y-99025272D01*
X206814728Y-99175007D01*
X206990797Y-99292652D01*
X207186434Y-99373688D01*
X207394122Y-99415000D01*
X207605878Y-99415000D01*
X207813566Y-99373688D01*
X208009203Y-99292652D01*
X208185272Y-99175007D01*
X208335007Y-99025272D01*
X208452652Y-98849203D01*
X208533688Y-98653566D01*
X208575000Y-98445878D01*
X208575000Y-98234122D01*
X208533688Y-98026434D01*
X208452652Y-97830797D01*
X208335007Y-97654728D01*
X208185272Y-97504993D01*
X208009203Y-97387348D01*
X207813566Y-97306312D01*
X207605878Y-97265000D01*
X207394122Y-97265000D01*
X207186434Y-97306312D01*
X206990797Y-97387348D01*
X206814728Y-97504993D01*
X206664993Y-97654728D01*
X206547348Y-97830797D01*
X206466312Y-98026434D01*
X206425000Y-98234122D01*
X204475000Y-98234122D01*
X204475000Y-95694122D01*
X206425000Y-95694122D01*
X206425000Y-95905878D01*
X206466312Y-96113566D01*
X206547348Y-96309203D01*
X206664993Y-96485272D01*
X206814728Y-96635007D01*
X206990797Y-96752652D01*
X207186434Y-96833688D01*
X207394122Y-96875000D01*
X207605878Y-96875000D01*
X207813566Y-96833688D01*
X208009203Y-96752652D01*
X208185272Y-96635007D01*
X208335007Y-96485272D01*
X208452652Y-96309203D01*
X208533688Y-96113566D01*
X208575000Y-95905878D01*
X208575000Y-95694122D01*
X208533688Y-95486434D01*
X208452652Y-95290797D01*
X208335007Y-95114728D01*
X208185272Y-94964993D01*
X208009203Y-94847348D01*
X207813566Y-94766312D01*
X207605878Y-94725000D01*
X207394122Y-94725000D01*
X207186434Y-94766312D01*
X206990797Y-94847348D01*
X206814728Y-94964993D01*
X206664993Y-95114728D01*
X206547348Y-95290797D01*
X206466312Y-95486434D01*
X206425000Y-95694122D01*
X204475000Y-95694122D01*
X204475000Y-74725140D01*
X204504824Y-74653137D01*
X204525000Y-74551708D01*
X204525000Y-74448292D01*
X204504824Y-74346863D01*
X204475000Y-74274860D01*
X204475000Y-73725140D01*
X204504824Y-73653137D01*
X204525000Y-73551708D01*
X204525000Y-73448292D01*
X204504824Y-73346863D01*
X204465249Y-73251319D01*
X204407794Y-73165332D01*
X204334668Y-73092206D01*
X204248681Y-73034751D01*
X204153137Y-72995176D01*
X204051708Y-72975000D01*
X203948292Y-72975000D01*
X203846863Y-72995176D01*
X203751319Y-73034751D01*
X203665332Y-73092206D01*
X203592206Y-73165332D01*
X203534751Y-73251319D01*
X203495176Y-73346863D01*
X203475000Y-73448292D01*
X181368886Y-73448292D01*
X181436859Y-73284193D01*
X181474301Y-73095960D01*
X181474301Y-72904040D01*
X181436859Y-72715807D01*
X181363414Y-72538496D01*
X181256789Y-72378920D01*
X181121081Y-72243212D01*
X180961505Y-72136587D01*
X180784194Y-72063142D01*
X180595961Y-72025700D01*
X180404041Y-72025700D01*
X180215808Y-72063142D01*
X180038497Y-72136587D01*
X179878921Y-72243212D01*
X179743213Y-72378920D01*
X179636588Y-72538496D01*
X179563143Y-72715807D01*
X179525701Y-72904040D01*
X174974299Y-72904040D01*
X174936857Y-72715807D01*
X174863412Y-72538496D01*
X174756787Y-72378920D01*
X174621079Y-72243212D01*
X174461503Y-72136587D01*
X174284192Y-72063142D01*
X174095959Y-72025700D01*
X173904039Y-72025700D01*
X173715806Y-72063142D01*
X173538495Y-72136587D01*
X173378919Y-72243212D01*
X173243211Y-72378920D01*
X173136586Y-72538496D01*
X173063141Y-72715807D01*
X173025699Y-72904040D01*
X170425000Y-72904040D01*
X170425000Y-70775140D01*
X170454824Y-70703137D01*
X170475000Y-70601708D01*
X170475000Y-70498292D01*
X170454824Y-70396863D01*
X170415249Y-70301319D01*
X170357794Y-70215332D01*
X170284668Y-70142206D01*
X170198681Y-70084751D01*
X170103137Y-70045176D01*
X170001708Y-70025000D01*
X169898292Y-70025000D01*
X169796863Y-70045176D01*
X169701319Y-70084751D01*
X169615332Y-70142206D01*
X169542206Y-70215332D01*
X169484751Y-70301319D01*
X169445176Y-70396863D01*
X169425000Y-70498292D01*
X169425000Y-70601708D01*
X169445176Y-70703137D01*
X169475001Y-70775142D01*
X169475000Y-102353249D01*
X155390750Y-116437500D01*
X151934250Y-116437500D01*
X161819377Y-106552375D01*
X161837501Y-106537501D01*
X161896859Y-106465173D01*
X161925602Y-106411398D01*
X161940966Y-106382655D01*
X161968127Y-106293116D01*
X161977298Y-106200000D01*
X161975000Y-106176668D01*
X161975000Y-103226637D01*
X161978465Y-103220154D01*
X161982296Y-103207525D01*
X162004824Y-103153137D01*
X162025000Y-103051708D01*
X162025000Y-102948292D01*
X162004824Y-102846863D01*
X161975000Y-102774860D01*
X161975000Y-95450000D01*
X164723669Y-95450000D01*
X164728979Y-95503910D01*
X164744703Y-95555747D01*
X164770239Y-95603521D01*
X164804604Y-95645396D01*
X164846479Y-95679761D01*
X164894253Y-95705297D01*
X164946090Y-95721021D01*
X165000000Y-95726331D01*
X165756250Y-95725000D01*
X165825000Y-95656250D01*
X165825000Y-94625000D01*
X165875000Y-94625000D01*
X165875000Y-95656250D01*
X165943750Y-95725000D01*
X166700000Y-95726331D01*
X166753910Y-95721021D01*
X166805747Y-95705297D01*
X166853521Y-95679761D01*
X166895396Y-95645396D01*
X166929761Y-95603521D01*
X166955297Y-95555747D01*
X166971021Y-95503910D01*
X166976331Y-95450000D01*
X166975000Y-94693750D01*
X166906250Y-94625000D01*
X165875000Y-94625000D01*
X165825000Y-94625000D01*
X164793750Y-94625000D01*
X164725000Y-94693750D01*
X164723669Y-95450000D01*
X161975000Y-95450000D01*
X161975000Y-93750000D01*
X164723669Y-93750000D01*
X164725000Y-94506250D01*
X164793750Y-94575000D01*
X165825000Y-94575000D01*
X165825000Y-93543750D01*
X165875000Y-93543750D01*
X165875000Y-94575000D01*
X166906250Y-94575000D01*
X166975000Y-94506250D01*
X166976331Y-93750000D01*
X166971021Y-93696090D01*
X166955297Y-93644253D01*
X166929761Y-93596479D01*
X166895396Y-93554604D01*
X166853521Y-93520239D01*
X166805747Y-93494703D01*
X166753910Y-93478979D01*
X166700000Y-93473669D01*
X165943750Y-93475000D01*
X165875000Y-93543750D01*
X165825000Y-93543750D01*
X165756250Y-93475000D01*
X165000000Y-93473669D01*
X164946090Y-93478979D01*
X164894253Y-93494703D01*
X164846479Y-93520239D01*
X164804604Y-93554604D01*
X164770239Y-93596479D01*
X164744703Y-93644253D01*
X164728979Y-93696090D01*
X164723669Y-93750000D01*
X161975000Y-93750000D01*
X161975000Y-68404039D01*
X173025699Y-68404039D01*
X173025699Y-68595959D01*
X173063141Y-68784192D01*
X173136586Y-68961503D01*
X173243211Y-69121079D01*
X173378919Y-69256787D01*
X173538495Y-69363412D01*
X173715806Y-69436857D01*
X173904039Y-69474299D01*
X174095959Y-69474299D01*
X174284192Y-69436857D01*
X174461503Y-69363412D01*
X174621079Y-69256787D01*
X174628567Y-69249299D01*
X179474370Y-69249299D01*
X179479680Y-69303209D01*
X179495404Y-69355046D01*
X179520940Y-69402820D01*
X179555305Y-69444695D01*
X179597180Y-69479060D01*
X179644954Y-69504596D01*
X179696791Y-69520320D01*
X179750701Y-69525630D01*
X180406251Y-69524299D01*
X180475001Y-69455549D01*
X180475001Y-68524999D01*
X180525001Y-68524999D01*
X180525001Y-69455549D01*
X180593751Y-69524299D01*
X181249301Y-69525630D01*
X181303211Y-69520320D01*
X181355048Y-69504596D01*
X181402822Y-69479060D01*
X181444697Y-69444695D01*
X181479062Y-69402820D01*
X181504598Y-69355046D01*
X181520322Y-69303209D01*
X181525632Y-69249299D01*
X181524301Y-68593749D01*
X181455551Y-68524999D01*
X180525001Y-68524999D01*
X180475001Y-68524999D01*
X179544451Y-68524999D01*
X179475701Y-68593749D01*
X179474370Y-69249299D01*
X174628567Y-69249299D01*
X174756787Y-69121079D01*
X174863412Y-68961503D01*
X174936857Y-68784192D01*
X174974299Y-68595959D01*
X174974299Y-68404039D01*
X174936857Y-68215806D01*
X174863412Y-68038495D01*
X174756787Y-67878919D01*
X174628567Y-67750699D01*
X179474370Y-67750699D01*
X179475701Y-68406249D01*
X179544451Y-68474999D01*
X180475001Y-68474999D01*
X180475001Y-67544449D01*
X180525001Y-67544449D01*
X180525001Y-68474999D01*
X181455551Y-68474999D01*
X181524301Y-68406249D01*
X181525632Y-67750699D01*
X181520322Y-67696789D01*
X181504598Y-67644952D01*
X181479062Y-67597178D01*
X181444697Y-67555303D01*
X181402822Y-67520938D01*
X181355048Y-67495402D01*
X181303211Y-67479678D01*
X181249301Y-67474368D01*
X180593751Y-67475699D01*
X180525001Y-67544449D01*
X180475001Y-67544449D01*
X180406251Y-67475699D01*
X179750701Y-67474368D01*
X179696791Y-67479678D01*
X179644954Y-67495402D01*
X179597180Y-67520938D01*
X179555305Y-67555303D01*
X179520940Y-67597178D01*
X179495404Y-67644952D01*
X179479680Y-67696789D01*
X179474370Y-67750699D01*
X174628567Y-67750699D01*
X174621079Y-67743211D01*
X174461503Y-67636586D01*
X174284192Y-67563141D01*
X174095959Y-67525699D01*
X173904039Y-67525699D01*
X173715806Y-67563141D01*
X173538495Y-67636586D01*
X173378919Y-67743211D01*
X173243211Y-67878919D01*
X173136586Y-68038495D01*
X173063141Y-68215806D01*
X173025699Y-68404039D01*
X161975000Y-68404039D01*
X161975000Y-66650000D01*
X190923912Y-66650000D01*
X190923912Y-68350000D01*
X190928256Y-68394108D01*
X190941122Y-68436520D01*
X190962015Y-68475608D01*
X190990132Y-68509868D01*
X191024392Y-68537985D01*
X191063480Y-68558878D01*
X191105892Y-68571744D01*
X191150000Y-68576088D01*
X192850000Y-68576088D01*
X192894108Y-68571744D01*
X192936520Y-68558878D01*
X192975608Y-68537985D01*
X193009868Y-68509868D01*
X193037985Y-68475608D01*
X193058878Y-68436520D01*
X193071744Y-68394108D01*
X193076088Y-68350000D01*
X193076088Y-67394122D01*
X193465000Y-67394122D01*
X193465000Y-67605878D01*
X193506312Y-67813566D01*
X193587348Y-68009203D01*
X193704993Y-68185272D01*
X193854728Y-68335007D01*
X194030797Y-68452652D01*
X194226434Y-68533688D01*
X194434122Y-68575000D01*
X194645878Y-68575000D01*
X194853566Y-68533688D01*
X195049203Y-68452652D01*
X195225272Y-68335007D01*
X195375007Y-68185272D01*
X195492652Y-68009203D01*
X195573688Y-67813566D01*
X195615000Y-67605878D01*
X195615000Y-67394122D01*
X196005000Y-67394122D01*
X196005000Y-67605878D01*
X196046312Y-67813566D01*
X196127348Y-68009203D01*
X196244993Y-68185272D01*
X196394728Y-68335007D01*
X196570797Y-68452652D01*
X196766434Y-68533688D01*
X196974122Y-68575000D01*
X197185878Y-68575000D01*
X197393566Y-68533688D01*
X197589203Y-68452652D01*
X197765272Y-68335007D01*
X197915007Y-68185272D01*
X198032652Y-68009203D01*
X198113688Y-67813566D01*
X198155000Y-67605878D01*
X198155000Y-67394122D01*
X198545000Y-67394122D01*
X198545000Y-67605878D01*
X198586312Y-67813566D01*
X198667348Y-68009203D01*
X198784993Y-68185272D01*
X198934728Y-68335007D01*
X199110797Y-68452652D01*
X199306434Y-68533688D01*
X199514122Y-68575000D01*
X199725878Y-68575000D01*
X199933566Y-68533688D01*
X200129203Y-68452652D01*
X200305272Y-68335007D01*
X200455007Y-68185272D01*
X200572652Y-68009203D01*
X200653688Y-67813566D01*
X200676150Y-67700638D01*
X201053035Y-67700638D01*
X201113448Y-67912741D01*
X201214079Y-68108982D01*
X201351061Y-68281821D01*
X201519130Y-68424615D01*
X201711828Y-68531876D01*
X201921749Y-68599483D01*
X201959363Y-68606964D01*
X202135000Y-68555954D01*
X202135000Y-67525000D01*
X202185000Y-67525000D01*
X202185000Y-68555954D01*
X202360637Y-68606964D01*
X202398251Y-68599483D01*
X202608172Y-68531876D01*
X202800870Y-68424615D01*
X202968939Y-68281821D01*
X203105921Y-68108982D01*
X203206552Y-67912741D01*
X203266965Y-67700638D01*
X203215973Y-67525000D01*
X202185000Y-67525000D01*
X202135000Y-67525000D01*
X201104027Y-67525000D01*
X201053035Y-67700638D01*
X200676150Y-67700638D01*
X200695000Y-67605878D01*
X200695000Y-67394122D01*
X200676151Y-67299362D01*
X201053035Y-67299362D01*
X201104027Y-67475000D01*
X202135000Y-67475000D01*
X202135000Y-66444046D01*
X202185000Y-66444046D01*
X202185000Y-67475000D01*
X203215973Y-67475000D01*
X203239453Y-67394122D01*
X203625000Y-67394122D01*
X203625000Y-67605878D01*
X203666312Y-67813566D01*
X203747348Y-68009203D01*
X203864993Y-68185272D01*
X204014728Y-68335007D01*
X204190797Y-68452652D01*
X204386434Y-68533688D01*
X204594122Y-68575000D01*
X204805878Y-68575000D01*
X205013566Y-68533688D01*
X205209203Y-68452652D01*
X205385272Y-68335007D01*
X205535007Y-68185272D01*
X205652652Y-68009203D01*
X205733688Y-67813566D01*
X205775000Y-67605878D01*
X205775000Y-67394122D01*
X205733688Y-67186434D01*
X205652652Y-66990797D01*
X205535007Y-66814728D01*
X205385272Y-66664993D01*
X205209203Y-66547348D01*
X205013566Y-66466312D01*
X204805878Y-66425000D01*
X204594122Y-66425000D01*
X204386434Y-66466312D01*
X204190797Y-66547348D01*
X204014728Y-66664993D01*
X203864993Y-66814728D01*
X203747348Y-66990797D01*
X203666312Y-67186434D01*
X203625000Y-67394122D01*
X203239453Y-67394122D01*
X203266965Y-67299362D01*
X203206552Y-67087259D01*
X203105921Y-66891018D01*
X202968939Y-66718179D01*
X202800870Y-66575385D01*
X202608172Y-66468124D01*
X202398251Y-66400517D01*
X202360637Y-66393036D01*
X202185000Y-66444046D01*
X202135000Y-66444046D01*
X201959363Y-66393036D01*
X201921749Y-66400517D01*
X201711828Y-66468124D01*
X201519130Y-66575385D01*
X201351061Y-66718179D01*
X201214079Y-66891018D01*
X201113448Y-67087259D01*
X201053035Y-67299362D01*
X200676151Y-67299362D01*
X200653688Y-67186434D01*
X200572652Y-66990797D01*
X200455007Y-66814728D01*
X200305272Y-66664993D01*
X200129203Y-66547348D01*
X199933566Y-66466312D01*
X199725878Y-66425000D01*
X199514122Y-66425000D01*
X199306434Y-66466312D01*
X199110797Y-66547348D01*
X198934728Y-66664993D01*
X198784993Y-66814728D01*
X198667348Y-66990797D01*
X198586312Y-67186434D01*
X198545000Y-67394122D01*
X198155000Y-67394122D01*
X198113688Y-67186434D01*
X198032652Y-66990797D01*
X197915007Y-66814728D01*
X197765272Y-66664993D01*
X197589203Y-66547348D01*
X197393566Y-66466312D01*
X197185878Y-66425000D01*
X196974122Y-66425000D01*
X196766434Y-66466312D01*
X196570797Y-66547348D01*
X196394728Y-66664993D01*
X196244993Y-66814728D01*
X196127348Y-66990797D01*
X196046312Y-67186434D01*
X196005000Y-67394122D01*
X195615000Y-67394122D01*
X195573688Y-67186434D01*
X195492652Y-66990797D01*
X195375007Y-66814728D01*
X195225272Y-66664993D01*
X195049203Y-66547348D01*
X194853566Y-66466312D01*
X194645878Y-66425000D01*
X194434122Y-66425000D01*
X194226434Y-66466312D01*
X194030797Y-66547348D01*
X193854728Y-66664993D01*
X193704993Y-66814728D01*
X193587348Y-66990797D01*
X193506312Y-67186434D01*
X193465000Y-67394122D01*
X193076088Y-67394122D01*
X193076088Y-66650000D01*
X193071744Y-66605892D01*
X193058878Y-66563480D01*
X193037985Y-66524392D01*
X193009868Y-66490132D01*
X192975608Y-66462015D01*
X192936520Y-66441122D01*
X192894108Y-66428256D01*
X192850000Y-66423912D01*
X191150000Y-66423912D01*
X191105892Y-66428256D01*
X191063480Y-66441122D01*
X191024392Y-66462015D01*
X190990132Y-66490132D01*
X190962015Y-66524392D01*
X190941122Y-66563480D01*
X190928256Y-66605892D01*
X190923912Y-66650000D01*
X161975000Y-66650000D01*
X161975000Y-64850000D01*
X208873669Y-64850000D01*
X208878979Y-64903910D01*
X208894703Y-64955747D01*
X208920239Y-65003521D01*
X208954604Y-65045396D01*
X208996479Y-65079761D01*
X209044253Y-65105297D01*
X209096090Y-65121021D01*
X209150000Y-65126331D01*
X209906250Y-65125000D01*
X209975000Y-65056250D01*
X209975000Y-64025000D01*
X210025000Y-64025000D01*
X210025000Y-65056250D01*
X210093750Y-65125000D01*
X210850000Y-65126331D01*
X210903910Y-65121021D01*
X210955747Y-65105297D01*
X211003521Y-65079761D01*
X211045396Y-65045396D01*
X211079761Y-65003521D01*
X211105297Y-64955747D01*
X211121021Y-64903910D01*
X211126331Y-64850000D01*
X211125000Y-64093750D01*
X211056250Y-64025000D01*
X210025000Y-64025000D01*
X209975000Y-64025000D01*
X208943750Y-64025000D01*
X208875000Y-64093750D01*
X208873669Y-64850000D01*
X161975000Y-64850000D01*
X161975000Y-63400000D01*
X192823669Y-63400000D01*
X192828979Y-63453910D01*
X192844703Y-63505747D01*
X192870239Y-63553521D01*
X192904604Y-63595396D01*
X192946479Y-63629761D01*
X192994253Y-63655297D01*
X193046090Y-63671021D01*
X193100000Y-63676331D01*
X193906250Y-63675000D01*
X193975000Y-63606250D01*
X193975000Y-62525000D01*
X194025000Y-62525000D01*
X194025000Y-63606250D01*
X194093750Y-63675000D01*
X194900000Y-63676331D01*
X194953910Y-63671021D01*
X195005747Y-63655297D01*
X195053521Y-63629761D01*
X195095396Y-63595396D01*
X195129761Y-63553521D01*
X195155297Y-63505747D01*
X195171021Y-63453910D01*
X195176331Y-63400000D01*
X195175000Y-62593750D01*
X195106250Y-62525000D01*
X194025000Y-62525000D01*
X193975000Y-62525000D01*
X192893750Y-62525000D01*
X192825000Y-62593750D01*
X192823669Y-63400000D01*
X161975000Y-63400000D01*
X161975000Y-61600000D01*
X192823669Y-61600000D01*
X192825000Y-62406250D01*
X192893750Y-62475000D01*
X193975000Y-62475000D01*
X193975000Y-61393750D01*
X194025000Y-61393750D01*
X194025000Y-62475000D01*
X195106250Y-62475000D01*
X195175000Y-62406250D01*
X195175028Y-62389197D01*
X195415000Y-62389197D01*
X195415000Y-62610803D01*
X195458233Y-62828150D01*
X195543038Y-63032887D01*
X195666156Y-63217145D01*
X195822855Y-63373844D01*
X196007113Y-63496962D01*
X196211850Y-63581767D01*
X196429197Y-63625000D01*
X196650803Y-63625000D01*
X196868150Y-63581767D01*
X197072887Y-63496962D01*
X197257145Y-63373844D01*
X197413844Y-63217145D01*
X197458709Y-63150000D01*
X208873669Y-63150000D01*
X208875000Y-63906250D01*
X208943750Y-63975000D01*
X209975000Y-63975000D01*
X209975000Y-62943750D01*
X210025000Y-62943750D01*
X210025000Y-63975000D01*
X211056250Y-63975000D01*
X211125000Y-63906250D01*
X211126331Y-63150000D01*
X211121021Y-63096090D01*
X211105297Y-63044253D01*
X211079761Y-62996479D01*
X211045396Y-62954604D01*
X211003521Y-62920239D01*
X210955747Y-62894703D01*
X210903910Y-62878979D01*
X210850000Y-62873669D01*
X210093750Y-62875000D01*
X210025000Y-62943750D01*
X209975000Y-62943750D01*
X209906250Y-62875000D01*
X209150000Y-62873669D01*
X209096090Y-62878979D01*
X209044253Y-62894703D01*
X208996479Y-62920239D01*
X208954604Y-62954604D01*
X208920239Y-62996479D01*
X208894703Y-63044253D01*
X208878979Y-63096090D01*
X208873669Y-63150000D01*
X197458709Y-63150000D01*
X197536962Y-63032887D01*
X197621767Y-62828150D01*
X197665000Y-62610803D01*
X197665000Y-62389197D01*
X197621767Y-62171850D01*
X197536962Y-61967113D01*
X197413844Y-61782855D01*
X197257145Y-61626156D01*
X197072887Y-61503038D01*
X196868150Y-61418233D01*
X196650803Y-61375000D01*
X196429197Y-61375000D01*
X196211850Y-61418233D01*
X196007113Y-61503038D01*
X195822855Y-61626156D01*
X195666156Y-61782855D01*
X195543038Y-61967113D01*
X195458233Y-62171850D01*
X195415000Y-62389197D01*
X195175028Y-62389197D01*
X195176331Y-61600000D01*
X195171021Y-61546090D01*
X195155297Y-61494253D01*
X195129761Y-61446479D01*
X195095396Y-61404604D01*
X195053521Y-61370239D01*
X195005747Y-61344703D01*
X194953910Y-61328979D01*
X194900000Y-61323669D01*
X194093750Y-61325000D01*
X194025000Y-61393750D01*
X193975000Y-61393750D01*
X193906250Y-61325000D01*
X193100000Y-61323669D01*
X193046090Y-61328979D01*
X192994253Y-61344703D01*
X192946479Y-61370239D01*
X192904604Y-61404604D01*
X192870239Y-61446479D01*
X192844703Y-61494253D01*
X192828979Y-61546090D01*
X192823669Y-61600000D01*
X161975000Y-61600000D01*
X161975000Y-53150000D01*
X166423912Y-53150000D01*
X166423912Y-54850000D01*
X166428256Y-54894108D01*
X166441122Y-54936520D01*
X166462015Y-54975608D01*
X166490132Y-55009868D01*
X166524392Y-55037985D01*
X166563480Y-55058878D01*
X166605892Y-55071744D01*
X166650000Y-55076088D01*
X168350000Y-55076088D01*
X168394108Y-55071744D01*
X168436520Y-55058878D01*
X168475608Y-55037985D01*
X168509868Y-55009868D01*
X168537985Y-54975608D01*
X168558878Y-54936520D01*
X168571744Y-54894108D01*
X168576088Y-54850000D01*
X168576088Y-53150000D01*
X179423912Y-53150000D01*
X179423912Y-54850000D01*
X179428256Y-54894108D01*
X179441122Y-54936520D01*
X179462015Y-54975608D01*
X179490132Y-55009868D01*
X179524392Y-55037985D01*
X179563480Y-55058878D01*
X179605892Y-55071744D01*
X179650000Y-55076088D01*
X181350000Y-55076088D01*
X181394108Y-55071744D01*
X181436520Y-55058878D01*
X181475608Y-55037985D01*
X181509868Y-55009868D01*
X181537985Y-54975608D01*
X181558878Y-54936520D01*
X181571744Y-54894108D01*
X181576088Y-54850000D01*
X181576088Y-53150000D01*
X181571744Y-53105892D01*
X181558878Y-53063480D01*
X181537985Y-53024392D01*
X181509868Y-52990132D01*
X181475608Y-52962015D01*
X181436520Y-52941122D01*
X181394108Y-52928256D01*
X181350000Y-52923912D01*
X179650000Y-52923912D01*
X179605892Y-52928256D01*
X179563480Y-52941122D01*
X179524392Y-52962015D01*
X179490132Y-52990132D01*
X179462015Y-53024392D01*
X179441122Y-53063480D01*
X179428256Y-53105892D01*
X179423912Y-53150000D01*
X168576088Y-53150000D01*
X168571744Y-53105892D01*
X168558878Y-53063480D01*
X168537985Y-53024392D01*
X168509868Y-52990132D01*
X168475608Y-52962015D01*
X168436520Y-52941122D01*
X168394108Y-52928256D01*
X168350000Y-52923912D01*
X166650000Y-52923912D01*
X166605892Y-52928256D01*
X166563480Y-52941122D01*
X166524392Y-52962015D01*
X166490132Y-52990132D01*
X166462015Y-53024392D01*
X166441122Y-53063480D01*
X166428256Y-53105892D01*
X166423912Y-53150000D01*
X161975000Y-53150000D01*
X161975000Y-51525140D01*
X162004824Y-51453137D01*
X162025000Y-51351708D01*
X162025000Y-51248292D01*
X162005449Y-51150000D01*
X186383912Y-51150000D01*
X186383912Y-52850000D01*
X186388256Y-52894108D01*
X186401122Y-52936520D01*
X186422015Y-52975608D01*
X186450132Y-53009868D01*
X186484392Y-53037985D01*
X186523480Y-53058878D01*
X186565892Y-53071744D01*
X186610000Y-53076088D01*
X188310000Y-53076088D01*
X188354108Y-53071744D01*
X188396520Y-53058878D01*
X188435608Y-53037985D01*
X188469868Y-53009868D01*
X188497985Y-52975608D01*
X188518878Y-52936520D01*
X188531744Y-52894108D01*
X188536088Y-52850000D01*
X188536088Y-51894122D01*
X188925000Y-51894122D01*
X188925000Y-52105878D01*
X188966312Y-52313566D01*
X189047348Y-52509203D01*
X189164993Y-52685272D01*
X189314728Y-52835007D01*
X189490797Y-52952652D01*
X189686434Y-53033688D01*
X189894122Y-53075000D01*
X190105878Y-53075000D01*
X190313566Y-53033688D01*
X190509203Y-52952652D01*
X190685272Y-52835007D01*
X190835007Y-52685272D01*
X190952652Y-52509203D01*
X191033688Y-52313566D01*
X191056150Y-52200638D01*
X191433035Y-52200638D01*
X191493448Y-52412741D01*
X191594079Y-52608982D01*
X191731061Y-52781821D01*
X191899130Y-52924615D01*
X192091828Y-53031876D01*
X192301749Y-53099483D01*
X192339363Y-53106964D01*
X192515000Y-53055954D01*
X192515000Y-52025000D01*
X192565000Y-52025000D01*
X192565000Y-53055954D01*
X192740637Y-53106964D01*
X192778251Y-53099483D01*
X192988172Y-53031876D01*
X193180870Y-52924615D01*
X193348939Y-52781821D01*
X193485921Y-52608982D01*
X193586552Y-52412741D01*
X193646965Y-52200638D01*
X193595973Y-52025000D01*
X192565000Y-52025000D01*
X192515000Y-52025000D01*
X191484027Y-52025000D01*
X191433035Y-52200638D01*
X191056150Y-52200638D01*
X191075000Y-52105878D01*
X191075000Y-51894122D01*
X191056151Y-51799362D01*
X191433035Y-51799362D01*
X191484027Y-51975000D01*
X192515000Y-51975000D01*
X192515000Y-50944046D01*
X192565000Y-50944046D01*
X192565000Y-51975000D01*
X193595973Y-51975000D01*
X193646965Y-51799362D01*
X193586552Y-51587259D01*
X193485921Y-51391018D01*
X193348939Y-51218179D01*
X193180870Y-51075385D01*
X192988172Y-50968124D01*
X192778251Y-50900517D01*
X192740637Y-50893036D01*
X192565000Y-50944046D01*
X192515000Y-50944046D01*
X192339363Y-50893036D01*
X192301749Y-50900517D01*
X192091828Y-50968124D01*
X191899130Y-51075385D01*
X191731061Y-51218179D01*
X191594079Y-51391018D01*
X191493448Y-51587259D01*
X191433035Y-51799362D01*
X191056151Y-51799362D01*
X191033688Y-51686434D01*
X190952652Y-51490797D01*
X190835007Y-51314728D01*
X190685272Y-51164993D01*
X190509203Y-51047348D01*
X190313566Y-50966312D01*
X190105878Y-50925000D01*
X189894122Y-50925000D01*
X189686434Y-50966312D01*
X189490797Y-51047348D01*
X189314728Y-51164993D01*
X189164993Y-51314728D01*
X189047348Y-51490797D01*
X188966312Y-51686434D01*
X188925000Y-51894122D01*
X188536088Y-51894122D01*
X188536088Y-51150000D01*
X188531744Y-51105892D01*
X188518878Y-51063480D01*
X188497985Y-51024392D01*
X188469868Y-50990132D01*
X188435608Y-50962015D01*
X188396520Y-50941122D01*
X188354108Y-50928256D01*
X188310000Y-50923912D01*
X186610000Y-50923912D01*
X186565892Y-50928256D01*
X186523480Y-50941122D01*
X186484392Y-50962015D01*
X186450132Y-50990132D01*
X186422015Y-51024392D01*
X186401122Y-51063480D01*
X186388256Y-51105892D01*
X186383912Y-51150000D01*
X162005449Y-51150000D01*
X162004824Y-51146863D01*
X161965249Y-51051319D01*
X161907794Y-50965332D01*
X161834668Y-50892206D01*
X161748681Y-50834751D01*
X161653137Y-50795176D01*
X161551708Y-50775000D01*
X161448292Y-50775000D01*
X161346863Y-50795176D01*
X161251319Y-50834751D01*
X161165332Y-50892206D01*
X161092206Y-50965332D01*
X161034751Y-51051319D01*
X160995176Y-51146863D01*
X160975000Y-51248292D01*
X160975000Y-51351708D01*
X160995176Y-51453137D01*
X161025001Y-51525142D01*
X161025000Y-102774860D01*
X160995176Y-102846863D01*
X160975000Y-102948292D01*
X160975000Y-103051708D01*
X160995176Y-103153137D01*
X161025001Y-103225142D01*
X161025000Y-106003248D01*
X150590750Y-116437500D01*
X147003539Y-116437500D01*
X146978466Y-116354845D01*
X146963102Y-116326102D01*
X146934359Y-116272327D01*
X146875001Y-116199999D01*
X146856877Y-116185125D01*
X144925000Y-114253250D01*
X144925000Y-96526088D01*
X145350000Y-96526088D01*
X145394108Y-96521744D01*
X145436520Y-96508878D01*
X145475608Y-96487985D01*
X145509868Y-96459868D01*
X145537985Y-96425608D01*
X145558878Y-96386520D01*
X145571744Y-96344108D01*
X145576088Y-96300000D01*
X145576088Y-95075000D01*
X147923912Y-95075000D01*
X147923912Y-95925000D01*
X147936422Y-96052021D01*
X147973473Y-96174161D01*
X148033640Y-96286725D01*
X148114611Y-96385389D01*
X148213275Y-96466360D01*
X148325839Y-96526527D01*
X148447979Y-96563578D01*
X148575000Y-96576088D01*
X149425000Y-96576088D01*
X149552021Y-96563578D01*
X149674161Y-96526527D01*
X149786725Y-96466360D01*
X149885389Y-96385389D01*
X149966360Y-96286725D01*
X150026527Y-96174161D01*
X150063578Y-96052021D01*
X150076088Y-95925000D01*
X150076088Y-95075000D01*
X150063578Y-94947979D01*
X150026527Y-94825839D01*
X149966360Y-94713275D01*
X149885389Y-94614611D01*
X149786725Y-94533640D01*
X149674161Y-94473473D01*
X149552021Y-94436422D01*
X149425000Y-94423912D01*
X148575000Y-94423912D01*
X148447979Y-94436422D01*
X148325839Y-94473473D01*
X148213275Y-94533640D01*
X148114611Y-94614611D01*
X148033640Y-94713275D01*
X147973473Y-94825839D01*
X147936422Y-94947979D01*
X147923912Y-95075000D01*
X145576088Y-95075000D01*
X145576088Y-94600000D01*
X145571744Y-94555892D01*
X145558878Y-94513480D01*
X145537985Y-94474392D01*
X145509868Y-94440132D01*
X145475608Y-94412015D01*
X145436520Y-94391122D01*
X145394108Y-94378256D01*
X145350000Y-94373912D01*
X144925000Y-94373912D01*
X144925000Y-80650000D01*
X147423912Y-80650000D01*
X147423912Y-82350000D01*
X147428256Y-82394108D01*
X147441122Y-82436520D01*
X147462015Y-82475608D01*
X147490132Y-82509868D01*
X147524392Y-82537985D01*
X147563480Y-82558878D01*
X147605892Y-82571744D01*
X147650000Y-82576088D01*
X149350000Y-82576088D01*
X149394108Y-82571744D01*
X149436520Y-82558878D01*
X149475608Y-82537985D01*
X149509868Y-82509868D01*
X149537985Y-82475608D01*
X149558878Y-82436520D01*
X149571744Y-82394108D01*
X149576088Y-82350000D01*
X149576088Y-80700000D01*
X151223912Y-80700000D01*
X151223912Y-82400000D01*
X151228256Y-82444108D01*
X151241122Y-82486520D01*
X151262015Y-82525608D01*
X151290132Y-82559868D01*
X151324392Y-82587985D01*
X151363480Y-82608878D01*
X151405892Y-82621744D01*
X151450000Y-82626088D01*
X153150000Y-82626088D01*
X153194108Y-82621744D01*
X153236520Y-82608878D01*
X153275608Y-82587985D01*
X153309868Y-82559868D01*
X153337985Y-82525608D01*
X153358878Y-82486520D01*
X153371744Y-82444108D01*
X153376088Y-82400000D01*
X153376088Y-81444122D01*
X153765000Y-81444122D01*
X153765000Y-81655878D01*
X153806312Y-81863566D01*
X153887348Y-82059203D01*
X154004993Y-82235272D01*
X154154728Y-82385007D01*
X154330797Y-82502652D01*
X154526434Y-82583688D01*
X154734122Y-82625000D01*
X154945878Y-82625000D01*
X155153566Y-82583688D01*
X155349203Y-82502652D01*
X155525272Y-82385007D01*
X155675007Y-82235272D01*
X155792652Y-82059203D01*
X155873688Y-81863566D01*
X155915000Y-81655878D01*
X155915000Y-81444122D01*
X155873688Y-81236434D01*
X155792652Y-81040797D01*
X155675007Y-80864728D01*
X155525272Y-80714993D01*
X155349203Y-80597348D01*
X155153566Y-80516312D01*
X154945878Y-80475000D01*
X154734122Y-80475000D01*
X154526434Y-80516312D01*
X154330797Y-80597348D01*
X154154728Y-80714993D01*
X154004993Y-80864728D01*
X153887348Y-81040797D01*
X153806312Y-81236434D01*
X153765000Y-81444122D01*
X153376088Y-81444122D01*
X153376088Y-80700000D01*
X153371744Y-80655892D01*
X153358878Y-80613480D01*
X153337985Y-80574392D01*
X153309868Y-80540132D01*
X153275608Y-80512015D01*
X153236520Y-80491122D01*
X153194108Y-80478256D01*
X153150000Y-80473912D01*
X151450000Y-80473912D01*
X151405892Y-80478256D01*
X151363480Y-80491122D01*
X151324392Y-80512015D01*
X151290132Y-80540132D01*
X151262015Y-80574392D01*
X151241122Y-80613480D01*
X151228256Y-80655892D01*
X151223912Y-80700000D01*
X149576088Y-80700000D01*
X149576088Y-80650000D01*
X149571744Y-80605892D01*
X149558878Y-80563480D01*
X149537985Y-80524392D01*
X149509868Y-80490132D01*
X149475608Y-80462015D01*
X149436520Y-80441122D01*
X149394108Y-80428256D01*
X149350000Y-80423912D01*
X147650000Y-80423912D01*
X147605892Y-80428256D01*
X147563480Y-80441122D01*
X147524392Y-80462015D01*
X147490132Y-80490132D01*
X147462015Y-80524392D01*
X147441122Y-80563480D01*
X147428256Y-80605892D01*
X147423912Y-80650000D01*
X144925000Y-80650000D01*
X144925000Y-74325140D01*
X144954824Y-74253137D01*
X144975000Y-74151708D01*
X144975000Y-74048292D01*
X144954824Y-73946863D01*
X144915249Y-73851319D01*
X144857794Y-73765332D01*
X144784668Y-73692206D01*
X144698681Y-73634751D01*
X144603137Y-73595176D01*
X144501708Y-73575000D01*
X144398292Y-73575000D01*
X144296863Y-73595176D01*
X144201319Y-73634751D01*
X144115332Y-73692206D01*
X144042206Y-73765332D01*
X143984751Y-73851319D01*
X143945176Y-73946863D01*
X143925000Y-74048292D01*
X143925000Y-74151708D01*
X143945176Y-74253137D01*
X143975000Y-74325140D01*
X143975001Y-94373912D01*
X143650000Y-94373912D01*
X143605892Y-94378256D01*
X143563480Y-94391122D01*
X143524392Y-94412015D01*
X143490132Y-94440132D01*
X143462015Y-94474392D01*
X143441122Y-94513480D01*
X143428256Y-94555892D01*
X143423912Y-94600000D01*
X132975000Y-94600000D01*
X132975000Y-89975140D01*
X133004824Y-89903137D01*
X133025000Y-89801708D01*
X133025000Y-89698292D01*
X133004824Y-89596863D01*
X132965249Y-89501319D01*
X132907794Y-89415332D01*
X132834668Y-89342206D01*
X132748681Y-89284751D01*
X132653137Y-89245176D01*
X132551708Y-89225000D01*
X132448292Y-89225000D01*
X132346863Y-89245176D01*
X132251319Y-89284751D01*
X132165332Y-89342206D01*
X132092206Y-89415332D01*
X132034751Y-89501319D01*
X131995176Y-89596863D01*
X131975000Y-89698292D01*
X118986120Y-89698292D01*
X119004824Y-89653137D01*
X119025000Y-89551708D01*
X119025000Y-89448292D01*
X119004824Y-89346863D01*
X118975000Y-89274860D01*
X118975000Y-82374541D01*
X119047348Y-82549203D01*
X119164993Y-82725272D01*
X119314728Y-82875007D01*
X119490797Y-82992652D01*
X119686434Y-83073688D01*
X119894122Y-83115000D01*
X120105878Y-83115000D01*
X120313566Y-83073688D01*
X120509203Y-82992652D01*
X120685272Y-82875007D01*
X120835007Y-82725272D01*
X120952652Y-82549203D01*
X121033688Y-82353566D01*
X121075000Y-82145878D01*
X121075000Y-81934122D01*
X121033688Y-81726434D01*
X120952652Y-81530797D01*
X120835007Y-81354728D01*
X120685272Y-81204993D01*
X120602969Y-81150000D01*
X122923912Y-81150000D01*
X122923912Y-82850000D01*
X122928256Y-82894108D01*
X122941122Y-82936520D01*
X122962015Y-82975608D01*
X122990132Y-83009868D01*
X123024392Y-83037985D01*
X123063480Y-83058878D01*
X123105892Y-83071744D01*
X123150000Y-83076088D01*
X124850000Y-83076088D01*
X124894108Y-83071744D01*
X124936520Y-83058878D01*
X124975608Y-83037985D01*
X125009868Y-83009868D01*
X125037985Y-82975608D01*
X125058878Y-82936520D01*
X125071744Y-82894108D01*
X125076088Y-82850000D01*
X125076088Y-81934122D01*
X126925000Y-81934122D01*
X126925000Y-82145878D01*
X126966312Y-82353566D01*
X127047348Y-82549203D01*
X127164993Y-82725272D01*
X127314728Y-82875007D01*
X127490797Y-82992652D01*
X127686434Y-83073688D01*
X127894122Y-83115000D01*
X128105878Y-83115000D01*
X128313566Y-83073688D01*
X128509203Y-82992652D01*
X128685272Y-82875007D01*
X128835007Y-82725272D01*
X128952652Y-82549203D01*
X129033688Y-82353566D01*
X129075000Y-82145878D01*
X129075000Y-81934122D01*
X129033688Y-81726434D01*
X128952652Y-81530797D01*
X128835007Y-81354728D01*
X128685272Y-81204993D01*
X128509203Y-81087348D01*
X128313566Y-81006312D01*
X128105878Y-80965000D01*
X127894122Y-80965000D01*
X127686434Y-81006312D01*
X127490797Y-81087348D01*
X127314728Y-81204993D01*
X127164993Y-81354728D01*
X127047348Y-81530797D01*
X126966312Y-81726434D01*
X126925000Y-81934122D01*
X125076088Y-81934122D01*
X125076088Y-81150000D01*
X125071744Y-81105892D01*
X125058878Y-81063480D01*
X125037985Y-81024392D01*
X125009868Y-80990132D01*
X124975608Y-80962015D01*
X124936520Y-80941122D01*
X124894108Y-80928256D01*
X124850000Y-80923912D01*
X123150000Y-80923912D01*
X123105892Y-80928256D01*
X123063480Y-80941122D01*
X123024392Y-80962015D01*
X122990132Y-80990132D01*
X122962015Y-81024392D01*
X122941122Y-81063480D01*
X122928256Y-81105892D01*
X122923912Y-81150000D01*
X120602969Y-81150000D01*
X120509203Y-81087348D01*
X120313566Y-81006312D01*
X120105878Y-80965000D01*
X119894122Y-80965000D01*
X119686434Y-81006312D01*
X119490797Y-81087348D01*
X119314728Y-81204993D01*
X119164993Y-81354728D01*
X119047348Y-81530797D01*
X118975000Y-81705459D01*
X118975000Y-80491430D01*
X118990132Y-80509868D01*
X119024392Y-80537985D01*
X119063480Y-80558878D01*
X119105892Y-80571744D01*
X119150000Y-80576088D01*
X120850000Y-80576088D01*
X120894108Y-80571744D01*
X120936520Y-80558878D01*
X120975608Y-80537985D01*
X121009868Y-80509868D01*
X121037985Y-80475608D01*
X121058878Y-80436520D01*
X121071744Y-80394108D01*
X121076088Y-80350000D01*
X121076088Y-79354122D01*
X122925000Y-79354122D01*
X122925000Y-79565878D01*
X122966312Y-79773566D01*
X123047348Y-79969203D01*
X123164993Y-80145272D01*
X123314728Y-80295007D01*
X123490797Y-80412652D01*
X123686434Y-80493688D01*
X123894122Y-80535000D01*
X124105878Y-80535000D01*
X124313566Y-80493688D01*
X124509203Y-80412652D01*
X124685272Y-80295007D01*
X124835007Y-80145272D01*
X124952652Y-79969203D01*
X125033688Y-79773566D01*
X125075000Y-79565878D01*
X125075000Y-79354122D01*
X125033688Y-79146434D01*
X124952652Y-78950797D01*
X124835007Y-78774728D01*
X124710279Y-78650000D01*
X126923912Y-78650000D01*
X126923912Y-80350000D01*
X126928256Y-80394108D01*
X126941122Y-80436520D01*
X126962015Y-80475608D01*
X126990132Y-80509868D01*
X127024392Y-80537985D01*
X127063480Y-80558878D01*
X127105892Y-80571744D01*
X127150000Y-80576088D01*
X128850000Y-80576088D01*
X128894108Y-80571744D01*
X128936520Y-80558878D01*
X128975608Y-80537985D01*
X129009868Y-80509868D01*
X129037985Y-80475608D01*
X129058878Y-80436520D01*
X129071744Y-80394108D01*
X129076088Y-80350000D01*
X129076088Y-78650000D01*
X129071744Y-78605892D01*
X129058878Y-78563480D01*
X129037985Y-78524392D01*
X129009868Y-78490132D01*
X128975608Y-78462015D01*
X128936520Y-78441122D01*
X128894108Y-78428256D01*
X128850000Y-78423912D01*
X127150000Y-78423912D01*
X127105892Y-78428256D01*
X127063480Y-78441122D01*
X127024392Y-78462015D01*
X126990132Y-78490132D01*
X126962015Y-78524392D01*
X126941122Y-78563480D01*
X126928256Y-78605892D01*
X126923912Y-78650000D01*
X124710279Y-78650000D01*
X124685272Y-78624993D01*
X124509203Y-78507348D01*
X124313566Y-78426312D01*
X124105878Y-78385000D01*
X123894122Y-78385000D01*
X123686434Y-78426312D01*
X123490797Y-78507348D01*
X123314728Y-78624993D01*
X123164993Y-78774728D01*
X123047348Y-78950797D01*
X122966312Y-79146434D01*
X122925000Y-79354122D01*
X121076088Y-79354122D01*
X121076088Y-78650000D01*
X121071744Y-78605892D01*
X121058878Y-78563480D01*
X121037985Y-78524392D01*
X121009868Y-78490132D01*
X120975608Y-78462015D01*
X120936520Y-78441122D01*
X120894108Y-78428256D01*
X120850000Y-78423912D01*
X119150000Y-78423912D01*
X119105892Y-78428256D01*
X119063480Y-78441122D01*
X119024392Y-78462015D01*
X118990132Y-78490132D01*
X118975000Y-78508570D01*
X118975000Y-75023331D01*
X118977298Y-74999999D01*
X118968127Y-74906883D01*
X118947878Y-74840132D01*
X118940966Y-74817346D01*
X118896859Y-74734827D01*
X118837501Y-74662499D01*
X118819372Y-74647621D01*
X115321751Y-71150000D01*
X118923912Y-71150000D01*
X118923912Y-72850000D01*
X118928256Y-72894108D01*
X118941122Y-72936520D01*
X118962015Y-72975608D01*
X118990132Y-73009868D01*
X119024392Y-73037985D01*
X119063480Y-73058878D01*
X119105892Y-73071744D01*
X119150000Y-73076088D01*
X120850000Y-73076088D01*
X120894108Y-73071744D01*
X120936520Y-73058878D01*
X120975608Y-73037985D01*
X121009868Y-73009868D01*
X121037985Y-72975608D01*
X121058878Y-72936520D01*
X121071744Y-72894108D01*
X121076088Y-72850000D01*
X121076088Y-71150000D01*
X122923912Y-71150000D01*
X122923912Y-72850000D01*
X122928256Y-72894108D01*
X122941122Y-72936520D01*
X122962015Y-72975608D01*
X122990132Y-73009868D01*
X123024392Y-73037985D01*
X123063480Y-73058878D01*
X123105892Y-73071744D01*
X123150000Y-73076088D01*
X124850000Y-73076088D01*
X124894108Y-73071744D01*
X124936520Y-73058878D01*
X124975608Y-73037985D01*
X125009868Y-73009868D01*
X125037985Y-72975608D01*
X125058878Y-72936520D01*
X125071744Y-72894108D01*
X125076088Y-72850000D01*
X125076088Y-71934122D01*
X126925000Y-71934122D01*
X126925000Y-72145878D01*
X126966312Y-72353566D01*
X127047348Y-72549203D01*
X127164993Y-72725272D01*
X127314728Y-72875007D01*
X127490797Y-72992652D01*
X127686434Y-73073688D01*
X127894122Y-73115000D01*
X128105878Y-73115000D01*
X128313566Y-73073688D01*
X128509203Y-72992652D01*
X128685272Y-72875007D01*
X128835007Y-72725272D01*
X128952652Y-72549203D01*
X129033688Y-72353566D01*
X129075000Y-72145878D01*
X129075000Y-71934122D01*
X129033688Y-71726434D01*
X128952652Y-71530797D01*
X128835007Y-71354728D01*
X128685272Y-71204993D01*
X128509203Y-71087348D01*
X128313566Y-71006312D01*
X128105878Y-70965000D01*
X127894122Y-70965000D01*
X127686434Y-71006312D01*
X127490797Y-71087348D01*
X127314728Y-71204993D01*
X127164993Y-71354728D01*
X127047348Y-71530797D01*
X126966312Y-71726434D01*
X126925000Y-71934122D01*
X125076088Y-71934122D01*
X125076088Y-71150000D01*
X125071744Y-71105892D01*
X125058878Y-71063480D01*
X125037985Y-71024392D01*
X125009868Y-70990132D01*
X124975608Y-70962015D01*
X124936520Y-70941122D01*
X124894108Y-70928256D01*
X124850000Y-70923912D01*
X123150000Y-70923912D01*
X123105892Y-70928256D01*
X123063480Y-70941122D01*
X123024392Y-70962015D01*
X122990132Y-70990132D01*
X122962015Y-71024392D01*
X122941122Y-71063480D01*
X122928256Y-71105892D01*
X122923912Y-71150000D01*
X121076088Y-71150000D01*
X121071744Y-71105892D01*
X121058878Y-71063480D01*
X121037985Y-71024392D01*
X121009868Y-70990132D01*
X120975608Y-70962015D01*
X120936520Y-70941122D01*
X120894108Y-70928256D01*
X120850000Y-70923912D01*
X119150000Y-70923912D01*
X119105892Y-70928256D01*
X119063480Y-70941122D01*
X119024392Y-70962015D01*
X118990132Y-70990132D01*
X118962015Y-71024392D01*
X118941122Y-71063480D01*
X118928256Y-71105892D01*
X118923912Y-71150000D01*
X115321751Y-71150000D01*
X113525873Y-69354122D01*
X118925000Y-69354122D01*
X118925000Y-69565878D01*
X118966312Y-69773566D01*
X119047348Y-69969203D01*
X119164993Y-70145272D01*
X119314728Y-70295007D01*
X119490797Y-70412652D01*
X119686434Y-70493688D01*
X119894122Y-70535000D01*
X120105878Y-70535000D01*
X120313566Y-70493688D01*
X120509203Y-70412652D01*
X120685272Y-70295007D01*
X120835007Y-70145272D01*
X120952652Y-69969203D01*
X121033688Y-69773566D01*
X121075000Y-69565878D01*
X121075000Y-69354122D01*
X122925000Y-69354122D01*
X122925000Y-69565878D01*
X122966312Y-69773566D01*
X123047348Y-69969203D01*
X123164993Y-70145272D01*
X123314728Y-70295007D01*
X123490797Y-70412652D01*
X123686434Y-70493688D01*
X123894122Y-70535000D01*
X124105878Y-70535000D01*
X124313566Y-70493688D01*
X124509203Y-70412652D01*
X124685272Y-70295007D01*
X124835007Y-70145272D01*
X124952652Y-69969203D01*
X125033688Y-69773566D01*
X125075000Y-69565878D01*
X125075000Y-69354122D01*
X125033688Y-69146434D01*
X124952652Y-68950797D01*
X124835007Y-68774728D01*
X124710279Y-68650000D01*
X126923912Y-68650000D01*
X126923912Y-70350000D01*
X126928256Y-70394108D01*
X126941122Y-70436520D01*
X126962015Y-70475608D01*
X126990132Y-70509868D01*
X127024392Y-70537985D01*
X127063480Y-70558878D01*
X127105892Y-70571744D01*
X127150000Y-70576088D01*
X128850000Y-70576088D01*
X128894108Y-70571744D01*
X128936520Y-70558878D01*
X128975608Y-70537985D01*
X129009868Y-70509868D01*
X129037985Y-70475608D01*
X129058878Y-70436520D01*
X129071744Y-70394108D01*
X129076088Y-70350000D01*
X129076088Y-68650000D01*
X129071744Y-68605892D01*
X129058878Y-68563480D01*
X129037985Y-68524392D01*
X129009868Y-68490132D01*
X128975608Y-68462015D01*
X128936520Y-68441122D01*
X128894108Y-68428256D01*
X128850000Y-68423912D01*
X127150000Y-68423912D01*
X127105892Y-68428256D01*
X127063480Y-68441122D01*
X127024392Y-68462015D01*
X126990132Y-68490132D01*
X126962015Y-68524392D01*
X126941122Y-68563480D01*
X126928256Y-68605892D01*
X126923912Y-68650000D01*
X124710279Y-68650000D01*
X124685272Y-68624993D01*
X124509203Y-68507348D01*
X124313566Y-68426312D01*
X124105878Y-68385000D01*
X123894122Y-68385000D01*
X123686434Y-68426312D01*
X123490797Y-68507348D01*
X123314728Y-68624993D01*
X123164993Y-68774728D01*
X123047348Y-68950797D01*
X122966312Y-69146434D01*
X122925000Y-69354122D01*
X121075000Y-69354122D01*
X121033688Y-69146434D01*
X120952652Y-68950797D01*
X120835007Y-68774728D01*
X120685272Y-68624993D01*
X120509203Y-68507348D01*
X120313566Y-68426312D01*
X120105878Y-68385000D01*
X119894122Y-68385000D01*
X119686434Y-68426312D01*
X119490797Y-68507348D01*
X119314728Y-68624993D01*
X119164993Y-68774728D01*
X119047348Y-68950797D01*
X118966312Y-69146434D01*
X118925000Y-69354122D01*
X113525873Y-69354122D01*
X112975000Y-68803250D01*
X112975000Y-59696751D01*
X113176678Y-59495073D01*
X113248681Y-59465249D01*
X113334668Y-59407794D01*
X113407794Y-59334668D01*
X113465249Y-59248681D01*
X113504824Y-59153137D01*
X113525000Y-59051708D01*
X113525000Y-58948292D01*
X113504824Y-58846863D01*
X113465249Y-58751319D01*
X113407794Y-58665332D01*
X113334668Y-58592206D01*
X113248681Y-58534751D01*
X113153137Y-58495176D01*
X113051708Y-58475000D01*
X112948292Y-58475000D01*
X112846863Y-58495176D01*
X112751319Y-58534751D01*
X112665332Y-58592206D01*
X112592206Y-58665332D01*
X112534751Y-58751319D01*
X112504927Y-58823322D01*
X112180633Y-59147617D01*
X112162499Y-59162499D01*
X112103141Y-59234827D01*
X112059034Y-59317347D01*
X112053780Y-59334668D01*
X112031873Y-59406884D01*
X112022702Y-59500000D01*
X112025000Y-59523332D01*
X112025001Y-68976658D01*
X112022702Y-69000000D01*
X112030232Y-69076455D01*
X111915129Y-68999545D01*
X111692193Y-68907202D01*
X111455526Y-68860126D01*
X111214222Y-68860126D01*
X110977555Y-68907202D01*
X110754619Y-68999545D01*
X110553982Y-69133607D01*
X110383355Y-69304234D01*
X110249293Y-69504871D01*
X110156950Y-69727807D01*
X110109874Y-69964474D01*
X109687937Y-69964474D01*
X109811519Y-69840892D01*
X109945581Y-69640255D01*
X110037924Y-69417319D01*
X110085000Y-69180652D01*
X110085000Y-68939348D01*
X110037924Y-68702681D01*
X109945581Y-68479745D01*
X109811519Y-68279108D01*
X109640892Y-68108481D01*
X109440255Y-67974419D01*
X109217319Y-67882076D01*
X108980652Y-67835000D01*
X108739348Y-67835000D01*
X108502681Y-67882076D01*
X108279745Y-67974419D01*
X108079108Y-68108481D01*
X107908481Y-68279108D01*
X107774419Y-68479745D01*
X107682076Y-68702681D01*
X107635000Y-68939348D01*
X106820053Y-68939348D01*
X106742445Y-68907202D01*
X106505778Y-68860126D01*
X106264474Y-68860126D01*
X106027807Y-68907202D01*
X105804871Y-68999545D01*
X105604234Y-69133607D01*
X105433607Y-69304234D01*
X105299545Y-69504871D01*
X105207202Y-69727807D01*
X105160126Y-69964474D01*
X100250000Y-69964474D01*
X100250000Y-63850000D01*
X101873669Y-63850000D01*
X101878979Y-63903910D01*
X101894703Y-63955747D01*
X101920239Y-64003521D01*
X101954604Y-64045396D01*
X101996479Y-64079761D01*
X102044253Y-64105297D01*
X102096090Y-64121021D01*
X102150000Y-64126331D01*
X102906250Y-64125000D01*
X102975000Y-64056250D01*
X102975000Y-63025000D01*
X103025000Y-63025000D01*
X103025000Y-64056250D01*
X103093750Y-64125000D01*
X103850000Y-64126331D01*
X103903910Y-64121021D01*
X103955747Y-64105297D01*
X104003521Y-64079761D01*
X104045396Y-64045396D01*
X104079761Y-64003521D01*
X104105297Y-63955747D01*
X104121021Y-63903910D01*
X104126331Y-63850000D01*
X104125000Y-63093750D01*
X104056250Y-63025000D01*
X103025000Y-63025000D01*
X102975000Y-63025000D01*
X101943750Y-63025000D01*
X101875000Y-63093750D01*
X101873669Y-63850000D01*
X100250000Y-63850000D01*
X100250000Y-62150000D01*
X101873669Y-62150000D01*
X101875000Y-62906250D01*
X101943750Y-62975000D01*
X102975000Y-62975000D01*
X102975000Y-61943750D01*
X103025000Y-61943750D01*
X103025000Y-62975000D01*
X104056250Y-62975000D01*
X104125000Y-62906250D01*
X104126331Y-62150000D01*
X104121021Y-62096090D01*
X104105297Y-62044253D01*
X104079761Y-61996479D01*
X104045396Y-61954604D01*
X104003521Y-61920239D01*
X103955747Y-61894703D01*
X103903910Y-61878979D01*
X103850000Y-61873669D01*
X103093750Y-61875000D01*
X103025000Y-61943750D01*
X102975000Y-61943750D01*
X102906250Y-61875000D01*
X102150000Y-61873669D01*
X102096090Y-61878979D01*
X102044253Y-61894703D01*
X101996479Y-61920239D01*
X101954604Y-61954604D01*
X101920239Y-61996479D01*
X101894703Y-62044253D01*
X101878979Y-62096090D01*
X101873669Y-62150000D01*
X100250000Y-62150000D01*
X100250000Y-57948292D01*
X127975000Y-57948292D01*
X127975000Y-58051708D01*
X127995176Y-58153137D01*
X128025000Y-58225140D01*
X128025001Y-65976658D01*
X128022702Y-66000000D01*
X128031873Y-66093116D01*
X128059035Y-66182654D01*
X128103142Y-66265173D01*
X128162500Y-66337501D01*
X128180629Y-66352379D01*
X130025000Y-68196751D01*
X130025001Y-85976658D01*
X130022702Y-86000000D01*
X130031873Y-86093116D01*
X130059035Y-86182654D01*
X130103142Y-86265173D01*
X130162500Y-86337501D01*
X130180629Y-86352379D01*
X134012500Y-90184252D01*
X134012501Y-93287358D01*
X133982676Y-93359363D01*
X133962500Y-93460792D01*
X133962500Y-93564208D01*
X133982676Y-93665637D01*
X134022251Y-93761181D01*
X134079706Y-93847168D01*
X134152832Y-93920294D01*
X134238819Y-93977749D01*
X134334363Y-94017324D01*
X134435792Y-94037500D01*
X134539208Y-94037500D01*
X134640637Y-94017324D01*
X134736181Y-93977749D01*
X134822168Y-93920294D01*
X134895294Y-93847168D01*
X134952749Y-93761181D01*
X134992324Y-93665637D01*
X135012500Y-93564208D01*
X135012500Y-93460792D01*
X134992324Y-93359363D01*
X134962500Y-93287360D01*
X134962500Y-90010832D01*
X134964798Y-89987500D01*
X134955627Y-89894384D01*
X134928466Y-89804846D01*
X134884359Y-89722327D01*
X134839874Y-89668122D01*
X134825001Y-89649999D01*
X134806877Y-89635125D01*
X130975000Y-85803250D01*
X130975000Y-77894122D01*
X131385000Y-77894122D01*
X131385000Y-78105878D01*
X131426312Y-78313566D01*
X131507348Y-78509203D01*
X131624993Y-78685272D01*
X131774728Y-78835007D01*
X131950797Y-78952652D01*
X132146434Y-79033688D01*
X132354122Y-79075000D01*
X132565878Y-79075000D01*
X132773566Y-79033688D01*
X132969203Y-78952652D01*
X133145272Y-78835007D01*
X133295007Y-78685272D01*
X133412652Y-78509203D01*
X133493688Y-78313566D01*
X133535000Y-78105878D01*
X133535000Y-77894122D01*
X133493688Y-77686434D01*
X133412652Y-77490797D01*
X133295007Y-77314728D01*
X133145272Y-77164993D01*
X133122834Y-77150000D01*
X133923912Y-77150000D01*
X133923912Y-78850000D01*
X133928256Y-78894108D01*
X133941122Y-78936520D01*
X133962015Y-78975608D01*
X133990132Y-79009868D01*
X134024392Y-79037985D01*
X134063480Y-79058878D01*
X134105892Y-79071744D01*
X134150000Y-79076088D01*
X135850000Y-79076088D01*
X135894108Y-79071744D01*
X135936520Y-79058878D01*
X135975608Y-79037985D01*
X136009868Y-79009868D01*
X136037985Y-78975608D01*
X136058878Y-78936520D01*
X136071744Y-78894108D01*
X136076088Y-78850000D01*
X136076088Y-77150000D01*
X136071744Y-77105892D01*
X136058878Y-77063480D01*
X136037985Y-77024392D01*
X136009868Y-76990132D01*
X135975608Y-76962015D01*
X135936520Y-76941122D01*
X135894108Y-76928256D01*
X135850000Y-76923912D01*
X134150000Y-76923912D01*
X134105892Y-76928256D01*
X134063480Y-76941122D01*
X134024392Y-76962015D01*
X133990132Y-76990132D01*
X133962015Y-77024392D01*
X133941122Y-77063480D01*
X133928256Y-77105892D01*
X133923912Y-77150000D01*
X133122834Y-77150000D01*
X132969203Y-77047348D01*
X132773566Y-76966312D01*
X132565878Y-76925000D01*
X132354122Y-76925000D01*
X132146434Y-76966312D01*
X131950797Y-77047348D01*
X131774728Y-77164993D01*
X131624993Y-77314728D01*
X131507348Y-77490797D01*
X131426312Y-77686434D01*
X131385000Y-77894122D01*
X130975000Y-77894122D01*
X130975000Y-70150000D01*
X144923912Y-70150000D01*
X144923912Y-71850000D01*
X144928256Y-71894108D01*
X144941122Y-71936520D01*
X144962015Y-71975608D01*
X144990132Y-72009868D01*
X145024392Y-72037985D01*
X145063480Y-72058878D01*
X145105892Y-72071744D01*
X145150000Y-72076088D01*
X146850000Y-72076088D01*
X146894108Y-72071744D01*
X146936520Y-72058878D01*
X146975608Y-72037985D01*
X147009868Y-72009868D01*
X147037985Y-71975608D01*
X147058878Y-71936520D01*
X147071744Y-71894108D01*
X147076088Y-71850000D01*
X147076088Y-70150000D01*
X147071744Y-70105892D01*
X147058878Y-70063480D01*
X147037985Y-70024392D01*
X147009868Y-69990132D01*
X146975608Y-69962015D01*
X146936520Y-69941122D01*
X146894108Y-69928256D01*
X146850000Y-69923912D01*
X145150000Y-69923912D01*
X145105892Y-69928256D01*
X145063480Y-69941122D01*
X145024392Y-69962015D01*
X144990132Y-69990132D01*
X144962015Y-70024392D01*
X144941122Y-70063480D01*
X144928256Y-70105892D01*
X144923912Y-70150000D01*
X130975000Y-70150000D01*
X130975000Y-68023331D01*
X130977298Y-67999999D01*
X130968127Y-67906883D01*
X130946321Y-67835000D01*
X130940966Y-67817346D01*
X130896859Y-67734827D01*
X130837501Y-67662499D01*
X130819372Y-67647621D01*
X130620043Y-67448292D01*
X155475000Y-67448292D01*
X155475000Y-67551708D01*
X155495176Y-67653137D01*
X155534751Y-67748681D01*
X155592206Y-67834668D01*
X155665332Y-67907794D01*
X155751319Y-67965249D01*
X155823323Y-67995073D01*
X156025000Y-68196751D01*
X156025001Y-84803248D01*
X155680633Y-85147617D01*
X155662499Y-85162499D01*
X155603141Y-85234827D01*
X155559034Y-85317347D01*
X155540112Y-85379723D01*
X155531873Y-85406884D01*
X155522702Y-85500000D01*
X155525000Y-85523332D01*
X155525001Y-95274858D01*
X155495176Y-95346863D01*
X155475000Y-95448292D01*
X155475000Y-95551708D01*
X155495176Y-95653137D01*
X155534751Y-95748681D01*
X155592206Y-95834668D01*
X155665332Y-95907794D01*
X155751319Y-95965249D01*
X155846863Y-96004824D01*
X155948292Y-96025000D01*
X156051708Y-96025000D01*
X156153137Y-96004824D01*
X156248681Y-95965249D01*
X156334668Y-95907794D01*
X156407794Y-95834668D01*
X156465249Y-95748681D01*
X156504824Y-95653137D01*
X156525000Y-95551708D01*
X156525000Y-95448292D01*
X156504824Y-95346863D01*
X156475000Y-95274860D01*
X156475000Y-86650000D01*
X156923912Y-86650000D01*
X156923912Y-88350000D01*
X156928256Y-88394108D01*
X156941122Y-88436520D01*
X156962015Y-88475608D01*
X156990132Y-88509868D01*
X157024392Y-88537985D01*
X157063480Y-88558878D01*
X157105892Y-88571744D01*
X157150000Y-88576088D01*
X158850000Y-88576088D01*
X158894108Y-88571744D01*
X158936520Y-88558878D01*
X158975608Y-88537985D01*
X159009868Y-88509868D01*
X159037985Y-88475608D01*
X159058878Y-88436520D01*
X159071744Y-88394108D01*
X159076088Y-88350000D01*
X159076088Y-86650000D01*
X159071744Y-86605892D01*
X159058878Y-86563480D01*
X159037985Y-86524392D01*
X159009868Y-86490132D01*
X158975608Y-86462015D01*
X158936520Y-86441122D01*
X158894108Y-86428256D01*
X158850000Y-86423912D01*
X157150000Y-86423912D01*
X157105892Y-86428256D01*
X157063480Y-86441122D01*
X157024392Y-86462015D01*
X156990132Y-86490132D01*
X156962015Y-86524392D01*
X156941122Y-86563480D01*
X156928256Y-86605892D01*
X156923912Y-86650000D01*
X156475000Y-86650000D01*
X156475000Y-85696751D01*
X156819376Y-85352375D01*
X156837501Y-85337501D01*
X156896859Y-85265173D01*
X156925602Y-85211398D01*
X156940966Y-85182655D01*
X156968127Y-85093116D01*
X156977298Y-85000000D01*
X156975000Y-84976668D01*
X156975000Y-68023332D01*
X156977298Y-68000000D01*
X156968127Y-67906884D01*
X156940966Y-67817345D01*
X156925602Y-67788602D01*
X156896859Y-67734827D01*
X156837501Y-67662499D01*
X156819376Y-67647625D01*
X156495073Y-67323323D01*
X156465249Y-67251319D01*
X156407794Y-67165332D01*
X156334668Y-67092206D01*
X156248681Y-67034751D01*
X156153137Y-66995176D01*
X156051708Y-66975000D01*
X155948292Y-66975000D01*
X155846863Y-66995176D01*
X155751319Y-67034751D01*
X155665332Y-67092206D01*
X155592206Y-67165332D01*
X155534751Y-67251319D01*
X155495176Y-67346863D01*
X155475000Y-67448292D01*
X130620043Y-67448292D01*
X128975000Y-65803250D01*
X128975000Y-58225140D01*
X129004824Y-58153137D01*
X129025000Y-58051708D01*
X129025000Y-57948292D01*
X129004824Y-57846863D01*
X128965249Y-57751319D01*
X128907794Y-57665332D01*
X128834668Y-57592206D01*
X128748681Y-57534751D01*
X128653137Y-57495176D01*
X128551708Y-57475000D01*
X128448292Y-57475000D01*
X128346863Y-57495176D01*
X128251319Y-57534751D01*
X128165332Y-57592206D01*
X128092206Y-57665332D01*
X128034751Y-57751319D01*
X127995176Y-57846863D01*
X127975000Y-57948292D01*
X100250000Y-57948292D01*
X100250000Y-55011131D01*
X100326049Y-54159022D01*
X100548842Y-53344629D01*
X100912330Y-52582560D01*
X101405025Y-51896902D01*
X102011352Y-51309330D01*
X102712146Y-50838416D01*
X103485265Y-50499040D01*
X104308170Y-50301478D01*
X105009173Y-50250000D01*
X207988869Y-50250000D01*
X208840978Y-50326049D01*
G37*
%TD.AperFunction*%
%TD*%
M02*
