%TF.GenerationSoftware,KiCad,Pcbnew,(5.1.10)-1*%
%TF.CreationDate,2022-05-25T15:21:49+02:00*%
%TF.ProjectId,NGL_Proto_EURO,4e474c5f-5072-46f7-946f-5f4555524f2e,V1*%
%TF.SameCoordinates,Original*%
%TF.FileFunction,Soldermask,Bot*%
%TF.FilePolarity,Negative*%
%FSLAX46Y46*%
G04 Gerber Fmt 4.6, Leading zero omitted, Abs format (unit mm)*
G04 Created by KiCad (PCBNEW (5.1.10)-1) date 2022-05-25 15:21:49*
%MOMM*%
%LPD*%
G01*
G04 APERTURE LIST*
%ADD10C,2.090000*%
%ADD11C,1.478000*%
%ADD12R,1.478000X1.478000*%
%ADD13C,1.498600*%
%ADD14R,1.498600X1.498600*%
%ADD15C,2.390000*%
%ADD16C,3.550000*%
%ADD17C,1.980000*%
%ADD18C,2.450000*%
%ADD19R,2.450000X2.450000*%
%ADD20O,1.700000X1.700000*%
%ADD21R,1.700000X1.700000*%
%ADD22R,1.800000X1.800000*%
%ADD23C,1.800000*%
%ADD24C,2.000000*%
G04 APERTURE END LIST*
D10*
%TO.C,J3*%
X107500000Y-89920000D03*
X107500000Y-100080000D03*
D11*
X112580000Y-92460000D03*
D12*
X112580000Y-95000000D03*
%TD*%
D13*
%TO.C,SW3*%
X173999999Y-68499999D03*
X173999999Y-73000000D03*
X180500001Y-73000000D03*
D14*
X180500001Y-68499999D03*
%TD*%
D13*
%TO.C,SW4*%
X173999999Y-89999999D03*
X173999999Y-94500000D03*
X180500001Y-94500000D03*
D14*
X180500001Y-89999999D03*
%TD*%
D15*
%TO.C,BT1*%
X128890000Y-116870000D03*
D16*
X192470000Y-116870000D03*
X137270000Y-101130000D03*
D17*
X201110000Y-109000000D03*
X128890000Y-109000000D03*
%TD*%
D18*
%TO.C,S1*%
X121500000Y-100800000D03*
X121500000Y-105500000D03*
D19*
X121500000Y-110200000D03*
%TD*%
D20*
%TO.C,J5*%
X197120000Y-96550000D03*
X194580000Y-96550000D03*
X192040000Y-96550000D03*
D21*
X189500000Y-96550000D03*
%TD*%
%TO.C,J2*%
X206500000Y-107080000D03*
D20*
X206500000Y-104540000D03*
X206500000Y-102000000D03*
X206500000Y-99460000D03*
%TD*%
D22*
%TO.C,D10*%
X194000000Y-62500000D03*
D23*
X196540000Y-62500000D03*
%TD*%
D21*
%TO.C,J4*%
X192000000Y-67500000D03*
D20*
X194540000Y-67500000D03*
X197080000Y-67500000D03*
X199620000Y-67500000D03*
X202160000Y-67500000D03*
X204700000Y-67500000D03*
%TD*%
D21*
%TO.C,J6*%
X187460000Y-52000000D03*
D20*
X190000000Y-52000000D03*
X192540000Y-52000000D03*
%TD*%
%TO.C,JP1*%
X124000000Y-79460000D03*
D21*
X124000000Y-82000000D03*
%TD*%
%TO.C,JP2*%
X124000000Y-72000000D03*
D20*
X124000000Y-69460000D03*
%TD*%
D21*
%TO.C,JP3*%
X152300000Y-81550000D03*
D20*
X154840000Y-81550000D03*
%TD*%
D21*
%TO.C,JP4*%
X128000000Y-69500000D03*
D20*
X128000000Y-72040000D03*
%TD*%
%TO.C,JP8*%
X120000000Y-82040000D03*
D21*
X120000000Y-79500000D03*
%TD*%
%TO.C,JP9*%
X128000000Y-79500000D03*
D20*
X128000000Y-82040000D03*
%TD*%
%TO.C,JP10*%
X120000000Y-69460000D03*
D21*
X120000000Y-72000000D03*
%TD*%
D20*
%TO.C,JP11*%
X132460000Y-78000000D03*
D21*
X135000000Y-78000000D03*
%TD*%
%TO.C,TP2*%
X180500000Y-54000000D03*
%TD*%
%TO.C,TP7*%
X144500000Y-95450000D03*
%TD*%
%TO.C,TP8*%
G36*
G01*
X148150000Y-95925000D02*
X148150000Y-95075000D01*
G75*
G02*
X148575000Y-94650000I425000J0D01*
G01*
X149425000Y-94650000D01*
G75*
G02*
X149850000Y-95075000I0J-425000D01*
G01*
X149850000Y-95925000D01*
G75*
G02*
X149425000Y-96350000I-425000J0D01*
G01*
X148575000Y-96350000D01*
G75*
G02*
X148150000Y-95925000I0J425000D01*
G01*
G37*
%TD*%
%TO.C,TP4*%
X183900000Y-82400000D03*
%TD*%
%TO.C,TP1*%
X146000000Y-71000000D03*
%TD*%
%TO.C,TP3*%
X148500000Y-81500000D03*
%TD*%
%TO.C,TP5*%
X167500000Y-54000000D03*
%TD*%
%TO.C,TP11*%
X158000000Y-87500000D03*
%TD*%
%TO.C,TP12*%
X174750000Y-75850000D03*
%TD*%
D24*
%TO.C,J1*%
X111334874Y-75034874D03*
X108860000Y-76060000D03*
X108294315Y-73125685D03*
X105360000Y-72560000D03*
X106385126Y-70085126D03*
X108860000Y-69060000D03*
X111334874Y-70085126D03*
X112360000Y-72560000D03*
%TD*%
M02*
