M48
; DRILL file {KiCad (5.1.10)-1} date 06/10/22 17:40:06
; FORMAT={-:-/ absolute / inch / decimal}
; #@! TF.CreationDate,2022-06-10T17:40:06+02:00
; #@! TF.GenerationSoftware,Kicad,Pcbnew,(5.1.10)-1
; #@! TF.FileFunction,Plated,1,2,PTH
FMAT,2
INCH
T1C0.0138
T2C0.0382
T3C0.0390
T4C0.0394
T5C0.0520
T6C0.0630
T7C0.0728
%
G90
G05
T1
X4.0354Y-2.5787
X4.1132Y-4.6447
X4.1142Y-2.7165
X4.1142Y-3.0512
X4.1142Y-3.3071
X4.1142Y-3.4055
X4.1142Y-3.878
X4.1142Y-3.9961
X4.2323Y-4.1929
X4.3504Y-3.3071
X4.3504Y-3.4055
X4.4488Y-2.3228
X4.5472Y-2.0276
X4.5866Y-3.3071
X4.5866Y-3.4055
X4.5866Y-3.5433
X4.5866Y-3.7402
X4.6457Y-2.4016
X4.6457Y-2.5394
X4.6457Y-3.7402
X4.6654Y-3.5236
X4.7047Y-4.0748
X4.7244Y-4.6457
X4.8031Y-3.7402
X4.9213Y-4.3504
X4.9461Y-3.9169
X5.0468Y-2.9369
X5.0591Y-2.2835
X5.0984Y-2.0276
X5.0984Y-2.2047
X5.1378Y-3.7402
X5.1389Y-3.7765
X5.1575Y-2.5591
X5.1854Y-3.3075
X5.2165Y-3.5335
X5.2165Y-4.6654
X5.2756Y-2.1457
X5.2756Y-3.9961
X5.2756Y-4.5276
X5.2834Y-3.8647
X5.2948Y-3.6816
X5.2953Y-4.1339
X5.2953Y-4.2323
X5.2953Y-4.3307
X5.3543Y-2.2441
X5.3543Y-2.311
X5.3543Y-2.5591
X5.374Y-2.0276
X5.374Y-4.1339
X5.3799Y-2.6998
X5.4134Y-3.6024
X5.4187Y-2.647
X5.4286Y-3.2138
X5.4724Y-2.5591
X5.4724Y-4.1339
X5.4921Y-2.1654
X5.5512Y-4.1339
X5.5709Y-2.6437
X5.5709Y-3.248
X5.5709Y-3.6024
X5.6102Y-3.4055
X5.6102Y-3.5039
X5.6496Y-4.1339
X5.6496Y-4.2323
X5.6496Y-4.3307
X5.6654Y-2.6811
X5.6654Y-2.7677
X5.687Y-2.9173
X5.748Y-4.2323
X5.748Y-4.3307
X5.7692Y-4.5969
X5.7692Y-4.6275
X5.8268Y-2.6772
X5.8268Y-4.5472
X5.8465Y-2.8937
X5.8465Y-2.9724
X5.8644Y-2.4252
X5.8682Y-3.6605
X5.8745Y-2.7256
X5.9252Y-4.311
X5.9268Y-3.9458
X5.935Y-2.7579
X5.9449Y-2.2244
X5.9646Y-2.6772
X5.9783Y-2.0571
X6.0039Y-3.3465
X6.0064Y-2.4828
X6.0433Y-2.8937
X6.063Y-2.4213
X6.063Y-2.6772
X6.0827Y-3.3465
X6.1122Y-2.815
X6.1417Y-2.6575
X6.1417Y-3.7598
X6.1614Y-4.2323
X6.2008Y-3.2874
X6.224Y-4.069
X6.2402Y-2.3031
X6.2795Y-2.6378
X6.3583Y-2.0197
X6.3583Y-4.0551
X6.4173Y-3.563
X6.4173Y-3.8189
X6.4567Y-2.5787
X6.4567Y-2.874
X6.4961Y-2.0866
X6.5354Y-2.6378
X6.6142Y-2.9921
X6.6142Y-3.1299
X6.6339Y-3.7205
X6.6909Y-2.7776
X6.6929Y-4.1339
X6.7717Y-3.0709
X6.7913Y-2.5197
X6.8307Y-4.1339
X6.8504Y-3.4449
X6.8517Y-2.7485
X6.9882Y-4.1339
X7.0866Y-4.5669
X7.126Y-3.8386
X7.126Y-4.1339
X7.1437Y-4.6339
X7.1457Y-2.3425
X7.1772Y-2.4291
X7.2244Y-2.6772
X7.2254Y-2.2234
X7.2441Y-4.1339
X7.3012Y-2.0118
X7.3031Y-2.9724
X7.3031Y-3.4252
X7.3561Y-3.6639
X7.3809Y-3.9751
X7.3819Y-4.1339
X7.4154Y-2.1654
X7.4272Y-2.5197
X7.4587Y-3.5217
X7.5152Y-2.9368
X7.5177Y-2.7224
X7.5197Y-2.3425
X7.5574Y-4.026
X7.5591Y-3.878
X7.5591Y-4.2126
X7.5838Y-3.6093
X7.5863Y-4.1145
X7.6051Y-3.7606
X7.6181Y-3.3071
X7.6969Y-2.7559
X7.7165Y-2.0472
X7.7165Y-2.8937
X7.7291Y-3.1835
X7.7953Y-3.1299
X7.7953Y-3.4646
X7.815Y-4.2126
X7.8543Y-2.5768
X7.8622Y-2.4094
X7.874Y-3.7992
X7.917Y-2.9291
X7.9331Y-3.3071
X8.0315Y-2.8937
X8.0315Y-2.9331
X8.0315Y-4.1339
X8.0315Y-4.4075
X8.0315Y-4.4488
X8.0315Y-4.4488
X8.0706Y-3.6033
X8.0709Y-2.7953
X8.0709Y-2.8937
X8.0709Y-3.7598
X8.1299Y-2.5197
X8.1693Y-2.7953
X8.2874Y-2.7953
T2
X4.4323Y-3.6402
X4.4323Y-3.7402
T3
X6.8504Y-2.6969
X6.8504Y-2.874
X6.8504Y-3.5433
X6.8504Y-3.7205
X7.1063Y-2.6969
X7.1063Y-2.874
X7.1063Y-3.5433
X7.1063Y-3.7205
T4
X4.0551Y-2.4803
X4.1142Y-4.1732
X4.7244Y-2.7346
X4.7244Y-2.8346
X4.7244Y-3.1299
X4.7244Y-3.2299
X4.8819Y-2.7346
X4.8819Y-2.8346
X4.8819Y-3.1283
X4.8819Y-3.2283
X5.0394Y-2.7362
X5.0394Y-2.8362
X5.0394Y-3.1299
X5.0394Y-3.2299
X5.215Y-3.0709
X5.315Y-3.0709
X5.6839Y-2.4437
X5.689Y-3.7579
X5.748Y-2.7953
X5.8465Y-3.2087
X5.8661Y-3.7598
X5.9961Y-3.2106
X6.0961Y-3.2106
X6.2205Y-3.4449
X6.5295Y-3.7244
X6.5945Y-2.126
X6.8799Y-2.9862
X7.1063Y-2.126
X7.2402Y-3.2441
X7.3803Y-2.0472
X7.4606Y-3.8012
X7.4803Y-2.0472
X7.5591Y-2.6575
X7.5606Y-3.8012
X7.5803Y-2.0472
X7.6378Y-2.4606
X7.6591Y-2.6575
X7.6606Y-3.8012
X7.7378Y-2.4606
X7.7591Y-2.6575
X7.7606Y-3.8012
X7.8028Y-4.5063
X7.8028Y-4.6063
X7.8591Y-2.6575
X7.9591Y-2.6575
X8.0591Y-2.6575
X8.1693Y-3.7717
X8.1693Y-3.8717
X8.1693Y-3.9717
X8.1693Y-4.0717
X8.1693Y-4.1717
X8.1693Y-4.2717
X8.2677Y-2.5197
T5
X5.0744Y-4.2913
X7.9177Y-4.2913
T6
X4.148Y-2.8567
X4.1884Y-2.7593
X4.2636Y-2.879
X4.2858Y-2.7189
X4.2858Y-2.9945
X4.3833Y-2.7593
X4.3833Y-2.9541
X4.4236Y-2.8567
T7
X4.7835Y-3.9685
X4.7835Y-4.1535
X4.7835Y-4.3386
T0
M30
