%TF.GenerationSoftware,KiCad,Pcbnew,(5.1.10)-1*%
%TF.CreationDate,2022-05-25T15:21:49+02:00*%
%TF.ProjectId,NGL_Proto_EURO,4e474c5f-5072-46f7-946f-5f4555524f2e,V1*%
%TF.SameCoordinates,Original*%
%TF.FileFunction,Paste,Top*%
%TF.FilePolarity,Positive*%
%FSLAX46Y46*%
G04 Gerber Fmt 4.6, Leading zero omitted, Abs format (unit mm)*
G04 Created by KiCad (PCBNEW (5.1.10)-1) date 2022-05-25 15:21:49*
%MOMM*%
%LPD*%
G01*
G04 APERTURE LIST*
%ADD10R,1.969999X0.558000*%
%ADD11R,1.330000X1.330000*%
%ADD12R,0.900000X2.000000*%
%ADD13R,2.000000X0.900000*%
%ADD14R,0.450000X1.500000*%
%ADD15R,1.500000X0.450000*%
%ADD16R,1.300000X1.700000*%
%ADD17R,0.872800X1.690599*%
%ADD18R,1.355400X1.690599*%
%ADD19R,0.939800X1.701800*%
%ADD20R,6.604000X7.315200*%
%ADD21R,1.690599X0.872800*%
%ADD22R,1.690599X1.355400*%
G04 APERTURE END LIST*
D10*
%TO.C,U2*%
X161463800Y-57595000D03*
X161463800Y-58865000D03*
X161463800Y-60135000D03*
X161463800Y-61405000D03*
X156536200Y-61405000D03*
X156536200Y-60135000D03*
X156536200Y-58865000D03*
X156536200Y-57595000D03*
%TD*%
%TO.C,U1*%
X144463800Y-80595000D03*
X144463800Y-81865000D03*
X144463800Y-83135000D03*
X144463800Y-84405000D03*
X139536200Y-84405000D03*
X139536200Y-83135000D03*
X139536200Y-81865000D03*
X139536200Y-80595000D03*
%TD*%
%TO.C,U8*%
X169963800Y-79095000D03*
X169963800Y-80365000D03*
X169963800Y-81635000D03*
X169963800Y-82905000D03*
X165036200Y-82905000D03*
X165036200Y-81635000D03*
X165036200Y-80365000D03*
X165036200Y-79095000D03*
%TD*%
D11*
%TO.C,U4*%
X195925000Y-85835000D03*
X195925000Y-84000000D03*
X195925000Y-82165000D03*
X197760000Y-85835000D03*
X197760000Y-84000000D03*
X197760000Y-82165000D03*
X199595000Y-85835000D03*
X199595000Y-84000000D03*
X199595000Y-82165000D03*
D12*
X205260000Y-93500000D03*
X203990000Y-93500000D03*
X202720000Y-93500000D03*
X201450000Y-93500000D03*
X200180000Y-93500000D03*
X198910000Y-93500000D03*
X197640000Y-93500000D03*
X196370000Y-93500000D03*
X195100000Y-93500000D03*
X193830000Y-93500000D03*
X192560000Y-93500000D03*
X191290000Y-93500000D03*
X190020000Y-93500000D03*
X188750000Y-93500000D03*
D13*
X187750000Y-90715000D03*
X187750000Y-89445000D03*
X187750000Y-88175000D03*
X187750000Y-86905000D03*
X187750000Y-85635000D03*
X187750000Y-84365000D03*
X187750000Y-83095000D03*
X187750000Y-81825000D03*
X187750000Y-80555000D03*
X187750000Y-79285000D03*
D12*
X188750000Y-76500000D03*
X190020000Y-76500000D03*
X191290000Y-76500000D03*
X192560000Y-76500000D03*
X193830000Y-76500000D03*
X195100000Y-76500000D03*
X196370000Y-76500000D03*
X197640000Y-76500000D03*
X198910000Y-76500000D03*
X200180000Y-76500000D03*
X201450000Y-76500000D03*
X202720000Y-76500000D03*
X203990000Y-76500000D03*
X205260000Y-76500000D03*
%TD*%
D14*
%TO.C,D3*%
X162650000Y-73170000D03*
X161350000Y-73170000D03*
X162000000Y-75830000D03*
%TD*%
D15*
%TO.C,D4*%
X178170000Y-63350000D03*
X178170000Y-64650000D03*
X180830000Y-64000000D03*
%TD*%
D14*
%TO.C,D6*%
X156350000Y-54830000D03*
X157650000Y-54830000D03*
X157000000Y-52170000D03*
%TD*%
%TO.C,D11*%
X154150000Y-52170000D03*
X152850000Y-52170000D03*
X153500000Y-54830000D03*
%TD*%
%TO.C,D2*%
X164850000Y-75830000D03*
X166150000Y-75830000D03*
X165500000Y-73170000D03*
%TD*%
D15*
%TO.C,D5*%
X177170000Y-86350000D03*
X177170000Y-87650000D03*
X179830000Y-87000000D03*
%TD*%
%TO.C,C19*%
G36*
G01*
X184950000Y-60956250D02*
X184950000Y-60043750D01*
G75*
G02*
X185193750Y-59800000I243750J0D01*
G01*
X185681250Y-59800000D01*
G75*
G02*
X185925000Y-60043750I0J-243750D01*
G01*
X185925000Y-60956250D01*
G75*
G02*
X185681250Y-61200000I-243750J0D01*
G01*
X185193750Y-61200000D01*
G75*
G02*
X184950000Y-60956250I0J243750D01*
G01*
G37*
G36*
G01*
X183075000Y-60956250D02*
X183075000Y-60043750D01*
G75*
G02*
X183318750Y-59800000I243750J0D01*
G01*
X183806250Y-59800000D01*
G75*
G02*
X184050000Y-60043750I0J-243750D01*
G01*
X184050000Y-60956250D01*
G75*
G02*
X183806250Y-61200000I-243750J0D01*
G01*
X183318750Y-61200000D01*
G75*
G02*
X183075000Y-60956250I0J243750D01*
G01*
G37*
%TD*%
%TO.C,R17*%
G36*
G01*
X184050000Y-62543750D02*
X184050000Y-63456250D01*
G75*
G02*
X183806250Y-63700000I-243750J0D01*
G01*
X183318750Y-63700000D01*
G75*
G02*
X183075000Y-63456250I0J243750D01*
G01*
X183075000Y-62543750D01*
G75*
G02*
X183318750Y-62300000I243750J0D01*
G01*
X183806250Y-62300000D01*
G75*
G02*
X184050000Y-62543750I0J-243750D01*
G01*
G37*
G36*
G01*
X185925000Y-62543750D02*
X185925000Y-63456250D01*
G75*
G02*
X185681250Y-63700000I-243750J0D01*
G01*
X185193750Y-63700000D01*
G75*
G02*
X184950000Y-63456250I0J243750D01*
G01*
X184950000Y-62543750D01*
G75*
G02*
X185193750Y-62300000I243750J0D01*
G01*
X185681250Y-62300000D01*
G75*
G02*
X185925000Y-62543750I0J-243750D01*
G01*
G37*
%TD*%
%TO.C,R18*%
G36*
G01*
X209543750Y-99450000D02*
X210456250Y-99450000D01*
G75*
G02*
X210700000Y-99693750I0J-243750D01*
G01*
X210700000Y-100181250D01*
G75*
G02*
X210456250Y-100425000I-243750J0D01*
G01*
X209543750Y-100425000D01*
G75*
G02*
X209300000Y-100181250I0J243750D01*
G01*
X209300000Y-99693750D01*
G75*
G02*
X209543750Y-99450000I243750J0D01*
G01*
G37*
G36*
G01*
X209543750Y-97575000D02*
X210456250Y-97575000D01*
G75*
G02*
X210700000Y-97818750I0J-243750D01*
G01*
X210700000Y-98306250D01*
G75*
G02*
X210456250Y-98550000I-243750J0D01*
G01*
X209543750Y-98550000D01*
G75*
G02*
X209300000Y-98306250I0J243750D01*
G01*
X209300000Y-97818750D01*
G75*
G02*
X209543750Y-97575000I243750J0D01*
G01*
G37*
%TD*%
%TO.C,R21*%
G36*
G01*
X182043750Y-86075000D02*
X182956250Y-86075000D01*
G75*
G02*
X183200000Y-86318750I0J-243750D01*
G01*
X183200000Y-86806250D01*
G75*
G02*
X182956250Y-87050000I-243750J0D01*
G01*
X182043750Y-87050000D01*
G75*
G02*
X181800000Y-86806250I0J243750D01*
G01*
X181800000Y-86318750D01*
G75*
G02*
X182043750Y-86075000I243750J0D01*
G01*
G37*
G36*
G01*
X182043750Y-87950000D02*
X182956250Y-87950000D01*
G75*
G02*
X183200000Y-88193750I0J-243750D01*
G01*
X183200000Y-88681250D01*
G75*
G02*
X182956250Y-88925000I-243750J0D01*
G01*
X182043750Y-88925000D01*
G75*
G02*
X181800000Y-88681250I0J243750D01*
G01*
X181800000Y-88193750D01*
G75*
G02*
X182043750Y-87950000I243750J0D01*
G01*
G37*
%TD*%
%TO.C,R19*%
G36*
G01*
X202543750Y-100075000D02*
X203456250Y-100075000D01*
G75*
G02*
X203700000Y-100318750I0J-243750D01*
G01*
X203700000Y-100806250D01*
G75*
G02*
X203456250Y-101050000I-243750J0D01*
G01*
X202543750Y-101050000D01*
G75*
G02*
X202300000Y-100806250I0J243750D01*
G01*
X202300000Y-100318750D01*
G75*
G02*
X202543750Y-100075000I243750J0D01*
G01*
G37*
G36*
G01*
X202543750Y-101950000D02*
X203456250Y-101950000D01*
G75*
G02*
X203700000Y-102193750I0J-243750D01*
G01*
X203700000Y-102681250D01*
G75*
G02*
X203456250Y-102925000I-243750J0D01*
G01*
X202543750Y-102925000D01*
G75*
G02*
X202300000Y-102681250I0J243750D01*
G01*
X202300000Y-102193750D01*
G75*
G02*
X202543750Y-101950000I243750J0D01*
G01*
G37*
%TD*%
%TO.C,R15*%
G36*
G01*
X197050000Y-58043750D02*
X197050000Y-58956250D01*
G75*
G02*
X196806250Y-59200000I-243750J0D01*
G01*
X196318750Y-59200000D01*
G75*
G02*
X196075000Y-58956250I0J243750D01*
G01*
X196075000Y-58043750D01*
G75*
G02*
X196318750Y-57800000I243750J0D01*
G01*
X196806250Y-57800000D01*
G75*
G02*
X197050000Y-58043750I0J-243750D01*
G01*
G37*
G36*
G01*
X198925000Y-58043750D02*
X198925000Y-58956250D01*
G75*
G02*
X198681250Y-59200000I-243750J0D01*
G01*
X198193750Y-59200000D01*
G75*
G02*
X197950000Y-58956250I0J243750D01*
G01*
X197950000Y-58043750D01*
G75*
G02*
X198193750Y-57800000I243750J0D01*
G01*
X198681250Y-57800000D01*
G75*
G02*
X198925000Y-58043750I0J-243750D01*
G01*
G37*
%TD*%
%TO.C,R14*%
G36*
G01*
X113600000Y-109049998D02*
X113600000Y-109950002D01*
G75*
G02*
X113350002Y-110200000I-249998J0D01*
G01*
X112824998Y-110200000D01*
G75*
G02*
X112575000Y-109950002I0J249998D01*
G01*
X112575000Y-109049998D01*
G75*
G02*
X112824998Y-108800000I249998J0D01*
G01*
X113350002Y-108800000D01*
G75*
G02*
X113600000Y-109049998I0J-249998D01*
G01*
G37*
G36*
G01*
X115425000Y-109049998D02*
X115425000Y-109950002D01*
G75*
G02*
X115175002Y-110200000I-249998J0D01*
G01*
X114649998Y-110200000D01*
G75*
G02*
X114400000Y-109950002I0J249998D01*
G01*
X114400000Y-109049998D01*
G75*
G02*
X114649998Y-108800000I249998J0D01*
G01*
X115175002Y-108800000D01*
G75*
G02*
X115425000Y-109049998I0J-249998D01*
G01*
G37*
%TD*%
%TO.C,C2*%
G36*
G01*
X137075000Y-86956250D02*
X137075000Y-86043750D01*
G75*
G02*
X137318750Y-85800000I243750J0D01*
G01*
X137806250Y-85800000D01*
G75*
G02*
X138050000Y-86043750I0J-243750D01*
G01*
X138050000Y-86956250D01*
G75*
G02*
X137806250Y-87200000I-243750J0D01*
G01*
X137318750Y-87200000D01*
G75*
G02*
X137075000Y-86956250I0J243750D01*
G01*
G37*
G36*
G01*
X138950000Y-86956250D02*
X138950000Y-86043750D01*
G75*
G02*
X139193750Y-85800000I243750J0D01*
G01*
X139681250Y-85800000D01*
G75*
G02*
X139925000Y-86043750I0J-243750D01*
G01*
X139925000Y-86956250D01*
G75*
G02*
X139681250Y-87200000I-243750J0D01*
G01*
X139193750Y-87200000D01*
G75*
G02*
X138950000Y-86956250I0J243750D01*
G01*
G37*
%TD*%
%TO.C,C3*%
G36*
G01*
X137013000Y-89456250D02*
X137013000Y-88543750D01*
G75*
G02*
X137256750Y-88300000I243750J0D01*
G01*
X137744250Y-88300000D01*
G75*
G02*
X137988000Y-88543750I0J-243750D01*
G01*
X137988000Y-89456250D01*
G75*
G02*
X137744250Y-89700000I-243750J0D01*
G01*
X137256750Y-89700000D01*
G75*
G02*
X137013000Y-89456250I0J243750D01*
G01*
G37*
G36*
G01*
X138888000Y-89456250D02*
X138888000Y-88543750D01*
G75*
G02*
X139131750Y-88300000I243750J0D01*
G01*
X139619250Y-88300000D01*
G75*
G02*
X139863000Y-88543750I0J-243750D01*
G01*
X139863000Y-89456250D01*
G75*
G02*
X139619250Y-89700000I-243750J0D01*
G01*
X139131750Y-89700000D01*
G75*
G02*
X138888000Y-89456250I0J243750D01*
G01*
G37*
%TD*%
%TO.C,C5*%
G36*
G01*
X145950000Y-75956250D02*
X145950000Y-75043750D01*
G75*
G02*
X146193750Y-74800000I243750J0D01*
G01*
X146681250Y-74800000D01*
G75*
G02*
X146925000Y-75043750I0J-243750D01*
G01*
X146925000Y-75956250D01*
G75*
G02*
X146681250Y-76200000I-243750J0D01*
G01*
X146193750Y-76200000D01*
G75*
G02*
X145950000Y-75956250I0J243750D01*
G01*
G37*
G36*
G01*
X144075000Y-75956250D02*
X144075000Y-75043750D01*
G75*
G02*
X144318750Y-74800000I243750J0D01*
G01*
X144806250Y-74800000D01*
G75*
G02*
X145050000Y-75043750I0J-243750D01*
G01*
X145050000Y-75956250D01*
G75*
G02*
X144806250Y-76200000I-243750J0D01*
G01*
X144318750Y-76200000D01*
G75*
G02*
X144075000Y-75956250I0J243750D01*
G01*
G37*
%TD*%
%TO.C,C6*%
G36*
G01*
X145950000Y-78456250D02*
X145950000Y-77543750D01*
G75*
G02*
X146193750Y-77300000I243750J0D01*
G01*
X146681250Y-77300000D01*
G75*
G02*
X146925000Y-77543750I0J-243750D01*
G01*
X146925000Y-78456250D01*
G75*
G02*
X146681250Y-78700000I-243750J0D01*
G01*
X146193750Y-78700000D01*
G75*
G02*
X145950000Y-78456250I0J243750D01*
G01*
G37*
G36*
G01*
X144075000Y-78456250D02*
X144075000Y-77543750D01*
G75*
G02*
X144318750Y-77300000I243750J0D01*
G01*
X144806250Y-77300000D01*
G75*
G02*
X145050000Y-77543750I0J-243750D01*
G01*
X145050000Y-78456250D01*
G75*
G02*
X144806250Y-78700000I-243750J0D01*
G01*
X144318750Y-78700000D01*
G75*
G02*
X144075000Y-78456250I0J243750D01*
G01*
G37*
%TD*%
%TO.C,C8*%
G36*
G01*
X176925000Y-61043750D02*
X176925000Y-61956250D01*
G75*
G02*
X176681250Y-62200000I-243750J0D01*
G01*
X176193750Y-62200000D01*
G75*
G02*
X175950000Y-61956250I0J243750D01*
G01*
X175950000Y-61043750D01*
G75*
G02*
X176193750Y-60800000I243750J0D01*
G01*
X176681250Y-60800000D01*
G75*
G02*
X176925000Y-61043750I0J-243750D01*
G01*
G37*
G36*
G01*
X175050000Y-61043750D02*
X175050000Y-61956250D01*
G75*
G02*
X174806250Y-62200000I-243750J0D01*
G01*
X174318750Y-62200000D01*
G75*
G02*
X174075000Y-61956250I0J243750D01*
G01*
X174075000Y-61043750D01*
G75*
G02*
X174318750Y-60800000I243750J0D01*
G01*
X174806250Y-60800000D01*
G75*
G02*
X175050000Y-61043750I0J-243750D01*
G01*
G37*
%TD*%
%TO.C,C9*%
G36*
G01*
X171950000Y-61956250D02*
X171950000Y-61043750D01*
G75*
G02*
X172193750Y-60800000I243750J0D01*
G01*
X172681250Y-60800000D01*
G75*
G02*
X172925000Y-61043750I0J-243750D01*
G01*
X172925000Y-61956250D01*
G75*
G02*
X172681250Y-62200000I-243750J0D01*
G01*
X172193750Y-62200000D01*
G75*
G02*
X171950000Y-61956250I0J243750D01*
G01*
G37*
G36*
G01*
X170075000Y-61956250D02*
X170075000Y-61043750D01*
G75*
G02*
X170318750Y-60800000I243750J0D01*
G01*
X170806250Y-60800000D01*
G75*
G02*
X171050000Y-61043750I0J-243750D01*
G01*
X171050000Y-61956250D01*
G75*
G02*
X170806250Y-62200000I-243750J0D01*
G01*
X170318750Y-62200000D01*
G75*
G02*
X170075000Y-61956250I0J243750D01*
G01*
G37*
%TD*%
%TO.C,C10*%
G36*
G01*
X161075000Y-53456250D02*
X161075000Y-52543750D01*
G75*
G02*
X161318750Y-52300000I243750J0D01*
G01*
X161806250Y-52300000D01*
G75*
G02*
X162050000Y-52543750I0J-243750D01*
G01*
X162050000Y-53456250D01*
G75*
G02*
X161806250Y-53700000I-243750J0D01*
G01*
X161318750Y-53700000D01*
G75*
G02*
X161075000Y-53456250I0J243750D01*
G01*
G37*
G36*
G01*
X162950000Y-53456250D02*
X162950000Y-52543750D01*
G75*
G02*
X163193750Y-52300000I243750J0D01*
G01*
X163681250Y-52300000D01*
G75*
G02*
X163925000Y-52543750I0J-243750D01*
G01*
X163925000Y-53456250D01*
G75*
G02*
X163681250Y-53700000I-243750J0D01*
G01*
X163193750Y-53700000D01*
G75*
G02*
X162950000Y-53456250I0J243750D01*
G01*
G37*
%TD*%
%TO.C,C11*%
G36*
G01*
X154075000Y-66456250D02*
X154075000Y-65543750D01*
G75*
G02*
X154318750Y-65300000I243750J0D01*
G01*
X154806250Y-65300000D01*
G75*
G02*
X155050000Y-65543750I0J-243750D01*
G01*
X155050000Y-66456250D01*
G75*
G02*
X154806250Y-66700000I-243750J0D01*
G01*
X154318750Y-66700000D01*
G75*
G02*
X154075000Y-66456250I0J243750D01*
G01*
G37*
G36*
G01*
X155950000Y-66456250D02*
X155950000Y-65543750D01*
G75*
G02*
X156193750Y-65300000I243750J0D01*
G01*
X156681250Y-65300000D01*
G75*
G02*
X156925000Y-65543750I0J-243750D01*
G01*
X156925000Y-66456250D01*
G75*
G02*
X156681250Y-66700000I-243750J0D01*
G01*
X156193750Y-66700000D01*
G75*
G02*
X155950000Y-66456250I0J243750D01*
G01*
G37*
%TD*%
%TO.C,C12*%
G36*
G01*
X161075000Y-55956250D02*
X161075000Y-55043750D01*
G75*
G02*
X161318750Y-54800000I243750J0D01*
G01*
X161806250Y-54800000D01*
G75*
G02*
X162050000Y-55043750I0J-243750D01*
G01*
X162050000Y-55956250D01*
G75*
G02*
X161806250Y-56200000I-243750J0D01*
G01*
X161318750Y-56200000D01*
G75*
G02*
X161075000Y-55956250I0J243750D01*
G01*
G37*
G36*
G01*
X162950000Y-55956250D02*
X162950000Y-55043750D01*
G75*
G02*
X163193750Y-54800000I243750J0D01*
G01*
X163681250Y-54800000D01*
G75*
G02*
X163925000Y-55043750I0J-243750D01*
G01*
X163925000Y-55956250D01*
G75*
G02*
X163681250Y-56200000I-243750J0D01*
G01*
X163193750Y-56200000D01*
G75*
G02*
X162950000Y-55956250I0J243750D01*
G01*
G37*
%TD*%
%TO.C,C13*%
G36*
G01*
X155950000Y-63956250D02*
X155950000Y-63043750D01*
G75*
G02*
X156193750Y-62800000I243750J0D01*
G01*
X156681250Y-62800000D01*
G75*
G02*
X156925000Y-63043750I0J-243750D01*
G01*
X156925000Y-63956250D01*
G75*
G02*
X156681250Y-64200000I-243750J0D01*
G01*
X156193750Y-64200000D01*
G75*
G02*
X155950000Y-63956250I0J243750D01*
G01*
G37*
G36*
G01*
X154075000Y-63956250D02*
X154075000Y-63043750D01*
G75*
G02*
X154318750Y-62800000I243750J0D01*
G01*
X154806250Y-62800000D01*
G75*
G02*
X155050000Y-63043750I0J-243750D01*
G01*
X155050000Y-63956250D01*
G75*
G02*
X154806250Y-64200000I-243750J0D01*
G01*
X154318750Y-64200000D01*
G75*
G02*
X154075000Y-63956250I0J243750D01*
G01*
G37*
%TD*%
%TO.C,C14*%
G36*
G01*
X132543750Y-116950000D02*
X133456250Y-116950000D01*
G75*
G02*
X133700000Y-117193750I0J-243750D01*
G01*
X133700000Y-117681250D01*
G75*
G02*
X133456250Y-117925000I-243750J0D01*
G01*
X132543750Y-117925000D01*
G75*
G02*
X132300000Y-117681250I0J243750D01*
G01*
X132300000Y-117193750D01*
G75*
G02*
X132543750Y-116950000I243750J0D01*
G01*
G37*
G36*
G01*
X132543750Y-115075000D02*
X133456250Y-115075000D01*
G75*
G02*
X133700000Y-115318750I0J-243750D01*
G01*
X133700000Y-115806250D01*
G75*
G02*
X133456250Y-116050000I-243750J0D01*
G01*
X132543750Y-116050000D01*
G75*
G02*
X132300000Y-115806250I0J243750D01*
G01*
X132300000Y-115318750D01*
G75*
G02*
X132543750Y-115075000I243750J0D01*
G01*
G37*
%TD*%
%TO.C,C15*%
G36*
G01*
X144456250Y-117925000D02*
X143543750Y-117925000D01*
G75*
G02*
X143300000Y-117681250I0J243750D01*
G01*
X143300000Y-117193750D01*
G75*
G02*
X143543750Y-116950000I243750J0D01*
G01*
X144456250Y-116950000D01*
G75*
G02*
X144700000Y-117193750I0J-243750D01*
G01*
X144700000Y-117681250D01*
G75*
G02*
X144456250Y-117925000I-243750J0D01*
G01*
G37*
G36*
G01*
X144456250Y-116050000D02*
X143543750Y-116050000D01*
G75*
G02*
X143300000Y-115806250I0J243750D01*
G01*
X143300000Y-115318750D01*
G75*
G02*
X143543750Y-115075000I243750J0D01*
G01*
X144456250Y-115075000D01*
G75*
G02*
X144700000Y-115318750I0J-243750D01*
G01*
X144700000Y-115806250D01*
G75*
G02*
X144456250Y-116050000I-243750J0D01*
G01*
G37*
%TD*%
%TO.C,C16*%
G36*
G01*
X159456250Y-114050000D02*
X158543750Y-114050000D01*
G75*
G02*
X158300000Y-113806250I0J243750D01*
G01*
X158300000Y-113318750D01*
G75*
G02*
X158543750Y-113075000I243750J0D01*
G01*
X159456250Y-113075000D01*
G75*
G02*
X159700000Y-113318750I0J-243750D01*
G01*
X159700000Y-113806250D01*
G75*
G02*
X159456250Y-114050000I-243750J0D01*
G01*
G37*
G36*
G01*
X159456250Y-115925000D02*
X158543750Y-115925000D01*
G75*
G02*
X158300000Y-115681250I0J243750D01*
G01*
X158300000Y-115193750D01*
G75*
G02*
X158543750Y-114950000I243750J0D01*
G01*
X159456250Y-114950000D01*
G75*
G02*
X159700000Y-115193750I0J-243750D01*
G01*
X159700000Y-115681250D01*
G75*
G02*
X159456250Y-115925000I-243750J0D01*
G01*
G37*
%TD*%
%TO.C,C17*%
G36*
G01*
X150925000Y-111043750D02*
X150925000Y-111956250D01*
G75*
G02*
X150681250Y-112200000I-243750J0D01*
G01*
X150193750Y-112200000D01*
G75*
G02*
X149950000Y-111956250I0J243750D01*
G01*
X149950000Y-111043750D01*
G75*
G02*
X150193750Y-110800000I243750J0D01*
G01*
X150681250Y-110800000D01*
G75*
G02*
X150925000Y-111043750I0J-243750D01*
G01*
G37*
G36*
G01*
X149050000Y-111043750D02*
X149050000Y-111956250D01*
G75*
G02*
X148806250Y-112200000I-243750J0D01*
G01*
X148318750Y-112200000D01*
G75*
G02*
X148075000Y-111956250I0J243750D01*
G01*
X148075000Y-111043750D01*
G75*
G02*
X148318750Y-110800000I243750J0D01*
G01*
X148806250Y-110800000D01*
G75*
G02*
X149050000Y-111043750I0J-243750D01*
G01*
G37*
%TD*%
D16*
%TO.C,D1*%
X112250000Y-103500000D03*
X115750000Y-103500000D03*
%TD*%
%TO.C,D7*%
X112250000Y-106500000D03*
X115750000Y-106500000D03*
%TD*%
%TO.C,R2*%
G36*
G01*
X138456250Y-71425000D02*
X137543750Y-71425000D01*
G75*
G02*
X137300000Y-71181250I0J243750D01*
G01*
X137300000Y-70693750D01*
G75*
G02*
X137543750Y-70450000I243750J0D01*
G01*
X138456250Y-70450000D01*
G75*
G02*
X138700000Y-70693750I0J-243750D01*
G01*
X138700000Y-71181250D01*
G75*
G02*
X138456250Y-71425000I-243750J0D01*
G01*
G37*
G36*
G01*
X138456250Y-69550000D02*
X137543750Y-69550000D01*
G75*
G02*
X137300000Y-69306250I0J243750D01*
G01*
X137300000Y-68818750D01*
G75*
G02*
X137543750Y-68575000I243750J0D01*
G01*
X138456250Y-68575000D01*
G75*
G02*
X138700000Y-68818750I0J-243750D01*
G01*
X138700000Y-69306250D01*
G75*
G02*
X138456250Y-69550000I-243750J0D01*
G01*
G37*
%TD*%
%TO.C,R3*%
G36*
G01*
X112575000Y-100456250D02*
X112575000Y-99543750D01*
G75*
G02*
X112818750Y-99300000I243750J0D01*
G01*
X113306250Y-99300000D01*
G75*
G02*
X113550000Y-99543750I0J-243750D01*
G01*
X113550000Y-100456250D01*
G75*
G02*
X113306250Y-100700000I-243750J0D01*
G01*
X112818750Y-100700000D01*
G75*
G02*
X112575000Y-100456250I0J243750D01*
G01*
G37*
G36*
G01*
X114450000Y-100456250D02*
X114450000Y-99543750D01*
G75*
G02*
X114693750Y-99300000I243750J0D01*
G01*
X115181250Y-99300000D01*
G75*
G02*
X115425000Y-99543750I0J-243750D01*
G01*
X115425000Y-100456250D01*
G75*
G02*
X115181250Y-100700000I-243750J0D01*
G01*
X114693750Y-100700000D01*
G75*
G02*
X114450000Y-100456250I0J243750D01*
G01*
G37*
%TD*%
%TO.C,R4*%
G36*
G01*
X136425000Y-81543750D02*
X136425000Y-82456250D01*
G75*
G02*
X136181250Y-82700000I-243750J0D01*
G01*
X135693750Y-82700000D01*
G75*
G02*
X135450000Y-82456250I0J243750D01*
G01*
X135450000Y-81543750D01*
G75*
G02*
X135693750Y-81300000I243750J0D01*
G01*
X136181250Y-81300000D01*
G75*
G02*
X136425000Y-81543750I0J-243750D01*
G01*
G37*
G36*
G01*
X134550000Y-81543750D02*
X134550000Y-82456250D01*
G75*
G02*
X134306250Y-82700000I-243750J0D01*
G01*
X133818750Y-82700000D01*
G75*
G02*
X133575000Y-82456250I0J243750D01*
G01*
X133575000Y-81543750D01*
G75*
G02*
X133818750Y-81300000I243750J0D01*
G01*
X134306250Y-81300000D01*
G75*
G02*
X134550000Y-81543750I0J-243750D01*
G01*
G37*
%TD*%
%TO.C,R6*%
G36*
G01*
X150043750Y-53450000D02*
X150956250Y-53450000D01*
G75*
G02*
X151200000Y-53693750I0J-243750D01*
G01*
X151200000Y-54181250D01*
G75*
G02*
X150956250Y-54425000I-243750J0D01*
G01*
X150043750Y-54425000D01*
G75*
G02*
X149800000Y-54181250I0J243750D01*
G01*
X149800000Y-53693750D01*
G75*
G02*
X150043750Y-53450000I243750J0D01*
G01*
G37*
G36*
G01*
X150043750Y-51575000D02*
X150956250Y-51575000D01*
G75*
G02*
X151200000Y-51818750I0J-243750D01*
G01*
X151200000Y-52306250D01*
G75*
G02*
X150956250Y-52550000I-243750J0D01*
G01*
X150043750Y-52550000D01*
G75*
G02*
X149800000Y-52306250I0J243750D01*
G01*
X149800000Y-51818750D01*
G75*
G02*
X150043750Y-51575000I243750J0D01*
G01*
G37*
%TD*%
%TO.C,R7*%
G36*
G01*
X148575000Y-58956250D02*
X148575000Y-58043750D01*
G75*
G02*
X148818750Y-57800000I243750J0D01*
G01*
X149306250Y-57800000D01*
G75*
G02*
X149550000Y-58043750I0J-243750D01*
G01*
X149550000Y-58956250D01*
G75*
G02*
X149306250Y-59200000I-243750J0D01*
G01*
X148818750Y-59200000D01*
G75*
G02*
X148575000Y-58956250I0J243750D01*
G01*
G37*
G36*
G01*
X150450000Y-58956250D02*
X150450000Y-58043750D01*
G75*
G02*
X150693750Y-57800000I243750J0D01*
G01*
X151181250Y-57800000D01*
G75*
G02*
X151425000Y-58043750I0J-243750D01*
G01*
X151425000Y-58956250D01*
G75*
G02*
X151181250Y-59200000I-243750J0D01*
G01*
X150693750Y-59200000D01*
G75*
G02*
X150450000Y-58956250I0J243750D01*
G01*
G37*
%TD*%
%TO.C,R8*%
G36*
G01*
X176013000Y-58456250D02*
X176013000Y-57543750D01*
G75*
G02*
X176256750Y-57300000I243750J0D01*
G01*
X176744250Y-57300000D01*
G75*
G02*
X176988000Y-57543750I0J-243750D01*
G01*
X176988000Y-58456250D01*
G75*
G02*
X176744250Y-58700000I-243750J0D01*
G01*
X176256750Y-58700000D01*
G75*
G02*
X176013000Y-58456250I0J243750D01*
G01*
G37*
G36*
G01*
X177888000Y-58456250D02*
X177888000Y-57543750D01*
G75*
G02*
X178131750Y-57300000I243750J0D01*
G01*
X178619250Y-57300000D01*
G75*
G02*
X178863000Y-57543750I0J-243750D01*
G01*
X178863000Y-58456250D01*
G75*
G02*
X178619250Y-58700000I-243750J0D01*
G01*
X178131750Y-58700000D01*
G75*
G02*
X177888000Y-58456250I0J243750D01*
G01*
G37*
%TD*%
%TO.C,R9*%
G36*
G01*
X173950000Y-58456250D02*
X173950000Y-57543750D01*
G75*
G02*
X174193750Y-57300000I243750J0D01*
G01*
X174681250Y-57300000D01*
G75*
G02*
X174925000Y-57543750I0J-243750D01*
G01*
X174925000Y-58456250D01*
G75*
G02*
X174681250Y-58700000I-243750J0D01*
G01*
X174193750Y-58700000D01*
G75*
G02*
X173950000Y-58456250I0J243750D01*
G01*
G37*
G36*
G01*
X172075000Y-58456250D02*
X172075000Y-57543750D01*
G75*
G02*
X172318750Y-57300000I243750J0D01*
G01*
X172806250Y-57300000D01*
G75*
G02*
X173050000Y-57543750I0J-243750D01*
G01*
X173050000Y-58456250D01*
G75*
G02*
X172806250Y-58700000I-243750J0D01*
G01*
X172318750Y-58700000D01*
G75*
G02*
X172075000Y-58456250I0J243750D01*
G01*
G37*
%TD*%
%TO.C,R10*%
G36*
G01*
X157956250Y-70925000D02*
X157043750Y-70925000D01*
G75*
G02*
X156800000Y-70681250I0J243750D01*
G01*
X156800000Y-70193750D01*
G75*
G02*
X157043750Y-69950000I243750J0D01*
G01*
X157956250Y-69950000D01*
G75*
G02*
X158200000Y-70193750I0J-243750D01*
G01*
X158200000Y-70681250D01*
G75*
G02*
X157956250Y-70925000I-243750J0D01*
G01*
G37*
G36*
G01*
X157956250Y-69050000D02*
X157043750Y-69050000D01*
G75*
G02*
X156800000Y-68806250I0J243750D01*
G01*
X156800000Y-68318750D01*
G75*
G02*
X157043750Y-68075000I243750J0D01*
G01*
X157956250Y-68075000D01*
G75*
G02*
X158200000Y-68318750I0J-243750D01*
G01*
X158200000Y-68806250D01*
G75*
G02*
X157956250Y-69050000I-243750J0D01*
G01*
G37*
%TD*%
%TO.C,R12*%
G36*
G01*
X148050000Y-84043750D02*
X148050000Y-84956250D01*
G75*
G02*
X147806250Y-85200000I-243750J0D01*
G01*
X147318750Y-85200000D01*
G75*
G02*
X147075000Y-84956250I0J243750D01*
G01*
X147075000Y-84043750D01*
G75*
G02*
X147318750Y-83800000I243750J0D01*
G01*
X147806250Y-83800000D01*
G75*
G02*
X148050000Y-84043750I0J-243750D01*
G01*
G37*
G36*
G01*
X149925000Y-84043750D02*
X149925000Y-84956250D01*
G75*
G02*
X149681250Y-85200000I-243750J0D01*
G01*
X149193750Y-85200000D01*
G75*
G02*
X148950000Y-84956250I0J243750D01*
G01*
X148950000Y-84043750D01*
G75*
G02*
X149193750Y-83800000I243750J0D01*
G01*
X149681250Y-83800000D01*
G75*
G02*
X149925000Y-84043750I0J-243750D01*
G01*
G37*
%TD*%
%TO.C,R13*%
G36*
G01*
X150443750Y-62450000D02*
X151356250Y-62450000D01*
G75*
G02*
X151600000Y-62693750I0J-243750D01*
G01*
X151600000Y-63181250D01*
G75*
G02*
X151356250Y-63425000I-243750J0D01*
G01*
X150443750Y-63425000D01*
G75*
G02*
X150200000Y-63181250I0J243750D01*
G01*
X150200000Y-62693750D01*
G75*
G02*
X150443750Y-62450000I243750J0D01*
G01*
G37*
G36*
G01*
X150443750Y-60575000D02*
X151356250Y-60575000D01*
G75*
G02*
X151600000Y-60818750I0J-243750D01*
G01*
X151600000Y-61306250D01*
G75*
G02*
X151356250Y-61550000I-243750J0D01*
G01*
X150443750Y-61550000D01*
G75*
G02*
X150200000Y-61306250I0J243750D01*
G01*
X150200000Y-60818750D01*
G75*
G02*
X150443750Y-60575000I243750J0D01*
G01*
G37*
%TD*%
%TO.C,R20*%
G36*
G01*
X191450000Y-55456250D02*
X191450000Y-54543750D01*
G75*
G02*
X191693750Y-54300000I243750J0D01*
G01*
X192181250Y-54300000D01*
G75*
G02*
X192425000Y-54543750I0J-243750D01*
G01*
X192425000Y-55456250D01*
G75*
G02*
X192181250Y-55700000I-243750J0D01*
G01*
X191693750Y-55700000D01*
G75*
G02*
X191450000Y-55456250I0J243750D01*
G01*
G37*
G36*
G01*
X189575000Y-55456250D02*
X189575000Y-54543750D01*
G75*
G02*
X189818750Y-54300000I243750J0D01*
G01*
X190306250Y-54300000D01*
G75*
G02*
X190550000Y-54543750I0J-243750D01*
G01*
X190550000Y-55456250D01*
G75*
G02*
X190306250Y-55700000I-243750J0D01*
G01*
X189818750Y-55700000D01*
G75*
G02*
X189575000Y-55456250I0J243750D01*
G01*
G37*
%TD*%
%TO.C,R22*%
G36*
G01*
X145456250Y-58925000D02*
X144543750Y-58925000D01*
G75*
G02*
X144300000Y-58681250I0J243750D01*
G01*
X144300000Y-58193750D01*
G75*
G02*
X144543750Y-57950000I243750J0D01*
G01*
X145456250Y-57950000D01*
G75*
G02*
X145700000Y-58193750I0J-243750D01*
G01*
X145700000Y-58681250D01*
G75*
G02*
X145456250Y-58925000I-243750J0D01*
G01*
G37*
G36*
G01*
X145456250Y-57050000D02*
X144543750Y-57050000D01*
G75*
G02*
X144300000Y-56806250I0J243750D01*
G01*
X144300000Y-56318750D01*
G75*
G02*
X144543750Y-56075000I243750J0D01*
G01*
X145456250Y-56075000D01*
G75*
G02*
X145700000Y-56318750I0J-243750D01*
G01*
X145700000Y-56806250D01*
G75*
G02*
X145456250Y-57050000I-243750J0D01*
G01*
G37*
%TD*%
%TO.C,R23*%
G36*
G01*
X166550000Y-62043750D02*
X166550000Y-62956250D01*
G75*
G02*
X166306250Y-63200000I-243750J0D01*
G01*
X165818750Y-63200000D01*
G75*
G02*
X165575000Y-62956250I0J243750D01*
G01*
X165575000Y-62043750D01*
G75*
G02*
X165818750Y-61800000I243750J0D01*
G01*
X166306250Y-61800000D01*
G75*
G02*
X166550000Y-62043750I0J-243750D01*
G01*
G37*
G36*
G01*
X168425000Y-62043750D02*
X168425000Y-62956250D01*
G75*
G02*
X168181250Y-63200000I-243750J0D01*
G01*
X167693750Y-63200000D01*
G75*
G02*
X167450000Y-62956250I0J243750D01*
G01*
X167450000Y-62043750D01*
G75*
G02*
X167693750Y-61800000I243750J0D01*
G01*
X168181250Y-61800000D01*
G75*
G02*
X168425000Y-62043750I0J-243750D01*
G01*
G37*
%TD*%
%TO.C,R24*%
G36*
G01*
X161075000Y-63956250D02*
X161075000Y-63043750D01*
G75*
G02*
X161318750Y-62800000I243750J0D01*
G01*
X161806250Y-62800000D01*
G75*
G02*
X162050000Y-63043750I0J-243750D01*
G01*
X162050000Y-63956250D01*
G75*
G02*
X161806250Y-64200000I-243750J0D01*
G01*
X161318750Y-64200000D01*
G75*
G02*
X161075000Y-63956250I0J243750D01*
G01*
G37*
G36*
G01*
X162950000Y-63956250D02*
X162950000Y-63043750D01*
G75*
G02*
X163193750Y-62800000I243750J0D01*
G01*
X163681250Y-62800000D01*
G75*
G02*
X163925000Y-63043750I0J-243750D01*
G01*
X163925000Y-63956250D01*
G75*
G02*
X163681250Y-64200000I-243750J0D01*
G01*
X163193750Y-64200000D01*
G75*
G02*
X162950000Y-63956250I0J243750D01*
G01*
G37*
%TD*%
%TO.C,R25*%
G36*
G01*
X166456250Y-58550000D02*
X165543750Y-58550000D01*
G75*
G02*
X165300000Y-58306250I0J243750D01*
G01*
X165300000Y-57818750D01*
G75*
G02*
X165543750Y-57575000I243750J0D01*
G01*
X166456250Y-57575000D01*
G75*
G02*
X166700000Y-57818750I0J-243750D01*
G01*
X166700000Y-58306250D01*
G75*
G02*
X166456250Y-58550000I-243750J0D01*
G01*
G37*
G36*
G01*
X166456250Y-60425000D02*
X165543750Y-60425000D01*
G75*
G02*
X165300000Y-60181250I0J243750D01*
G01*
X165300000Y-59693750D01*
G75*
G02*
X165543750Y-59450000I243750J0D01*
G01*
X166456250Y-59450000D01*
G75*
G02*
X166700000Y-59693750I0J-243750D01*
G01*
X166700000Y-60181250D01*
G75*
G02*
X166456250Y-60425000I-243750J0D01*
G01*
G37*
%TD*%
D17*
%TO.C,R10_POT1*%
X151750000Y-73349500D03*
X154250000Y-73349500D03*
D18*
X153000000Y-68650500D03*
%TD*%
%TO.C,R2_POT1*%
X133500000Y-69650500D03*
D17*
X134750000Y-74349500D03*
X132250000Y-74349500D03*
%TD*%
D19*
%TO.C,U5*%
X136239400Y-117096000D03*
D20*
X138500000Y-110847600D03*
D19*
X140760600Y-117096000D03*
%TD*%
%TO.C,U6*%
G36*
G01*
X152010000Y-117151300D02*
X152010000Y-117658700D01*
G75*
G02*
X151968700Y-117700000I-41300J0D01*
G01*
X150081300Y-117700000D01*
G75*
G02*
X150040000Y-117658700I0J41300D01*
G01*
X150040000Y-117151300D01*
G75*
G02*
X150081300Y-117110000I41300J0D01*
G01*
X151968700Y-117110000D01*
G75*
G02*
X152010000Y-117151300I0J-41300D01*
G01*
G37*
G36*
G01*
X152010000Y-115881300D02*
X152010000Y-116388700D01*
G75*
G02*
X151968700Y-116430000I-41300J0D01*
G01*
X150081300Y-116430000D01*
G75*
G02*
X150040000Y-116388700I0J41300D01*
G01*
X150040000Y-115881300D01*
G75*
G02*
X150081300Y-115840000I41300J0D01*
G01*
X151968700Y-115840000D01*
G75*
G02*
X152010000Y-115881300I0J-41300D01*
G01*
G37*
G36*
G01*
X152010000Y-114611300D02*
X152010000Y-115118700D01*
G75*
G02*
X151968700Y-115160000I-41300J0D01*
G01*
X150081300Y-115160000D01*
G75*
G02*
X150040000Y-115118700I0J41300D01*
G01*
X150040000Y-114611300D01*
G75*
G02*
X150081300Y-114570000I41300J0D01*
G01*
X151968700Y-114570000D01*
G75*
G02*
X152010000Y-114611300I0J-41300D01*
G01*
G37*
G36*
G01*
X152010000Y-113341300D02*
X152010000Y-113848700D01*
G75*
G02*
X151968700Y-113890000I-41300J0D01*
G01*
X150081300Y-113890000D01*
G75*
G02*
X150040000Y-113848700I0J41300D01*
G01*
X150040000Y-113341300D01*
G75*
G02*
X150081300Y-113300000I41300J0D01*
G01*
X151968700Y-113300000D01*
G75*
G02*
X152010000Y-113341300I0J-41300D01*
G01*
G37*
G36*
G01*
X156960000Y-113341300D02*
X156960000Y-113848700D01*
G75*
G02*
X156918700Y-113890000I-41300J0D01*
G01*
X155031300Y-113890000D01*
G75*
G02*
X154990000Y-113848700I0J41300D01*
G01*
X154990000Y-113341300D01*
G75*
G02*
X155031300Y-113300000I41300J0D01*
G01*
X156918700Y-113300000D01*
G75*
G02*
X156960000Y-113341300I0J-41300D01*
G01*
G37*
G36*
G01*
X156960000Y-114611300D02*
X156960000Y-115118700D01*
G75*
G02*
X156918700Y-115160000I-41300J0D01*
G01*
X155031300Y-115160000D01*
G75*
G02*
X154990000Y-115118700I0J41300D01*
G01*
X154990000Y-114611300D01*
G75*
G02*
X155031300Y-114570000I41300J0D01*
G01*
X156918700Y-114570000D01*
G75*
G02*
X156960000Y-114611300I0J-41300D01*
G01*
G37*
G36*
G01*
X156960000Y-115881300D02*
X156960000Y-116388700D01*
G75*
G02*
X156918700Y-116430000I-41300J0D01*
G01*
X155031300Y-116430000D01*
G75*
G02*
X154990000Y-116388700I0J41300D01*
G01*
X154990000Y-115881300D01*
G75*
G02*
X155031300Y-115840000I41300J0D01*
G01*
X156918700Y-115840000D01*
G75*
G02*
X156960000Y-115881300I0J-41300D01*
G01*
G37*
G36*
G01*
X156960000Y-117151300D02*
X156960000Y-117658700D01*
G75*
G02*
X156918700Y-117700000I-41300J0D01*
G01*
X155031300Y-117700000D01*
G75*
G02*
X154990000Y-117658700I0J41300D01*
G01*
X154990000Y-117151300D01*
G75*
G02*
X155031300Y-117110000I41300J0D01*
G01*
X156918700Y-117110000D01*
G75*
G02*
X156960000Y-117151300I0J-41300D01*
G01*
G37*
%TD*%
%TO.C,C18*%
G36*
G01*
X112075000Y-53956250D02*
X112075000Y-53043750D01*
G75*
G02*
X112318750Y-52800000I243750J0D01*
G01*
X112806250Y-52800000D01*
G75*
G02*
X113050000Y-53043750I0J-243750D01*
G01*
X113050000Y-53956250D01*
G75*
G02*
X112806250Y-54200000I-243750J0D01*
G01*
X112318750Y-54200000D01*
G75*
G02*
X112075000Y-53956250I0J243750D01*
G01*
G37*
G36*
G01*
X113950000Y-53956250D02*
X113950000Y-53043750D01*
G75*
G02*
X114193750Y-52800000I243750J0D01*
G01*
X114681250Y-52800000D01*
G75*
G02*
X114925000Y-53043750I0J-243750D01*
G01*
X114925000Y-53956250D01*
G75*
G02*
X114681250Y-54200000I-243750J0D01*
G01*
X114193750Y-54200000D01*
G75*
G02*
X113950000Y-53956250I0J243750D01*
G01*
G37*
%TD*%
%TO.C,C20*%
G36*
G01*
X176543750Y-82950000D02*
X177456250Y-82950000D01*
G75*
G02*
X177700000Y-83193750I0J-243750D01*
G01*
X177700000Y-83681250D01*
G75*
G02*
X177456250Y-83925000I-243750J0D01*
G01*
X176543750Y-83925000D01*
G75*
G02*
X176300000Y-83681250I0J243750D01*
G01*
X176300000Y-83193750D01*
G75*
G02*
X176543750Y-82950000I243750J0D01*
G01*
G37*
G36*
G01*
X176543750Y-81075000D02*
X177456250Y-81075000D01*
G75*
G02*
X177700000Y-81318750I0J-243750D01*
G01*
X177700000Y-81806250D01*
G75*
G02*
X177456250Y-82050000I-243750J0D01*
G01*
X176543750Y-82050000D01*
G75*
G02*
X176300000Y-81806250I0J243750D01*
G01*
X176300000Y-81318750D01*
G75*
G02*
X176543750Y-81075000I243750J0D01*
G01*
G37*
%TD*%
%TO.C,C21*%
G36*
G01*
X179043750Y-81075000D02*
X179956250Y-81075000D01*
G75*
G02*
X180200000Y-81318750I0J-243750D01*
G01*
X180200000Y-81806250D01*
G75*
G02*
X179956250Y-82050000I-243750J0D01*
G01*
X179043750Y-82050000D01*
G75*
G02*
X178800000Y-81806250I0J243750D01*
G01*
X178800000Y-81318750D01*
G75*
G02*
X179043750Y-81075000I243750J0D01*
G01*
G37*
G36*
G01*
X179043750Y-82950000D02*
X179956250Y-82950000D01*
G75*
G02*
X180200000Y-83193750I0J-243750D01*
G01*
X180200000Y-83681250D01*
G75*
G02*
X179956250Y-83925000I-243750J0D01*
G01*
X179043750Y-83925000D01*
G75*
G02*
X178800000Y-83681250I0J243750D01*
G01*
X178800000Y-83193750D01*
G75*
G02*
X179043750Y-82950000I243750J0D01*
G01*
G37*
%TD*%
D21*
%TO.C,POT1*%
X153849500Y-92750000D03*
X153849500Y-90250000D03*
D22*
X149150500Y-91500000D03*
%TD*%
%TO.C,R11*%
G36*
G01*
X112075000Y-56956250D02*
X112075000Y-56043750D01*
G75*
G02*
X112318750Y-55800000I243750J0D01*
G01*
X112806250Y-55800000D01*
G75*
G02*
X113050000Y-56043750I0J-243750D01*
G01*
X113050000Y-56956250D01*
G75*
G02*
X112806250Y-57200000I-243750J0D01*
G01*
X112318750Y-57200000D01*
G75*
G02*
X112075000Y-56956250I0J243750D01*
G01*
G37*
G36*
G01*
X113950000Y-56956250D02*
X113950000Y-56043750D01*
G75*
G02*
X114193750Y-55800000I243750J0D01*
G01*
X114681250Y-55800000D01*
G75*
G02*
X114925000Y-56043750I0J-243750D01*
G01*
X114925000Y-56956250D01*
G75*
G02*
X114681250Y-57200000I-243750J0D01*
G01*
X114193750Y-57200000D01*
G75*
G02*
X113950000Y-56956250I0J243750D01*
G01*
G37*
%TD*%
%TO.C,R16*%
G36*
G01*
X158950000Y-79456250D02*
X158950000Y-78543750D01*
G75*
G02*
X159193750Y-78300000I243750J0D01*
G01*
X159681250Y-78300000D01*
G75*
G02*
X159925000Y-78543750I0J-243750D01*
G01*
X159925000Y-79456250D01*
G75*
G02*
X159681250Y-79700000I-243750J0D01*
G01*
X159193750Y-79700000D01*
G75*
G02*
X158950000Y-79456250I0J243750D01*
G01*
G37*
G36*
G01*
X157075000Y-79456250D02*
X157075000Y-78543750D01*
G75*
G02*
X157318750Y-78300000I243750J0D01*
G01*
X157806250Y-78300000D01*
G75*
G02*
X158050000Y-78543750I0J-243750D01*
G01*
X158050000Y-79456250D01*
G75*
G02*
X157806250Y-79700000I-243750J0D01*
G01*
X157318750Y-79700000D01*
G75*
G02*
X157075000Y-79456250I0J243750D01*
G01*
G37*
%TD*%
%TO.C,R26*%
G36*
G01*
X159925000Y-81543750D02*
X159925000Y-82456250D01*
G75*
G02*
X159681250Y-82700000I-243750J0D01*
G01*
X159193750Y-82700000D01*
G75*
G02*
X158950000Y-82456250I0J243750D01*
G01*
X158950000Y-81543750D01*
G75*
G02*
X159193750Y-81300000I243750J0D01*
G01*
X159681250Y-81300000D01*
G75*
G02*
X159925000Y-81543750I0J-243750D01*
G01*
G37*
G36*
G01*
X158050000Y-81543750D02*
X158050000Y-82456250D01*
G75*
G02*
X157806250Y-82700000I-243750J0D01*
G01*
X157318750Y-82700000D01*
G75*
G02*
X157075000Y-82456250I0J243750D01*
G01*
X157075000Y-81543750D01*
G75*
G02*
X157318750Y-81300000I243750J0D01*
G01*
X157806250Y-81300000D01*
G75*
G02*
X158050000Y-81543750I0J-243750D01*
G01*
G37*
%TD*%
%TO.C,R27*%
G36*
G01*
X158456250Y-75425000D02*
X157543750Y-75425000D01*
G75*
G02*
X157300000Y-75181250I0J243750D01*
G01*
X157300000Y-74693750D01*
G75*
G02*
X157543750Y-74450000I243750J0D01*
G01*
X158456250Y-74450000D01*
G75*
G02*
X158700000Y-74693750I0J-243750D01*
G01*
X158700000Y-75181250D01*
G75*
G02*
X158456250Y-75425000I-243750J0D01*
G01*
G37*
G36*
G01*
X158456250Y-73550000D02*
X157543750Y-73550000D01*
G75*
G02*
X157300000Y-73306250I0J243750D01*
G01*
X157300000Y-72818750D01*
G75*
G02*
X157543750Y-72575000I243750J0D01*
G01*
X158456250Y-72575000D01*
G75*
G02*
X158700000Y-72818750I0J-243750D01*
G01*
X158700000Y-73306250D01*
G75*
G02*
X158456250Y-73550000I-243750J0D01*
G01*
G37*
%TD*%
%TO.C,R28*%
G36*
G01*
X154956250Y-76550000D02*
X154043750Y-76550000D01*
G75*
G02*
X153800000Y-76306250I0J243750D01*
G01*
X153800000Y-75818750D01*
G75*
G02*
X154043750Y-75575000I243750J0D01*
G01*
X154956250Y-75575000D01*
G75*
G02*
X155200000Y-75818750I0J-243750D01*
G01*
X155200000Y-76306250D01*
G75*
G02*
X154956250Y-76550000I-243750J0D01*
G01*
G37*
G36*
G01*
X154956250Y-78425000D02*
X154043750Y-78425000D01*
G75*
G02*
X153800000Y-78181250I0J243750D01*
G01*
X153800000Y-77693750D01*
G75*
G02*
X154043750Y-77450000I243750J0D01*
G01*
X154956250Y-77450000D01*
G75*
G02*
X155200000Y-77693750I0J-243750D01*
G01*
X155200000Y-78181250D01*
G75*
G02*
X154956250Y-78425000I-243750J0D01*
G01*
G37*
%TD*%
%TO.C,R29*%
G36*
G01*
X172575000Y-83456250D02*
X172575000Y-82543750D01*
G75*
G02*
X172818750Y-82300000I243750J0D01*
G01*
X173306250Y-82300000D01*
G75*
G02*
X173550000Y-82543750I0J-243750D01*
G01*
X173550000Y-83456250D01*
G75*
G02*
X173306250Y-83700000I-243750J0D01*
G01*
X172818750Y-83700000D01*
G75*
G02*
X172575000Y-83456250I0J243750D01*
G01*
G37*
G36*
G01*
X174450000Y-83456250D02*
X174450000Y-82543750D01*
G75*
G02*
X174693750Y-82300000I243750J0D01*
G01*
X175181250Y-82300000D01*
G75*
G02*
X175425000Y-82543750I0J-243750D01*
G01*
X175425000Y-83456250D01*
G75*
G02*
X175181250Y-83700000I-243750J0D01*
G01*
X174693750Y-83700000D01*
G75*
G02*
X174450000Y-83456250I0J243750D01*
G01*
G37*
%TD*%
%TO.C,R30*%
G36*
G01*
X171450000Y-85956250D02*
X171450000Y-85043750D01*
G75*
G02*
X171693750Y-84800000I243750J0D01*
G01*
X172181250Y-84800000D01*
G75*
G02*
X172425000Y-85043750I0J-243750D01*
G01*
X172425000Y-85956250D01*
G75*
G02*
X172181250Y-86200000I-243750J0D01*
G01*
X171693750Y-86200000D01*
G75*
G02*
X171450000Y-85956250I0J243750D01*
G01*
G37*
G36*
G01*
X169575000Y-85956250D02*
X169575000Y-85043750D01*
G75*
G02*
X169818750Y-84800000I243750J0D01*
G01*
X170306250Y-84800000D01*
G75*
G02*
X170550000Y-85043750I0J-243750D01*
G01*
X170550000Y-85956250D01*
G75*
G02*
X170306250Y-86200000I-243750J0D01*
G01*
X169818750Y-86200000D01*
G75*
G02*
X169575000Y-85956250I0J243750D01*
G01*
G37*
%TD*%
%TO.C,R31*%
G36*
G01*
X174456250Y-81425000D02*
X173543750Y-81425000D01*
G75*
G02*
X173300000Y-81181250I0J243750D01*
G01*
X173300000Y-80693750D01*
G75*
G02*
X173543750Y-80450000I243750J0D01*
G01*
X174456250Y-80450000D01*
G75*
G02*
X174700000Y-80693750I0J-243750D01*
G01*
X174700000Y-81181250D01*
G75*
G02*
X174456250Y-81425000I-243750J0D01*
G01*
G37*
G36*
G01*
X174456250Y-79550000D02*
X173543750Y-79550000D01*
G75*
G02*
X173300000Y-79306250I0J243750D01*
G01*
X173300000Y-78818750D01*
G75*
G02*
X173543750Y-78575000I243750J0D01*
G01*
X174456250Y-78575000D01*
G75*
G02*
X174700000Y-78818750I0J-243750D01*
G01*
X174700000Y-79306250D01*
G75*
G02*
X174456250Y-79550000I-243750J0D01*
G01*
G37*
%TD*%
%TO.C,R32*%
G36*
G01*
X177456250Y-78050000D02*
X176543750Y-78050000D01*
G75*
G02*
X176300000Y-77806250I0J243750D01*
G01*
X176300000Y-77318750D01*
G75*
G02*
X176543750Y-77075000I243750J0D01*
G01*
X177456250Y-77075000D01*
G75*
G02*
X177700000Y-77318750I0J-243750D01*
G01*
X177700000Y-77806250D01*
G75*
G02*
X177456250Y-78050000I-243750J0D01*
G01*
G37*
G36*
G01*
X177456250Y-79925000D02*
X176543750Y-79925000D01*
G75*
G02*
X176300000Y-79681250I0J243750D01*
G01*
X176300000Y-79193750D01*
G75*
G02*
X176543750Y-78950000I243750J0D01*
G01*
X177456250Y-78950000D01*
G75*
G02*
X177700000Y-79193750I0J-243750D01*
G01*
X177700000Y-79681250D01*
G75*
G02*
X177456250Y-79925000I-243750J0D01*
G01*
G37*
%TD*%
%TO.C,R33*%
G36*
G01*
X179956250Y-78050000D02*
X179043750Y-78050000D01*
G75*
G02*
X178800000Y-77806250I0J243750D01*
G01*
X178800000Y-77318750D01*
G75*
G02*
X179043750Y-77075000I243750J0D01*
G01*
X179956250Y-77075000D01*
G75*
G02*
X180200000Y-77318750I0J-243750D01*
G01*
X180200000Y-77806250D01*
G75*
G02*
X179956250Y-78050000I-243750J0D01*
G01*
G37*
G36*
G01*
X179956250Y-79925000D02*
X179043750Y-79925000D01*
G75*
G02*
X178800000Y-79681250I0J243750D01*
G01*
X178800000Y-79193750D01*
G75*
G02*
X179043750Y-78950000I243750J0D01*
G01*
X179956250Y-78950000D01*
G75*
G02*
X180200000Y-79193750I0J-243750D01*
G01*
X180200000Y-79681250D01*
G75*
G02*
X179956250Y-79925000I-243750J0D01*
G01*
G37*
%TD*%
%TO.C,U7*%
G36*
G01*
X150540000Y-101348700D02*
X150540000Y-100841300D01*
G75*
G02*
X150581300Y-100800000I41300J0D01*
G01*
X152468700Y-100800000D01*
G75*
G02*
X152510000Y-100841300I0J-41300D01*
G01*
X152510000Y-101348700D01*
G75*
G02*
X152468700Y-101390000I-41300J0D01*
G01*
X150581300Y-101390000D01*
G75*
G02*
X150540000Y-101348700I0J41300D01*
G01*
G37*
G36*
G01*
X150540000Y-102618700D02*
X150540000Y-102111300D01*
G75*
G02*
X150581300Y-102070000I41300J0D01*
G01*
X152468700Y-102070000D01*
G75*
G02*
X152510000Y-102111300I0J-41300D01*
G01*
X152510000Y-102618700D01*
G75*
G02*
X152468700Y-102660000I-41300J0D01*
G01*
X150581300Y-102660000D01*
G75*
G02*
X150540000Y-102618700I0J41300D01*
G01*
G37*
G36*
G01*
X150540000Y-103888700D02*
X150540000Y-103381300D01*
G75*
G02*
X150581300Y-103340000I41300J0D01*
G01*
X152468700Y-103340000D01*
G75*
G02*
X152510000Y-103381300I0J-41300D01*
G01*
X152510000Y-103888700D01*
G75*
G02*
X152468700Y-103930000I-41300J0D01*
G01*
X150581300Y-103930000D01*
G75*
G02*
X150540000Y-103888700I0J41300D01*
G01*
G37*
G36*
G01*
X150540000Y-105158700D02*
X150540000Y-104651300D01*
G75*
G02*
X150581300Y-104610000I41300J0D01*
G01*
X152468700Y-104610000D01*
G75*
G02*
X152510000Y-104651300I0J-41300D01*
G01*
X152510000Y-105158700D01*
G75*
G02*
X152468700Y-105200000I-41300J0D01*
G01*
X150581300Y-105200000D01*
G75*
G02*
X150540000Y-105158700I0J41300D01*
G01*
G37*
G36*
G01*
X155490000Y-105158700D02*
X155490000Y-104651300D01*
G75*
G02*
X155531300Y-104610000I41300J0D01*
G01*
X157418700Y-104610000D01*
G75*
G02*
X157460000Y-104651300I0J-41300D01*
G01*
X157460000Y-105158700D01*
G75*
G02*
X157418700Y-105200000I-41300J0D01*
G01*
X155531300Y-105200000D01*
G75*
G02*
X155490000Y-105158700I0J41300D01*
G01*
G37*
G36*
G01*
X155490000Y-103888700D02*
X155490000Y-103381300D01*
G75*
G02*
X155531300Y-103340000I41300J0D01*
G01*
X157418700Y-103340000D01*
G75*
G02*
X157460000Y-103381300I0J-41300D01*
G01*
X157460000Y-103888700D01*
G75*
G02*
X157418700Y-103930000I-41300J0D01*
G01*
X155531300Y-103930000D01*
G75*
G02*
X155490000Y-103888700I0J41300D01*
G01*
G37*
G36*
G01*
X155490000Y-102618700D02*
X155490000Y-102111300D01*
G75*
G02*
X155531300Y-102070000I41300J0D01*
G01*
X157418700Y-102070000D01*
G75*
G02*
X157460000Y-102111300I0J-41300D01*
G01*
X157460000Y-102618700D01*
G75*
G02*
X157418700Y-102660000I-41300J0D01*
G01*
X155531300Y-102660000D01*
G75*
G02*
X155490000Y-102618700I0J41300D01*
G01*
G37*
G36*
G01*
X155490000Y-101348700D02*
X155490000Y-100841300D01*
G75*
G02*
X155531300Y-100800000I41300J0D01*
G01*
X157418700Y-100800000D01*
G75*
G02*
X157460000Y-100841300I0J-41300D01*
G01*
X157460000Y-101348700D01*
G75*
G02*
X157418700Y-101390000I-41300J0D01*
G01*
X155531300Y-101390000D01*
G75*
G02*
X155490000Y-101348700I0J41300D01*
G01*
G37*
%TD*%
%TO.C,R1*%
G36*
G01*
X124925000Y-115043750D02*
X124925000Y-115956250D01*
G75*
G02*
X124681250Y-116200000I-243750J0D01*
G01*
X124193750Y-116200000D01*
G75*
G02*
X123950000Y-115956250I0J243750D01*
G01*
X123950000Y-115043750D01*
G75*
G02*
X124193750Y-114800000I243750J0D01*
G01*
X124681250Y-114800000D01*
G75*
G02*
X124925000Y-115043750I0J-243750D01*
G01*
G37*
G36*
G01*
X123050000Y-115043750D02*
X123050000Y-115956250D01*
G75*
G02*
X122806250Y-116200000I-243750J0D01*
G01*
X122318750Y-116200000D01*
G75*
G02*
X122075000Y-115956250I0J243750D01*
G01*
X122075000Y-115043750D01*
G75*
G02*
X122318750Y-114800000I243750J0D01*
G01*
X122806250Y-114800000D01*
G75*
G02*
X123050000Y-115043750I0J-243750D01*
G01*
G37*
%TD*%
%TO.C,R5*%
G36*
G01*
X123950000Y-118456250D02*
X123950000Y-117543750D01*
G75*
G02*
X124193750Y-117300000I243750J0D01*
G01*
X124681250Y-117300000D01*
G75*
G02*
X124925000Y-117543750I0J-243750D01*
G01*
X124925000Y-118456250D01*
G75*
G02*
X124681250Y-118700000I-243750J0D01*
G01*
X124193750Y-118700000D01*
G75*
G02*
X123950000Y-118456250I0J243750D01*
G01*
G37*
G36*
G01*
X122075000Y-118456250D02*
X122075000Y-117543750D01*
G75*
G02*
X122318750Y-117300000I243750J0D01*
G01*
X122806250Y-117300000D01*
G75*
G02*
X123050000Y-117543750I0J-243750D01*
G01*
X123050000Y-118456250D01*
G75*
G02*
X122806250Y-118700000I-243750J0D01*
G01*
X122318750Y-118700000D01*
G75*
G02*
X122075000Y-118456250I0J243750D01*
G01*
G37*
%TD*%
%TO.C,U9*%
G36*
G01*
X195460000Y-103651300D02*
X195460000Y-104158700D01*
G75*
G02*
X195418700Y-104200000I-41300J0D01*
G01*
X193531300Y-104200000D01*
G75*
G02*
X193490000Y-104158700I0J41300D01*
G01*
X193490000Y-103651300D01*
G75*
G02*
X193531300Y-103610000I41300J0D01*
G01*
X195418700Y-103610000D01*
G75*
G02*
X195460000Y-103651300I0J-41300D01*
G01*
G37*
G36*
G01*
X195460000Y-102381300D02*
X195460000Y-102888700D01*
G75*
G02*
X195418700Y-102930000I-41300J0D01*
G01*
X193531300Y-102930000D01*
G75*
G02*
X193490000Y-102888700I0J41300D01*
G01*
X193490000Y-102381300D01*
G75*
G02*
X193531300Y-102340000I41300J0D01*
G01*
X195418700Y-102340000D01*
G75*
G02*
X195460000Y-102381300I0J-41300D01*
G01*
G37*
G36*
G01*
X195460000Y-101111300D02*
X195460000Y-101618700D01*
G75*
G02*
X195418700Y-101660000I-41300J0D01*
G01*
X193531300Y-101660000D01*
G75*
G02*
X193490000Y-101618700I0J41300D01*
G01*
X193490000Y-101111300D01*
G75*
G02*
X193531300Y-101070000I41300J0D01*
G01*
X195418700Y-101070000D01*
G75*
G02*
X195460000Y-101111300I0J-41300D01*
G01*
G37*
G36*
G01*
X195460000Y-99841300D02*
X195460000Y-100348700D01*
G75*
G02*
X195418700Y-100390000I-41300J0D01*
G01*
X193531300Y-100390000D01*
G75*
G02*
X193490000Y-100348700I0J41300D01*
G01*
X193490000Y-99841300D01*
G75*
G02*
X193531300Y-99800000I41300J0D01*
G01*
X195418700Y-99800000D01*
G75*
G02*
X195460000Y-99841300I0J-41300D01*
G01*
G37*
G36*
G01*
X190510000Y-99841300D02*
X190510000Y-100348700D01*
G75*
G02*
X190468700Y-100390000I-41300J0D01*
G01*
X188581300Y-100390000D01*
G75*
G02*
X188540000Y-100348700I0J41300D01*
G01*
X188540000Y-99841300D01*
G75*
G02*
X188581300Y-99800000I41300J0D01*
G01*
X190468700Y-99800000D01*
G75*
G02*
X190510000Y-99841300I0J-41300D01*
G01*
G37*
G36*
G01*
X190510000Y-101111300D02*
X190510000Y-101618700D01*
G75*
G02*
X190468700Y-101660000I-41300J0D01*
G01*
X188581300Y-101660000D01*
G75*
G02*
X188540000Y-101618700I0J41300D01*
G01*
X188540000Y-101111300D01*
G75*
G02*
X188581300Y-101070000I41300J0D01*
G01*
X190468700Y-101070000D01*
G75*
G02*
X190510000Y-101111300I0J-41300D01*
G01*
G37*
G36*
G01*
X190510000Y-102381300D02*
X190510000Y-102888700D01*
G75*
G02*
X190468700Y-102930000I-41300J0D01*
G01*
X188581300Y-102930000D01*
G75*
G02*
X188540000Y-102888700I0J41300D01*
G01*
X188540000Y-102381300D01*
G75*
G02*
X188581300Y-102340000I41300J0D01*
G01*
X190468700Y-102340000D01*
G75*
G02*
X190510000Y-102381300I0J-41300D01*
G01*
G37*
G36*
G01*
X190510000Y-103651300D02*
X190510000Y-104158700D01*
G75*
G02*
X190468700Y-104200000I-41300J0D01*
G01*
X188581300Y-104200000D01*
G75*
G02*
X188540000Y-104158700I0J41300D01*
G01*
X188540000Y-103651300D01*
G75*
G02*
X188581300Y-103610000I41300J0D01*
G01*
X190468700Y-103610000D01*
G75*
G02*
X190510000Y-103651300I0J-41300D01*
G01*
G37*
%TD*%
%TO.C,C1*%
G36*
G01*
X197543750Y-101575000D02*
X198456250Y-101575000D01*
G75*
G02*
X198700000Y-101818750I0J-243750D01*
G01*
X198700000Y-102306250D01*
G75*
G02*
X198456250Y-102550000I-243750J0D01*
G01*
X197543750Y-102550000D01*
G75*
G02*
X197300000Y-102306250I0J243750D01*
G01*
X197300000Y-101818750D01*
G75*
G02*
X197543750Y-101575000I243750J0D01*
G01*
G37*
G36*
G01*
X197543750Y-103450000D02*
X198456250Y-103450000D01*
G75*
G02*
X198700000Y-103693750I0J-243750D01*
G01*
X198700000Y-104181250D01*
G75*
G02*
X198456250Y-104425000I-243750J0D01*
G01*
X197543750Y-104425000D01*
G75*
G02*
X197300000Y-104181250I0J243750D01*
G01*
X197300000Y-103693750D01*
G75*
G02*
X197543750Y-103450000I243750J0D01*
G01*
G37*
%TD*%
%TO.C,C4*%
G36*
G01*
X126475000Y-58950000D02*
X125525000Y-58950000D01*
G75*
G02*
X125275000Y-58700000I0J250000D01*
G01*
X125275000Y-58200000D01*
G75*
G02*
X125525000Y-57950000I250000J0D01*
G01*
X126475000Y-57950000D01*
G75*
G02*
X126725000Y-58200000I0J-250000D01*
G01*
X126725000Y-58700000D01*
G75*
G02*
X126475000Y-58950000I-250000J0D01*
G01*
G37*
G36*
G01*
X126475000Y-57050000D02*
X125525000Y-57050000D01*
G75*
G02*
X125275000Y-56800000I0J250000D01*
G01*
X125275000Y-56300000D01*
G75*
G02*
X125525000Y-56050000I250000J0D01*
G01*
X126475000Y-56050000D01*
G75*
G02*
X126725000Y-56300000I0J-250000D01*
G01*
X126725000Y-56800000D01*
G75*
G02*
X126475000Y-57050000I-250000J0D01*
G01*
G37*
%TD*%
%TO.C,C7*%
G36*
G01*
X115475000Y-59050000D02*
X114525000Y-59050000D01*
G75*
G02*
X114275000Y-58800000I0J250000D01*
G01*
X114275000Y-58300000D01*
G75*
G02*
X114525000Y-58050000I250000J0D01*
G01*
X115475000Y-58050000D01*
G75*
G02*
X115725000Y-58300000I0J-250000D01*
G01*
X115725000Y-58800000D01*
G75*
G02*
X115475000Y-59050000I-250000J0D01*
G01*
G37*
G36*
G01*
X115475000Y-60950000D02*
X114525000Y-60950000D01*
G75*
G02*
X114275000Y-60700000I0J250000D01*
G01*
X114275000Y-60200000D01*
G75*
G02*
X114525000Y-59950000I250000J0D01*
G01*
X115475000Y-59950000D01*
G75*
G02*
X115725000Y-60200000I0J-250000D01*
G01*
X115725000Y-60700000D01*
G75*
G02*
X115475000Y-60950000I-250000J0D01*
G01*
G37*
%TD*%
%TO.C,R34*%
G36*
G01*
X121600000Y-52549998D02*
X121600000Y-53450002D01*
G75*
G02*
X121350002Y-53700000I-249998J0D01*
G01*
X120824998Y-53700000D01*
G75*
G02*
X120575000Y-53450002I0J249998D01*
G01*
X120575000Y-52549998D01*
G75*
G02*
X120824998Y-52300000I249998J0D01*
G01*
X121350002Y-52300000D01*
G75*
G02*
X121600000Y-52549998I0J-249998D01*
G01*
G37*
G36*
G01*
X123425000Y-52549998D02*
X123425000Y-53450002D01*
G75*
G02*
X123175002Y-53700000I-249998J0D01*
G01*
X122649998Y-53700000D01*
G75*
G02*
X122400000Y-53450002I0J249998D01*
G01*
X122400000Y-52549998D01*
G75*
G02*
X122649998Y-52300000I249998J0D01*
G01*
X123175002Y-52300000D01*
G75*
G02*
X123425000Y-52549998I0J-249998D01*
G01*
G37*
%TD*%
%TO.C,R35*%
G36*
G01*
X127925000Y-52549998D02*
X127925000Y-53450002D01*
G75*
G02*
X127675002Y-53700000I-249998J0D01*
G01*
X127149998Y-53700000D01*
G75*
G02*
X126900000Y-53450002I0J249998D01*
G01*
X126900000Y-52549998D01*
G75*
G02*
X127149998Y-52300000I249998J0D01*
G01*
X127675002Y-52300000D01*
G75*
G02*
X127925000Y-52549998I0J-249998D01*
G01*
G37*
G36*
G01*
X126100000Y-52549998D02*
X126100000Y-53450002D01*
G75*
G02*
X125850002Y-53700000I-249998J0D01*
G01*
X125324998Y-53700000D01*
G75*
G02*
X125075000Y-53450002I0J249998D01*
G01*
X125075000Y-52549998D01*
G75*
G02*
X125324998Y-52300000I249998J0D01*
G01*
X125850002Y-52300000D01*
G75*
G02*
X126100000Y-52549998I0J-249998D01*
G01*
G37*
%TD*%
%TO.C,U3*%
G36*
G01*
X123815000Y-58876300D02*
X123815000Y-59383700D01*
G75*
G02*
X123773700Y-59425000I-41300J0D01*
G01*
X121886300Y-59425000D01*
G75*
G02*
X121845000Y-59383700I0J41300D01*
G01*
X121845000Y-58876300D01*
G75*
G02*
X121886300Y-58835000I41300J0D01*
G01*
X123773700Y-58835000D01*
G75*
G02*
X123815000Y-58876300I0J-41300D01*
G01*
G37*
G36*
G01*
X123815000Y-57606300D02*
X123815000Y-58113700D01*
G75*
G02*
X123773700Y-58155000I-41300J0D01*
G01*
X121886300Y-58155000D01*
G75*
G02*
X121845000Y-58113700I0J41300D01*
G01*
X121845000Y-57606300D01*
G75*
G02*
X121886300Y-57565000I41300J0D01*
G01*
X123773700Y-57565000D01*
G75*
G02*
X123815000Y-57606300I0J-41300D01*
G01*
G37*
G36*
G01*
X123815000Y-56336300D02*
X123815000Y-56843700D01*
G75*
G02*
X123773700Y-56885000I-41300J0D01*
G01*
X121886300Y-56885000D01*
G75*
G02*
X121845000Y-56843700I0J41300D01*
G01*
X121845000Y-56336300D01*
G75*
G02*
X121886300Y-56295000I41300J0D01*
G01*
X123773700Y-56295000D01*
G75*
G02*
X123815000Y-56336300I0J-41300D01*
G01*
G37*
G36*
G01*
X123815000Y-55066300D02*
X123815000Y-55573700D01*
G75*
G02*
X123773700Y-55615000I-41300J0D01*
G01*
X121886300Y-55615000D01*
G75*
G02*
X121845000Y-55573700I0J41300D01*
G01*
X121845000Y-55066300D01*
G75*
G02*
X121886300Y-55025000I41300J0D01*
G01*
X123773700Y-55025000D01*
G75*
G02*
X123815000Y-55066300I0J-41300D01*
G01*
G37*
G36*
G01*
X118865000Y-55066300D02*
X118865000Y-55573700D01*
G75*
G02*
X118823700Y-55615000I-41300J0D01*
G01*
X116936300Y-55615000D01*
G75*
G02*
X116895000Y-55573700I0J41300D01*
G01*
X116895000Y-55066300D01*
G75*
G02*
X116936300Y-55025000I41300J0D01*
G01*
X118823700Y-55025000D01*
G75*
G02*
X118865000Y-55066300I0J-41300D01*
G01*
G37*
G36*
G01*
X118865000Y-56336300D02*
X118865000Y-56843700D01*
G75*
G02*
X118823700Y-56885000I-41300J0D01*
G01*
X116936300Y-56885000D01*
G75*
G02*
X116895000Y-56843700I0J41300D01*
G01*
X116895000Y-56336300D01*
G75*
G02*
X116936300Y-56295000I41300J0D01*
G01*
X118823700Y-56295000D01*
G75*
G02*
X118865000Y-56336300I0J-41300D01*
G01*
G37*
G36*
G01*
X118865000Y-57606300D02*
X118865000Y-58113700D01*
G75*
G02*
X118823700Y-58155000I-41300J0D01*
G01*
X116936300Y-58155000D01*
G75*
G02*
X116895000Y-58113700I0J41300D01*
G01*
X116895000Y-57606300D01*
G75*
G02*
X116936300Y-57565000I41300J0D01*
G01*
X118823700Y-57565000D01*
G75*
G02*
X118865000Y-57606300I0J-41300D01*
G01*
G37*
G36*
G01*
X118865000Y-58876300D02*
X118865000Y-59383700D01*
G75*
G02*
X118823700Y-59425000I-41300J0D01*
G01*
X116936300Y-59425000D01*
G75*
G02*
X116895000Y-59383700I0J41300D01*
G01*
X116895000Y-58876300D01*
G75*
G02*
X116936300Y-58835000I41300J0D01*
G01*
X118823700Y-58835000D01*
G75*
G02*
X118865000Y-58876300I0J-41300D01*
G01*
G37*
%TD*%
%TO.C,C22*%
G36*
G01*
X159525000Y-102550000D02*
X160475000Y-102550000D01*
G75*
G02*
X160725000Y-102800000I0J-250000D01*
G01*
X160725000Y-103300000D01*
G75*
G02*
X160475000Y-103550000I-250000J0D01*
G01*
X159525000Y-103550000D01*
G75*
G02*
X159275000Y-103300000I0J250000D01*
G01*
X159275000Y-102800000D01*
G75*
G02*
X159525000Y-102550000I250000J0D01*
G01*
G37*
G36*
G01*
X159525000Y-104450000D02*
X160475000Y-104450000D01*
G75*
G02*
X160725000Y-104700000I0J-250000D01*
G01*
X160725000Y-105200000D01*
G75*
G02*
X160475000Y-105450000I-250000J0D01*
G01*
X159525000Y-105450000D01*
G75*
G02*
X159275000Y-105200000I0J250000D01*
G01*
X159275000Y-104700000D01*
G75*
G02*
X159525000Y-104450000I250000J0D01*
G01*
G37*
%TD*%
%TO.C,C23*%
G36*
G01*
X151500000Y-106525000D02*
X151500000Y-107475000D01*
G75*
G02*
X151250000Y-107725000I-250000J0D01*
G01*
X150750000Y-107725000D01*
G75*
G02*
X150500000Y-107475000I0J250000D01*
G01*
X150500000Y-106525000D01*
G75*
G02*
X150750000Y-106275000I250000J0D01*
G01*
X151250000Y-106275000D01*
G75*
G02*
X151500000Y-106525000I0J-250000D01*
G01*
G37*
G36*
G01*
X153400000Y-106525000D02*
X153400000Y-107475000D01*
G75*
G02*
X153150000Y-107725000I-250000J0D01*
G01*
X152650000Y-107725000D01*
G75*
G02*
X152400000Y-107475000I0J250000D01*
G01*
X152400000Y-106525000D01*
G75*
G02*
X152650000Y-106275000I250000J0D01*
G01*
X153150000Y-106275000D01*
G75*
G02*
X153400000Y-106525000I0J-250000D01*
G01*
G37*
%TD*%
%TO.C,C28*%
G36*
G01*
X180950000Y-61025000D02*
X180950000Y-61975000D01*
G75*
G02*
X180700000Y-62225000I-250000J0D01*
G01*
X180200000Y-62225000D01*
G75*
G02*
X179950000Y-61975000I0J250000D01*
G01*
X179950000Y-61025000D01*
G75*
G02*
X180200000Y-60775000I250000J0D01*
G01*
X180700000Y-60775000D01*
G75*
G02*
X180950000Y-61025000I0J-250000D01*
G01*
G37*
G36*
G01*
X179050000Y-61025000D02*
X179050000Y-61975000D01*
G75*
G02*
X178800000Y-62225000I-250000J0D01*
G01*
X178300000Y-62225000D01*
G75*
G02*
X178050000Y-61975000I0J250000D01*
G01*
X178050000Y-61025000D01*
G75*
G02*
X178300000Y-60775000I250000J0D01*
G01*
X178800000Y-60775000D01*
G75*
G02*
X179050000Y-61025000I0J-250000D01*
G01*
G37*
%TD*%
%TO.C,C29*%
G36*
G01*
X183975000Y-71000000D02*
X183025000Y-71000000D01*
G75*
G02*
X182775000Y-70750000I0J250000D01*
G01*
X182775000Y-70250000D01*
G75*
G02*
X183025000Y-70000000I250000J0D01*
G01*
X183975000Y-70000000D01*
G75*
G02*
X184225000Y-70250000I0J-250000D01*
G01*
X184225000Y-70750000D01*
G75*
G02*
X183975000Y-71000000I-250000J0D01*
G01*
G37*
G36*
G01*
X183975000Y-72900000D02*
X183025000Y-72900000D01*
G75*
G02*
X182775000Y-72650000I0J250000D01*
G01*
X182775000Y-72150000D01*
G75*
G02*
X183025000Y-71900000I250000J0D01*
G01*
X183975000Y-71900000D01*
G75*
G02*
X184225000Y-72150000I0J-250000D01*
G01*
X184225000Y-72650000D01*
G75*
G02*
X183975000Y-72900000I-250000J0D01*
G01*
G37*
%TD*%
%TO.C,R36*%
G36*
G01*
X180075000Y-58450002D02*
X180075000Y-57549998D01*
G75*
G02*
X180324998Y-57300000I249998J0D01*
G01*
X180850002Y-57300000D01*
G75*
G02*
X181100000Y-57549998I0J-249998D01*
G01*
X181100000Y-58450002D01*
G75*
G02*
X180850002Y-58700000I-249998J0D01*
G01*
X180324998Y-58700000D01*
G75*
G02*
X180075000Y-58450002I0J249998D01*
G01*
G37*
G36*
G01*
X181900000Y-58450002D02*
X181900000Y-57549998D01*
G75*
G02*
X182149998Y-57300000I249998J0D01*
G01*
X182675002Y-57300000D01*
G75*
G02*
X182925000Y-57549998I0J-249998D01*
G01*
X182925000Y-58450002D01*
G75*
G02*
X182675002Y-58700000I-249998J0D01*
G01*
X182149998Y-58700000D01*
G75*
G02*
X181900000Y-58450002I0J249998D01*
G01*
G37*
%TD*%
%TO.C,R37*%
G36*
G01*
X182450002Y-78100000D02*
X181549998Y-78100000D01*
G75*
G02*
X181300000Y-77850002I0J249998D01*
G01*
X181300000Y-77324998D01*
G75*
G02*
X181549998Y-77075000I249998J0D01*
G01*
X182450002Y-77075000D01*
G75*
G02*
X182700000Y-77324998I0J-249998D01*
G01*
X182700000Y-77850002D01*
G75*
G02*
X182450002Y-78100000I-249998J0D01*
G01*
G37*
G36*
G01*
X182450002Y-79925000D02*
X181549998Y-79925000D01*
G75*
G02*
X181300000Y-79675002I0J249998D01*
G01*
X181300000Y-79149998D01*
G75*
G02*
X181549998Y-78900000I249998J0D01*
G01*
X182450002Y-78900000D01*
G75*
G02*
X182700000Y-79149998I0J-249998D01*
G01*
X182700000Y-79675002D01*
G75*
G02*
X182450002Y-79925000I-249998J0D01*
G01*
G37*
%TD*%
%TO.C,R10P1*%
G36*
G01*
X162456250Y-70925000D02*
X161543750Y-70925000D01*
G75*
G02*
X161300000Y-70681250I0J243750D01*
G01*
X161300000Y-70193750D01*
G75*
G02*
X161543750Y-69950000I243750J0D01*
G01*
X162456250Y-69950000D01*
G75*
G02*
X162700000Y-70193750I0J-243750D01*
G01*
X162700000Y-70681250D01*
G75*
G02*
X162456250Y-70925000I-243750J0D01*
G01*
G37*
G36*
G01*
X162456250Y-69050000D02*
X161543750Y-69050000D01*
G75*
G02*
X161300000Y-68806250I0J243750D01*
G01*
X161300000Y-68318750D01*
G75*
G02*
X161543750Y-68075000I243750J0D01*
G01*
X162456250Y-68075000D01*
G75*
G02*
X162700000Y-68318750I0J-243750D01*
G01*
X162700000Y-68806250D01*
G75*
G02*
X162456250Y-69050000I-243750J0D01*
G01*
G37*
%TD*%
%TO.C,R2P1*%
G36*
G01*
X141956250Y-69550000D02*
X141043750Y-69550000D01*
G75*
G02*
X140800000Y-69306250I0J243750D01*
G01*
X140800000Y-68818750D01*
G75*
G02*
X141043750Y-68575000I243750J0D01*
G01*
X141956250Y-68575000D01*
G75*
G02*
X142200000Y-68818750I0J-243750D01*
G01*
X142200000Y-69306250D01*
G75*
G02*
X141956250Y-69550000I-243750J0D01*
G01*
G37*
G36*
G01*
X141956250Y-71425000D02*
X141043750Y-71425000D01*
G75*
G02*
X140800000Y-71181250I0J243750D01*
G01*
X140800000Y-70693750D01*
G75*
G02*
X141043750Y-70450000I243750J0D01*
G01*
X141956250Y-70450000D01*
G75*
G02*
X142200000Y-70693750I0J-243750D01*
G01*
X142200000Y-71181250D01*
G75*
G02*
X141956250Y-71425000I-243750J0D01*
G01*
G37*
%TD*%
%TO.C,R52S1*%
G36*
G01*
X169950000Y-58456250D02*
X169950000Y-57543750D01*
G75*
G02*
X170193750Y-57300000I243750J0D01*
G01*
X170681250Y-57300000D01*
G75*
G02*
X170925000Y-57543750I0J-243750D01*
G01*
X170925000Y-58456250D01*
G75*
G02*
X170681250Y-58700000I-243750J0D01*
G01*
X170193750Y-58700000D01*
G75*
G02*
X169950000Y-58456250I0J243750D01*
G01*
G37*
G36*
G01*
X168075000Y-58456250D02*
X168075000Y-57543750D01*
G75*
G02*
X168318750Y-57300000I243750J0D01*
G01*
X168806250Y-57300000D01*
G75*
G02*
X169050000Y-57543750I0J-243750D01*
G01*
X169050000Y-58456250D01*
G75*
G02*
X168806250Y-58700000I-243750J0D01*
G01*
X168318750Y-58700000D01*
G75*
G02*
X168075000Y-58456250I0J243750D01*
G01*
G37*
%TD*%
%TO.C,C24*%
G36*
G01*
X171450000Y-72956250D02*
X171450000Y-72043750D01*
G75*
G02*
X171693750Y-71800000I243750J0D01*
G01*
X172181250Y-71800000D01*
G75*
G02*
X172425000Y-72043750I0J-243750D01*
G01*
X172425000Y-72956250D01*
G75*
G02*
X172181250Y-73200000I-243750J0D01*
G01*
X171693750Y-73200000D01*
G75*
G02*
X171450000Y-72956250I0J243750D01*
G01*
G37*
G36*
G01*
X169575000Y-72956250D02*
X169575000Y-72043750D01*
G75*
G02*
X169818750Y-71800000I243750J0D01*
G01*
X170306250Y-71800000D01*
G75*
G02*
X170550000Y-72043750I0J-243750D01*
G01*
X170550000Y-72956250D01*
G75*
G02*
X170306250Y-73200000I-243750J0D01*
G01*
X169818750Y-73200000D01*
G75*
G02*
X169575000Y-72956250I0J243750D01*
G01*
G37*
%TD*%
%TO.C,C25*%
G36*
G01*
X164450000Y-88456250D02*
X164450000Y-87543750D01*
G75*
G02*
X164693750Y-87300000I243750J0D01*
G01*
X165181250Y-87300000D01*
G75*
G02*
X165425000Y-87543750I0J-243750D01*
G01*
X165425000Y-88456250D01*
G75*
G02*
X165181250Y-88700000I-243750J0D01*
G01*
X164693750Y-88700000D01*
G75*
G02*
X164450000Y-88456250I0J243750D01*
G01*
G37*
G36*
G01*
X162575000Y-88456250D02*
X162575000Y-87543750D01*
G75*
G02*
X162818750Y-87300000I243750J0D01*
G01*
X163306250Y-87300000D01*
G75*
G02*
X163550000Y-87543750I0J-243750D01*
G01*
X163550000Y-88456250D01*
G75*
G02*
X163306250Y-88700000I-243750J0D01*
G01*
X162818750Y-88700000D01*
G75*
G02*
X162575000Y-88456250I0J243750D01*
G01*
G37*
%TD*%
%TO.C,C26*%
G36*
G01*
X169575000Y-76456250D02*
X169575000Y-75543750D01*
G75*
G02*
X169818750Y-75300000I243750J0D01*
G01*
X170306250Y-75300000D01*
G75*
G02*
X170550000Y-75543750I0J-243750D01*
G01*
X170550000Y-76456250D01*
G75*
G02*
X170306250Y-76700000I-243750J0D01*
G01*
X169818750Y-76700000D01*
G75*
G02*
X169575000Y-76456250I0J243750D01*
G01*
G37*
G36*
G01*
X171450000Y-76456250D02*
X171450000Y-75543750D01*
G75*
G02*
X171693750Y-75300000I243750J0D01*
G01*
X172181250Y-75300000D01*
G75*
G02*
X172425000Y-75543750I0J-243750D01*
G01*
X172425000Y-76456250D01*
G75*
G02*
X172181250Y-76700000I-243750J0D01*
G01*
X171693750Y-76700000D01*
G75*
G02*
X171450000Y-76456250I0J243750D01*
G01*
G37*
%TD*%
%TO.C,C27*%
G36*
G01*
X162575000Y-85956250D02*
X162575000Y-85043750D01*
G75*
G02*
X162818750Y-84800000I243750J0D01*
G01*
X163306250Y-84800000D01*
G75*
G02*
X163550000Y-85043750I0J-243750D01*
G01*
X163550000Y-85956250D01*
G75*
G02*
X163306250Y-86200000I-243750J0D01*
G01*
X162818750Y-86200000D01*
G75*
G02*
X162575000Y-85956250I0J243750D01*
G01*
G37*
G36*
G01*
X164450000Y-85956250D02*
X164450000Y-85043750D01*
G75*
G02*
X164693750Y-84800000I243750J0D01*
G01*
X165181250Y-84800000D01*
G75*
G02*
X165425000Y-85043750I0J-243750D01*
G01*
X165425000Y-85956250D01*
G75*
G02*
X165181250Y-86200000I-243750J0D01*
G01*
X164693750Y-86200000D01*
G75*
G02*
X164450000Y-85956250I0J243750D01*
G01*
G37*
%TD*%
M02*
