%TF.GenerationSoftware,KiCad,Pcbnew,(5.1.10)-1*%
%TF.CreationDate,2022-06-10T11:25:59+02:00*%
%TF.ProjectId,NGL_Proto_ST,4e474c5f-5072-46f7-946f-5f53542e6b69,V1*%
%TF.SameCoordinates,Original*%
%TF.FileFunction,Paste,Top*%
%TF.FilePolarity,Positive*%
%FSLAX46Y46*%
G04 Gerber Fmt 4.6, Leading zero omitted, Abs format (unit mm)*
G04 Created by KiCad (PCBNEW (5.1.10)-1) date 2022-06-10 11:25:59*
%MOMM*%
%LPD*%
G01*
G04 APERTURE LIST*
%ADD10C,0.010000*%
%ADD11R,1.969999X0.558000*%
%ADD12R,1.330000X1.330000*%
%ADD13R,0.900000X2.000000*%
%ADD14R,2.000000X0.900000*%
%ADD15R,0.450000X1.500000*%
%ADD16R,1.500000X0.450000*%
%ADD17R,1.300000X1.700000*%
%ADD18R,1.690599X0.872800*%
%ADD19R,1.690599X1.355400*%
%ADD20R,0.835000X0.431800*%
%ADD21R,1.378699X0.354800*%
%ADD22R,1.422400X0.304800*%
G04 APERTURE END LIST*
D10*
%TO.C,U5*%
G36*
X137220000Y-107560000D02*
G01*
X140780000Y-107560000D01*
X140780000Y-111419999D01*
X137220000Y-111419999D01*
X137220000Y-107560000D01*
G37*
X137220000Y-107560000D02*
X140780000Y-107560000D01*
X140780000Y-111419999D01*
X137220000Y-111419999D01*
X137220000Y-107560000D01*
%TD*%
%TO.C,U5*%
G36*
G01*
X141903000Y-117555000D02*
X141183000Y-117555000D01*
G75*
G02*
X141093000Y-117465000I0J90000D01*
G01*
X141093000Y-114815000D01*
G75*
G02*
X141183000Y-114725000I90000J0D01*
G01*
X141903000Y-114725000D01*
G75*
G02*
X141993000Y-114815000I0J-90000D01*
G01*
X141993000Y-117465000D01*
G75*
G02*
X141903000Y-117555000I-90000J0D01*
G01*
G37*
G36*
G01*
X140630000Y-117555000D02*
X139910000Y-117555000D01*
G75*
G02*
X139820000Y-117465000I0J90000D01*
G01*
X139820000Y-114815000D01*
G75*
G02*
X139910000Y-114725000I90000J0D01*
G01*
X140630000Y-114725000D01*
G75*
G02*
X140720000Y-114815000I0J-90000D01*
G01*
X140720000Y-117465000D01*
G75*
G02*
X140630000Y-117555000I-90000J0D01*
G01*
G37*
G36*
G01*
X138090000Y-117555000D02*
X137370000Y-117555000D01*
G75*
G02*
X137280000Y-117465000I0J90000D01*
G01*
X137280000Y-114815000D01*
G75*
G02*
X137370000Y-114725000I90000J0D01*
G01*
X138090000Y-114725000D01*
G75*
G02*
X138180000Y-114815000I0J-90000D01*
G01*
X138180000Y-117465000D01*
G75*
G02*
X138090000Y-117555000I-90000J0D01*
G01*
G37*
G36*
G01*
X136820000Y-117555000D02*
X136100000Y-117555000D01*
G75*
G02*
X136010000Y-117465000I0J90000D01*
G01*
X136010000Y-114815000D01*
G75*
G02*
X136100000Y-114725000I90000J0D01*
G01*
X136820000Y-114725000D01*
G75*
G02*
X136910000Y-114815000I0J-90000D01*
G01*
X136910000Y-117465000D01*
G75*
G02*
X136820000Y-117555000I-90000J0D01*
G01*
G37*
%TD*%
D11*
%TO.C,U2*%
X161463800Y-57595000D03*
X161463800Y-58865000D03*
X161463800Y-60135000D03*
X161463800Y-61405000D03*
X156536200Y-61405000D03*
X156536200Y-60135000D03*
X156536200Y-58865000D03*
X156536200Y-57595000D03*
%TD*%
%TO.C,U1*%
X144463800Y-80595000D03*
X144463800Y-81865000D03*
X144463800Y-83135000D03*
X144463800Y-84405000D03*
X139536200Y-84405000D03*
X139536200Y-83135000D03*
X139536200Y-81865000D03*
X139536200Y-80595000D03*
%TD*%
%TO.C,U8*%
X169963800Y-79095000D03*
X169963800Y-80365000D03*
X169963800Y-81635000D03*
X169963800Y-82905000D03*
X165036200Y-82905000D03*
X165036200Y-81635000D03*
X165036200Y-80365000D03*
X165036200Y-79095000D03*
%TD*%
D12*
%TO.C,U4*%
X195925000Y-85835000D03*
X195925000Y-84000000D03*
X195925000Y-82165000D03*
X197760000Y-85835000D03*
X197760000Y-84000000D03*
X197760000Y-82165000D03*
X199595000Y-85835000D03*
X199595000Y-84000000D03*
X199595000Y-82165000D03*
D13*
X205260000Y-93500000D03*
X203990000Y-93500000D03*
X202720000Y-93500000D03*
X201450000Y-93500000D03*
X200180000Y-93500000D03*
X198910000Y-93500000D03*
X197640000Y-93500000D03*
X196370000Y-93500000D03*
X195100000Y-93500000D03*
X193830000Y-93500000D03*
X192560000Y-93500000D03*
X191290000Y-93500000D03*
X190020000Y-93500000D03*
X188750000Y-93500000D03*
D14*
X187750000Y-90715000D03*
X187750000Y-89445000D03*
X187750000Y-88175000D03*
X187750000Y-86905000D03*
X187750000Y-85635000D03*
X187750000Y-84365000D03*
X187750000Y-83095000D03*
X187750000Y-81825000D03*
X187750000Y-80555000D03*
X187750000Y-79285000D03*
D13*
X188750000Y-76500000D03*
X190020000Y-76500000D03*
X191290000Y-76500000D03*
X192560000Y-76500000D03*
X193830000Y-76500000D03*
X195100000Y-76500000D03*
X196370000Y-76500000D03*
X197640000Y-76500000D03*
X198910000Y-76500000D03*
X200180000Y-76500000D03*
X201450000Y-76500000D03*
X202720000Y-76500000D03*
X203990000Y-76500000D03*
X205260000Y-76500000D03*
%TD*%
D15*
%TO.C,D3*%
X162650000Y-73170000D03*
X161350000Y-73170000D03*
X162000000Y-75830000D03*
%TD*%
D16*
%TO.C,D4*%
X178170000Y-63350000D03*
X178170000Y-64650000D03*
X180830000Y-64000000D03*
%TD*%
D15*
%TO.C,D6*%
X156350000Y-54830000D03*
X157650000Y-54830000D03*
X157000000Y-52170000D03*
%TD*%
%TO.C,D11*%
X154150000Y-52170000D03*
X152850000Y-52170000D03*
X153500000Y-54830000D03*
%TD*%
%TO.C,D2*%
X164850000Y-75830000D03*
X166150000Y-75830000D03*
X165500000Y-73170000D03*
%TD*%
D16*
%TO.C,D5*%
X177170000Y-86350000D03*
X177170000Y-87650000D03*
X179830000Y-87000000D03*
%TD*%
%TO.C,R18*%
G36*
G01*
X209543750Y-99450000D02*
X210456250Y-99450000D01*
G75*
G02*
X210700000Y-99693750I0J-243750D01*
G01*
X210700000Y-100181250D01*
G75*
G02*
X210456250Y-100425000I-243750J0D01*
G01*
X209543750Y-100425000D01*
G75*
G02*
X209300000Y-100181250I0J243750D01*
G01*
X209300000Y-99693750D01*
G75*
G02*
X209543750Y-99450000I243750J0D01*
G01*
G37*
G36*
G01*
X209543750Y-97575000D02*
X210456250Y-97575000D01*
G75*
G02*
X210700000Y-97818750I0J-243750D01*
G01*
X210700000Y-98306250D01*
G75*
G02*
X210456250Y-98550000I-243750J0D01*
G01*
X209543750Y-98550000D01*
G75*
G02*
X209300000Y-98306250I0J243750D01*
G01*
X209300000Y-97818750D01*
G75*
G02*
X209543750Y-97575000I243750J0D01*
G01*
G37*
%TD*%
%TO.C,R19*%
G36*
G01*
X202543750Y-100075000D02*
X203456250Y-100075000D01*
G75*
G02*
X203700000Y-100318750I0J-243750D01*
G01*
X203700000Y-100806250D01*
G75*
G02*
X203456250Y-101050000I-243750J0D01*
G01*
X202543750Y-101050000D01*
G75*
G02*
X202300000Y-100806250I0J243750D01*
G01*
X202300000Y-100318750D01*
G75*
G02*
X202543750Y-100075000I243750J0D01*
G01*
G37*
G36*
G01*
X202543750Y-101950000D02*
X203456250Y-101950000D01*
G75*
G02*
X203700000Y-102193750I0J-243750D01*
G01*
X203700000Y-102681250D01*
G75*
G02*
X203456250Y-102925000I-243750J0D01*
G01*
X202543750Y-102925000D01*
G75*
G02*
X202300000Y-102681250I0J243750D01*
G01*
X202300000Y-102193750D01*
G75*
G02*
X202543750Y-101950000I243750J0D01*
G01*
G37*
%TD*%
D17*
%TO.C,D1*%
X112250000Y-103500000D03*
X115750000Y-103500000D03*
%TD*%
%TO.C,D7*%
X112250000Y-106500000D03*
X115750000Y-106500000D03*
%TD*%
D18*
%TO.C,POT1*%
X153849500Y-92750000D03*
X153849500Y-90250000D03*
D19*
X149150500Y-91500000D03*
%TD*%
%TO.C,U7*%
G36*
G01*
X150540000Y-101348700D02*
X150540000Y-100841300D01*
G75*
G02*
X150581300Y-100800000I41300J0D01*
G01*
X152468700Y-100800000D01*
G75*
G02*
X152510000Y-100841300I0J-41300D01*
G01*
X152510000Y-101348700D01*
G75*
G02*
X152468700Y-101390000I-41300J0D01*
G01*
X150581300Y-101390000D01*
G75*
G02*
X150540000Y-101348700I0J41300D01*
G01*
G37*
G36*
G01*
X150540000Y-102618700D02*
X150540000Y-102111300D01*
G75*
G02*
X150581300Y-102070000I41300J0D01*
G01*
X152468700Y-102070000D01*
G75*
G02*
X152510000Y-102111300I0J-41300D01*
G01*
X152510000Y-102618700D01*
G75*
G02*
X152468700Y-102660000I-41300J0D01*
G01*
X150581300Y-102660000D01*
G75*
G02*
X150540000Y-102618700I0J41300D01*
G01*
G37*
G36*
G01*
X150540000Y-103888700D02*
X150540000Y-103381300D01*
G75*
G02*
X150581300Y-103340000I41300J0D01*
G01*
X152468700Y-103340000D01*
G75*
G02*
X152510000Y-103381300I0J-41300D01*
G01*
X152510000Y-103888700D01*
G75*
G02*
X152468700Y-103930000I-41300J0D01*
G01*
X150581300Y-103930000D01*
G75*
G02*
X150540000Y-103888700I0J41300D01*
G01*
G37*
G36*
G01*
X150540000Y-105158700D02*
X150540000Y-104651300D01*
G75*
G02*
X150581300Y-104610000I41300J0D01*
G01*
X152468700Y-104610000D01*
G75*
G02*
X152510000Y-104651300I0J-41300D01*
G01*
X152510000Y-105158700D01*
G75*
G02*
X152468700Y-105200000I-41300J0D01*
G01*
X150581300Y-105200000D01*
G75*
G02*
X150540000Y-105158700I0J41300D01*
G01*
G37*
G36*
G01*
X155490000Y-105158700D02*
X155490000Y-104651300D01*
G75*
G02*
X155531300Y-104610000I41300J0D01*
G01*
X157418700Y-104610000D01*
G75*
G02*
X157460000Y-104651300I0J-41300D01*
G01*
X157460000Y-105158700D01*
G75*
G02*
X157418700Y-105200000I-41300J0D01*
G01*
X155531300Y-105200000D01*
G75*
G02*
X155490000Y-105158700I0J41300D01*
G01*
G37*
G36*
G01*
X155490000Y-103888700D02*
X155490000Y-103381300D01*
G75*
G02*
X155531300Y-103340000I41300J0D01*
G01*
X157418700Y-103340000D01*
G75*
G02*
X157460000Y-103381300I0J-41300D01*
G01*
X157460000Y-103888700D01*
G75*
G02*
X157418700Y-103930000I-41300J0D01*
G01*
X155531300Y-103930000D01*
G75*
G02*
X155490000Y-103888700I0J41300D01*
G01*
G37*
G36*
G01*
X155490000Y-102618700D02*
X155490000Y-102111300D01*
G75*
G02*
X155531300Y-102070000I41300J0D01*
G01*
X157418700Y-102070000D01*
G75*
G02*
X157460000Y-102111300I0J-41300D01*
G01*
X157460000Y-102618700D01*
G75*
G02*
X157418700Y-102660000I-41300J0D01*
G01*
X155531300Y-102660000D01*
G75*
G02*
X155490000Y-102618700I0J41300D01*
G01*
G37*
G36*
G01*
X155490000Y-101348700D02*
X155490000Y-100841300D01*
G75*
G02*
X155531300Y-100800000I41300J0D01*
G01*
X157418700Y-100800000D01*
G75*
G02*
X157460000Y-100841300I0J-41300D01*
G01*
X157460000Y-101348700D01*
G75*
G02*
X157418700Y-101390000I-41300J0D01*
G01*
X155531300Y-101390000D01*
G75*
G02*
X155490000Y-101348700I0J41300D01*
G01*
G37*
%TD*%
%TO.C,U9*%
G36*
G01*
X195460000Y-103651300D02*
X195460000Y-104158700D01*
G75*
G02*
X195418700Y-104200000I-41300J0D01*
G01*
X193531300Y-104200000D01*
G75*
G02*
X193490000Y-104158700I0J41300D01*
G01*
X193490000Y-103651300D01*
G75*
G02*
X193531300Y-103610000I41300J0D01*
G01*
X195418700Y-103610000D01*
G75*
G02*
X195460000Y-103651300I0J-41300D01*
G01*
G37*
G36*
G01*
X195460000Y-102381300D02*
X195460000Y-102888700D01*
G75*
G02*
X195418700Y-102930000I-41300J0D01*
G01*
X193531300Y-102930000D01*
G75*
G02*
X193490000Y-102888700I0J41300D01*
G01*
X193490000Y-102381300D01*
G75*
G02*
X193531300Y-102340000I41300J0D01*
G01*
X195418700Y-102340000D01*
G75*
G02*
X195460000Y-102381300I0J-41300D01*
G01*
G37*
G36*
G01*
X195460000Y-101111300D02*
X195460000Y-101618700D01*
G75*
G02*
X195418700Y-101660000I-41300J0D01*
G01*
X193531300Y-101660000D01*
G75*
G02*
X193490000Y-101618700I0J41300D01*
G01*
X193490000Y-101111300D01*
G75*
G02*
X193531300Y-101070000I41300J0D01*
G01*
X195418700Y-101070000D01*
G75*
G02*
X195460000Y-101111300I0J-41300D01*
G01*
G37*
G36*
G01*
X195460000Y-99841300D02*
X195460000Y-100348700D01*
G75*
G02*
X195418700Y-100390000I-41300J0D01*
G01*
X193531300Y-100390000D01*
G75*
G02*
X193490000Y-100348700I0J41300D01*
G01*
X193490000Y-99841300D01*
G75*
G02*
X193531300Y-99800000I41300J0D01*
G01*
X195418700Y-99800000D01*
G75*
G02*
X195460000Y-99841300I0J-41300D01*
G01*
G37*
G36*
G01*
X190510000Y-99841300D02*
X190510000Y-100348700D01*
G75*
G02*
X190468700Y-100390000I-41300J0D01*
G01*
X188581300Y-100390000D01*
G75*
G02*
X188540000Y-100348700I0J41300D01*
G01*
X188540000Y-99841300D01*
G75*
G02*
X188581300Y-99800000I41300J0D01*
G01*
X190468700Y-99800000D01*
G75*
G02*
X190510000Y-99841300I0J-41300D01*
G01*
G37*
G36*
G01*
X190510000Y-101111300D02*
X190510000Y-101618700D01*
G75*
G02*
X190468700Y-101660000I-41300J0D01*
G01*
X188581300Y-101660000D01*
G75*
G02*
X188540000Y-101618700I0J41300D01*
G01*
X188540000Y-101111300D01*
G75*
G02*
X188581300Y-101070000I41300J0D01*
G01*
X190468700Y-101070000D01*
G75*
G02*
X190510000Y-101111300I0J-41300D01*
G01*
G37*
G36*
G01*
X190510000Y-102381300D02*
X190510000Y-102888700D01*
G75*
G02*
X190468700Y-102930000I-41300J0D01*
G01*
X188581300Y-102930000D01*
G75*
G02*
X188540000Y-102888700I0J41300D01*
G01*
X188540000Y-102381300D01*
G75*
G02*
X188581300Y-102340000I41300J0D01*
G01*
X190468700Y-102340000D01*
G75*
G02*
X190510000Y-102381300I0J-41300D01*
G01*
G37*
G36*
G01*
X190510000Y-103651300D02*
X190510000Y-104158700D01*
G75*
G02*
X190468700Y-104200000I-41300J0D01*
G01*
X188581300Y-104200000D01*
G75*
G02*
X188540000Y-104158700I0J41300D01*
G01*
X188540000Y-103651300D01*
G75*
G02*
X188581300Y-103610000I41300J0D01*
G01*
X190468700Y-103610000D01*
G75*
G02*
X190510000Y-103651300I0J-41300D01*
G01*
G37*
%TD*%
%TO.C,U3*%
G36*
G01*
X123815000Y-58876300D02*
X123815000Y-59383700D01*
G75*
G02*
X123773700Y-59425000I-41300J0D01*
G01*
X121886300Y-59425000D01*
G75*
G02*
X121845000Y-59383700I0J41300D01*
G01*
X121845000Y-58876300D01*
G75*
G02*
X121886300Y-58835000I41300J0D01*
G01*
X123773700Y-58835000D01*
G75*
G02*
X123815000Y-58876300I0J-41300D01*
G01*
G37*
G36*
G01*
X123815000Y-57606300D02*
X123815000Y-58113700D01*
G75*
G02*
X123773700Y-58155000I-41300J0D01*
G01*
X121886300Y-58155000D01*
G75*
G02*
X121845000Y-58113700I0J41300D01*
G01*
X121845000Y-57606300D01*
G75*
G02*
X121886300Y-57565000I41300J0D01*
G01*
X123773700Y-57565000D01*
G75*
G02*
X123815000Y-57606300I0J-41300D01*
G01*
G37*
G36*
G01*
X123815000Y-56336300D02*
X123815000Y-56843700D01*
G75*
G02*
X123773700Y-56885000I-41300J0D01*
G01*
X121886300Y-56885000D01*
G75*
G02*
X121845000Y-56843700I0J41300D01*
G01*
X121845000Y-56336300D01*
G75*
G02*
X121886300Y-56295000I41300J0D01*
G01*
X123773700Y-56295000D01*
G75*
G02*
X123815000Y-56336300I0J-41300D01*
G01*
G37*
G36*
G01*
X123815000Y-55066300D02*
X123815000Y-55573700D01*
G75*
G02*
X123773700Y-55615000I-41300J0D01*
G01*
X121886300Y-55615000D01*
G75*
G02*
X121845000Y-55573700I0J41300D01*
G01*
X121845000Y-55066300D01*
G75*
G02*
X121886300Y-55025000I41300J0D01*
G01*
X123773700Y-55025000D01*
G75*
G02*
X123815000Y-55066300I0J-41300D01*
G01*
G37*
G36*
G01*
X118865000Y-55066300D02*
X118865000Y-55573700D01*
G75*
G02*
X118823700Y-55615000I-41300J0D01*
G01*
X116936300Y-55615000D01*
G75*
G02*
X116895000Y-55573700I0J41300D01*
G01*
X116895000Y-55066300D01*
G75*
G02*
X116936300Y-55025000I41300J0D01*
G01*
X118823700Y-55025000D01*
G75*
G02*
X118865000Y-55066300I0J-41300D01*
G01*
G37*
G36*
G01*
X118865000Y-56336300D02*
X118865000Y-56843700D01*
G75*
G02*
X118823700Y-56885000I-41300J0D01*
G01*
X116936300Y-56885000D01*
G75*
G02*
X116895000Y-56843700I0J41300D01*
G01*
X116895000Y-56336300D01*
G75*
G02*
X116936300Y-56295000I41300J0D01*
G01*
X118823700Y-56295000D01*
G75*
G02*
X118865000Y-56336300I0J-41300D01*
G01*
G37*
G36*
G01*
X118865000Y-57606300D02*
X118865000Y-58113700D01*
G75*
G02*
X118823700Y-58155000I-41300J0D01*
G01*
X116936300Y-58155000D01*
G75*
G02*
X116895000Y-58113700I0J41300D01*
G01*
X116895000Y-57606300D01*
G75*
G02*
X116936300Y-57565000I41300J0D01*
G01*
X118823700Y-57565000D01*
G75*
G02*
X118865000Y-57606300I0J-41300D01*
G01*
G37*
G36*
G01*
X118865000Y-58876300D02*
X118865000Y-59383700D01*
G75*
G02*
X118823700Y-59425000I-41300J0D01*
G01*
X116936300Y-59425000D01*
G75*
G02*
X116895000Y-59383700I0J41300D01*
G01*
X116895000Y-58876300D01*
G75*
G02*
X116936300Y-58835000I41300J0D01*
G01*
X118823700Y-58835000D01*
G75*
G02*
X118865000Y-58876300I0J-41300D01*
G01*
G37*
%TD*%
D20*
%TO.C,T1*%
X182992600Y-116350001D03*
X182992600Y-117649999D03*
X184767400Y-117000000D03*
%TD*%
D21*
%TO.C,U10*%
X133062752Y-56549999D03*
X133062752Y-57200000D03*
X133062752Y-57850001D03*
X133062752Y-58500000D03*
X133062752Y-59149999D03*
X133062752Y-59800000D03*
X133062752Y-60449999D03*
X138937248Y-60450001D03*
X138937248Y-59800000D03*
X138937248Y-59150001D03*
X138937248Y-58500000D03*
X138937248Y-57850001D03*
X138937248Y-57200000D03*
X138937248Y-56550001D03*
%TD*%
D22*
%TO.C,U11*%
X149315600Y-70009400D03*
X149315600Y-70492000D03*
X149315600Y-71000000D03*
X149315600Y-71508000D03*
X149315600Y-71990600D03*
X153684400Y-71990600D03*
X153684400Y-71508000D03*
X153684400Y-71000000D03*
X153684400Y-70492000D03*
X153684400Y-70009400D03*
%TD*%
%TO.C,C1*%
G36*
G01*
X197525000Y-101375000D02*
X198475000Y-101375000D01*
G75*
G02*
X198725000Y-101625000I0J-250000D01*
G01*
X198725000Y-102300000D01*
G75*
G02*
X198475000Y-102550000I-250000J0D01*
G01*
X197525000Y-102550000D01*
G75*
G02*
X197275000Y-102300000I0J250000D01*
G01*
X197275000Y-101625000D01*
G75*
G02*
X197525000Y-101375000I250000J0D01*
G01*
G37*
G36*
G01*
X197525000Y-103450000D02*
X198475000Y-103450000D01*
G75*
G02*
X198725000Y-103700000I0J-250000D01*
G01*
X198725000Y-104375000D01*
G75*
G02*
X198475000Y-104625000I-250000J0D01*
G01*
X197525000Y-104625000D01*
G75*
G02*
X197275000Y-104375000I0J250000D01*
G01*
X197275000Y-103700000D01*
G75*
G02*
X197525000Y-103450000I250000J0D01*
G01*
G37*
%TD*%
%TO.C,C2*%
G36*
G01*
X136875000Y-86975000D02*
X136875000Y-86025000D01*
G75*
G02*
X137125000Y-85775000I250000J0D01*
G01*
X137800000Y-85775000D01*
G75*
G02*
X138050000Y-86025000I0J-250000D01*
G01*
X138050000Y-86975000D01*
G75*
G02*
X137800000Y-87225000I-250000J0D01*
G01*
X137125000Y-87225000D01*
G75*
G02*
X136875000Y-86975000I0J250000D01*
G01*
G37*
G36*
G01*
X138950000Y-86975000D02*
X138950000Y-86025000D01*
G75*
G02*
X139200000Y-85775000I250000J0D01*
G01*
X139875000Y-85775000D01*
G75*
G02*
X140125000Y-86025000I0J-250000D01*
G01*
X140125000Y-86975000D01*
G75*
G02*
X139875000Y-87225000I-250000J0D01*
G01*
X139200000Y-87225000D01*
G75*
G02*
X138950000Y-86975000I0J250000D01*
G01*
G37*
%TD*%
%TO.C,C3*%
G36*
G01*
X136813000Y-89475000D02*
X136813000Y-88525000D01*
G75*
G02*
X137063000Y-88275000I250000J0D01*
G01*
X137738000Y-88275000D01*
G75*
G02*
X137988000Y-88525000I0J-250000D01*
G01*
X137988000Y-89475000D01*
G75*
G02*
X137738000Y-89725000I-250000J0D01*
G01*
X137063000Y-89725000D01*
G75*
G02*
X136813000Y-89475000I0J250000D01*
G01*
G37*
G36*
G01*
X138888000Y-89475000D02*
X138888000Y-88525000D01*
G75*
G02*
X139138000Y-88275000I250000J0D01*
G01*
X139813000Y-88275000D01*
G75*
G02*
X140063000Y-88525000I0J-250000D01*
G01*
X140063000Y-89475000D01*
G75*
G02*
X139813000Y-89725000I-250000J0D01*
G01*
X139138000Y-89725000D01*
G75*
G02*
X138888000Y-89475000I0J250000D01*
G01*
G37*
%TD*%
%TO.C,C4*%
G36*
G01*
X114525000Y-60450000D02*
X115475000Y-60450000D01*
G75*
G02*
X115725000Y-60700000I0J-250000D01*
G01*
X115725000Y-61375000D01*
G75*
G02*
X115475000Y-61625000I-250000J0D01*
G01*
X114525000Y-61625000D01*
G75*
G02*
X114275000Y-61375000I0J250000D01*
G01*
X114275000Y-60700000D01*
G75*
G02*
X114525000Y-60450000I250000J0D01*
G01*
G37*
G36*
G01*
X114525000Y-58375000D02*
X115475000Y-58375000D01*
G75*
G02*
X115725000Y-58625000I0J-250000D01*
G01*
X115725000Y-59300000D01*
G75*
G02*
X115475000Y-59550000I-250000J0D01*
G01*
X114525000Y-59550000D01*
G75*
G02*
X114275000Y-59300000I0J250000D01*
G01*
X114275000Y-58625000D01*
G75*
G02*
X114525000Y-58375000I250000J0D01*
G01*
G37*
%TD*%
%TO.C,C5*%
G36*
G01*
X145950000Y-75975000D02*
X145950000Y-75025000D01*
G75*
G02*
X146200000Y-74775000I250000J0D01*
G01*
X146875000Y-74775000D01*
G75*
G02*
X147125000Y-75025000I0J-250000D01*
G01*
X147125000Y-75975000D01*
G75*
G02*
X146875000Y-76225000I-250000J0D01*
G01*
X146200000Y-76225000D01*
G75*
G02*
X145950000Y-75975000I0J250000D01*
G01*
G37*
G36*
G01*
X143875000Y-75975000D02*
X143875000Y-75025000D01*
G75*
G02*
X144125000Y-74775000I250000J0D01*
G01*
X144800000Y-74775000D01*
G75*
G02*
X145050000Y-75025000I0J-250000D01*
G01*
X145050000Y-75975000D01*
G75*
G02*
X144800000Y-76225000I-250000J0D01*
G01*
X144125000Y-76225000D01*
G75*
G02*
X143875000Y-75975000I0J250000D01*
G01*
G37*
%TD*%
%TO.C,C6*%
G36*
G01*
X145950000Y-78475000D02*
X145950000Y-77525000D01*
G75*
G02*
X146200000Y-77275000I250000J0D01*
G01*
X146875000Y-77275000D01*
G75*
G02*
X147125000Y-77525000I0J-250000D01*
G01*
X147125000Y-78475000D01*
G75*
G02*
X146875000Y-78725000I-250000J0D01*
G01*
X146200000Y-78725000D01*
G75*
G02*
X145950000Y-78475000I0J250000D01*
G01*
G37*
G36*
G01*
X143875000Y-78475000D02*
X143875000Y-77525000D01*
G75*
G02*
X144125000Y-77275000I250000J0D01*
G01*
X144800000Y-77275000D01*
G75*
G02*
X145050000Y-77525000I0J-250000D01*
G01*
X145050000Y-78475000D01*
G75*
G02*
X144800000Y-78725000I-250000J0D01*
G01*
X144125000Y-78725000D01*
G75*
G02*
X143875000Y-78475000I0J250000D01*
G01*
G37*
%TD*%
%TO.C,C7*%
G36*
G01*
X126025000Y-55375000D02*
X126975000Y-55375000D01*
G75*
G02*
X127225000Y-55625000I0J-250000D01*
G01*
X127225000Y-56300000D01*
G75*
G02*
X126975000Y-56550000I-250000J0D01*
G01*
X126025000Y-56550000D01*
G75*
G02*
X125775000Y-56300000I0J250000D01*
G01*
X125775000Y-55625000D01*
G75*
G02*
X126025000Y-55375000I250000J0D01*
G01*
G37*
G36*
G01*
X126025000Y-57450000D02*
X126975000Y-57450000D01*
G75*
G02*
X127225000Y-57700000I0J-250000D01*
G01*
X127225000Y-58375000D01*
G75*
G02*
X126975000Y-58625000I-250000J0D01*
G01*
X126025000Y-58625000D01*
G75*
G02*
X125775000Y-58375000I0J250000D01*
G01*
X125775000Y-57700000D01*
G75*
G02*
X126025000Y-57450000I250000J0D01*
G01*
G37*
%TD*%
%TO.C,C8*%
G36*
G01*
X175050000Y-61025000D02*
X175050000Y-61975000D01*
G75*
G02*
X174800000Y-62225000I-250000J0D01*
G01*
X174125000Y-62225000D01*
G75*
G02*
X173875000Y-61975000I0J250000D01*
G01*
X173875000Y-61025000D01*
G75*
G02*
X174125000Y-60775000I250000J0D01*
G01*
X174800000Y-60775000D01*
G75*
G02*
X175050000Y-61025000I0J-250000D01*
G01*
G37*
G36*
G01*
X177125000Y-61025000D02*
X177125000Y-61975000D01*
G75*
G02*
X176875000Y-62225000I-250000J0D01*
G01*
X176200000Y-62225000D01*
G75*
G02*
X175950000Y-61975000I0J250000D01*
G01*
X175950000Y-61025000D01*
G75*
G02*
X176200000Y-60775000I250000J0D01*
G01*
X176875000Y-60775000D01*
G75*
G02*
X177125000Y-61025000I0J-250000D01*
G01*
G37*
%TD*%
%TO.C,C9*%
G36*
G01*
X171950000Y-61975000D02*
X171950000Y-61025000D01*
G75*
G02*
X172200000Y-60775000I250000J0D01*
G01*
X172875000Y-60775000D01*
G75*
G02*
X173125000Y-61025000I0J-250000D01*
G01*
X173125000Y-61975000D01*
G75*
G02*
X172875000Y-62225000I-250000J0D01*
G01*
X172200000Y-62225000D01*
G75*
G02*
X171950000Y-61975000I0J250000D01*
G01*
G37*
G36*
G01*
X169875000Y-61975000D02*
X169875000Y-61025000D01*
G75*
G02*
X170125000Y-60775000I250000J0D01*
G01*
X170800000Y-60775000D01*
G75*
G02*
X171050000Y-61025000I0J-250000D01*
G01*
X171050000Y-61975000D01*
G75*
G02*
X170800000Y-62225000I-250000J0D01*
G01*
X170125000Y-62225000D01*
G75*
G02*
X169875000Y-61975000I0J250000D01*
G01*
G37*
%TD*%
%TO.C,C10*%
G36*
G01*
X160875000Y-53475000D02*
X160875000Y-52525000D01*
G75*
G02*
X161125000Y-52275000I250000J0D01*
G01*
X161800000Y-52275000D01*
G75*
G02*
X162050000Y-52525000I0J-250000D01*
G01*
X162050000Y-53475000D01*
G75*
G02*
X161800000Y-53725000I-250000J0D01*
G01*
X161125000Y-53725000D01*
G75*
G02*
X160875000Y-53475000I0J250000D01*
G01*
G37*
G36*
G01*
X162950000Y-53475000D02*
X162950000Y-52525000D01*
G75*
G02*
X163200000Y-52275000I250000J0D01*
G01*
X163875000Y-52275000D01*
G75*
G02*
X164125000Y-52525000I0J-250000D01*
G01*
X164125000Y-53475000D01*
G75*
G02*
X163875000Y-53725000I-250000J0D01*
G01*
X163200000Y-53725000D01*
G75*
G02*
X162950000Y-53475000I0J250000D01*
G01*
G37*
%TD*%
%TO.C,C11*%
G36*
G01*
X155950000Y-66475000D02*
X155950000Y-65525000D01*
G75*
G02*
X156200000Y-65275000I250000J0D01*
G01*
X156875000Y-65275000D01*
G75*
G02*
X157125000Y-65525000I0J-250000D01*
G01*
X157125000Y-66475000D01*
G75*
G02*
X156875000Y-66725000I-250000J0D01*
G01*
X156200000Y-66725000D01*
G75*
G02*
X155950000Y-66475000I0J250000D01*
G01*
G37*
G36*
G01*
X153875000Y-66475000D02*
X153875000Y-65525000D01*
G75*
G02*
X154125000Y-65275000I250000J0D01*
G01*
X154800000Y-65275000D01*
G75*
G02*
X155050000Y-65525000I0J-250000D01*
G01*
X155050000Y-66475000D01*
G75*
G02*
X154800000Y-66725000I-250000J0D01*
G01*
X154125000Y-66725000D01*
G75*
G02*
X153875000Y-66475000I0J250000D01*
G01*
G37*
%TD*%
%TO.C,C12*%
G36*
G01*
X160875000Y-55975000D02*
X160875000Y-55025000D01*
G75*
G02*
X161125000Y-54775000I250000J0D01*
G01*
X161800000Y-54775000D01*
G75*
G02*
X162050000Y-55025000I0J-250000D01*
G01*
X162050000Y-55975000D01*
G75*
G02*
X161800000Y-56225000I-250000J0D01*
G01*
X161125000Y-56225000D01*
G75*
G02*
X160875000Y-55975000I0J250000D01*
G01*
G37*
G36*
G01*
X162950000Y-55975000D02*
X162950000Y-55025000D01*
G75*
G02*
X163200000Y-54775000I250000J0D01*
G01*
X163875000Y-54775000D01*
G75*
G02*
X164125000Y-55025000I0J-250000D01*
G01*
X164125000Y-55975000D01*
G75*
G02*
X163875000Y-56225000I-250000J0D01*
G01*
X163200000Y-56225000D01*
G75*
G02*
X162950000Y-55975000I0J250000D01*
G01*
G37*
%TD*%
%TO.C,C13*%
G36*
G01*
X153875000Y-63975000D02*
X153875000Y-63025000D01*
G75*
G02*
X154125000Y-62775000I250000J0D01*
G01*
X154800000Y-62775000D01*
G75*
G02*
X155050000Y-63025000I0J-250000D01*
G01*
X155050000Y-63975000D01*
G75*
G02*
X154800000Y-64225000I-250000J0D01*
G01*
X154125000Y-64225000D01*
G75*
G02*
X153875000Y-63975000I0J250000D01*
G01*
G37*
G36*
G01*
X155950000Y-63975000D02*
X155950000Y-63025000D01*
G75*
G02*
X156200000Y-62775000I250000J0D01*
G01*
X156875000Y-62775000D01*
G75*
G02*
X157125000Y-63025000I0J-250000D01*
G01*
X157125000Y-63975000D01*
G75*
G02*
X156875000Y-64225000I-250000J0D01*
G01*
X156200000Y-64225000D01*
G75*
G02*
X155950000Y-63975000I0J250000D01*
G01*
G37*
%TD*%
%TO.C,C14*%
G36*
G01*
X131805000Y-114290000D02*
X132755000Y-114290000D01*
G75*
G02*
X133005000Y-114540000I0J-250000D01*
G01*
X133005000Y-115215000D01*
G75*
G02*
X132755000Y-115465000I-250000J0D01*
G01*
X131805000Y-115465000D01*
G75*
G02*
X131555000Y-115215000I0J250000D01*
G01*
X131555000Y-114540000D01*
G75*
G02*
X131805000Y-114290000I250000J0D01*
G01*
G37*
G36*
G01*
X131805000Y-112215000D02*
X132755000Y-112215000D01*
G75*
G02*
X133005000Y-112465000I0J-250000D01*
G01*
X133005000Y-113140000D01*
G75*
G02*
X132755000Y-113390000I-250000J0D01*
G01*
X131805000Y-113390000D01*
G75*
G02*
X131555000Y-113140000I0J250000D01*
G01*
X131555000Y-112465000D01*
G75*
G02*
X131805000Y-112215000I250000J0D01*
G01*
G37*
%TD*%
%TO.C,C15*%
G36*
G01*
X144475000Y-118125000D02*
X143525000Y-118125000D01*
G75*
G02*
X143275000Y-117875000I0J250000D01*
G01*
X143275000Y-117200000D01*
G75*
G02*
X143525000Y-116950000I250000J0D01*
G01*
X144475000Y-116950000D01*
G75*
G02*
X144725000Y-117200000I0J-250000D01*
G01*
X144725000Y-117875000D01*
G75*
G02*
X144475000Y-118125000I-250000J0D01*
G01*
G37*
G36*
G01*
X144475000Y-116050000D02*
X143525000Y-116050000D01*
G75*
G02*
X143275000Y-115800000I0J250000D01*
G01*
X143275000Y-115125000D01*
G75*
G02*
X143525000Y-114875000I250000J0D01*
G01*
X144475000Y-114875000D01*
G75*
G02*
X144725000Y-115125000I0J-250000D01*
G01*
X144725000Y-115800000D01*
G75*
G02*
X144475000Y-116050000I-250000J0D01*
G01*
G37*
%TD*%
%TO.C,C16*%
G36*
G01*
X120775000Y-92750000D02*
X121725000Y-92750000D01*
G75*
G02*
X121975000Y-93000000I0J-250000D01*
G01*
X121975000Y-93675000D01*
G75*
G02*
X121725000Y-93925000I-250000J0D01*
G01*
X120775000Y-93925000D01*
G75*
G02*
X120525000Y-93675000I0J250000D01*
G01*
X120525000Y-93000000D01*
G75*
G02*
X120775000Y-92750000I250000J0D01*
G01*
G37*
G36*
G01*
X120775000Y-90675000D02*
X121725000Y-90675000D01*
G75*
G02*
X121975000Y-90925000I0J-250000D01*
G01*
X121975000Y-91600000D01*
G75*
G02*
X121725000Y-91850000I-250000J0D01*
G01*
X120775000Y-91850000D01*
G75*
G02*
X120525000Y-91600000I0J250000D01*
G01*
X120525000Y-90925000D01*
G75*
G02*
X120775000Y-90675000I250000J0D01*
G01*
G37*
%TD*%
%TO.C,C17*%
G36*
G01*
X131325000Y-92925000D02*
X132275000Y-92925000D01*
G75*
G02*
X132525000Y-93175000I0J-250000D01*
G01*
X132525000Y-93850000D01*
G75*
G02*
X132275000Y-94100000I-250000J0D01*
G01*
X131325000Y-94100000D01*
G75*
G02*
X131075000Y-93850000I0J250000D01*
G01*
X131075000Y-93175000D01*
G75*
G02*
X131325000Y-92925000I250000J0D01*
G01*
G37*
G36*
G01*
X131325000Y-95000000D02*
X132275000Y-95000000D01*
G75*
G02*
X132525000Y-95250000I0J-250000D01*
G01*
X132525000Y-95925000D01*
G75*
G02*
X132275000Y-96175000I-250000J0D01*
G01*
X131325000Y-96175000D01*
G75*
G02*
X131075000Y-95925000I0J250000D01*
G01*
X131075000Y-95250000D01*
G75*
G02*
X131325000Y-95000000I250000J0D01*
G01*
G37*
%TD*%
%TO.C,C18*%
G36*
G01*
X111875000Y-53975000D02*
X111875000Y-53025000D01*
G75*
G02*
X112125000Y-52775000I250000J0D01*
G01*
X112800000Y-52775000D01*
G75*
G02*
X113050000Y-53025000I0J-250000D01*
G01*
X113050000Y-53975000D01*
G75*
G02*
X112800000Y-54225000I-250000J0D01*
G01*
X112125000Y-54225000D01*
G75*
G02*
X111875000Y-53975000I0J250000D01*
G01*
G37*
G36*
G01*
X113950000Y-53975000D02*
X113950000Y-53025000D01*
G75*
G02*
X114200000Y-52775000I250000J0D01*
G01*
X114875000Y-52775000D01*
G75*
G02*
X115125000Y-53025000I0J-250000D01*
G01*
X115125000Y-53975000D01*
G75*
G02*
X114875000Y-54225000I-250000J0D01*
G01*
X114200000Y-54225000D01*
G75*
G02*
X113950000Y-53975000I0J250000D01*
G01*
G37*
%TD*%
%TO.C,C19*%
G36*
G01*
X182875000Y-60975000D02*
X182875000Y-60025000D01*
G75*
G02*
X183125000Y-59775000I250000J0D01*
G01*
X183800000Y-59775000D01*
G75*
G02*
X184050000Y-60025000I0J-250000D01*
G01*
X184050000Y-60975000D01*
G75*
G02*
X183800000Y-61225000I-250000J0D01*
G01*
X183125000Y-61225000D01*
G75*
G02*
X182875000Y-60975000I0J250000D01*
G01*
G37*
G36*
G01*
X184950000Y-60975000D02*
X184950000Y-60025000D01*
G75*
G02*
X185200000Y-59775000I250000J0D01*
G01*
X185875000Y-59775000D01*
G75*
G02*
X186125000Y-60025000I0J-250000D01*
G01*
X186125000Y-60975000D01*
G75*
G02*
X185875000Y-61225000I-250000J0D01*
G01*
X185200000Y-61225000D01*
G75*
G02*
X184950000Y-60975000I0J250000D01*
G01*
G37*
%TD*%
%TO.C,C20*%
G36*
G01*
X176525000Y-80875000D02*
X177475000Y-80875000D01*
G75*
G02*
X177725000Y-81125000I0J-250000D01*
G01*
X177725000Y-81800000D01*
G75*
G02*
X177475000Y-82050000I-250000J0D01*
G01*
X176525000Y-82050000D01*
G75*
G02*
X176275000Y-81800000I0J250000D01*
G01*
X176275000Y-81125000D01*
G75*
G02*
X176525000Y-80875000I250000J0D01*
G01*
G37*
G36*
G01*
X176525000Y-82950000D02*
X177475000Y-82950000D01*
G75*
G02*
X177725000Y-83200000I0J-250000D01*
G01*
X177725000Y-83875000D01*
G75*
G02*
X177475000Y-84125000I-250000J0D01*
G01*
X176525000Y-84125000D01*
G75*
G02*
X176275000Y-83875000I0J250000D01*
G01*
X176275000Y-83200000D01*
G75*
G02*
X176525000Y-82950000I250000J0D01*
G01*
G37*
%TD*%
%TO.C,C21*%
G36*
G01*
X179025000Y-82950000D02*
X179975000Y-82950000D01*
G75*
G02*
X180225000Y-83200000I0J-250000D01*
G01*
X180225000Y-83875000D01*
G75*
G02*
X179975000Y-84125000I-250000J0D01*
G01*
X179025000Y-84125000D01*
G75*
G02*
X178775000Y-83875000I0J250000D01*
G01*
X178775000Y-83200000D01*
G75*
G02*
X179025000Y-82950000I250000J0D01*
G01*
G37*
G36*
G01*
X179025000Y-80875000D02*
X179975000Y-80875000D01*
G75*
G02*
X180225000Y-81125000I0J-250000D01*
G01*
X180225000Y-81800000D01*
G75*
G02*
X179975000Y-82050000I-250000J0D01*
G01*
X179025000Y-82050000D01*
G75*
G02*
X178775000Y-81800000I0J250000D01*
G01*
X178775000Y-81125000D01*
G75*
G02*
X179025000Y-80875000I250000J0D01*
G01*
G37*
%TD*%
%TO.C,C22*%
G36*
G01*
X159525000Y-104450000D02*
X160475000Y-104450000D01*
G75*
G02*
X160725000Y-104700000I0J-250000D01*
G01*
X160725000Y-105375000D01*
G75*
G02*
X160475000Y-105625000I-250000J0D01*
G01*
X159525000Y-105625000D01*
G75*
G02*
X159275000Y-105375000I0J250000D01*
G01*
X159275000Y-104700000D01*
G75*
G02*
X159525000Y-104450000I250000J0D01*
G01*
G37*
G36*
G01*
X159525000Y-102375000D02*
X160475000Y-102375000D01*
G75*
G02*
X160725000Y-102625000I0J-250000D01*
G01*
X160725000Y-103300000D01*
G75*
G02*
X160475000Y-103550000I-250000J0D01*
G01*
X159525000Y-103550000D01*
G75*
G02*
X159275000Y-103300000I0J250000D01*
G01*
X159275000Y-102625000D01*
G75*
G02*
X159525000Y-102375000I250000J0D01*
G01*
G37*
%TD*%
%TO.C,C23*%
G36*
G01*
X153575000Y-106525000D02*
X153575000Y-107475000D01*
G75*
G02*
X153325000Y-107725000I-250000J0D01*
G01*
X152650000Y-107725000D01*
G75*
G02*
X152400000Y-107475000I0J250000D01*
G01*
X152400000Y-106525000D01*
G75*
G02*
X152650000Y-106275000I250000J0D01*
G01*
X153325000Y-106275000D01*
G75*
G02*
X153575000Y-106525000I0J-250000D01*
G01*
G37*
G36*
G01*
X151500000Y-106525000D02*
X151500000Y-107475000D01*
G75*
G02*
X151250000Y-107725000I-250000J0D01*
G01*
X150575000Y-107725000D01*
G75*
G02*
X150325000Y-107475000I0J250000D01*
G01*
X150325000Y-106525000D01*
G75*
G02*
X150575000Y-106275000I250000J0D01*
G01*
X151250000Y-106275000D01*
G75*
G02*
X151500000Y-106525000I0J-250000D01*
G01*
G37*
%TD*%
%TO.C,C24*%
G36*
G01*
X169375000Y-72975000D02*
X169375000Y-72025000D01*
G75*
G02*
X169625000Y-71775000I250000J0D01*
G01*
X170300000Y-71775000D01*
G75*
G02*
X170550000Y-72025000I0J-250000D01*
G01*
X170550000Y-72975000D01*
G75*
G02*
X170300000Y-73225000I-250000J0D01*
G01*
X169625000Y-73225000D01*
G75*
G02*
X169375000Y-72975000I0J250000D01*
G01*
G37*
G36*
G01*
X171450000Y-72975000D02*
X171450000Y-72025000D01*
G75*
G02*
X171700000Y-71775000I250000J0D01*
G01*
X172375000Y-71775000D01*
G75*
G02*
X172625000Y-72025000I0J-250000D01*
G01*
X172625000Y-72975000D01*
G75*
G02*
X172375000Y-73225000I-250000J0D01*
G01*
X171700000Y-73225000D01*
G75*
G02*
X171450000Y-72975000I0J250000D01*
G01*
G37*
%TD*%
%TO.C,C25*%
G36*
G01*
X162375000Y-88475000D02*
X162375000Y-87525000D01*
G75*
G02*
X162625000Y-87275000I250000J0D01*
G01*
X163300000Y-87275000D01*
G75*
G02*
X163550000Y-87525000I0J-250000D01*
G01*
X163550000Y-88475000D01*
G75*
G02*
X163300000Y-88725000I-250000J0D01*
G01*
X162625000Y-88725000D01*
G75*
G02*
X162375000Y-88475000I0J250000D01*
G01*
G37*
G36*
G01*
X164450000Y-88475000D02*
X164450000Y-87525000D01*
G75*
G02*
X164700000Y-87275000I250000J0D01*
G01*
X165375000Y-87275000D01*
G75*
G02*
X165625000Y-87525000I0J-250000D01*
G01*
X165625000Y-88475000D01*
G75*
G02*
X165375000Y-88725000I-250000J0D01*
G01*
X164700000Y-88725000D01*
G75*
G02*
X164450000Y-88475000I0J250000D01*
G01*
G37*
%TD*%
%TO.C,C26*%
G36*
G01*
X171450000Y-76475000D02*
X171450000Y-75525000D01*
G75*
G02*
X171700000Y-75275000I250000J0D01*
G01*
X172375000Y-75275000D01*
G75*
G02*
X172625000Y-75525000I0J-250000D01*
G01*
X172625000Y-76475000D01*
G75*
G02*
X172375000Y-76725000I-250000J0D01*
G01*
X171700000Y-76725000D01*
G75*
G02*
X171450000Y-76475000I0J250000D01*
G01*
G37*
G36*
G01*
X169375000Y-76475000D02*
X169375000Y-75525000D01*
G75*
G02*
X169625000Y-75275000I250000J0D01*
G01*
X170300000Y-75275000D01*
G75*
G02*
X170550000Y-75525000I0J-250000D01*
G01*
X170550000Y-76475000D01*
G75*
G02*
X170300000Y-76725000I-250000J0D01*
G01*
X169625000Y-76725000D01*
G75*
G02*
X169375000Y-76475000I0J250000D01*
G01*
G37*
%TD*%
%TO.C,C27*%
G36*
G01*
X164450000Y-85975000D02*
X164450000Y-85025000D01*
G75*
G02*
X164700000Y-84775000I250000J0D01*
G01*
X165375000Y-84775000D01*
G75*
G02*
X165625000Y-85025000I0J-250000D01*
G01*
X165625000Y-85975000D01*
G75*
G02*
X165375000Y-86225000I-250000J0D01*
G01*
X164700000Y-86225000D01*
G75*
G02*
X164450000Y-85975000I0J250000D01*
G01*
G37*
G36*
G01*
X162375000Y-85975000D02*
X162375000Y-85025000D01*
G75*
G02*
X162625000Y-84775000I250000J0D01*
G01*
X163300000Y-84775000D01*
G75*
G02*
X163550000Y-85025000I0J-250000D01*
G01*
X163550000Y-85975000D01*
G75*
G02*
X163300000Y-86225000I-250000J0D01*
G01*
X162625000Y-86225000D01*
G75*
G02*
X162375000Y-85975000I0J250000D01*
G01*
G37*
%TD*%
%TO.C,C28*%
G36*
G01*
X179050000Y-61025000D02*
X179050000Y-61975000D01*
G75*
G02*
X178800000Y-62225000I-250000J0D01*
G01*
X178125000Y-62225000D01*
G75*
G02*
X177875000Y-61975000I0J250000D01*
G01*
X177875000Y-61025000D01*
G75*
G02*
X178125000Y-60775000I250000J0D01*
G01*
X178800000Y-60775000D01*
G75*
G02*
X179050000Y-61025000I0J-250000D01*
G01*
G37*
G36*
G01*
X181125000Y-61025000D02*
X181125000Y-61975000D01*
G75*
G02*
X180875000Y-62225000I-250000J0D01*
G01*
X180200000Y-62225000D01*
G75*
G02*
X179950000Y-61975000I0J250000D01*
G01*
X179950000Y-61025000D01*
G75*
G02*
X180200000Y-60775000I250000J0D01*
G01*
X180875000Y-60775000D01*
G75*
G02*
X181125000Y-61025000I0J-250000D01*
G01*
G37*
%TD*%
%TO.C,C29*%
G36*
G01*
X183975000Y-71000000D02*
X183025000Y-71000000D01*
G75*
G02*
X182775000Y-70750000I0J250000D01*
G01*
X182775000Y-70075000D01*
G75*
G02*
X183025000Y-69825000I250000J0D01*
G01*
X183975000Y-69825000D01*
G75*
G02*
X184225000Y-70075000I0J-250000D01*
G01*
X184225000Y-70750000D01*
G75*
G02*
X183975000Y-71000000I-250000J0D01*
G01*
G37*
G36*
G01*
X183975000Y-73075000D02*
X183025000Y-73075000D01*
G75*
G02*
X182775000Y-72825000I0J250000D01*
G01*
X182775000Y-72150000D01*
G75*
G02*
X183025000Y-71900000I250000J0D01*
G01*
X183975000Y-71900000D01*
G75*
G02*
X184225000Y-72150000I0J-250000D01*
G01*
X184225000Y-72825000D01*
G75*
G02*
X183975000Y-73075000I-250000J0D01*
G01*
G37*
%TD*%
%TO.C,C30*%
G36*
G01*
X145950000Y-66975000D02*
X145950000Y-66025000D01*
G75*
G02*
X146200000Y-65775000I250000J0D01*
G01*
X146875000Y-65775000D01*
G75*
G02*
X147125000Y-66025000I0J-250000D01*
G01*
X147125000Y-66975000D01*
G75*
G02*
X146875000Y-67225000I-250000J0D01*
G01*
X146200000Y-67225000D01*
G75*
G02*
X145950000Y-66975000I0J250000D01*
G01*
G37*
G36*
G01*
X143875000Y-66975000D02*
X143875000Y-66025000D01*
G75*
G02*
X144125000Y-65775000I250000J0D01*
G01*
X144800000Y-65775000D01*
G75*
G02*
X145050000Y-66025000I0J-250000D01*
G01*
X145050000Y-66975000D01*
G75*
G02*
X144800000Y-67225000I-250000J0D01*
G01*
X144125000Y-67225000D01*
G75*
G02*
X143875000Y-66975000I0J250000D01*
G01*
G37*
%TD*%
%TO.C,C31*%
G36*
G01*
X134450000Y-53475000D02*
X134450000Y-52525000D01*
G75*
G02*
X134700000Y-52275000I250000J0D01*
G01*
X135375000Y-52275000D01*
G75*
G02*
X135625000Y-52525000I0J-250000D01*
G01*
X135625000Y-53475000D01*
G75*
G02*
X135375000Y-53725000I-250000J0D01*
G01*
X134700000Y-53725000D01*
G75*
G02*
X134450000Y-53475000I0J250000D01*
G01*
G37*
G36*
G01*
X132375000Y-53475000D02*
X132375000Y-52525000D01*
G75*
G02*
X132625000Y-52275000I250000J0D01*
G01*
X133300000Y-52275000D01*
G75*
G02*
X133550000Y-52525000I0J-250000D01*
G01*
X133550000Y-53475000D01*
G75*
G02*
X133300000Y-53725000I-250000J0D01*
G01*
X132625000Y-53725000D01*
G75*
G02*
X132375000Y-53475000I0J250000D01*
G01*
G37*
%TD*%
%TO.C,C32*%
G36*
G01*
X148375000Y-66975000D02*
X148375000Y-66025000D01*
G75*
G02*
X148625000Y-65775000I250000J0D01*
G01*
X149300000Y-65775000D01*
G75*
G02*
X149550000Y-66025000I0J-250000D01*
G01*
X149550000Y-66975000D01*
G75*
G02*
X149300000Y-67225000I-250000J0D01*
G01*
X148625000Y-67225000D01*
G75*
G02*
X148375000Y-66975000I0J250000D01*
G01*
G37*
G36*
G01*
X150450000Y-66975000D02*
X150450000Y-66025000D01*
G75*
G02*
X150700000Y-65775000I250000J0D01*
G01*
X151375000Y-65775000D01*
G75*
G02*
X151625000Y-66025000I0J-250000D01*
G01*
X151625000Y-66975000D01*
G75*
G02*
X151375000Y-67225000I-250000J0D01*
G01*
X150700000Y-67225000D01*
G75*
G02*
X150450000Y-66975000I0J250000D01*
G01*
G37*
%TD*%
%TO.C,R1*%
G36*
G01*
X123100000Y-115049999D02*
X123100000Y-115950001D01*
G75*
G02*
X122850001Y-116200000I-249999J0D01*
G01*
X122149999Y-116200000D01*
G75*
G02*
X121900000Y-115950001I0J249999D01*
G01*
X121900000Y-115049999D01*
G75*
G02*
X122149999Y-114800000I249999J0D01*
G01*
X122850001Y-114800000D01*
G75*
G02*
X123100000Y-115049999I0J-249999D01*
G01*
G37*
G36*
G01*
X125100000Y-115049999D02*
X125100000Y-115950001D01*
G75*
G02*
X124850001Y-116200000I-249999J0D01*
G01*
X124149999Y-116200000D01*
G75*
G02*
X123900000Y-115950001I0J249999D01*
G01*
X123900000Y-115049999D01*
G75*
G02*
X124149999Y-114800000I249999J0D01*
G01*
X124850001Y-114800000D01*
G75*
G02*
X125100000Y-115049999I0J-249999D01*
G01*
G37*
%TD*%
%TO.C,R2*%
G36*
G01*
X138450001Y-69600000D02*
X137549999Y-69600000D01*
G75*
G02*
X137300000Y-69350001I0J249999D01*
G01*
X137300000Y-68649999D01*
G75*
G02*
X137549999Y-68400000I249999J0D01*
G01*
X138450001Y-68400000D01*
G75*
G02*
X138700000Y-68649999I0J-249999D01*
G01*
X138700000Y-69350001D01*
G75*
G02*
X138450001Y-69600000I-249999J0D01*
G01*
G37*
G36*
G01*
X138450001Y-71600000D02*
X137549999Y-71600000D01*
G75*
G02*
X137300000Y-71350001I0J249999D01*
G01*
X137300000Y-70649999D01*
G75*
G02*
X137549999Y-70400000I249999J0D01*
G01*
X138450001Y-70400000D01*
G75*
G02*
X138700000Y-70649999I0J-249999D01*
G01*
X138700000Y-71350001D01*
G75*
G02*
X138450001Y-71600000I-249999J0D01*
G01*
G37*
%TD*%
%TO.C,R3*%
G36*
G01*
X112400000Y-100450001D02*
X112400000Y-99549999D01*
G75*
G02*
X112649999Y-99300000I249999J0D01*
G01*
X113350001Y-99300000D01*
G75*
G02*
X113600000Y-99549999I0J-249999D01*
G01*
X113600000Y-100450001D01*
G75*
G02*
X113350001Y-100700000I-249999J0D01*
G01*
X112649999Y-100700000D01*
G75*
G02*
X112400000Y-100450001I0J249999D01*
G01*
G37*
G36*
G01*
X114400000Y-100450001D02*
X114400000Y-99549999D01*
G75*
G02*
X114649999Y-99300000I249999J0D01*
G01*
X115350001Y-99300000D01*
G75*
G02*
X115600000Y-99549999I0J-249999D01*
G01*
X115600000Y-100450001D01*
G75*
G02*
X115350001Y-100700000I-249999J0D01*
G01*
X114649999Y-100700000D01*
G75*
G02*
X114400000Y-100450001I0J249999D01*
G01*
G37*
%TD*%
%TO.C,R4*%
G36*
G01*
X136600000Y-81549999D02*
X136600000Y-82450001D01*
G75*
G02*
X136350001Y-82700000I-249999J0D01*
G01*
X135649999Y-82700000D01*
G75*
G02*
X135400000Y-82450001I0J249999D01*
G01*
X135400000Y-81549999D01*
G75*
G02*
X135649999Y-81300000I249999J0D01*
G01*
X136350001Y-81300000D01*
G75*
G02*
X136600000Y-81549999I0J-249999D01*
G01*
G37*
G36*
G01*
X134600000Y-81549999D02*
X134600000Y-82450001D01*
G75*
G02*
X134350001Y-82700000I-249999J0D01*
G01*
X133649999Y-82700000D01*
G75*
G02*
X133400000Y-82450001I0J249999D01*
G01*
X133400000Y-81549999D01*
G75*
G02*
X133649999Y-81300000I249999J0D01*
G01*
X134350001Y-81300000D01*
G75*
G02*
X134600000Y-81549999I0J-249999D01*
G01*
G37*
%TD*%
%TO.C,R5*%
G36*
G01*
X123900000Y-118450001D02*
X123900000Y-117549999D01*
G75*
G02*
X124149999Y-117300000I249999J0D01*
G01*
X124850001Y-117300000D01*
G75*
G02*
X125100000Y-117549999I0J-249999D01*
G01*
X125100000Y-118450001D01*
G75*
G02*
X124850001Y-118700000I-249999J0D01*
G01*
X124149999Y-118700000D01*
G75*
G02*
X123900000Y-118450001I0J249999D01*
G01*
G37*
G36*
G01*
X121900000Y-118450001D02*
X121900000Y-117549999D01*
G75*
G02*
X122149999Y-117300000I249999J0D01*
G01*
X122850001Y-117300000D01*
G75*
G02*
X123100000Y-117549999I0J-249999D01*
G01*
X123100000Y-118450001D01*
G75*
G02*
X122850001Y-118700000I-249999J0D01*
G01*
X122149999Y-118700000D01*
G75*
G02*
X121900000Y-118450001I0J249999D01*
G01*
G37*
%TD*%
%TO.C,R6*%
G36*
G01*
X150049999Y-53400000D02*
X150950001Y-53400000D01*
G75*
G02*
X151200000Y-53649999I0J-249999D01*
G01*
X151200000Y-54350001D01*
G75*
G02*
X150950001Y-54600000I-249999J0D01*
G01*
X150049999Y-54600000D01*
G75*
G02*
X149800000Y-54350001I0J249999D01*
G01*
X149800000Y-53649999D01*
G75*
G02*
X150049999Y-53400000I249999J0D01*
G01*
G37*
G36*
G01*
X150049999Y-51400000D02*
X150950001Y-51400000D01*
G75*
G02*
X151200000Y-51649999I0J-249999D01*
G01*
X151200000Y-52350001D01*
G75*
G02*
X150950001Y-52600000I-249999J0D01*
G01*
X150049999Y-52600000D01*
G75*
G02*
X149800000Y-52350001I0J249999D01*
G01*
X149800000Y-51649999D01*
G75*
G02*
X150049999Y-51400000I249999J0D01*
G01*
G37*
%TD*%
%TO.C,R7*%
G36*
G01*
X148400000Y-58950001D02*
X148400000Y-58049999D01*
G75*
G02*
X148649999Y-57800000I249999J0D01*
G01*
X149350001Y-57800000D01*
G75*
G02*
X149600000Y-58049999I0J-249999D01*
G01*
X149600000Y-58950001D01*
G75*
G02*
X149350001Y-59200000I-249999J0D01*
G01*
X148649999Y-59200000D01*
G75*
G02*
X148400000Y-58950001I0J249999D01*
G01*
G37*
G36*
G01*
X150400000Y-58950001D02*
X150400000Y-58049999D01*
G75*
G02*
X150649999Y-57800000I249999J0D01*
G01*
X151350001Y-57800000D01*
G75*
G02*
X151600000Y-58049999I0J-249999D01*
G01*
X151600000Y-58950001D01*
G75*
G02*
X151350001Y-59200000I-249999J0D01*
G01*
X150649999Y-59200000D01*
G75*
G02*
X150400000Y-58950001I0J249999D01*
G01*
G37*
%TD*%
%TO.C,R8*%
G36*
G01*
X177838000Y-58450001D02*
X177838000Y-57549999D01*
G75*
G02*
X178087999Y-57300000I249999J0D01*
G01*
X178788001Y-57300000D01*
G75*
G02*
X179038000Y-57549999I0J-249999D01*
G01*
X179038000Y-58450001D01*
G75*
G02*
X178788001Y-58700000I-249999J0D01*
G01*
X178087999Y-58700000D01*
G75*
G02*
X177838000Y-58450001I0J249999D01*
G01*
G37*
G36*
G01*
X175838000Y-58450001D02*
X175838000Y-57549999D01*
G75*
G02*
X176087999Y-57300000I249999J0D01*
G01*
X176788001Y-57300000D01*
G75*
G02*
X177038000Y-57549999I0J-249999D01*
G01*
X177038000Y-58450001D01*
G75*
G02*
X176788001Y-58700000I-249999J0D01*
G01*
X176087999Y-58700000D01*
G75*
G02*
X175838000Y-58450001I0J249999D01*
G01*
G37*
%TD*%
%TO.C,R9*%
G36*
G01*
X171900000Y-58450001D02*
X171900000Y-57549999D01*
G75*
G02*
X172149999Y-57300000I249999J0D01*
G01*
X172850001Y-57300000D01*
G75*
G02*
X173100000Y-57549999I0J-249999D01*
G01*
X173100000Y-58450001D01*
G75*
G02*
X172850001Y-58700000I-249999J0D01*
G01*
X172149999Y-58700000D01*
G75*
G02*
X171900000Y-58450001I0J249999D01*
G01*
G37*
G36*
G01*
X173900000Y-58450001D02*
X173900000Y-57549999D01*
G75*
G02*
X174149999Y-57300000I249999J0D01*
G01*
X174850001Y-57300000D01*
G75*
G02*
X175100000Y-57549999I0J-249999D01*
G01*
X175100000Y-58450001D01*
G75*
G02*
X174850001Y-58700000I-249999J0D01*
G01*
X174149999Y-58700000D01*
G75*
G02*
X173900000Y-58450001I0J249999D01*
G01*
G37*
%TD*%
%TO.C,R10*%
G36*
G01*
X157950001Y-69100000D02*
X157049999Y-69100000D01*
G75*
G02*
X156800000Y-68850001I0J249999D01*
G01*
X156800000Y-68149999D01*
G75*
G02*
X157049999Y-67900000I249999J0D01*
G01*
X157950001Y-67900000D01*
G75*
G02*
X158200000Y-68149999I0J-249999D01*
G01*
X158200000Y-68850001D01*
G75*
G02*
X157950001Y-69100000I-249999J0D01*
G01*
G37*
G36*
G01*
X157950001Y-71100000D02*
X157049999Y-71100000D01*
G75*
G02*
X156800000Y-70850001I0J249999D01*
G01*
X156800000Y-70149999D01*
G75*
G02*
X157049999Y-69900000I249999J0D01*
G01*
X157950001Y-69900000D01*
G75*
G02*
X158200000Y-70149999I0J-249999D01*
G01*
X158200000Y-70850001D01*
G75*
G02*
X157950001Y-71100000I-249999J0D01*
G01*
G37*
%TD*%
%TO.C,R11*%
G36*
G01*
X111900000Y-56950001D02*
X111900000Y-56049999D01*
G75*
G02*
X112149999Y-55800000I249999J0D01*
G01*
X112850001Y-55800000D01*
G75*
G02*
X113100000Y-56049999I0J-249999D01*
G01*
X113100000Y-56950001D01*
G75*
G02*
X112850001Y-57200000I-249999J0D01*
G01*
X112149999Y-57200000D01*
G75*
G02*
X111900000Y-56950001I0J249999D01*
G01*
G37*
G36*
G01*
X113900000Y-56950001D02*
X113900000Y-56049999D01*
G75*
G02*
X114149999Y-55800000I249999J0D01*
G01*
X114850001Y-55800000D01*
G75*
G02*
X115100000Y-56049999I0J-249999D01*
G01*
X115100000Y-56950001D01*
G75*
G02*
X114850001Y-57200000I-249999J0D01*
G01*
X114149999Y-57200000D01*
G75*
G02*
X113900000Y-56950001I0J249999D01*
G01*
G37*
%TD*%
%TO.C,R12*%
G36*
G01*
X148100000Y-84049999D02*
X148100000Y-84950001D01*
G75*
G02*
X147850001Y-85200000I-249999J0D01*
G01*
X147149999Y-85200000D01*
G75*
G02*
X146900000Y-84950001I0J249999D01*
G01*
X146900000Y-84049999D01*
G75*
G02*
X147149999Y-83800000I249999J0D01*
G01*
X147850001Y-83800000D01*
G75*
G02*
X148100000Y-84049999I0J-249999D01*
G01*
G37*
G36*
G01*
X150100000Y-84049999D02*
X150100000Y-84950001D01*
G75*
G02*
X149850001Y-85200000I-249999J0D01*
G01*
X149149999Y-85200000D01*
G75*
G02*
X148900000Y-84950001I0J249999D01*
G01*
X148900000Y-84049999D01*
G75*
G02*
X149149999Y-83800000I249999J0D01*
G01*
X149850001Y-83800000D01*
G75*
G02*
X150100000Y-84049999I0J-249999D01*
G01*
G37*
%TD*%
%TO.C,R13*%
G36*
G01*
X150449999Y-62400000D02*
X151350001Y-62400000D01*
G75*
G02*
X151600000Y-62649999I0J-249999D01*
G01*
X151600000Y-63350001D01*
G75*
G02*
X151350001Y-63600000I-249999J0D01*
G01*
X150449999Y-63600000D01*
G75*
G02*
X150200000Y-63350001I0J249999D01*
G01*
X150200000Y-62649999D01*
G75*
G02*
X150449999Y-62400000I249999J0D01*
G01*
G37*
G36*
G01*
X150449999Y-60400000D02*
X151350001Y-60400000D01*
G75*
G02*
X151600000Y-60649999I0J-249999D01*
G01*
X151600000Y-61350001D01*
G75*
G02*
X151350001Y-61600000I-249999J0D01*
G01*
X150449999Y-61600000D01*
G75*
G02*
X150200000Y-61350001I0J249999D01*
G01*
X150200000Y-60649999D01*
G75*
G02*
X150449999Y-60400000I249999J0D01*
G01*
G37*
%TD*%
%TO.C,R14*%
G36*
G01*
X113600000Y-109049999D02*
X113600000Y-109950001D01*
G75*
G02*
X113350001Y-110200000I-249999J0D01*
G01*
X112649999Y-110200000D01*
G75*
G02*
X112400000Y-109950001I0J249999D01*
G01*
X112400000Y-109049999D01*
G75*
G02*
X112649999Y-108800000I249999J0D01*
G01*
X113350001Y-108800000D01*
G75*
G02*
X113600000Y-109049999I0J-249999D01*
G01*
G37*
G36*
G01*
X115600000Y-109049999D02*
X115600000Y-109950001D01*
G75*
G02*
X115350001Y-110200000I-249999J0D01*
G01*
X114649999Y-110200000D01*
G75*
G02*
X114400000Y-109950001I0J249999D01*
G01*
X114400000Y-109049999D01*
G75*
G02*
X114649999Y-108800000I249999J0D01*
G01*
X115350001Y-108800000D01*
G75*
G02*
X115600000Y-109049999I0J-249999D01*
G01*
G37*
%TD*%
%TO.C,R15*%
G36*
G01*
X199100000Y-58049999D02*
X199100000Y-58950001D01*
G75*
G02*
X198850001Y-59200000I-249999J0D01*
G01*
X198149999Y-59200000D01*
G75*
G02*
X197900000Y-58950001I0J249999D01*
G01*
X197900000Y-58049999D01*
G75*
G02*
X198149999Y-57800000I249999J0D01*
G01*
X198850001Y-57800000D01*
G75*
G02*
X199100000Y-58049999I0J-249999D01*
G01*
G37*
G36*
G01*
X197100000Y-58049999D02*
X197100000Y-58950001D01*
G75*
G02*
X196850001Y-59200000I-249999J0D01*
G01*
X196149999Y-59200000D01*
G75*
G02*
X195900000Y-58950001I0J249999D01*
G01*
X195900000Y-58049999D01*
G75*
G02*
X196149999Y-57800000I249999J0D01*
G01*
X196850001Y-57800000D01*
G75*
G02*
X197100000Y-58049999I0J-249999D01*
G01*
G37*
%TD*%
%TO.C,R16*%
G36*
G01*
X156900000Y-79450001D02*
X156900000Y-78549999D01*
G75*
G02*
X157149999Y-78300000I249999J0D01*
G01*
X157850001Y-78300000D01*
G75*
G02*
X158100000Y-78549999I0J-249999D01*
G01*
X158100000Y-79450001D01*
G75*
G02*
X157850001Y-79700000I-249999J0D01*
G01*
X157149999Y-79700000D01*
G75*
G02*
X156900000Y-79450001I0J249999D01*
G01*
G37*
G36*
G01*
X158900000Y-79450001D02*
X158900000Y-78549999D01*
G75*
G02*
X159149999Y-78300000I249999J0D01*
G01*
X159850001Y-78300000D01*
G75*
G02*
X160100000Y-78549999I0J-249999D01*
G01*
X160100000Y-79450001D01*
G75*
G02*
X159850001Y-79700000I-249999J0D01*
G01*
X159149999Y-79700000D01*
G75*
G02*
X158900000Y-79450001I0J249999D01*
G01*
G37*
%TD*%
%TO.C,R17*%
G36*
G01*
X184100000Y-62549999D02*
X184100000Y-63450001D01*
G75*
G02*
X183850001Y-63700000I-249999J0D01*
G01*
X183149999Y-63700000D01*
G75*
G02*
X182900000Y-63450001I0J249999D01*
G01*
X182900000Y-62549999D01*
G75*
G02*
X183149999Y-62300000I249999J0D01*
G01*
X183850001Y-62300000D01*
G75*
G02*
X184100000Y-62549999I0J-249999D01*
G01*
G37*
G36*
G01*
X186100000Y-62549999D02*
X186100000Y-63450001D01*
G75*
G02*
X185850001Y-63700000I-249999J0D01*
G01*
X185149999Y-63700000D01*
G75*
G02*
X184900000Y-63450001I0J249999D01*
G01*
X184900000Y-62549999D01*
G75*
G02*
X185149999Y-62300000I249999J0D01*
G01*
X185850001Y-62300000D01*
G75*
G02*
X186100000Y-62549999I0J-249999D01*
G01*
G37*
%TD*%
%TO.C,R20*%
G36*
G01*
X189400000Y-55450001D02*
X189400000Y-54549999D01*
G75*
G02*
X189649999Y-54300000I249999J0D01*
G01*
X190350001Y-54300000D01*
G75*
G02*
X190600000Y-54549999I0J-249999D01*
G01*
X190600000Y-55450001D01*
G75*
G02*
X190350001Y-55700000I-249999J0D01*
G01*
X189649999Y-55700000D01*
G75*
G02*
X189400000Y-55450001I0J249999D01*
G01*
G37*
G36*
G01*
X191400000Y-55450001D02*
X191400000Y-54549999D01*
G75*
G02*
X191649999Y-54300000I249999J0D01*
G01*
X192350001Y-54300000D01*
G75*
G02*
X192600000Y-54549999I0J-249999D01*
G01*
X192600000Y-55450001D01*
G75*
G02*
X192350001Y-55700000I-249999J0D01*
G01*
X191649999Y-55700000D01*
G75*
G02*
X191400000Y-55450001I0J249999D01*
G01*
G37*
%TD*%
%TO.C,R21*%
G36*
G01*
X182049999Y-85900000D02*
X182950001Y-85900000D01*
G75*
G02*
X183200000Y-86149999I0J-249999D01*
G01*
X183200000Y-86850001D01*
G75*
G02*
X182950001Y-87100000I-249999J0D01*
G01*
X182049999Y-87100000D01*
G75*
G02*
X181800000Y-86850001I0J249999D01*
G01*
X181800000Y-86149999D01*
G75*
G02*
X182049999Y-85900000I249999J0D01*
G01*
G37*
G36*
G01*
X182049999Y-87900000D02*
X182950001Y-87900000D01*
G75*
G02*
X183200000Y-88149999I0J-249999D01*
G01*
X183200000Y-88850001D01*
G75*
G02*
X182950001Y-89100000I-249999J0D01*
G01*
X182049999Y-89100000D01*
G75*
G02*
X181800000Y-88850001I0J249999D01*
G01*
X181800000Y-88149999D01*
G75*
G02*
X182049999Y-87900000I249999J0D01*
G01*
G37*
%TD*%
%TO.C,R22*%
G36*
G01*
X145450001Y-59100000D02*
X144549999Y-59100000D01*
G75*
G02*
X144300000Y-58850001I0J249999D01*
G01*
X144300000Y-58149999D01*
G75*
G02*
X144549999Y-57900000I249999J0D01*
G01*
X145450001Y-57900000D01*
G75*
G02*
X145700000Y-58149999I0J-249999D01*
G01*
X145700000Y-58850001D01*
G75*
G02*
X145450001Y-59100000I-249999J0D01*
G01*
G37*
G36*
G01*
X145450001Y-57100000D02*
X144549999Y-57100000D01*
G75*
G02*
X144300000Y-56850001I0J249999D01*
G01*
X144300000Y-56149999D01*
G75*
G02*
X144549999Y-55900000I249999J0D01*
G01*
X145450001Y-55900000D01*
G75*
G02*
X145700000Y-56149999I0J-249999D01*
G01*
X145700000Y-56850001D01*
G75*
G02*
X145450001Y-57100000I-249999J0D01*
G01*
G37*
%TD*%
%TO.C,R23*%
G36*
G01*
X166600000Y-62049999D02*
X166600000Y-62950001D01*
G75*
G02*
X166350001Y-63200000I-249999J0D01*
G01*
X165649999Y-63200000D01*
G75*
G02*
X165400000Y-62950001I0J249999D01*
G01*
X165400000Y-62049999D01*
G75*
G02*
X165649999Y-61800000I249999J0D01*
G01*
X166350001Y-61800000D01*
G75*
G02*
X166600000Y-62049999I0J-249999D01*
G01*
G37*
G36*
G01*
X168600000Y-62049999D02*
X168600000Y-62950001D01*
G75*
G02*
X168350001Y-63200000I-249999J0D01*
G01*
X167649999Y-63200000D01*
G75*
G02*
X167400000Y-62950001I0J249999D01*
G01*
X167400000Y-62049999D01*
G75*
G02*
X167649999Y-61800000I249999J0D01*
G01*
X168350001Y-61800000D01*
G75*
G02*
X168600000Y-62049999I0J-249999D01*
G01*
G37*
%TD*%
%TO.C,R24*%
G36*
G01*
X160900000Y-63950001D02*
X160900000Y-63049999D01*
G75*
G02*
X161149999Y-62800000I249999J0D01*
G01*
X161850001Y-62800000D01*
G75*
G02*
X162100000Y-63049999I0J-249999D01*
G01*
X162100000Y-63950001D01*
G75*
G02*
X161850001Y-64200000I-249999J0D01*
G01*
X161149999Y-64200000D01*
G75*
G02*
X160900000Y-63950001I0J249999D01*
G01*
G37*
G36*
G01*
X162900000Y-63950001D02*
X162900000Y-63049999D01*
G75*
G02*
X163149999Y-62800000I249999J0D01*
G01*
X163850001Y-62800000D01*
G75*
G02*
X164100000Y-63049999I0J-249999D01*
G01*
X164100000Y-63950001D01*
G75*
G02*
X163850001Y-64200000I-249999J0D01*
G01*
X163149999Y-64200000D01*
G75*
G02*
X162900000Y-63950001I0J249999D01*
G01*
G37*
%TD*%
%TO.C,R25*%
G36*
G01*
X166450001Y-58600000D02*
X165549999Y-58600000D01*
G75*
G02*
X165300000Y-58350001I0J249999D01*
G01*
X165300000Y-57649999D01*
G75*
G02*
X165549999Y-57400000I249999J0D01*
G01*
X166450001Y-57400000D01*
G75*
G02*
X166700000Y-57649999I0J-249999D01*
G01*
X166700000Y-58350001D01*
G75*
G02*
X166450001Y-58600000I-249999J0D01*
G01*
G37*
G36*
G01*
X166450001Y-60600000D02*
X165549999Y-60600000D01*
G75*
G02*
X165300000Y-60350001I0J249999D01*
G01*
X165300000Y-59649999D01*
G75*
G02*
X165549999Y-59400000I249999J0D01*
G01*
X166450001Y-59400000D01*
G75*
G02*
X166700000Y-59649999I0J-249999D01*
G01*
X166700000Y-60350001D01*
G75*
G02*
X166450001Y-60600000I-249999J0D01*
G01*
G37*
%TD*%
%TO.C,R26*%
G36*
G01*
X158100000Y-81549999D02*
X158100000Y-82450001D01*
G75*
G02*
X157850001Y-82700000I-249999J0D01*
G01*
X157149999Y-82700000D01*
G75*
G02*
X156900000Y-82450001I0J249999D01*
G01*
X156900000Y-81549999D01*
G75*
G02*
X157149999Y-81300000I249999J0D01*
G01*
X157850001Y-81300000D01*
G75*
G02*
X158100000Y-81549999I0J-249999D01*
G01*
G37*
G36*
G01*
X160100000Y-81549999D02*
X160100000Y-82450001D01*
G75*
G02*
X159850001Y-82700000I-249999J0D01*
G01*
X159149999Y-82700000D01*
G75*
G02*
X158900000Y-82450001I0J249999D01*
G01*
X158900000Y-81549999D01*
G75*
G02*
X159149999Y-81300000I249999J0D01*
G01*
X159850001Y-81300000D01*
G75*
G02*
X160100000Y-81549999I0J-249999D01*
G01*
G37*
%TD*%
%TO.C,R27*%
G36*
G01*
X158450001Y-73600000D02*
X157549999Y-73600000D01*
G75*
G02*
X157300000Y-73350001I0J249999D01*
G01*
X157300000Y-72649999D01*
G75*
G02*
X157549999Y-72400000I249999J0D01*
G01*
X158450001Y-72400000D01*
G75*
G02*
X158700000Y-72649999I0J-249999D01*
G01*
X158700000Y-73350001D01*
G75*
G02*
X158450001Y-73600000I-249999J0D01*
G01*
G37*
G36*
G01*
X158450001Y-75600000D02*
X157549999Y-75600000D01*
G75*
G02*
X157300000Y-75350001I0J249999D01*
G01*
X157300000Y-74649999D01*
G75*
G02*
X157549999Y-74400000I249999J0D01*
G01*
X158450001Y-74400000D01*
G75*
G02*
X158700000Y-74649999I0J-249999D01*
G01*
X158700000Y-75350001D01*
G75*
G02*
X158450001Y-75600000I-249999J0D01*
G01*
G37*
%TD*%
%TO.C,R28*%
G36*
G01*
X154950001Y-76600000D02*
X154049999Y-76600000D01*
G75*
G02*
X153800000Y-76350001I0J249999D01*
G01*
X153800000Y-75649999D01*
G75*
G02*
X154049999Y-75400000I249999J0D01*
G01*
X154950001Y-75400000D01*
G75*
G02*
X155200000Y-75649999I0J-249999D01*
G01*
X155200000Y-76350001D01*
G75*
G02*
X154950001Y-76600000I-249999J0D01*
G01*
G37*
G36*
G01*
X154950001Y-78600000D02*
X154049999Y-78600000D01*
G75*
G02*
X153800000Y-78350001I0J249999D01*
G01*
X153800000Y-77649999D01*
G75*
G02*
X154049999Y-77400000I249999J0D01*
G01*
X154950001Y-77400000D01*
G75*
G02*
X155200000Y-77649999I0J-249999D01*
G01*
X155200000Y-78350001D01*
G75*
G02*
X154950001Y-78600000I-249999J0D01*
G01*
G37*
%TD*%
%TO.C,R29*%
G36*
G01*
X172400000Y-83450001D02*
X172400000Y-82549999D01*
G75*
G02*
X172649999Y-82300000I249999J0D01*
G01*
X173350001Y-82300000D01*
G75*
G02*
X173600000Y-82549999I0J-249999D01*
G01*
X173600000Y-83450001D01*
G75*
G02*
X173350001Y-83700000I-249999J0D01*
G01*
X172649999Y-83700000D01*
G75*
G02*
X172400000Y-83450001I0J249999D01*
G01*
G37*
G36*
G01*
X174400000Y-83450001D02*
X174400000Y-82549999D01*
G75*
G02*
X174649999Y-82300000I249999J0D01*
G01*
X175350001Y-82300000D01*
G75*
G02*
X175600000Y-82549999I0J-249999D01*
G01*
X175600000Y-83450001D01*
G75*
G02*
X175350001Y-83700000I-249999J0D01*
G01*
X174649999Y-83700000D01*
G75*
G02*
X174400000Y-83450001I0J249999D01*
G01*
G37*
%TD*%
%TO.C,R30*%
G36*
G01*
X169400000Y-85950001D02*
X169400000Y-85049999D01*
G75*
G02*
X169649999Y-84800000I249999J0D01*
G01*
X170350001Y-84800000D01*
G75*
G02*
X170600000Y-85049999I0J-249999D01*
G01*
X170600000Y-85950001D01*
G75*
G02*
X170350001Y-86200000I-249999J0D01*
G01*
X169649999Y-86200000D01*
G75*
G02*
X169400000Y-85950001I0J249999D01*
G01*
G37*
G36*
G01*
X171400000Y-85950001D02*
X171400000Y-85049999D01*
G75*
G02*
X171649999Y-84800000I249999J0D01*
G01*
X172350001Y-84800000D01*
G75*
G02*
X172600000Y-85049999I0J-249999D01*
G01*
X172600000Y-85950001D01*
G75*
G02*
X172350001Y-86200000I-249999J0D01*
G01*
X171649999Y-86200000D01*
G75*
G02*
X171400000Y-85950001I0J249999D01*
G01*
G37*
%TD*%
%TO.C,R31*%
G36*
G01*
X174450001Y-81600000D02*
X173549999Y-81600000D01*
G75*
G02*
X173300000Y-81350001I0J249999D01*
G01*
X173300000Y-80649999D01*
G75*
G02*
X173549999Y-80400000I249999J0D01*
G01*
X174450001Y-80400000D01*
G75*
G02*
X174700000Y-80649999I0J-249999D01*
G01*
X174700000Y-81350001D01*
G75*
G02*
X174450001Y-81600000I-249999J0D01*
G01*
G37*
G36*
G01*
X174450001Y-79600000D02*
X173549999Y-79600000D01*
G75*
G02*
X173300000Y-79350001I0J249999D01*
G01*
X173300000Y-78649999D01*
G75*
G02*
X173549999Y-78400000I249999J0D01*
G01*
X174450001Y-78400000D01*
G75*
G02*
X174700000Y-78649999I0J-249999D01*
G01*
X174700000Y-79350001D01*
G75*
G02*
X174450001Y-79600000I-249999J0D01*
G01*
G37*
%TD*%
%TO.C,R32*%
G36*
G01*
X177450001Y-80100000D02*
X176549999Y-80100000D01*
G75*
G02*
X176300000Y-79850001I0J249999D01*
G01*
X176300000Y-79149999D01*
G75*
G02*
X176549999Y-78900000I249999J0D01*
G01*
X177450001Y-78900000D01*
G75*
G02*
X177700000Y-79149999I0J-249999D01*
G01*
X177700000Y-79850001D01*
G75*
G02*
X177450001Y-80100000I-249999J0D01*
G01*
G37*
G36*
G01*
X177450001Y-78100000D02*
X176549999Y-78100000D01*
G75*
G02*
X176300000Y-77850001I0J249999D01*
G01*
X176300000Y-77149999D01*
G75*
G02*
X176549999Y-76900000I249999J0D01*
G01*
X177450001Y-76900000D01*
G75*
G02*
X177700000Y-77149999I0J-249999D01*
G01*
X177700000Y-77850001D01*
G75*
G02*
X177450001Y-78100000I-249999J0D01*
G01*
G37*
%TD*%
%TO.C,R33*%
G36*
G01*
X179950001Y-78100000D02*
X179049999Y-78100000D01*
G75*
G02*
X178800000Y-77850001I0J249999D01*
G01*
X178800000Y-77149999D01*
G75*
G02*
X179049999Y-76900000I249999J0D01*
G01*
X179950001Y-76900000D01*
G75*
G02*
X180200000Y-77149999I0J-249999D01*
G01*
X180200000Y-77850001D01*
G75*
G02*
X179950001Y-78100000I-249999J0D01*
G01*
G37*
G36*
G01*
X179950001Y-80100000D02*
X179049999Y-80100000D01*
G75*
G02*
X178800000Y-79850001I0J249999D01*
G01*
X178800000Y-79149999D01*
G75*
G02*
X179049999Y-78900000I249999J0D01*
G01*
X179950001Y-78900000D01*
G75*
G02*
X180200000Y-79149999I0J-249999D01*
G01*
X180200000Y-79850001D01*
G75*
G02*
X179950001Y-80100000I-249999J0D01*
G01*
G37*
%TD*%
%TO.C,R34*%
G36*
G01*
X121600000Y-52549999D02*
X121600000Y-53450001D01*
G75*
G02*
X121350001Y-53700000I-249999J0D01*
G01*
X120649999Y-53700000D01*
G75*
G02*
X120400000Y-53450001I0J249999D01*
G01*
X120400000Y-52549999D01*
G75*
G02*
X120649999Y-52300000I249999J0D01*
G01*
X121350001Y-52300000D01*
G75*
G02*
X121600000Y-52549999I0J-249999D01*
G01*
G37*
G36*
G01*
X123600000Y-52549999D02*
X123600000Y-53450001D01*
G75*
G02*
X123350001Y-53700000I-249999J0D01*
G01*
X122649999Y-53700000D01*
G75*
G02*
X122400000Y-53450001I0J249999D01*
G01*
X122400000Y-52549999D01*
G75*
G02*
X122649999Y-52300000I249999J0D01*
G01*
X123350001Y-52300000D01*
G75*
G02*
X123600000Y-52549999I0J-249999D01*
G01*
G37*
%TD*%
%TO.C,R35*%
G36*
G01*
X128100000Y-52549999D02*
X128100000Y-53450001D01*
G75*
G02*
X127850001Y-53700000I-249999J0D01*
G01*
X127149999Y-53700000D01*
G75*
G02*
X126900000Y-53450001I0J249999D01*
G01*
X126900000Y-52549999D01*
G75*
G02*
X127149999Y-52300000I249999J0D01*
G01*
X127850001Y-52300000D01*
G75*
G02*
X128100000Y-52549999I0J-249999D01*
G01*
G37*
G36*
G01*
X126100000Y-52549999D02*
X126100000Y-53450001D01*
G75*
G02*
X125850001Y-53700000I-249999J0D01*
G01*
X125149999Y-53700000D01*
G75*
G02*
X124900000Y-53450001I0J249999D01*
G01*
X124900000Y-52549999D01*
G75*
G02*
X125149999Y-52300000I249999J0D01*
G01*
X125850001Y-52300000D01*
G75*
G02*
X126100000Y-52549999I0J-249999D01*
G01*
G37*
%TD*%
%TO.C,R36*%
G36*
G01*
X181900000Y-58450001D02*
X181900000Y-57549999D01*
G75*
G02*
X182149999Y-57300000I249999J0D01*
G01*
X182850001Y-57300000D01*
G75*
G02*
X183100000Y-57549999I0J-249999D01*
G01*
X183100000Y-58450001D01*
G75*
G02*
X182850001Y-58700000I-249999J0D01*
G01*
X182149999Y-58700000D01*
G75*
G02*
X181900000Y-58450001I0J249999D01*
G01*
G37*
G36*
G01*
X179900000Y-58450001D02*
X179900000Y-57549999D01*
G75*
G02*
X180149999Y-57300000I249999J0D01*
G01*
X180850001Y-57300000D01*
G75*
G02*
X181100000Y-57549999I0J-249999D01*
G01*
X181100000Y-58450001D01*
G75*
G02*
X180850001Y-58700000I-249999J0D01*
G01*
X180149999Y-58700000D01*
G75*
G02*
X179900000Y-58450001I0J249999D01*
G01*
G37*
%TD*%
%TO.C,R37*%
G36*
G01*
X182450001Y-80100000D02*
X181549999Y-80100000D01*
G75*
G02*
X181300000Y-79850001I0J249999D01*
G01*
X181300000Y-79149999D01*
G75*
G02*
X181549999Y-78900000I249999J0D01*
G01*
X182450001Y-78900000D01*
G75*
G02*
X182700000Y-79149999I0J-249999D01*
G01*
X182700000Y-79850001D01*
G75*
G02*
X182450001Y-80100000I-249999J0D01*
G01*
G37*
G36*
G01*
X182450001Y-78100000D02*
X181549999Y-78100000D01*
G75*
G02*
X181300000Y-77850001I0J249999D01*
G01*
X181300000Y-77149999D01*
G75*
G02*
X181549999Y-76900000I249999J0D01*
G01*
X182450001Y-76900000D01*
G75*
G02*
X182700000Y-77149999I0J-249999D01*
G01*
X182700000Y-77850001D01*
G75*
G02*
X182450001Y-78100000I-249999J0D01*
G01*
G37*
%TD*%
%TO.C,R39*%
G36*
G01*
X138400000Y-53450001D02*
X138400000Y-52549999D01*
G75*
G02*
X138649999Y-52300000I249999J0D01*
G01*
X139350001Y-52300000D01*
G75*
G02*
X139600000Y-52549999I0J-249999D01*
G01*
X139600000Y-53450001D01*
G75*
G02*
X139350001Y-53700000I-249999J0D01*
G01*
X138649999Y-53700000D01*
G75*
G02*
X138400000Y-53450001I0J249999D01*
G01*
G37*
G36*
G01*
X140400000Y-53450001D02*
X140400000Y-52549999D01*
G75*
G02*
X140649999Y-52300000I249999J0D01*
G01*
X141350001Y-52300000D01*
G75*
G02*
X141600000Y-52549999I0J-249999D01*
G01*
X141600000Y-53450001D01*
G75*
G02*
X141350001Y-53700000I-249999J0D01*
G01*
X140649999Y-53700000D01*
G75*
G02*
X140400000Y-53450001I0J249999D01*
G01*
G37*
%TD*%
%TO.C,R10P1*%
G36*
G01*
X162450001Y-71100000D02*
X161549999Y-71100000D01*
G75*
G02*
X161300000Y-70850001I0J249999D01*
G01*
X161300000Y-70149999D01*
G75*
G02*
X161549999Y-69900000I249999J0D01*
G01*
X162450001Y-69900000D01*
G75*
G02*
X162700000Y-70149999I0J-249999D01*
G01*
X162700000Y-70850001D01*
G75*
G02*
X162450001Y-71100000I-249999J0D01*
G01*
G37*
G36*
G01*
X162450001Y-69100000D02*
X161549999Y-69100000D01*
G75*
G02*
X161300000Y-68850001I0J249999D01*
G01*
X161300000Y-68149999D01*
G75*
G02*
X161549999Y-67900000I249999J0D01*
G01*
X162450001Y-67900000D01*
G75*
G02*
X162700000Y-68149999I0J-249999D01*
G01*
X162700000Y-68850001D01*
G75*
G02*
X162450001Y-69100000I-249999J0D01*
G01*
G37*
%TD*%
%TO.C,R2P1*%
G36*
G01*
X141950001Y-69600000D02*
X141049999Y-69600000D01*
G75*
G02*
X140800000Y-69350001I0J249999D01*
G01*
X140800000Y-68649999D01*
G75*
G02*
X141049999Y-68400000I249999J0D01*
G01*
X141950001Y-68400000D01*
G75*
G02*
X142200000Y-68649999I0J-249999D01*
G01*
X142200000Y-69350001D01*
G75*
G02*
X141950001Y-69600000I-249999J0D01*
G01*
G37*
G36*
G01*
X141950001Y-71600000D02*
X141049999Y-71600000D01*
G75*
G02*
X140800000Y-71350001I0J249999D01*
G01*
X140800000Y-70649999D01*
G75*
G02*
X141049999Y-70400000I249999J0D01*
G01*
X141950001Y-70400000D01*
G75*
G02*
X142200000Y-70649999I0J-249999D01*
G01*
X142200000Y-71350001D01*
G75*
G02*
X141950001Y-71600000I-249999J0D01*
G01*
G37*
%TD*%
%TO.C,R52S1*%
G36*
G01*
X167900000Y-58450001D02*
X167900000Y-57549999D01*
G75*
G02*
X168149999Y-57300000I249999J0D01*
G01*
X168850001Y-57300000D01*
G75*
G02*
X169100000Y-57549999I0J-249999D01*
G01*
X169100000Y-58450001D01*
G75*
G02*
X168850001Y-58700000I-249999J0D01*
G01*
X168149999Y-58700000D01*
G75*
G02*
X167900000Y-58450001I0J249999D01*
G01*
G37*
G36*
G01*
X169900000Y-58450001D02*
X169900000Y-57549999D01*
G75*
G02*
X170149999Y-57300000I249999J0D01*
G01*
X170850001Y-57300000D01*
G75*
G02*
X171100000Y-57549999I0J-249999D01*
G01*
X171100000Y-58450001D01*
G75*
G02*
X170850001Y-58700000I-249999J0D01*
G01*
X170149999Y-58700000D01*
G75*
G02*
X169900000Y-58450001I0J249999D01*
G01*
G37*
%TD*%
%TO.C,U6*%
G36*
G01*
X122940000Y-89898700D02*
X122940000Y-89391300D01*
G75*
G02*
X122981300Y-89350000I41300J0D01*
G01*
X124868700Y-89350000D01*
G75*
G02*
X124910000Y-89391300I0J-41300D01*
G01*
X124910000Y-89898700D01*
G75*
G02*
X124868700Y-89940000I-41300J0D01*
G01*
X122981300Y-89940000D01*
G75*
G02*
X122940000Y-89898700I0J41300D01*
G01*
G37*
G36*
G01*
X122940000Y-91168700D02*
X122940000Y-90661300D01*
G75*
G02*
X122981300Y-90620000I41300J0D01*
G01*
X124868700Y-90620000D01*
G75*
G02*
X124910000Y-90661300I0J-41300D01*
G01*
X124910000Y-91168700D01*
G75*
G02*
X124868700Y-91210000I-41300J0D01*
G01*
X122981300Y-91210000D01*
G75*
G02*
X122940000Y-91168700I0J41300D01*
G01*
G37*
G36*
G01*
X122940000Y-92438700D02*
X122940000Y-91931300D01*
G75*
G02*
X122981300Y-91890000I41300J0D01*
G01*
X124868700Y-91890000D01*
G75*
G02*
X124910000Y-91931300I0J-41300D01*
G01*
X124910000Y-92438700D01*
G75*
G02*
X124868700Y-92480000I-41300J0D01*
G01*
X122981300Y-92480000D01*
G75*
G02*
X122940000Y-92438700I0J41300D01*
G01*
G37*
G36*
G01*
X122940000Y-93708700D02*
X122940000Y-93201300D01*
G75*
G02*
X122981300Y-93160000I41300J0D01*
G01*
X124868700Y-93160000D01*
G75*
G02*
X124910000Y-93201300I0J-41300D01*
G01*
X124910000Y-93708700D01*
G75*
G02*
X124868700Y-93750000I-41300J0D01*
G01*
X122981300Y-93750000D01*
G75*
G02*
X122940000Y-93708700I0J41300D01*
G01*
G37*
G36*
G01*
X127890000Y-93708700D02*
X127890000Y-93201300D01*
G75*
G02*
X127931300Y-93160000I41300J0D01*
G01*
X129818700Y-93160000D01*
G75*
G02*
X129860000Y-93201300I0J-41300D01*
G01*
X129860000Y-93708700D01*
G75*
G02*
X129818700Y-93750000I-41300J0D01*
G01*
X127931300Y-93750000D01*
G75*
G02*
X127890000Y-93708700I0J41300D01*
G01*
G37*
G36*
G01*
X127890000Y-92438700D02*
X127890000Y-91931300D01*
G75*
G02*
X127931300Y-91890000I41300J0D01*
G01*
X129818700Y-91890000D01*
G75*
G02*
X129860000Y-91931300I0J-41300D01*
G01*
X129860000Y-92438700D01*
G75*
G02*
X129818700Y-92480000I-41300J0D01*
G01*
X127931300Y-92480000D01*
G75*
G02*
X127890000Y-92438700I0J41300D01*
G01*
G37*
G36*
G01*
X127890000Y-91168700D02*
X127890000Y-90661300D01*
G75*
G02*
X127931300Y-90620000I41300J0D01*
G01*
X129818700Y-90620000D01*
G75*
G02*
X129860000Y-90661300I0J-41300D01*
G01*
X129860000Y-91168700D01*
G75*
G02*
X129818700Y-91210000I-41300J0D01*
G01*
X127931300Y-91210000D01*
G75*
G02*
X127890000Y-91168700I0J41300D01*
G01*
G37*
G36*
G01*
X127890000Y-89898700D02*
X127890000Y-89391300D01*
G75*
G02*
X127931300Y-89350000I41300J0D01*
G01*
X129818700Y-89350000D01*
G75*
G02*
X129860000Y-89391300I0J-41300D01*
G01*
X129860000Y-89898700D01*
G75*
G02*
X129818700Y-89940000I-41300J0D01*
G01*
X127931300Y-89940000D01*
G75*
G02*
X127890000Y-89898700I0J41300D01*
G01*
G37*
%TD*%
M02*
