%TF.GenerationSoftware,KiCad,Pcbnew,(5.1.10)-1*%
%TF.CreationDate,2022-06-10T17:34:29+02:00*%
%TF.ProjectId,NGL_Proto_ST,4e474c5f-5072-46f7-946f-5f53542e6b69,V1*%
%TF.SameCoordinates,Original*%
%TF.FileFunction,Legend,Top*%
%TF.FilePolarity,Positive*%
%FSLAX46Y46*%
G04 Gerber Fmt 4.6, Leading zero omitted, Abs format (unit mm)*
G04 Created by KiCad (PCBNEW (5.1.10)-1) date 2022-06-10 17:34:29*
%MOMM*%
%LPD*%
G01*
G04 APERTURE LIST*
%ADD10C,0.300000*%
%ADD11C,0.150000*%
%ADD12C,0.120000*%
%ADD13C,0.200000*%
%ADD14C,0.127000*%
%ADD15C,0.010000*%
%ADD16C,0.400000*%
%ADD17C,0.100000*%
%ADD18C,0.152400*%
G04 APERTURE END LIST*
D10*
X200428571Y-114607142D02*
X201571428Y-114607142D01*
X201000000Y-115178571D02*
X201000000Y-114035714D01*
X196321428Y-106607142D02*
X197464285Y-106607142D01*
X197964285Y-105678571D02*
X198464285Y-107178571D01*
X198964285Y-105678571D01*
X199964285Y-106392857D02*
X200178571Y-106464285D01*
X200250000Y-106535714D01*
X200321428Y-106678571D01*
X200321428Y-106892857D01*
X200250000Y-107035714D01*
X200178571Y-107107142D01*
X200035714Y-107178571D01*
X199464285Y-107178571D01*
X199464285Y-105678571D01*
X199964285Y-105678571D01*
X200107142Y-105750000D01*
X200178571Y-105821428D01*
X200250000Y-105964285D01*
X200250000Y-106107142D01*
X200178571Y-106250000D01*
X200107142Y-106321428D01*
X199964285Y-106392857D01*
X199464285Y-106392857D01*
X200892857Y-106750000D02*
X201607142Y-106750000D01*
X200750000Y-107178571D02*
X201250000Y-105678571D01*
X201750000Y-107178571D01*
X202035714Y-105678571D02*
X202892857Y-105678571D01*
X202464285Y-107178571D02*
X202464285Y-105678571D01*
X122821428Y-104107142D02*
X123964285Y-104107142D01*
X123392857Y-104678571D02*
X123392857Y-103535714D01*
X124464285Y-103178571D02*
X124964285Y-104678571D01*
X125464285Y-103178571D01*
X126464285Y-103892857D02*
X126678571Y-103964285D01*
X126750000Y-104035714D01*
X126821428Y-104178571D01*
X126821428Y-104392857D01*
X126750000Y-104535714D01*
X126678571Y-104607142D01*
X126535714Y-104678571D01*
X125964285Y-104678571D01*
X125964285Y-103178571D01*
X126464285Y-103178571D01*
X126607142Y-103250000D01*
X126678571Y-103321428D01*
X126750000Y-103464285D01*
X126750000Y-103607142D01*
X126678571Y-103750000D01*
X126607142Y-103821428D01*
X126464285Y-103892857D01*
X125964285Y-103892857D01*
X127392857Y-104250000D02*
X128107142Y-104250000D01*
X127250000Y-104678571D02*
X127750000Y-103178571D01*
X128250000Y-104678571D01*
X128535714Y-103178571D02*
X129392857Y-103178571D01*
X128964285Y-104678571D02*
X128964285Y-103178571D01*
D11*
X232722380Y-89190476D02*
X232722380Y-88523809D01*
X233722380Y-88952380D01*
X232722380Y-87952380D02*
X232722380Y-87857142D01*
X232770000Y-87761904D01*
X232817619Y-87714285D01*
X232912857Y-87666666D01*
X233103333Y-87619047D01*
X233341428Y-87619047D01*
X233531904Y-87666666D01*
X233627142Y-87714285D01*
X233674761Y-87761904D01*
X233722380Y-87857142D01*
X233722380Y-87952380D01*
X233674761Y-88047619D01*
X233627142Y-88095238D01*
X233531904Y-88142857D01*
X233341428Y-88190476D01*
X233103333Y-88190476D01*
X232912857Y-88142857D01*
X232817619Y-88095238D01*
X232770000Y-88047619D01*
X232722380Y-87952380D01*
X233674761Y-87142857D02*
X233722380Y-87142857D01*
X233817619Y-87190476D01*
X233865238Y-87238095D01*
X232722380Y-86523809D02*
X232722380Y-86428571D01*
X232770000Y-86333333D01*
X232817619Y-86285714D01*
X232912857Y-86238095D01*
X233103333Y-86190476D01*
X233341428Y-86190476D01*
X233531904Y-86238095D01*
X233627142Y-86285714D01*
X233674761Y-86333333D01*
X233722380Y-86428571D01*
X233722380Y-86523809D01*
X233674761Y-86619047D01*
X233627142Y-86666666D01*
X233531904Y-86714285D01*
X233341428Y-86761904D01*
X233103333Y-86761904D01*
X232912857Y-86714285D01*
X232817619Y-86666666D01*
X232770000Y-86619047D01*
X232722380Y-86523809D01*
X232722380Y-85571428D02*
X232722380Y-85476190D01*
X232770000Y-85380952D01*
X232817619Y-85333333D01*
X232912857Y-85285714D01*
X233103333Y-85238095D01*
X233341428Y-85238095D01*
X233531904Y-85285714D01*
X233627142Y-85333333D01*
X233674761Y-85380952D01*
X233722380Y-85476190D01*
X233722380Y-85571428D01*
X233674761Y-85666666D01*
X233627142Y-85714285D01*
X233531904Y-85761904D01*
X233341428Y-85809523D01*
X233103333Y-85809523D01*
X232912857Y-85761904D01*
X232817619Y-85714285D01*
X232770000Y-85666666D01*
X232722380Y-85571428D01*
X232722380Y-84619047D02*
X232722380Y-84523809D01*
X232770000Y-84428571D01*
X232817619Y-84380952D01*
X232912857Y-84333333D01*
X233103333Y-84285714D01*
X233341428Y-84285714D01*
X233531904Y-84333333D01*
X233627142Y-84380952D01*
X233674761Y-84428571D01*
X233722380Y-84523809D01*
X233722380Y-84619047D01*
X233674761Y-84714285D01*
X233627142Y-84761904D01*
X233531904Y-84809523D01*
X233341428Y-84857142D01*
X233103333Y-84857142D01*
X232912857Y-84809523D01*
X232817619Y-84761904D01*
X232770000Y-84714285D01*
X232722380Y-84619047D01*
X233722380Y-83095238D02*
X233055714Y-83095238D01*
X233150952Y-83095238D02*
X233103333Y-83047619D01*
X233055714Y-82952380D01*
X233055714Y-82809523D01*
X233103333Y-82714285D01*
X233198571Y-82666666D01*
X233722380Y-82666666D01*
X233198571Y-82666666D02*
X233103333Y-82619047D01*
X233055714Y-82523809D01*
X233055714Y-82380952D01*
X233103333Y-82285714D01*
X233198571Y-82238095D01*
X233722380Y-82238095D01*
X233722380Y-81761904D02*
X233055714Y-81761904D01*
X233150952Y-81761904D02*
X233103333Y-81714285D01*
X233055714Y-81619047D01*
X233055714Y-81476190D01*
X233103333Y-81380952D01*
X233198571Y-81333333D01*
X233722380Y-81333333D01*
X233198571Y-81333333D02*
X233103333Y-81285714D01*
X233055714Y-81190476D01*
X233055714Y-81047619D01*
X233103333Y-80952380D01*
X233198571Y-80904761D01*
X233722380Y-80904761D01*
D12*
X232000000Y-120000000D02*
X232000000Y-50000000D01*
X213000000Y-120000000D02*
X232586421Y-120000000D01*
X213000000Y-50000000D02*
X232586421Y-50000000D01*
X232000000Y-50000000D02*
X232586421Y-51126504D01*
X232000000Y-50000000D02*
X231413579Y-51126504D01*
X232000000Y-120000000D02*
X232586421Y-118873496D01*
X232000000Y-120000000D02*
X231413579Y-118873496D01*
D11*
X224917344Y-106857580D02*
X224926187Y-106238595D01*
X225302339Y-106577336D01*
X225304380Y-106434494D01*
X225353354Y-106339946D01*
X225401649Y-106293012D01*
X225497557Y-106246758D01*
X225735628Y-106250159D01*
X225830177Y-106299133D01*
X225877111Y-106347428D01*
X225923364Y-106443336D01*
X225919283Y-106729022D01*
X225870308Y-106823570D01*
X225822014Y-106870504D01*
X224939111Y-105333926D02*
X224932309Y-105810068D01*
X225407771Y-105864484D01*
X225360837Y-105816189D01*
X225314583Y-105720281D01*
X225317984Y-105482210D01*
X225366958Y-105387662D01*
X225415253Y-105340728D01*
X225511161Y-105294474D01*
X225749232Y-105297875D01*
X225843781Y-105346850D01*
X225890715Y-105395144D01*
X225936968Y-105491053D01*
X225933567Y-105729124D01*
X225884593Y-105823672D01*
X225836298Y-105870606D01*
X225898877Y-104823774D02*
X225946491Y-104824454D01*
X226041039Y-104873429D01*
X226087973Y-104921723D01*
X224955436Y-104191185D02*
X224956796Y-104095957D01*
X225005771Y-104001409D01*
X225054065Y-103954475D01*
X225149974Y-103908221D01*
X225341111Y-103863328D01*
X225579182Y-103866729D01*
X225768958Y-103917064D01*
X225863506Y-103966038D01*
X225910440Y-104014333D01*
X225956694Y-104110241D01*
X225955334Y-104205469D01*
X225906359Y-104300018D01*
X225858065Y-104346952D01*
X225762156Y-104393205D01*
X225571019Y-104438099D01*
X225332948Y-104434698D01*
X225143172Y-104384363D01*
X225048624Y-104335388D01*
X225001690Y-104287094D01*
X224955436Y-104191185D01*
X224969040Y-103238901D02*
X224970400Y-103143673D01*
X225019375Y-103049125D01*
X225067669Y-103002191D01*
X225163578Y-102955937D01*
X225354715Y-102911044D01*
X225592786Y-102914445D01*
X225782562Y-102964780D01*
X225877111Y-103013754D01*
X225924044Y-103062049D01*
X225970298Y-103157957D01*
X225968938Y-103253186D01*
X225919963Y-103347734D01*
X225871669Y-103394668D01*
X225775760Y-103440922D01*
X225584623Y-103485815D01*
X225346552Y-103482414D01*
X225156776Y-103432079D01*
X225062228Y-103383104D01*
X225015294Y-103334810D01*
X224969040Y-103238901D01*
X225319344Y-102053308D02*
X225985943Y-102062831D01*
X224935030Y-102285937D02*
X225645842Y-102534211D01*
X225654684Y-101915227D01*
X226004308Y-100777248D02*
X225337710Y-100767725D01*
X225432938Y-100769085D02*
X225386004Y-100720791D01*
X225339750Y-100624882D01*
X225341791Y-100482040D01*
X225390766Y-100387492D01*
X225486674Y-100341238D01*
X226010430Y-100348720D01*
X225486674Y-100341238D02*
X225392126Y-100292263D01*
X225345872Y-100196355D01*
X225347913Y-100053512D01*
X225396887Y-99958964D01*
X225492796Y-99912710D01*
X226016552Y-99920192D01*
X226023354Y-99444051D02*
X225356755Y-99434528D01*
X225451984Y-99435888D02*
X225405050Y-99387594D01*
X225358796Y-99291685D01*
X225360837Y-99148843D01*
X225409811Y-99054294D01*
X225505720Y-99008041D01*
X226029476Y-99015523D01*
X225505720Y-99008041D02*
X225411172Y-98959066D01*
X225364918Y-98863157D01*
X225366958Y-98720315D01*
X225415933Y-98625767D01*
X225511842Y-98579513D01*
X226035598Y-98586995D01*
D12*
X224004896Y-120157213D02*
X224504896Y-85157213D01*
X213000000Y-120000000D02*
X224591257Y-120165589D01*
X213500000Y-85000000D02*
X225091257Y-85165589D01*
X224504896Y-85157213D02*
X225075166Y-86291978D01*
X224504896Y-85157213D02*
X223902444Y-86275225D01*
X224004896Y-120157213D02*
X224607348Y-119039201D01*
X224004896Y-120157213D02*
X223434626Y-119022448D01*
D11*
X128833333Y-126722380D02*
X128642857Y-126722380D01*
X128547619Y-126770000D01*
X128500000Y-126817619D01*
X128404761Y-126960476D01*
X128357142Y-127150952D01*
X128357142Y-127531904D01*
X128404761Y-127627142D01*
X128452380Y-127674761D01*
X128547619Y-127722380D01*
X128738095Y-127722380D01*
X128833333Y-127674761D01*
X128880952Y-127627142D01*
X128928571Y-127531904D01*
X128928571Y-127293809D01*
X128880952Y-127198571D01*
X128833333Y-127150952D01*
X128738095Y-127103333D01*
X128547619Y-127103333D01*
X128452380Y-127150952D01*
X128404761Y-127198571D01*
X128357142Y-127293809D01*
X129833333Y-126722380D02*
X129357142Y-126722380D01*
X129309523Y-127198571D01*
X129357142Y-127150952D01*
X129452380Y-127103333D01*
X129690476Y-127103333D01*
X129785714Y-127150952D01*
X129833333Y-127198571D01*
X129880952Y-127293809D01*
X129880952Y-127531904D01*
X129833333Y-127627142D01*
X129785714Y-127674761D01*
X129690476Y-127722380D01*
X129452380Y-127722380D01*
X129357142Y-127674761D01*
X129309523Y-127627142D01*
X130357142Y-127674761D02*
X130357142Y-127722380D01*
X130309523Y-127817619D01*
X130261904Y-127865238D01*
X130976190Y-126722380D02*
X131071428Y-126722380D01*
X131166666Y-126770000D01*
X131214285Y-126817619D01*
X131261904Y-126912857D01*
X131309523Y-127103333D01*
X131309523Y-127341428D01*
X131261904Y-127531904D01*
X131214285Y-127627142D01*
X131166666Y-127674761D01*
X131071428Y-127722380D01*
X130976190Y-127722380D01*
X130880952Y-127674761D01*
X130833333Y-127627142D01*
X130785714Y-127531904D01*
X130738095Y-127341428D01*
X130738095Y-127103333D01*
X130785714Y-126912857D01*
X130833333Y-126817619D01*
X130880952Y-126770000D01*
X130976190Y-126722380D01*
X131928571Y-126722380D02*
X132023809Y-126722380D01*
X132119047Y-126770000D01*
X132166666Y-126817619D01*
X132214285Y-126912857D01*
X132261904Y-127103333D01*
X132261904Y-127341428D01*
X132214285Y-127531904D01*
X132166666Y-127627142D01*
X132119047Y-127674761D01*
X132023809Y-127722380D01*
X131928571Y-127722380D01*
X131833333Y-127674761D01*
X131785714Y-127627142D01*
X131738095Y-127531904D01*
X131690476Y-127341428D01*
X131690476Y-127103333D01*
X131738095Y-126912857D01*
X131785714Y-126817619D01*
X131833333Y-126770000D01*
X131928571Y-126722380D01*
X132880952Y-126722380D02*
X132976190Y-126722380D01*
X133071428Y-126770000D01*
X133119047Y-126817619D01*
X133166666Y-126912857D01*
X133214285Y-127103333D01*
X133214285Y-127341428D01*
X133166666Y-127531904D01*
X133119047Y-127627142D01*
X133071428Y-127674761D01*
X132976190Y-127722380D01*
X132880952Y-127722380D01*
X132785714Y-127674761D01*
X132738095Y-127627142D01*
X132690476Y-127531904D01*
X132642857Y-127341428D01*
X132642857Y-127103333D01*
X132690476Y-126912857D01*
X132738095Y-126817619D01*
X132785714Y-126770000D01*
X132880952Y-126722380D01*
X134404761Y-127722380D02*
X134404761Y-127055714D01*
X134404761Y-127150952D02*
X134452380Y-127103333D01*
X134547619Y-127055714D01*
X134690476Y-127055714D01*
X134785714Y-127103333D01*
X134833333Y-127198571D01*
X134833333Y-127722380D01*
X134833333Y-127198571D02*
X134880952Y-127103333D01*
X134976190Y-127055714D01*
X135119047Y-127055714D01*
X135214285Y-127103333D01*
X135261904Y-127198571D01*
X135261904Y-127722380D01*
X135738095Y-127722380D02*
X135738095Y-127055714D01*
X135738095Y-127150952D02*
X135785714Y-127103333D01*
X135880952Y-127055714D01*
X136023809Y-127055714D01*
X136119047Y-127103333D01*
X136166666Y-127198571D01*
X136166666Y-127722380D01*
X136166666Y-127198571D02*
X136214285Y-127103333D01*
X136309523Y-127055714D01*
X136452380Y-127055714D01*
X136547619Y-127103333D01*
X136595238Y-127198571D01*
X136595238Y-127722380D01*
D12*
X100000000Y-126000000D02*
X165000000Y-126000000D01*
X100000000Y-120000000D02*
X100000000Y-126586421D01*
X165000000Y-120000000D02*
X165000000Y-126586421D01*
X165000000Y-126000000D02*
X163873496Y-126586421D01*
X165000000Y-126000000D02*
X163873496Y-125413579D01*
X100000000Y-126000000D02*
X101126504Y-126586421D01*
X100000000Y-126000000D02*
X101126504Y-125413579D01*
D11*
X72682380Y-58357142D02*
X72730000Y-58404761D01*
X72777619Y-58500000D01*
X72777619Y-58738095D01*
X72730000Y-58833333D01*
X72682380Y-58880952D01*
X72587142Y-58928571D01*
X72491904Y-58928571D01*
X72349047Y-58880952D01*
X71777619Y-58309523D01*
X71777619Y-58928571D01*
X72777619Y-59833333D02*
X72777619Y-59357142D01*
X72301428Y-59309523D01*
X72349047Y-59357142D01*
X72396666Y-59452380D01*
X72396666Y-59690476D01*
X72349047Y-59785714D01*
X72301428Y-59833333D01*
X72206190Y-59880952D01*
X71968095Y-59880952D01*
X71872857Y-59833333D01*
X71825238Y-59785714D01*
X71777619Y-59690476D01*
X71777619Y-59452380D01*
X71825238Y-59357142D01*
X71872857Y-59309523D01*
X71825238Y-60357142D02*
X71777619Y-60357142D01*
X71682380Y-60309523D01*
X71634761Y-60261904D01*
X72777619Y-60976190D02*
X72777619Y-61071428D01*
X72730000Y-61166666D01*
X72682380Y-61214285D01*
X72587142Y-61261904D01*
X72396666Y-61309523D01*
X72158571Y-61309523D01*
X71968095Y-61261904D01*
X71872857Y-61214285D01*
X71825238Y-61166666D01*
X71777619Y-61071428D01*
X71777619Y-60976190D01*
X71825238Y-60880952D01*
X71872857Y-60833333D01*
X71968095Y-60785714D01*
X72158571Y-60738095D01*
X72396666Y-60738095D01*
X72587142Y-60785714D01*
X72682380Y-60833333D01*
X72730000Y-60880952D01*
X72777619Y-60976190D01*
X72777619Y-61928571D02*
X72777619Y-62023809D01*
X72730000Y-62119047D01*
X72682380Y-62166666D01*
X72587142Y-62214285D01*
X72396666Y-62261904D01*
X72158571Y-62261904D01*
X71968095Y-62214285D01*
X71872857Y-62166666D01*
X71825238Y-62119047D01*
X71777619Y-62023809D01*
X71777619Y-61928571D01*
X71825238Y-61833333D01*
X71872857Y-61785714D01*
X71968095Y-61738095D01*
X72158571Y-61690476D01*
X72396666Y-61690476D01*
X72587142Y-61738095D01*
X72682380Y-61785714D01*
X72730000Y-61833333D01*
X72777619Y-61928571D01*
X72777619Y-62880952D02*
X72777619Y-62976190D01*
X72730000Y-63071428D01*
X72682380Y-63119047D01*
X72587142Y-63166666D01*
X72396666Y-63214285D01*
X72158571Y-63214285D01*
X71968095Y-63166666D01*
X71872857Y-63119047D01*
X71825238Y-63071428D01*
X71777619Y-62976190D01*
X71777619Y-62880952D01*
X71825238Y-62785714D01*
X71872857Y-62738095D01*
X71968095Y-62690476D01*
X72158571Y-62642857D01*
X72396666Y-62642857D01*
X72587142Y-62690476D01*
X72682380Y-62738095D01*
X72730000Y-62785714D01*
X72777619Y-62880952D01*
X71777619Y-64404761D02*
X72444285Y-64404761D01*
X72349047Y-64404761D02*
X72396666Y-64452380D01*
X72444285Y-64547619D01*
X72444285Y-64690476D01*
X72396666Y-64785714D01*
X72301428Y-64833333D01*
X71777619Y-64833333D01*
X72301428Y-64833333D02*
X72396666Y-64880952D01*
X72444285Y-64976190D01*
X72444285Y-65119047D01*
X72396666Y-65214285D01*
X72301428Y-65261904D01*
X71777619Y-65261904D01*
X71777619Y-65738095D02*
X72444285Y-65738095D01*
X72349047Y-65738095D02*
X72396666Y-65785714D01*
X72444285Y-65880952D01*
X72444285Y-66023809D01*
X72396666Y-66119047D01*
X72301428Y-66166666D01*
X71777619Y-66166666D01*
X72301428Y-66166666D02*
X72396666Y-66214285D01*
X72444285Y-66309523D01*
X72444285Y-66452380D01*
X72396666Y-66547619D01*
X72301428Y-66595238D01*
X71777619Y-66595238D01*
D12*
X73500000Y-50000000D02*
X73500000Y-75000000D01*
X100000000Y-50000000D02*
X72913579Y-50000000D01*
X100000000Y-75000000D02*
X72913579Y-75000000D01*
X73500000Y-75000000D02*
X72913579Y-73873496D01*
X73500000Y-75000000D02*
X74086421Y-73873496D01*
X73500000Y-50000000D02*
X72913579Y-51126504D01*
X73500000Y-50000000D02*
X74086421Y-51126504D01*
D11*
X72277619Y-111642857D02*
X72230000Y-111595238D01*
X72182380Y-111500000D01*
X72182380Y-111261904D01*
X72230000Y-111166666D01*
X72277619Y-111119047D01*
X72372857Y-111071428D01*
X72468095Y-111071428D01*
X72610952Y-111119047D01*
X73182380Y-111690476D01*
X73182380Y-111071428D01*
X72182380Y-110166666D02*
X72182380Y-110642857D01*
X72658571Y-110690476D01*
X72610952Y-110642857D01*
X72563333Y-110547619D01*
X72563333Y-110309523D01*
X72610952Y-110214285D01*
X72658571Y-110166666D01*
X72753809Y-110119047D01*
X72991904Y-110119047D01*
X73087142Y-110166666D01*
X73134761Y-110214285D01*
X73182380Y-110309523D01*
X73182380Y-110547619D01*
X73134761Y-110642857D01*
X73087142Y-110690476D01*
X73134761Y-109642857D02*
X73182380Y-109642857D01*
X73277619Y-109690476D01*
X73325238Y-109738095D01*
X72182380Y-109023809D02*
X72182380Y-108928571D01*
X72230000Y-108833333D01*
X72277619Y-108785714D01*
X72372857Y-108738095D01*
X72563333Y-108690476D01*
X72801428Y-108690476D01*
X72991904Y-108738095D01*
X73087142Y-108785714D01*
X73134761Y-108833333D01*
X73182380Y-108928571D01*
X73182380Y-109023809D01*
X73134761Y-109119047D01*
X73087142Y-109166666D01*
X72991904Y-109214285D01*
X72801428Y-109261904D01*
X72563333Y-109261904D01*
X72372857Y-109214285D01*
X72277619Y-109166666D01*
X72230000Y-109119047D01*
X72182380Y-109023809D01*
X72182380Y-108071428D02*
X72182380Y-107976190D01*
X72230000Y-107880952D01*
X72277619Y-107833333D01*
X72372857Y-107785714D01*
X72563333Y-107738095D01*
X72801428Y-107738095D01*
X72991904Y-107785714D01*
X73087142Y-107833333D01*
X73134761Y-107880952D01*
X73182380Y-107976190D01*
X73182380Y-108071428D01*
X73134761Y-108166666D01*
X73087142Y-108214285D01*
X72991904Y-108261904D01*
X72801428Y-108309523D01*
X72563333Y-108309523D01*
X72372857Y-108261904D01*
X72277619Y-108214285D01*
X72230000Y-108166666D01*
X72182380Y-108071428D01*
X72182380Y-107119047D02*
X72182380Y-107023809D01*
X72230000Y-106928571D01*
X72277619Y-106880952D01*
X72372857Y-106833333D01*
X72563333Y-106785714D01*
X72801428Y-106785714D01*
X72991904Y-106833333D01*
X73087142Y-106880952D01*
X73134761Y-106928571D01*
X73182380Y-107023809D01*
X73182380Y-107119047D01*
X73134761Y-107214285D01*
X73087142Y-107261904D01*
X72991904Y-107309523D01*
X72801428Y-107357142D01*
X72563333Y-107357142D01*
X72372857Y-107309523D01*
X72277619Y-107261904D01*
X72230000Y-107214285D01*
X72182380Y-107119047D01*
X73182380Y-105595238D02*
X72515714Y-105595238D01*
X72610952Y-105595238D02*
X72563333Y-105547619D01*
X72515714Y-105452380D01*
X72515714Y-105309523D01*
X72563333Y-105214285D01*
X72658571Y-105166666D01*
X73182380Y-105166666D01*
X72658571Y-105166666D02*
X72563333Y-105119047D01*
X72515714Y-105023809D01*
X72515714Y-104880952D01*
X72563333Y-104785714D01*
X72658571Y-104738095D01*
X73182380Y-104738095D01*
X73182380Y-104261904D02*
X72515714Y-104261904D01*
X72610952Y-104261904D02*
X72563333Y-104214285D01*
X72515714Y-104119047D01*
X72515714Y-103976190D01*
X72563333Y-103880952D01*
X72658571Y-103833333D01*
X73182380Y-103833333D01*
X72658571Y-103833333D02*
X72563333Y-103785714D01*
X72515714Y-103690476D01*
X72515714Y-103547619D01*
X72563333Y-103452380D01*
X72658571Y-103404761D01*
X73182380Y-103404761D01*
D12*
X74000000Y-120000000D02*
X74000000Y-95000000D01*
X100000000Y-120000000D02*
X73413579Y-120000000D01*
X100000000Y-95000000D02*
X73413579Y-95000000D01*
X74000000Y-95000000D02*
X74586421Y-96126504D01*
X74000000Y-95000000D02*
X73413579Y-96126504D01*
X74000000Y-120000000D02*
X74586421Y-118873496D01*
X74000000Y-120000000D02*
X73413579Y-118873496D01*
D13*
%TO.C,U5*%
X135700000Y-117200000D02*
G75*
G03*
X135700000Y-117200000I-100000J0D01*
G01*
D14*
X142370000Y-108022000D02*
X142200000Y-108022000D01*
X142370000Y-114243000D02*
X142370000Y-108022000D01*
X135630000Y-114243000D02*
X142370000Y-114243000D01*
X135630000Y-108022000D02*
X135630000Y-114243000D01*
X135800000Y-108022000D02*
X135630000Y-108022000D01*
D15*
%TO.C,G1*%
G36*
X171370880Y-112706327D02*
G01*
X171342584Y-113307645D01*
X171219691Y-113975257D01*
X171016626Y-114645889D01*
X170823988Y-115105306D01*
X170540023Y-115569058D01*
X170142493Y-116046768D01*
X169676695Y-116493768D01*
X169187928Y-116865392D01*
X168834072Y-117067516D01*
X168369864Y-117264780D01*
X167891633Y-117427400D01*
X167427536Y-117550227D01*
X167005728Y-117628113D01*
X166654365Y-117655909D01*
X166401603Y-117628466D01*
X166275599Y-117540634D01*
X166273576Y-117535748D01*
X166256395Y-117371044D01*
X166269622Y-117084665D01*
X166287508Y-116913279D01*
X166731334Y-116913279D01*
X166731334Y-117227471D01*
X167133500Y-117152944D01*
X167441330Y-117083204D01*
X167811208Y-116981935D01*
X168059791Y-116904650D01*
X168832495Y-116566651D01*
X169491150Y-116104065D01*
X170033489Y-115519501D01*
X170457244Y-114815569D01*
X170760146Y-113994879D01*
X170828753Y-113718953D01*
X170925338Y-113227719D01*
X170961491Y-112883843D01*
X170937212Y-112676499D01*
X170852502Y-112594862D01*
X170828721Y-112592667D01*
X170572905Y-112626064D01*
X170212794Y-112716056D01*
X169797408Y-112847337D01*
X169375766Y-113004607D01*
X169043196Y-113150087D01*
X168376038Y-113550484D01*
X167825259Y-114061988D01*
X167384414Y-114693028D01*
X167047056Y-115452034D01*
X166894897Y-115959558D01*
X166814272Y-116315896D01*
X166755852Y-116652461D01*
X166731461Y-116900317D01*
X166731334Y-116913279D01*
X166287508Y-116913279D01*
X166307639Y-116720392D01*
X166364832Y-116322007D01*
X166435583Y-115933293D01*
X166514276Y-115598030D01*
X166528635Y-115547469D01*
X166810361Y-114815764D01*
X167198610Y-114142448D01*
X167664749Y-113575491D01*
X167761316Y-113482309D01*
X168366393Y-113019872D01*
X169080921Y-112634664D01*
X169854566Y-112347851D01*
X170636996Y-112180598D01*
X170922334Y-112153027D01*
X171345667Y-112127000D01*
X171370880Y-112706327D01*
G37*
X171370880Y-112706327D02*
X171342584Y-113307645D01*
X171219691Y-113975257D01*
X171016626Y-114645889D01*
X170823988Y-115105306D01*
X170540023Y-115569058D01*
X170142493Y-116046768D01*
X169676695Y-116493768D01*
X169187928Y-116865392D01*
X168834072Y-117067516D01*
X168369864Y-117264780D01*
X167891633Y-117427400D01*
X167427536Y-117550227D01*
X167005728Y-117628113D01*
X166654365Y-117655909D01*
X166401603Y-117628466D01*
X166275599Y-117540634D01*
X166273576Y-117535748D01*
X166256395Y-117371044D01*
X166269622Y-117084665D01*
X166287508Y-116913279D01*
X166731334Y-116913279D01*
X166731334Y-117227471D01*
X167133500Y-117152944D01*
X167441330Y-117083204D01*
X167811208Y-116981935D01*
X168059791Y-116904650D01*
X168832495Y-116566651D01*
X169491150Y-116104065D01*
X170033489Y-115519501D01*
X170457244Y-114815569D01*
X170760146Y-113994879D01*
X170828753Y-113718953D01*
X170925338Y-113227719D01*
X170961491Y-112883843D01*
X170937212Y-112676499D01*
X170852502Y-112594862D01*
X170828721Y-112592667D01*
X170572905Y-112626064D01*
X170212794Y-112716056D01*
X169797408Y-112847337D01*
X169375766Y-113004607D01*
X169043196Y-113150087D01*
X168376038Y-113550484D01*
X167825259Y-114061988D01*
X167384414Y-114693028D01*
X167047056Y-115452034D01*
X166894897Y-115959558D01*
X166814272Y-116315896D01*
X166755852Y-116652461D01*
X166731461Y-116900317D01*
X166731334Y-116913279D01*
X166287508Y-116913279D01*
X166307639Y-116720392D01*
X166364832Y-116322007D01*
X166435583Y-115933293D01*
X166514276Y-115598030D01*
X166528635Y-115547469D01*
X166810361Y-114815764D01*
X167198610Y-114142448D01*
X167664749Y-113575491D01*
X167761316Y-113482309D01*
X168366393Y-113019872D01*
X169080921Y-112634664D01*
X169854566Y-112347851D01*
X170636996Y-112180598D01*
X170922334Y-112153027D01*
X171345667Y-112127000D01*
X171370880Y-112706327D01*
G36*
X172202349Y-112165184D02*
G01*
X172542100Y-112253872D01*
X172922885Y-112377568D01*
X173306454Y-112525817D01*
X173434714Y-112581765D01*
X174234228Y-113030684D01*
X174927527Y-113608842D01*
X175517953Y-114319608D01*
X176008852Y-115166350D01*
X176016925Y-115183125D01*
X176219594Y-115648879D01*
X176337075Y-116018332D01*
X176366328Y-116277523D01*
X176304312Y-116412490D01*
X176286545Y-116421313D01*
X176145294Y-116425991D01*
X175903062Y-116391795D01*
X175706000Y-116348737D01*
X174844390Y-116049790D01*
X174039904Y-115606383D01*
X173316683Y-115037846D01*
X172698863Y-114363505D01*
X172210584Y-113602691D01*
X172165361Y-113513630D01*
X171936514Y-113012485D01*
X171851387Y-112773988D01*
X172320453Y-112773988D01*
X172359985Y-112897028D01*
X172464338Y-113124857D01*
X172613804Y-113415536D01*
X172672927Y-113524000D01*
X173146048Y-114232782D01*
X173721462Y-114821874D01*
X174419826Y-115310612D01*
X174795034Y-115510480D01*
X175234875Y-115721257D01*
X175537424Y-115848121D01*
X175715484Y-115885557D01*
X175781855Y-115828047D01*
X175749340Y-115670074D01*
X175630740Y-115406123D01*
X175524398Y-115196167D01*
X175067439Y-114469813D01*
X174500671Y-113835918D01*
X173851546Y-113322066D01*
X173409425Y-113070815D01*
X172943371Y-112856297D01*
X172611877Y-112732346D01*
X172407695Y-112696986D01*
X172323576Y-112748242D01*
X172320453Y-112773988D01*
X171851387Y-112773988D01*
X171793110Y-112610717D01*
X171738435Y-112320685D01*
X171775771Y-112154742D01*
X171798948Y-112134654D01*
X171941882Y-112121960D01*
X172202349Y-112165184D01*
G37*
X172202349Y-112165184D02*
X172542100Y-112253872D01*
X172922885Y-112377568D01*
X173306454Y-112525817D01*
X173434714Y-112581765D01*
X174234228Y-113030684D01*
X174927527Y-113608842D01*
X175517953Y-114319608D01*
X176008852Y-115166350D01*
X176016925Y-115183125D01*
X176219594Y-115648879D01*
X176337075Y-116018332D01*
X176366328Y-116277523D01*
X176304312Y-116412490D01*
X176286545Y-116421313D01*
X176145294Y-116425991D01*
X175903062Y-116391795D01*
X175706000Y-116348737D01*
X174844390Y-116049790D01*
X174039904Y-115606383D01*
X173316683Y-115037846D01*
X172698863Y-114363505D01*
X172210584Y-113602691D01*
X172165361Y-113513630D01*
X171936514Y-113012485D01*
X171851387Y-112773988D01*
X172320453Y-112773988D01*
X172359985Y-112897028D01*
X172464338Y-113124857D01*
X172613804Y-113415536D01*
X172672927Y-113524000D01*
X173146048Y-114232782D01*
X173721462Y-114821874D01*
X174419826Y-115310612D01*
X174795034Y-115510480D01*
X175234875Y-115721257D01*
X175537424Y-115848121D01*
X175715484Y-115885557D01*
X175781855Y-115828047D01*
X175749340Y-115670074D01*
X175630740Y-115406123D01*
X175524398Y-115196167D01*
X175067439Y-114469813D01*
X174500671Y-113835918D01*
X173851546Y-113322066D01*
X173409425Y-113070815D01*
X172943371Y-112856297D01*
X172611877Y-112732346D01*
X172407695Y-112696986D01*
X172323576Y-112748242D01*
X172320453Y-112773988D01*
X171851387Y-112773988D01*
X171793110Y-112610717D01*
X171738435Y-112320685D01*
X171775771Y-112154742D01*
X171798948Y-112134654D01*
X171941882Y-112121960D01*
X172202349Y-112165184D01*
G36*
X178119613Y-109858256D02*
G01*
X178233997Y-110031500D01*
X178334276Y-110241979D01*
X178475158Y-110554371D01*
X178644448Y-110939852D01*
X178829949Y-111369597D01*
X179019466Y-111814783D01*
X179200802Y-112246584D01*
X179361761Y-112636176D01*
X179490146Y-112954735D01*
X179573763Y-113173437D01*
X179600667Y-113261498D01*
X179530496Y-113374720D01*
X179377297Y-113456532D01*
X179227045Y-113464902D01*
X179205725Y-113454592D01*
X179145711Y-113361329D01*
X179033482Y-113137294D01*
X178881064Y-112808391D01*
X178700481Y-112400522D01*
X178516129Y-111969064D01*
X178291086Y-111435611D01*
X178121558Y-111040218D01*
X177998559Y-110764376D01*
X177913102Y-110589578D01*
X177856201Y-110497316D01*
X177818870Y-110469081D01*
X177794625Y-110483055D01*
X177755017Y-110568972D01*
X177662031Y-110786223D01*
X177526342Y-111109393D01*
X177358627Y-111513066D01*
X177180792Y-111944477D01*
X176950015Y-112496084D01*
X176766566Y-112906031D01*
X176619623Y-113191695D01*
X176498366Y-113370454D01*
X176391976Y-113459685D01*
X176289632Y-113476765D01*
X176235167Y-113463170D01*
X176147654Y-113357851D01*
X176129334Y-113256932D01*
X176161808Y-113131929D01*
X176250984Y-112881866D01*
X176384489Y-112536287D01*
X176549951Y-112124734D01*
X176734995Y-111676753D01*
X176927251Y-111221887D01*
X177114346Y-110789681D01*
X177283906Y-110409677D01*
X177423560Y-110111421D01*
X177520935Y-109924456D01*
X177533279Y-109904500D01*
X177716492Y-109734092D01*
X177921351Y-109720383D01*
X178119613Y-109858256D01*
G37*
X178119613Y-109858256D02*
X178233997Y-110031500D01*
X178334276Y-110241979D01*
X178475158Y-110554371D01*
X178644448Y-110939852D01*
X178829949Y-111369597D01*
X179019466Y-111814783D01*
X179200802Y-112246584D01*
X179361761Y-112636176D01*
X179490146Y-112954735D01*
X179573763Y-113173437D01*
X179600667Y-113261498D01*
X179530496Y-113374720D01*
X179377297Y-113456532D01*
X179227045Y-113464902D01*
X179205725Y-113454592D01*
X179145711Y-113361329D01*
X179033482Y-113137294D01*
X178881064Y-112808391D01*
X178700481Y-112400522D01*
X178516129Y-111969064D01*
X178291086Y-111435611D01*
X178121558Y-111040218D01*
X177998559Y-110764376D01*
X177913102Y-110589578D01*
X177856201Y-110497316D01*
X177818870Y-110469081D01*
X177794625Y-110483055D01*
X177755017Y-110568972D01*
X177662031Y-110786223D01*
X177526342Y-111109393D01*
X177358627Y-111513066D01*
X177180792Y-111944477D01*
X176950015Y-112496084D01*
X176766566Y-112906031D01*
X176619623Y-113191695D01*
X176498366Y-113370454D01*
X176391976Y-113459685D01*
X176289632Y-113476765D01*
X176235167Y-113463170D01*
X176147654Y-113357851D01*
X176129334Y-113256932D01*
X176161808Y-113131929D01*
X176250984Y-112881866D01*
X176384489Y-112536287D01*
X176549951Y-112124734D01*
X176734995Y-111676753D01*
X176927251Y-111221887D01*
X177114346Y-110789681D01*
X177283906Y-110409677D01*
X177423560Y-110111421D01*
X177520935Y-109924456D01*
X177533279Y-109904500D01*
X177716492Y-109734092D01*
X177921351Y-109720383D01*
X178119613Y-109858256D01*
G36*
X181935734Y-109725083D02*
G01*
X182297988Y-109764564D01*
X182575360Y-109825403D01*
X182630220Y-109845491D01*
X183096000Y-110126479D01*
X183446752Y-110521797D01*
X183668550Y-111009935D01*
X183747466Y-111569385D01*
X183747474Y-111571102D01*
X183670818Y-112123426D01*
X183446593Y-112610011D01*
X183090430Y-113010290D01*
X182617957Y-113303695D01*
X182358133Y-113399432D01*
X182084278Y-113455033D01*
X181722715Y-113494170D01*
X181328178Y-113514869D01*
X180955402Y-113515159D01*
X180659121Y-113493066D01*
X180532000Y-113465243D01*
X180418432Y-113411587D01*
X180333325Y-113327837D01*
X180272641Y-113191353D01*
X180232343Y-112979494D01*
X180208391Y-112669621D01*
X180196748Y-112239093D01*
X180193376Y-111665270D01*
X180193334Y-111566532D01*
X180195372Y-110993751D01*
X180202689Y-110566939D01*
X180217092Y-110262766D01*
X180221727Y-110222000D01*
X180786000Y-110222000D01*
X180786000Y-111562555D01*
X180789826Y-112023725D01*
X180800390Y-112424886D01*
X180816319Y-112735656D01*
X180836242Y-112925655D01*
X180849500Y-112969002D01*
X180980079Y-113008871D01*
X181227870Y-113015634D01*
X181545156Y-112994564D01*
X181884222Y-112950934D01*
X182197352Y-112890018D01*
X182436831Y-112817089D01*
X182499800Y-112786623D01*
X182734212Y-112604588D01*
X182948730Y-112368639D01*
X182973296Y-112334089D01*
X183088885Y-112130625D01*
X183141440Y-111920750D01*
X183145555Y-111634153D01*
X183140023Y-111530731D01*
X183061024Y-111051618D01*
X182882698Y-110690795D01*
X182593120Y-110438906D01*
X182180366Y-110286599D01*
X181632511Y-110224518D01*
X181471705Y-110222000D01*
X180786000Y-110222000D01*
X180221727Y-110222000D01*
X180240385Y-110057902D01*
X180274372Y-109929020D01*
X180320860Y-109852788D01*
X180326381Y-109847047D01*
X180480837Y-109780167D01*
X180761147Y-109734502D01*
X181125166Y-109710080D01*
X181530743Y-109706931D01*
X181935734Y-109725083D01*
G37*
X181935734Y-109725083D02*
X182297988Y-109764564D01*
X182575360Y-109825403D01*
X182630220Y-109845491D01*
X183096000Y-110126479D01*
X183446752Y-110521797D01*
X183668550Y-111009935D01*
X183747466Y-111569385D01*
X183747474Y-111571102D01*
X183670818Y-112123426D01*
X183446593Y-112610011D01*
X183090430Y-113010290D01*
X182617957Y-113303695D01*
X182358133Y-113399432D01*
X182084278Y-113455033D01*
X181722715Y-113494170D01*
X181328178Y-113514869D01*
X180955402Y-113515159D01*
X180659121Y-113493066D01*
X180532000Y-113465243D01*
X180418432Y-113411587D01*
X180333325Y-113327837D01*
X180272641Y-113191353D01*
X180232343Y-112979494D01*
X180208391Y-112669621D01*
X180196748Y-112239093D01*
X180193376Y-111665270D01*
X180193334Y-111566532D01*
X180195372Y-110993751D01*
X180202689Y-110566939D01*
X180217092Y-110262766D01*
X180221727Y-110222000D01*
X180786000Y-110222000D01*
X180786000Y-111562555D01*
X180789826Y-112023725D01*
X180800390Y-112424886D01*
X180816319Y-112735656D01*
X180836242Y-112925655D01*
X180849500Y-112969002D01*
X180980079Y-113008871D01*
X181227870Y-113015634D01*
X181545156Y-112994564D01*
X181884222Y-112950934D01*
X182197352Y-112890018D01*
X182436831Y-112817089D01*
X182499800Y-112786623D01*
X182734212Y-112604588D01*
X182948730Y-112368639D01*
X182973296Y-112334089D01*
X183088885Y-112130625D01*
X183141440Y-111920750D01*
X183145555Y-111634153D01*
X183140023Y-111530731D01*
X183061024Y-111051618D01*
X182882698Y-110690795D01*
X182593120Y-110438906D01*
X182180366Y-110286599D01*
X181632511Y-110224518D01*
X181471705Y-110222000D01*
X180786000Y-110222000D01*
X180221727Y-110222000D01*
X180240385Y-110057902D01*
X180274372Y-109929020D01*
X180320860Y-109852788D01*
X180326381Y-109847047D01*
X180480837Y-109780167D01*
X180761147Y-109734502D01*
X181125166Y-109710080D01*
X181530743Y-109706931D01*
X181935734Y-109725083D01*
G36*
X185602342Y-110535135D02*
G01*
X185663251Y-110655638D01*
X185712078Y-110908990D01*
X185748214Y-111259097D01*
X185771052Y-111669864D01*
X185779983Y-112105197D01*
X185774401Y-112529000D01*
X185753696Y-112905180D01*
X185717262Y-113197641D01*
X185664491Y-113370290D01*
X185650394Y-113388844D01*
X185495148Y-113508200D01*
X185369339Y-113489743D01*
X185290267Y-113422400D01*
X185246942Y-113308078D01*
X185216089Y-113057914D01*
X185197013Y-112661735D01*
X185189017Y-112109363D01*
X185188667Y-111938076D01*
X185190568Y-111417237D01*
X185197834Y-111041403D01*
X185212809Y-110786274D01*
X185237836Y-110627548D01*
X185275261Y-110540925D01*
X185327175Y-110502201D01*
X185512435Y-110498538D01*
X185602342Y-110535135D01*
G37*
X185602342Y-110535135D02*
X185663251Y-110655638D01*
X185712078Y-110908990D01*
X185748214Y-111259097D01*
X185771052Y-111669864D01*
X185779983Y-112105197D01*
X185774401Y-112529000D01*
X185753696Y-112905180D01*
X185717262Y-113197641D01*
X185664491Y-113370290D01*
X185650394Y-113388844D01*
X185495148Y-113508200D01*
X185369339Y-113489743D01*
X185290267Y-113422400D01*
X185246942Y-113308078D01*
X185216089Y-113057914D01*
X185197013Y-112661735D01*
X185189017Y-112109363D01*
X185188667Y-111938076D01*
X185190568Y-111417237D01*
X185197834Y-111041403D01*
X185212809Y-110786274D01*
X185237836Y-110627548D01*
X185275261Y-110540925D01*
X185327175Y-110502201D01*
X185512435Y-110498538D01*
X185602342Y-110535135D01*
G36*
X188803140Y-109716736D02*
G01*
X189266114Y-109728877D01*
X190452315Y-109756333D01*
X190694619Y-110027756D01*
X190932164Y-110402436D01*
X191008839Y-110795297D01*
X190926422Y-111180135D01*
X190686686Y-111530748D01*
X190586465Y-111623567D01*
X190460653Y-111720208D01*
X190334280Y-111780700D01*
X190166747Y-111811943D01*
X189917454Y-111820836D01*
X189545801Y-111814281D01*
X189475614Y-111812353D01*
X189088389Y-111800110D01*
X188839744Y-111783896D01*
X188698986Y-111755278D01*
X188635421Y-111705825D01*
X188618355Y-111627104D01*
X188617667Y-111576667D01*
X188624662Y-111477564D01*
X188666931Y-111413323D01*
X188776400Y-111373682D01*
X188984995Y-111348380D01*
X189324642Y-111327155D01*
X189407933Y-111322667D01*
X189796571Y-111296205D01*
X190051566Y-111261489D01*
X190208605Y-111210413D01*
X190303378Y-111134875D01*
X190318100Y-111115984D01*
X190428531Y-110861362D01*
X190374191Y-110613944D01*
X190230182Y-110429818D01*
X190122554Y-110334587D01*
X190003669Y-110273883D01*
X189834347Y-110240013D01*
X189575412Y-110225284D01*
X189187683Y-110222002D01*
X189171849Y-110222000D01*
X188321334Y-110222000D01*
X188321334Y-111739952D01*
X188319141Y-112299652D01*
X188311279Y-112713937D01*
X188295825Y-113006686D01*
X188270853Y-113201776D01*
X188234440Y-113323084D01*
X188188286Y-113390952D01*
X188077588Y-113494816D01*
X188040119Y-113521425D01*
X187965036Y-113482777D01*
X187876834Y-113432551D01*
X187825411Y-113388051D01*
X187787357Y-113307650D01*
X187760702Y-113168320D01*
X187743479Y-112947033D01*
X187733717Y-112620760D01*
X187729449Y-112166473D01*
X187728667Y-111699459D01*
X187727584Y-111065650D01*
X187734549Y-110581384D01*
X187764880Y-110227029D01*
X187833893Y-109982951D01*
X187956908Y-109829515D01*
X188149242Y-109747090D01*
X188426214Y-109716041D01*
X188803140Y-109716736D01*
G37*
X188803140Y-109716736D02*
X189266114Y-109728877D01*
X190452315Y-109756333D01*
X190694619Y-110027756D01*
X190932164Y-110402436D01*
X191008839Y-110795297D01*
X190926422Y-111180135D01*
X190686686Y-111530748D01*
X190586465Y-111623567D01*
X190460653Y-111720208D01*
X190334280Y-111780700D01*
X190166747Y-111811943D01*
X189917454Y-111820836D01*
X189545801Y-111814281D01*
X189475614Y-111812353D01*
X189088389Y-111800110D01*
X188839744Y-111783896D01*
X188698986Y-111755278D01*
X188635421Y-111705825D01*
X188618355Y-111627104D01*
X188617667Y-111576667D01*
X188624662Y-111477564D01*
X188666931Y-111413323D01*
X188776400Y-111373682D01*
X188984995Y-111348380D01*
X189324642Y-111327155D01*
X189407933Y-111322667D01*
X189796571Y-111296205D01*
X190051566Y-111261489D01*
X190208605Y-111210413D01*
X190303378Y-111134875D01*
X190318100Y-111115984D01*
X190428531Y-110861362D01*
X190374191Y-110613944D01*
X190230182Y-110429818D01*
X190122554Y-110334587D01*
X190003669Y-110273883D01*
X189834347Y-110240013D01*
X189575412Y-110225284D01*
X189187683Y-110222002D01*
X189171849Y-110222000D01*
X188321334Y-110222000D01*
X188321334Y-111739952D01*
X188319141Y-112299652D01*
X188311279Y-112713937D01*
X188295825Y-113006686D01*
X188270853Y-113201776D01*
X188234440Y-113323084D01*
X188188286Y-113390952D01*
X188077588Y-113494816D01*
X188040119Y-113521425D01*
X187965036Y-113482777D01*
X187876834Y-113432551D01*
X187825411Y-113388051D01*
X187787357Y-113307650D01*
X187760702Y-113168320D01*
X187743479Y-112947033D01*
X187733717Y-112620760D01*
X187729449Y-112166473D01*
X187728667Y-111699459D01*
X187727584Y-111065650D01*
X187734549Y-110581384D01*
X187764880Y-110227029D01*
X187833893Y-109982951D01*
X187956908Y-109829515D01*
X188149242Y-109747090D01*
X188426214Y-109716041D01*
X188803140Y-109716736D01*
G36*
X177842609Y-112525433D02*
G01*
X178159457Y-112541461D01*
X178343206Y-112566804D01*
X178430032Y-112615372D01*
X178456107Y-112701081D01*
X178457667Y-112762000D01*
X178447032Y-112875702D01*
X178389850Y-112941652D01*
X178248208Y-112975905D01*
X177984189Y-112994521D01*
X177899492Y-112998398D01*
X177561102Y-113001339D01*
X177352488Y-112969444D01*
X177236594Y-112896881D01*
X177233853Y-112893643D01*
X177166879Y-112725188D01*
X177176970Y-112632344D01*
X177237525Y-112562799D01*
X177374894Y-112526915D01*
X177624239Y-112519043D01*
X177842609Y-112525433D01*
G37*
X177842609Y-112525433D02*
X178159457Y-112541461D01*
X178343206Y-112566804D01*
X178430032Y-112615372D01*
X178456107Y-112701081D01*
X178457667Y-112762000D01*
X178447032Y-112875702D01*
X178389850Y-112941652D01*
X178248208Y-112975905D01*
X177984189Y-112994521D01*
X177899492Y-112998398D01*
X177561102Y-113001339D01*
X177352488Y-112969444D01*
X177236594Y-112896881D01*
X177233853Y-112893643D01*
X177166879Y-112725188D01*
X177176970Y-112632344D01*
X177237525Y-112562799D01*
X177374894Y-112526915D01*
X177624239Y-112519043D01*
X177842609Y-112525433D01*
G36*
X167275844Y-107590084D02*
G01*
X167721796Y-107722167D01*
X168621315Y-108090065D01*
X169412056Y-108587289D01*
X170090785Y-109210745D01*
X170654268Y-109957341D01*
X171099271Y-110823986D01*
X171180441Y-111029098D01*
X171281097Y-111326670D01*
X171343097Y-111570740D01*
X171354002Y-111711597D01*
X171352442Y-111716540D01*
X171229173Y-111808208D01*
X170967602Y-111809591D01*
X170572440Y-111721079D01*
X170282585Y-111628253D01*
X169377749Y-111231009D01*
X168584536Y-110706898D01*
X167906140Y-110059117D01*
X167345759Y-109290867D01*
X166906586Y-108405347D01*
X166811657Y-108153499D01*
X166779855Y-108050080D01*
X167266364Y-108050080D01*
X167284364Y-108138424D01*
X167367675Y-108340507D01*
X167501036Y-108621130D01*
X167588102Y-108792186D01*
X168048546Y-109531894D01*
X168601971Y-110146404D01*
X169267770Y-110653080D01*
X170065334Y-111069290D01*
X170189331Y-111121625D01*
X170500176Y-111245809D01*
X170682817Y-111302846D01*
X170764279Y-111293243D01*
X170771586Y-111217509D01*
X170749101Y-111132167D01*
X170532510Y-110619578D01*
X170199167Y-110078540D01*
X169784918Y-109554009D01*
X169325608Y-109090938D01*
X168857082Y-108734281D01*
X168817975Y-108710309D01*
X168522561Y-108545915D01*
X168192478Y-108382309D01*
X167864741Y-108235239D01*
X167576364Y-108120456D01*
X167364359Y-108053709D01*
X167266364Y-108050080D01*
X166779855Y-108050080D01*
X166718734Y-107851317D01*
X166702738Y-107651446D01*
X166779621Y-107546323D01*
X166965339Y-107528390D01*
X167275844Y-107590084D01*
G37*
X167275844Y-107590084D02*
X167721796Y-107722167D01*
X168621315Y-108090065D01*
X169412056Y-108587289D01*
X170090785Y-109210745D01*
X170654268Y-109957341D01*
X171099271Y-110823986D01*
X171180441Y-111029098D01*
X171281097Y-111326670D01*
X171343097Y-111570740D01*
X171354002Y-111711597D01*
X171352442Y-111716540D01*
X171229173Y-111808208D01*
X170967602Y-111809591D01*
X170572440Y-111721079D01*
X170282585Y-111628253D01*
X169377749Y-111231009D01*
X168584536Y-110706898D01*
X167906140Y-110059117D01*
X167345759Y-109290867D01*
X166906586Y-108405347D01*
X166811657Y-108153499D01*
X166779855Y-108050080D01*
X167266364Y-108050080D01*
X167284364Y-108138424D01*
X167367675Y-108340507D01*
X167501036Y-108621130D01*
X167588102Y-108792186D01*
X168048546Y-109531894D01*
X168601971Y-110146404D01*
X169267770Y-110653080D01*
X170065334Y-111069290D01*
X170189331Y-111121625D01*
X170500176Y-111245809D01*
X170682817Y-111302846D01*
X170764279Y-111293243D01*
X170771586Y-111217509D01*
X170749101Y-111132167D01*
X170532510Y-110619578D01*
X170199167Y-110078540D01*
X169784918Y-109554009D01*
X169325608Y-109090938D01*
X168857082Y-108734281D01*
X168817975Y-108710309D01*
X168522561Y-108545915D01*
X168192478Y-108382309D01*
X167864741Y-108235239D01*
X167576364Y-108120456D01*
X167364359Y-108053709D01*
X167266364Y-108050080D01*
X166779855Y-108050080D01*
X166718734Y-107851317D01*
X166702738Y-107651446D01*
X166779621Y-107546323D01*
X166965339Y-107528390D01*
X167275844Y-107590084D01*
G36*
X176757485Y-107005845D02*
G01*
X176674519Y-107850486D01*
X176450895Y-108705090D01*
X176152504Y-109413149D01*
X175820826Y-109920611D01*
X175362464Y-110412940D01*
X174818564Y-110852467D01*
X174230269Y-111201526D01*
X174165251Y-111232486D01*
X173673361Y-111438675D01*
X173181765Y-111605352D01*
X172717214Y-111727503D01*
X172306454Y-111800116D01*
X171976235Y-111818178D01*
X171753305Y-111776676D01*
X171671168Y-111699887D01*
X171650864Y-111523871D01*
X171663934Y-111223496D01*
X171690327Y-110982034D01*
X172150000Y-110982034D01*
X172150000Y-111384217D01*
X172589298Y-111304372D01*
X172914041Y-111228522D01*
X173297008Y-111115427D01*
X173565510Y-111022433D01*
X174108807Y-110776487D01*
X174623824Y-110467815D01*
X175059127Y-110130071D01*
X175288051Y-109895355D01*
X175582053Y-109464888D01*
X175856807Y-108923041D01*
X176092674Y-108323301D01*
X176270012Y-107719158D01*
X176369180Y-107164101D01*
X176383334Y-106912552D01*
X176346257Y-106802242D01*
X176221445Y-106756668D01*
X175988522Y-106775729D01*
X175627113Y-106859326D01*
X175451731Y-106908029D01*
X174600790Y-107221362D01*
X173874571Y-107636996D01*
X173279660Y-108150323D01*
X172833626Y-108738334D01*
X172620552Y-109159815D01*
X172427749Y-109661835D01*
X172273342Y-110184910D01*
X172175456Y-110669554D01*
X172150000Y-110982034D01*
X171690327Y-110982034D01*
X171705912Y-110839455D01*
X171772333Y-110412441D01*
X171858734Y-109983147D01*
X171860249Y-109976505D01*
X172117922Y-109184613D01*
X172505965Y-108454115D01*
X173005030Y-107811166D01*
X173595766Y-107281923D01*
X174075964Y-106981259D01*
X174693485Y-106702065D01*
X175341928Y-106484413D01*
X175960164Y-106346767D01*
X176298667Y-106309853D01*
X176764334Y-106285000D01*
X176757485Y-107005845D01*
G37*
X176757485Y-107005845D02*
X176674519Y-107850486D01*
X176450895Y-108705090D01*
X176152504Y-109413149D01*
X175820826Y-109920611D01*
X175362464Y-110412940D01*
X174818564Y-110852467D01*
X174230269Y-111201526D01*
X174165251Y-111232486D01*
X173673361Y-111438675D01*
X173181765Y-111605352D01*
X172717214Y-111727503D01*
X172306454Y-111800116D01*
X171976235Y-111818178D01*
X171753305Y-111776676D01*
X171671168Y-111699887D01*
X171650864Y-111523871D01*
X171663934Y-111223496D01*
X171690327Y-110982034D01*
X172150000Y-110982034D01*
X172150000Y-111384217D01*
X172589298Y-111304372D01*
X172914041Y-111228522D01*
X173297008Y-111115427D01*
X173565510Y-111022433D01*
X174108807Y-110776487D01*
X174623824Y-110467815D01*
X175059127Y-110130071D01*
X175288051Y-109895355D01*
X175582053Y-109464888D01*
X175856807Y-108923041D01*
X176092674Y-108323301D01*
X176270012Y-107719158D01*
X176369180Y-107164101D01*
X176383334Y-106912552D01*
X176346257Y-106802242D01*
X176221445Y-106756668D01*
X175988522Y-106775729D01*
X175627113Y-106859326D01*
X175451731Y-106908029D01*
X174600790Y-107221362D01*
X173874571Y-107636996D01*
X173279660Y-108150323D01*
X172833626Y-108738334D01*
X172620552Y-109159815D01*
X172427749Y-109661835D01*
X172273342Y-110184910D01*
X172175456Y-110669554D01*
X172150000Y-110982034D01*
X171690327Y-110982034D01*
X171705912Y-110839455D01*
X171772333Y-110412441D01*
X171858734Y-109983147D01*
X171860249Y-109976505D01*
X172117922Y-109184613D01*
X172505965Y-108454115D01*
X173005030Y-107811166D01*
X173595766Y-107281923D01*
X174075964Y-106981259D01*
X174693485Y-106702065D01*
X175341928Y-106484413D01*
X175960164Y-106346767D01*
X176298667Y-106309853D01*
X176764334Y-106285000D01*
X176757485Y-107005845D01*
G36*
X185078894Y-109728347D02*
G01*
X185472484Y-109733372D01*
X186035101Y-109742379D01*
X186451010Y-109752812D01*
X186742835Y-109767169D01*
X186933197Y-109787948D01*
X187044719Y-109817648D01*
X187100023Y-109858765D01*
X187121731Y-109913799D01*
X187122067Y-109915521D01*
X187095295Y-110082565D01*
X187038497Y-110147058D01*
X186919859Y-110170658D01*
X186661714Y-110191186D01*
X186293881Y-110207274D01*
X185846177Y-110217555D01*
X185431867Y-110220703D01*
X184862914Y-110218272D01*
X184442351Y-110208844D01*
X184149323Y-110190909D01*
X183962977Y-110162958D01*
X183862458Y-110123483D01*
X183842906Y-110105731D01*
X183786183Y-109934018D01*
X183799953Y-109849937D01*
X183834503Y-109801350D01*
X183910372Y-109766192D01*
X184050152Y-109742887D01*
X184276437Y-109729861D01*
X184611820Y-109725539D01*
X185078894Y-109728347D01*
G37*
X185078894Y-109728347D02*
X185472484Y-109733372D01*
X186035101Y-109742379D01*
X186451010Y-109752812D01*
X186742835Y-109767169D01*
X186933197Y-109787948D01*
X187044719Y-109817648D01*
X187100023Y-109858765D01*
X187121731Y-109913799D01*
X187122067Y-109915521D01*
X187095295Y-110082565D01*
X187038497Y-110147058D01*
X186919859Y-110170658D01*
X186661714Y-110191186D01*
X186293881Y-110207274D01*
X185846177Y-110217555D01*
X185431867Y-110220703D01*
X184862914Y-110218272D01*
X184442351Y-110208844D01*
X184149323Y-110190909D01*
X183962977Y-110162958D01*
X183862458Y-110123483D01*
X183842906Y-110105731D01*
X183786183Y-109934018D01*
X183799953Y-109849937D01*
X183834503Y-109801350D01*
X183910372Y-109766192D01*
X184050152Y-109742887D01*
X184276437Y-109729861D01*
X184611820Y-109725539D01*
X185078894Y-109728347D01*
D12*
%TO.C,U2*%
X156879100Y-62128900D02*
X161120900Y-62128900D01*
X161120900Y-56871100D02*
X156879100Y-56871100D01*
D16*
X154950000Y-57600000D02*
G75*
G03*
X154950000Y-57600000I-200000J0D01*
G01*
D12*
%TO.C,U1*%
X144120900Y-79871100D02*
X139879100Y-79871100D01*
X139879100Y-85128900D02*
X144120900Y-85128900D01*
%TO.C,U8*%
X169620900Y-78371100D02*
X165379100Y-78371100D01*
X165379100Y-83628900D02*
X169620900Y-83628900D01*
D14*
%TO.C,U4*%
X212750000Y-94000000D02*
X206250000Y-94000000D01*
X212750000Y-76000000D02*
X212750000Y-94000000D01*
X206250000Y-76000000D02*
X212750000Y-76000000D01*
X187250000Y-94000000D02*
X187900000Y-94000000D01*
X187250000Y-91550000D02*
X187250000Y-94000000D01*
X187250000Y-76000000D02*
X187250000Y-78450000D01*
X187900000Y-76000000D02*
X187250000Y-76000000D01*
D13*
X205350000Y-75000000D02*
G75*
G03*
X205350000Y-75000000I-100000J0D01*
G01*
D12*
%TO.C,D3*%
X160840000Y-73825000D02*
X160840000Y-75235000D01*
X163160000Y-75235000D02*
X163160000Y-72500000D01*
X163170000Y-75235000D02*
X162500000Y-75235000D01*
X161500000Y-75235000D02*
X160840000Y-75235000D01*
%TO.C,D4*%
X178825000Y-65160000D02*
X180235000Y-65160000D01*
X180235000Y-62840000D02*
X177500000Y-62840000D01*
X180235000Y-62830000D02*
X180235000Y-63500000D01*
X180235000Y-64500000D02*
X180235000Y-65160000D01*
%TO.C,D6*%
X158160000Y-54175000D02*
X158160000Y-52765000D01*
X155840000Y-52765000D02*
X155840000Y-55500000D01*
X155830000Y-52765000D02*
X156500000Y-52765000D01*
X157500000Y-52765000D02*
X158160000Y-52765000D01*
%TO.C,D11*%
X152340000Y-52825000D02*
X152340000Y-54235000D01*
X154660000Y-54235000D02*
X154660000Y-51500000D01*
X154670000Y-54235000D02*
X154000000Y-54235000D01*
X153000000Y-54235000D02*
X152340000Y-54235000D01*
%TO.C,D2*%
X166660000Y-75175000D02*
X166660000Y-73765000D01*
X164340000Y-73765000D02*
X164340000Y-76500000D01*
X164330000Y-73765000D02*
X165000000Y-73765000D01*
X166000000Y-73765000D02*
X166660000Y-73765000D01*
%TO.C,D5*%
X177825000Y-88160000D02*
X179235000Y-88160000D01*
X179235000Y-85840000D02*
X176500000Y-85840000D01*
X179235000Y-85830000D02*
X179235000Y-86500000D01*
X179235000Y-87500000D02*
X179235000Y-88160000D01*
%TO.C,R18*%
X209290000Y-98741422D02*
X209290000Y-99258578D01*
X210710000Y-98741422D02*
X210710000Y-99258578D01*
%TO.C,R19*%
X203710000Y-101241422D02*
X203710000Y-101758578D01*
X202290000Y-101241422D02*
X202290000Y-101758578D01*
%TO.C,D1*%
X115750000Y-102500000D02*
X111450000Y-102500000D01*
X111450000Y-102500000D02*
X111450000Y-104500000D01*
X111450000Y-104500000D02*
X115750000Y-104500000D01*
%TO.C,D7*%
X115750000Y-105500000D02*
X111450000Y-105500000D01*
X111450000Y-105500000D02*
X111450000Y-107500000D01*
X111450000Y-107500000D02*
X115750000Y-107500000D01*
%TO.C,SB1*%
X124900000Y-61200000D02*
X124900000Y-61800000D01*
X122800000Y-60500000D02*
X124200000Y-60500000D01*
X122100000Y-61800000D02*
X122100000Y-61200000D01*
X124200000Y-62500000D02*
X122800000Y-62500000D01*
X122800000Y-62500000D02*
G75*
G02*
X122100000Y-61800000I0J700000D01*
G01*
X122100000Y-61200000D02*
G75*
G02*
X122800000Y-60500000I700000J0D01*
G01*
X124200000Y-60500000D02*
G75*
G02*
X124900000Y-61200000I0J-700000D01*
G01*
X124900000Y-61800000D02*
G75*
G02*
X124200000Y-62500000I-700000J0D01*
G01*
%TO.C,TPP2*%
X133750000Y-106000000D02*
G75*
G03*
X133750000Y-106000000I-1750000J0D01*
G01*
%TO.C,TPP4*%
X141300000Y-99300000D02*
X145700000Y-99300000D01*
X145700000Y-99300000D02*
X145700000Y-103700000D01*
X145700000Y-103700000D02*
X141300000Y-103700000D01*
X141300000Y-103700000D02*
X141300000Y-99300000D01*
%TO.C,POT1*%
X153379600Y-94027300D02*
X153379600Y-93519140D01*
X153379600Y-88972700D02*
X149620400Y-88972700D01*
X149620400Y-88972700D02*
X149620400Y-90489560D01*
X149620400Y-94027300D02*
X153379600Y-94027300D01*
X153379600Y-91980860D02*
X153379600Y-91019140D01*
X153379600Y-89480860D02*
X153379600Y-88972700D01*
X149620400Y-92510440D02*
X149620400Y-94027300D01*
X155532999Y-92750000D02*
G75*
G03*
X155532999Y-92750000I-76200J0D01*
G01*
%TO.C,SB2*%
X107750000Y-80300000D02*
X107750000Y-79700000D01*
X109850000Y-81000000D02*
X108450000Y-81000000D01*
X110550000Y-79700000D02*
X110550000Y-80300000D01*
X108450000Y-79000000D02*
X109850000Y-79000000D01*
X109850000Y-79000000D02*
G75*
G02*
X110550000Y-79700000I0J-700000D01*
G01*
X110550000Y-80300000D02*
G75*
G02*
X109850000Y-81000000I-700000J0D01*
G01*
X108450000Y-81000000D02*
G75*
G02*
X107750000Y-80300000I0J700000D01*
G01*
X107750000Y-79700000D02*
G75*
G02*
X108450000Y-79000000I700000J0D01*
G01*
D13*
%TO.C,U7*%
X149655000Y-100505000D02*
G75*
G03*
X149655000Y-100505000I-100000J0D01*
G01*
D14*
X152000000Y-100480000D02*
X156000000Y-100480000D01*
X152000000Y-105520000D02*
X156000000Y-105520000D01*
%TO.C,U9*%
X194000000Y-99480000D02*
X190000000Y-99480000D01*
X194000000Y-104520000D02*
X190000000Y-104520000D01*
D13*
X196545000Y-104495000D02*
G75*
G03*
X196545000Y-104495000I-100000J0D01*
G01*
D17*
%TO.C,B1*%
X111000000Y-55500000D02*
G75*
G03*
X111000000Y-55500000I-5500000J0D01*
G01*
%TO.C,B2*%
X111000000Y-114500000D02*
G75*
G03*
X111000000Y-114500000I-5500000J0D01*
G01*
%TO.C,B3*%
X213000000Y-114500000D02*
G75*
G03*
X213000000Y-114500000I-5500000J0D01*
G01*
%TO.C,B4*%
X213000000Y-55500000D02*
G75*
G03*
X213000000Y-55500000I-5500000J0D01*
G01*
D13*
%TO.C,U3*%
X124900000Y-59720000D02*
G75*
G03*
X124900000Y-59720000I-100000J0D01*
G01*
D14*
X122355000Y-59745000D02*
X118355000Y-59745000D01*
X122355000Y-54705000D02*
X118355000Y-54705000D01*
D12*
%TO.C,TP6*%
X130250000Y-62500000D02*
G75*
G03*
X130250000Y-62500000I-1750000J0D01*
G01*
%TO.C,TPP6*%
X160250000Y-91500000D02*
G75*
G03*
X160250000Y-91500000I-1750000J0D01*
G01*
%TO.C,TPP10*%
X146250000Y-91500000D02*
G75*
G03*
X146250000Y-91500000I-1750000J0D01*
G01*
%TO.C,M1*%
X196860000Y-113130000D02*
X198190000Y-113130000D01*
X196860000Y-114460000D02*
X196860000Y-113130000D01*
X196860000Y-115730000D02*
X199520000Y-115730000D01*
X199520000Y-115730000D02*
X199520000Y-118330000D01*
X196860000Y-115730000D02*
X196860000Y-118330000D01*
X196860000Y-118330000D02*
X199520000Y-118330000D01*
%TO.C,T1*%
X182902100Y-114726700D02*
G75*
G03*
X182902100Y-114726700I-127000J0D01*
G01*
X184629300Y-116451360D02*
X184629300Y-115869700D01*
X184629300Y-115869700D02*
X183612110Y-115869700D01*
X184629300Y-118130300D02*
X184629300Y-117548640D01*
X183612110Y-118130300D02*
X184629300Y-118130300D01*
X183130700Y-116898641D02*
X183130700Y-117101359D01*
D17*
%TO.C,U10*%
G36*
X140134599Y-58959499D02*
G01*
X140134599Y-59340499D01*
X139880599Y-59340499D01*
X139880599Y-58959499D01*
X140134599Y-58959499D01*
G37*
X140134599Y-58959499D02*
X140134599Y-59340499D01*
X139880599Y-59340499D01*
X139880599Y-58959499D01*
X140134599Y-58959499D01*
D12*
X138374900Y-56039861D02*
X138374900Y-55820300D01*
X133625100Y-60960139D02*
X133625100Y-61179700D01*
X133625100Y-55820300D02*
X133625100Y-56039859D01*
X138374900Y-55820300D02*
X133625100Y-55820300D01*
X138374900Y-61179700D02*
X138374900Y-60960141D01*
X133625100Y-61179700D02*
X138374900Y-61179700D01*
D18*
%TO.C,U11*%
X151195200Y-69450600D02*
X149950600Y-69450600D01*
X151804800Y-69450600D02*
X151195200Y-69450600D01*
X153049400Y-69450600D02*
X151804800Y-69450600D01*
X149950600Y-72549400D02*
X153049400Y-72549400D01*
X154725800Y-69882400D02*
X155741800Y-69882400D01*
X151804800Y-69450600D02*
G75*
G02*
X151195200Y-69450600I-304800J0D01*
G01*
D12*
%TO.C,C1*%
X197265000Y-102738748D02*
X197265000Y-103261252D01*
X198735000Y-102738748D02*
X198735000Y-103261252D01*
%TO.C,C2*%
X138238748Y-87235000D02*
X138761252Y-87235000D01*
X138238748Y-85765000D02*
X138761252Y-85765000D01*
%TO.C,C3*%
X138176748Y-89735000D02*
X138699252Y-89735000D01*
X138176748Y-88265000D02*
X138699252Y-88265000D01*
%TO.C,C4*%
X115735000Y-59738748D02*
X115735000Y-60261252D01*
X114265000Y-59738748D02*
X114265000Y-60261252D01*
%TO.C,C5*%
X145238748Y-74765000D02*
X145761252Y-74765000D01*
X145238748Y-76235000D02*
X145761252Y-76235000D01*
%TO.C,C6*%
X145238748Y-77265000D02*
X145761252Y-77265000D01*
X145238748Y-78735000D02*
X145761252Y-78735000D01*
%TO.C,C7*%
X125765000Y-56738748D02*
X125765000Y-57261252D01*
X127235000Y-56738748D02*
X127235000Y-57261252D01*
%TO.C,C8*%
X175761252Y-62235000D02*
X175238748Y-62235000D01*
X175761252Y-60765000D02*
X175238748Y-60765000D01*
%TO.C,C9*%
X171238748Y-60765000D02*
X171761252Y-60765000D01*
X171238748Y-62235000D02*
X171761252Y-62235000D01*
%TO.C,C10*%
X162238748Y-53735000D02*
X162761252Y-53735000D01*
X162238748Y-52265000D02*
X162761252Y-52265000D01*
%TO.C,C11*%
X155238748Y-65265000D02*
X155761252Y-65265000D01*
X155238748Y-66735000D02*
X155761252Y-66735000D01*
%TO.C,C12*%
X162238748Y-56235000D02*
X162761252Y-56235000D01*
X162238748Y-54765000D02*
X162761252Y-54765000D01*
%TO.C,C13*%
X155238748Y-64235000D02*
X155761252Y-64235000D01*
X155238748Y-62765000D02*
X155761252Y-62765000D01*
%TO.C,C14*%
X133015000Y-113578748D02*
X133015000Y-114101252D01*
X131545000Y-113578748D02*
X131545000Y-114101252D01*
%TO.C,C15*%
X144735000Y-116761252D02*
X144735000Y-116238748D01*
X143265000Y-116761252D02*
X143265000Y-116238748D01*
%TO.C,C16*%
X121985000Y-92038748D02*
X121985000Y-92561252D01*
X120515000Y-92038748D02*
X120515000Y-92561252D01*
%TO.C,C17*%
X131065000Y-94288748D02*
X131065000Y-94811252D01*
X132535000Y-94288748D02*
X132535000Y-94811252D01*
%TO.C,C18*%
X113238748Y-54235000D02*
X113761252Y-54235000D01*
X113238748Y-52765000D02*
X113761252Y-52765000D01*
%TO.C,C19*%
X184238748Y-61235000D02*
X184761252Y-61235000D01*
X184238748Y-59765000D02*
X184761252Y-59765000D01*
%TO.C,C20*%
X176265000Y-82238748D02*
X176265000Y-82761252D01*
X177735000Y-82238748D02*
X177735000Y-82761252D01*
%TO.C,C21*%
X180235000Y-82238748D02*
X180235000Y-82761252D01*
X178765000Y-82238748D02*
X178765000Y-82761252D01*
%TO.C,C22*%
X160735000Y-103738748D02*
X160735000Y-104261252D01*
X159265000Y-103738748D02*
X159265000Y-104261252D01*
%TO.C,C23*%
X152211252Y-106265000D02*
X151688748Y-106265000D01*
X152211252Y-107735000D02*
X151688748Y-107735000D01*
%TO.C,C24*%
X170738748Y-73235000D02*
X171261252Y-73235000D01*
X170738748Y-71765000D02*
X171261252Y-71765000D01*
%TO.C,C25*%
X163738748Y-88735000D02*
X164261252Y-88735000D01*
X163738748Y-87265000D02*
X164261252Y-87265000D01*
%TO.C,C26*%
X170738748Y-75265000D02*
X171261252Y-75265000D01*
X170738748Y-76735000D02*
X171261252Y-76735000D01*
%TO.C,C27*%
X163738748Y-84765000D02*
X164261252Y-84765000D01*
X163738748Y-86235000D02*
X164261252Y-86235000D01*
%TO.C,C28*%
X179761252Y-62235000D02*
X179238748Y-62235000D01*
X179761252Y-60765000D02*
X179238748Y-60765000D01*
%TO.C,C29*%
X182765000Y-71711252D02*
X182765000Y-71188748D01*
X184235000Y-71711252D02*
X184235000Y-71188748D01*
%TO.C,C30*%
X145238748Y-65765000D02*
X145761252Y-65765000D01*
X145238748Y-67235000D02*
X145761252Y-67235000D01*
%TO.C,C31*%
X133738748Y-52265000D02*
X134261252Y-52265000D01*
X133738748Y-53735000D02*
X134261252Y-53735000D01*
%TO.C,C32*%
X149738748Y-67235000D02*
X150261252Y-67235000D01*
X149738748Y-65765000D02*
X150261252Y-65765000D01*
%TO.C,R1*%
X123727064Y-116235000D02*
X123272936Y-116235000D01*
X123727064Y-114765000D02*
X123272936Y-114765000D01*
%TO.C,R2*%
X137265000Y-70227064D02*
X137265000Y-69772936D01*
X138735000Y-70227064D02*
X138735000Y-69772936D01*
%TO.C,R3*%
X113772936Y-100735000D02*
X114227064Y-100735000D01*
X113772936Y-99265000D02*
X114227064Y-99265000D01*
%TO.C,R4*%
X135227064Y-81265000D02*
X134772936Y-81265000D01*
X135227064Y-82735000D02*
X134772936Y-82735000D01*
%TO.C,R5*%
X123272936Y-117265000D02*
X123727064Y-117265000D01*
X123272936Y-118735000D02*
X123727064Y-118735000D01*
%TO.C,R6*%
X151235000Y-52772936D02*
X151235000Y-53227064D01*
X149765000Y-52772936D02*
X149765000Y-53227064D01*
%TO.C,R7*%
X149772936Y-59235000D02*
X150227064Y-59235000D01*
X149772936Y-57765000D02*
X150227064Y-57765000D01*
%TO.C,R8*%
X177210936Y-57265000D02*
X177665064Y-57265000D01*
X177210936Y-58735000D02*
X177665064Y-58735000D01*
%TO.C,R9*%
X173272936Y-58735000D02*
X173727064Y-58735000D01*
X173272936Y-57265000D02*
X173727064Y-57265000D01*
%TO.C,R10*%
X156765000Y-69727064D02*
X156765000Y-69272936D01*
X158235000Y-69727064D02*
X158235000Y-69272936D01*
%TO.C,R11*%
X113272936Y-57235000D02*
X113727064Y-57235000D01*
X113272936Y-55765000D02*
X113727064Y-55765000D01*
%TO.C,R12*%
X148727064Y-85235000D02*
X148272936Y-85235000D01*
X148727064Y-83765000D02*
X148272936Y-83765000D01*
%TO.C,R13*%
X151635000Y-61772936D02*
X151635000Y-62227064D01*
X150165000Y-61772936D02*
X150165000Y-62227064D01*
%TO.C,R14*%
X114227064Y-110235000D02*
X113772936Y-110235000D01*
X114227064Y-108765000D02*
X113772936Y-108765000D01*
%TO.C,R15*%
X197727064Y-57765000D02*
X197272936Y-57765000D01*
X197727064Y-59235000D02*
X197272936Y-59235000D01*
%TO.C,R16*%
X158272936Y-79735000D02*
X158727064Y-79735000D01*
X158272936Y-78265000D02*
X158727064Y-78265000D01*
%TO.C,R17*%
X184727064Y-63735000D02*
X184272936Y-63735000D01*
X184727064Y-62265000D02*
X184272936Y-62265000D01*
%TO.C,R20*%
X190772936Y-55735000D02*
X191227064Y-55735000D01*
X190772936Y-54265000D02*
X191227064Y-54265000D01*
%TO.C,R21*%
X181765000Y-87272936D02*
X181765000Y-87727064D01*
X183235000Y-87272936D02*
X183235000Y-87727064D01*
%TO.C,R22*%
X145735000Y-57727064D02*
X145735000Y-57272936D01*
X144265000Y-57727064D02*
X144265000Y-57272936D01*
%TO.C,R23*%
X167227064Y-63235000D02*
X166772936Y-63235000D01*
X167227064Y-61765000D02*
X166772936Y-61765000D01*
%TO.C,R24*%
X162272936Y-64235000D02*
X162727064Y-64235000D01*
X162272936Y-62765000D02*
X162727064Y-62765000D01*
%TO.C,R25*%
X165265000Y-59227064D02*
X165265000Y-58772936D01*
X166735000Y-59227064D02*
X166735000Y-58772936D01*
%TO.C,R26*%
X158727064Y-82735000D02*
X158272936Y-82735000D01*
X158727064Y-81265000D02*
X158272936Y-81265000D01*
%TO.C,R27*%
X157265000Y-74227064D02*
X157265000Y-73772936D01*
X158735000Y-74227064D02*
X158735000Y-73772936D01*
%TO.C,R28*%
X153765000Y-77227064D02*
X153765000Y-76772936D01*
X155235000Y-77227064D02*
X155235000Y-76772936D01*
%TO.C,R29*%
X173772936Y-83735000D02*
X174227064Y-83735000D01*
X173772936Y-82265000D02*
X174227064Y-82265000D01*
%TO.C,R30*%
X170772936Y-86235000D02*
X171227064Y-86235000D01*
X170772936Y-84765000D02*
X171227064Y-84765000D01*
%TO.C,R31*%
X174735000Y-80227064D02*
X174735000Y-79772936D01*
X173265000Y-80227064D02*
X173265000Y-79772936D01*
%TO.C,R32*%
X177735000Y-78727064D02*
X177735000Y-78272936D01*
X176265000Y-78727064D02*
X176265000Y-78272936D01*
%TO.C,R33*%
X178765000Y-78727064D02*
X178765000Y-78272936D01*
X180235000Y-78727064D02*
X180235000Y-78272936D01*
%TO.C,R34*%
X122227064Y-53735000D02*
X121772936Y-53735000D01*
X122227064Y-52265000D02*
X121772936Y-52265000D01*
%TO.C,R35*%
X126727064Y-52265000D02*
X126272936Y-52265000D01*
X126727064Y-53735000D02*
X126272936Y-53735000D01*
%TO.C,R36*%
X181272936Y-57265000D02*
X181727064Y-57265000D01*
X181272936Y-58735000D02*
X181727064Y-58735000D01*
%TO.C,R37*%
X182735000Y-78727064D02*
X182735000Y-78272936D01*
X181265000Y-78727064D02*
X181265000Y-78272936D01*
%TO.C,R39*%
X140922936Y-53935000D02*
X141377064Y-53935000D01*
X140922936Y-52465000D02*
X141377064Y-52465000D01*
%TO.C,R10P1*%
X162735000Y-69727064D02*
X162735000Y-69272936D01*
X161265000Y-69727064D02*
X161265000Y-69272936D01*
%TO.C,R2P1*%
X140765000Y-70227064D02*
X140765000Y-69772936D01*
X142235000Y-70227064D02*
X142235000Y-69772936D01*
%TO.C,R52S1*%
X169272936Y-58735000D02*
X169727064Y-58735000D01*
X169272936Y-57265000D02*
X169727064Y-57265000D01*
%TO.C,SB3*%
X150700000Y-79000000D02*
X149300000Y-79000000D01*
X148600000Y-78300000D02*
X148600000Y-77700000D01*
X149300000Y-77000000D02*
X150700000Y-77000000D01*
X151400000Y-77700000D02*
X151400000Y-78300000D01*
X149300000Y-79000000D02*
G75*
G02*
X148600000Y-78300000I0J700000D01*
G01*
X148600000Y-77700000D02*
G75*
G02*
X149300000Y-77000000I700000J0D01*
G01*
X150700000Y-77000000D02*
G75*
G02*
X151400000Y-77700000I0J-700000D01*
G01*
X151400000Y-78300000D02*
G75*
G02*
X150700000Y-79000000I-700000J0D01*
G01*
%TO.C,SB4*%
X132100000Y-86300000D02*
X132100000Y-85700000D01*
X134200000Y-87000000D02*
X132800000Y-87000000D01*
X134900000Y-85700000D02*
X134900000Y-86300000D01*
X132800000Y-85000000D02*
X134200000Y-85000000D01*
X132100000Y-85700000D02*
G75*
G02*
X132800000Y-85000000I700000J0D01*
G01*
X132800000Y-87000000D02*
G75*
G02*
X132100000Y-86300000I0J700000D01*
G01*
X134900000Y-86300000D02*
G75*
G02*
X134200000Y-87000000I-700000J0D01*
G01*
X134200000Y-85000000D02*
G75*
G02*
X134900000Y-85700000I0J-700000D01*
G01*
D14*
%TO.C,U6*%
X124400000Y-94070000D02*
X128400000Y-94070000D01*
X124400000Y-89030000D02*
X128400000Y-89030000D01*
D13*
X122055000Y-89055000D02*
G75*
G03*
X122055000Y-89055000I-100000J0D01*
G01*
D12*
%TO.C,R18*%
X126352936Y-96425000D02*
X126807064Y-96425000D01*
X126352936Y-97895000D02*
X126807064Y-97895000D01*
%TO.C,R19*%
X142085000Y-63077064D02*
X142085000Y-62622936D01*
X140615000Y-63077064D02*
X140615000Y-62622936D01*
%TO.C,U5*%
D11*
X138212571Y-104712617D02*
X138212571Y-105522671D01*
X138260222Y-105617971D01*
X138307872Y-105665621D01*
X138403172Y-105713271D01*
X138593773Y-105713271D01*
X138689073Y-105665621D01*
X138736724Y-105617971D01*
X138784374Y-105522671D01*
X138784374Y-104712617D01*
X139737378Y-104712617D02*
X139260876Y-104712617D01*
X139213225Y-105189119D01*
X139260876Y-105141469D01*
X139356176Y-105093819D01*
X139594427Y-105093819D01*
X139689727Y-105141469D01*
X139737378Y-105189119D01*
X139785028Y-105284420D01*
X139785028Y-105522671D01*
X139737378Y-105617971D01*
X139689727Y-105665621D01*
X139594427Y-105713271D01*
X139356176Y-105713271D01*
X139260876Y-105665621D01*
X139213225Y-105617971D01*
%TO.C,U2*%
X158238095Y-55452380D02*
X158238095Y-56261904D01*
X158285714Y-56357142D01*
X158333333Y-56404761D01*
X158428571Y-56452380D01*
X158619047Y-56452380D01*
X158714285Y-56404761D01*
X158761904Y-56357142D01*
X158809523Y-56261904D01*
X158809523Y-55452380D01*
X159238095Y-55547619D02*
X159285714Y-55500000D01*
X159380952Y-55452380D01*
X159619047Y-55452380D01*
X159714285Y-55500000D01*
X159761904Y-55547619D01*
X159809523Y-55642857D01*
X159809523Y-55738095D01*
X159761904Y-55880952D01*
X159190476Y-56452380D01*
X159809523Y-56452380D01*
X153450000Y-57352380D02*
X153450000Y-57590476D01*
X153211904Y-57495238D02*
X153450000Y-57590476D01*
X153688095Y-57495238D01*
X153307142Y-57780952D02*
X153450000Y-57590476D01*
X153592857Y-57780952D01*
%TO.C,U1*%
X140788095Y-78252380D02*
X140788095Y-79061904D01*
X140835714Y-79157142D01*
X140883333Y-79204761D01*
X140978571Y-79252380D01*
X141169047Y-79252380D01*
X141264285Y-79204761D01*
X141311904Y-79157142D01*
X141359523Y-79061904D01*
X141359523Y-78252380D01*
X142359523Y-79252380D02*
X141788095Y-79252380D01*
X142073809Y-79252380D02*
X142073809Y-78252380D01*
X141978571Y-78395238D01*
X141883333Y-78490476D01*
X141788095Y-78538095D01*
X137625000Y-80427380D02*
X137625000Y-80665476D01*
X137386904Y-80570238D02*
X137625000Y-80665476D01*
X137863095Y-80570238D01*
X137482142Y-80855952D02*
X137625000Y-80665476D01*
X137767857Y-80855952D01*
%TO.C,U8*%
X167238095Y-76952380D02*
X167238095Y-77761904D01*
X167285714Y-77857142D01*
X167333333Y-77904761D01*
X167428571Y-77952380D01*
X167619047Y-77952380D01*
X167714285Y-77904761D01*
X167761904Y-77857142D01*
X167809523Y-77761904D01*
X167809523Y-76952380D01*
X168428571Y-77380952D02*
X168333333Y-77333333D01*
X168285714Y-77285714D01*
X168238095Y-77190476D01*
X168238095Y-77142857D01*
X168285714Y-77047619D01*
X168333333Y-77000000D01*
X168428571Y-76952380D01*
X168619047Y-76952380D01*
X168714285Y-77000000D01*
X168761904Y-77047619D01*
X168809523Y-77142857D01*
X168809523Y-77190476D01*
X168761904Y-77285714D01*
X168714285Y-77333333D01*
X168619047Y-77380952D01*
X168428571Y-77380952D01*
X168333333Y-77428571D01*
X168285714Y-77476190D01*
X168238095Y-77571428D01*
X168238095Y-77761904D01*
X168285714Y-77857142D01*
X168333333Y-77904761D01*
X168428571Y-77952380D01*
X168619047Y-77952380D01*
X168714285Y-77904761D01*
X168761904Y-77857142D01*
X168809523Y-77761904D01*
X168809523Y-77571428D01*
X168761904Y-77476190D01*
X168714285Y-77428571D01*
X168619047Y-77380952D01*
X162875000Y-78802380D02*
X162875000Y-79040476D01*
X162636904Y-78945238D02*
X162875000Y-79040476D01*
X163113095Y-78945238D01*
X162732142Y-79230952D02*
X162875000Y-79040476D01*
X163017857Y-79230952D01*
%TO.C,U4*%
X184738095Y-75952380D02*
X184738095Y-76761904D01*
X184785714Y-76857142D01*
X184833333Y-76904761D01*
X184928571Y-76952380D01*
X185119047Y-76952380D01*
X185214285Y-76904761D01*
X185261904Y-76857142D01*
X185309523Y-76761904D01*
X185309523Y-75952380D01*
X186214285Y-76285714D02*
X186214285Y-76952380D01*
X185976190Y-75904761D02*
X185738095Y-76619047D01*
X186357142Y-76619047D01*
%TO.C,D3*%
X161761904Y-78402380D02*
X161761904Y-77402380D01*
X162000000Y-77402380D01*
X162142857Y-77450000D01*
X162238095Y-77545238D01*
X162285714Y-77640476D01*
X162333333Y-77830952D01*
X162333333Y-77973809D01*
X162285714Y-78164285D01*
X162238095Y-78259523D01*
X162142857Y-78354761D01*
X162000000Y-78402380D01*
X161761904Y-78402380D01*
X162666666Y-77402380D02*
X163285714Y-77402380D01*
X162952380Y-77783333D01*
X163095238Y-77783333D01*
X163190476Y-77830952D01*
X163238095Y-77878571D01*
X163285714Y-77973809D01*
X163285714Y-78211904D01*
X163238095Y-78307142D01*
X163190476Y-78354761D01*
X163095238Y-78402380D01*
X162809523Y-78402380D01*
X162714285Y-78354761D01*
X162666666Y-78307142D01*
D17*
X162916190Y-76140952D02*
X162416190Y-76140952D01*
X162916190Y-75855238D02*
X162630476Y-76069523D01*
X162416190Y-75855238D02*
X162701904Y-76140952D01*
%TO.C,D4*%
D11*
X178761904Y-66952380D02*
X178761904Y-65952380D01*
X179000000Y-65952380D01*
X179142857Y-66000000D01*
X179238095Y-66095238D01*
X179285714Y-66190476D01*
X179333333Y-66380952D01*
X179333333Y-66523809D01*
X179285714Y-66714285D01*
X179238095Y-66809523D01*
X179142857Y-66904761D01*
X179000000Y-66952380D01*
X178761904Y-66952380D01*
X180190476Y-66285714D02*
X180190476Y-66952380D01*
X179952380Y-65904761D02*
X179714285Y-66619047D01*
X180333333Y-66619047D01*
D17*
X180879047Y-63536190D02*
X180879047Y-63036190D01*
X181164761Y-63536190D02*
X180950476Y-63250476D01*
X181164761Y-63036190D02*
X180879047Y-63321904D01*
%TO.C,D6*%
D11*
X158861904Y-52152380D02*
X158861904Y-51152380D01*
X159100000Y-51152380D01*
X159242857Y-51200000D01*
X159338095Y-51295238D01*
X159385714Y-51390476D01*
X159433333Y-51580952D01*
X159433333Y-51723809D01*
X159385714Y-51914285D01*
X159338095Y-52009523D01*
X159242857Y-52104761D01*
X159100000Y-52152380D01*
X158861904Y-52152380D01*
X160290476Y-51152380D02*
X160100000Y-51152380D01*
X160004761Y-51200000D01*
X159957142Y-51247619D01*
X159861904Y-51390476D01*
X159814285Y-51580952D01*
X159814285Y-51961904D01*
X159861904Y-52057142D01*
X159909523Y-52104761D01*
X160004761Y-52152380D01*
X160195238Y-52152380D01*
X160290476Y-52104761D01*
X160338095Y-52057142D01*
X160385714Y-51961904D01*
X160385714Y-51723809D01*
X160338095Y-51628571D01*
X160290476Y-51580952D01*
X160195238Y-51533333D01*
X160004761Y-51533333D01*
X159909523Y-51580952D01*
X159861904Y-51628571D01*
X159814285Y-51723809D01*
D17*
X156536190Y-52120952D02*
X156036190Y-52120952D01*
X156536190Y-51835238D02*
X156250476Y-52049523D01*
X156036190Y-51835238D02*
X156321904Y-52120952D01*
%TO.C,D11*%
D11*
X151835714Y-57102380D02*
X151835714Y-56102380D01*
X152073809Y-56102380D01*
X152216666Y-56150000D01*
X152311904Y-56245238D01*
X152359523Y-56340476D01*
X152407142Y-56530952D01*
X152407142Y-56673809D01*
X152359523Y-56864285D01*
X152311904Y-56959523D01*
X152216666Y-57054761D01*
X152073809Y-57102380D01*
X151835714Y-57102380D01*
X153359523Y-57102380D02*
X152788095Y-57102380D01*
X153073809Y-57102380D02*
X153073809Y-56102380D01*
X152978571Y-56245238D01*
X152883333Y-56340476D01*
X152788095Y-56388095D01*
X154311904Y-57102380D02*
X153740476Y-57102380D01*
X154026190Y-57102380D02*
X154026190Y-56102380D01*
X153930952Y-56245238D01*
X153835714Y-56340476D01*
X153740476Y-56388095D01*
D17*
X154416190Y-55140952D02*
X153916190Y-55140952D01*
X154416190Y-54855238D02*
X154130476Y-55069523D01*
X153916190Y-54855238D02*
X154201904Y-55140952D01*
%TO.C,D2*%
D11*
X165261904Y-70452380D02*
X165261904Y-69452380D01*
X165500000Y-69452380D01*
X165642857Y-69500000D01*
X165738095Y-69595238D01*
X165785714Y-69690476D01*
X165833333Y-69880952D01*
X165833333Y-70023809D01*
X165785714Y-70214285D01*
X165738095Y-70309523D01*
X165642857Y-70404761D01*
X165500000Y-70452380D01*
X165261904Y-70452380D01*
X166214285Y-69547619D02*
X166261904Y-69500000D01*
X166357142Y-69452380D01*
X166595238Y-69452380D01*
X166690476Y-69500000D01*
X166738095Y-69547619D01*
X166785714Y-69642857D01*
X166785714Y-69738095D01*
X166738095Y-69880952D01*
X166166666Y-70452380D01*
X166785714Y-70452380D01*
D17*
X165036190Y-73120952D02*
X164536190Y-73120952D01*
X165036190Y-72835238D02*
X164750476Y-73049523D01*
X164536190Y-72835238D02*
X164821904Y-73120952D01*
%TO.C,D5*%
D11*
X177711904Y-90052380D02*
X177711904Y-89052380D01*
X177950000Y-89052380D01*
X178092857Y-89100000D01*
X178188095Y-89195238D01*
X178235714Y-89290476D01*
X178283333Y-89480952D01*
X178283333Y-89623809D01*
X178235714Y-89814285D01*
X178188095Y-89909523D01*
X178092857Y-90004761D01*
X177950000Y-90052380D01*
X177711904Y-90052380D01*
X179188095Y-89052380D02*
X178711904Y-89052380D01*
X178664285Y-89528571D01*
X178711904Y-89480952D01*
X178807142Y-89433333D01*
X179045238Y-89433333D01*
X179140476Y-89480952D01*
X179188095Y-89528571D01*
X179235714Y-89623809D01*
X179235714Y-89861904D01*
X179188095Y-89957142D01*
X179140476Y-90004761D01*
X179045238Y-90052380D01*
X178807142Y-90052380D01*
X178711904Y-90004761D01*
X178664285Y-89957142D01*
D17*
X179879047Y-86536190D02*
X179879047Y-86036190D01*
X180164761Y-86536190D02*
X179950476Y-86250476D01*
X180164761Y-86036190D02*
X179879047Y-86321904D01*
%TO.C,R18*%
D11*
X209307142Y-102402380D02*
X208973809Y-101926190D01*
X208735714Y-102402380D02*
X208735714Y-101402380D01*
X209116666Y-101402380D01*
X209211904Y-101450000D01*
X209259523Y-101497619D01*
X209307142Y-101592857D01*
X209307142Y-101735714D01*
X209259523Y-101830952D01*
X209211904Y-101878571D01*
X209116666Y-101926190D01*
X208735714Y-101926190D01*
X210259523Y-102402380D02*
X209688095Y-102402380D01*
X209973809Y-102402380D02*
X209973809Y-101402380D01*
X209878571Y-101545238D01*
X209783333Y-101640476D01*
X209688095Y-101688095D01*
X210830952Y-101830952D02*
X210735714Y-101783333D01*
X210688095Y-101735714D01*
X210640476Y-101640476D01*
X210640476Y-101592857D01*
X210688095Y-101497619D01*
X210735714Y-101450000D01*
X210830952Y-101402380D01*
X211021428Y-101402380D01*
X211116666Y-101450000D01*
X211164285Y-101497619D01*
X211211904Y-101592857D01*
X211211904Y-101640476D01*
X211164285Y-101735714D01*
X211116666Y-101783333D01*
X211021428Y-101830952D01*
X210830952Y-101830952D01*
X210735714Y-101878571D01*
X210688095Y-101926190D01*
X210640476Y-102021428D01*
X210640476Y-102211904D01*
X210688095Y-102307142D01*
X210735714Y-102354761D01*
X210830952Y-102402380D01*
X211021428Y-102402380D01*
X211116666Y-102354761D01*
X211164285Y-102307142D01*
X211211904Y-102211904D01*
X211211904Y-102021428D01*
X211164285Y-101926190D01*
X211116666Y-101878571D01*
X211021428Y-101830952D01*
%TO.C,R19*%
X202357142Y-98952380D02*
X202023809Y-98476190D01*
X201785714Y-98952380D02*
X201785714Y-97952380D01*
X202166666Y-97952380D01*
X202261904Y-98000000D01*
X202309523Y-98047619D01*
X202357142Y-98142857D01*
X202357142Y-98285714D01*
X202309523Y-98380952D01*
X202261904Y-98428571D01*
X202166666Y-98476190D01*
X201785714Y-98476190D01*
X203309523Y-98952380D02*
X202738095Y-98952380D01*
X203023809Y-98952380D02*
X203023809Y-97952380D01*
X202928571Y-98095238D01*
X202833333Y-98190476D01*
X202738095Y-98238095D01*
X203785714Y-98952380D02*
X203976190Y-98952380D01*
X204071428Y-98904761D01*
X204119047Y-98857142D01*
X204214285Y-98714285D01*
X204261904Y-98523809D01*
X204261904Y-98142857D01*
X204214285Y-98047619D01*
X204166666Y-98000000D01*
X204071428Y-97952380D01*
X203880952Y-97952380D01*
X203785714Y-98000000D01*
X203738095Y-98047619D01*
X203690476Y-98142857D01*
X203690476Y-98380952D01*
X203738095Y-98476190D01*
X203785714Y-98523809D01*
X203880952Y-98571428D01*
X204071428Y-98571428D01*
X204166666Y-98523809D01*
X204214285Y-98476190D01*
X204261904Y-98380952D01*
%TO.C,D1*%
X117261904Y-103952380D02*
X117261904Y-102952380D01*
X117500000Y-102952380D01*
X117642857Y-103000000D01*
X117738095Y-103095238D01*
X117785714Y-103190476D01*
X117833333Y-103380952D01*
X117833333Y-103523809D01*
X117785714Y-103714285D01*
X117738095Y-103809523D01*
X117642857Y-103904761D01*
X117500000Y-103952380D01*
X117261904Y-103952380D01*
X118785714Y-103952380D02*
X118214285Y-103952380D01*
X118500000Y-103952380D02*
X118500000Y-102952380D01*
X118404761Y-103095238D01*
X118309523Y-103190476D01*
X118214285Y-103238095D01*
%TO.C,D7*%
X108761904Y-106952380D02*
X108761904Y-105952380D01*
X109000000Y-105952380D01*
X109142857Y-106000000D01*
X109238095Y-106095238D01*
X109285714Y-106190476D01*
X109333333Y-106380952D01*
X109333333Y-106523809D01*
X109285714Y-106714285D01*
X109238095Y-106809523D01*
X109142857Y-106904761D01*
X109000000Y-106952380D01*
X108761904Y-106952380D01*
X109666666Y-105952380D02*
X110333333Y-105952380D01*
X109904761Y-106952380D01*
%TO.C,SB1*%
X121738095Y-63904761D02*
X121880952Y-63952380D01*
X122119047Y-63952380D01*
X122214285Y-63904761D01*
X122261904Y-63857142D01*
X122309523Y-63761904D01*
X122309523Y-63666666D01*
X122261904Y-63571428D01*
X122214285Y-63523809D01*
X122119047Y-63476190D01*
X121928571Y-63428571D01*
X121833333Y-63380952D01*
X121785714Y-63333333D01*
X121738095Y-63238095D01*
X121738095Y-63142857D01*
X121785714Y-63047619D01*
X121833333Y-63000000D01*
X121928571Y-62952380D01*
X122166666Y-62952380D01*
X122309523Y-63000000D01*
X123071428Y-63428571D02*
X123214285Y-63476190D01*
X123261904Y-63523809D01*
X123309523Y-63619047D01*
X123309523Y-63761904D01*
X123261904Y-63857142D01*
X123214285Y-63904761D01*
X123119047Y-63952380D01*
X122738095Y-63952380D01*
X122738095Y-62952380D01*
X123071428Y-62952380D01*
X123166666Y-63000000D01*
X123214285Y-63047619D01*
X123261904Y-63142857D01*
X123261904Y-63238095D01*
X123214285Y-63333333D01*
X123166666Y-63380952D01*
X123071428Y-63428571D01*
X122738095Y-63428571D01*
X124261904Y-63952380D02*
X123690476Y-63952380D01*
X123976190Y-63952380D02*
X123976190Y-62952380D01*
X123880952Y-63095238D01*
X123785714Y-63190476D01*
X123690476Y-63238095D01*
%TO.C,TPP2*%
X130238095Y-103054380D02*
X130809523Y-103054380D01*
X130523809Y-104054380D02*
X130523809Y-103054380D01*
X131142857Y-104054380D02*
X131142857Y-103054380D01*
X131523809Y-103054380D01*
X131619047Y-103102000D01*
X131666666Y-103149619D01*
X131714285Y-103244857D01*
X131714285Y-103387714D01*
X131666666Y-103482952D01*
X131619047Y-103530571D01*
X131523809Y-103578190D01*
X131142857Y-103578190D01*
X132142857Y-104054380D02*
X132142857Y-103054380D01*
X132523809Y-103054380D01*
X132619047Y-103102000D01*
X132666666Y-103149619D01*
X132714285Y-103244857D01*
X132714285Y-103387714D01*
X132666666Y-103482952D01*
X132619047Y-103530571D01*
X132523809Y-103578190D01*
X132142857Y-103578190D01*
X133095238Y-103149619D02*
X133142857Y-103102000D01*
X133238095Y-103054380D01*
X133476190Y-103054380D01*
X133571428Y-103102000D01*
X133619047Y-103149619D01*
X133666666Y-103244857D01*
X133666666Y-103340095D01*
X133619047Y-103482952D01*
X133047619Y-104054380D01*
X133666666Y-104054380D01*
%TO.C,TPP4*%
X141738095Y-97952380D02*
X142309523Y-97952380D01*
X142023809Y-98952380D02*
X142023809Y-97952380D01*
X142642857Y-98952380D02*
X142642857Y-97952380D01*
X143023809Y-97952380D01*
X143119047Y-98000000D01*
X143166666Y-98047619D01*
X143214285Y-98142857D01*
X143214285Y-98285714D01*
X143166666Y-98380952D01*
X143119047Y-98428571D01*
X143023809Y-98476190D01*
X142642857Y-98476190D01*
X143642857Y-98952380D02*
X143642857Y-97952380D01*
X144023809Y-97952380D01*
X144119047Y-98000000D01*
X144166666Y-98047619D01*
X144214285Y-98142857D01*
X144214285Y-98285714D01*
X144166666Y-98380952D01*
X144119047Y-98428571D01*
X144023809Y-98476190D01*
X143642857Y-98476190D01*
X145071428Y-98285714D02*
X145071428Y-98952380D01*
X144833333Y-97904761D02*
X144595238Y-98619047D01*
X145214285Y-98619047D01*
%TO.C,POT1*%
X149857142Y-87952380D02*
X149857142Y-86952380D01*
X150238095Y-86952380D01*
X150333333Y-87000000D01*
X150380952Y-87047619D01*
X150428571Y-87142857D01*
X150428571Y-87285714D01*
X150380952Y-87380952D01*
X150333333Y-87428571D01*
X150238095Y-87476190D01*
X149857142Y-87476190D01*
X151047619Y-86952380D02*
X151238095Y-86952380D01*
X151333333Y-87000000D01*
X151428571Y-87095238D01*
X151476190Y-87285714D01*
X151476190Y-87619047D01*
X151428571Y-87809523D01*
X151333333Y-87904761D01*
X151238095Y-87952380D01*
X151047619Y-87952380D01*
X150952380Y-87904761D01*
X150857142Y-87809523D01*
X150809523Y-87619047D01*
X150809523Y-87285714D01*
X150857142Y-87095238D01*
X150952380Y-87000000D01*
X151047619Y-86952380D01*
X151761904Y-86952380D02*
X152333333Y-86952380D01*
X152047619Y-87952380D02*
X152047619Y-86952380D01*
X153190476Y-87952380D02*
X152619047Y-87952380D01*
X152904761Y-87952380D02*
X152904761Y-86952380D01*
X152809523Y-87095238D01*
X152714285Y-87190476D01*
X152619047Y-87238095D01*
%TO.C,SB2*%
X104988095Y-82204761D02*
X105130952Y-82252380D01*
X105369047Y-82252380D01*
X105464285Y-82204761D01*
X105511904Y-82157142D01*
X105559523Y-82061904D01*
X105559523Y-81966666D01*
X105511904Y-81871428D01*
X105464285Y-81823809D01*
X105369047Y-81776190D01*
X105178571Y-81728571D01*
X105083333Y-81680952D01*
X105035714Y-81633333D01*
X104988095Y-81538095D01*
X104988095Y-81442857D01*
X105035714Y-81347619D01*
X105083333Y-81300000D01*
X105178571Y-81252380D01*
X105416666Y-81252380D01*
X105559523Y-81300000D01*
X106321428Y-81728571D02*
X106464285Y-81776190D01*
X106511904Y-81823809D01*
X106559523Y-81919047D01*
X106559523Y-82061904D01*
X106511904Y-82157142D01*
X106464285Y-82204761D01*
X106369047Y-82252380D01*
X105988095Y-82252380D01*
X105988095Y-81252380D01*
X106321428Y-81252380D01*
X106416666Y-81300000D01*
X106464285Y-81347619D01*
X106511904Y-81442857D01*
X106511904Y-81538095D01*
X106464285Y-81633333D01*
X106416666Y-81680952D01*
X106321428Y-81728571D01*
X105988095Y-81728571D01*
X106940476Y-81347619D02*
X106988095Y-81300000D01*
X107083333Y-81252380D01*
X107321428Y-81252380D01*
X107416666Y-81300000D01*
X107464285Y-81347619D01*
X107511904Y-81442857D01*
X107511904Y-81538095D01*
X107464285Y-81680952D01*
X106892857Y-82252380D01*
X107511904Y-82252380D01*
%TO.C,U7*%
X153238095Y-99120380D02*
X153238095Y-99929904D01*
X153285714Y-100025142D01*
X153333333Y-100072761D01*
X153428571Y-100120380D01*
X153619047Y-100120380D01*
X153714285Y-100072761D01*
X153761904Y-100025142D01*
X153809523Y-99929904D01*
X153809523Y-99120380D01*
X154190476Y-99120380D02*
X154857142Y-99120380D01*
X154428571Y-100120380D01*
%TO.C,U9*%
X191238095Y-105452380D02*
X191238095Y-106261904D01*
X191285714Y-106357142D01*
X191333333Y-106404761D01*
X191428571Y-106452380D01*
X191619047Y-106452380D01*
X191714285Y-106404761D01*
X191761904Y-106357142D01*
X191809523Y-106261904D01*
X191809523Y-105452380D01*
X192333333Y-106452380D02*
X192523809Y-106452380D01*
X192619047Y-106404761D01*
X192666666Y-106357142D01*
X192761904Y-106214285D01*
X192809523Y-106023809D01*
X192809523Y-105642857D01*
X192761904Y-105547619D01*
X192714285Y-105500000D01*
X192619047Y-105452380D01*
X192428571Y-105452380D01*
X192333333Y-105500000D01*
X192285714Y-105547619D01*
X192238095Y-105642857D01*
X192238095Y-105880952D01*
X192285714Y-105976190D01*
X192333333Y-106023809D01*
X192428571Y-106071428D01*
X192619047Y-106071428D01*
X192714285Y-106023809D01*
X192761904Y-105976190D01*
X192809523Y-105880952D01*
%TO.C,B1*%
X105095238Y-55928571D02*
X105238095Y-55976190D01*
X105285714Y-56023809D01*
X105333333Y-56119047D01*
X105333333Y-56261904D01*
X105285714Y-56357142D01*
X105238095Y-56404761D01*
X105142857Y-56452380D01*
X104761904Y-56452380D01*
X104761904Y-55452380D01*
X105095238Y-55452380D01*
X105190476Y-55500000D01*
X105238095Y-55547619D01*
X105285714Y-55642857D01*
X105285714Y-55738095D01*
X105238095Y-55833333D01*
X105190476Y-55880952D01*
X105095238Y-55928571D01*
X104761904Y-55928571D01*
X106285714Y-56452380D02*
X105714285Y-56452380D01*
X106000000Y-56452380D02*
X106000000Y-55452380D01*
X105904761Y-55595238D01*
X105809523Y-55690476D01*
X105714285Y-55738095D01*
%TO.C,B2*%
X105095238Y-114928571D02*
X105238095Y-114976190D01*
X105285714Y-115023809D01*
X105333333Y-115119047D01*
X105333333Y-115261904D01*
X105285714Y-115357142D01*
X105238095Y-115404761D01*
X105142857Y-115452380D01*
X104761904Y-115452380D01*
X104761904Y-114452380D01*
X105095238Y-114452380D01*
X105190476Y-114500000D01*
X105238095Y-114547619D01*
X105285714Y-114642857D01*
X105285714Y-114738095D01*
X105238095Y-114833333D01*
X105190476Y-114880952D01*
X105095238Y-114928571D01*
X104761904Y-114928571D01*
X105714285Y-114547619D02*
X105761904Y-114500000D01*
X105857142Y-114452380D01*
X106095238Y-114452380D01*
X106190476Y-114500000D01*
X106238095Y-114547619D01*
X106285714Y-114642857D01*
X106285714Y-114738095D01*
X106238095Y-114880952D01*
X105666666Y-115452380D01*
X106285714Y-115452380D01*
%TO.C,B3*%
X207095238Y-114928571D02*
X207238095Y-114976190D01*
X207285714Y-115023809D01*
X207333333Y-115119047D01*
X207333333Y-115261904D01*
X207285714Y-115357142D01*
X207238095Y-115404761D01*
X207142857Y-115452380D01*
X206761904Y-115452380D01*
X206761904Y-114452380D01*
X207095238Y-114452380D01*
X207190476Y-114500000D01*
X207238095Y-114547619D01*
X207285714Y-114642857D01*
X207285714Y-114738095D01*
X207238095Y-114833333D01*
X207190476Y-114880952D01*
X207095238Y-114928571D01*
X206761904Y-114928571D01*
X207666666Y-114452380D02*
X208285714Y-114452380D01*
X207952380Y-114833333D01*
X208095238Y-114833333D01*
X208190476Y-114880952D01*
X208238095Y-114928571D01*
X208285714Y-115023809D01*
X208285714Y-115261904D01*
X208238095Y-115357142D01*
X208190476Y-115404761D01*
X208095238Y-115452380D01*
X207809523Y-115452380D01*
X207714285Y-115404761D01*
X207666666Y-115357142D01*
%TO.C,B4*%
X207095238Y-55928571D02*
X207238095Y-55976190D01*
X207285714Y-56023809D01*
X207333333Y-56119047D01*
X207333333Y-56261904D01*
X207285714Y-56357142D01*
X207238095Y-56404761D01*
X207142857Y-56452380D01*
X206761904Y-56452380D01*
X206761904Y-55452380D01*
X207095238Y-55452380D01*
X207190476Y-55500000D01*
X207238095Y-55547619D01*
X207285714Y-55642857D01*
X207285714Y-55738095D01*
X207238095Y-55833333D01*
X207190476Y-55880952D01*
X207095238Y-55928571D01*
X206761904Y-55928571D01*
X208190476Y-55785714D02*
X208190476Y-56452380D01*
X207952380Y-55404761D02*
X207714285Y-56119047D01*
X208333333Y-56119047D01*
%TO.C,U3*%
X119238095Y-60452380D02*
X119238095Y-61261904D01*
X119285714Y-61357142D01*
X119333333Y-61404761D01*
X119428571Y-61452380D01*
X119619047Y-61452380D01*
X119714285Y-61404761D01*
X119761904Y-61357142D01*
X119809523Y-61261904D01*
X119809523Y-60452380D01*
X120190476Y-60452380D02*
X120809523Y-60452380D01*
X120476190Y-60833333D01*
X120619047Y-60833333D01*
X120714285Y-60880952D01*
X120761904Y-60928571D01*
X120809523Y-61023809D01*
X120809523Y-61261904D01*
X120761904Y-61357142D01*
X120714285Y-61404761D01*
X120619047Y-61452380D01*
X120333333Y-61452380D01*
X120238095Y-61404761D01*
X120190476Y-61357142D01*
%TO.C,TP6*%
X130188095Y-64302380D02*
X130759523Y-64302380D01*
X130473809Y-65302380D02*
X130473809Y-64302380D01*
X131092857Y-65302380D02*
X131092857Y-64302380D01*
X131473809Y-64302380D01*
X131569047Y-64350000D01*
X131616666Y-64397619D01*
X131664285Y-64492857D01*
X131664285Y-64635714D01*
X131616666Y-64730952D01*
X131569047Y-64778571D01*
X131473809Y-64826190D01*
X131092857Y-64826190D01*
X132521428Y-64302380D02*
X132330952Y-64302380D01*
X132235714Y-64350000D01*
X132188095Y-64397619D01*
X132092857Y-64540476D01*
X132045238Y-64730952D01*
X132045238Y-65111904D01*
X132092857Y-65207142D01*
X132140476Y-65254761D01*
X132235714Y-65302380D01*
X132426190Y-65302380D01*
X132521428Y-65254761D01*
X132569047Y-65207142D01*
X132616666Y-65111904D01*
X132616666Y-64873809D01*
X132569047Y-64778571D01*
X132521428Y-64730952D01*
X132426190Y-64683333D01*
X132235714Y-64683333D01*
X132140476Y-64730952D01*
X132092857Y-64778571D01*
X132045238Y-64873809D01*
%TO.C,TPP6*%
X157738095Y-94452380D02*
X158309523Y-94452380D01*
X158023809Y-95452380D02*
X158023809Y-94452380D01*
X158642857Y-95452380D02*
X158642857Y-94452380D01*
X159023809Y-94452380D01*
X159119047Y-94500000D01*
X159166666Y-94547619D01*
X159214285Y-94642857D01*
X159214285Y-94785714D01*
X159166666Y-94880952D01*
X159119047Y-94928571D01*
X159023809Y-94976190D01*
X158642857Y-94976190D01*
X159642857Y-95452380D02*
X159642857Y-94452380D01*
X160023809Y-94452380D01*
X160119047Y-94500000D01*
X160166666Y-94547619D01*
X160214285Y-94642857D01*
X160214285Y-94785714D01*
X160166666Y-94880952D01*
X160119047Y-94928571D01*
X160023809Y-94976190D01*
X159642857Y-94976190D01*
X161071428Y-94452380D02*
X160880952Y-94452380D01*
X160785714Y-94500000D01*
X160738095Y-94547619D01*
X160642857Y-94690476D01*
X160595238Y-94880952D01*
X160595238Y-95261904D01*
X160642857Y-95357142D01*
X160690476Y-95404761D01*
X160785714Y-95452380D01*
X160976190Y-95452380D01*
X161071428Y-95404761D01*
X161119047Y-95357142D01*
X161166666Y-95261904D01*
X161166666Y-95023809D01*
X161119047Y-94928571D01*
X161071428Y-94880952D01*
X160976190Y-94833333D01*
X160785714Y-94833333D01*
X160690476Y-94880952D01*
X160642857Y-94928571D01*
X160595238Y-95023809D01*
%TO.C,TPP10*%
X142211904Y-87902380D02*
X142783333Y-87902380D01*
X142497619Y-88902380D02*
X142497619Y-87902380D01*
X143116666Y-88902380D02*
X143116666Y-87902380D01*
X143497619Y-87902380D01*
X143592857Y-87950000D01*
X143640476Y-87997619D01*
X143688095Y-88092857D01*
X143688095Y-88235714D01*
X143640476Y-88330952D01*
X143592857Y-88378571D01*
X143497619Y-88426190D01*
X143116666Y-88426190D01*
X144116666Y-88902380D02*
X144116666Y-87902380D01*
X144497619Y-87902380D01*
X144592857Y-87950000D01*
X144640476Y-87997619D01*
X144688095Y-88092857D01*
X144688095Y-88235714D01*
X144640476Y-88330952D01*
X144592857Y-88378571D01*
X144497619Y-88426190D01*
X144116666Y-88426190D01*
X145640476Y-88902380D02*
X145069047Y-88902380D01*
X145354761Y-88902380D02*
X145354761Y-87902380D01*
X145259523Y-88045238D01*
X145164285Y-88140476D01*
X145069047Y-88188095D01*
X146259523Y-87902380D02*
X146354761Y-87902380D01*
X146450000Y-87950000D01*
X146497619Y-87997619D01*
X146545238Y-88092857D01*
X146592857Y-88283333D01*
X146592857Y-88521428D01*
X146545238Y-88711904D01*
X146497619Y-88807142D01*
X146450000Y-88854761D01*
X146354761Y-88902380D01*
X146259523Y-88902380D01*
X146164285Y-88854761D01*
X146116666Y-88807142D01*
X146069047Y-88711904D01*
X146021428Y-88521428D01*
X146021428Y-88283333D01*
X146069047Y-88092857D01*
X146116666Y-87997619D01*
X146164285Y-87950000D01*
X146259523Y-87902380D01*
%TO.C,M1*%
X200690476Y-118452380D02*
X200690476Y-117452380D01*
X201023809Y-118166666D01*
X201357142Y-117452380D01*
X201357142Y-118452380D01*
X202357142Y-118452380D02*
X201785714Y-118452380D01*
X202071428Y-118452380D02*
X202071428Y-117452380D01*
X201976190Y-117595238D01*
X201880952Y-117690476D01*
X201785714Y-117738095D01*
%TO.C,T1*%
X179832380Y-117761904D02*
X179832380Y-117190476D01*
X180832380Y-117476190D02*
X179832380Y-117476190D01*
X180832380Y-116333333D02*
X180832380Y-116904761D01*
X180832380Y-116619047D02*
X179832380Y-116619047D01*
X179975238Y-116714285D01*
X180070476Y-116809523D01*
X180118095Y-116904761D01*
X181502380Y-115600000D02*
X181740476Y-115600000D01*
X181645238Y-115838095D02*
X181740476Y-115600000D01*
X181645238Y-115361904D01*
X181930952Y-115742857D02*
X181740476Y-115600000D01*
X181930952Y-115457142D01*
%TO.C,U10*%
X134761904Y-54452380D02*
X134761904Y-55261904D01*
X134809523Y-55357142D01*
X134857142Y-55404761D01*
X134952380Y-55452380D01*
X135142857Y-55452380D01*
X135238095Y-55404761D01*
X135285714Y-55357142D01*
X135333333Y-55261904D01*
X135333333Y-54452380D01*
X136333333Y-55452380D02*
X135761904Y-55452380D01*
X136047619Y-55452380D02*
X136047619Y-54452380D01*
X135952380Y-54595238D01*
X135857142Y-54690476D01*
X135761904Y-54738095D01*
X136952380Y-54452380D02*
X137047619Y-54452380D01*
X137142857Y-54500000D01*
X137190476Y-54547619D01*
X137238095Y-54642857D01*
X137285714Y-54833333D01*
X137285714Y-55071428D01*
X137238095Y-55261904D01*
X137190476Y-55357142D01*
X137142857Y-55404761D01*
X137047619Y-55452380D01*
X136952380Y-55452380D01*
X136857142Y-55404761D01*
X136809523Y-55357142D01*
X136761904Y-55261904D01*
X136714285Y-55071428D01*
X136714285Y-54833333D01*
X136761904Y-54642857D01*
X136809523Y-54547619D01*
X136857142Y-54500000D01*
X136952380Y-54452380D01*
X135309523Y-62952380D02*
X134738095Y-62952380D01*
X135023809Y-62952380D02*
X135023809Y-61952380D01*
X134928571Y-62095238D01*
X134833333Y-62190476D01*
X134738095Y-62238095D01*
X135928571Y-61952380D02*
X136023809Y-61952380D01*
X136119047Y-62000000D01*
X136166666Y-62047619D01*
X136214285Y-62142857D01*
X136261904Y-62333333D01*
X136261904Y-62571428D01*
X136214285Y-62761904D01*
X136166666Y-62857142D01*
X136119047Y-62904761D01*
X136023809Y-62952380D01*
X135928571Y-62952380D01*
X135833333Y-62904761D01*
X135785714Y-62857142D01*
X135738095Y-62761904D01*
X135690476Y-62571428D01*
X135690476Y-62333333D01*
X135738095Y-62142857D01*
X135785714Y-62047619D01*
X135833333Y-62000000D01*
X135928571Y-61952380D01*
X136690476Y-62952380D02*
X136690476Y-61952380D01*
X137261904Y-62952380D02*
X136833333Y-62380952D01*
X137261904Y-61952380D02*
X136690476Y-62523809D01*
X131000000Y-55952380D02*
X131000000Y-56190476D01*
X130761904Y-56095238D02*
X131000000Y-56190476D01*
X131238095Y-56095238D01*
X130857142Y-56380952D02*
X131000000Y-56190476D01*
X131142857Y-56380952D01*
%TO.C,U11*%
X150261904Y-67952380D02*
X150261904Y-68761904D01*
X150309523Y-68857142D01*
X150357142Y-68904761D01*
X150452380Y-68952380D01*
X150642857Y-68952380D01*
X150738095Y-68904761D01*
X150785714Y-68857142D01*
X150833333Y-68761904D01*
X150833333Y-67952380D01*
X151833333Y-68952380D02*
X151261904Y-68952380D01*
X151547619Y-68952380D02*
X151547619Y-67952380D01*
X151452380Y-68095238D01*
X151357142Y-68190476D01*
X151261904Y-68238095D01*
X152785714Y-68952380D02*
X152214285Y-68952380D01*
X152500000Y-68952380D02*
X152500000Y-67952380D01*
X152404761Y-68095238D01*
X152309523Y-68190476D01*
X152214285Y-68238095D01*
X150333333Y-73547619D02*
X150380952Y-73500000D01*
X150476190Y-73452380D01*
X150714285Y-73452380D01*
X150809523Y-73500000D01*
X150857142Y-73547619D01*
X150904761Y-73642857D01*
X150904761Y-73738095D01*
X150857142Y-73880952D01*
X150285714Y-74452380D01*
X150904761Y-74452380D01*
X151523809Y-73452380D02*
X151619047Y-73452380D01*
X151714285Y-73500000D01*
X151761904Y-73547619D01*
X151809523Y-73642857D01*
X151857142Y-73833333D01*
X151857142Y-74071428D01*
X151809523Y-74261904D01*
X151761904Y-74357142D01*
X151714285Y-74404761D01*
X151619047Y-74452380D01*
X151523809Y-74452380D01*
X151428571Y-74404761D01*
X151380952Y-74357142D01*
X151333333Y-74261904D01*
X151285714Y-74071428D01*
X151285714Y-73833333D01*
X151333333Y-73642857D01*
X151380952Y-73547619D01*
X151428571Y-73500000D01*
X151523809Y-73452380D01*
X152285714Y-74452380D02*
X152285714Y-73452380D01*
X152380952Y-74071428D02*
X152666666Y-74452380D01*
X152666666Y-73785714D02*
X152285714Y-74166666D01*
X148000000Y-69282762D02*
X148000000Y-69521026D01*
X147761735Y-69425721D02*
X148000000Y-69521026D01*
X148238264Y-69425721D01*
X147857041Y-69711637D02*
X148000000Y-69521026D01*
X148142958Y-69711637D01*
%TO.C,C1*%
X200037142Y-103166666D02*
X200084761Y-103214285D01*
X200132380Y-103357142D01*
X200132380Y-103452380D01*
X200084761Y-103595238D01*
X199989523Y-103690476D01*
X199894285Y-103738095D01*
X199703809Y-103785714D01*
X199560952Y-103785714D01*
X199370476Y-103738095D01*
X199275238Y-103690476D01*
X199180000Y-103595238D01*
X199132380Y-103452380D01*
X199132380Y-103357142D01*
X199180000Y-103214285D01*
X199227619Y-103166666D01*
X200132380Y-102214285D02*
X200132380Y-102785714D01*
X200132380Y-102500000D02*
X199132380Y-102500000D01*
X199275238Y-102595238D01*
X199370476Y-102690476D01*
X199418095Y-102785714D01*
%TO.C,C2*%
X136733333Y-85057142D02*
X136685714Y-85104761D01*
X136542857Y-85152380D01*
X136447619Y-85152380D01*
X136304761Y-85104761D01*
X136209523Y-85009523D01*
X136161904Y-84914285D01*
X136114285Y-84723809D01*
X136114285Y-84580952D01*
X136161904Y-84390476D01*
X136209523Y-84295238D01*
X136304761Y-84200000D01*
X136447619Y-84152380D01*
X136542857Y-84152380D01*
X136685714Y-84200000D01*
X136733333Y-84247619D01*
X137114285Y-84247619D02*
X137161904Y-84200000D01*
X137257142Y-84152380D01*
X137495238Y-84152380D01*
X137590476Y-84200000D01*
X137638095Y-84247619D01*
X137685714Y-84342857D01*
X137685714Y-84438095D01*
X137638095Y-84580952D01*
X137066666Y-85152380D01*
X137685714Y-85152380D01*
%TO.C,C3*%
X138333333Y-91457142D02*
X138285714Y-91504761D01*
X138142857Y-91552380D01*
X138047619Y-91552380D01*
X137904761Y-91504761D01*
X137809523Y-91409523D01*
X137761904Y-91314285D01*
X137714285Y-91123809D01*
X137714285Y-90980952D01*
X137761904Y-90790476D01*
X137809523Y-90695238D01*
X137904761Y-90600000D01*
X138047619Y-90552380D01*
X138142857Y-90552380D01*
X138285714Y-90600000D01*
X138333333Y-90647619D01*
X138666666Y-90552380D02*
X139285714Y-90552380D01*
X138952380Y-90933333D01*
X139095238Y-90933333D01*
X139190476Y-90980952D01*
X139238095Y-91028571D01*
X139285714Y-91123809D01*
X139285714Y-91361904D01*
X139238095Y-91457142D01*
X139190476Y-91504761D01*
X139095238Y-91552380D01*
X138809523Y-91552380D01*
X138714285Y-91504761D01*
X138666666Y-91457142D01*
%TO.C,C4*%
X114883333Y-63457142D02*
X114835714Y-63504761D01*
X114692857Y-63552380D01*
X114597619Y-63552380D01*
X114454761Y-63504761D01*
X114359523Y-63409523D01*
X114311904Y-63314285D01*
X114264285Y-63123809D01*
X114264285Y-62980952D01*
X114311904Y-62790476D01*
X114359523Y-62695238D01*
X114454761Y-62600000D01*
X114597619Y-62552380D01*
X114692857Y-62552380D01*
X114835714Y-62600000D01*
X114883333Y-62647619D01*
X115740476Y-62885714D02*
X115740476Y-63552380D01*
X115502380Y-62504761D02*
X115264285Y-63219047D01*
X115883333Y-63219047D01*
%TO.C,C5*%
X145333333Y-74177142D02*
X145285714Y-74224761D01*
X145142857Y-74272380D01*
X145047619Y-74272380D01*
X144904761Y-74224761D01*
X144809523Y-74129523D01*
X144761904Y-74034285D01*
X144714285Y-73843809D01*
X144714285Y-73700952D01*
X144761904Y-73510476D01*
X144809523Y-73415238D01*
X144904761Y-73320000D01*
X145047619Y-73272380D01*
X145142857Y-73272380D01*
X145285714Y-73320000D01*
X145333333Y-73367619D01*
X146238095Y-73272380D02*
X145761904Y-73272380D01*
X145714285Y-73748571D01*
X145761904Y-73700952D01*
X145857142Y-73653333D01*
X146095238Y-73653333D01*
X146190476Y-73700952D01*
X146238095Y-73748571D01*
X146285714Y-73843809D01*
X146285714Y-74081904D01*
X146238095Y-74177142D01*
X146190476Y-74224761D01*
X146095238Y-74272380D01*
X145857142Y-74272380D01*
X145761904Y-74224761D01*
X145714285Y-74177142D01*
%TO.C,C6*%
X145333333Y-76677142D02*
X145285714Y-76724761D01*
X145142857Y-76772380D01*
X145047619Y-76772380D01*
X144904761Y-76724761D01*
X144809523Y-76629523D01*
X144761904Y-76534285D01*
X144714285Y-76343809D01*
X144714285Y-76200952D01*
X144761904Y-76010476D01*
X144809523Y-75915238D01*
X144904761Y-75820000D01*
X145047619Y-75772380D01*
X145142857Y-75772380D01*
X145285714Y-75820000D01*
X145333333Y-75867619D01*
X146190476Y-75772380D02*
X146000000Y-75772380D01*
X145904761Y-75820000D01*
X145857142Y-75867619D01*
X145761904Y-76010476D01*
X145714285Y-76200952D01*
X145714285Y-76581904D01*
X145761904Y-76677142D01*
X145809523Y-76724761D01*
X145904761Y-76772380D01*
X146095238Y-76772380D01*
X146190476Y-76724761D01*
X146238095Y-76677142D01*
X146285714Y-76581904D01*
X146285714Y-76343809D01*
X146238095Y-76248571D01*
X146190476Y-76200952D01*
X146095238Y-76153333D01*
X145904761Y-76153333D01*
X145809523Y-76200952D01*
X145761904Y-76248571D01*
X145714285Y-76343809D01*
%TO.C,C7*%
X128537142Y-57166666D02*
X128584761Y-57214285D01*
X128632380Y-57357142D01*
X128632380Y-57452380D01*
X128584761Y-57595238D01*
X128489523Y-57690476D01*
X128394285Y-57738095D01*
X128203809Y-57785714D01*
X128060952Y-57785714D01*
X127870476Y-57738095D01*
X127775238Y-57690476D01*
X127680000Y-57595238D01*
X127632380Y-57452380D01*
X127632380Y-57357142D01*
X127680000Y-57214285D01*
X127727619Y-57166666D01*
X127632380Y-56833333D02*
X127632380Y-56166666D01*
X128632380Y-56595238D01*
%TO.C,C8*%
X175333333Y-63537142D02*
X175285714Y-63584761D01*
X175142857Y-63632380D01*
X175047619Y-63632380D01*
X174904761Y-63584761D01*
X174809523Y-63489523D01*
X174761904Y-63394285D01*
X174714285Y-63203809D01*
X174714285Y-63060952D01*
X174761904Y-62870476D01*
X174809523Y-62775238D01*
X174904761Y-62680000D01*
X175047619Y-62632380D01*
X175142857Y-62632380D01*
X175285714Y-62680000D01*
X175333333Y-62727619D01*
X175904761Y-63060952D02*
X175809523Y-63013333D01*
X175761904Y-62965714D01*
X175714285Y-62870476D01*
X175714285Y-62822857D01*
X175761904Y-62727619D01*
X175809523Y-62680000D01*
X175904761Y-62632380D01*
X176095238Y-62632380D01*
X176190476Y-62680000D01*
X176238095Y-62727619D01*
X176285714Y-62822857D01*
X176285714Y-62870476D01*
X176238095Y-62965714D01*
X176190476Y-63013333D01*
X176095238Y-63060952D01*
X175904761Y-63060952D01*
X175809523Y-63108571D01*
X175761904Y-63156190D01*
X175714285Y-63251428D01*
X175714285Y-63441904D01*
X175761904Y-63537142D01*
X175809523Y-63584761D01*
X175904761Y-63632380D01*
X176095238Y-63632380D01*
X176190476Y-63584761D01*
X176238095Y-63537142D01*
X176285714Y-63441904D01*
X176285714Y-63251428D01*
X176238095Y-63156190D01*
X176190476Y-63108571D01*
X176095238Y-63060952D01*
%TO.C,C9*%
X171333333Y-60177142D02*
X171285714Y-60224761D01*
X171142857Y-60272380D01*
X171047619Y-60272380D01*
X170904761Y-60224761D01*
X170809523Y-60129523D01*
X170761904Y-60034285D01*
X170714285Y-59843809D01*
X170714285Y-59700952D01*
X170761904Y-59510476D01*
X170809523Y-59415238D01*
X170904761Y-59320000D01*
X171047619Y-59272380D01*
X171142857Y-59272380D01*
X171285714Y-59320000D01*
X171333333Y-59367619D01*
X171809523Y-60272380D02*
X172000000Y-60272380D01*
X172095238Y-60224761D01*
X172142857Y-60177142D01*
X172238095Y-60034285D01*
X172285714Y-59843809D01*
X172285714Y-59462857D01*
X172238095Y-59367619D01*
X172190476Y-59320000D01*
X172095238Y-59272380D01*
X171904761Y-59272380D01*
X171809523Y-59320000D01*
X171761904Y-59367619D01*
X171714285Y-59462857D01*
X171714285Y-59700952D01*
X171761904Y-59796190D01*
X171809523Y-59843809D01*
X171904761Y-59891428D01*
X172095238Y-59891428D01*
X172190476Y-59843809D01*
X172238095Y-59796190D01*
X172285714Y-59700952D01*
%TO.C,C10*%
X162907142Y-51607142D02*
X162859523Y-51654761D01*
X162716666Y-51702380D01*
X162621428Y-51702380D01*
X162478571Y-51654761D01*
X162383333Y-51559523D01*
X162335714Y-51464285D01*
X162288095Y-51273809D01*
X162288095Y-51130952D01*
X162335714Y-50940476D01*
X162383333Y-50845238D01*
X162478571Y-50750000D01*
X162621428Y-50702380D01*
X162716666Y-50702380D01*
X162859523Y-50750000D01*
X162907142Y-50797619D01*
X163859523Y-51702380D02*
X163288095Y-51702380D01*
X163573809Y-51702380D02*
X163573809Y-50702380D01*
X163478571Y-50845238D01*
X163383333Y-50940476D01*
X163288095Y-50988095D01*
X164478571Y-50702380D02*
X164573809Y-50702380D01*
X164669047Y-50750000D01*
X164716666Y-50797619D01*
X164764285Y-50892857D01*
X164811904Y-51083333D01*
X164811904Y-51321428D01*
X164764285Y-51511904D01*
X164716666Y-51607142D01*
X164669047Y-51654761D01*
X164573809Y-51702380D01*
X164478571Y-51702380D01*
X164383333Y-51654761D01*
X164335714Y-51607142D01*
X164288095Y-51511904D01*
X164240476Y-51321428D01*
X164240476Y-51083333D01*
X164288095Y-50892857D01*
X164335714Y-50797619D01*
X164383333Y-50750000D01*
X164478571Y-50702380D01*
%TO.C,C11*%
X153657142Y-68007142D02*
X153609523Y-68054761D01*
X153466666Y-68102380D01*
X153371428Y-68102380D01*
X153228571Y-68054761D01*
X153133333Y-67959523D01*
X153085714Y-67864285D01*
X153038095Y-67673809D01*
X153038095Y-67530952D01*
X153085714Y-67340476D01*
X153133333Y-67245238D01*
X153228571Y-67150000D01*
X153371428Y-67102380D01*
X153466666Y-67102380D01*
X153609523Y-67150000D01*
X153657142Y-67197619D01*
X154609523Y-68102380D02*
X154038095Y-68102380D01*
X154323809Y-68102380D02*
X154323809Y-67102380D01*
X154228571Y-67245238D01*
X154133333Y-67340476D01*
X154038095Y-67388095D01*
X155561904Y-68102380D02*
X154990476Y-68102380D01*
X155276190Y-68102380D02*
X155276190Y-67102380D01*
X155180952Y-67245238D01*
X155085714Y-67340476D01*
X154990476Y-67388095D01*
%TO.C,C12*%
X165157142Y-55857142D02*
X165109523Y-55904761D01*
X164966666Y-55952380D01*
X164871428Y-55952380D01*
X164728571Y-55904761D01*
X164633333Y-55809523D01*
X164585714Y-55714285D01*
X164538095Y-55523809D01*
X164538095Y-55380952D01*
X164585714Y-55190476D01*
X164633333Y-55095238D01*
X164728571Y-55000000D01*
X164871428Y-54952380D01*
X164966666Y-54952380D01*
X165109523Y-55000000D01*
X165157142Y-55047619D01*
X166109523Y-55952380D02*
X165538095Y-55952380D01*
X165823809Y-55952380D02*
X165823809Y-54952380D01*
X165728571Y-55095238D01*
X165633333Y-55190476D01*
X165538095Y-55238095D01*
X166490476Y-55047619D02*
X166538095Y-55000000D01*
X166633333Y-54952380D01*
X166871428Y-54952380D01*
X166966666Y-55000000D01*
X167014285Y-55047619D01*
X167061904Y-55142857D01*
X167061904Y-55238095D01*
X167014285Y-55380952D01*
X166442857Y-55952380D01*
X167061904Y-55952380D01*
%TO.C,C13*%
X153107142Y-62057142D02*
X153059523Y-62104761D01*
X152916666Y-62152380D01*
X152821428Y-62152380D01*
X152678571Y-62104761D01*
X152583333Y-62009523D01*
X152535714Y-61914285D01*
X152488095Y-61723809D01*
X152488095Y-61580952D01*
X152535714Y-61390476D01*
X152583333Y-61295238D01*
X152678571Y-61200000D01*
X152821428Y-61152380D01*
X152916666Y-61152380D01*
X153059523Y-61200000D01*
X153107142Y-61247619D01*
X154059523Y-62152380D02*
X153488095Y-62152380D01*
X153773809Y-62152380D02*
X153773809Y-61152380D01*
X153678571Y-61295238D01*
X153583333Y-61390476D01*
X153488095Y-61438095D01*
X154392857Y-61152380D02*
X155011904Y-61152380D01*
X154678571Y-61533333D01*
X154821428Y-61533333D01*
X154916666Y-61580952D01*
X154964285Y-61628571D01*
X155011904Y-61723809D01*
X155011904Y-61961904D01*
X154964285Y-62057142D01*
X154916666Y-62104761D01*
X154821428Y-62152380D01*
X154535714Y-62152380D01*
X154440476Y-62104761D01*
X154392857Y-62057142D01*
%TO.C,C14*%
X130707142Y-114482857D02*
X130754761Y-114530476D01*
X130802380Y-114673333D01*
X130802380Y-114768571D01*
X130754761Y-114911428D01*
X130659523Y-115006666D01*
X130564285Y-115054285D01*
X130373809Y-115101904D01*
X130230952Y-115101904D01*
X130040476Y-115054285D01*
X129945238Y-115006666D01*
X129850000Y-114911428D01*
X129802380Y-114768571D01*
X129802380Y-114673333D01*
X129850000Y-114530476D01*
X129897619Y-114482857D01*
X130802380Y-113530476D02*
X130802380Y-114101904D01*
X130802380Y-113816190D02*
X129802380Y-113816190D01*
X129945238Y-113911428D01*
X130040476Y-114006666D01*
X130088095Y-114101904D01*
X130135714Y-112673333D02*
X130802380Y-112673333D01*
X129754761Y-112911428D02*
X130469047Y-113149523D01*
X130469047Y-112530476D01*
%TO.C,C15*%
X146457142Y-116442857D02*
X146504761Y-116490476D01*
X146552380Y-116633333D01*
X146552380Y-116728571D01*
X146504761Y-116871428D01*
X146409523Y-116966666D01*
X146314285Y-117014285D01*
X146123809Y-117061904D01*
X145980952Y-117061904D01*
X145790476Y-117014285D01*
X145695238Y-116966666D01*
X145600000Y-116871428D01*
X145552380Y-116728571D01*
X145552380Y-116633333D01*
X145600000Y-116490476D01*
X145647619Y-116442857D01*
X146552380Y-115490476D02*
X146552380Y-116061904D01*
X146552380Y-115776190D02*
X145552380Y-115776190D01*
X145695238Y-115871428D01*
X145790476Y-115966666D01*
X145838095Y-116061904D01*
X145552380Y-114585714D02*
X145552380Y-115061904D01*
X146028571Y-115109523D01*
X145980952Y-115061904D01*
X145933333Y-114966666D01*
X145933333Y-114728571D01*
X145980952Y-114633333D01*
X146028571Y-114585714D01*
X146123809Y-114538095D01*
X146361904Y-114538095D01*
X146457142Y-114585714D01*
X146504761Y-114633333D01*
X146552380Y-114728571D01*
X146552380Y-114966666D01*
X146504761Y-115061904D01*
X146457142Y-115109523D01*
%TO.C,C16*%
X119457142Y-92942857D02*
X119504761Y-92990476D01*
X119552380Y-93133333D01*
X119552380Y-93228571D01*
X119504761Y-93371428D01*
X119409523Y-93466666D01*
X119314285Y-93514285D01*
X119123809Y-93561904D01*
X118980952Y-93561904D01*
X118790476Y-93514285D01*
X118695238Y-93466666D01*
X118600000Y-93371428D01*
X118552380Y-93228571D01*
X118552380Y-93133333D01*
X118600000Y-92990476D01*
X118647619Y-92942857D01*
X119552380Y-91990476D02*
X119552380Y-92561904D01*
X119552380Y-92276190D02*
X118552380Y-92276190D01*
X118695238Y-92371428D01*
X118790476Y-92466666D01*
X118838095Y-92561904D01*
X118552380Y-91133333D02*
X118552380Y-91323809D01*
X118600000Y-91419047D01*
X118647619Y-91466666D01*
X118790476Y-91561904D01*
X118980952Y-91609523D01*
X119361904Y-91609523D01*
X119457142Y-91561904D01*
X119504761Y-91514285D01*
X119552380Y-91419047D01*
X119552380Y-91228571D01*
X119504761Y-91133333D01*
X119457142Y-91085714D01*
X119361904Y-91038095D01*
X119123809Y-91038095D01*
X119028571Y-91085714D01*
X118980952Y-91133333D01*
X118933333Y-91228571D01*
X118933333Y-91419047D01*
X118980952Y-91514285D01*
X119028571Y-91561904D01*
X119123809Y-91609523D01*
%TO.C,C17*%
X133837142Y-95192857D02*
X133884761Y-95240476D01*
X133932380Y-95383333D01*
X133932380Y-95478571D01*
X133884761Y-95621428D01*
X133789523Y-95716666D01*
X133694285Y-95764285D01*
X133503809Y-95811904D01*
X133360952Y-95811904D01*
X133170476Y-95764285D01*
X133075238Y-95716666D01*
X132980000Y-95621428D01*
X132932380Y-95478571D01*
X132932380Y-95383333D01*
X132980000Y-95240476D01*
X133027619Y-95192857D01*
X133932380Y-94240476D02*
X133932380Y-94811904D01*
X133932380Y-94526190D02*
X132932380Y-94526190D01*
X133075238Y-94621428D01*
X133170476Y-94716666D01*
X133218095Y-94811904D01*
X132932380Y-93907142D02*
X132932380Y-93240476D01*
X133932380Y-93669047D01*
%TO.C,C18*%
X112857142Y-52177142D02*
X112809523Y-52224761D01*
X112666666Y-52272380D01*
X112571428Y-52272380D01*
X112428571Y-52224761D01*
X112333333Y-52129523D01*
X112285714Y-52034285D01*
X112238095Y-51843809D01*
X112238095Y-51700952D01*
X112285714Y-51510476D01*
X112333333Y-51415238D01*
X112428571Y-51320000D01*
X112571428Y-51272380D01*
X112666666Y-51272380D01*
X112809523Y-51320000D01*
X112857142Y-51367619D01*
X113809523Y-52272380D02*
X113238095Y-52272380D01*
X113523809Y-52272380D02*
X113523809Y-51272380D01*
X113428571Y-51415238D01*
X113333333Y-51510476D01*
X113238095Y-51558095D01*
X114380952Y-51700952D02*
X114285714Y-51653333D01*
X114238095Y-51605714D01*
X114190476Y-51510476D01*
X114190476Y-51462857D01*
X114238095Y-51367619D01*
X114285714Y-51320000D01*
X114380952Y-51272380D01*
X114571428Y-51272380D01*
X114666666Y-51320000D01*
X114714285Y-51367619D01*
X114761904Y-51462857D01*
X114761904Y-51510476D01*
X114714285Y-51605714D01*
X114666666Y-51653333D01*
X114571428Y-51700952D01*
X114380952Y-51700952D01*
X114285714Y-51748571D01*
X114238095Y-51796190D01*
X114190476Y-51891428D01*
X114190476Y-52081904D01*
X114238095Y-52177142D01*
X114285714Y-52224761D01*
X114380952Y-52272380D01*
X114571428Y-52272380D01*
X114666666Y-52224761D01*
X114714285Y-52177142D01*
X114761904Y-52081904D01*
X114761904Y-51891428D01*
X114714285Y-51796190D01*
X114666666Y-51748571D01*
X114571428Y-51700952D01*
%TO.C,C19*%
X184207142Y-59207142D02*
X184159523Y-59254761D01*
X184016666Y-59302380D01*
X183921428Y-59302380D01*
X183778571Y-59254761D01*
X183683333Y-59159523D01*
X183635714Y-59064285D01*
X183588095Y-58873809D01*
X183588095Y-58730952D01*
X183635714Y-58540476D01*
X183683333Y-58445238D01*
X183778571Y-58350000D01*
X183921428Y-58302380D01*
X184016666Y-58302380D01*
X184159523Y-58350000D01*
X184207142Y-58397619D01*
X185159523Y-59302380D02*
X184588095Y-59302380D01*
X184873809Y-59302380D02*
X184873809Y-58302380D01*
X184778571Y-58445238D01*
X184683333Y-58540476D01*
X184588095Y-58588095D01*
X185635714Y-59302380D02*
X185826190Y-59302380D01*
X185921428Y-59254761D01*
X185969047Y-59207142D01*
X186064285Y-59064285D01*
X186111904Y-58873809D01*
X186111904Y-58492857D01*
X186064285Y-58397619D01*
X186016666Y-58350000D01*
X185921428Y-58302380D01*
X185730952Y-58302380D01*
X185635714Y-58350000D01*
X185588095Y-58397619D01*
X185540476Y-58492857D01*
X185540476Y-58730952D01*
X185588095Y-58826190D01*
X185635714Y-58873809D01*
X185730952Y-58921428D01*
X185921428Y-58921428D01*
X186016666Y-58873809D01*
X186064285Y-58826190D01*
X186111904Y-58730952D01*
%TO.C,C20*%
X176457142Y-85457142D02*
X176409523Y-85504761D01*
X176266666Y-85552380D01*
X176171428Y-85552380D01*
X176028571Y-85504761D01*
X175933333Y-85409523D01*
X175885714Y-85314285D01*
X175838095Y-85123809D01*
X175838095Y-84980952D01*
X175885714Y-84790476D01*
X175933333Y-84695238D01*
X176028571Y-84600000D01*
X176171428Y-84552380D01*
X176266666Y-84552380D01*
X176409523Y-84600000D01*
X176457142Y-84647619D01*
X176838095Y-84647619D02*
X176885714Y-84600000D01*
X176980952Y-84552380D01*
X177219047Y-84552380D01*
X177314285Y-84600000D01*
X177361904Y-84647619D01*
X177409523Y-84742857D01*
X177409523Y-84838095D01*
X177361904Y-84980952D01*
X176790476Y-85552380D01*
X177409523Y-85552380D01*
X178028571Y-84552380D02*
X178123809Y-84552380D01*
X178219047Y-84600000D01*
X178266666Y-84647619D01*
X178314285Y-84742857D01*
X178361904Y-84933333D01*
X178361904Y-85171428D01*
X178314285Y-85361904D01*
X178266666Y-85457142D01*
X178219047Y-85504761D01*
X178123809Y-85552380D01*
X178028571Y-85552380D01*
X177933333Y-85504761D01*
X177885714Y-85457142D01*
X177838095Y-85361904D01*
X177790476Y-85171428D01*
X177790476Y-84933333D01*
X177838095Y-84742857D01*
X177885714Y-84647619D01*
X177933333Y-84600000D01*
X178028571Y-84552380D01*
%TO.C,C21*%
X182257142Y-83092857D02*
X182304761Y-83140476D01*
X182352380Y-83283333D01*
X182352380Y-83378571D01*
X182304761Y-83521428D01*
X182209523Y-83616666D01*
X182114285Y-83664285D01*
X181923809Y-83711904D01*
X181780952Y-83711904D01*
X181590476Y-83664285D01*
X181495238Y-83616666D01*
X181400000Y-83521428D01*
X181352380Y-83378571D01*
X181352380Y-83283333D01*
X181400000Y-83140476D01*
X181447619Y-83092857D01*
X181447619Y-82711904D02*
X181400000Y-82664285D01*
X181352380Y-82569047D01*
X181352380Y-82330952D01*
X181400000Y-82235714D01*
X181447619Y-82188095D01*
X181542857Y-82140476D01*
X181638095Y-82140476D01*
X181780952Y-82188095D01*
X182352380Y-82759523D01*
X182352380Y-82140476D01*
X182352380Y-81188095D02*
X182352380Y-81759523D01*
X182352380Y-81473809D02*
X181352380Y-81473809D01*
X181495238Y-81569047D01*
X181590476Y-81664285D01*
X181638095Y-81759523D01*
%TO.C,C22*%
X162037142Y-104642857D02*
X162084761Y-104690476D01*
X162132380Y-104833333D01*
X162132380Y-104928571D01*
X162084761Y-105071428D01*
X161989523Y-105166666D01*
X161894285Y-105214285D01*
X161703809Y-105261904D01*
X161560952Y-105261904D01*
X161370476Y-105214285D01*
X161275238Y-105166666D01*
X161180000Y-105071428D01*
X161132380Y-104928571D01*
X161132380Y-104833333D01*
X161180000Y-104690476D01*
X161227619Y-104642857D01*
X161227619Y-104261904D02*
X161180000Y-104214285D01*
X161132380Y-104119047D01*
X161132380Y-103880952D01*
X161180000Y-103785714D01*
X161227619Y-103738095D01*
X161322857Y-103690476D01*
X161418095Y-103690476D01*
X161560952Y-103738095D01*
X162132380Y-104309523D01*
X162132380Y-103690476D01*
X161227619Y-103309523D02*
X161180000Y-103261904D01*
X161132380Y-103166666D01*
X161132380Y-102928571D01*
X161180000Y-102833333D01*
X161227619Y-102785714D01*
X161322857Y-102738095D01*
X161418095Y-102738095D01*
X161560952Y-102785714D01*
X162132380Y-103357142D01*
X162132380Y-102738095D01*
%TO.C,C23*%
X151307142Y-109037142D02*
X151259523Y-109084761D01*
X151116666Y-109132380D01*
X151021428Y-109132380D01*
X150878571Y-109084761D01*
X150783333Y-108989523D01*
X150735714Y-108894285D01*
X150688095Y-108703809D01*
X150688095Y-108560952D01*
X150735714Y-108370476D01*
X150783333Y-108275238D01*
X150878571Y-108180000D01*
X151021428Y-108132380D01*
X151116666Y-108132380D01*
X151259523Y-108180000D01*
X151307142Y-108227619D01*
X151688095Y-108227619D02*
X151735714Y-108180000D01*
X151830952Y-108132380D01*
X152069047Y-108132380D01*
X152164285Y-108180000D01*
X152211904Y-108227619D01*
X152259523Y-108322857D01*
X152259523Y-108418095D01*
X152211904Y-108560952D01*
X151640476Y-109132380D01*
X152259523Y-109132380D01*
X152592857Y-108132380D02*
X153211904Y-108132380D01*
X152878571Y-108513333D01*
X153021428Y-108513333D01*
X153116666Y-108560952D01*
X153164285Y-108608571D01*
X153211904Y-108703809D01*
X153211904Y-108941904D01*
X153164285Y-109037142D01*
X153116666Y-109084761D01*
X153021428Y-109132380D01*
X152735714Y-109132380D01*
X152640476Y-109084761D01*
X152592857Y-109037142D01*
%TO.C,C24*%
X171207142Y-70957142D02*
X171159523Y-71004761D01*
X171016666Y-71052380D01*
X170921428Y-71052380D01*
X170778571Y-71004761D01*
X170683333Y-70909523D01*
X170635714Y-70814285D01*
X170588095Y-70623809D01*
X170588095Y-70480952D01*
X170635714Y-70290476D01*
X170683333Y-70195238D01*
X170778571Y-70100000D01*
X170921428Y-70052380D01*
X171016666Y-70052380D01*
X171159523Y-70100000D01*
X171207142Y-70147619D01*
X171588095Y-70147619D02*
X171635714Y-70100000D01*
X171730952Y-70052380D01*
X171969047Y-70052380D01*
X172064285Y-70100000D01*
X172111904Y-70147619D01*
X172159523Y-70242857D01*
X172159523Y-70338095D01*
X172111904Y-70480952D01*
X171540476Y-71052380D01*
X172159523Y-71052380D01*
X173016666Y-70385714D02*
X173016666Y-71052380D01*
X172778571Y-70004761D02*
X172540476Y-70719047D01*
X173159523Y-70719047D01*
%TO.C,C25*%
X163407142Y-90307142D02*
X163359523Y-90354761D01*
X163216666Y-90402380D01*
X163121428Y-90402380D01*
X162978571Y-90354761D01*
X162883333Y-90259523D01*
X162835714Y-90164285D01*
X162788095Y-89973809D01*
X162788095Y-89830952D01*
X162835714Y-89640476D01*
X162883333Y-89545238D01*
X162978571Y-89450000D01*
X163121428Y-89402380D01*
X163216666Y-89402380D01*
X163359523Y-89450000D01*
X163407142Y-89497619D01*
X163788095Y-89497619D02*
X163835714Y-89450000D01*
X163930952Y-89402380D01*
X164169047Y-89402380D01*
X164264285Y-89450000D01*
X164311904Y-89497619D01*
X164359523Y-89592857D01*
X164359523Y-89688095D01*
X164311904Y-89830952D01*
X163740476Y-90402380D01*
X164359523Y-90402380D01*
X165264285Y-89402380D02*
X164788095Y-89402380D01*
X164740476Y-89878571D01*
X164788095Y-89830952D01*
X164883333Y-89783333D01*
X165121428Y-89783333D01*
X165216666Y-89830952D01*
X165264285Y-89878571D01*
X165311904Y-89973809D01*
X165311904Y-90211904D01*
X165264285Y-90307142D01*
X165216666Y-90354761D01*
X165121428Y-90402380D01*
X164883333Y-90402380D01*
X164788095Y-90354761D01*
X164740476Y-90307142D01*
%TO.C,C26*%
X171007142Y-74657142D02*
X170959523Y-74704761D01*
X170816666Y-74752380D01*
X170721428Y-74752380D01*
X170578571Y-74704761D01*
X170483333Y-74609523D01*
X170435714Y-74514285D01*
X170388095Y-74323809D01*
X170388095Y-74180952D01*
X170435714Y-73990476D01*
X170483333Y-73895238D01*
X170578571Y-73800000D01*
X170721428Y-73752380D01*
X170816666Y-73752380D01*
X170959523Y-73800000D01*
X171007142Y-73847619D01*
X171388095Y-73847619D02*
X171435714Y-73800000D01*
X171530952Y-73752380D01*
X171769047Y-73752380D01*
X171864285Y-73800000D01*
X171911904Y-73847619D01*
X171959523Y-73942857D01*
X171959523Y-74038095D01*
X171911904Y-74180952D01*
X171340476Y-74752380D01*
X171959523Y-74752380D01*
X172816666Y-73752380D02*
X172626190Y-73752380D01*
X172530952Y-73800000D01*
X172483333Y-73847619D01*
X172388095Y-73990476D01*
X172340476Y-74180952D01*
X172340476Y-74561904D01*
X172388095Y-74657142D01*
X172435714Y-74704761D01*
X172530952Y-74752380D01*
X172721428Y-74752380D01*
X172816666Y-74704761D01*
X172864285Y-74657142D01*
X172911904Y-74561904D01*
X172911904Y-74323809D01*
X172864285Y-74228571D01*
X172816666Y-74180952D01*
X172721428Y-74133333D01*
X172530952Y-74133333D01*
X172435714Y-74180952D01*
X172388095Y-74228571D01*
X172340476Y-74323809D01*
%TO.C,C27*%
X159657142Y-85957142D02*
X159609523Y-86004761D01*
X159466666Y-86052380D01*
X159371428Y-86052380D01*
X159228571Y-86004761D01*
X159133333Y-85909523D01*
X159085714Y-85814285D01*
X159038095Y-85623809D01*
X159038095Y-85480952D01*
X159085714Y-85290476D01*
X159133333Y-85195238D01*
X159228571Y-85100000D01*
X159371428Y-85052380D01*
X159466666Y-85052380D01*
X159609523Y-85100000D01*
X159657142Y-85147619D01*
X160038095Y-85147619D02*
X160085714Y-85100000D01*
X160180952Y-85052380D01*
X160419047Y-85052380D01*
X160514285Y-85100000D01*
X160561904Y-85147619D01*
X160609523Y-85242857D01*
X160609523Y-85338095D01*
X160561904Y-85480952D01*
X159990476Y-86052380D01*
X160609523Y-86052380D01*
X160942857Y-85052380D02*
X161609523Y-85052380D01*
X161180952Y-86052380D01*
%TO.C,C28*%
X178757142Y-60157142D02*
X178709523Y-60204761D01*
X178566666Y-60252380D01*
X178471428Y-60252380D01*
X178328571Y-60204761D01*
X178233333Y-60109523D01*
X178185714Y-60014285D01*
X178138095Y-59823809D01*
X178138095Y-59680952D01*
X178185714Y-59490476D01*
X178233333Y-59395238D01*
X178328571Y-59300000D01*
X178471428Y-59252380D01*
X178566666Y-59252380D01*
X178709523Y-59300000D01*
X178757142Y-59347619D01*
X179138095Y-59347619D02*
X179185714Y-59300000D01*
X179280952Y-59252380D01*
X179519047Y-59252380D01*
X179614285Y-59300000D01*
X179661904Y-59347619D01*
X179709523Y-59442857D01*
X179709523Y-59538095D01*
X179661904Y-59680952D01*
X179090476Y-60252380D01*
X179709523Y-60252380D01*
X180280952Y-59680952D02*
X180185714Y-59633333D01*
X180138095Y-59585714D01*
X180090476Y-59490476D01*
X180090476Y-59442857D01*
X180138095Y-59347619D01*
X180185714Y-59300000D01*
X180280952Y-59252380D01*
X180471428Y-59252380D01*
X180566666Y-59300000D01*
X180614285Y-59347619D01*
X180661904Y-59442857D01*
X180661904Y-59490476D01*
X180614285Y-59585714D01*
X180566666Y-59633333D01*
X180471428Y-59680952D01*
X180280952Y-59680952D01*
X180185714Y-59728571D01*
X180138095Y-59776190D01*
X180090476Y-59871428D01*
X180090476Y-60061904D01*
X180138095Y-60157142D01*
X180185714Y-60204761D01*
X180280952Y-60252380D01*
X180471428Y-60252380D01*
X180566666Y-60204761D01*
X180614285Y-60157142D01*
X180661904Y-60061904D01*
X180661904Y-59871428D01*
X180614285Y-59776190D01*
X180566666Y-59728571D01*
X180471428Y-59680952D01*
%TO.C,C29*%
X186157142Y-72142857D02*
X186204761Y-72190476D01*
X186252380Y-72333333D01*
X186252380Y-72428571D01*
X186204761Y-72571428D01*
X186109523Y-72666666D01*
X186014285Y-72714285D01*
X185823809Y-72761904D01*
X185680952Y-72761904D01*
X185490476Y-72714285D01*
X185395238Y-72666666D01*
X185300000Y-72571428D01*
X185252380Y-72428571D01*
X185252380Y-72333333D01*
X185300000Y-72190476D01*
X185347619Y-72142857D01*
X185347619Y-71761904D02*
X185300000Y-71714285D01*
X185252380Y-71619047D01*
X185252380Y-71380952D01*
X185300000Y-71285714D01*
X185347619Y-71238095D01*
X185442857Y-71190476D01*
X185538095Y-71190476D01*
X185680952Y-71238095D01*
X186252380Y-71809523D01*
X186252380Y-71190476D01*
X186252380Y-70714285D02*
X186252380Y-70523809D01*
X186204761Y-70428571D01*
X186157142Y-70380952D01*
X186014285Y-70285714D01*
X185823809Y-70238095D01*
X185442857Y-70238095D01*
X185347619Y-70285714D01*
X185300000Y-70333333D01*
X185252380Y-70428571D01*
X185252380Y-70619047D01*
X185300000Y-70714285D01*
X185347619Y-70761904D01*
X185442857Y-70809523D01*
X185680952Y-70809523D01*
X185776190Y-70761904D01*
X185823809Y-70714285D01*
X185871428Y-70619047D01*
X185871428Y-70428571D01*
X185823809Y-70333333D01*
X185776190Y-70285714D01*
X185680952Y-70238095D01*
%TO.C,C30*%
X144857142Y-65177142D02*
X144809523Y-65224761D01*
X144666666Y-65272380D01*
X144571428Y-65272380D01*
X144428571Y-65224761D01*
X144333333Y-65129523D01*
X144285714Y-65034285D01*
X144238095Y-64843809D01*
X144238095Y-64700952D01*
X144285714Y-64510476D01*
X144333333Y-64415238D01*
X144428571Y-64320000D01*
X144571428Y-64272380D01*
X144666666Y-64272380D01*
X144809523Y-64320000D01*
X144857142Y-64367619D01*
X145190476Y-64272380D02*
X145809523Y-64272380D01*
X145476190Y-64653333D01*
X145619047Y-64653333D01*
X145714285Y-64700952D01*
X145761904Y-64748571D01*
X145809523Y-64843809D01*
X145809523Y-65081904D01*
X145761904Y-65177142D01*
X145714285Y-65224761D01*
X145619047Y-65272380D01*
X145333333Y-65272380D01*
X145238095Y-65224761D01*
X145190476Y-65177142D01*
X146428571Y-64272380D02*
X146523809Y-64272380D01*
X146619047Y-64320000D01*
X146666666Y-64367619D01*
X146714285Y-64462857D01*
X146761904Y-64653333D01*
X146761904Y-64891428D01*
X146714285Y-65081904D01*
X146666666Y-65177142D01*
X146619047Y-65224761D01*
X146523809Y-65272380D01*
X146428571Y-65272380D01*
X146333333Y-65224761D01*
X146285714Y-65177142D01*
X146238095Y-65081904D01*
X146190476Y-64891428D01*
X146190476Y-64653333D01*
X146238095Y-64462857D01*
X146285714Y-64367619D01*
X146333333Y-64320000D01*
X146428571Y-64272380D01*
%TO.C,C31*%
X133357142Y-51677142D02*
X133309523Y-51724761D01*
X133166666Y-51772380D01*
X133071428Y-51772380D01*
X132928571Y-51724761D01*
X132833333Y-51629523D01*
X132785714Y-51534285D01*
X132738095Y-51343809D01*
X132738095Y-51200952D01*
X132785714Y-51010476D01*
X132833333Y-50915238D01*
X132928571Y-50820000D01*
X133071428Y-50772380D01*
X133166666Y-50772380D01*
X133309523Y-50820000D01*
X133357142Y-50867619D01*
X133690476Y-50772380D02*
X134309523Y-50772380D01*
X133976190Y-51153333D01*
X134119047Y-51153333D01*
X134214285Y-51200952D01*
X134261904Y-51248571D01*
X134309523Y-51343809D01*
X134309523Y-51581904D01*
X134261904Y-51677142D01*
X134214285Y-51724761D01*
X134119047Y-51772380D01*
X133833333Y-51772380D01*
X133738095Y-51724761D01*
X133690476Y-51677142D01*
X135261904Y-51772380D02*
X134690476Y-51772380D01*
X134976190Y-51772380D02*
X134976190Y-50772380D01*
X134880952Y-50915238D01*
X134785714Y-51010476D01*
X134690476Y-51058095D01*
%TO.C,C32*%
X149357142Y-65177142D02*
X149309523Y-65224761D01*
X149166666Y-65272380D01*
X149071428Y-65272380D01*
X148928571Y-65224761D01*
X148833333Y-65129523D01*
X148785714Y-65034285D01*
X148738095Y-64843809D01*
X148738095Y-64700952D01*
X148785714Y-64510476D01*
X148833333Y-64415238D01*
X148928571Y-64320000D01*
X149071428Y-64272380D01*
X149166666Y-64272380D01*
X149309523Y-64320000D01*
X149357142Y-64367619D01*
X149690476Y-64272380D02*
X150309523Y-64272380D01*
X149976190Y-64653333D01*
X150119047Y-64653333D01*
X150214285Y-64700952D01*
X150261904Y-64748571D01*
X150309523Y-64843809D01*
X150309523Y-65081904D01*
X150261904Y-65177142D01*
X150214285Y-65224761D01*
X150119047Y-65272380D01*
X149833333Y-65272380D01*
X149738095Y-65224761D01*
X149690476Y-65177142D01*
X150690476Y-64367619D02*
X150738095Y-64320000D01*
X150833333Y-64272380D01*
X151071428Y-64272380D01*
X151166666Y-64320000D01*
X151214285Y-64367619D01*
X151261904Y-64462857D01*
X151261904Y-64558095D01*
X151214285Y-64700952D01*
X150642857Y-65272380D01*
X151261904Y-65272380D01*
%TO.C,R1*%
X123333333Y-117602380D02*
X123000000Y-117126190D01*
X122761904Y-117602380D02*
X122761904Y-116602380D01*
X123142857Y-116602380D01*
X123238095Y-116650000D01*
X123285714Y-116697619D01*
X123333333Y-116792857D01*
X123333333Y-116935714D01*
X123285714Y-117030952D01*
X123238095Y-117078571D01*
X123142857Y-117126190D01*
X122761904Y-117126190D01*
X124285714Y-117602380D02*
X123714285Y-117602380D01*
X124000000Y-117602380D02*
X124000000Y-116602380D01*
X123904761Y-116745238D01*
X123809523Y-116840476D01*
X123714285Y-116888095D01*
%TO.C,R2*%
X136802380Y-70166666D02*
X136326190Y-70500000D01*
X136802380Y-70738095D02*
X135802380Y-70738095D01*
X135802380Y-70357142D01*
X135850000Y-70261904D01*
X135897619Y-70214285D01*
X135992857Y-70166666D01*
X136135714Y-70166666D01*
X136230952Y-70214285D01*
X136278571Y-70261904D01*
X136326190Y-70357142D01*
X136326190Y-70738095D01*
X135897619Y-69785714D02*
X135850000Y-69738095D01*
X135802380Y-69642857D01*
X135802380Y-69404761D01*
X135850000Y-69309523D01*
X135897619Y-69261904D01*
X135992857Y-69214285D01*
X136088095Y-69214285D01*
X136230952Y-69261904D01*
X136802380Y-69833333D01*
X136802380Y-69214285D01*
%TO.C,R3*%
X113833333Y-98802380D02*
X113500000Y-98326190D01*
X113261904Y-98802380D02*
X113261904Y-97802380D01*
X113642857Y-97802380D01*
X113738095Y-97850000D01*
X113785714Y-97897619D01*
X113833333Y-97992857D01*
X113833333Y-98135714D01*
X113785714Y-98230952D01*
X113738095Y-98278571D01*
X113642857Y-98326190D01*
X113261904Y-98326190D01*
X114166666Y-97802380D02*
X114785714Y-97802380D01*
X114452380Y-98183333D01*
X114595238Y-98183333D01*
X114690476Y-98230952D01*
X114738095Y-98278571D01*
X114785714Y-98373809D01*
X114785714Y-98611904D01*
X114738095Y-98707142D01*
X114690476Y-98754761D01*
X114595238Y-98802380D01*
X114309523Y-98802380D01*
X114214285Y-98754761D01*
X114166666Y-98707142D01*
%TO.C,R4*%
X134833333Y-84102380D02*
X134500000Y-83626190D01*
X134261904Y-84102380D02*
X134261904Y-83102380D01*
X134642857Y-83102380D01*
X134738095Y-83150000D01*
X134785714Y-83197619D01*
X134833333Y-83292857D01*
X134833333Y-83435714D01*
X134785714Y-83530952D01*
X134738095Y-83578571D01*
X134642857Y-83626190D01*
X134261904Y-83626190D01*
X135690476Y-83435714D02*
X135690476Y-84102380D01*
X135452380Y-83054761D02*
X135214285Y-83769047D01*
X135833333Y-83769047D01*
%TO.C,R5*%
X123333333Y-116802380D02*
X123000000Y-116326190D01*
X122761904Y-116802380D02*
X122761904Y-115802380D01*
X123142857Y-115802380D01*
X123238095Y-115850000D01*
X123285714Y-115897619D01*
X123333333Y-115992857D01*
X123333333Y-116135714D01*
X123285714Y-116230952D01*
X123238095Y-116278571D01*
X123142857Y-116326190D01*
X122761904Y-116326190D01*
X124238095Y-115802380D02*
X123761904Y-115802380D01*
X123714285Y-116278571D01*
X123761904Y-116230952D01*
X123857142Y-116183333D01*
X124095238Y-116183333D01*
X124190476Y-116230952D01*
X124238095Y-116278571D01*
X124285714Y-116373809D01*
X124285714Y-116611904D01*
X124238095Y-116707142D01*
X124190476Y-116754761D01*
X124095238Y-116802380D01*
X123857142Y-116802380D01*
X123761904Y-116754761D01*
X123714285Y-116707142D01*
%TO.C,R6*%
X149252380Y-53166666D02*
X148776190Y-53500000D01*
X149252380Y-53738095D02*
X148252380Y-53738095D01*
X148252380Y-53357142D01*
X148300000Y-53261904D01*
X148347619Y-53214285D01*
X148442857Y-53166666D01*
X148585714Y-53166666D01*
X148680952Y-53214285D01*
X148728571Y-53261904D01*
X148776190Y-53357142D01*
X148776190Y-53738095D01*
X148252380Y-52309523D02*
X148252380Y-52500000D01*
X148300000Y-52595238D01*
X148347619Y-52642857D01*
X148490476Y-52738095D01*
X148680952Y-52785714D01*
X149061904Y-52785714D01*
X149157142Y-52738095D01*
X149204761Y-52690476D01*
X149252380Y-52595238D01*
X149252380Y-52404761D01*
X149204761Y-52309523D01*
X149157142Y-52261904D01*
X149061904Y-52214285D01*
X148823809Y-52214285D01*
X148728571Y-52261904D01*
X148680952Y-52309523D01*
X148633333Y-52404761D01*
X148633333Y-52595238D01*
X148680952Y-52690476D01*
X148728571Y-52738095D01*
X148823809Y-52785714D01*
%TO.C,R7*%
X149833333Y-57302380D02*
X149500000Y-56826190D01*
X149261904Y-57302380D02*
X149261904Y-56302380D01*
X149642857Y-56302380D01*
X149738095Y-56350000D01*
X149785714Y-56397619D01*
X149833333Y-56492857D01*
X149833333Y-56635714D01*
X149785714Y-56730952D01*
X149738095Y-56778571D01*
X149642857Y-56826190D01*
X149261904Y-56826190D01*
X150166666Y-56302380D02*
X150833333Y-56302380D01*
X150404761Y-57302380D01*
%TO.C,R8*%
X177271333Y-56802380D02*
X176938000Y-56326190D01*
X176699904Y-56802380D02*
X176699904Y-55802380D01*
X177080857Y-55802380D01*
X177176095Y-55850000D01*
X177223714Y-55897619D01*
X177271333Y-55992857D01*
X177271333Y-56135714D01*
X177223714Y-56230952D01*
X177176095Y-56278571D01*
X177080857Y-56326190D01*
X176699904Y-56326190D01*
X177842761Y-56230952D02*
X177747523Y-56183333D01*
X177699904Y-56135714D01*
X177652285Y-56040476D01*
X177652285Y-55992857D01*
X177699904Y-55897619D01*
X177747523Y-55850000D01*
X177842761Y-55802380D01*
X178033238Y-55802380D01*
X178128476Y-55850000D01*
X178176095Y-55897619D01*
X178223714Y-55992857D01*
X178223714Y-56040476D01*
X178176095Y-56135714D01*
X178128476Y-56183333D01*
X178033238Y-56230952D01*
X177842761Y-56230952D01*
X177747523Y-56278571D01*
X177699904Y-56326190D01*
X177652285Y-56421428D01*
X177652285Y-56611904D01*
X177699904Y-56707142D01*
X177747523Y-56754761D01*
X177842761Y-56802380D01*
X178033238Y-56802380D01*
X178128476Y-56754761D01*
X178176095Y-56707142D01*
X178223714Y-56611904D01*
X178223714Y-56421428D01*
X178176095Y-56326190D01*
X178128476Y-56278571D01*
X178033238Y-56230952D01*
%TO.C,R9*%
X173333333Y-56802380D02*
X173000000Y-56326190D01*
X172761904Y-56802380D02*
X172761904Y-55802380D01*
X173142857Y-55802380D01*
X173238095Y-55850000D01*
X173285714Y-55897619D01*
X173333333Y-55992857D01*
X173333333Y-56135714D01*
X173285714Y-56230952D01*
X173238095Y-56278571D01*
X173142857Y-56326190D01*
X172761904Y-56326190D01*
X173809523Y-56802380D02*
X174000000Y-56802380D01*
X174095238Y-56754761D01*
X174142857Y-56707142D01*
X174238095Y-56564285D01*
X174285714Y-56373809D01*
X174285714Y-55992857D01*
X174238095Y-55897619D01*
X174190476Y-55850000D01*
X174095238Y-55802380D01*
X173904761Y-55802380D01*
X173809523Y-55850000D01*
X173761904Y-55897619D01*
X173714285Y-55992857D01*
X173714285Y-56230952D01*
X173761904Y-56326190D01*
X173809523Y-56373809D01*
X173904761Y-56421428D01*
X174095238Y-56421428D01*
X174190476Y-56373809D01*
X174238095Y-56326190D01*
X174285714Y-56230952D01*
%TO.C,R10*%
X156302380Y-70142857D02*
X155826190Y-70476190D01*
X156302380Y-70714285D02*
X155302380Y-70714285D01*
X155302380Y-70333333D01*
X155350000Y-70238095D01*
X155397619Y-70190476D01*
X155492857Y-70142857D01*
X155635714Y-70142857D01*
X155730952Y-70190476D01*
X155778571Y-70238095D01*
X155826190Y-70333333D01*
X155826190Y-70714285D01*
X156302380Y-69190476D02*
X156302380Y-69761904D01*
X156302380Y-69476190D02*
X155302380Y-69476190D01*
X155445238Y-69571428D01*
X155540476Y-69666666D01*
X155588095Y-69761904D01*
X155302380Y-68571428D02*
X155302380Y-68476190D01*
X155350000Y-68380952D01*
X155397619Y-68333333D01*
X155492857Y-68285714D01*
X155683333Y-68238095D01*
X155921428Y-68238095D01*
X156111904Y-68285714D01*
X156207142Y-68333333D01*
X156254761Y-68380952D01*
X156302380Y-68476190D01*
X156302380Y-68571428D01*
X156254761Y-68666666D01*
X156207142Y-68714285D01*
X156111904Y-68761904D01*
X155921428Y-68809523D01*
X155683333Y-68809523D01*
X155492857Y-68761904D01*
X155397619Y-68714285D01*
X155350000Y-68666666D01*
X155302380Y-68571428D01*
%TO.C,R11*%
X111307142Y-58602380D02*
X110973809Y-58126190D01*
X110735714Y-58602380D02*
X110735714Y-57602380D01*
X111116666Y-57602380D01*
X111211904Y-57650000D01*
X111259523Y-57697619D01*
X111307142Y-57792857D01*
X111307142Y-57935714D01*
X111259523Y-58030952D01*
X111211904Y-58078571D01*
X111116666Y-58126190D01*
X110735714Y-58126190D01*
X112259523Y-58602380D02*
X111688095Y-58602380D01*
X111973809Y-58602380D02*
X111973809Y-57602380D01*
X111878571Y-57745238D01*
X111783333Y-57840476D01*
X111688095Y-57888095D01*
X113211904Y-58602380D02*
X112640476Y-58602380D01*
X112926190Y-58602380D02*
X112926190Y-57602380D01*
X112830952Y-57745238D01*
X112735714Y-57840476D01*
X112640476Y-57888095D01*
%TO.C,R12*%
X147857142Y-86602380D02*
X147523809Y-86126190D01*
X147285714Y-86602380D02*
X147285714Y-85602380D01*
X147666666Y-85602380D01*
X147761904Y-85650000D01*
X147809523Y-85697619D01*
X147857142Y-85792857D01*
X147857142Y-85935714D01*
X147809523Y-86030952D01*
X147761904Y-86078571D01*
X147666666Y-86126190D01*
X147285714Y-86126190D01*
X148809523Y-86602380D02*
X148238095Y-86602380D01*
X148523809Y-86602380D02*
X148523809Y-85602380D01*
X148428571Y-85745238D01*
X148333333Y-85840476D01*
X148238095Y-85888095D01*
X149190476Y-85697619D02*
X149238095Y-85650000D01*
X149333333Y-85602380D01*
X149571428Y-85602380D01*
X149666666Y-85650000D01*
X149714285Y-85697619D01*
X149761904Y-85792857D01*
X149761904Y-85888095D01*
X149714285Y-86030952D01*
X149142857Y-86602380D01*
X149761904Y-86602380D01*
%TO.C,R13*%
X149402380Y-62642857D02*
X148926190Y-62976190D01*
X149402380Y-63214285D02*
X148402380Y-63214285D01*
X148402380Y-62833333D01*
X148450000Y-62738095D01*
X148497619Y-62690476D01*
X148592857Y-62642857D01*
X148735714Y-62642857D01*
X148830952Y-62690476D01*
X148878571Y-62738095D01*
X148926190Y-62833333D01*
X148926190Y-63214285D01*
X149402380Y-61690476D02*
X149402380Y-62261904D01*
X149402380Y-61976190D02*
X148402380Y-61976190D01*
X148545238Y-62071428D01*
X148640476Y-62166666D01*
X148688095Y-62261904D01*
X148402380Y-61357142D02*
X148402380Y-60738095D01*
X148783333Y-61071428D01*
X148783333Y-60928571D01*
X148830952Y-60833333D01*
X148878571Y-60785714D01*
X148973809Y-60738095D01*
X149211904Y-60738095D01*
X149307142Y-60785714D01*
X149354761Y-60833333D01*
X149402380Y-60928571D01*
X149402380Y-61214285D01*
X149354761Y-61309523D01*
X149307142Y-61357142D01*
%TO.C,R14*%
X113357142Y-111602380D02*
X113023809Y-111126190D01*
X112785714Y-111602380D02*
X112785714Y-110602380D01*
X113166666Y-110602380D01*
X113261904Y-110650000D01*
X113309523Y-110697619D01*
X113357142Y-110792857D01*
X113357142Y-110935714D01*
X113309523Y-111030952D01*
X113261904Y-111078571D01*
X113166666Y-111126190D01*
X112785714Y-111126190D01*
X114309523Y-111602380D02*
X113738095Y-111602380D01*
X114023809Y-111602380D02*
X114023809Y-110602380D01*
X113928571Y-110745238D01*
X113833333Y-110840476D01*
X113738095Y-110888095D01*
X115166666Y-110935714D02*
X115166666Y-111602380D01*
X114928571Y-110554761D02*
X114690476Y-111269047D01*
X115309523Y-111269047D01*
%TO.C,R15*%
X196857142Y-60602380D02*
X196523809Y-60126190D01*
X196285714Y-60602380D02*
X196285714Y-59602380D01*
X196666666Y-59602380D01*
X196761904Y-59650000D01*
X196809523Y-59697619D01*
X196857142Y-59792857D01*
X196857142Y-59935714D01*
X196809523Y-60030952D01*
X196761904Y-60078571D01*
X196666666Y-60126190D01*
X196285714Y-60126190D01*
X197809523Y-60602380D02*
X197238095Y-60602380D01*
X197523809Y-60602380D02*
X197523809Y-59602380D01*
X197428571Y-59745238D01*
X197333333Y-59840476D01*
X197238095Y-59888095D01*
X198714285Y-59602380D02*
X198238095Y-59602380D01*
X198190476Y-60078571D01*
X198238095Y-60030952D01*
X198333333Y-59983333D01*
X198571428Y-59983333D01*
X198666666Y-60030952D01*
X198714285Y-60078571D01*
X198761904Y-60173809D01*
X198761904Y-60411904D01*
X198714285Y-60507142D01*
X198666666Y-60554761D01*
X198571428Y-60602380D01*
X198333333Y-60602380D01*
X198238095Y-60554761D01*
X198190476Y-60507142D01*
%TO.C,R16*%
X157857142Y-77802380D02*
X157523809Y-77326190D01*
X157285714Y-77802380D02*
X157285714Y-76802380D01*
X157666666Y-76802380D01*
X157761904Y-76850000D01*
X157809523Y-76897619D01*
X157857142Y-76992857D01*
X157857142Y-77135714D01*
X157809523Y-77230952D01*
X157761904Y-77278571D01*
X157666666Y-77326190D01*
X157285714Y-77326190D01*
X158809523Y-77802380D02*
X158238095Y-77802380D01*
X158523809Y-77802380D02*
X158523809Y-76802380D01*
X158428571Y-76945238D01*
X158333333Y-77040476D01*
X158238095Y-77088095D01*
X159666666Y-76802380D02*
X159476190Y-76802380D01*
X159380952Y-76850000D01*
X159333333Y-76897619D01*
X159238095Y-77040476D01*
X159190476Y-77230952D01*
X159190476Y-77611904D01*
X159238095Y-77707142D01*
X159285714Y-77754761D01*
X159380952Y-77802380D01*
X159571428Y-77802380D01*
X159666666Y-77754761D01*
X159714285Y-77707142D01*
X159761904Y-77611904D01*
X159761904Y-77373809D01*
X159714285Y-77278571D01*
X159666666Y-77230952D01*
X159571428Y-77183333D01*
X159380952Y-77183333D01*
X159285714Y-77230952D01*
X159238095Y-77278571D01*
X159190476Y-77373809D01*
%TO.C,R17*%
X183857142Y-65102380D02*
X183523809Y-64626190D01*
X183285714Y-65102380D02*
X183285714Y-64102380D01*
X183666666Y-64102380D01*
X183761904Y-64150000D01*
X183809523Y-64197619D01*
X183857142Y-64292857D01*
X183857142Y-64435714D01*
X183809523Y-64530952D01*
X183761904Y-64578571D01*
X183666666Y-64626190D01*
X183285714Y-64626190D01*
X184809523Y-65102380D02*
X184238095Y-65102380D01*
X184523809Y-65102380D02*
X184523809Y-64102380D01*
X184428571Y-64245238D01*
X184333333Y-64340476D01*
X184238095Y-64388095D01*
X185142857Y-64102380D02*
X185809523Y-64102380D01*
X185380952Y-65102380D01*
%TO.C,R20*%
X190257142Y-57352380D02*
X189923809Y-56876190D01*
X189685714Y-57352380D02*
X189685714Y-56352380D01*
X190066666Y-56352380D01*
X190161904Y-56400000D01*
X190209523Y-56447619D01*
X190257142Y-56542857D01*
X190257142Y-56685714D01*
X190209523Y-56780952D01*
X190161904Y-56828571D01*
X190066666Y-56876190D01*
X189685714Y-56876190D01*
X190638095Y-56447619D02*
X190685714Y-56400000D01*
X190780952Y-56352380D01*
X191019047Y-56352380D01*
X191114285Y-56400000D01*
X191161904Y-56447619D01*
X191209523Y-56542857D01*
X191209523Y-56638095D01*
X191161904Y-56780952D01*
X190590476Y-57352380D01*
X191209523Y-57352380D01*
X191828571Y-56352380D02*
X191923809Y-56352380D01*
X192019047Y-56400000D01*
X192066666Y-56447619D01*
X192114285Y-56542857D01*
X192161904Y-56733333D01*
X192161904Y-56971428D01*
X192114285Y-57161904D01*
X192066666Y-57257142D01*
X192019047Y-57304761D01*
X191923809Y-57352380D01*
X191828571Y-57352380D01*
X191733333Y-57304761D01*
X191685714Y-57257142D01*
X191638095Y-57161904D01*
X191590476Y-56971428D01*
X191590476Y-56733333D01*
X191638095Y-56542857D01*
X191685714Y-56447619D01*
X191733333Y-56400000D01*
X191828571Y-56352380D01*
%TO.C,R21*%
X184602380Y-88142857D02*
X184126190Y-88476190D01*
X184602380Y-88714285D02*
X183602380Y-88714285D01*
X183602380Y-88333333D01*
X183650000Y-88238095D01*
X183697619Y-88190476D01*
X183792857Y-88142857D01*
X183935714Y-88142857D01*
X184030952Y-88190476D01*
X184078571Y-88238095D01*
X184126190Y-88333333D01*
X184126190Y-88714285D01*
X183697619Y-87761904D02*
X183650000Y-87714285D01*
X183602380Y-87619047D01*
X183602380Y-87380952D01*
X183650000Y-87285714D01*
X183697619Y-87238095D01*
X183792857Y-87190476D01*
X183888095Y-87190476D01*
X184030952Y-87238095D01*
X184602380Y-87809523D01*
X184602380Y-87190476D01*
X184602380Y-86238095D02*
X184602380Y-86809523D01*
X184602380Y-86523809D02*
X183602380Y-86523809D01*
X183745238Y-86619047D01*
X183840476Y-86714285D01*
X183888095Y-86809523D01*
%TO.C,R22*%
X143502380Y-58142857D02*
X143026190Y-58476190D01*
X143502380Y-58714285D02*
X142502380Y-58714285D01*
X142502380Y-58333333D01*
X142550000Y-58238095D01*
X142597619Y-58190476D01*
X142692857Y-58142857D01*
X142835714Y-58142857D01*
X142930952Y-58190476D01*
X142978571Y-58238095D01*
X143026190Y-58333333D01*
X143026190Y-58714285D01*
X142597619Y-57761904D02*
X142550000Y-57714285D01*
X142502380Y-57619047D01*
X142502380Y-57380952D01*
X142550000Y-57285714D01*
X142597619Y-57238095D01*
X142692857Y-57190476D01*
X142788095Y-57190476D01*
X142930952Y-57238095D01*
X143502380Y-57809523D01*
X143502380Y-57190476D01*
X142597619Y-56809523D02*
X142550000Y-56761904D01*
X142502380Y-56666666D01*
X142502380Y-56428571D01*
X142550000Y-56333333D01*
X142597619Y-56285714D01*
X142692857Y-56238095D01*
X142788095Y-56238095D01*
X142930952Y-56285714D01*
X143502380Y-56857142D01*
X143502380Y-56238095D01*
%TO.C,R23*%
X166357142Y-64602380D02*
X166023809Y-64126190D01*
X165785714Y-64602380D02*
X165785714Y-63602380D01*
X166166666Y-63602380D01*
X166261904Y-63650000D01*
X166309523Y-63697619D01*
X166357142Y-63792857D01*
X166357142Y-63935714D01*
X166309523Y-64030952D01*
X166261904Y-64078571D01*
X166166666Y-64126190D01*
X165785714Y-64126190D01*
X166738095Y-63697619D02*
X166785714Y-63650000D01*
X166880952Y-63602380D01*
X167119047Y-63602380D01*
X167214285Y-63650000D01*
X167261904Y-63697619D01*
X167309523Y-63792857D01*
X167309523Y-63888095D01*
X167261904Y-64030952D01*
X166690476Y-64602380D01*
X167309523Y-64602380D01*
X167642857Y-63602380D02*
X168261904Y-63602380D01*
X167928571Y-63983333D01*
X168071428Y-63983333D01*
X168166666Y-64030952D01*
X168214285Y-64078571D01*
X168261904Y-64173809D01*
X168261904Y-64411904D01*
X168214285Y-64507142D01*
X168166666Y-64554761D01*
X168071428Y-64602380D01*
X167785714Y-64602380D01*
X167690476Y-64554761D01*
X167642857Y-64507142D01*
%TO.C,R24*%
X161857142Y-62302380D02*
X161523809Y-61826190D01*
X161285714Y-62302380D02*
X161285714Y-61302380D01*
X161666666Y-61302380D01*
X161761904Y-61350000D01*
X161809523Y-61397619D01*
X161857142Y-61492857D01*
X161857142Y-61635714D01*
X161809523Y-61730952D01*
X161761904Y-61778571D01*
X161666666Y-61826190D01*
X161285714Y-61826190D01*
X162238095Y-61397619D02*
X162285714Y-61350000D01*
X162380952Y-61302380D01*
X162619047Y-61302380D01*
X162714285Y-61350000D01*
X162761904Y-61397619D01*
X162809523Y-61492857D01*
X162809523Y-61588095D01*
X162761904Y-61730952D01*
X162190476Y-62302380D01*
X162809523Y-62302380D01*
X163666666Y-61635714D02*
X163666666Y-62302380D01*
X163428571Y-61254761D02*
X163190476Y-61969047D01*
X163809523Y-61969047D01*
%TO.C,R25*%
X164802380Y-59642857D02*
X164326190Y-59976190D01*
X164802380Y-60214285D02*
X163802380Y-60214285D01*
X163802380Y-59833333D01*
X163850000Y-59738095D01*
X163897619Y-59690476D01*
X163992857Y-59642857D01*
X164135714Y-59642857D01*
X164230952Y-59690476D01*
X164278571Y-59738095D01*
X164326190Y-59833333D01*
X164326190Y-60214285D01*
X163897619Y-59261904D02*
X163850000Y-59214285D01*
X163802380Y-59119047D01*
X163802380Y-58880952D01*
X163850000Y-58785714D01*
X163897619Y-58738095D01*
X163992857Y-58690476D01*
X164088095Y-58690476D01*
X164230952Y-58738095D01*
X164802380Y-59309523D01*
X164802380Y-58690476D01*
X163802380Y-57785714D02*
X163802380Y-58261904D01*
X164278571Y-58309523D01*
X164230952Y-58261904D01*
X164183333Y-58166666D01*
X164183333Y-57928571D01*
X164230952Y-57833333D01*
X164278571Y-57785714D01*
X164373809Y-57738095D01*
X164611904Y-57738095D01*
X164707142Y-57785714D01*
X164754761Y-57833333D01*
X164802380Y-57928571D01*
X164802380Y-58166666D01*
X164754761Y-58261904D01*
X164707142Y-58309523D01*
%TO.C,R26*%
X157857142Y-84102380D02*
X157523809Y-83626190D01*
X157285714Y-84102380D02*
X157285714Y-83102380D01*
X157666666Y-83102380D01*
X157761904Y-83150000D01*
X157809523Y-83197619D01*
X157857142Y-83292857D01*
X157857142Y-83435714D01*
X157809523Y-83530952D01*
X157761904Y-83578571D01*
X157666666Y-83626190D01*
X157285714Y-83626190D01*
X158238095Y-83197619D02*
X158285714Y-83150000D01*
X158380952Y-83102380D01*
X158619047Y-83102380D01*
X158714285Y-83150000D01*
X158761904Y-83197619D01*
X158809523Y-83292857D01*
X158809523Y-83388095D01*
X158761904Y-83530952D01*
X158190476Y-84102380D01*
X158809523Y-84102380D01*
X159666666Y-83102380D02*
X159476190Y-83102380D01*
X159380952Y-83150000D01*
X159333333Y-83197619D01*
X159238095Y-83340476D01*
X159190476Y-83530952D01*
X159190476Y-83911904D01*
X159238095Y-84007142D01*
X159285714Y-84054761D01*
X159380952Y-84102380D01*
X159571428Y-84102380D01*
X159666666Y-84054761D01*
X159714285Y-84007142D01*
X159761904Y-83911904D01*
X159761904Y-83673809D01*
X159714285Y-83578571D01*
X159666666Y-83530952D01*
X159571428Y-83483333D01*
X159380952Y-83483333D01*
X159285714Y-83530952D01*
X159238095Y-83578571D01*
X159190476Y-83673809D01*
%TO.C,R27*%
X156802380Y-74642857D02*
X156326190Y-74976190D01*
X156802380Y-75214285D02*
X155802380Y-75214285D01*
X155802380Y-74833333D01*
X155850000Y-74738095D01*
X155897619Y-74690476D01*
X155992857Y-74642857D01*
X156135714Y-74642857D01*
X156230952Y-74690476D01*
X156278571Y-74738095D01*
X156326190Y-74833333D01*
X156326190Y-75214285D01*
X155897619Y-74261904D02*
X155850000Y-74214285D01*
X155802380Y-74119047D01*
X155802380Y-73880952D01*
X155850000Y-73785714D01*
X155897619Y-73738095D01*
X155992857Y-73690476D01*
X156088095Y-73690476D01*
X156230952Y-73738095D01*
X156802380Y-74309523D01*
X156802380Y-73690476D01*
X155802380Y-73357142D02*
X155802380Y-72690476D01*
X156802380Y-73119047D01*
%TO.C,R28*%
X153302380Y-77642857D02*
X152826190Y-77976190D01*
X153302380Y-78214285D02*
X152302380Y-78214285D01*
X152302380Y-77833333D01*
X152350000Y-77738095D01*
X152397619Y-77690476D01*
X152492857Y-77642857D01*
X152635714Y-77642857D01*
X152730952Y-77690476D01*
X152778571Y-77738095D01*
X152826190Y-77833333D01*
X152826190Y-78214285D01*
X152397619Y-77261904D02*
X152350000Y-77214285D01*
X152302380Y-77119047D01*
X152302380Y-76880952D01*
X152350000Y-76785714D01*
X152397619Y-76738095D01*
X152492857Y-76690476D01*
X152588095Y-76690476D01*
X152730952Y-76738095D01*
X153302380Y-77309523D01*
X153302380Y-76690476D01*
X152730952Y-76119047D02*
X152683333Y-76214285D01*
X152635714Y-76261904D01*
X152540476Y-76309523D01*
X152492857Y-76309523D01*
X152397619Y-76261904D01*
X152350000Y-76214285D01*
X152302380Y-76119047D01*
X152302380Y-75928571D01*
X152350000Y-75833333D01*
X152397619Y-75785714D01*
X152492857Y-75738095D01*
X152540476Y-75738095D01*
X152635714Y-75785714D01*
X152683333Y-75833333D01*
X152730952Y-75928571D01*
X152730952Y-76119047D01*
X152778571Y-76214285D01*
X152826190Y-76261904D01*
X152921428Y-76309523D01*
X153111904Y-76309523D01*
X153207142Y-76261904D01*
X153254761Y-76214285D01*
X153302380Y-76119047D01*
X153302380Y-75928571D01*
X153254761Y-75833333D01*
X153207142Y-75785714D01*
X153111904Y-75738095D01*
X152921428Y-75738095D01*
X152826190Y-75785714D01*
X152778571Y-75833333D01*
X152730952Y-75928571D01*
%TO.C,R29*%
X173457142Y-85252380D02*
X173123809Y-84776190D01*
X172885714Y-85252380D02*
X172885714Y-84252380D01*
X173266666Y-84252380D01*
X173361904Y-84300000D01*
X173409523Y-84347619D01*
X173457142Y-84442857D01*
X173457142Y-84585714D01*
X173409523Y-84680952D01*
X173361904Y-84728571D01*
X173266666Y-84776190D01*
X172885714Y-84776190D01*
X173838095Y-84347619D02*
X173885714Y-84300000D01*
X173980952Y-84252380D01*
X174219047Y-84252380D01*
X174314285Y-84300000D01*
X174361904Y-84347619D01*
X174409523Y-84442857D01*
X174409523Y-84538095D01*
X174361904Y-84680952D01*
X173790476Y-85252380D01*
X174409523Y-85252380D01*
X174885714Y-85252380D02*
X175076190Y-85252380D01*
X175171428Y-85204761D01*
X175219047Y-85157142D01*
X175314285Y-85014285D01*
X175361904Y-84823809D01*
X175361904Y-84442857D01*
X175314285Y-84347619D01*
X175266666Y-84300000D01*
X175171428Y-84252380D01*
X174980952Y-84252380D01*
X174885714Y-84300000D01*
X174838095Y-84347619D01*
X174790476Y-84442857D01*
X174790476Y-84680952D01*
X174838095Y-84776190D01*
X174885714Y-84823809D01*
X174980952Y-84871428D01*
X175171428Y-84871428D01*
X175266666Y-84823809D01*
X175314285Y-84776190D01*
X175361904Y-84680952D01*
%TO.C,R30*%
X170357142Y-87952380D02*
X170023809Y-87476190D01*
X169785714Y-87952380D02*
X169785714Y-86952380D01*
X170166666Y-86952380D01*
X170261904Y-87000000D01*
X170309523Y-87047619D01*
X170357142Y-87142857D01*
X170357142Y-87285714D01*
X170309523Y-87380952D01*
X170261904Y-87428571D01*
X170166666Y-87476190D01*
X169785714Y-87476190D01*
X170690476Y-86952380D02*
X171309523Y-86952380D01*
X170976190Y-87333333D01*
X171119047Y-87333333D01*
X171214285Y-87380952D01*
X171261904Y-87428571D01*
X171309523Y-87523809D01*
X171309523Y-87761904D01*
X171261904Y-87857142D01*
X171214285Y-87904761D01*
X171119047Y-87952380D01*
X170833333Y-87952380D01*
X170738095Y-87904761D01*
X170690476Y-87857142D01*
X171928571Y-86952380D02*
X172023809Y-86952380D01*
X172119047Y-87000000D01*
X172166666Y-87047619D01*
X172214285Y-87142857D01*
X172261904Y-87333333D01*
X172261904Y-87571428D01*
X172214285Y-87761904D01*
X172166666Y-87857142D01*
X172119047Y-87904761D01*
X172023809Y-87952380D01*
X171928571Y-87952380D01*
X171833333Y-87904761D01*
X171785714Y-87857142D01*
X171738095Y-87761904D01*
X171690476Y-87571428D01*
X171690476Y-87333333D01*
X171738095Y-87142857D01*
X171785714Y-87047619D01*
X171833333Y-87000000D01*
X171928571Y-86952380D01*
%TO.C,R31*%
X172802380Y-80642857D02*
X172326190Y-80976190D01*
X172802380Y-81214285D02*
X171802380Y-81214285D01*
X171802380Y-80833333D01*
X171850000Y-80738095D01*
X171897619Y-80690476D01*
X171992857Y-80642857D01*
X172135714Y-80642857D01*
X172230952Y-80690476D01*
X172278571Y-80738095D01*
X172326190Y-80833333D01*
X172326190Y-81214285D01*
X171802380Y-80309523D02*
X171802380Y-79690476D01*
X172183333Y-80023809D01*
X172183333Y-79880952D01*
X172230952Y-79785714D01*
X172278571Y-79738095D01*
X172373809Y-79690476D01*
X172611904Y-79690476D01*
X172707142Y-79738095D01*
X172754761Y-79785714D01*
X172802380Y-79880952D01*
X172802380Y-80166666D01*
X172754761Y-80261904D01*
X172707142Y-80309523D01*
X172802380Y-78738095D02*
X172802380Y-79309523D01*
X172802380Y-79023809D02*
X171802380Y-79023809D01*
X171945238Y-79119047D01*
X172040476Y-79214285D01*
X172088095Y-79309523D01*
%TO.C,R32*%
X175802380Y-79142857D02*
X175326190Y-79476190D01*
X175802380Y-79714285D02*
X174802380Y-79714285D01*
X174802380Y-79333333D01*
X174850000Y-79238095D01*
X174897619Y-79190476D01*
X174992857Y-79142857D01*
X175135714Y-79142857D01*
X175230952Y-79190476D01*
X175278571Y-79238095D01*
X175326190Y-79333333D01*
X175326190Y-79714285D01*
X174802380Y-78809523D02*
X174802380Y-78190476D01*
X175183333Y-78523809D01*
X175183333Y-78380952D01*
X175230952Y-78285714D01*
X175278571Y-78238095D01*
X175373809Y-78190476D01*
X175611904Y-78190476D01*
X175707142Y-78238095D01*
X175754761Y-78285714D01*
X175802380Y-78380952D01*
X175802380Y-78666666D01*
X175754761Y-78761904D01*
X175707142Y-78809523D01*
X174897619Y-77809523D02*
X174850000Y-77761904D01*
X174802380Y-77666666D01*
X174802380Y-77428571D01*
X174850000Y-77333333D01*
X174897619Y-77285714D01*
X174992857Y-77238095D01*
X175088095Y-77238095D01*
X175230952Y-77285714D01*
X175802380Y-77857142D01*
X175802380Y-77238095D01*
%TO.C,R33*%
X178657142Y-76152380D02*
X178323809Y-75676190D01*
X178085714Y-76152380D02*
X178085714Y-75152380D01*
X178466666Y-75152380D01*
X178561904Y-75200000D01*
X178609523Y-75247619D01*
X178657142Y-75342857D01*
X178657142Y-75485714D01*
X178609523Y-75580952D01*
X178561904Y-75628571D01*
X178466666Y-75676190D01*
X178085714Y-75676190D01*
X178990476Y-75152380D02*
X179609523Y-75152380D01*
X179276190Y-75533333D01*
X179419047Y-75533333D01*
X179514285Y-75580952D01*
X179561904Y-75628571D01*
X179609523Y-75723809D01*
X179609523Y-75961904D01*
X179561904Y-76057142D01*
X179514285Y-76104761D01*
X179419047Y-76152380D01*
X179133333Y-76152380D01*
X179038095Y-76104761D01*
X178990476Y-76057142D01*
X179942857Y-75152380D02*
X180561904Y-75152380D01*
X180228571Y-75533333D01*
X180371428Y-75533333D01*
X180466666Y-75580952D01*
X180514285Y-75628571D01*
X180561904Y-75723809D01*
X180561904Y-75961904D01*
X180514285Y-76057142D01*
X180466666Y-76104761D01*
X180371428Y-76152380D01*
X180085714Y-76152380D01*
X179990476Y-76104761D01*
X179942857Y-76057142D01*
%TO.C,R34*%
X121357142Y-51452380D02*
X121023809Y-50976190D01*
X120785714Y-51452380D02*
X120785714Y-50452380D01*
X121166666Y-50452380D01*
X121261904Y-50500000D01*
X121309523Y-50547619D01*
X121357142Y-50642857D01*
X121357142Y-50785714D01*
X121309523Y-50880952D01*
X121261904Y-50928571D01*
X121166666Y-50976190D01*
X120785714Y-50976190D01*
X121690476Y-50452380D02*
X122309523Y-50452380D01*
X121976190Y-50833333D01*
X122119047Y-50833333D01*
X122214285Y-50880952D01*
X122261904Y-50928571D01*
X122309523Y-51023809D01*
X122309523Y-51261904D01*
X122261904Y-51357142D01*
X122214285Y-51404761D01*
X122119047Y-51452380D01*
X121833333Y-51452380D01*
X121738095Y-51404761D01*
X121690476Y-51357142D01*
X123166666Y-50785714D02*
X123166666Y-51452380D01*
X122928571Y-50404761D02*
X122690476Y-51119047D01*
X123309523Y-51119047D01*
%TO.C,R35*%
X125757142Y-51502380D02*
X125423809Y-51026190D01*
X125185714Y-51502380D02*
X125185714Y-50502380D01*
X125566666Y-50502380D01*
X125661904Y-50550000D01*
X125709523Y-50597619D01*
X125757142Y-50692857D01*
X125757142Y-50835714D01*
X125709523Y-50930952D01*
X125661904Y-50978571D01*
X125566666Y-51026190D01*
X125185714Y-51026190D01*
X126090476Y-50502380D02*
X126709523Y-50502380D01*
X126376190Y-50883333D01*
X126519047Y-50883333D01*
X126614285Y-50930952D01*
X126661904Y-50978571D01*
X126709523Y-51073809D01*
X126709523Y-51311904D01*
X126661904Y-51407142D01*
X126614285Y-51454761D01*
X126519047Y-51502380D01*
X126233333Y-51502380D01*
X126138095Y-51454761D01*
X126090476Y-51407142D01*
X127614285Y-50502380D02*
X127138095Y-50502380D01*
X127090476Y-50978571D01*
X127138095Y-50930952D01*
X127233333Y-50883333D01*
X127471428Y-50883333D01*
X127566666Y-50930952D01*
X127614285Y-50978571D01*
X127661904Y-51073809D01*
X127661904Y-51311904D01*
X127614285Y-51407142D01*
X127566666Y-51454761D01*
X127471428Y-51502380D01*
X127233333Y-51502380D01*
X127138095Y-51454761D01*
X127090476Y-51407142D01*
%TO.C,R36*%
X180857142Y-56802380D02*
X180523809Y-56326190D01*
X180285714Y-56802380D02*
X180285714Y-55802380D01*
X180666666Y-55802380D01*
X180761904Y-55850000D01*
X180809523Y-55897619D01*
X180857142Y-55992857D01*
X180857142Y-56135714D01*
X180809523Y-56230952D01*
X180761904Y-56278571D01*
X180666666Y-56326190D01*
X180285714Y-56326190D01*
X181190476Y-55802380D02*
X181809523Y-55802380D01*
X181476190Y-56183333D01*
X181619047Y-56183333D01*
X181714285Y-56230952D01*
X181761904Y-56278571D01*
X181809523Y-56373809D01*
X181809523Y-56611904D01*
X181761904Y-56707142D01*
X181714285Y-56754761D01*
X181619047Y-56802380D01*
X181333333Y-56802380D01*
X181238095Y-56754761D01*
X181190476Y-56707142D01*
X182666666Y-55802380D02*
X182476190Y-55802380D01*
X182380952Y-55850000D01*
X182333333Y-55897619D01*
X182238095Y-56040476D01*
X182190476Y-56230952D01*
X182190476Y-56611904D01*
X182238095Y-56707142D01*
X182285714Y-56754761D01*
X182380952Y-56802380D01*
X182571428Y-56802380D01*
X182666666Y-56754761D01*
X182714285Y-56707142D01*
X182761904Y-56611904D01*
X182761904Y-56373809D01*
X182714285Y-56278571D01*
X182666666Y-56230952D01*
X182571428Y-56183333D01*
X182380952Y-56183333D01*
X182285714Y-56230952D01*
X182238095Y-56278571D01*
X182190476Y-56373809D01*
%TO.C,R37*%
X182007142Y-76102380D02*
X181673809Y-75626190D01*
X181435714Y-76102380D02*
X181435714Y-75102380D01*
X181816666Y-75102380D01*
X181911904Y-75150000D01*
X181959523Y-75197619D01*
X182007142Y-75292857D01*
X182007142Y-75435714D01*
X181959523Y-75530952D01*
X181911904Y-75578571D01*
X181816666Y-75626190D01*
X181435714Y-75626190D01*
X182340476Y-75102380D02*
X182959523Y-75102380D01*
X182626190Y-75483333D01*
X182769047Y-75483333D01*
X182864285Y-75530952D01*
X182911904Y-75578571D01*
X182959523Y-75673809D01*
X182959523Y-75911904D01*
X182911904Y-76007142D01*
X182864285Y-76054761D01*
X182769047Y-76102380D01*
X182483333Y-76102380D01*
X182388095Y-76054761D01*
X182340476Y-76007142D01*
X183292857Y-75102380D02*
X183959523Y-75102380D01*
X183530952Y-76102380D01*
%TO.C,R39*%
X140507142Y-52002380D02*
X140173809Y-51526190D01*
X139935714Y-52002380D02*
X139935714Y-51002380D01*
X140316666Y-51002380D01*
X140411904Y-51050000D01*
X140459523Y-51097619D01*
X140507142Y-51192857D01*
X140507142Y-51335714D01*
X140459523Y-51430952D01*
X140411904Y-51478571D01*
X140316666Y-51526190D01*
X139935714Y-51526190D01*
X140840476Y-51002380D02*
X141459523Y-51002380D01*
X141126190Y-51383333D01*
X141269047Y-51383333D01*
X141364285Y-51430952D01*
X141411904Y-51478571D01*
X141459523Y-51573809D01*
X141459523Y-51811904D01*
X141411904Y-51907142D01*
X141364285Y-51954761D01*
X141269047Y-52002380D01*
X140983333Y-52002380D01*
X140888095Y-51954761D01*
X140840476Y-51907142D01*
X141935714Y-52002380D02*
X142126190Y-52002380D01*
X142221428Y-51954761D01*
X142269047Y-51907142D01*
X142364285Y-51764285D01*
X142411904Y-51573809D01*
X142411904Y-51192857D01*
X142364285Y-51097619D01*
X142316666Y-51050000D01*
X142221428Y-51002380D01*
X142030952Y-51002380D01*
X141935714Y-51050000D01*
X141888095Y-51097619D01*
X141840476Y-51192857D01*
X141840476Y-51430952D01*
X141888095Y-51526190D01*
X141935714Y-51573809D01*
X142030952Y-51621428D01*
X142221428Y-51621428D01*
X142316666Y-51573809D01*
X142364285Y-51526190D01*
X142411904Y-51430952D01*
%TO.C,R10P1*%
X160802380Y-71119047D02*
X160326190Y-71452380D01*
X160802380Y-71690476D02*
X159802380Y-71690476D01*
X159802380Y-71309523D01*
X159850000Y-71214285D01*
X159897619Y-71166666D01*
X159992857Y-71119047D01*
X160135714Y-71119047D01*
X160230952Y-71166666D01*
X160278571Y-71214285D01*
X160326190Y-71309523D01*
X160326190Y-71690476D01*
X160802380Y-70166666D02*
X160802380Y-70738095D01*
X160802380Y-70452380D02*
X159802380Y-70452380D01*
X159945238Y-70547619D01*
X160040476Y-70642857D01*
X160088095Y-70738095D01*
X159802380Y-69547619D02*
X159802380Y-69452380D01*
X159850000Y-69357142D01*
X159897619Y-69309523D01*
X159992857Y-69261904D01*
X160183333Y-69214285D01*
X160421428Y-69214285D01*
X160611904Y-69261904D01*
X160707142Y-69309523D01*
X160754761Y-69357142D01*
X160802380Y-69452380D01*
X160802380Y-69547619D01*
X160754761Y-69642857D01*
X160707142Y-69690476D01*
X160611904Y-69738095D01*
X160421428Y-69785714D01*
X160183333Y-69785714D01*
X159992857Y-69738095D01*
X159897619Y-69690476D01*
X159850000Y-69642857D01*
X159802380Y-69547619D01*
X160802380Y-68785714D02*
X159802380Y-68785714D01*
X159802380Y-68404761D01*
X159850000Y-68309523D01*
X159897619Y-68261904D01*
X159992857Y-68214285D01*
X160135714Y-68214285D01*
X160230952Y-68261904D01*
X160278571Y-68309523D01*
X160326190Y-68404761D01*
X160326190Y-68785714D01*
X160802380Y-67261904D02*
X160802380Y-67833333D01*
X160802380Y-67547619D02*
X159802380Y-67547619D01*
X159945238Y-67642857D01*
X160040476Y-67738095D01*
X160088095Y-67833333D01*
%TO.C,R2P1*%
X140302380Y-71142857D02*
X139826190Y-71476190D01*
X140302380Y-71714285D02*
X139302380Y-71714285D01*
X139302380Y-71333333D01*
X139350000Y-71238095D01*
X139397619Y-71190476D01*
X139492857Y-71142857D01*
X139635714Y-71142857D01*
X139730952Y-71190476D01*
X139778571Y-71238095D01*
X139826190Y-71333333D01*
X139826190Y-71714285D01*
X139397619Y-70761904D02*
X139350000Y-70714285D01*
X139302380Y-70619047D01*
X139302380Y-70380952D01*
X139350000Y-70285714D01*
X139397619Y-70238095D01*
X139492857Y-70190476D01*
X139588095Y-70190476D01*
X139730952Y-70238095D01*
X140302380Y-70809523D01*
X140302380Y-70190476D01*
X140302380Y-69761904D02*
X139302380Y-69761904D01*
X139302380Y-69380952D01*
X139350000Y-69285714D01*
X139397619Y-69238095D01*
X139492857Y-69190476D01*
X139635714Y-69190476D01*
X139730952Y-69238095D01*
X139778571Y-69285714D01*
X139826190Y-69380952D01*
X139826190Y-69761904D01*
X140302380Y-68238095D02*
X140302380Y-68809523D01*
X140302380Y-68523809D02*
X139302380Y-68523809D01*
X139445238Y-68619047D01*
X139540476Y-68714285D01*
X139588095Y-68809523D01*
%TO.C,R52S1*%
X168154761Y-56652380D02*
X167821428Y-56176190D01*
X167583333Y-56652380D02*
X167583333Y-55652380D01*
X167964285Y-55652380D01*
X168059523Y-55700000D01*
X168107142Y-55747619D01*
X168154761Y-55842857D01*
X168154761Y-55985714D01*
X168107142Y-56080952D01*
X168059523Y-56128571D01*
X167964285Y-56176190D01*
X167583333Y-56176190D01*
X169059523Y-55652380D02*
X168583333Y-55652380D01*
X168535714Y-56128571D01*
X168583333Y-56080952D01*
X168678571Y-56033333D01*
X168916666Y-56033333D01*
X169011904Y-56080952D01*
X169059523Y-56128571D01*
X169107142Y-56223809D01*
X169107142Y-56461904D01*
X169059523Y-56557142D01*
X169011904Y-56604761D01*
X168916666Y-56652380D01*
X168678571Y-56652380D01*
X168583333Y-56604761D01*
X168535714Y-56557142D01*
X169488095Y-55747619D02*
X169535714Y-55700000D01*
X169630952Y-55652380D01*
X169869047Y-55652380D01*
X169964285Y-55700000D01*
X170011904Y-55747619D01*
X170059523Y-55842857D01*
X170059523Y-55938095D01*
X170011904Y-56080952D01*
X169440476Y-56652380D01*
X170059523Y-56652380D01*
X170440476Y-56604761D02*
X170583333Y-56652380D01*
X170821428Y-56652380D01*
X170916666Y-56604761D01*
X170964285Y-56557142D01*
X171011904Y-56461904D01*
X171011904Y-56366666D01*
X170964285Y-56271428D01*
X170916666Y-56223809D01*
X170821428Y-56176190D01*
X170630952Y-56128571D01*
X170535714Y-56080952D01*
X170488095Y-56033333D01*
X170440476Y-55938095D01*
X170440476Y-55842857D01*
X170488095Y-55747619D01*
X170535714Y-55700000D01*
X170630952Y-55652380D01*
X170869047Y-55652380D01*
X171011904Y-55700000D01*
X171964285Y-56652380D02*
X171392857Y-56652380D01*
X171678571Y-56652380D02*
X171678571Y-55652380D01*
X171583333Y-55795238D01*
X171488095Y-55890476D01*
X171392857Y-55938095D01*
%TO.C,SB3*%
X148738095Y-80204761D02*
X148880952Y-80252380D01*
X149119047Y-80252380D01*
X149214285Y-80204761D01*
X149261904Y-80157142D01*
X149309523Y-80061904D01*
X149309523Y-79966666D01*
X149261904Y-79871428D01*
X149214285Y-79823809D01*
X149119047Y-79776190D01*
X148928571Y-79728571D01*
X148833333Y-79680952D01*
X148785714Y-79633333D01*
X148738095Y-79538095D01*
X148738095Y-79442857D01*
X148785714Y-79347619D01*
X148833333Y-79300000D01*
X148928571Y-79252380D01*
X149166666Y-79252380D01*
X149309523Y-79300000D01*
X150071428Y-79728571D02*
X150214285Y-79776190D01*
X150261904Y-79823809D01*
X150309523Y-79919047D01*
X150309523Y-80061904D01*
X150261904Y-80157142D01*
X150214285Y-80204761D01*
X150119047Y-80252380D01*
X149738095Y-80252380D01*
X149738095Y-79252380D01*
X150071428Y-79252380D01*
X150166666Y-79300000D01*
X150214285Y-79347619D01*
X150261904Y-79442857D01*
X150261904Y-79538095D01*
X150214285Y-79633333D01*
X150166666Y-79680952D01*
X150071428Y-79728571D01*
X149738095Y-79728571D01*
X150642857Y-79252380D02*
X151261904Y-79252380D01*
X150928571Y-79633333D01*
X151071428Y-79633333D01*
X151166666Y-79680952D01*
X151214285Y-79728571D01*
X151261904Y-79823809D01*
X151261904Y-80061904D01*
X151214285Y-80157142D01*
X151166666Y-80204761D01*
X151071428Y-80252380D01*
X150785714Y-80252380D01*
X150690476Y-80204761D01*
X150642857Y-80157142D01*
%TO.C,SB4*%
X132238095Y-88904761D02*
X132380952Y-88952380D01*
X132619047Y-88952380D01*
X132714285Y-88904761D01*
X132761904Y-88857142D01*
X132809523Y-88761904D01*
X132809523Y-88666666D01*
X132761904Y-88571428D01*
X132714285Y-88523809D01*
X132619047Y-88476190D01*
X132428571Y-88428571D01*
X132333333Y-88380952D01*
X132285714Y-88333333D01*
X132238095Y-88238095D01*
X132238095Y-88142857D01*
X132285714Y-88047619D01*
X132333333Y-88000000D01*
X132428571Y-87952380D01*
X132666666Y-87952380D01*
X132809523Y-88000000D01*
X133571428Y-88428571D02*
X133714285Y-88476190D01*
X133761904Y-88523809D01*
X133809523Y-88619047D01*
X133809523Y-88761904D01*
X133761904Y-88857142D01*
X133714285Y-88904761D01*
X133619047Y-88952380D01*
X133238095Y-88952380D01*
X133238095Y-87952380D01*
X133571428Y-87952380D01*
X133666666Y-88000000D01*
X133714285Y-88047619D01*
X133761904Y-88142857D01*
X133761904Y-88238095D01*
X133714285Y-88333333D01*
X133666666Y-88380952D01*
X133571428Y-88428571D01*
X133238095Y-88428571D01*
X134666666Y-88285714D02*
X134666666Y-88952380D01*
X134428571Y-87904761D02*
X134190476Y-88619047D01*
X134809523Y-88619047D01*
%TO.C,U6*%
X124843095Y-87670380D02*
X124843095Y-88479904D01*
X124890714Y-88575142D01*
X124938333Y-88622761D01*
X125033571Y-88670380D01*
X125224047Y-88670380D01*
X125319285Y-88622761D01*
X125366904Y-88575142D01*
X125414523Y-88479904D01*
X125414523Y-87670380D01*
X126319285Y-87670380D02*
X126128809Y-87670380D01*
X126033571Y-87718000D01*
X125985952Y-87765619D01*
X125890714Y-87908476D01*
X125843095Y-88098952D01*
X125843095Y-88479904D01*
X125890714Y-88575142D01*
X125938333Y-88622761D01*
X126033571Y-88670380D01*
X126224047Y-88670380D01*
X126319285Y-88622761D01*
X126366904Y-88575142D01*
X126414523Y-88479904D01*
X126414523Y-88241809D01*
X126366904Y-88146571D01*
X126319285Y-88098952D01*
X126224047Y-88051333D01*
X126033571Y-88051333D01*
X125938333Y-88098952D01*
X125890714Y-88146571D01*
X125843095Y-88241809D01*
%TO.C,R18*%
X125937142Y-95962380D02*
X125603809Y-95486190D01*
X125365714Y-95962380D02*
X125365714Y-94962380D01*
X125746666Y-94962380D01*
X125841904Y-95010000D01*
X125889523Y-95057619D01*
X125937142Y-95152857D01*
X125937142Y-95295714D01*
X125889523Y-95390952D01*
X125841904Y-95438571D01*
X125746666Y-95486190D01*
X125365714Y-95486190D01*
X126889523Y-95962380D02*
X126318095Y-95962380D01*
X126603809Y-95962380D02*
X126603809Y-94962380D01*
X126508571Y-95105238D01*
X126413333Y-95200476D01*
X126318095Y-95248095D01*
X127460952Y-95390952D02*
X127365714Y-95343333D01*
X127318095Y-95295714D01*
X127270476Y-95200476D01*
X127270476Y-95152857D01*
X127318095Y-95057619D01*
X127365714Y-95010000D01*
X127460952Y-94962380D01*
X127651428Y-94962380D01*
X127746666Y-95010000D01*
X127794285Y-95057619D01*
X127841904Y-95152857D01*
X127841904Y-95200476D01*
X127794285Y-95295714D01*
X127746666Y-95343333D01*
X127651428Y-95390952D01*
X127460952Y-95390952D01*
X127365714Y-95438571D01*
X127318095Y-95486190D01*
X127270476Y-95581428D01*
X127270476Y-95771904D01*
X127318095Y-95867142D01*
X127365714Y-95914761D01*
X127460952Y-95962380D01*
X127651428Y-95962380D01*
X127746666Y-95914761D01*
X127794285Y-95867142D01*
X127841904Y-95771904D01*
X127841904Y-95581428D01*
X127794285Y-95486190D01*
X127746666Y-95438571D01*
X127651428Y-95390952D01*
%TO.C,R19*%
X140152380Y-63492857D02*
X139676190Y-63826190D01*
X140152380Y-64064285D02*
X139152380Y-64064285D01*
X139152380Y-63683333D01*
X139200000Y-63588095D01*
X139247619Y-63540476D01*
X139342857Y-63492857D01*
X139485714Y-63492857D01*
X139580952Y-63540476D01*
X139628571Y-63588095D01*
X139676190Y-63683333D01*
X139676190Y-64064285D01*
X140152380Y-62540476D02*
X140152380Y-63111904D01*
X140152380Y-62826190D02*
X139152380Y-62826190D01*
X139295238Y-62921428D01*
X139390476Y-63016666D01*
X139438095Y-63111904D01*
X140152380Y-62064285D02*
X140152380Y-61873809D01*
X140104761Y-61778571D01*
X140057142Y-61730952D01*
X139914285Y-61635714D01*
X139723809Y-61588095D01*
X139342857Y-61588095D01*
X139247619Y-61635714D01*
X139200000Y-61683333D01*
X139152380Y-61778571D01*
X139152380Y-61969047D01*
X139200000Y-62064285D01*
X139247619Y-62111904D01*
X139342857Y-62159523D01*
X139580952Y-62159523D01*
X139676190Y-62111904D01*
X139723809Y-62064285D01*
X139771428Y-61969047D01*
X139771428Y-61778571D01*
X139723809Y-61683333D01*
X139676190Y-61635714D01*
X139580952Y-61588095D01*
%TD*%
M02*
