M48
; DRILL file {KiCad (5.1.10)-1} date 05/25/22 15:21:55
; FORMAT={-:-/ absolute / inch / decimal}
; #@! TF.CreationDate,2022-05-25T15:21:55+02:00
; #@! TF.GenerationSoftware,Kicad,Pcbnew,(5.1.10)-1
; #@! TF.FileFunction,Plated,1,2,PTH
FMAT,2
INCH
T1C0.0138
T2C0.0382
T3C0.0390
T4C0.0394
T5C0.0520
T6C0.0630
T7C0.0728
%
G90
G05
T1
X4.1929Y-2.0079
X4.1929Y-3.2283
X4.1929Y-3.7598
X4.1929Y-4.5276
X4.5669Y-2.9921
X4.5669Y-4.5276
X4.7539Y-2.2776
X4.9409Y-2.9921
X5.0394Y-2.0079
X5.0394Y-2.2047
X5.1575Y-3.4055
X5.1969Y-2.0472
X5.2362Y-4.2913
X5.2643Y-2.6341
X5.2799Y-3.1632
X5.315Y-4.1339
X5.4331Y-2.0472
X5.4331Y-3.0906
X5.5709Y-2.9134
X5.5807Y-3.2717
X5.7087Y-3.3858
X5.7087Y-4.1339
X5.7087Y-4.2913
X5.7874Y-2.0472
X5.8295Y-2.4024
X5.874Y-3.9614
X5.8808Y-4.0211
X5.9449Y-2.2047
X5.9449Y-2.6378
X5.9843Y-3.3858
X6.0236Y-4.2913
X6.1417Y-4.2913
X6.2285Y-2.5979
X6.3386Y-3.3858
X6.4547Y-3.3068
X6.4561Y-2.9083
X6.4961Y-2.0472
X6.4961Y-2.2047
X6.5748Y-4.0945
X6.7711Y-3.2605
X6.8504Y-3.3858
X7.0079Y-2.0472
X7.1087Y-3.4694
X7.2382Y-3.0374
X7.2441Y-2.6772
X7.2835Y-2.2835
X7.2835Y-3.3858
X7.2835Y-3.7795
X7.2835Y-4.0945
X7.4803Y-3.4646
X7.5921Y-3.3164
X7.5933Y-4.0031
X7.6378Y-3.1496
X7.7559Y-4.2913
X7.815Y-3.1496
X7.815Y-3.4646
X7.874Y-2.4213
X7.874Y-2.5787
X7.9061Y-2.9291
X7.9134Y-4.0945
X7.9134Y-4.4094
X7.9934Y-3.7638
X8.1496Y-3.8189
X8.2087Y-2.0472
X8.2087Y-2.4213
T2
X4.4323Y-3.6402
X4.4323Y-3.7402
T3
X6.8504Y-2.6969
X6.8504Y-2.874
X6.8504Y-3.5433
X6.8504Y-3.7205
X7.1063Y-2.6969
X7.1063Y-2.874
X7.1063Y-3.5433
X7.1063Y-3.7205
T4
X4.7244Y-2.7346
X4.7244Y-2.8346
X4.7244Y-3.1299
X4.7244Y-3.2299
X4.8819Y-2.7346
X4.8819Y-2.8346
X4.8819Y-3.1283
X4.8819Y-3.2283
X5.0394Y-2.7362
X5.0394Y-2.8362
X5.0394Y-3.1299
X5.0394Y-3.2299
X5.215Y-3.0709
X5.315Y-3.0709
X5.689Y-3.7579
X5.748Y-2.7953
X5.8465Y-3.2087
X5.8661Y-3.7598
X5.9961Y-3.2106
X6.0961Y-3.2106
X6.2205Y-3.4449
X6.5945Y-2.126
X6.8799Y-2.9862
X7.1063Y-2.126
X7.2402Y-3.2441
X7.3803Y-2.0472
X7.4606Y-3.8012
X7.4803Y-2.0472
X7.5591Y-2.6575
X7.5606Y-3.8012
X7.5803Y-2.0472
X7.6378Y-2.4606
X7.6591Y-2.6575
X7.6606Y-3.8012
X7.7378Y-2.4606
X7.7591Y-2.6575
X7.7606Y-3.8012
X7.8591Y-2.6575
X7.9591Y-2.6575
X8.0591Y-2.6575
X8.1299Y-3.9157
X8.1299Y-4.0157
X8.1299Y-4.1157
X8.1299Y-4.2157
T5
X5.0744Y-4.2913
X7.9177Y-4.2913
T6
X4.148Y-2.8567
X4.1884Y-2.7593
X4.2636Y-2.879
X4.2858Y-2.7189
X4.2858Y-2.9945
X4.3833Y-2.7593
X4.3833Y-2.9541
X4.4236Y-2.8567
T7
X4.7835Y-3.9685
X4.7835Y-4.1535
X4.7835Y-4.3386
T0
M30
